<svg width="184" height="123" viewBox="0 0 184 123" fill="none" xmlns="http://www.w3.org/2000/svg">
<g clip-path="url(#clip0_2609_20392)">
<path d="M169.896 39.0799L174.174 41.3599L174.983 40.2199C175.1 40.0588 175.268 39.9291 175.466 39.8451C175.665 39.7612 175.886 39.7265 176.107 39.7449C176.357 39.7563 176.608 39.7563 176.859 39.7449C177.08 39.7396 177.298 39.7868 177.49 39.8813C177.682 39.9759 177.84 40.1141 177.947 40.2807L178.672 41.4473L183.096 39.4029L182.366 38.24C182.263 38.0718 182.215 37.8824 182.229 37.6927C182.244 37.503 182.318 37.3202 182.445 37.1646C182.59 36.9878 182.723 36.8038 182.843 36.6136C182.949 36.4468 183.106 36.3082 183.297 36.213C183.488 36.1179 183.706 36.0697 183.927 36.074L185.466 36.1158L185.626 31.795L184.078 31.757C183.856 31.7486 183.642 31.6878 183.458 31.5811C183.275 31.4744 183.129 31.3262 183.038 31.1528C182.985 31.0578 182.932 30.9628 182.87 30.8716C182.808 30.7804 182.751 30.6854 182.689 30.5942C182.573 30.4324 182.511 30.2463 182.511 30.0564C182.511 29.8666 182.573 29.6804 182.689 29.5187L183.507 28.3787L179.23 26.0986L178.416 27.2386C178.298 27.3995 178.13 27.5293 177.932 27.6138C177.734 27.6982 177.512 27.7341 177.292 27.7174C177.042 27.6985 176.791 27.6909 176.54 27.6946C176.319 27.7001 176.101 27.6529 175.91 27.5583C175.719 27.4637 175.562 27.3255 175.456 27.1588L174.731 25.9922L170.308 28.0367L171.037 29.2033C171.14 29.371 171.187 29.5601 171.172 29.7494C171.158 29.9386 171.082 30.1206 170.953 30.2749C170.81 30.4508 170.679 30.6335 170.56 30.8222C170.455 30.9902 170.299 31.13 170.108 31.226C169.916 31.322 169.697 31.3703 169.476 31.3656L167.932 31.3238L167.777 35.6445L169.321 35.6825C169.548 35.692 169.767 35.7563 169.953 35.8678C170.139 35.9794 170.285 36.1338 170.374 36.3134C170.427 36.4084 170.48 36.5034 170.542 36.5984C170.604 36.6934 170.661 36.7846 170.723 36.8758C170.839 37.0375 170.9 37.2236 170.9 37.4135C170.9 37.6034 170.839 37.7895 170.723 37.9512L169.896 39.0799ZM173.072 35.4203C172.689 34.8033 172.527 34.1024 172.606 33.4063C172.686 32.7101 173.005 32.05 173.521 31.5093C174.038 30.9685 174.729 30.5715 175.509 30.3683C176.288 30.1651 177.119 30.1649 177.899 30.3677C178.678 30.5705 179.37 30.9672 179.887 31.5077C180.404 32.0482 180.722 32.7082 180.803 33.4043C180.883 34.1004 180.722 34.8013 180.338 35.4185C179.955 36.0358 179.368 36.5415 178.65 36.872C178.173 37.0922 177.65 37.2293 177.111 37.2755C176.573 37.3216 176.028 37.276 175.51 37.1411C174.992 37.0063 174.51 36.7848 174.092 36.4895C173.673 36.1942 173.327 35.8309 173.072 35.4203Z" fill="#EBEBEB"/>
<path d="M182.446 62.2199L184.215 64.8458L185.153 64.3784C185.289 64.3121 185.443 64.2795 185.6 64.2842C185.756 64.2889 185.907 64.3307 186.038 64.405C186.18 64.4879 186.328 64.564 186.48 64.633C186.614 64.6947 186.727 64.7867 186.805 64.8993C186.883 65.0118 186.923 65.1405 186.922 65.2714V66.1873H190.461V65.26C190.462 65.1271 190.506 64.9971 190.588 64.8843C190.67 64.7716 190.787 64.6807 190.925 64.6216C191.078 64.5526 191.225 64.4765 191.368 64.3936C191.498 64.3197 191.65 64.2781 191.806 64.2734C191.962 64.2687 192.116 64.3011 192.252 64.367L193.186 64.8344L194.955 62.2085L194.017 61.7449C193.884 61.6776 193.775 61.5798 193.702 61.4624C193.63 61.345 193.596 61.2126 193.606 61.0799C193.606 61.0039 193.606 60.9317 193.606 60.8557C193.606 60.7797 193.606 60.7075 193.606 60.6315C193.595 60.4991 193.628 60.3667 193.7 60.2493C193.771 60.1318 193.88 60.0339 194.013 59.9664L194.955 59.499L193.186 56.8769L192.248 57.3405C192.113 57.4081 191.958 57.4415 191.801 57.4368C191.645 57.4321 191.493 57.3895 191.363 57.3139C191.217 57.2341 191.067 57.1581 190.921 57.0897C190.783 57.0303 190.666 56.9393 190.584 56.8266C190.502 56.714 190.458 56.5841 190.457 56.4513V55.5469H186.918V56.4741C186.918 56.605 186.878 56.7335 186.8 56.8459C186.722 56.9584 186.61 57.0505 186.476 57.1125C186.321 57.1809 186.17 57.2569 186.033 57.3367C185.904 57.4123 185.752 57.4549 185.595 57.4596C185.439 57.4643 185.284 57.4309 185.149 57.3633L184.211 56.8997L182.441 59.5218L183.379 59.9892C183.513 60.056 183.622 60.1538 183.694 60.2714C183.766 60.3891 183.798 60.5218 183.786 60.6543C183.786 60.7265 183.786 60.8025 183.786 60.8785C183.786 60.9545 183.786 61.0267 183.786 61.1027C183.797 61.2351 183.765 61.3676 183.693 61.4852C183.621 61.6027 183.513 61.7006 183.379 61.7677L182.446 62.2199ZM185.816 60.8671C185.816 60.3761 185.986 59.8962 186.304 59.488C186.621 59.0799 187.073 58.7618 187.601 58.5741C188.129 58.3864 188.71 58.3375 189.27 58.4335C189.831 58.5296 190.345 58.7663 190.749 59.1137C191.153 59.4612 191.427 59.9037 191.538 60.3853C191.649 60.8669 191.592 61.366 191.372 61.8193C191.153 62.2727 190.782 62.66 190.306 62.9322C189.831 63.2044 189.272 63.3493 188.701 63.3486C188.321 63.3486 187.946 63.2843 187.596 63.1596C187.246 63.0348 186.927 62.852 186.66 62.6215C186.392 62.391 186.179 62.1175 186.035 61.8164C185.89 61.5154 185.816 61.1928 185.816 60.8671Z" fill="#EBEBEB"/>
<path d="M0.69583 109.731L2.46519 112.353L3.39852 111.89C3.53386 111.823 3.68835 111.789 3.84464 111.793C4.00093 111.797 4.15281 111.838 4.2832 111.913C4.42568 111.995 4.57335 112.072 4.72554 112.141C4.86001 112.202 4.9723 112.294 5.05027 112.407C5.12823 112.519 5.1689 112.648 5.16788 112.779V113.706H8.7066V112.779C8.70767 112.646 8.75166 112.516 8.83366 112.403C8.91566 112.291 9.03246 112.2 9.17105 112.141C9.32325 112.072 9.47092 111.995 9.61339 111.913C9.7434 111.838 9.8954 111.796 10.0519 111.792C10.2084 111.788 10.3631 111.822 10.4981 111.89L11.4358 112.353L13.2052 109.731L12.2674 109.264C12.1329 109.198 12.0229 109.1 11.9501 108.982C11.8773 108.865 11.8447 108.732 11.8561 108.599C11.8561 108.523 11.8561 108.451 11.8561 108.375C11.8561 108.299 11.8561 108.226 11.8561 108.15C11.8453 108.018 11.8777 107.886 11.9496 107.768C12.0214 107.651 12.13 107.553 12.263 107.485L13.2052 107.022L11.4358 104.396L10.4981 104.863C10.362 104.929 10.2075 104.962 10.0514 104.957C9.8953 104.952 9.74375 104.911 9.61339 104.837C9.47099 104.754 9.32332 104.678 9.17105 104.609C9.03246 104.55 8.91566 104.459 8.83366 104.346C8.75166 104.233 8.70767 104.103 8.7066 103.97V103.047H5.16788V103.974C5.1689 104.105 5.12823 104.234 5.05027 104.346C4.9723 104.459 4.86001 104.551 4.72554 104.613C4.57328 104.681 4.4256 104.758 4.2832 104.841C4.15284 104.914 4.0013 104.956 3.84522 104.961C3.68914 104.965 3.53458 104.933 3.39852 104.867L2.46077 104.4L0.691406 107.026L1.62917 107.489C1.7622 107.557 1.87074 107.655 1.94262 107.772C2.01449 107.89 2.04687 108.022 2.03612 108.154C2.03612 108.23 2.03612 108.302 2.03612 108.378C2.03612 108.454 2.03612 108.527 2.03612 108.603C2.04669 108.736 2.01428 108.868 1.94245 108.986C1.87063 109.104 1.76221 109.203 1.62917 109.272L0.69583 109.731ZM4.05319 108.367C4.05319 107.876 4.22271 107.396 4.54029 106.988C4.85788 106.58 5.30926 106.262 5.83732 106.074C6.36537 105.886 6.94638 105.837 7.50681 105.934C8.06724 106.03 8.58191 106.266 8.98569 106.614C9.38947 106.961 9.66423 107.404 9.77518 107.885C9.88613 108.367 9.8283 108.866 9.609 109.319C9.3897 109.773 9.01878 110.16 8.5432 110.432C8.06761 110.704 7.50872 110.849 6.93724 110.849C6.55813 110.849 6.18274 110.784 5.83254 110.66C5.48234 110.535 5.16421 110.352 4.89634 110.122C4.62847 109.891 4.41613 109.617 4.27145 109.316C4.12677 109.015 4.05261 108.693 4.05319 108.367Z" fill="#EBEBEB"/>
<path d="M21.4033 -15.5156H20.9609V16.3181H21.4033V-15.5156Z" fill="#C7C7C7"/>
<path d="M34.0478 26.9694L33.0127 28.9226H9.34757L8.3125 26.9694L18.389 20.9766H23.9713L34.0478 26.9694Z" fill="#EBEBEB"/>
<path d="M24.6676 15.2031L23.9687 20.9755H18.3864L17.6875 15.2031H24.6676Z" fill="#DBDBDB"/>
<path d="M34.0478 26.9688L33.0127 28.922H9.34315L8.3125 26.9688H34.0478Z" fill="#DBDBDB"/>
<path d="M52.5205 -15.5156H52.0781V10.0137H52.5205V-15.5156Z" fill="#C7C7C7"/>
<path d="M65.165 20.6687L64.1299 22.6258H40.4603L39.4297 20.6687L49.5062 14.6797H55.0885L65.165 20.6687Z" fill="#EBEBEB"/>
<path d="M55.7887 8.90625L55.0898 14.6787H49.5075L48.8086 8.90625H55.7887Z" fill="#DBDBDB"/>
<path d="M65.1606 20.6719L64.1255 22.6251H40.4603L39.4297 20.6719H65.1606Z" fill="#DBDBDB"/>
<path d="M147.845 88.4844H130.156V103.088H147.845V88.4844Z" fill="#EBEBEB"/>
<path d="M154.567 88.4844H147.844V103.088H154.567V88.4844Z" fill="#C7C7C7"/>
<path d="M130.156 95.7891H147.845L134.031 96.1653L130.156 95.7891Z" fill="#C7C7C7"/>
<path d="M147.845 101.32H130.156L143.971 101.697L147.845 101.32Z" fill="#C7C7C7"/>
<path d="M130.156 91.7031H141.361L131.399 92.0109L130.156 91.7031Z" fill="#C7C7C7"/>
<path d="M147.841 99.1797H136.637L146.598 99.4837L147.841 99.1797Z" fill="#C7C7C7"/>
<path d="M134.398 90.0781H147.04L144.931 90.2643L134.398 90.0781Z" fill="#C7C7C7"/>
<path d="M131.875 97.3516H144.513L142.407 97.534L131.875 97.3516Z" fill="#C7C7C7"/>
<path d="M139.648 93.0938H147.845L149.309 93.584L139.648 93.0938Z" fill="#EBEBEB"/>
<path d="M127.895 93.0938H136.096L137.56 93.584L127.895 93.0938Z" fill="#EBEBEB"/>
<path d="M138.419 99.6562H130.218L128.754 100.146L138.419 99.6562Z" fill="#EBEBEB"/>
<path d="M147.844 97.9922H154.426L155.894 98.4862L147.844 97.9922Z" fill="#C7C7C7"/>
<path d="M150.145 95.7856H155.249L154.568 95.3828L150.145 95.7856Z" fill="#C7C7C7"/>
<path d="M121.513 131.595H173.793L175.474 103.094H119.832L121.513 131.595Z" fill="#EBEBEB"/>
<path d="M169.977 116.157H123.903L123.266 106.234H170.72L169.977 116.157ZM124.323 115.777H169.561L170.246 106.614H123.735L124.323 115.777Z" fill="#DBDBDB"/>
<path d="M169.352 127.539H125.225L124.707 118.578H170.003L169.352 127.539ZM125.645 127.159H168.937L169.534 118.958H125.171L125.645 127.159Z" fill="#DBDBDB"/>
<path d="M152.24 112.276H142.46L142.098 109.859H152.612L152.24 112.276ZM142.841 111.896H151.856L152.103 110.239H142.593L142.841 111.896Z" fill="#DBDBDB"/>
<path d="M152.24 124.265H142.46L142.098 121.852H152.612L152.24 124.265ZM142.841 123.885H151.856L152.103 122.232H142.593L142.841 123.885Z" fill="#DBDBDB"/>
<path d="M55.6435 101.661C55.3068 103.665 55.427 105.707 55.9973 107.673C56.2669 108.583 56.625 109.473 57.0678 110.333C57.6251 111.431 58.209 112.506 58.0675 113.707C57.9348 113.787 58.3948 113.776 58.4125 113.658C62.1547 111.826 66.9585 111.492 69.8381 108.497C71.2005 107.08 71.8906 105.282 72.2179 103.485C72.5718 101.528 72.6603 99.3616 72.0808 97.4311C71.5854 95.8009 70.4751 94.2276 68.6925 93.4296C66.9098 92.6316 64.4372 92.6696 62.4997 93.1902C58.3152 94.3112 56.2495 98.1836 55.6435 101.661Z" fill="#C06474"/>
<path d="M53.7239 125.475C54.2311 124.011 54.7457 122.549 55.2676 121.09C56.2939 118.232 57.3643 115.39 58.5454 112.57C59.2531 110.888 60.0007 109.218 60.788 107.562C60.7017 106.52 60.554 105.482 60.3457 104.453C60.0361 103.207 59.5805 102.002 59.1558 100.782C59.1293 100.706 59.2708 100.668 59.3062 100.74C60.1467 102.42 61.2437 104.571 61.2746 106.562C62.1858 104.692 63.1664 102.848 64.2162 101.029C64.3347 99.4915 64.2784 97.9477 64.0481 96.4195C64.0481 96.3511 64.1631 96.3283 64.1764 96.4195C64.4959 97.7564 64.6193 99.1224 64.5435 100.486C65.3486 99.1214 66.1934 97.7724 67.0958 96.4461C67.1799 96.3245 67.3701 96.4461 67.2993 96.5677C65.8926 98.8934 64.5877 101.269 63.3625 103.678C65.0865 102.394 67.0783 101.402 69.2323 100.755C69.3252 100.729 69.396 100.843 69.3031 100.877C66.9519 101.745 64.8007 102.968 62.9511 104.487C62.0664 106.261 61.2289 108.034 60.4386 109.807C62.7786 107.835 65.9855 106.539 69.0863 105.844C69.1925 105.817 69.219 105.958 69.1173 105.984C65.5299 106.912 62.7432 108.645 60.014 110.757C59.6955 111.482 59.3844 112.208 59.0806 112.935C57.9217 115.69 56.8291 118.468 55.7763 121.253C55.2721 122.591 54.7767 123.929 54.2901 125.266C53.7681 126.71 53.3567 128.234 52.6755 129.625C52.6092 129.758 52.3349 129.728 52.3703 129.568C52.7386 128.185 53.1904 126.819 53.7239 125.475Z" fill="#263238"/>
<path d="M59.9299 98.8537C60.5962 99.7294 61.0547 100.71 61.279 101.738C61.279 101.744 61.2762 101.75 61.2712 101.754C61.2663 101.758 61.2595 101.761 61.2525 101.761C61.2454 101.761 61.2387 101.758 61.2337 101.754C61.2287 101.75 61.2259 101.744 61.2259 101.738C60.8086 100.769 60.3211 99.8235 59.7662 98.9069C59.7087 98.8271 59.868 98.7701 59.9299 98.8537Z" fill="#263238"/>
<path d="M66.613 105.547C67.6528 105.05 68.7888 104.719 69.9659 104.57C69.9969 104.57 70.0146 104.605 69.9659 104.616C69.4263 104.81 68.8556 104.943 68.3116 105.125C67.7675 105.308 67.2278 105.505 66.6705 105.691C66.6518 105.69 66.634 105.684 66.6192 105.674C66.6044 105.664 66.5933 105.65 66.5873 105.635C66.5812 105.62 66.5804 105.603 66.5849 105.588C66.5895 105.572 66.5992 105.558 66.613 105.547Z" fill="#263238"/>
<path d="M68.4964 97.4908C68.833 97.269 69.1945 97.0768 69.5757 96.917C69.5878 96.9132 69.601 96.9131 69.6132 96.9166C69.6254 96.92 69.6359 96.9269 69.6431 96.9361C69.6502 96.9452 69.6535 96.9562 69.6525 96.9672C69.6516 96.9782 69.6463 96.9886 69.6377 96.9968C69.3066 97.2248 68.9494 97.4235 68.5716 97.5896C68.5053 97.6276 68.4256 97.5288 68.4964 97.4908Z" fill="#263238"/>
<path d="M43.0253 112.581C45.7192 113.269 48.4307 113.903 51.129 114.584C51.359 114.644 55.9195 107.139 54.274 103.274C53.4881 101.522 52.2578 99.943 50.6724 98.6506C49.087 97.3583 47.1864 96.3857 45.1087 95.8034C43.1845 95.2409 40.8136 94.7697 38.7833 95.1573C36.9741 95.4994 35.6869 96.7724 35.1074 98.2317C34.3068 100.219 34.5766 102.587 35.0101 104.612C35.3576 106.516 36.2719 108.311 37.6642 109.822C39.0973 111.285 40.9242 112.045 43.0253 112.581Z" fill="#C06474"/>
<path d="M39.114 105.455C40.8254 106.172 42.6004 106.77 44.4221 107.245C45.6363 107.523 46.8203 107.89 47.9608 108.343C46.824 106.162 45.5722 104.026 44.2452 101.91C42.5068 101.476 40.6755 100.8 39.3794 99.7435C39.3682 99.734 39.3607 99.7218 39.358 99.7085C39.3553 99.6952 39.3576 99.6815 39.3644 99.6693C39.3712 99.6572 39.3823 99.6472 39.3961 99.6407C39.4099 99.6342 39.4257 99.6316 39.4413 99.6333C40.879 100.507 42.4625 101.028 44.0505 101.621C43.6937 101.051 43.331 100.482 42.9624 99.9145C42.8606 99.7549 43.1128 99.5991 43.2366 99.7511C44.6529 101.52 45.9325 103.367 47.0673 105.28C47.3556 103.604 47.4475 101.907 47.3415 100.215C47.3415 100.206 47.3457 100.197 47.3532 100.191C47.3607 100.184 47.3708 100.181 47.3813 100.181C47.3919 100.181 47.402 100.184 47.4095 100.191C47.417 100.197 47.4211 100.206 47.4211 100.215C47.7597 102.059 47.7373 103.94 47.3548 105.778C48.3014 107.401 49.164 109.061 49.9381 110.745C50.2433 109.734 50.6458 108.738 50.9112 107.705C51.3193 106.247 51.4493 104.741 51.296 103.247C51.296 103.238 51.3002 103.229 51.3077 103.223C51.3152 103.217 51.3253 103.213 51.3359 103.213C51.3464 103.213 51.3565 103.217 51.364 103.223C51.3715 103.229 51.3757 103.238 51.3757 103.247C51.8517 106.014 51.4609 108.839 50.2433 111.433C50.6856 112.447 51.128 113.462 51.5172 114.473C53.5494 119.666 54.7532 125.072 55.0957 130.544C55.0906 130.566 55.0765 130.586 55.0559 130.601C55.0353 130.615 55.0096 130.623 54.9829 130.623C54.9563 130.623 54.9306 130.615 54.91 130.601C54.8894 130.586 54.8753 130.566 54.8702 130.544C54.1631 125.145 52.8173 119.823 50.8537 114.659C50.0708 112.641 49.1684 110.68 48.1997 108.757C46.6072 108.351 45.0192 107.804 43.4578 107.336C41.8927 106.935 40.4159 106.313 39.0875 105.497C38.999 105.501 39.0609 105.432 39.114 105.455Z" fill="#263238"/>
<path d="M36.6043 103.277C38.2543 103.779 39.8157 104.485 41.4701 104.995C41.5497 105.021 41.5055 105.124 41.4258 105.112C39.683 104.801 37.9535 104.352 36.5601 103.357C36.4893 103.319 36.5468 103.258 36.6043 103.277Z" fill="#263238"/>
<path d="M50.0572 100.221C50.0351 100.149 50.1634 100.103 50.1899 100.183C50.6323 101.486 50.9552 102.873 50.5173 104.207C50.5137 104.218 50.5059 104.228 50.4951 104.235C50.4843 104.242 50.4711 104.246 50.4576 104.246C50.444 104.246 50.4308 104.242 50.42 104.235C50.4092 104.228 50.4014 104.218 50.3978 104.207C50.3271 102.858 50.4155 101.536 50.0572 100.221Z" fill="#263238"/>
<path d="M43.2526 97.2054C43.78 97.853 44.0329 98.6363 43.9692 99.4247C43.9692 99.4741 43.8763 99.5045 43.8586 99.4437C43.6596 98.6837 43.3234 98.0148 43.058 97.2928C43.0484 97.2711 43.0484 97.2471 43.058 97.2253C43.0676 97.2036 43.0862 97.1856 43.1101 97.1749C43.1341 97.1641 43.1619 97.1613 43.1881 97.1669C43.2144 97.1725 43.2373 97.1862 43.2526 97.2054Z" fill="#263238"/>
<path d="M75.0948 115.896C74.3074 118.051 72.4408 121.03 69.4506 121.053C67.5264 121.053 65.5845 120.874 63.6515 120.848C61.5813 120.821 59.5068 120.825 57.4587 120.931C57.2906 120.931 57.7064 115.611 62.6783 113.008C64.0761 112.282 65.7747 112.051 67.3583 111.758C69.1688 111.389 71.0274 111.223 72.8875 111.264C74.0288 111.302 74.9798 111.511 75.3867 112.514C75.7937 113.517 75.4752 114.87 75.0948 115.896Z" fill="#C06474"/>
<path d="M72.9535 113.197C71.7459 113.463 70.525 113.771 69.313 114.102C69.6289 113.806 69.9642 113.525 70.3172 113.262C70.8347 112.882 71.4097 112.593 71.9671 112.266C72.0157 112.24 71.9892 112.164 71.9273 112.183C70.7516 112.603 69.7359 113.296 68.9946 114.185C67.4818 114.607 65.9866 115.071 64.5446 115.576C63.5476 115.927 62.5922 116.36 61.6915 116.868C61.9818 116.329 62.3267 115.813 62.7222 115.325C63.3857 114.592 64.2792 114.185 65.1418 113.661C65.1594 113.652 65.1723 113.638 65.1777 113.621C65.1831 113.605 65.1805 113.587 65.1705 113.572C65.1606 113.557 65.144 113.545 65.1245 113.541C65.105 113.536 65.0842 113.538 65.0666 113.547C64.1619 113.884 63.3491 114.379 62.6803 115.001C62.0115 115.624 61.5015 116.359 61.1828 117.161C60.1478 117.798 59.2022 118.537 58.3651 119.361C55.0697 122.572 52.4776 126.847 52.4688 131.206C52.4688 131.309 52.6634 131.339 52.6855 131.233C53.5328 126.959 55.7005 122.958 58.9623 119.65C59.2012 119.414 59.44 119.186 59.6877 118.97C60.5896 118.865 61.4981 118.808 62.4081 118.799C63.4653 118.799 64.5181 118.932 65.5708 119.004C67.3092 119.126 69.229 119.145 70.7949 118.392C70.8657 118.358 70.817 118.255 70.7418 118.282C67.2473 119.373 63.5847 117.989 60.0858 118.639C61.5801 117.413 63.3318 116.442 65.2479 115.778L65.5664 115.667C67.8091 115.899 70.1756 116.401 72.3563 115.774C72.3682 115.77 72.3778 115.762 72.3835 115.752C72.3892 115.742 72.3906 115.731 72.3873 115.72C72.3841 115.71 72.3765 115.7 72.3659 115.694C72.3553 115.688 72.3425 115.685 72.3298 115.686C70.2198 116.139 68.1983 115.569 66.137 115.477C68.4062 114.717 70.7153 114.117 72.9889 113.365C73.157 113.311 73.1614 113.152 72.9535 113.197Z" fill="#263238"/>
<path d="M73.9447 115.094C72.8616 115.215 71.772 115.286 70.6802 115.307C70.6581 115.307 70.6492 115.341 70.6802 115.345C71.7779 115.519 72.9086 115.456 73.9712 115.163C74.0199 115.151 73.9977 115.087 73.9447 115.094Z" fill="#263238"/>
<path d="M66.5719 113.245C65.9702 113.48 65.4232 113.807 64.9574 114.21C64.8998 114.256 64.9795 114.343 65.0414 114.301C65.3156 114.13 65.5943 113.971 65.8818 113.811C66.1518 113.682 66.4132 113.54 66.6648 113.386C66.6801 113.373 66.6901 113.356 66.6931 113.337C66.6961 113.319 66.692 113.301 66.6814 113.285C66.6708 113.268 66.6543 113.256 66.6345 113.249C66.6147 113.242 66.5927 113.24 66.5719 113.245Z" fill="#263238"/>
<path d="M49.0119 120.178C49.0517 120.25 48.9322 120.318 48.8836 120.242C48.8749 120.253 48.8638 120.263 48.8509 120.27C48.838 120.277 48.8235 120.282 48.8084 120.284C46.8063 120.695 44.7765 121 42.7306 121.196C41.0851 121.322 39.1919 121.401 37.7499 120.58C35.7992 119.467 34.5164 116.495 35.5692 114.61C36.8166 112.368 40.5765 113.584 42.4652 114.382C45.3685 115.598 47.6847 117.648 49.0119 120.178Z" fill="#C06474"/>
<path d="M50.4714 121.218C49.3761 120.307 48.1585 119.511 46.8442 118.847C45.8999 117.559 44.6449 116.46 43.164 115.624C43.0932 115.583 43.0313 115.678 43.0976 115.723C44.2724 116.532 45.3141 117.474 46.194 118.524C44.7339 117.832 43.2171 117.233 41.6556 116.73C41.0955 115.839 40.2455 115.108 39.2095 114.625C39.2095 114.625 39.1608 114.625 39.1829 114.652C40.0382 115.211 40.7848 115.883 41.3946 116.643C40.4701 116.346 39.5368 116.073 38.6035 115.807C38.5194 115.78 38.4885 115.89 38.5681 115.917C40.2268 116.476 41.9299 117.057 43.5754 117.745C41.5664 118.018 39.5198 118.018 37.5109 117.745C37.5001 117.743 37.4888 117.744 37.4792 117.749C37.4696 117.754 37.4624 117.761 37.4591 117.771C37.4558 117.78 37.4565 117.789 37.4612 117.798C37.4658 117.807 37.4741 117.813 37.4843 117.817C39.5804 118.35 41.8066 118.379 43.9204 117.901C44.9699 118.339 45.989 118.828 46.9725 119.368C46.1456 119.311 45.3135 119.37 44.5087 119.542C43.0861 119.827 41.6299 119.968 40.1693 119.964C40.1163 119.964 40.103 120.04 40.1693 120.048C42.6863 120.428 45.066 119.436 47.5564 119.694C48.4819 120.235 49.3507 120.844 50.1529 121.515C51.7075 122.85 52.9877 124.402 53.9394 126.105C54.9877 127.941 55.5583 129.883 56.4076 131.779C56.4102 131.788 56.4148 131.796 56.4211 131.803C56.4274 131.81 56.4353 131.816 56.4444 131.821C56.4534 131.825 56.4634 131.828 56.4738 131.83C56.4842 131.831 56.4948 131.83 56.5049 131.828C56.5151 131.826 56.5247 131.822 56.533 131.817C56.5414 131.811 56.5485 131.804 56.5538 131.797C56.5592 131.789 56.5627 131.78 56.5642 131.771C56.5656 131.762 56.5651 131.753 56.5624 131.745C55.8105 128.005 53.643 123.882 50.4714 121.218Z" fill="#263238"/>
<path d="M42.8835 116.093C42.7175 115.839 42.5003 115.613 42.2421 115.424C42.0311 115.227 41.7791 115.064 41.499 114.946C41.494 114.945 41.489 114.946 41.4844 114.947C41.4799 114.949 41.476 114.952 41.4732 114.955C41.4704 114.959 41.4689 114.963 41.4688 114.968C41.4686 114.972 41.4699 114.976 41.4725 114.98C41.6804 115.181 41.9679 115.329 42.189 115.523C42.4102 115.717 42.6004 115.941 42.826 116.131C42.8289 116.134 42.8325 116.137 42.8367 116.139C42.8408 116.141 42.8454 116.143 42.8501 116.143C42.8548 116.144 42.8596 116.143 42.8642 116.142C42.8688 116.141 42.8731 116.139 42.8769 116.137C42.8807 116.134 42.8838 116.131 42.8862 116.128C42.8886 116.124 42.8901 116.12 42.8907 116.116C42.8914 116.112 42.891 116.108 42.8898 116.104C42.8886 116.1 42.8864 116.096 42.8835 116.093Z" fill="#263238"/>
<path d="M38.7372 117.249C38.3656 117.169 37.9719 117.177 37.5915 117.108C37.2152 117.032 36.8444 116.937 36.4813 116.823C36.4701 116.819 36.4576 116.819 36.4464 116.823C36.4352 116.827 36.4262 116.835 36.4215 116.844C36.4168 116.854 36.4168 116.865 36.4213 116.874C36.4259 116.884 36.4347 116.892 36.4459 116.896C37.131 117.259 37.9359 117.419 38.7372 117.352C38.7503 117.349 38.7618 117.342 38.77 117.333C38.7783 117.323 38.7827 117.312 38.7827 117.3C38.7827 117.289 38.7783 117.277 38.77 117.268C38.7618 117.259 38.7503 117.252 38.7372 117.249Z" fill="#263238"/>
<path d="M66.1126 150.068H63.1445L83.9345 78.5078H91.326L66.1126 150.068Z" fill="#455A64"/>
<path d="M83.9338 78.5078H91.3253L85.566 94.8522H79.1875L83.9338 78.5078Z" fill="#263238"/>
<path d="M94.8856 146.268H91.9219L94.1336 78.5078H101.521L94.8856 146.268Z" fill="#455A64"/>
<path d="M94.1368 78.5078H101.524L99.9226 94.8522H93.6016L94.1368 78.5078Z" fill="#263238"/>
<path d="M123.794 150.068H126.762L110.395 78.5078H103.004L123.794 150.068Z" fill="#455A64"/>
<path d="M114.133 94.8522H107.75L103.004 78.5078H110.395L114.133 94.8522Z" fill="#263238"/>
<path d="M117.715 119.406H74.5781V120.805H117.715V119.406Z" fill="#455A64"/>
<path d="M156.582 8.44531H39.0742V82.9356H156.582V8.44531Z" fill="#EBEBEB"/>
<path d="M160.889 5.47656H34.7734V10.9982H160.889V5.47656Z" fill="#37474F"/>
<path d="M120.226 20.3516H75.4258V21.2028H120.226V20.3516Z" fill="#C7C7C7"/>
<path d="M112.567 22.1328H83.0898V22.984H112.567V22.1328Z" fill="#C7C7C7"/>
<path d="M61.0742 29.4858L99.7126 29.3984C112.589 29.4288 121.706 29.3984 134.582 29.4858C121.706 29.5618 112.589 29.5428 99.7126 29.577L61.0742 29.4858Z" fill="#C7C7C7"/>
<path d="M61.0742 32.189L99.7126 32.1016C112.589 32.132 121.706 32.1016 134.582 32.189C121.706 32.265 112.589 32.246 99.7126 32.2764L61.0742 32.189Z" fill="#C7C7C7"/>
<path d="M61.0742 34.8999L99.7126 34.8125C112.589 34.8429 121.706 34.8125 134.582 34.8999C121.706 34.9759 112.589 34.9569 99.7126 34.9873L61.0742 34.8999Z" fill="#C7C7C7"/>
<path d="M61.0742 37.6068L99.7126 37.5156C112.589 37.5498 121.706 37.5156 134.582 37.6068C121.706 37.6828 112.589 37.6638 99.7126 37.6942L61.0742 37.6068Z" fill="#C7C7C7"/>
<path d="M61.0742 40.314L99.7126 40.2266C112.589 40.257 121.706 40.2266 134.582 40.314C121.706 40.39 112.589 40.371 99.7126 40.4014L61.0742 40.314Z" fill="#C7C7C7"/>
<path d="M61.0742 43.0093L99.7126 42.9219C112.589 42.9523 121.706 42.9219 134.582 43.0093C121.706 43.0853 112.589 43.0663 99.7126 43.1005L61.0742 43.0093Z" fill="#C7C7C7"/>
<path d="M61.0742 45.728L99.7126 45.6406C112.589 45.671 121.706 45.6406 134.582 45.728C121.706 45.804 112.589 45.785 99.7126 45.8154L61.0742 45.728Z" fill="#C7C7C7"/>
<path d="M61.0742 48.4312L99.7126 48.3438C112.589 48.3742 121.706 48.3437 134.582 48.4312C121.706 48.5072 112.589 48.4882 99.7126 48.5186L61.0742 48.4312Z" fill="#C7C7C7"/>
<path d="M61.0742 51.1381L99.7126 51.0469C112.589 51.0811 121.706 51.0469 134.582 51.1381C121.706 51.2141 112.589 51.1913 99.7126 51.2255L61.0742 51.1381Z" fill="#C7C7C7"/>
<path d="M61.0742 53.853L99.7126 53.7656C112.589 53.796 121.706 53.7656 134.582 53.853C121.706 53.929 112.589 53.91 99.7126 53.9404L61.0742 53.853Z" fill="#C7C7C7"/>
<path d="M61.0742 56.5562L99.7126 56.4688C112.589 56.4992 121.706 56.4687 134.582 56.5562C121.706 56.6322 112.589 56.6132 99.7126 56.6436L61.0742 56.5562Z" fill="#C7C7C7"/>
<path d="M61.0742 59.2593L99.7126 59.1719C112.589 59.2023 121.706 59.1719 134.582 59.2593C121.706 59.3353 112.589 59.3163 99.7126 59.3467L61.0742 59.2593Z" fill="#C7C7C7"/>
<path d="M61.0742 61.9702L99.7126 61.8828C112.589 61.9132 121.706 61.8828 134.582 61.9702C121.706 62.0462 112.589 62.0272 99.7126 62.0576L61.0742 61.9702Z" fill="#C7C7C7"/>
<path d="M61.0742 64.6655L99.7126 64.5781C112.589 64.6085 121.706 64.5781 134.582 64.6655C121.706 64.7453 112.589 64.7225 99.7126 64.7567L61.0742 64.6655Z" fill="#C7C7C7"/>
<path d="M61.0742 67.3843L99.7126 67.2969C112.589 67.3273 121.706 67.2969 134.582 67.3843C121.706 67.4603 112.589 67.4413 99.7126 67.4717L61.0742 67.3843Z" fill="#C7C7C7"/>
<path d="M75.1071 60.5H69.2461V70.5438H75.1071V60.5Z" fill="#C06474"/>
<path d="M85.9782 52.8984H80.1172V70.5425H85.9782V52.8984Z" fill="#C06474"/>
<path d="M96.8454 51.2188H90.9844V70.5424H96.8454V51.2188Z" fill="#C06474"/>
<path d="M107.72 46.2344H101.859V70.5438H107.72V46.2344Z" fill="#C06474"/>
<path d="M118.588 35.6094H112.727V70.5402H118.588V35.6094Z" fill="#C06474"/>
<path d="M129.463 31.2969H123.602V70.5371H129.463V31.2969Z" fill="#C06474"/>
<path d="M63.17 27.5859L63.3292 38.3251L63.4398 49.0643C63.515 56.2238 63.5371 63.3832 63.5504 70.5427L63.17 70.2159H81.965L100.76 70.2539L119.555 70.3603L134.595 70.5541L119.555 70.7479L100.76 70.8581L81.965 70.8961H63.17H62.7852V70.5693C62.7852 63.4098 62.8205 56.2504 62.8957 49.0909L63.0063 38.3517L63.17 27.5859Z" fill="#C7C7C7"/>
<path d="M75.1071 72.8125H69.2461V73.2685H75.1071V72.8125Z" fill="#C7C7C7"/>
<path d="M85.9782 72.8125H80.1172V73.2685H85.9782V72.8125Z" fill="#C7C7C7"/>
<path d="M96.8454 72.8125H90.9844V73.2685H96.8454V72.8125Z" fill="#C7C7C7"/>
<path d="M107.72 72.8125H101.859V73.2685H107.72V72.8125Z" fill="#C7C7C7"/>
<path d="M118.588 72.8125H112.727V73.2685H118.588V72.8125Z" fill="#C7C7C7"/>
<path d="M129.463 72.8125H123.602V73.2685H129.463V72.8125Z" fill="#C7C7C7"/>
<path d="M69.2817 60.2711L69.2109 59.8911C69.5294 59.8455 101.502 55.0231 126.799 30.25L127.131 30.5008C101.718 55.3841 69.6046 60.2255 69.2817 60.2711Z" fill="#263238"/>
<path d="M127.565 31.1904L127.998 29.3359L125.91 29.9402L127.565 31.1904Z" fill="#263238"/>
<path d="M153.872 23.4609H139.328V38.2663H153.872V23.4609Z" fill="white"/>
<path d="M147.123 24.4641C147.124 24.5538 147.094 24.6418 147.036 24.7167C146.979 24.7917 146.897 24.8502 146.8 24.8849C146.704 24.9196 146.598 24.9289 146.495 24.9116C146.393 24.8942 146.298 24.8511 146.224 24.7876C146.151 24.7241 146.1 24.6432 146.08 24.5551C146.06 24.4671 146.071 24.3758 146.111 24.293C146.152 24.2103 146.22 24.1397 146.307 24.0903C146.394 24.0409 146.497 24.0149 146.601 24.0156C146.74 24.0156 146.872 24.0629 146.97 24.147C147.068 24.2311 147.123 24.3451 147.123 24.4641Z" fill="#455A64"/>
<path d="M142.094 26.4196C143.567 26.3246 145.035 26.317 146.517 26.3018C147.999 26.2866 149.459 26.3018 150.941 26.4196C149.472 26.5184 147.999 26.526 146.517 26.5374C145.035 26.5488 143.567 26.5184 142.094 26.4196Z" fill="#EBEBEB"/>
<path d="M142.094 27.5944C143.688 27.4373 145.299 27.4373 146.893 27.5944C145.299 27.7515 143.688 27.7515 142.094 27.5944Z" fill="#EBEBEB"/>
<path d="M142.094 28.7666C143.116 28.6753 144.137 28.6525 145.159 28.6487C146.181 28.6449 147.203 28.6753 148.225 28.7666C147.203 28.8578 146.181 28.8806 145.159 28.8844C144.137 28.8882 143.116 28.8578 142.094 28.7666Z" fill="#EBEBEB"/>
<path d="M142.094 29.9384C143.372 29.8472 144.65 29.8244 145.929 29.8206C147.207 29.8168 148.486 29.8472 149.764 29.9384C148.486 30.0296 147.207 30.0524 145.929 30.0562C144.65 30.06 143.39 30.0296 142.094 29.9384Z" fill="#EBEBEB"/>
<path d="M142.094 31.1025C143.204 31.0113 144.305 30.9885 145.425 30.9847C146.544 30.9809 147.636 31.0075 148.755 31.1025C147.645 31.1937 146.544 31.2165 145.425 31.2203C144.305 31.2241 143.204 31.1937 142.094 31.1025Z" fill="#EBEBEB"/>
<path d="M142.094 32.2697C143.518 32.1709 144.938 32.1633 146.358 32.1519C147.778 32.1405 149.202 32.1519 150.622 32.2697C149.202 32.3647 147.778 32.3723 146.358 32.3837C144.938 32.3951 143.518 32.3609 142.094 32.2697Z" fill="#EBEBEB"/>
<path d="M142.094 33.4421C143.925 33.2901 145.769 33.2901 147.601 33.4421C145.77 33.5992 143.925 33.5992 142.094 33.4421Z" fill="#EBEBEB"/>
<path d="M142.094 34.6132C143.567 34.5182 145.035 34.5106 146.517 34.4954C147.999 34.4802 149.459 34.5182 150.941 34.6132C149.472 34.712 147.999 34.7196 146.517 34.731C145.035 34.7424 143.567 34.712 142.094 34.6132Z" fill="#EBEBEB"/>
<path d="M142.094 35.7868C143.567 35.6918 145.035 35.6842 146.517 35.669C147.999 35.6538 149.459 35.669 150.941 35.7868C149.472 35.8856 147.999 35.8932 146.517 35.9046C145.035 35.916 143.567 35.8818 142.094 35.7868Z" fill="#EBEBEB"/>
<path d="M59.9375 40.1719H42.7305V57.6905H59.9375V40.1719Z" fill="white"/>
<path d="M51.8564 42.5344C51.8564 42.623 51.8258 42.7097 51.7685 42.7835C51.7111 42.8572 51.6296 42.9147 51.5342 42.9486C51.4388 42.9826 51.3339 42.9915 51.2326 42.9742C51.1314 42.9569 51.0384 42.9141 50.9654 42.8514C50.8924 42.7887 50.8427 42.7088 50.8225 42.6218C50.8024 42.5349 50.8127 42.4447 50.8522 42.3628C50.8917 42.2808 50.9586 42.2108 51.0445 42.1615C51.1303 42.1122 51.2312 42.0859 51.3345 42.0859C51.403 42.0859 51.4709 42.0975 51.5342 42.1201C51.5975 42.1426 51.6551 42.1756 51.7035 42.2173C51.752 42.2589 51.7905 42.3084 51.8167 42.3628C51.8429 42.4172 51.8564 42.4755 51.8564 42.5344Z" fill="#455A64"/>
<path d="M45.1367 44.5475C46.4026 44.3904 47.6882 44.3904 48.9541 44.5475C47.6882 44.7045 46.4026 44.7045 45.1367 44.5475Z" fill="#EBEBEB"/>
<path d="M45.1367 45.864C46.7804 45.712 48.4384 45.712 50.0821 45.864C48.4387 46.0211 46.7801 46.0211 45.1367 45.864Z" fill="#EBEBEB"/>
<path d="M45.1367 47.1881C46.6573 47.031 48.1943 47.031 49.7149 47.1881C48.1943 47.3452 46.6573 47.3452 45.1367 47.1881Z" fill="#EBEBEB"/>
<path d="M45.1367 48.5091C45.8966 48.4263 46.6621 48.3869 47.428 48.3913C48.1926 48.385 48.9567 48.4244 49.7149 48.5091C48.1943 48.6661 46.6573 48.6661 45.1367 48.5091Z" fill="#EBEBEB"/>
<path d="M45.1367 49.8444C46.4574 49.6873 47.7971 49.6873 49.1178 49.8444C47.7971 50.0014 46.4574 50.0014 45.1367 49.8444Z" fill="#EBEBEB"/>
<path d="M45.1367 51.1491C46.8289 50.992 48.5359 50.992 50.228 51.1491C49.3837 51.2319 48.5344 51.2712 47.6846 51.2669C46.8334 51.2693 45.9827 51.23 45.1367 51.1491Z" fill="#EBEBEB"/>
<path d="M45.1367 52.4697C45.8331 52.389 46.5351 52.3496 47.2378 52.3519C47.9406 52.3475 48.6428 52.3868 49.3389 52.4697C48.643 52.5544 47.9407 52.5938 47.2378 52.5875C46.5351 52.5917 45.8329 52.5524 45.1367 52.4697Z" fill="#EBEBEB"/>
<path d="M45.1367 53.7897C46.888 53.6326 48.6536 53.6326 50.405 53.7897C48.6536 53.9468 46.888 53.9468 45.1367 53.7897Z" fill="#EBEBEB"/>
<path d="M45.1367 55.1062C46.8883 54.9542 48.6533 54.9542 50.405 55.1062C48.6536 55.2633 46.888 55.2633 45.1367 55.1062Z" fill="#EBEBEB"/>
<path d="M52.6562 44.5475C54.3189 44.3904 55.9965 44.3904 57.6591 44.5475C55.9965 44.7046 54.3189 44.7046 52.6562 44.5475Z" fill="#EBEBEB"/>
<path d="M52.6562 45.864C53.7461 45.712 54.8574 45.712 55.9473 45.864C54.8579 46.0211 53.7456 46.0211 52.6562 45.864Z" fill="#EBEBEB"/>
<path d="M52.6562 47.1881C54.2198 47.031 55.7992 47.031 57.3627 47.1881C55.7992 47.3452 54.2198 47.3452 52.6562 47.1881Z" fill="#EBEBEB"/>
<path d="M52.6562 48.5091C53.4161 48.4263 54.1816 48.3869 54.9476 48.3913C55.7121 48.385 56.4763 48.4244 57.2345 48.5091C55.7139 48.6661 54.1768 48.6661 52.6562 48.5091Z" fill="#EBEBEB"/>
<path d="M52.6562 49.8444C54.3189 49.6873 55.9965 49.6873 57.6591 49.8444C55.9965 50.0015 54.3189 50.0015 52.6562 49.8444Z" fill="#EBEBEB"/>
<path d="M52.6562 51.149C53.977 50.992 55.3166 50.992 56.6373 51.149C55.9782 51.2317 55.3128 51.2711 54.6468 51.2668C53.9808 51.2692 53.3155 51.2299 52.6562 51.149Z" fill="#EBEBEB"/>
<path d="M52.6562 52.4697C53.4371 52.3889 54.223 52.3496 55.0095 52.3519C55.796 52.3475 56.5821 52.3868 57.3627 52.4697C56.5823 52.5545 55.7961 52.5938 55.0095 52.5875C54.2229 52.5917 53.4369 52.5524 52.6562 52.4697Z" fill="#EBEBEB"/>
<path d="M52.6562 53.7897C53.8628 53.6326 55.0901 53.6326 56.2967 53.7897C55.0901 53.9467 53.8628 53.9467 52.6562 53.7897Z" fill="#EBEBEB"/>
<path d="M52.6562 55.1062C53.8144 54.9542 54.9926 54.9542 56.1507 55.1062C54.9931 55.2633 53.8139 55.2633 52.6562 55.1062Z" fill="#EBEBEB"/>
<path d="M142.093 16.9062H133.344V24.4229H142.093V16.9062Z" fill="#C06474"/>
<path d="M138.239 17.6672C138.239 17.7559 138.209 17.8426 138.151 17.9163C138.094 17.99 138.012 18.0475 137.917 18.0814C137.822 18.1154 137.717 18.1243 137.615 18.107C137.514 18.0897 137.421 18.047 137.348 17.9842C137.275 17.9215 137.225 17.8416 137.205 17.7546C137.185 17.6677 137.196 17.5775 137.235 17.4956C137.275 17.4136 137.341 17.3436 137.427 17.2943C137.513 17.245 137.614 17.2187 137.717 17.2188C137.856 17.2188 137.988 17.266 138.086 17.3501C138.184 17.4342 138.239 17.5482 138.239 17.6672Z" fill="#455A64"/>
<path d="M174.356 70.375C174.356 70.375 170.614 106.556 170.004 109.319C169.862 109.95 169.774 113.37 169.716 117.763C169.588 127.354 169.667 144.652 169.667 144.652H152.098C152.098 144.652 152.615 114.681 153.394 109.167C154.172 103.653 159.144 70.375 159.144 70.375H174.356Z" fill="#37474F"/>
<path d="M166.326 124.892C166.344 122.701 166.363 120.511 166.383 118.322C166.383 116.201 166.383 114.081 166.516 111.96C166.751 107.674 167.764 103.456 168.485 99.2147C169.206 94.9737 169.812 90.7138 170.351 86.45C170.962 81.6695 171.501 76.8775 172.072 72.0931C172.072 72.0627 172.138 72.0627 172.134 72.0931C171.307 80.6396 170.365 89.1937 169.007 97.6756C168.662 99.7885 168.287 101.898 167.883 104.003C167.472 106.131 167.065 108.263 166.87 110.417C166.675 112.572 166.644 114.639 166.622 116.756L166.543 123.319C166.49 128.179 166.437 135.658 166.379 140.518C166.379 140.538 166.37 140.556 166.354 140.569C166.339 140.583 166.317 140.591 166.295 140.591C166.273 140.591 166.251 140.583 166.236 140.569C166.22 140.556 166.211 140.538 166.211 140.518C166.251 136.179 166.286 129.224 166.326 124.892Z" fill="#263238"/>
<path d="M178.06 70.375C178.06 70.375 170.615 106.556 170.005 109.319C169.863 109.95 169.775 113.37 169.717 117.763L161.344 70.375H178.06Z" fill="#263238"/>
<path d="M172.202 145.465L189.759 144.827C189.759 144.827 184.964 111.735 184.893 109.702C184.765 106.662 183.075 94.1976 181.66 84.0931C181.66 84.0931 184.345 78.6209 179.315 70.3594H159.145C159.145 70.3594 160.494 78.2219 162.812 83.2076C164.358 83.6768 165.852 84.2657 167.275 84.9671C167.275 84.9671 169.283 107.494 169.358 110.306C169.509 115.862 172.202 145.465 172.202 145.465Z" fill="#37474F"/>
<path d="M162.03 82.871C163.846 83.4415 165.601 84.1446 167.277 84.9725C167.288 84.9797 167.296 84.9899 167.3 85.0016C167.303 85.0133 167.302 85.0256 167.296 85.0367C167.291 85.0477 167.281 85.0568 167.268 85.0624C167.256 85.068 167.242 85.0698 167.228 85.0675C165.459 84.4139 163.658 83.7868 161.92 83.0534C161.906 83.0472 161.894 83.0386 161.883 83.0283C161.873 83.0179 161.866 83.006 161.861 82.9931C161.856 82.9802 161.855 82.9667 161.856 82.9532C161.857 82.9398 161.862 82.9267 161.869 82.9147C161.876 82.9027 161.886 82.8921 161.898 82.8834C161.91 82.8747 161.924 82.8682 161.939 82.8641C161.954 82.8601 161.97 82.8586 161.986 82.8598C162.001 82.8609 162.017 82.8648 162.03 82.871Z" fill="#263238"/>
<path d="M161.466 72.4427C161.466 72.3895 161.581 72.3781 161.581 72.4427C161.579 74.1383 161.678 75.8328 161.877 77.5197C161.957 78.3025 162.691 82.6271 164.27 82.3117C164.536 82.2585 164.668 82.0343 164.712 81.6922C164.705 81.2444 164.634 80.799 164.5 80.366C164.328 79.4616 164.186 78.5533 164.093 77.6375C163.91 75.9338 163.932 74.2184 164.16 72.5187C164.163 72.5093 164.169 72.5011 164.179 72.4952C164.188 72.4893 164.199 72.4861 164.21 72.4861C164.222 72.4861 164.233 72.4893 164.242 72.4952C164.251 72.5011 164.258 72.5093 164.261 72.5187C164.216 74.8793 164.377 77.2395 164.743 79.5794C164.938 80.7194 165.602 82.3991 164.23 82.5739C162.859 82.7487 161.935 79.9138 161.762 79.1348C161.327 76.9244 161.228 74.675 161.466 72.4427Z" fill="#263238"/>
<path d="M164.23 82.4192C164.369 82.7115 164.488 83.011 164.584 83.3161C164.684 83.5521 164.734 83.8019 164.729 84.0533C164.729 84.1027 164.65 84.1065 164.623 84.0761C164.459 83.8541 164.335 83.6119 164.256 83.3579C164.132 83.0805 164.008 82.803 163.898 82.5256C163.881 82.4878 163.883 82.446 163.903 82.4093C163.922 82.3726 163.958 82.344 164.002 82.3299C164.046 82.3158 164.095 82.3173 164.137 82.334C164.18 82.3508 164.213 82.3814 164.23 82.4192Z" fill="#263238"/>
<path d="M153.873 54.2287C153.867 54.2682 153.877 54.3082 153.902 54.3417C153.927 54.3751 153.966 54.3997 154.01 54.4111L154.762 54.4682C155.514 52.8683 156.306 51.599 156.089 52.0969C155.764 52.8792 155.566 53.6963 155.501 54.5252L156.987 54.624C157.708 51.7891 158.562 49.6838 158.482 50.345C158.168 52.9671 158.296 53.8145 158.451 54.719C162.034 54.9432 166.736 55.1902 170.142 55.3042C170.611 53.7385 171.027 52.0437 171.093 52.1653C171.472 53.1921 171.623 54.2713 171.535 55.346C172.619 55.3726 173.491 55.3764 174.017 55.346C174.017 55.346 174.335 54.0273 174.393 53.5941C174.541 52.4843 174.466 51.3609 174.172 50.2728C173.818 49.2006 173.339 48.1618 172.743 47.1719C172.745 47.1644 172.745 47.1566 172.743 47.1491C172.382 46.4876 172.11 45.7927 171.934 45.078C171.814 44.5568 171.745 44.0281 171.726 43.4972C171.664 41.5515 170.553 39.849 168.589 39.2942C164.998 35.9767 161.171 37.2649 159.92 39.7312C159.8 39.9706 159.681 40.248 159.561 40.5483C159.119 41.6617 158.712 43.1095 158.34 44.2306C158.202 44.6686 158.032 45.0988 157.832 45.5188C156.757 47.5671 154.536 48.6577 153.873 54.2287Z" fill="#263238"/>
<path d="M169.414 39.8391C170.046 40.1356 170.577 40.5677 170.956 41.0932C171.335 41.6187 171.549 42.2197 171.577 42.8374C171.599 43.6567 171.735 44.4708 171.984 45.2619C172.328 46.0339 172.799 46.7595 173.382 47.4166C174.295 48.4289 174.833 49.6536 174.926 50.9317C175.038 52.4176 174.814 53.9081 174.267 55.3209C174.737 53.8287 174.87 52.2732 174.661 50.7379C174.448 49.1951 173.546 48.207 172.635 47.0176C171.897 46.0755 171.458 44.9845 171.361 43.8521C171.369 43.145 171.271 42.4399 171.069 41.7544C170.707 41.029 170.101 40.4126 169.33 39.9835C169.22 39.9189 169.317 39.7897 169.414 39.8391Z" fill="#263238"/>
<path d="M155.512 47.6804C156.485 46.5973 157.485 45.6815 158.091 44.3248C158.639 43.0898 158.976 41.7826 159.542 40.5475C159.542 40.5285 159.586 40.5475 159.577 40.5475C158.693 42.7402 158.445 44.9633 156.804 46.7873C155.919 47.7792 155.034 48.6874 154.415 49.8958C153.788 51.1561 153.427 52.502 153.349 53.8708C153.349 53.9164 153.278 53.9126 153.274 53.8708C153.152 51.6457 153.944 49.4546 155.512 47.6804Z" fill="#263238"/>
<path d="M165.582 55.6993C161.805 63.2236 156.205 70.8998 153.254 72.1729C151.184 73.0735 147.088 73.0165 145.734 70.9606C142.811 66.4765 141.784 59.2904 142.501 55.5739C142.757 54.2514 150.905 53.7042 151.533 55.0343C152.989 58.1466 153.458 61.3729 153.918 61.3729C154.311 61.3729 156.448 58.861 161.256 54.4681C166.281 49.8851 166.905 53.0658 165.582 55.6993Z" fill="#EB9481"/>
<path d="M142.41 56.7652C142.41 56.7652 142.552 52.8473 144.18 50.2366C145.303 48.4315 148.253 44.7416 155.353 44.4794C157.038 44.4186 159.489 45.3572 156.782 46.3148C154.858 46.9989 153.398 46.9305 152.358 47.5005C152.358 47.5005 155.313 49.0205 155.318 50.4646C155.321 51.7358 155.221 53.0056 155.017 54.2647C154.74 54.2792 154.462 54.2792 154.185 54.2647C154.185 54.2647 154.141 55.6252 152.376 57.035L142.41 56.7652Z" fill="#EB9481"/>
<path d="M145.562 48.6674C146.73 48.2873 149.216 47.5273 151.508 47.4931C154.055 47.4665 158.965 48.0099 158.965 49.625C158.965 50.8068 157.072 50.7422 157.072 50.7422C157.072 50.7422 159.045 51.3351 158.775 52.4029C158.527 53.3795 157.063 53.2541 157.063 53.2541C157.063 53.2541 158.191 53.7899 157.74 54.6868C157.205 55.7698 154.931 54.4702 153.281 55.158C152.914 55.3138 145.562 48.6674 145.562 48.6674Z" fill="#EB9481"/>
<path d="M151.089 49.8073C153.134 49.5784 155.211 49.8913 157.043 50.7041C157.087 50.7269 157.092 50.7649 157.043 50.7535C155.108 50.2385 153.107 49.9272 151.085 49.8263C151.085 49.8263 151.076 49.8111 151.089 49.8073Z" fill="#263238"/>
<path d="M151.195 52.0142C153.246 51.9503 155.279 52.3639 157.078 53.2113C157.123 53.2341 157.123 53.2759 157.078 53.2645C155.178 52.6626 153.205 52.2495 151.195 52.0332V52.0142Z" fill="#263238"/>
<path d="M156.337 70.4825L153.785 60.5717C156.361 58.1239 159.093 55.801 161.968 53.6137C166.118 50.5318 168.095 50.8624 165.609 56.3498C163.123 61.8372 159.46 68.191 156.337 70.4825Z" fill="#C06474"/>
<path d="M156.337 70.4825L153.785 60.5717C156.361 58.1239 159.093 55.801 161.968 53.6137C166.118 50.5318 168.095 50.8624 165.609 56.3498C163.123 61.8372 159.46 68.191 156.337 70.4825Z" fill="#C06474"/>
<path d="M155.226 60.3594C155.668 61.7123 156.052 63.0752 156.376 64.4484C156.541 65.14 156.696 65.8341 156.84 66.5308C156.986 67.2377 157.075 67.9521 157.199 68.6627C157.199 68.7007 157.146 68.7045 157.137 68.6627C156.84 67.2719 156.482 65.8886 156.155 64.5054C155.828 63.1221 155.496 61.7427 155.173 60.3632C155.164 60.3442 155.217 60.3328 155.226 60.3594Z" fill="#263238"/>
<path d="M164.746 58.1782C164.657 58.3568 164.569 58.5316 164.489 58.7102C164.487 58.671 164.487 58.6317 164.489 58.5924C164.528 58.3572 164.603 58.1274 164.71 57.9084C164.733 57.9971 164.745 58.0875 164.746 58.1782ZM157.637 57.9806C157.597 58.2137 157.597 58.4505 157.637 58.6836C157.849 58.2469 157.927 57.7705 157.863 57.3004C157.749 57.5164 157.673 57.7456 157.637 57.9806ZM159.959 65.0755C159.92 65.3098 159.92 65.5479 159.959 65.7823C160.073 65.5667 160.148 65.3372 160.181 65.1021C160.221 64.8677 160.221 64.6296 160.181 64.3952C160.069 64.6116 159.995 64.8407 159.959 65.0755ZM157.217 62.005C156.944 61.9707 156.667 61.9707 156.394 62.005C156.645 62.1029 156.912 62.167 157.186 62.195C157.459 62.2292 157.736 62.2292 158.009 62.195C157.757 62.1004 157.49 62.0377 157.217 62.0087V62.005ZM165.652 52.7288C165.38 52.6946 165.102 52.6946 164.83 52.7288C165.081 52.8268 165.348 52.8908 165.621 52.9188C165.894 52.9531 166.171 52.9531 166.444 52.9188C166.192 52.823 165.926 52.759 165.652 52.7288ZM162.653 62.0924C162.653 62.0924 162.653 62.1228 162.653 62.1342C162.657 62.1204 162.657 62.1061 162.653 62.0924ZM156.102 66.2497C156.264 66.4405 156.458 66.6096 156.677 66.7513C156.576 66.5318 156.439 66.3258 156.27 66.1395C156.109 65.9475 155.915 65.7771 155.695 65.6341C155.797 65.8544 155.934 66.0615 156.102 66.2497ZM160.676 60.0783C160.899 59.9385 161.097 59.7721 161.264 59.5843C160.753 59.7623 160.305 60.0518 159.964 60.4241C160.219 60.3385 160.459 60.2221 160.676 60.0783ZM161.928 55.8031C162.091 55.9942 162.284 56.1644 162.503 56.3085C162.403 56.0892 162.268 55.8832 162.1 55.6967C161.936 55.5055 161.741 55.3353 161.521 55.1913C161.622 55.4108 161.759 55.6168 161.928 55.8031Z" fill="white"/>
<path d="M165.601 56.3501C163.115 61.8337 159.461 68.1913 156.338 70.4828L155.285 66.4015L166.494 51.9609C166.919 52.55 166.684 53.9598 165.601 56.3501Z" fill="#263238"/>
<path d="M158.429 72.9027C158.429 72.9027 166.392 74.5254 181.511 73.4043C181.511 73.4043 175.601 57.2082 170.846 52.8418C168.678 50.8543 166.564 51.1583 164.773 52.4352C164.33 52.7544 158.774 58.8042 158.306 60.9095C157.89 62.7716 159.655 64.8426 159.655 64.8426L158.429 72.9027Z" fill="#C06474"/>
<path d="M164.723 57.9084C164.762 58.1428 164.762 58.3809 164.723 58.6152C164.69 58.8504 164.615 59.0798 164.501 59.2955C164.461 59.0611 164.461 58.823 164.501 58.5886C164.537 58.354 164.612 58.125 164.723 57.9084ZM164.143 70.2094C164.103 70.4438 164.103 70.6819 164.143 70.9163C164.257 70.7006 164.332 70.4712 164.364 70.236C164.404 70.003 164.404 69.7661 164.364 69.533C164.253 69.7481 164.178 69.976 164.143 70.2094ZM160.228 72.3071C160.188 72.5415 160.188 72.7796 160.228 73.0139C160.445 72.5782 160.524 72.1011 160.458 71.6307C160.346 71.846 160.269 72.0737 160.228 72.3071ZM172.91 62.7118C172.87 62.9461 172.87 63.1842 172.91 63.4186C173.02 63.2017 173.095 62.9728 173.131 62.7384C173.169 62.5039 173.169 62.266 173.131 62.0316C173.023 62.2488 172.948 62.4776 172.91 62.7118ZM159.963 65.0755C159.923 65.3098 159.923 65.5479 159.963 65.7823C160.077 65.5667 160.152 65.3372 160.184 65.1021C160.224 64.8677 160.224 64.6296 160.184 64.3952C160.073 64.6116 159.998 64.8407 159.963 65.0755ZM168.73 59.9301C168.459 59.8958 168.183 59.8958 167.912 59.9301C168.419 60.1168 168.974 60.185 169.522 60.1277C169.27 60.0306 169.003 59.9641 168.73 59.9301ZM173.432 66.7893C173.159 66.7551 172.882 66.7551 172.609 66.7893C172.86 66.8873 173.128 66.9513 173.401 66.9793C173.674 67.0136 173.951 67.0136 174.224 66.9793C173.972 66.8835 173.705 66.8195 173.432 66.7893ZM165.603 66.2231C165.33 66.1888 165.053 66.1888 164.78 66.2231C165.032 66.3176 165.299 66.3815 165.572 66.4131C165.845 66.4455 166.122 66.4455 166.395 66.4131C166.142 66.3186 165.876 66.2547 165.603 66.2231ZM179.806 72.5237C179.534 72.4895 179.256 72.4895 178.984 72.5237C179.236 72.6182 179.502 72.6822 179.775 72.7137C180.048 72.7461 180.325 72.7461 180.598 72.7137C180.345 72.6197 180.079 72.5558 179.806 72.5237ZM165.651 52.7288C165.379 52.6946 165.101 52.6946 164.829 52.7288C165.08 52.8268 165.347 52.8908 165.62 52.9188C165.893 52.9531 166.17 52.9531 166.443 52.9188C166.193 52.8233 165.928 52.7593 165.656 52.7288H165.651ZM169.491 54.7885C169.655 54.9788 169.848 55.1488 170.066 55.2939C169.967 55.073 169.832 54.8656 169.663 54.6783C169.501 54.4872 169.307 54.317 169.088 54.1729C169.189 54.393 169.324 54.6002 169.491 54.7885ZM176.613 63.5288C176.774 63.7196 176.968 63.8887 177.188 64.0304C177.087 63.8109 176.95 63.6049 176.781 63.4186C176.619 63.2266 176.425 63.0562 176.206 62.9132C176.313 63.1343 176.456 63.3415 176.63 63.5288H176.613ZM163.042 62.7118C163.206 62.9021 163.399 63.0721 163.617 63.2172C163.517 62.9958 163.38 62.7883 163.21 62.6016C163.049 62.4105 162.856 62.2403 162.639 62.0962C162.745 62.3163 162.886 62.5223 163.059 62.708L163.042 62.7118ZM169.845 69.229C170.005 69.4197 170.197 69.5888 170.415 69.7306C170.318 69.5106 170.182 69.3043 170.013 69.1188C169.85 68.9277 169.657 68.7575 169.438 68.6134C169.54 68.8337 169.677 69.0408 169.845 69.229ZM161.821 55.6625C161.861 55.7081 161.896 55.7537 161.936 55.7955C162.096 55.9886 162.288 56.1602 162.506 56.3047C162.407 56.0833 162.27 55.8759 162.099 55.6891L161.94 55.5181L161.821 55.6625ZM160.68 60.0745C160.902 59.9347 161.1 59.7683 161.268 59.5805C160.757 59.7585 160.309 60.048 159.967 60.4203C160.222 60.3359 160.462 60.2207 160.68 60.0783V60.0745ZM177.931 68.203C178.153 68.0632 178.351 67.8969 178.519 67.709C178.007 67.8887 177.557 68.1793 177.214 68.5526C177.475 68.4679 177.721 68.3514 177.944 68.2068L177.931 68.203ZM160.29 68.4576C160.515 68.3213 160.713 68.156 160.879 67.9674C160.367 68.1454 159.919 68.4349 159.578 68.8072C159.838 68.7263 160.083 68.6123 160.304 68.469L160.29 68.4576ZM172.472 58.334C172.696 58.1953 172.894 58.0288 173.061 57.84C172.804 57.9254 172.564 58.0433 172.348 58.1896C172.126 58.328 171.928 58.4931 171.76 58.6798C172.02 58.5964 172.264 58.4812 172.486 58.3378L172.472 58.334ZM167.465 72.8505C167.689 72.7118 167.887 72.5453 168.053 72.3565C167.541 72.5363 167.091 72.8269 166.748 73.2002C167.01 73.1155 167.256 72.999 167.478 72.8543L167.465 72.8505ZM168.956 63.924C169.178 63.7866 169.375 63.6213 169.54 63.4338C169.031 63.6178 168.588 63.9125 168.252 64.2888C168.51 64.1991 168.752 64.0775 168.969 63.9278L168.956 63.924ZM174.618 71.0949C174.841 70.9561 175.039 70.7896 175.206 70.6009C174.695 70.7789 174.247 71.0684 173.906 71.4407C174.165 71.3573 174.41 71.2421 174.631 71.0987L174.618 71.0949Z" fill="white"/>
<path d="M161.193 56.4469C160.709 57.0143 160.258 57.6028 159.844 58.2101C160.017 57.8719 160.176 57.5299 160.318 57.1765C160.318 57.1765 160.318 57.1537 160.287 57.1765C160.141 57.4235 159.995 57.6705 159.871 57.9365C159.747 58.2025 159.659 58.4002 159.557 58.6358C159.026 59.3253 158.605 60.073 158.305 60.8588C158.106 61.5779 158.124 62.3288 158.358 63.0401C158.479 63.4063 158.645 63.7604 158.853 64.0966C159.017 64.4009 159.235 64.6817 159.499 64.9288C159.349 65.6888 159.247 66.4488 159.132 67.1861C158.993 67.9182 158.904 68.6567 158.867 69.3977C158.87 69.4063 158.876 69.4137 158.884 69.419C158.893 69.4242 158.903 69.4271 158.913 69.4271C158.924 69.4271 158.934 69.4242 158.942 69.419C158.95 69.4137 158.957 69.4063 158.96 69.3977C158.96 69.3483 158.995 69.2951 159.017 69.2419C159.039 69.1887 159.017 69.2229 159.017 69.2153C159.203 68.5389 159.283 67.8283 159.393 67.1443C159.504 66.4602 159.716 64.9364 159.716 64.9288C159.716 64.9212 159.322 64.3056 159.163 64.0206C158.979 63.6741 158.831 63.3142 158.721 62.9451C158.48 62.2477 158.462 61.5075 158.668 60.8018C158.96 60.0483 159.354 59.3265 159.84 58.651C160.309 57.9289 160.795 57.2107 161.278 56.4963C161.269 56.4545 161.216 56.4203 161.193 56.4469Z" fill="#263238"/>
<path d="M168.884 52.3212C168.795 52.6708 166.884 54.9584 165.022 54.9014C164.416 54.8824 164.394 52.0361 164.394 52.0361L164.336 51.8271L163.531 48.8896L167.512 46.6361L168.092 46.3359C168.092 46.3359 168.247 47.1492 168.432 48.1676L168.459 48.312C168.459 48.369 168.485 48.4222 168.494 48.4792C168.525 48.6312 168.552 48.7832 168.578 48.939C168.605 49.0948 168.618 49.1708 168.636 49.2962C168.654 49.4216 168.671 49.5433 168.693 49.6763C168.826 50.5532 168.89 51.4368 168.884 52.3212Z" fill="#EB9481"/>
<path d="M168.446 48.1676C168.111 48.9974 167.57 49.7546 166.861 50.3865C166.151 51.0185 165.29 51.5101 164.336 51.8271L163.531 48.8896L167.512 46.6361L168.092 46.3359C168.092 46.3359 168.26 47.1492 168.446 48.1676Z" fill="#263238"/>
<path d="M158.458 43.4554C156.688 48.5286 160.041 50.0068 161.315 50.3298C162.47 50.6225 166.451 51.5003 168.808 46.6095C171.166 41.7187 168.977 39.4159 166.371 38.6292C163.766 37.8426 160.201 38.3822 158.458 43.4554Z" fill="#EB9481"/>
<path d="M159.597 42.7939C159.738 42.8129 159.875 42.7939 160.039 42.8167C160.189 42.8416 160.344 42.8243 160.481 42.7673C160.52 42.7419 160.548 42.7061 160.561 42.6656C160.574 42.625 160.571 42.5819 160.552 42.5431C160.502 42.4724 160.431 42.4144 160.346 42.375C160.261 42.3356 160.166 42.3162 160.07 42.3189C159.873 42.2953 159.674 42.3375 159.512 42.4367C159.477 42.4595 159.449 42.4905 159.433 42.5262C159.418 42.5619 159.414 42.6007 159.423 42.6382C159.431 42.6756 159.452 42.7102 159.483 42.7377C159.514 42.7653 159.553 42.7848 159.597 42.7939Z" fill="#263238"/>
<path d="M163.673 43.7416C163.542 43.692 163.415 43.6362 163.292 43.5744C163.15 43.5309 163.029 43.448 162.947 43.3388C162.928 43.3007 162.924 43.258 162.937 43.2179C162.95 43.1778 162.979 43.1427 163.018 43.1184C163.101 43.0767 163.196 43.0547 163.292 43.0547C163.389 43.0547 163.483 43.0767 163.566 43.1184C163.749 43.1868 163.896 43.3115 163.978 43.468C163.999 43.5051 164.007 43.547 164 43.588C163.992 43.629 163.97 43.667 163.937 43.6969C163.904 43.7269 163.86 43.7472 163.813 43.7552C163.766 43.7632 163.717 43.7585 163.673 43.7416Z" fill="#263238"/>
<path d="M162.33 44.7656C162.33 44.7656 162.357 44.7922 162.33 44.8074C162.198 45.1456 162.114 45.5675 162.437 45.7651C162.437 45.7651 162.437 45.7917 162.437 45.7841C162.021 45.6169 162.14 45.0734 162.33 44.7656Z" fill="#263238"/>
<path d="M162.812 44.4992C163.475 44.6208 163.139 45.7495 162.524 45.6393C161.909 45.529 162.259 44.3928 162.812 44.4992Z" fill="#263238"/>
<path d="M163.053 44.6134C163.15 44.7046 163.23 44.8414 163.363 44.8832C163.496 44.925 163.677 44.8414 163.805 44.7502C163.743 44.9668 163.584 45.1682 163.305 45.1302C163.027 45.0922 162.929 44.8756 162.934 44.6438C162.96 44.6286 163.018 44.5792 163.053 44.6134Z" fill="#263238"/>
<path d="M160.093 44.1953C160.093 44.1953 160.058 44.1953 160.054 44.2181C159.965 44.5715 159.797 44.9781 159.395 45.0009C159.859 45.0617 160.076 44.5297 160.093 44.1953Z" fill="#263238"/>
<path d="M159.837 43.7701C159.196 43.5877 158.816 44.7049 159.395 44.8759C159.975 45.0469 160.377 43.9069 159.837 43.7701Z" fill="#263238"/>
<path d="M159.54 43.7751C159.416 43.8093 159.279 43.8891 159.155 43.8663C159.031 43.8435 158.947 43.6915 158.894 43.5547C158.894 43.5547 158.894 43.5547 158.868 43.5547C158.813 43.6479 158.798 43.7549 158.827 43.8565C158.855 43.9581 158.924 44.0478 159.023 44.1095C159.226 44.2007 159.465 44.0563 159.58 43.8587C159.607 43.8169 159.589 43.7485 159.54 43.7751Z" fill="#263238"/>
<path d="M161.525 47.64C161.415 47.726 161.274 47.777 161.126 47.7844C160.974 47.7548 160.831 47.6978 160.706 47.6172C160.706 47.6172 160.68 47.6172 160.684 47.6172C160.727 47.6971 160.793 47.7658 160.878 47.8159C160.962 47.866 161.06 47.8959 161.162 47.9022C161.25 47.8988 161.335 47.8728 161.406 47.8274C161.477 47.782 161.531 47.7194 161.56 47.6476C161.564 47.6438 161.525 47.6324 161.525 47.64Z" fill="#263238"/>
<path d="M160.133 46.709C160.226 46.9481 160.39 47.1618 160.611 47.3284C160.735 47.4192 160.89 47.4726 161.053 47.4805C161.402 47.5033 161.495 47.2524 161.535 47.0206C161.553 46.8944 161.553 46.7668 161.535 46.6406C161.089 46.7937 160.596 46.8177 160.133 46.709Z" fill="#263238"/>
<path d="M160.613 47.3318C160.737 47.4225 160.893 47.4759 161.056 47.4838C161.405 47.5066 161.498 47.2558 161.538 47.024C161.366 46.9772 161.181 46.9822 161.013 47.0382C160.844 47.0941 160.704 47.1977 160.613 47.3318Z" fill="#FF98B9"/>
<path d="M160.224 45.9892C160.224 45.9892 159.977 46.4908 159.901 46.7492C159.901 46.772 159.959 46.7986 160.056 46.8252C160.289 46.9204 160.548 46.9587 160.805 46.9359C161.062 46.9131 161.306 46.8301 161.512 46.696C161.518 46.692 161.522 46.6864 161.523 46.68C161.525 46.6736 161.523 46.667 161.52 46.6614C161.516 46.6558 161.51 46.6516 161.502 46.6496C161.495 46.6475 161.488 46.6478 161.481 46.6504C161.052 46.7803 160.587 46.7869 160.154 46.6694C160.154 46.5972 160.596 45.8258 160.565 45.8106C160.339 45.7775 160.108 45.7698 159.879 45.7878C160.357 44.7313 161.029 43.7509 161.485 42.6944C161.488 42.6865 161.488 42.6779 161.485 42.67C161.481 42.6622 161.474 42.6558 161.465 42.652C161.457 42.6483 161.447 42.6474 161.437 42.6496C161.428 42.6519 161.42 42.657 161.414 42.664C160.659 43.6956 160.025 44.7891 159.521 45.9284C159.45 46.0462 160.096 46.0044 160.224 45.9892Z" fill="#263238"/>
<path d="M168.206 46.6601C167.233 46.4967 167.574 44.7258 167.574 44.7258C167.574 44.7258 165.636 44.266 165.773 41.7237C165.597 42.4534 165.672 43.2116 165.99 43.905C165.99 43.905 162.677 42.7649 162.036 39.9756C162.036 39.9756 162.204 41.3627 162.597 41.9365C161.804 41.5034 161.206 40.8505 160.903 40.0858C160.903 40.0858 159.846 41.3589 159.258 41.6363C159.258 41.6363 161.067 36.5403 166.424 38.4138C166.424 38.4138 169.825 39.4436 170.303 42.0999C170.781 44.7562 168.206 46.6601 168.206 46.6601Z" fill="#263238"/>
<path d="M168.162 48.4803C168.064 48.4913 167.964 48.4913 167.866 48.4803C167.77 48.4791 167.674 48.465 167.583 48.4385C167.461 48.4088 167.348 48.354 167.256 48.2788C167.182 48.2241 167.117 48.16 167.065 48.0888C166.989 47.988 166.935 47.8759 166.906 47.7582L167.57 46.432C167.57 46.432 169.277 45.0449 170.034 45.5997C170.79 46.1546 169.251 48.332 168.162 48.4803Z" fill="#EB9481"/>
<path d="M168.162 48.2483C168.14 48.2934 168.103 48.3319 168.056 48.3589C168.009 48.386 167.953 48.4004 167.896 48.4003C167.839 48.4002 167.784 48.3856 167.737 48.3584C167.689 48.3311 167.653 48.2925 167.631 48.2473C167.609 48.2021 167.604 48.1525 167.615 48.1046C167.626 48.0567 167.654 48.0127 167.694 47.9782C167.734 47.9438 167.786 47.9203 167.841 47.9109C167.897 47.9015 167.955 47.9065 168.007 47.9252C168.078 47.9504 168.134 47.9986 168.163 48.0592C168.192 48.1198 168.192 48.1878 168.162 48.2483Z" fill="white"/>
<path d="M168.797 47.9848C168.782 48.0167 168.755 48.044 168.722 48.063C168.688 48.0821 168.648 48.0921 168.608 48.0918C168.568 48.0915 168.528 48.0809 168.495 48.0613C168.462 48.0417 168.436 48.0141 168.421 47.9819C168.406 47.9497 168.402 47.9144 168.411 47.8805C168.419 47.8466 168.439 47.8156 168.468 47.7915C168.497 47.7674 168.534 47.7512 168.573 47.745C168.613 47.7388 168.654 47.7429 168.691 47.7568C168.74 47.7752 168.779 47.8094 168.799 47.8521C168.819 47.8947 168.818 47.9424 168.797 47.9848Z" fill="white"/>
<path d="M172.097 53.9438C176.043 58.5268 183.571 69.38 181.046 71.7703C176.892 75.6996 166.891 79.0247 163.794 79.7505C162.467 80.0622 157.951 71.6221 159.229 70.9646C160.76 70.1742 171.464 67.3621 171.438 66.5793C171.438 66.1347 170.306 62.3991 169.385 57.6376C168.315 52.1008 170.217 51.7512 172.097 53.9438Z" fill="#EB9481"/>
<path d="M164.097 70.4854C164.097 70.4854 160.063 69.3758 157.386 68.7564C155.891 68.4105 153.268 67.9963 152.039 68.1901C150.194 68.4562 142.683 70.5766 143.24 72.1499C143.749 73.5787 149.933 71.0516 149.933 71.0516C149.933 71.0516 143.431 73.1265 144.408 74.7492C145.386 76.3718 151.928 72.7161 151.928 72.7161C151.928 72.7161 145.293 74.9772 146.62 76.5162C147.611 77.6753 153.759 74.6542 153.759 74.6542C153.759 74.6542 148.08 76.6302 149.039 77.8615C150.106 79.2219 155.98 76.7214 155.98 76.7214C159.041 79.4955 161.819 79.7616 163.818 79.716C164.305 79.7236 164.097 70.4854 164.097 70.4854Z" fill="#EB9481"/>
<path d="M152.128 70.2188C151.354 70.4392 150.571 70.6558 149.819 70.9332C149.067 71.2106 148.333 71.5146 147.607 71.849C146.658 72.2747 145.768 72.791 144.953 73.3881C146.513 72.4982 148.165 71.7349 149.89 71.108C150.637 70.8306 151.367 70.519 152.101 70.2415L152.128 70.2188Z" fill="#263238"/>
<path d="M153.35 72.5239C152.372 72.8431 151.395 73.1282 150.435 73.4816C149.475 73.835 148.612 74.2416 147.688 74.6482C147.617 74.6786 147.661 74.7014 147.737 74.6748C148.674 74.2948 149.581 74.0098 150.523 73.645C151.466 73.2802 152.403 72.885 153.359 72.5429C153.372 72.5391 153.363 72.5201 153.35 72.5239Z" fill="#263238"/>
<path d="M154.807 74.3369C153.298 74.7921 151.848 75.3805 150.481 76.0925C150.414 76.1267 150.481 76.1495 150.543 76.1191C151.967 75.5111 153.082 75.0285 154.824 74.3825C154.851 74.3711 154.838 74.3293 154.807 74.3369Z" fill="#263238"/>
<path d="M155.809 68.4313C155.38 68.2824 154.936 68.168 154.482 68.0893C154.056 68.0018 153.623 67.942 153.186 67.9107C152.243 67.8441 151.293 67.9437 150.395 68.2033C148.592 68.704 146.861 69.381 145.238 70.2212C145.202 70.2212 145.238 70.2896 145.264 70.2782C146.917 69.6151 148.614 69.0365 150.347 68.5453C151.227 68.279 152.156 68.1503 153.089 68.1653C153.571 68.1881 154.049 68.2489 154.527 68.3097C154.949 68.3871 155.376 68.4454 155.805 68.4845C155.832 68.5035 155.845 68.4427 155.809 68.4313Z" fill="#263238"/>
<path d="M182.025 70.2103L171.078 66.3874C170.193 63.1795 169.518 59.9317 169.056 56.6591C168.459 51.9735 169.897 50.765 173.74 55.6368C177.584 60.5086 181.601 66.7028 182.025 70.2103Z" fill="#C06474"/>
<path d="M173.178 54.9511L173.324 55.1259C173.293 55.2344 173.25 55.34 173.195 55.4413C173.167 55.2791 173.161 55.1146 173.178 54.9511ZM172.908 62.7186C172.868 62.953 172.868 63.1911 172.908 63.4254C173.018 63.2086 173.092 62.9796 173.129 62.7452C173.167 62.5107 173.167 62.2729 173.129 62.0384C173.02 62.2557 172.946 62.4844 172.908 62.7186ZM173.43 66.7961C173.157 66.7619 172.88 66.7619 172.607 66.7961C172.858 66.8941 173.125 66.9582 173.399 66.9861C173.672 67.0204 173.949 67.0204 174.222 66.9861C173.97 66.8903 173.703 66.8263 173.43 66.7961ZM175.801 59.4429C176.05 59.5403 176.316 59.6044 176.588 59.6329H176.712L176.579 59.4391C176.321 59.408 176.059 59.4093 175.801 59.4429ZM169.488 54.7953C169.652 54.9856 169.846 55.1556 170.064 55.3007C169.965 55.0798 169.829 54.8724 169.661 54.6851C169.498 54.494 169.305 54.3238 169.086 54.1797C169.186 54.3998 169.322 54.607 169.488 54.7953ZM176.61 63.5356C176.772 63.7264 176.966 63.8955 177.185 64.0372C177.084 63.8177 176.947 63.6117 176.778 63.4254C176.617 63.2334 176.423 63.0631 176.203 62.92C176.311 63.1412 176.454 63.3484 176.628 63.5356H176.61ZM177.937 68.2174C178.16 68.0776 178.358 67.9113 178.525 67.7234C178.013 67.9031 177.564 68.1938 177.221 68.567C177.479 68.4793 177.722 68.3603 177.942 68.2136L177.937 68.2174ZM172.479 58.337C172.702 58.1983 172.9 58.0318 173.067 57.843C172.811 57.9284 172.571 58.0463 172.355 58.1926C172.132 58.3311 171.934 58.4961 171.767 58.6828C172.023 58.6 172.264 58.4861 172.483 58.3446L172.479 58.337Z" fill="white"/>
<path d="M169.156 59.5675C169.321 59.8369 169.454 60.1195 169.555 60.4111L169.67 60.7038C169.572 60.1603 169.484 59.6169 169.395 59.0735C169.395 59.0355 169.453 59.0203 169.462 59.0735C169.736 60.3047 171.01 66.0696 171.067 66.3698C171.098 66.3698 171.439 66.537 171.461 66.537C171.483 66.537 171.461 66.5978 171.435 66.5826C171.408 66.5674 170.992 66.4154 170.992 66.4116C170.851 66.1494 169.847 61.7488 169.754 61.213C169.737 61.1905 169.723 61.1662 169.714 61.1408L169.612 60.9128C169.55 60.7722 169.497 60.6278 169.44 60.4871C169.305 60.1974 169.199 59.8987 169.121 59.5941C169.121 59.5599 169.148 59.5485 169.156 59.5675Z" fill="#263238"/>
<path d="M171.278 65.3363C171.713 65.4209 172.142 65.53 172.561 65.6631C173.003 65.7771 173.414 65.8835 173.835 66.0051C174.653 66.2331 175.458 66.4839 176.263 66.7385C177.886 67.2398 179.479 67.8105 181.036 68.4486C181.043 68.4516 181.049 68.4571 181.052 68.4639C181.055 68.4707 181.055 68.4782 181.051 68.4847C181.048 68.4913 181.041 68.4963 181.033 68.4988C181.026 68.5013 181.017 68.501 181.009 68.498C179.359 68.004 177.736 67.4416 176.099 66.9172L173.684 66.1571C173.282 66.0279 172.879 65.8911 172.477 65.7771C172.064 65.668 171.658 65.5412 171.26 65.3971C171.256 65.3591 171.256 65.3325 171.278 65.3363Z" fill="#263238"/>
<path d="M168.07 39.1797C168.114 39.7649 171.37 41.1596 173.687 39.6471C176.005 38.1347 175.014 35.163 171.834 35.467C169.821 35.6684 167.977 37.9333 168.07 39.1797Z" fill="#263238"/>
<path d="M174.842 36.9844C174.49 36.268 173.867 35.6748 173.073 35.301C172.705 35.1189 172.288 35.0231 171.863 35.0231C171.439 35.0231 171.022 35.1189 170.654 35.301C169.904 35.7034 169.294 36.2701 168.884 36.9426C168.664 37.2832 168.482 37.6407 168.34 38.0105C168.174 38.3737 168.089 38.7603 168.088 39.1505C167.986 38.7524 167.986 38.3401 168.088 37.9421C168.182 37.5397 168.331 37.1482 168.53 36.7754C168.914 35.9987 169.571 35.3448 170.41 34.9058C170.852 34.6871 171.356 34.5767 171.866 34.5865C172.368 34.6038 172.856 34.7349 173.281 34.9666C173.688 35.193 174.037 35.4889 174.306 35.8361C174.574 36.1832 174.757 36.5741 174.842 36.9844Z" fill="#263238"/>
<path d="M47.555 147.014H28.8706C28.8706 147.014 32.6349 109.526 32.4889 108.872C32.3031 108.032 31.1973 104.24 29.7287 99.2845C29.2864 97.7302 28.7732 96.0695 28.2557 94.3443C26.8668 89.6815 25.3274 84.5817 23.9916 80.147C21.9833 73.5043 20.4219 68.3438 20.4219 68.3438H36.2532C36.2532 68.3438 38.0978 73.3675 40.4245 79.9076C44.2153 90.548 49.2713 105.156 49.7755 108.713C50.5806 114.451 47.555 147.014 47.555 147.014Z" fill="#37474F"/>
<path d="M36.0028 106.577C35.3924 104.259 34.4767 101.982 33.6805 99.7062C32.0616 95.0776 30.4396 90.4529 28.8148 85.8319C27.995 83.5214 27.1737 81.2109 26.351 78.9004C25.9307 77.7338 25.5149 76.5672 25.0903 75.4043C24.6656 74.2415 24.2056 73.1242 23.8252 71.9842C23.6748 71.5168 23.5908 71.7714 23.7854 72.3642C24.1791 73.5612 24.5683 74.7621 24.9753 75.9553C25.7803 78.319 26.5898 80.6827 27.4037 83.0464C29.0227 87.7484 30.6564 92.4467 32.3048 97.1411C33.1276 99.4972 33.9518 101.852 34.7775 104.206C35.1946 105.327 35.5328 106.469 35.7905 107.626C36.0086 108.835 36.0635 110.061 35.9541 111.281C35.7728 113.736 35.4455 116.187 35.18 118.638L34.3838 126.003C33.8442 130.885 33.3193 135.773 32.8091 140.668C32.7413 141.286 32.6794 141.905 32.6233 142.526C32.6233 142.735 32.9728 142.72 32.9949 142.526C33.6097 137.696 34.083 132.847 34.6094 128.01C35.1358 123.172 35.6622 118.38 36.1842 113.569C36.3169 112.361 36.4673 111.148 36.4673 109.936C36.4607 108.805 36.3048 107.678 36.0028 106.577Z" fill="#263238"/>
<path d="M34.4529 68.3438C33.3515 75.6476 31.2592 89.3471 29.7287 99.2845C26.1723 87.2418 20.4219 68.3438 20.4219 68.3438H34.4529Z" fill="#263238"/>
<path d="M35.7376 68.3438C35.7376 68.3438 35.3749 74.8496 33.6409 80.0064C33.4994 80.432 33.349 80.85 33.1986 81.2528C31.6085 81.8029 30.0804 82.4771 28.6336 83.2669C28.6336 83.2669 28.4523 88.5035 28.2665 94.3443C28.0674 100.873 27.8551 108.154 27.8993 109.697C28.0586 115.477 27.0589 147.25 27.0589 147.25L8.37891 147.314C8.37891 147.314 11.7584 111.833 11.7318 109.716C11.6965 106.296 12.6386 91.2738 13.3641 80.3066C13.8064 73.5499 14.1736 68.3438 14.1736 68.3438H35.7376Z" fill="#37474F"/>
<path d="M15.7359 70.6635C15.3909 79.6128 15.0282 88.5659 14.5593 97.5152C14.0904 106.465 13.4623 115.471 12.5864 124.428C12.0999 129.433 11.6398 136.47 11.0117 141.464C11.0117 141.498 11.0648 141.509 11.0692 141.464C12.4316 132.583 13.188 121.604 13.8604 112.666C14.5327 103.728 14.9795 94.7791 15.3334 85.8336C15.5369 80.7718 15.6872 75.7063 15.8642 70.6331C15.8686 70.5837 15.7359 70.5913 15.7359 70.6635Z" fill="#263238"/>
<path d="M33.9624 80.8554C32.1054 81.5219 30.319 82.3255 28.6234 83.2571C28.6087 83.2636 28.5977 83.2749 28.5927 83.2884C28.5878 83.302 28.5892 83.3167 28.5969 83.3293C28.6045 83.3419 28.6176 83.3513 28.6334 83.3556C28.6492 83.3599 28.6663 83.3586 28.6809 83.3521C30.4812 82.592 32.3214 81.8776 34.073 81.0378C34.087 81.0315 34.0993 81.023 34.1095 81.0127C34.1196 81.0023 34.1272 80.9904 34.1319 80.9775C34.1366 80.9646 34.1384 80.9511 34.137 80.9376C34.1356 80.9241 34.1312 80.9111 34.1239 80.8991C34.1166 80.8871 34.1067 80.8765 34.0947 80.8678C34.0826 80.8591 34.0687 80.8526 34.0537 80.8485C34.0387 80.8444 34.0229 80.843 34.0073 80.8441C33.9916 80.8453 33.9764 80.8491 33.9624 80.8554Z" fill="#263238"/>
<path d="M34.0664 75.3358C33.9426 75.9059 33.7833 76.4759 33.6241 77.0383C33.4649 77.6007 33.3897 78.1137 33.226 78.6382C33.0869 79.1489 32.7798 79.6146 32.3413 79.9796C32.098 80.1734 31.8326 80.3596 31.5716 80.523C31.4345 80.618 31.2841 80.7092 31.1293 80.808C31.1293 80.732 31.1603 80.656 31.178 80.5762C31.2222 80.3596 31.2664 80.143 31.3062 79.9302C31.3991 79.4476 31.492 78.9688 31.5761 78.4862C31.7442 77.5399 31.899 76.5861 32.129 75.6475C32.129 75.6095 32.0715 75.5943 32.0626 75.6475C31.7884 76.5747 31.4832 77.4943 31.2443 78.4292C31.1293 78.889 30.7091 81.1577 30.6914 81.3173C30.6737 81.4769 30.656 81.6479 30.6472 81.8151C30.6228 81.9842 30.6228 82.1552 30.6472 82.3243C30.651 82.3316 30.6573 82.3377 30.6651 82.3421C30.673 82.3464 30.6821 82.3487 30.6914 82.3487C30.7007 82.3487 30.7098 82.3464 30.7177 82.3421C30.7255 82.3377 30.7317 82.3316 30.7356 82.3243C30.8162 82.1665 30.8727 82.0005 30.9037 81.8303C30.9524 81.6707 30.9966 81.5073 31.0276 81.3401C31.0276 81.2831 31.0276 81.2223 31.0585 81.1615C31.3195 81.0246 31.5628 80.846 31.8061 80.694C32.0494 80.542 32.3325 80.371 32.5802 80.1924C33.0406 79.8611 33.3724 79.417 33.5312 78.9194C33.6898 78.3861 33.7935 77.8418 33.8408 77.2929C33.9249 76.6469 33.9868 76.0009 34.0886 75.3586C34.1328 75.3016 34.0753 75.3016 34.0664 75.3358Z" fill="#263238"/>
<path d="M27.3774 52.8152C30.2747 57.7553 37.6087 67.7725 41.3907 67.8371C46.1193 67.9131 55.5456 61.9925 57.9033 59.682C58.9251 58.675 50.7949 51.7283 49.5917 52.7125C47.9816 54.0312 42.5143 58.0327 42.3196 58.1011C41.9171 58.2379 34.9458 53.2788 30.7525 50.0791C26.0548 46.4955 25.1878 49.0872 27.3774 52.8152Z" fill="#D3766A"/>
<path d="M55.6561 61.2683C55.6561 61.2683 59.1948 58.7868 61.4464 57.0881C62.6938 56.1305 64.6622 54.3254 65.2018 53.2652C66.0113 51.6729 68.2186 44.5781 66.228 44.0803C64.4277 43.6318 63.4325 49.9325 63.4325 49.9325C63.4325 49.9325 65.0912 43.6508 62.8043 43.4494C60.5174 43.248 60.4953 50.5025 60.4953 50.5025C60.4953 50.5025 62.0302 44.0119 59.6372 44.1297C57.8236 44.2171 57.3768 50.7837 57.3768 50.7837C57.3768 50.7837 58.6508 45.1975 56.7841 45.2165C54.7228 45.2393 53.8647 51.2777 53.8647 51.2777C49.1316 52.0377 47.2694 53.9378 46.1193 55.4959C45.8362 55.8569 55.6561 61.2683 55.6561 61.2683Z" fill="#D3766A"/>
<path d="M63.0241 52.1244C63.2497 51.3909 63.4664 50.6499 63.6345 49.9051C63.8026 49.1603 63.8999 48.404 63.9707 47.6516C64.0778 46.6646 64.057 45.6705 63.9088 44.6875C64.0282 46.447 63.5416 49.1299 63.3912 49.8747C63.2408 50.6195 63.1391 51.3719 62.9887 52.1206C62.9843 52.1244 63.0153 52.1244 63.0241 52.1244Z" fill="#263238"/>
<path d="M59.8708 51.715C60.1096 50.7688 60.3927 49.8378 60.583 48.8801C60.7732 47.9225 60.8616 47.0143 60.9766 46.0566C60.9766 45.9806 60.9368 46.0034 60.9236 46.0566C60.7643 47.0105 60.5299 47.8845 60.3574 48.8383C60.1848 49.7922 60.0566 50.7384 59.8442 51.6922C59.8398 51.7264 59.8664 51.7264 59.8708 51.715Z" fill="#263238"/>
<path d="M57.0929 51.7716C57.503 50.3293 57.7401 48.8548 57.8007 47.3711C57.8007 47.2951 57.7432 47.3293 57.7343 47.4015C57.5308 48.8683 57.3849 50.0235 57.0354 51.7564C57.031 51.7868 57.0841 51.802 57.0929 51.7716Z" fill="#263238"/>
<path d="M45.7574 55.2792L52.6004 64.8517C52.6004 64.8517 44.1605 68.7393 40.958 68.0286C37.7555 67.318 29.7801 58.5017 27.0597 52.8509C24.3393 47.2001 27.7409 47.6333 30.3949 49.5562C33.049 51.4791 42.1877 57.8367 42.3381 57.8215C42.4885 57.8063 45.7574 55.2792 45.7574 55.2792Z" fill="#C06474"/>
<path d="M47.0111 61.1933C46.5687 60.4979 46.0998 59.8176 45.6398 59.1336C45.4142 58.803 45.1975 58.4724 44.9586 58.1532C44.7197 57.834 44.4809 57.4312 44.1978 57.1005C44.1936 57.0969 44.1881 57.0946 44.1822 57.0939C44.1763 57.0933 44.1703 57.0944 44.1652 57.097C44.1601 57.0996 44.1562 57.1037 44.1541 57.1084C44.152 57.1132 44.1518 57.1185 44.1535 57.1233C44.3305 57.5034 44.5959 57.8834 44.7861 58.233C44.9763 58.5826 45.1931 58.9094 45.3965 59.2438C45.8389 59.943 46.2591 60.6423 46.7235 61.3339C47.6082 62.7209 48.5681 64.0776 49.5324 65.4304C49.5381 65.4347 49.5452 65.4373 49.5527 65.4378C49.5602 65.4383 49.5677 65.4368 49.5741 65.4334C49.5806 65.43 49.5855 65.4249 49.5884 65.4189C49.5912 65.4129 49.5917 65.4063 49.5899 65.4C48.7318 63.9826 47.9046 62.5803 47.0111 61.1933Z" fill="#263238"/>
<path d="M42.2573 57.8237C41.4745 58.3169 40.7352 58.8593 40.0456 59.4463C39.6696 59.7617 39.3025 60.0885 38.9486 60.4229C38.5947 60.7574 38.2541 61.1412 37.8958 61.4908C37.8917 61.4966 37.8899 61.5035 37.8909 61.5102C37.8918 61.517 37.8954 61.5233 37.901 61.5282C37.9066 61.533 37.914 61.536 37.9218 61.5368C37.9297 61.5376 37.9377 61.5361 37.9445 61.5326C38.3161 61.2096 38.723 60.9132 39.1078 60.6015C39.4927 60.2899 39.8731 59.9783 40.2491 59.6629C41.0055 59.0321 41.6203 58.5685 42.3458 57.9149C42.39 57.8503 42.3192 57.7666 42.2573 57.8237Z" fill="#263238"/>
<path d="M44.0054 67.8621C43.0178 68.1173 41.9755 68.1757 40.9577 68.0332C37.7507 67.3263 29.7798 58.5062 27.0594 52.8554C26.6242 52.0038 26.3079 51.1109 26.1172 50.1953L44.0054 67.8621Z" fill="#263238"/>
<path d="M11.9369 77.4369C12.0033 77.4939 39.362 76.5971 39.6008 76.3387C39.9238 75.9777 31.6387 51.2578 28.5424 48.2709C27.8833 47.6363 23.9995 46.9294 21.978 48.6319C15.4403 54.1573 11.6937 77.2279 11.9369 77.4369Z" fill="#C06474"/>
<path d="M32.4023 55.296C32.4023 55.2542 32.4643 55.2314 32.482 55.2694C32.9243 56.2346 33.3666 57.2112 33.7603 58.1955C33.7603 58.0511 33.7249 57.9104 33.7117 57.7698C33.6763 57.3898 33.6807 57.0098 33.6409 56.6526C33.6409 56.6184 33.7072 56.6184 33.7072 56.6526C33.7072 57.0326 33.8134 57.4126 33.8798 57.7926C33.9461 58.1727 33.9903 58.4767 34.0611 58.8187C34.0611 58.8795 34.0611 58.9403 34.0921 58.9973C34.7556 60.6313 37.246 68.1404 38.1837 71.1121C38.7101 72.788 39.1746 74.4752 39.6125 76.1701C39.61 76.1759 39.6054 76.1809 39.5995 76.1845C39.5936 76.188 39.5865 76.1899 39.5793 76.1899C39.5721 76.1899 39.565 76.188 39.5591 76.1845C39.5532 76.1809 39.5486 76.1759 39.5461 76.1701C38.5332 73.2288 37.5512 70.2799 36.5426 67.3386C35.6137 64.6671 32.973 56.949 32.4023 55.296Z" fill="#263238"/>
<path d="M29.2691 49.3132C29.4328 50.3772 29.7114 52.8435 27.7652 52.8093C26.9732 52.7383 26.2213 52.4746 25.5977 52.0492C24.9545 51.657 24.3614 51.2073 23.8283 50.7078C23.2091 50.1627 22.6438 49.5742 22.1386 48.9483C22.1386 48.9217 22.0722 48.9483 22.0944 48.9825C22.6075 49.6058 23.0498 50.2594 23.6337 50.8446C24.1884 51.4114 24.8297 51.9112 25.5402 52.3305C26.2007 52.779 27.0045 53.0441 27.8448 53.0905C28.2077 53.0831 28.5565 52.9683 28.8322 52.7654C29.1078 52.5625 29.2934 52.284 29.3576 51.977C29.5603 51.0946 29.5301 50.1843 29.2691 49.3132Z" fill="#263238"/>
<path d="M27.7461 51.6629C26.3571 51.8643 23.8491 49.7628 23.0352 48.2428C23.1351 47.4275 23.2828 46.617 23.4775 45.8145C23.6235 45.0354 23.765 44.169 23.8269 43.3672L29.5774 44.9176C29.1672 45.8992 28.8983 46.9201 28.7767 47.9578C28.7653 48.0677 28.7653 48.1784 28.7767 48.2884C28.7767 48.2884 28.7767 48.3226 28.7767 48.3454C28.874 48.9914 29.0908 51.4691 27.7461 51.6629Z" fill="#D3766A"/>
<path d="M28.796 48.3207C28.796 48.3207 28.796 48.3549 28.796 48.3777C28.5944 48.3927 28.3916 48.3927 28.19 48.3777C24.7574 48.0661 24.1116 44.7029 23.9922 43.4375L29.5789 44.9576C29.1693 45.9394 28.899 46.9602 28.7739 47.9977C28.7703 48.1057 28.7777 48.2138 28.796 48.3207Z" fill="#263238"/>
<path d="M22.1449 38.1138C21.7911 39.9569 23.671 44.954 25.3121 45.9155C27.6963 47.3253 31.1952 47.0821 32.4912 44.7032C33.7431 42.3966 31.1642 35.9325 29.3595 35.0851C26.7143 33.8349 22.6669 35.4005 22.1449 38.1138Z" fill="#D3766A"/>
<path d="M28.6525 40.5156C28.6525 40.5156 28.626 40.5422 28.6525 40.5536C28.7808 40.888 28.8693 41.2909 28.5508 41.4961C28.9577 41.3479 28.8295 40.8158 28.6525 40.5156Z" fill="#263238"/>
<path d="M28.1705 40.2572C27.5247 40.3789 27.8608 41.4847 28.4624 41.3669C29.064 41.2491 28.7145 40.1508 28.1705 40.2572Z" fill="#263238"/>
<path d="M30.8828 40.0078C30.8828 40.0078 30.9226 40.0078 30.9226 40.0306C31.0155 40.3764 31.188 40.7564 31.5817 40.7906C31.5817 40.7906 31.5817 40.8096 31.5817 40.8134C31.1305 40.8552 30.9094 40.346 30.8828 40.0078Z" fill="#263238"/>
<path d="M31.1309 39.5838C31.759 39.3976 32.1439 40.4882 31.5732 40.6592C31.0026 40.8303 30.6001 39.7244 31.1309 39.5838Z" fill="#263238"/>
<path d="M27.4983 39.8569C27.6517 39.7772 27.7994 39.6896 27.9406 39.5947C28.1131 39.4921 28.2635 39.4275 28.3431 39.2527C28.3584 39.2009 28.3538 39.1462 28.3299 39.0969C28.3059 39.0475 28.264 39.0062 28.2104 38.9791C28.0954 38.94 27.9702 38.9282 27.848 38.9449C27.7259 38.9616 27.6112 39.0062 27.516 39.0741C27.3042 39.1878 27.1472 39.3631 27.0736 39.5681C27.0613 39.6155 27.0648 39.6649 27.0837 39.7107C27.1026 39.7565 27.1362 39.7968 27.1805 39.8269C27.2248 39.8571 27.2782 39.8759 27.3344 39.8812C27.3906 39.8865 27.4474 39.8781 27.4983 39.8569Z" fill="#263238"/>
<path d="M31.4575 38.8983C31.2717 38.8983 31.0992 38.8983 30.9134 38.8983C30.721 38.9213 30.5252 38.8893 30.3561 38.8071C30.3091 38.7723 30.2767 38.7252 30.2639 38.673C30.2511 38.6208 30.2586 38.5665 30.2853 38.5183C30.3557 38.4309 30.4516 38.361 30.5634 38.3157C30.6753 38.2703 30.799 38.2511 30.9223 38.2599C31.1762 38.2447 31.4275 38.3126 31.6256 38.4499C31.6705 38.4825 31.7032 38.5258 31.7194 38.5743C31.7356 38.6229 31.7346 38.6745 31.7166 38.7225C31.6985 38.7706 31.6643 38.813 31.6182 38.8443C31.572 38.8756 31.5161 38.8944 31.4575 38.8983Z" fill="#263238"/>
<path d="M29.1781 43.7132C29.2875 43.7943 29.4273 43.8388 29.5718 43.8387C29.72 43.8041 29.8574 43.7418 29.9743 43.6562C29.9379 43.7353 29.8778 43.8048 29.8001 43.8575C29.7225 43.9102 29.6299 43.9443 29.532 43.9565C29.4451 43.9564 29.3602 43.9344 29.2879 43.8932C29.2155 43.8519 29.1589 43.7933 29.125 43.7246C29.1338 43.7208 29.1604 43.7056 29.1781 43.7132Z" fill="#263238"/>
<path d="M29.2734 42.5915C29.4157 42.7039 29.5834 42.7899 29.766 42.8442C29.9487 42.8984 30.1424 42.9198 30.3351 42.9069C30.503 42.897 30.6684 42.8663 30.8261 42.8157L30.9189 42.7853L31.003 42.7549C31.0232 42.7467 31.0395 42.7328 31.0491 42.7155C31.0588 42.6982 31.0613 42.6786 31.0561 42.6599V42.6257V42.5953C30.9853 42.3293 30.8349 41.9379 30.8349 41.9379C30.9588 41.9607 31.6001 42.0519 31.5471 41.9189C31.1521 40.735 30.6171 39.5889 29.9502 38.4987C29.9502 38.4645 29.8618 38.4987 29.8794 38.5253C30.2377 39.616 30.8172 40.642 31.2065 41.7327C30.9788 41.6972 30.7465 41.6895 30.5164 41.7099C30.4766 41.7327 30.8261 42.4699 30.8437 42.5877C30.5996 42.6673 30.3392 42.7034 30.0783 42.6936C29.8174 42.6838 29.5616 42.6283 29.3265 42.5307C29.2734 42.5421 29.2734 42.5725 29.2734 42.5915Z" fill="#263238"/>
<path d="M30.5971 42.7265C30.4874 42.9531 30.3105 43.151 30.084 43.3004C29.955 43.3797 29.8003 43.4223 29.6416 43.422C29.301 43.422 29.1993 43.1712 29.1993 42.9432C29.198 42.823 29.2129 42.7032 29.2435 42.5859C29.6654 42.7567 30.14 42.806 30.5971 42.7265Z" fill="#263238"/>
<path d="M30.0995 43.2994C29.9706 43.3788 29.8158 43.4214 29.6572 43.421C29.3166 43.421 29.2148 43.1702 29.2148 42.9422C29.3876 42.9045 29.5703 42.9195 29.7317 42.9847C29.893 43.0498 30.023 43.1611 30.0995 43.2994Z" fill="#FF98B9"/>
<path d="M23.3105 42.1257C24.7879 41.8369 24.4695 39.4656 24.4695 39.4656C24.4695 39.4656 26.9112 38.6181 26.8537 36.9081C26.8537 36.9081 29.605 37.7631 31.3434 36.8093C33.0818 35.8554 32.2016 34.096 31.8919 33.7426C31.5823 33.3892 30.7197 34.3202 30.7197 34.3202C30.7197 34.3202 30.3305 33.3056 29.9766 33.2599C29.6227 33.2143 29.4414 33.9136 29.4414 33.9136C27.8289 33.7883 26.2036 33.8716 24.6199 34.1606C22.4082 34.6432 21.8287 36.7675 21.8287 36.7675C21.8287 36.7675 20.7007 37.2121 20.5017 37.9987C20.3026 38.7853 22.3728 42.3119 23.3105 42.1257Z" fill="#263238"/>
<path d="M26.7372 36.6172C26.81 36.9538 26.81 37.299 26.7372 37.6356C26.6645 37.962 26.4902 38.2653 26.2329 38.5135C25.9592 38.7536 25.635 38.947 25.2774 39.0835C25.1005 39.1481 24.9103 39.2051 24.7201 39.2621C24.5299 39.3191 24.3353 39.3495 24.1406 39.4027C24.3397 39.4027 24.5432 39.3609 24.7466 39.3419C24.9501 39.3229 25.1403 39.2583 25.3349 39.2013C25.729 39.0805 26.086 38.8842 26.3789 38.6275C26.6606 38.3561 26.8369 38.0161 26.8831 37.6546C26.9354 37.3038 26.8852 36.9472 26.7372 36.6172Z" fill="#263238"/>
<path d="M21.8826 37.0457C21.8832 36.4857 22.0539 35.9355 22.3781 35.4497C22.7077 34.9762 23.2054 34.6059 23.798 34.3932C23.9421 34.3368 24.0898 34.2873 24.2403 34.245L24.7092 34.1462C25.0277 34.0968 25.3506 34.0816 25.6735 34.055C25.9964 34.0284 26.3282 34.055 26.6511 34.055C26.974 34.055 27.3057 34.1082 27.6331 34.1272C27.3101 34.0702 26.9872 34.0246 26.6599 33.9714C26.3326 33.9182 26.0008 33.9334 25.6691 33.9144C24.9995 33.9071 24.3348 34.0143 23.7139 34.2298C23.0891 34.4571 22.5717 34.8588 22.2454 35.3699C21.9294 35.8839 21.8029 36.4684 21.8826 37.0457Z" fill="#263238"/>
<path d="M28.1083 42.5867C27.7536 42.6301 27.3918 42.5874 27.0639 42.4633C26.736 42.3392 26.4551 42.1388 26.2529 41.8846C26.0507 41.6305 25.9353 41.3329 25.9198 41.0253C25.9043 40.7178 25.9892 40.4127 26.1651 40.1445C26.341 39.8763 26.6007 39.6557 26.9149 39.5077C27.2291 39.3598 27.5852 39.2903 27.943 39.3072C28.3007 39.324 28.6459 39.4266 28.9393 39.6032C29.2328 39.7799 29.4628 40.0235 29.6034 40.3067C29.7209 40.5392 29.7741 40.792 29.7588 41.0451C29.7435 41.2983 29.6602 41.545 29.5153 41.7658C29.3705 41.9867 29.1681 42.1758 28.924 42.3182C28.6799 42.4606 28.4007 42.5525 28.1083 42.5867ZM27.5908 39.5466C27.4544 39.5654 27.3208 39.5972 27.1927 39.6416C26.8022 39.7817 26.4885 40.0444 26.3155 40.3762C26.1425 40.708 26.1233 41.084 26.2617 41.4275C26.4001 41.7711 26.6858 42.0564 27.0605 42.2254C27.4352 42.3943 27.8708 42.4342 28.2786 42.3369C28.6863 42.2396 29.0356 42.0124 29.2552 41.7016C29.4748 41.3909 29.5482 41.0199 29.4606 40.6642C29.3729 40.3085 29.1307 39.9949 28.7833 39.7873C28.4359 39.5796 28.0095 39.4936 27.5908 39.5466Z" fill="#C06474"/>
<path d="M32.3666 41.5878C31.6367 41.679 30.8671 41.1242 30.5972 40.2919C30.4644 39.8963 30.4799 39.4749 30.6415 39.0873C30.6982 38.9171 30.8053 38.7624 30.9522 38.6383C31.0991 38.5141 31.2809 38.4247 31.48 38.3788C31.679 38.3329 31.8885 38.3321 32.088 38.3763C32.2876 38.4205 32.4704 38.5084 32.6187 38.6313C32.9838 38.8969 33.2423 39.2546 33.3574 39.6535C33.6317 40.5351 33.238 41.3902 32.4728 41.5536L32.3666 41.5878ZM31.6544 38.5743L31.5615 38.5933C31.4046 38.6344 31.2618 38.7079 31.1454 38.8072C31.029 38.9065 30.9426 39.0288 30.8936 39.1633C30.7506 39.5084 30.7382 39.8834 30.8582 40.2349C31.0927 40.995 31.796 41.5004 32.4197 41.3522C33.0434 41.204 33.3619 40.4743 33.123 39.7105C33.0205 39.3574 32.7934 39.0401 32.4728 38.8023C32.3618 38.717 32.2312 38.6527 32.0895 38.6134C31.9478 38.5741 31.7981 38.5608 31.65 38.5743H31.6544Z" fill="#C06474"/>
<path d="M29.5985 40.5217L29.3906 40.3963C29.6074 40.1265 30.1736 39.7047 30.7575 40.0163L30.6203 40.2025C30.0984 39.9251 29.6206 40.4989 29.5985 40.5217Z" fill="#C06474"/>
<path d="M21.8459 42.8057L21.5938 42.7601C21.6203 42.6575 21.8592 41.772 22.39 41.5668C22.9208 41.3616 25.9287 40.9056 26.057 40.8828L26.0968 41.0994C24.8834 41.2666 23.6815 41.4899 22.4961 41.7682C22.1467 41.905 21.9078 42.5625 21.8459 42.8057Z" fill="#C06474"/>
<path d="M24.064 42.1351C24.064 42.1351 22.4273 40.6644 21.6267 41.1926C20.826 41.7209 22.2681 43.9743 23.3474 44.1643C23.4854 44.1997 23.6303 44.2103 23.7733 44.1956C23.9163 44.1809 24.0542 44.1412 24.1786 44.0788C24.303 44.0165 24.4111 43.9329 24.4964 43.8332C24.5817 43.7335 24.6423 43.6199 24.6744 43.4993L24.064 42.1351Z" fill="#D3766A"/>
<path d="M28.8268 48.2771L27.398 51.2298L23.156 47.4297L21.9219 48.6229C21.9219 48.6229 26.0445 54.6309 26.0754 54.3611L27.5307 51.815L29.5611 53.6163L29.4549 49.1474L28.8268 48.2771Z" fill="#EBEBEB"/>
<path d="M29.6488 51.4134C29.6046 50.6762 29.5825 49.9314 29.494 49.198C29.494 49.1714 29.4454 49.16 29.4365 49.198C29.2552 49.9086 29.4365 52.7283 29.4365 53.4009C29.3525 53.3249 27.5522 51.8163 27.5345 51.8391C27.2204 52.2419 26.1499 54.0963 26.0792 54.2635C25.4245 53.3097 22.9253 49.8402 22.1512 48.9433C22.1502 48.9391 22.1481 48.9351 22.1449 48.9317C22.1417 48.9284 22.1376 48.9257 22.133 48.924C22.1284 48.9223 22.1233 48.9216 22.1183 48.922C22.1133 48.9223 22.1084 48.9237 22.1042 48.926C22.0999 48.9284 22.0964 48.9315 22.0939 48.9353C22.0914 48.9391 22.09 48.9433 22.0899 48.9476C22.0897 48.9519 22.0908 48.9562 22.093 48.9601C22.0952 48.964 22.0985 48.9674 22.1025 48.97C22.6732 49.977 25.9819 54.6474 26.0305 54.636C26.594 53.7629 27.1034 52.8648 27.5566 51.9455C27.8618 52.2723 29.6754 53.9709 29.6842 53.8455C29.7214 53.0349 29.7096 52.2231 29.6488 51.4134Z" fill="#263238"/>
<path d="M19.1424 55.5884C19.5847 61.642 21.3983 73.0424 25.5474 75.4707C29.9708 78.0472 42.5996 78.4044 46.0985 78.374C47.5804 78.374 46.7266 68.9154 45.1829 68.6038C43.6391 68.2922 32.7974 67.9008 31.7004 67.4866C30.6034 67.0724 27.1133 58.8793 24.4062 54.1063C21.2656 48.4935 18.7929 50.6672 19.1424 55.5884Z" fill="#D3766A"/>
<path d="M52.4671 69.3151C51.7417 69.1213 51.8567 68.7944 53.1129 68.384C54.3692 67.9736 59.748 67.2668 59.3057 65.6745C58.8633 64.0823 51.2816 65.1729 49.2469 65.9937C47.2121 66.8146 44.2617 68.7564 44.2617 68.7564C45.7878 68.7982 49.4769 69.2011 52.4671 69.3151Z" fill="#D3766A"/>
<path d="M50.8984 75.4358L65.8628 75.8918L69.4369 57.7841L54.4725 57.3281L50.8984 75.4358Z" fill="#263238"/>
<path d="M51.6367 75.4592L66.6011 75.9152L70.1796 57.8038L55.2152 57.3516L51.6367 75.4592Z" fill="#455A64"/>
<path d="M62.8874 65.8938C62.8333 66.2309 62.6374 66.5392 62.3366 66.7605C62.0358 66.9817 61.6511 67.1006 61.2551 67.0947C61.069 67.0902 60.8861 67.0522 60.7182 66.9831C60.5504 66.914 60.4013 66.8153 60.2808 66.6934C60.1602 66.5716 60.0708 66.4293 60.0184 66.2758C59.9661 66.1223 59.9519 65.9611 59.9768 65.8026C60.0318 65.4653 60.2286 65.1569 60.5301 64.9357C60.8317 64.7145 61.217 64.5957 61.6134 64.6018C61.7991 64.6067 61.9816 64.6451 62.1489 64.7145C62.3162 64.7838 62.4648 64.8826 62.5848 65.0044C62.7049 65.1262 62.7939 65.2683 62.846 65.4215C62.8981 65.5747 62.9122 65.7357 62.8874 65.8938Z" fill="white"/>
<path d="M45.1386 78.382C49.4381 78.363 54.7904 78.5644 58.9617 76.4325C59.4321 76.206 59.7999 75.8499 60.0056 75.4217C61.8944 74.4944 61.9519 73.4494 61.9519 73.4494C63.4028 72.1232 63.2789 71.0515 63.2789 71.0515C63.2789 71.0515 65.4906 69.9419 64.9244 68.684C64.3007 67.278 61.3282 69.1096 58.9794 69.2579C53.5873 69.6037 45.8154 68.7942 44.2539 68.76L45.1386 78.382Z" fill="#D3766A"/>
<path d="M53.6336 73.0223C55.2118 72.9397 56.7814 72.7632 58.3312 72.4941C60.0065 72.1102 61.6462 71.6199 63.2368 71.0272C63.2854 71.0082 63.3164 71.0652 63.2722 71.0918C60.3349 72.5003 57.004 73.1891 53.6424 73.0831C53.5628 73.0831 53.554 73.0223 53.6336 73.0223Z" fill="#263238"/>
<path d="M53.4045 75.8459C54.935 75.6483 57.6288 75.2873 61.9284 73.4062C61.9284 73.4062 61.9593 73.4063 61.9284 73.4253C59.4088 74.9197 56.4537 75.7804 53.3956 75.9105C53.316 75.9143 53.3027 75.8611 53.4045 75.8459Z" fill="#263238"/>
<path d="M53.3129 77.3673C55.905 76.9455 57.4753 76.3983 59.9923 75.4141C59.9923 75.4141 60.0232 75.4141 59.9923 75.4369C57.2674 76.8125 56.0953 77.0481 53.2997 77.4471C53.22 77.4623 53.2112 77.3863 53.3129 77.3673Z" fill="#263238"/>
<path d="M40.6751 68.1492L41.458 79.0708C41.458 79.0708 27.5022 78.4704 23.9635 74.8641C20.4248 71.2577 18.5979 59.4849 18.8279 54.6055C19.058 49.7262 21.973 49.2321 24.4501 53.7315C26.9272 58.2309 31.4612 66.747 31.6868 66.9826C31.9123 67.2182 40.6751 68.1492 40.6751 68.1492Z" fill="#C06474"/>
<path d="M39.2873 73.4841C39.2563 72.6937 39.2077 71.9033 39.159 71.1128C39.1325 70.7328 39.1148 70.3528 39.075 69.9728C39.0352 69.5928 39.0308 69.1444 38.9556 68.7415C38.9556 68.7355 38.9528 68.7297 38.9478 68.7254C38.9428 68.7212 38.9361 68.7188 38.929 68.7188C38.922 68.7188 38.9152 68.7212 38.9102 68.7254C38.9053 68.7297 38.9025 68.7355 38.9025 68.7415C38.8582 69.1482 38.9025 69.5662 38.9025 69.9766C38.9025 70.387 38.9025 70.7366 38.9025 71.1166C38.9025 71.9071 38.9246 72.6975 38.96 73.4879C39.0219 75.0726 39.1413 76.6496 39.2829 78.2305C39.2829 78.2386 39.2866 78.2463 39.2932 78.252C39.2999 78.2577 39.3089 78.2609 39.3183 78.2609C39.3277 78.2609 39.3367 78.2577 39.3433 78.252C39.3499 78.2463 39.3537 78.2386 39.3537 78.2305C39.3492 76.6496 39.3448 75.0688 39.2873 73.4841Z" fill="#263238"/>
<path d="M27.907 76.9024C26.5571 76.6054 25.3312 75.9893 24.3683 75.1239C23.343 74.1624 22.5973 73.006 22.192 71.7494C21.1395 69.0086 20.3423 66.2004 19.8078 63.3511C19.507 61.7322 19.2549 60.0982 19.1045 58.4603C19.1045 58.4543 19.1017 58.4485 19.0967 58.4442C19.0917 58.4399 19.085 58.4375 19.0779 58.4375C19.0709 58.4375 19.0641 58.4399 19.0592 58.4442C19.0542 58.4485 19.0514 58.4543 19.0514 58.4603C19.0779 59.6282 19.1575 60.7873 19.2902 61.9374C19.2637 61.8614 19.2372 61.7816 19.215 61.7018C19.0823 61.2192 18.9319 60.7404 18.7727 60.2578C18.7727 60.1894 18.64 60.2236 18.6533 60.2882C18.7401 60.7823 18.8583 61.2719 19.0071 61.755C19.1222 62.1084 19.2283 62.4884 19.3831 62.8419C19.5858 64.3565 19.8811 65.8609 20.2678 67.3488C20.6527 68.8119 21.1083 70.2673 21.6568 71.6962C22.1478 72.9654 22.7272 74.1929 23.8375 75.1619C24.9436 76.091 26.3463 76.7166 27.8672 76.9594C27.876 76.9639 27.8865 76.9652 27.8965 76.9631C27.9064 76.961 27.915 76.9555 27.9203 76.948C27.9256 76.9404 27.9271 76.9314 27.9246 76.9228C27.9222 76.9143 27.9158 76.9069 27.907 76.9024Z" fill="#263238"/>
<path d="M36.605 67.6785C35.4859 67.4581 34.3535 67.2985 33.2211 67.1237L32.4116 67.0097C32.1064 66.9679 31.8454 66.9565 31.695 66.6942C31.4296 66.2382 31.2041 65.7594 30.9608 65.292C30.0761 63.5743 29.1516 61.8719 28.205 60.1542C27.9661 59.5348 27.7361 58.9078 27.5194 58.2846C27.5194 58.2775 27.5161 58.2707 27.5103 58.2657C27.5045 58.2608 27.4966 58.2579 27.4884 58.2579C27.4802 58.2579 27.4723 58.2608 27.4665 58.2657C27.4607 58.2707 27.4574 58.2775 27.4574 58.2846C27.5592 58.6836 27.6875 59.075 27.8246 59.4626C27.3586 58.6342 26.8809 57.8108 26.3914 56.9925C26.3649 56.9545 26.2897 56.9925 26.3074 57.0229C27.192 58.923 28.1696 60.8002 29.1649 62.6661C29.6691 63.6085 30.169 64.5662 30.6821 65.4896C30.9254 65.9342 31.151 66.394 31.4119 66.8311C31.6729 67.2681 32.1728 67.2377 32.6593 67.3023C33.9864 67.4695 35.278 67.6367 36.5962 67.7355C36.6448 67.7545 36.6493 67.7051 36.605 67.6785Z" fill="#263238"/>
</g>
<defs>
<clipPath id="clip0_2609_20392">
<rect width="197" height="174" fill="white" transform="translate(0.734375 0.492188)"/>
</clipPath>
</defs>
</svg>
