<svg width="1375" height="505" viewBox="0 0 1375 505" fill="none" xmlns="http://www.w3.org/2000/svg">
<path d="M483.5 1.23242L-558.536 542.91" stroke="#6D5A5A"/>
<path d="M492.801 1.23242L-396.853 542.91" stroke="#6D5A5A"/>
<path d="M502.104 1.23242L-268.962 542.91" stroke="#6D5A5A"/>
<path d="M511.406 1.23242L-164.206 542.91" stroke="#6D5A5A"/>
<path d="M520.709 1.23242L-75.9653 542.91" stroke="#6D5A5A"/>
<path d="M530.012 1.23242L0.089362 542.91" stroke="#6D5A5A"/>
<path d="M539.312 1.23242L66.9107 542.91" stroke="#6D5A5A"/>
<path d="M548.615 1.23242L126.589 542.91" stroke="#6D5A5A"/>
<path d="M557.918 1.23242L180.64 542.91" stroke="#6D5A5A"/>
<path d="M567.221 1.23242L230.195 542.91" stroke="#6D5A5A"/>
<path d="M576.523 1.23242L276.119 542.91" stroke="#6D5A5A"/>
<path d="M585.824 1.23242L319.081 542.91" stroke="#6D5A5A"/>
<path d="M595.127 1.23242L359.618 542.91" stroke="#6D5A5A"/>
<path d="M604.43 1.23242L398.159 542.91" stroke="#6D5A5A"/>
<path d="M613.732 1.23242L435.057 542.91" stroke="#6D5A5A"/>
<path d="M623.035 1.23242L470.606 542.91" stroke="#6D5A5A"/>
<path d="M632.336 1.23242L505.055 542.91" stroke="#6D5A5A"/>
<path d="M641.639 1.23242L538.625 542.91" stroke="#6D5A5A"/>
<path d="M650.941 1.23242L571.503 542.91" stroke="#6D5A5A"/>
<path d="M660.244 1.23242L603.862 542.91" stroke="#6D5A5A"/>
<path d="M669.545 1.23242L635.858 542.91" stroke="#6D5A5A"/>
<path d="M678.848 1.23242L667.642 542.91" stroke="#6D5A5A"/>
<path d="M688.15 1.23242L699.356 542.91" stroke="#6D5A5A"/>
<path d="M697.453 1.23242L731.14 542.91" stroke="#6D5A5A"/>
<path d="M706.756 1.23242L763.138 542.91" stroke="#6D5A5A"/>
<path d="M716.057 1.23242L795.495 542.91" stroke="#6D5A5A"/>
<path d="M725.359 1.23242L828.373 542.91" stroke="#6D5A5A"/>
<path d="M734.662 1.23242L861.943 542.91" stroke="#6D5A5A"/>
<path d="M743.965 1.23242L896.394 542.91" stroke="#6D5A5A"/>
<path d="M753.268 1.23242L931.943 542.91" stroke="#6D5A5A"/>
<path d="M762.568 1.23242L968.839 542.91" stroke="#6D5A5A"/>
<path d="M771.871 1.23242L1007.38 542.91" stroke="#6D5A5A"/>
<path d="M781.174 1.23242L1047.92 542.91" stroke="#6D5A5A"/>
<path d="M790.477 1.23242L1090.88 542.91" stroke="#6D5A5A"/>
<path d="M799.779 1.23242L1136.8 542.91" stroke="#6D5A5A"/>
<path d="M809.08 1.23242L1186.36 542.91" stroke="#6D5A5A"/>
<path d="M818.383 1.23242L1240.41 542.91" stroke="#6D5A5A"/>
<path d="M827.686 1.23242L1300.09 542.91" stroke="#6D5A5A"/>
<path d="M836.988 1.23242L1366.91 542.91" stroke="#6D5A5A"/>
<path d="M846.289 1.23242L1442.96 542.91" stroke="#6D5A5A"/>
<path d="M855.592 1.23242L1531.2 542.91" stroke="#6D5A5A"/>
<path d="M864.895 1.23242L1635.96 542.91" stroke="#6D5A5A"/>
<path d="M874.197 1.23242L1763.85 542.91" stroke="#6D5A5A"/>
<path d="M883.5 1.23242L1925.54 542.91" stroke="#6D5A5A"/>
<path d="M483.5 1.23242H883.5" stroke="#6D5A5A"/>
<path d="M483.5 1.23242H883.5" stroke="#6D5A5A"/>
<path d="M483.5 1.23242H883.5" stroke="#6D5A5A"/>
<path d="M483.5 1.23242H883.5" stroke="#6D5A5A"/>
<path d="M483.5 1.23242H883.5" stroke="#6D5A5A"/>
<path d="M483.5 1.23242H883.5" stroke="#6D5A5A"/>
<path d="M483.5 1.23242H883.5" stroke="#6D5A5A"/>
<path d="M483.498 1.23242H883.499" stroke="#6D5A5A"/>
<path d="M483.498 1.23242H883.5" stroke="#6D5A5A"/>
<path d="M483.496 1.23438H883.501" stroke="#6D5A5A"/>
<path d="M483.494 1.23438H883.506" stroke="#6D5A5A"/>
<path d="M483.486 1.24023H883.512" stroke="#6D5A5A"/>
<path d="M483.475 1.24609H883.526" stroke="#6D5A5A"/>
<path d="M483.451 1.25586H883.547" stroke="#6D5A5A"/>
<path d="M483.412 1.27734H883.585" stroke="#6D5A5A"/>
<path d="M483.35 1.30859H883.648" stroke="#6D5A5A"/>
<path d="M483.252 1.36133H883.748" stroke="#6D5A5A"/>
<path d="M483.1 1.44141H883.901" stroke="#6D5A5A"/>
<path d="M482.871 1.56055H884.129" stroke="#6D5A5A"/>
<path d="M482.535 1.73438H884.464" stroke="#6D5A5A"/>
<path d="M482.053 1.98438H884.945" stroke="#6D5A5A"/>
<path d="M481.373 2.33789H885.626" stroke="#6D5A5A"/>
<path d="M480.428 2.83008H886.569" stroke="#6D5A5A"/>
<path d="M479.137 3.5H887.862" stroke="#6D5A5A"/>
<path d="M477.393 4.40625H889.605" stroke="#6D5A5A"/>
<path d="M475.07 5.61523H891.93" stroke="#6D5A5A"/>
<path d="M472.008 7.20703H894.991" stroke="#6D5A5A"/>
<path d="M468.016 9.2793H898.983" stroke="#6D5A5A"/>
<path d="M462.863 11.959H904.137" stroke="#6D5A5A"/>
<path d="M456.27 15.3887H910.729" stroke="#6D5A5A"/>
<path d="M447.908 19.7324H919.092" stroke="#6D5A5A"/>
<path d="M437.383 25.207H929.615" stroke="#6D5A5A"/>
<path d="M424.236 32.0371H942.761" stroke="#6D5A5A"/>
<path d="M407.928 40.5156H959.07" stroke="#6D5A5A"/>
<path d="M387.828 50.9648H979.17" stroke="#6D5A5A"/>
<path d="M363.209 63.7637H1003.79" stroke="#6D5A5A"/>
<path d="M333.225 79.3496H1033.77" stroke="#6D5A5A"/>
<path d="M296.908 98.2266H1070.09" stroke="#6D5A5A"/>
<path d="M253.15 120.973H1113.85" stroke="#6D5A5A"/>
<path d="M200.682 148.246H1166.32" stroke="#6D5A5A"/>
<path d="M138.062 180.801H1228.94" stroke="#6D5A5A"/>
<path d="M63.6543 219.48H1303.34" stroke="#6D5A5A"/>
<path d="M-24.3848 265.244H1391.38" stroke="#6D5A5A"/>
<path d="M-128.141 319.18H1495.14" stroke="#6D5A5A"/>
<path d="M-249.953 382.502H1616.95" stroke="#6D5A5A"/>
<path d="M-392.441 456.568H1759.44" stroke="#6D5A5A"/>
</svg>
