<svg width="626" height="853" viewBox="0 0 626 853" fill="none" xmlns="http://www.w3.org/2000/svg">
<path d="M615.404 727.871H599.258V728.347H615.404V727.871Z" fill="#EBEBEB"/>
<path d="M177.72 708.24H97.4727V708.716H177.72V708.24Z" fill="#EBEBEB"/>
<path d="M206.035 708.24H194.273V708.716H206.035V708.24Z" fill="#EBEBEB"/>
<path d="M418.331 716.268H244.273V716.743H418.331V716.268Z" fill="#EBEBEB"/>
<path d="M440.348 607.248H81.6053C78.7915 607.248 76.0931 606.104 74.1035 604.067C72.1138 602.03 70.9961 599.267 70.9961 596.386V80.0482C71.0206 77.1839 72.1491 74.4455 74.1361 72.429C76.1231 70.4125 78.8076 69.2811 81.6053 69.2813H440.348C443.162 69.2813 445.86 70.4256 447.85 72.4627C449.839 74.4997 450.957 77.2625 450.957 80.1433V596.386C450.957 599.267 449.839 602.03 447.85 604.067C445.86 606.104 443.162 607.248 440.348 607.248ZM81.6053 69.6617C78.9162 69.6667 76.3388 70.7626 74.4373 72.7094C72.5359 74.6561 71.4655 77.2951 71.4606 80.0482V596.386C71.4655 599.139 72.5359 601.778 74.4373 603.725C76.3388 605.672 78.9162 606.767 81.6053 606.772H440.348C443.037 606.767 445.614 605.672 447.516 603.725C449.417 601.778 450.488 599.139 450.493 596.386V80.0482C450.488 77.2951 449.417 74.6561 447.516 72.7094C445.614 70.7626 443.037 69.6667 440.348 69.6617H81.6053Z" fill="#EBEBEB"/>
<path d="M842.248 607.248H483.469C480.656 607.243 477.961 606.097 475.972 604.061C473.984 602.025 472.864 599.265 472.859 596.386V80.0482C472.889 77.1855 474.019 74.4499 476.005 72.4345C477.991 70.419 480.672 69.2861 483.469 69.2812H842.248C845.04 69.2912 847.715 70.4269 849.694 72.4423C851.673 74.4578 852.796 77.1905 852.82 80.0482V596.386C852.82 599.26 851.708 602.017 849.726 604.053C847.745 606.089 845.056 607.238 842.248 607.248ZM483.469 69.6617C480.78 69.6667 478.202 70.7626 476.301 72.7094C474.399 74.6561 473.329 77.2951 473.324 80.0482V596.386C473.329 599.139 474.399 601.778 476.301 603.725C478.202 605.672 480.78 606.767 483.469 606.772H842.248C844.937 606.767 847.515 605.672 849.416 603.725C851.318 601.778 852.388 599.139 852.393 596.386V80.0482C852.388 77.2951 851.318 74.6561 849.416 72.7094C847.515 70.7626 844.937 69.6667 842.248 69.6617H483.469Z" fill="#EBEBEB"/>
<path d="M929 692.09H0V692.565H929V692.09Z" fill="#EBEBEB"/>
<path d="M392.166 539.811V495.031L312.736 539.811V495.031L223.961 545.08V692.66H471.595V495.031L392.166 539.811ZM272.956 630.969H254.376V611.946H272.956V630.969ZM272.956 602.434H254.376V583.411H272.956V602.434ZM299.674 630.969H281.094V611.946H299.674V630.969ZM299.674 602.434H281.094V583.411H299.674V602.434ZM343.746 630.969H325.148V611.946H343.728L343.746 630.969ZM343.746 602.434H325.148V583.411H343.728L343.746 602.434ZM370.464 630.969H351.884V611.946H370.464V630.969ZM370.464 602.434H351.884V583.411H370.464V602.434ZM414.536 630.969H395.956V611.946H414.536V630.969ZM414.536 602.434H395.956V583.411H414.536V602.434ZM441.254 630.969H422.674V611.946H441.254V630.969ZM441.254 602.434H422.674V583.411H441.254V602.434Z" fill="#EBEBEB"/>
<path d="M200.865 692.661H146.203L153.654 369.5H193.415L200.865 692.661Z" fill="#F5F5F5"/>
<path d="M152.878 403.495L152.023 439.981L194.609 420.92L193.791 385.176L152.878 403.495Z" fill="#E0E0E0"/>
<path d="M149.383 554.783L148.547 591.269L198.025 569.107L197.208 533.363L149.383 554.783Z" fill="#E0E0E0"/>
<path d="M198.918 607.457L147.637 630.418L146.801 666.903L199.735 643.182L198.918 607.457Z" fill="#E0E0E0"/>
<path d="M151.129 479.148L150.293 515.615L196.316 495.013L195.498 459.27L151.129 479.148Z" fill="#E0E0E0"/>
<path d="M631.553 233.562C631.55 231.33 631.357 229.102 630.977 226.904L640.843 217.792C640.124 215.568 639.248 213.4 638.223 211.305L624.938 212.009C622.451 208.34 619.343 205.158 615.76 202.612L616.447 189.01C614.403 187.957 612.285 187.061 610.111 186.328L601.211 196.429C596.91 195.641 592.506 195.641 588.205 196.429L579.306 186.328C577.132 187.061 575.014 187.957 572.97 189.01L573.639 202.612C570.065 205.164 566.964 208.345 564.479 212.009L551.194 211.305C550.169 213.4 549.293 215.568 548.574 217.792L558.44 226.904C557.67 231.308 557.67 235.816 558.44 240.22L548.574 249.332C549.29 251.557 550.165 253.726 551.194 255.819L564.479 255.134C566.969 258.787 570.07 261.962 573.639 264.512L572.97 278.113C575.014 279.167 577.132 280.063 579.306 280.796L588.205 270.695C592.506 271.483 596.91 271.483 601.211 270.695L610.111 280.796C612.284 280.06 614.401 279.163 616.447 278.113L615.76 264.512C619.338 261.968 622.446 258.792 624.938 255.134L638.223 255.819C639.251 253.726 640.127 251.557 640.843 249.332L630.977 240.22C631.358 238.022 631.55 235.794 631.553 233.562ZM594.708 254.944C590.579 254.94 586.543 253.683 583.111 251.331C579.679 248.979 577.005 245.638 575.427 241.731C573.85 237.824 573.439 233.525 574.247 229.379C575.054 225.233 577.045 221.424 579.966 218.436C582.888 215.448 586.609 213.413 590.659 212.59C594.71 211.766 598.908 212.191 602.723 213.81C606.538 215.428 609.799 218.169 612.093 221.685C614.386 225.201 615.611 229.334 615.611 233.562C615.606 239.234 613.402 244.673 609.482 248.682C605.563 252.692 600.249 254.944 594.708 254.944Z" fill="#F0F0F0"/>
<path d="M594.708 456.359L587.09 692.661H607.1L599.483 456.359H594.708Z" fill="#E0E0E0"/>
<path d="M594.951 508.043C594.951 508.043 485.162 619.384 510.245 652.883C516.952 661.824 552.607 640.518 552.607 640.518C552.607 640.518 559.148 660.511 565.075 661.862C576.055 664.354 602.365 636.029 602.365 636.029C602.365 636.029 624.122 663.365 634.155 661.862C641.754 660.721 651.695 636.029 651.695 636.029C651.695 636.029 683.949 657.772 690.081 649.516C715.424 615.237 594.951 508.043 594.951 508.043Z" fill="#EBEBEB"/>
<path d="M595.617 448.293C595.617 448.293 500.283 544.986 522.096 574.072C527.911 581.833 558.884 563.343 558.884 563.343C558.884 563.343 564.569 580.692 569.716 581.872C579.248 584.021 602.082 559.444 602.082 559.444C602.082 559.444 620.978 583.184 629.692 581.872C636.307 580.863 644.928 559.444 644.928 559.444C644.928 559.444 672.947 578.333 678.26 571.143C700.241 541.429 595.617 448.293 595.617 448.293Z" fill="#EBEBEB"/>
<path d="M596.422 405.416C596.422 405.416 518.721 484.209 536.483 507.911C541.221 514.227 566.453 499.161 566.453 499.161C566.453 499.161 571.098 513.314 575.278 514.265C583.063 516.034 601.662 495.984 601.662 495.984C601.662 495.984 617.065 515.33 624.181 514.265C629.551 513.447 636.592 495.984 636.592 495.984C636.592 495.984 659.409 511.373 663.756 505.495C681.705 481.317 596.422 405.416 596.422 405.416Z" fill="#F0F0F0"/>
<path d="M609.611 378.993C607.981 377.388 606.054 376.133 603.943 375.304C601.832 374.474 599.579 374.085 597.319 374.162C595.059 374.238 592.836 374.777 590.783 375.747C588.73 376.718 586.887 378.1 585.364 379.811C567.713 399.614 537.484 437.146 547.981 451.147C551.865 456.34 572.544 443.994 572.544 443.994C572.544 443.994 576.26 455.579 579.772 456.359C586.145 457.805 601.38 441.388 601.38 441.388C601.38 441.388 614.015 457.234 619.83 456.359C624.234 455.693 629.993 441.388 629.993 441.388C629.993 441.388 648.703 454 652.289 449.206C662.936 434.787 628.99 398.035 609.611 378.993Z" fill="#F5F5F5"/>
<path d="M464.502 770.673C666.15 770.673 829.618 761.032 829.618 749.139C829.618 737.247 666.15 727.605 464.502 727.605C262.854 727.605 99.3867 737.247 99.3867 749.139C99.3867 761.032 262.854 770.673 464.502 770.673Z" fill="#F5F5F5"/>
<path d="M263.633 327.65C327.305 327.65 378.922 274.803 378.922 209.613C378.922 144.423 327.305 91.5762 263.633 91.5762C199.96 91.5762 148.344 144.423 148.344 209.613C148.344 274.803 199.96 327.65 263.633 327.65Z" fill="#407BFF"/>
<path opacity="0.2" d="M263.633 327.65C327.305 327.65 378.922 274.803 378.922 209.613C378.922 144.423 327.305 91.5762 263.633 91.5762C199.96 91.5762 148.344 144.423 148.344 209.613C148.344 274.803 199.96 327.65 263.633 327.65Z" fill="white"/>
<path d="M296.518 247.278C296.072 247.325 295.623 247.264 295.203 247.103C294.784 246.941 294.408 246.682 294.103 246.346L290.703 242.542C290.201 241.972 289.499 241.63 288.752 241.59L284.255 241.343C283.929 241.324 283.608 241.247 283.308 241.115L277.399 238.585C276.774 238.317 276.077 238.283 275.43 238.49L270.246 240.164C269.965 240.262 269.67 240.313 269.373 240.316H263.594C262.821 240.316 262.079 240.631 261.532 241.191L256.608 246.346C256.193 246.784 255.653 247.077 255.066 247.183L252.261 247.678C251.824 247.757 251.374 247.732 250.949 247.603C250.523 247.474 250.133 247.246 249.808 246.936L248.247 245.414L246.389 240.849C246.315 240.659 246.176 240.503 245.999 240.409C245.822 240.315 245.617 240.288 245.423 240.335L241.707 241.153C241.554 241.19 241.394 241.182 241.245 241.13C241.096 241.077 240.965 240.983 240.866 240.858C240.767 240.733 240.704 240.582 240.686 240.422C240.667 240.262 240.692 240.1 240.759 239.955L241.967 235.998V231.489L240.667 231.033L233.55 238.014C233.349 238.204 233.1 238.334 232.832 238.39C232.564 238.446 232.285 238.426 232.027 238.332C231.769 238.238 231.541 238.074 231.368 237.857C231.194 237.64 231.081 237.379 231.042 237.101L229.667 227.456C229.574 226.843 229.715 226.216 230.061 225.706C230.406 225.196 230.931 224.842 231.525 224.717L234.795 224.108C235.144 224.043 235.474 223.897 235.76 223.683C236.046 223.469 236.282 223.192 236.449 222.872C236.738 222.33 237.217 221.92 237.789 221.726C238.362 221.531 238.985 221.567 239.533 221.826L244.921 224.356C245.17 224.465 245.433 224.536 245.702 224.565L247.56 224.736C247.934 224.774 248.312 224.72 248.662 224.578C249.012 224.436 249.323 224.21 249.571 223.92C249.818 223.629 249.994 223.282 250.084 222.908C250.173 222.534 250.174 222.143 250.087 221.769L249.362 218.706C249.234 218.118 249.32 217.503 249.604 216.975L253.821 209.137L253.933 208.871L256.608 201.966C256.703 201.704 256.849 201.465 257.036 201.262L261.829 195.707L263.984 190.267L276.024 184.313L273.089 182.068L272.699 180.166C272.515 179.175 272.637 178.151 273.046 177.235C273.456 176.318 274.133 175.554 274.984 175.048L278.57 172.671C279.105 172.311 279.565 171.844 279.92 171.299C280.276 170.754 280.521 170.141 280.641 169.496C280.761 168.852 280.752 168.19 280.617 167.549C280.481 166.908 280.221 166.301 279.852 165.765L275.857 159.374C275.24 158.37 274.279 157.638 273.163 157.319L269.689 156.292C269.396 156.198 269.111 156.083 268.834 155.95L262.591 152.678C261.508 152.112 260.254 151.993 259.089 152.348C257.924 152.702 256.936 153.501 256.33 154.58L253.784 159.012L253.617 159.336L251.257 164.243C250.715 165.384 249.758 166.262 248.591 166.689C247.424 167.116 246.14 167.057 245.014 166.526L244.476 166.279C244.267 166.184 244.068 166.069 243.881 165.937L239.496 163.045C238.94 162.68 238.466 162.201 238.102 161.637C237.738 161.073 237.493 160.438 237.382 159.772C237.272 159.106 237.299 158.423 237.462 157.768C237.624 157.113 237.918 156.5 238.326 155.969L239.961 153.819C240.128 153.587 240.321 153.377 240.537 153.191L245.758 148.378L248.507 145.639C248.805 145.338 249.142 145.082 249.511 144.878L251.239 143.908C252.156 143.38 252.877 142.557 253.29 141.566C253.704 140.576 253.786 139.473 253.524 138.429L253.097 136.717C252.84 135.712 252.276 134.817 251.487 134.163C250.698 133.51 249.726 133.131 248.712 133.084H247.262C246.827 133.064 246.397 132.987 245.98 132.856L243.398 131.867C242.623 131.605 241.796 131.551 240.996 131.711C240.196 131.871 239.449 132.239 238.827 132.78L235.761 135.443C234.871 136.217 233.734 136.63 232.566 136.603L222.96 136.337C222.635 136.338 222.31 136.299 221.994 136.223L212.369 133.959C211.757 133.825 211.124 133.825 210.511 133.959L196.093 136.185C195.378 136.3 194.646 136.242 193.956 136.014L187.658 133.826C186.838 133.567 185.967 133.534 185.131 133.731L182.697 134.321C181.954 134.501 181.265 134.861 180.686 135.371C180.107 135.881 179.656 136.525 179.371 137.25L170.007 161.257C169.819 161.729 169.712 162.231 169.691 162.741L168.688 177.579V185.644C168.65 185.903 168.703 186.167 168.838 186.39C168.973 186.612 169.181 186.778 169.424 186.858C169.667 186.938 169.931 186.927 170.167 186.827C170.403 186.726 170.596 186.543 170.713 186.31L175.284 177.445C175.488 177.05 175.744 176.685 176.045 176.361L176.51 175.809C177.045 175.237 177.708 174.807 178.442 174.557C179.176 174.307 179.959 174.243 180.722 174.373C181.485 174.502 182.206 174.82 182.822 175.299C183.439 175.778 183.931 176.404 184.258 177.122L190.278 190.438L193.771 193.215L191.615 210.488C191.562 210.894 191.614 211.307 191.764 211.687L197.487 226.334C197.633 226.717 197.876 227.052 198.193 227.304L212.295 239.041L218.482 246.917L229.63 247.887L234.349 248.629L239.923 249.143L244.736 251.52L249.474 253.556L250.403 253.347C250.809 253.258 251.229 253.261 251.635 253.354C252.04 253.448 252.421 253.63 252.751 253.888C253.081 254.147 253.353 254.475 253.547 254.851C253.741 255.227 253.854 255.642 253.877 256.067V257.437C253.895 257.764 253.857 258.092 253.766 258.407L252.075 264.285C251.953 264.696 251.924 265.13 251.988 265.555C252.052 265.98 252.209 266.384 252.446 266.739L256.032 272.236L256.33 272.617L262.535 279.332C262.902 279.731 263.373 280.015 263.892 280.15L267.44 281.12C267.98 281.26 268.468 281.561 268.841 281.984C269.215 282.407 269.458 282.934 269.54 283.498L270.283 288.387L271.082 295.121V295.425L272.94 303.624C272.932 303.719 272.932 303.814 272.94 303.909L273.813 306.497C274.02 307.112 274.426 307.636 274.965 307.98L276.062 308.722C276.614 309.082 277.268 309.243 277.92 309.179L281.635 308.836C282.077 308.796 282.504 308.651 282.882 308.414C283.259 308.176 283.578 307.851 283.812 307.466C284.046 307.08 284.19 306.644 284.231 306.192C284.273 305.74 284.211 305.284 284.051 304.861C283.952 304.611 283.89 304.348 283.865 304.081L283.754 302.73C283.692 302.179 283.796 301.622 284.051 301.132L285.667 297.898C285.923 297.39 286.317 296.967 286.801 296.681L288.659 295.596C289.026 295.385 289.343 295.092 289.588 294.74L291.706 291.849L291.892 291.602L294.511 288.52C294.602 288.42 294.683 288.312 294.753 288.197L297.466 283.935C297.652 283.652 297.784 283.336 297.856 283.003L298.785 278.837C298.923 278.229 299.249 277.682 299.714 277.277L305.288 272.293C305.709 271.912 306.018 271.418 306.18 270.867L309.636 258.159C309.692 257.978 309.761 257.8 309.84 257.627V257.475C309.948 257.264 310.029 257.04 310.081 256.809L310.992 252.7C311.145 252.029 311.061 251.325 310.755 250.712C310.449 250.099 309.94 249.617 309.32 249.352H309.152C305.173 247.603 300.832 246.89 296.518 247.278Z" fill="#407BFF"/>
<path d="M327.418 111.283L323.702 112.272C323.385 112.627 322.991 112.9 322.553 113.072C322.114 113.244 321.643 113.309 321.175 113.262L309.693 111.968C309.241 111.913 308.784 111.965 308.355 112.12L299.994 115.221C299.712 115.321 299.448 115.469 299.214 115.658L295.962 118.188C295.572 118.492 295.261 118.89 295.058 119.347C294.854 119.803 294.764 120.304 294.795 120.805C294.826 121.306 294.978 121.791 295.237 122.218C295.496 122.644 295.853 122.998 296.278 123.249L298.136 124.39L298.471 124.618L308.188 132.227C308.55 132.512 308.844 132.878 309.047 133.296C309.25 133.715 309.356 134.176 309.358 134.643V143.66C309.359 144.087 309.448 144.509 309.617 144.899C309.787 145.288 310.034 145.638 310.343 145.924L320.859 155.721C321.216 156.05 321.645 156.286 322.11 156.409C322.575 156.531 323.062 156.536 323.529 156.424C323.997 156.312 324.431 156.086 324.794 155.764C325.158 155.443 325.44 155.036 325.616 154.579L325.858 153.971C326.077 153.383 326.474 152.883 326.991 152.544L337.897 145.163C337.94 145.152 337.985 145.152 338.027 145.163L348.376 140.559C348.529 140.498 348.658 140.386 348.742 140.241C348.826 140.096 348.861 139.927 348.841 139.76C348.819 139.581 348.857 139.398 348.949 139.244C349.041 139.089 349.182 138.971 349.348 138.909C349.515 138.847 349.697 138.845 349.865 138.903C350.032 138.961 350.176 139.075 350.272 139.228C350.272 139.228 355.716 144.935 354.619 146.723C354.619 146.837 348.061 149.976 348.061 149.976C347.916 150.054 347.798 150.176 347.724 150.326C347.649 150.475 347.621 150.644 347.644 150.81C347.666 150.976 347.737 151.131 347.849 151.254C347.96 151.377 348.105 151.462 348.265 151.498C348.265 151.498 356.682 151.745 358.818 153.4C361.55 155.53 364.671 166.126 364.671 166.126C364.744 166.286 364.764 166.465 364.727 166.637C364.69 166.809 364.598 166.964 364.467 167.077L364.002 167.496L363.854 167.591L363.501 167.781C363.404 167.834 363.318 167.907 363.25 167.996C363.182 168.084 363.132 168.186 363.105 168.295C363.077 168.404 363.071 168.517 363.088 168.629C363.105 168.74 363.144 168.847 363.203 168.942L366.919 174.648C366.961 174.712 366.993 174.783 367.012 174.858L369.298 182.315L365.08 187.261C365.001 187.353 364.943 187.463 364.911 187.581C364.878 187.7 364.873 187.824 364.894 187.945L366.956 198.503C366.978 198.605 366.977 198.711 366.955 198.812C366.932 198.914 366.888 199.01 366.826 199.093C366.826 199.093 359.394 202.174 360.899 209.993C361.698 214.197 373.459 216.765 378.55 217.602C378.736 214.939 378.829 212.257 378.829 209.536C378.836 190.089 374.146 170.942 365.176 153.799C356.206 136.657 343.235 122.051 327.418 111.283Z" fill="#407BFF"/>
<path opacity="0.5" d="M296.518 247.278C296.072 247.325 295.623 247.264 295.203 247.103C294.784 246.941 294.408 246.682 294.103 246.346L290.703 242.542C290.201 241.972 289.499 241.63 288.752 241.59L284.255 241.343C283.929 241.324 283.608 241.247 283.308 241.115L277.399 238.585C276.774 238.317 276.077 238.283 275.43 238.49L270.246 240.164C269.965 240.262 269.67 240.313 269.373 240.316H263.594C262.821 240.316 262.079 240.631 261.532 241.191L256.608 246.346C256.193 246.784 255.653 247.077 255.066 247.183L252.261 247.678C251.824 247.757 251.374 247.732 250.949 247.603C250.523 247.474 250.133 247.246 249.808 246.936L248.247 245.414L246.389 240.849C246.315 240.659 246.176 240.503 245.999 240.409C245.822 240.315 245.617 240.288 245.423 240.335L241.707 241.153C241.554 241.19 241.394 241.182 241.245 241.13C241.096 241.077 240.965 240.983 240.866 240.858C240.767 240.733 240.704 240.582 240.686 240.422C240.667 240.262 240.692 240.1 240.759 239.955L241.967 235.998V231.489L240.667 231.033L233.55 238.014C233.349 238.204 233.1 238.334 232.832 238.39C232.564 238.446 232.285 238.426 232.027 238.332C231.769 238.238 231.541 238.074 231.368 237.857C231.194 237.64 231.081 237.379 231.042 237.101L229.667 227.456C229.574 226.843 229.715 226.216 230.061 225.706C230.406 225.196 230.931 224.842 231.525 224.717L234.795 224.108C235.144 224.043 235.474 223.897 235.76 223.683C236.046 223.469 236.282 223.192 236.449 222.872C236.738 222.33 237.217 221.92 237.789 221.726C238.362 221.531 238.985 221.567 239.533 221.826L244.921 224.356C245.17 224.465 245.433 224.536 245.702 224.565L247.56 224.736C247.934 224.774 248.312 224.72 248.662 224.578C249.012 224.436 249.323 224.21 249.571 223.92C249.818 223.629 249.994 223.282 250.084 222.908C250.173 222.534 250.174 222.143 250.087 221.769L249.362 218.706C249.234 218.118 249.32 217.503 249.604 216.975L253.821 209.137L253.933 208.871L256.608 201.966C256.703 201.704 256.849 201.465 257.036 201.262L261.829 195.707L263.984 190.267L276.024 184.313L273.089 182.068L272.699 180.166C272.515 179.175 272.637 178.151 273.046 177.235C273.456 176.318 274.133 175.554 274.984 175.048L278.57 172.671C279.105 172.311 279.565 171.844 279.92 171.299C280.276 170.754 280.521 170.141 280.641 169.496C280.761 168.852 280.752 168.19 280.617 167.549C280.481 166.908 280.221 166.301 279.852 165.765L275.857 159.374C275.24 158.37 274.279 157.638 273.163 157.319L269.689 156.292C269.396 156.198 269.111 156.083 268.834 155.95L262.591 152.678C261.508 152.112 260.254 151.993 259.089 152.348C257.924 152.702 256.936 153.501 256.33 154.58L253.784 159.012L253.617 159.336L251.257 164.243C250.715 165.384 249.758 166.262 248.591 166.689C247.424 167.116 246.14 167.057 245.014 166.526L244.476 166.279C244.267 166.184 244.068 166.069 243.881 165.937L239.496 163.045C238.94 162.68 238.466 162.201 238.102 161.637C237.738 161.073 237.493 160.438 237.382 159.772C237.272 159.106 237.299 158.423 237.462 157.768C237.624 157.113 237.918 156.5 238.326 155.969L239.961 153.819C240.128 153.587 240.321 153.377 240.537 153.191L245.758 148.378L248.507 145.639C248.805 145.338 249.142 145.082 249.511 144.878L251.239 143.908C252.156 143.38 252.877 142.557 253.29 141.566C253.704 140.576 253.786 139.473 253.524 138.429L253.097 136.717C252.84 135.712 252.276 134.817 251.487 134.163C250.698 133.51 249.726 133.131 248.712 133.084H247.262C246.827 133.064 246.397 132.987 245.98 132.856L243.398 131.867C242.623 131.605 241.796 131.551 240.996 131.711C240.196 131.871 239.449 132.239 238.827 132.78L235.761 135.443C234.871 136.217 233.734 136.63 232.566 136.603L222.96 136.337C222.635 136.338 222.31 136.299 221.994 136.223L212.369 133.959C211.757 133.825 211.124 133.825 210.511 133.959L196.093 136.185C195.378 136.3 194.646 136.242 193.956 136.014L187.658 133.826C186.838 133.567 185.967 133.534 185.131 133.731L182.697 134.321C181.954 134.501 181.265 134.861 180.686 135.371C180.107 135.881 179.656 136.525 179.371 137.25L170.007 161.257C169.819 161.729 169.712 162.231 169.691 162.741L168.688 177.579V185.644C168.65 185.903 168.703 186.167 168.838 186.39C168.973 186.612 169.181 186.778 169.424 186.858C169.667 186.938 169.931 186.927 170.167 186.827C170.403 186.726 170.596 186.543 170.713 186.31L175.284 177.445C175.488 177.05 175.744 176.685 176.045 176.361L176.51 175.809C177.045 175.237 177.708 174.807 178.442 174.557C179.176 174.307 179.959 174.243 180.722 174.373C181.485 174.502 182.206 174.82 182.822 175.299C183.439 175.778 183.931 176.404 184.258 177.122L190.278 190.438L193.771 193.215L191.615 210.488C191.562 210.894 191.614 211.307 191.764 211.687L197.487 226.334C197.633 226.717 197.876 227.052 198.193 227.304L212.295 239.041L218.482 246.917L229.63 247.887L234.349 248.629L239.923 249.143L244.736 251.52L249.474 253.556L250.403 253.347C250.809 253.258 251.229 253.261 251.635 253.354C252.04 253.448 252.421 253.63 252.751 253.888C253.081 254.147 253.353 254.475 253.547 254.851C253.741 255.227 253.854 255.642 253.877 256.067V257.437C253.895 257.764 253.857 258.092 253.766 258.407L252.075 264.285C251.953 264.696 251.924 265.13 251.988 265.555C252.052 265.98 252.209 266.384 252.446 266.739L256.032 272.236L256.33 272.617L262.535 279.332C262.902 279.731 263.373 280.015 263.892 280.15L267.44 281.12C267.98 281.26 268.468 281.561 268.841 281.984C269.215 282.407 269.458 282.934 269.54 283.498L270.283 288.387L271.082 295.121V295.425L272.94 303.624C272.932 303.719 272.932 303.814 272.94 303.909L273.813 306.497C274.02 307.112 274.426 307.636 274.965 307.98L276.062 308.722C276.614 309.082 277.268 309.243 277.92 309.179L281.635 308.836C282.077 308.796 282.504 308.651 282.882 308.414C283.259 308.176 283.578 307.851 283.812 307.466C284.046 307.08 284.19 306.644 284.231 306.192C284.273 305.74 284.211 305.284 284.051 304.861C283.952 304.611 283.89 304.348 283.865 304.081L283.754 302.73C283.692 302.179 283.796 301.622 284.051 301.132L285.667 297.898C285.923 297.39 286.317 296.967 286.801 296.681L288.659 295.596C289.026 295.385 289.343 295.092 289.588 294.74L291.706 291.849L291.892 291.602L294.511 288.52C294.602 288.42 294.683 288.312 294.753 288.197L297.466 283.935C297.652 283.652 297.784 283.336 297.856 283.003L298.785 278.837C298.923 278.229 299.249 277.682 299.714 277.277L305.288 272.293C305.709 271.912 306.018 271.418 306.18 270.867L309.636 258.159C309.692 257.978 309.761 257.8 309.84 257.627V257.475C309.948 257.264 310.029 257.04 310.081 256.809L310.992 252.7C311.145 252.029 311.061 251.325 310.755 250.712C310.449 250.099 309.94 249.617 309.32 249.352H309.152C305.173 247.603 300.832 246.89 296.518 247.278Z" fill="white"/>
<path opacity="0.5" d="M327.418 111.283L323.702 112.272C323.385 112.627 322.991 112.9 322.553 113.072C322.114 113.244 321.643 113.309 321.175 113.262L309.693 111.968C309.241 111.913 308.784 111.965 308.355 112.12L299.994 115.221C299.712 115.321 299.448 115.469 299.214 115.658L295.962 118.188C295.572 118.492 295.261 118.89 295.058 119.347C294.854 119.803 294.764 120.304 294.795 120.805C294.826 121.306 294.978 121.791 295.237 122.218C295.496 122.644 295.853 122.998 296.278 123.249L298.136 124.39L298.471 124.618L308.188 132.227C308.55 132.512 308.844 132.878 309.047 133.296C309.25 133.715 309.356 134.176 309.358 134.643V143.66C309.359 144.087 309.448 144.509 309.617 144.899C309.787 145.288 310.034 145.638 310.343 145.924L320.859 155.721C321.216 156.05 321.645 156.286 322.11 156.409C322.575 156.531 323.062 156.536 323.529 156.424C323.997 156.312 324.431 156.086 324.794 155.764C325.158 155.443 325.44 155.036 325.616 154.579L325.858 153.971C326.077 153.383 326.474 152.883 326.991 152.544L337.897 145.163C337.94 145.152 337.985 145.152 338.027 145.163L348.376 140.559C348.529 140.498 348.658 140.386 348.742 140.241C348.826 140.096 348.861 139.927 348.841 139.76C348.819 139.581 348.857 139.398 348.949 139.244C349.041 139.089 349.182 138.971 349.348 138.909C349.515 138.847 349.697 138.845 349.865 138.903C350.032 138.961 350.176 139.075 350.272 139.228C350.272 139.228 355.716 144.935 354.619 146.723C354.619 146.837 348.061 149.976 348.061 149.976C347.916 150.054 347.798 150.176 347.724 150.326C347.649 150.475 347.621 150.644 347.644 150.81C347.666 150.976 347.737 151.131 347.849 151.254C347.96 151.377 348.105 151.462 348.265 151.498C348.265 151.498 356.682 151.745 358.818 153.4C361.55 155.53 364.671 166.126 364.671 166.126C364.744 166.286 364.764 166.465 364.727 166.637C364.69 166.809 364.598 166.964 364.467 167.077L364.002 167.496L363.854 167.591L363.501 167.781C363.404 167.834 363.318 167.907 363.25 167.996C363.182 168.084 363.132 168.186 363.105 168.295C363.077 168.404 363.071 168.517 363.088 168.629C363.105 168.74 363.144 168.847 363.203 168.942L366.919 174.648C366.961 174.712 366.993 174.783 367.012 174.858L369.298 182.315L365.08 187.261C365.001 187.353 364.943 187.463 364.911 187.581C364.878 187.7 364.873 187.824 364.894 187.945L366.956 198.503C366.978 198.605 366.977 198.711 366.955 198.812C366.932 198.914 366.888 199.01 366.826 199.093C366.826 199.093 359.394 202.174 360.899 209.993C361.698 214.197 373.459 216.765 378.55 217.602C378.736 214.939 378.829 212.257 378.829 209.536C378.836 190.089 374.146 170.942 365.176 153.799C356.206 136.657 343.235 122.051 327.418 111.283Z" fill="white"/>
<path d="M328.232 448.977H320.372L312.624 743.641C312.599 744.381 312.72 745.119 312.98 745.81C313.239 746.502 313.632 747.133 314.135 747.665C314.638 748.198 315.241 748.621 315.907 748.91C316.573 749.199 317.289 749.348 318.013 749.348H330.573C331.297 749.348 332.014 749.199 332.681 748.911C333.348 748.622 333.952 748.199 334.456 747.666C334.96 747.134 335.355 746.503 335.617 745.812C335.878 745.12 336.002 744.382 335.979 743.641L328.232 448.977Z" fill="#407BFF"/>
<path opacity="0.5" d="M328.232 448.977H320.372L312.624 743.641C312.599 744.381 312.72 745.119 312.98 745.81C313.239 746.502 313.632 747.133 314.135 747.665C314.638 748.198 315.241 748.621 315.907 748.91C316.573 749.199 317.289 749.348 318.013 749.348H330.573C331.297 749.348 332.014 749.199 332.681 748.911C333.348 748.622 333.952 748.199 334.456 747.666C334.96 747.134 335.355 746.503 335.617 745.812C335.878 745.12 336.002 744.382 335.979 743.641L328.232 448.977Z" fill="white"/>
<path d="M350.119 440.512L339.119 439.998L338.042 436.669C337.677 435.561 337.005 434.586 336.108 433.863C335.21 433.14 334.126 432.7 332.988 432.599L326.132 431.99C324.938 431.887 323.741 432.162 322.704 432.778C321.668 433.394 320.841 434.32 320.335 435.433L318.681 439.028C316.814 439.051 315.031 439.832 313.727 441.201C312.422 442.569 311.701 444.411 311.723 446.324C311.745 448.236 312.509 450.06 313.845 451.397C315.181 452.733 316.981 453.47 318.849 453.448L350.119 451.945C351.597 451.945 353.015 451.344 354.06 450.273C355.105 449.203 355.693 447.752 355.693 446.238C355.693 444.724 355.105 443.273 354.06 442.203C353.015 441.132 351.597 440.531 350.119 440.531V440.512Z" fill="#407BFF"/>
<path opacity="0.2" d="M350.119 440.512L339.119 439.998L338.042 436.669C337.677 435.561 337.005 434.586 336.108 433.863C335.21 433.14 334.126 432.7 332.988 432.599L326.132 431.99C324.938 431.887 323.741 432.162 322.704 432.778C321.668 433.394 320.841 434.32 320.335 435.433L318.681 439.028C316.814 439.051 315.031 439.832 313.727 441.201C312.422 442.569 311.701 444.411 311.723 446.324C311.745 448.236 312.509 450.06 313.845 451.397C315.181 452.733 316.981 453.47 318.849 453.448L350.119 451.945C351.597 451.945 353.015 451.344 354.06 450.273C355.105 449.203 355.693 447.752 355.693 446.238C355.693 444.724 355.105 443.273 354.06 442.203C353.015 441.132 351.597 440.531 350.119 440.531V440.512Z" fill="white"/>
<path opacity="0.2" d="M350.121 451.945C351.066 451.896 351.983 451.601 352.786 451.088C353.588 450.576 354.251 449.862 354.71 449.015L325.391 449.415C325.878 448.423 326.132 447.329 326.134 446.219C326.189 444.72 325.805 443.238 325.031 441.964C324.257 440.69 323.127 439.682 321.789 439.071C320.45 438.46 318.964 438.273 317.521 438.535C316.078 438.797 314.744 439.494 313.692 440.539C312.64 441.583 311.917 442.926 311.617 444.395C311.316 445.864 311.453 447.391 312.007 448.779C312.562 450.168 313.511 451.355 314.73 452.187C315.95 453.019 317.385 453.458 318.85 453.448L350.121 451.945Z" fill="black"/>
<path d="M317.031 444.165C316.1 444.165 315.207 443.786 314.548 443.112C313.89 442.438 313.52 441.523 313.52 440.57V359.437C313.517 358.209 313.751 356.993 314.209 355.857C314.666 354.722 315.338 353.69 316.185 352.821C317.032 351.951 318.039 351.262 319.147 350.791C320.255 350.32 321.443 350.078 322.642 350.078C323.951 350.078 325.244 350.367 326.435 350.923C327.625 351.479 328.685 352.29 329.543 353.302C330.401 354.314 331.036 355.502 331.407 356.787C331.778 358.072 331.874 359.423 331.691 360.75L320.543 441.084C320.421 441.946 319.998 442.733 319.352 443.3C318.707 443.867 317.882 444.174 317.031 444.165Z" fill="#407BFF"/>
<path opacity="0.3" d="M317.031 444.165C316.1 444.165 315.207 443.786 314.548 443.112C313.89 442.438 313.52 441.523 313.52 440.57V359.437C313.517 358.209 313.751 356.993 314.209 355.857C314.666 354.722 315.338 353.69 316.185 352.821C317.032 351.951 318.039 351.262 319.147 350.791C320.255 350.32 321.443 350.078 322.642 350.078C323.951 350.078 325.244 350.367 326.435 350.923C327.625 351.479 328.685 352.29 329.543 353.302C330.401 354.314 331.036 355.502 331.407 356.787C331.778 358.072 331.874 359.423 331.691 360.75L320.543 441.084C320.421 441.946 319.998 442.733 319.352 443.3C318.707 443.867 317.882 444.174 317.031 444.165Z" fill="white"/>
<path opacity="0.6" d="M323.516 350.134C323.225 350.114 322.933 350.114 322.642 350.134C321.443 350.134 320.255 350.376 319.147 350.847C318.039 351.317 317.032 352.007 316.185 352.876C315.338 353.746 314.666 354.777 314.209 355.913C313.751 357.048 313.517 358.265 313.52 359.493V440.626C313.518 441.37 313.746 442.095 314.17 442.699C314.795 442.492 315.352 442.11 315.775 441.595C316.199 441.081 316.473 440.455 316.567 439.789L327.715 359.455C327.985 357.651 327.731 355.805 326.985 354.148C326.238 352.49 325.031 351.094 323.516 350.134Z" fill="white"/>
<path d="M319.239 447.93C318.998 448.332 318.836 448.779 318.763 449.245C318.69 449.712 318.708 450.188 318.815 450.647C318.921 451.106 319.116 451.54 319.386 451.922C319.657 452.304 319.998 452.629 320.391 452.876L387.892 495.392C389.955 496.688 392.436 497.093 394.791 496.519C397.145 495.945 399.181 494.438 400.452 492.329C401.138 491.187 401.577 489.908 401.738 488.578C401.899 487.247 401.779 485.897 401.386 484.618C400.993 483.339 400.337 482.162 399.461 481.165C398.585 480.169 397.51 479.376 396.309 478.842L323.624 446.503C322.848 446.157 321.976 446.111 321.17 446.373C320.363 446.635 319.677 447.189 319.239 447.93Z" fill="#407BFF"/>
<path opacity="0.3" d="M319.239 447.93C318.998 448.332 318.836 448.779 318.763 449.245C318.69 449.712 318.708 450.188 318.815 450.647C318.921 451.106 319.116 451.54 319.386 451.922C319.657 452.304 319.998 452.629 320.391 452.876L387.892 495.392C389.955 496.688 392.436 497.093 394.791 496.519C397.145 495.945 399.181 494.438 400.452 492.329C401.138 491.187 401.577 489.908 401.738 488.578C401.899 487.247 401.779 485.897 401.386 484.618C400.993 483.339 400.337 482.162 399.461 481.165C398.585 480.169 397.51 479.376 396.309 478.842L323.624 446.503C322.848 446.157 321.976 446.111 321.17 446.373C320.363 446.635 319.677 447.189 319.239 447.93Z" fill="white"/>
<path opacity="0.6" d="M396.309 478.843L323.624 446.504C323.45 446.257 323.221 446.056 322.955 445.918C322.69 445.78 322.396 445.71 322.098 445.713C321.8 445.716 321.507 445.792 321.244 445.935C320.981 446.078 320.756 446.284 320.587 446.534C320.418 446.785 320.31 447.074 320.272 447.377C320.235 447.679 320.269 447.986 320.372 448.272C320.475 448.558 320.644 448.815 320.864 449.02C321.083 449.226 321.348 449.374 321.636 449.453L389.137 491.969C389.974 492.806 390.988 493.435 392.101 493.806C393.213 494.177 394.395 494.281 395.553 494.11C396.711 493.938 397.815 493.496 398.779 492.817C399.743 492.138 400.541 491.24 401.112 490.194C401.682 489.148 402.01 487.982 402.069 486.785C402.128 485.589 401.918 484.394 401.453 483.295C400.989 482.195 400.283 481.22 399.391 480.445C398.499 479.669 397.444 479.115 396.309 478.824V478.843Z" fill="white"/>
<path d="M314.115 447.93C314.357 448.332 314.518 448.779 314.591 449.245C314.664 449.712 314.646 450.188 314.54 450.647C314.433 451.106 314.238 451.54 313.968 451.922C313.697 452.304 313.356 452.629 312.963 452.876L245.462 495.392C243.399 496.688 240.918 497.093 238.563 496.519C236.209 495.945 234.173 494.438 232.902 492.329C232.216 491.187 231.777 489.908 231.616 488.578C231.455 487.247 231.575 485.897 231.968 484.618C232.361 483.339 233.018 482.162 233.893 481.165C234.769 480.169 235.844 479.376 237.045 478.842L309.73 446.503C310.506 446.157 311.378 446.111 312.184 446.373C312.991 446.635 313.677 447.189 314.115 447.93Z" fill="#407BFF"/>
<path opacity="0.3" d="M314.115 447.93C314.357 448.332 314.518 448.779 314.591 449.245C314.664 449.712 314.646 450.188 314.54 450.647C314.433 451.106 314.238 451.54 313.968 451.922C313.697 452.304 313.356 452.629 312.963 452.876L245.462 495.392C243.399 496.688 240.918 497.093 238.563 496.519C236.209 495.945 234.173 494.438 232.902 492.329C232.216 491.187 231.777 489.908 231.616 488.578C231.455 487.247 231.575 485.897 231.968 484.618C232.361 483.339 233.018 482.162 233.893 481.165C234.769 480.169 235.844 479.376 237.045 478.842L309.73 446.503C310.506 446.157 311.378 446.111 312.184 446.373C312.991 446.635 313.677 447.189 314.115 447.93Z" fill="white"/>
<path opacity="0.6" d="M309.727 446.524L237.042 478.862C235.924 479.094 234.872 479.586 233.969 480.3C233.066 481.015 232.336 481.933 231.836 482.982C231.335 484.032 231.077 485.186 231.082 486.355C231.087 487.523 231.355 488.675 231.865 489.72C232.374 490.765 233.113 491.676 234.022 492.383C234.931 493.089 235.987 493.571 237.107 493.792C238.228 494.014 239.383 493.968 240.483 493.658C241.584 493.349 242.6 492.784 243.452 492.007L310.954 449.491C311.282 449.548 311.62 449.513 311.931 449.39C312.242 449.267 312.515 449.061 312.721 448.793C312.927 448.525 313.06 448.205 313.104 447.866C313.148 447.528 313.102 447.184 312.971 446.87C312.841 446.556 312.63 446.284 312.361 446.082C312.093 445.88 311.776 445.756 311.444 445.722C311.112 445.689 310.778 445.747 310.476 445.891C310.174 446.036 309.915 446.261 309.727 446.543V446.524Z" fill="white"/>
<g opacity="0.5">
<path d="M317.922 541.941V543.692C320.3 543.901 322.604 543.996 324.462 543.996C326.32 543.996 328.475 543.901 330.761 543.711V541.96C328.903 542.132 326.822 542.227 324.518 542.227C322.214 542.227 319.854 542.113 317.922 541.941Z" fill="black"/>
<path d="M331.111 558.776L330.833 548.181C328.975 548.352 326.857 548.466 324.423 548.466C321.989 548.466 319.666 548.333 317.771 548.143L317.492 558.776C319.796 558.967 322.156 559.043 324.423 559.043C326.689 559.043 328.863 558.948 331.111 558.776Z" fill="black"/>
</g>
<path d="M208.761 364.344H198.672L188.713 743.127C188.689 744.076 188.849 745.02 189.186 745.904C189.523 746.788 190.03 747.594 190.675 748.274C191.321 748.955 192.093 749.497 192.947 749.867C193.8 750.238 194.717 750.43 195.644 750.432H211.808C212.737 750.432 213.656 750.242 214.511 749.873C215.367 749.503 216.141 748.962 216.789 748.281C217.437 747.6 217.945 746.793 218.283 745.908C218.621 745.023 218.782 744.077 218.757 743.127L208.761 364.344Z" fill="#407BFF"/>
<path opacity="0.5" d="M208.761 364.344H198.672L188.713 743.127C188.689 744.076 188.849 745.02 189.186 745.904C189.523 746.788 190.03 747.594 190.675 748.274C191.321 748.955 192.093 749.497 192.947 749.867C193.8 750.238 194.717 750.43 195.644 750.432H211.808C212.737 750.432 213.656 750.242 214.511 749.873C215.367 749.503 216.141 748.962 216.789 748.281C217.437 747.6 217.945 746.793 218.283 745.908C218.621 745.023 218.782 744.077 218.757 743.127L208.761 364.344Z" fill="white"/>
<path d="M236.931 353.464L222.773 352.722L221.38 348.461C220.924 347.027 220.062 345.765 218.905 344.834C217.747 343.902 216.345 343.344 214.877 343.23L206.07 342.45C204.539 342.321 203.007 342.675 201.678 343.464C200.35 344.253 199.289 345.439 198.638 346.863L196.52 351.486C195.331 351.501 194.158 351.755 193.065 352.234C191.973 352.714 190.984 353.409 190.154 354.28C189.324 355.151 188.67 356.18 188.229 357.31C187.788 358.44 187.568 359.647 187.583 360.864C187.597 362.08 187.846 363.282 188.314 364.4C188.782 365.519 189.461 366.531 190.312 367.381C191.162 368.231 192.168 368.901 193.271 369.352C194.375 369.804 195.554 370.029 196.743 370.014L236.95 368.112C238.852 368.112 240.676 367.338 242.021 365.961C243.366 364.584 244.122 362.716 244.122 360.769C244.122 358.821 243.366 356.954 242.021 355.577C240.676 354.2 238.852 353.426 236.95 353.426L236.931 353.464Z" fill="#407BFF"/>
<path opacity="0.2" d="M236.931 353.464L222.773 352.722L221.38 348.461C220.924 347.027 220.062 345.765 218.905 344.834C217.747 343.902 216.345 343.344 214.877 343.23L206.07 342.45C204.539 342.321 203.007 342.675 201.678 343.464C200.35 344.253 199.289 345.439 198.638 346.863L196.52 351.486C195.331 351.501 194.158 351.755 193.065 352.234C191.973 352.714 190.984 353.409 190.154 354.28C189.324 355.151 188.67 356.18 188.229 357.31C187.788 358.44 187.568 359.647 187.583 360.864C187.597 362.08 187.846 363.282 188.314 364.4C188.782 365.519 189.461 366.531 190.312 367.381C191.162 368.231 192.168 368.901 193.271 369.352C194.375 369.804 195.554 370.029 196.743 370.014L236.95 368.112C238.852 368.112 240.676 367.338 242.021 365.961C243.366 364.584 244.122 362.716 244.122 360.769C244.122 358.821 243.366 356.954 242.021 355.577C240.676 354.2 238.852 353.426 236.95 353.426L236.931 353.464Z" fill="white"/>
<path opacity="0.2" d="M236.93 368.149C238.147 368.081 239.327 367.696 240.358 367.03C241.388 366.364 242.236 365.44 242.82 364.344L205.121 364.877C206.1 362.998 206.451 360.842 206.119 358.739C205.787 356.637 204.791 354.703 203.284 353.235C201.777 351.767 199.841 350.846 197.774 350.612C195.706 350.378 193.62 350.844 191.836 351.939C190.052 353.034 188.668 354.698 187.895 356.676C187.123 358.653 187.005 360.836 187.559 362.888C188.113 364.941 189.31 366.751 190.965 368.042C192.62 369.332 194.643 370.031 196.723 370.032L236.93 368.149Z" fill="black"/>
<path d="M194.363 358.143C193.771 358.145 193.184 358.028 192.636 357.798C192.089 357.568 191.591 357.229 191.171 356.801C190.752 356.373 190.419 355.865 190.192 355.305C189.965 354.745 189.848 354.145 189.848 353.539V249.218C189.848 246.029 191.085 242.971 193.287 240.717C195.489 238.462 198.476 237.195 201.59 237.195C203.274 237.194 204.939 237.564 206.471 238.279C208.003 238.995 209.367 240.039 210.471 241.342C211.574 242.645 212.39 244.175 212.865 245.829C213.34 247.484 213.461 249.223 213.221 250.93L198.803 354.186C198.648 355.28 198.114 356.281 197.299 357.007C196.485 357.733 195.443 358.136 194.363 358.143Z" fill="#407BFF"/>
<path opacity="0.3" d="M194.363 358.143C193.771 358.145 193.184 358.028 192.636 357.798C192.089 357.568 191.591 357.229 191.171 356.801C190.752 356.373 190.419 355.865 190.192 355.305C189.965 354.745 189.848 354.145 189.848 353.539V249.218C189.848 246.029 191.085 242.971 193.287 240.717C195.489 238.462 198.476 237.195 201.59 237.195C203.274 237.194 204.939 237.564 206.471 238.279C208.003 238.995 209.367 240.039 210.471 241.342C211.574 242.645 212.39 244.175 212.865 245.829C213.34 247.484 213.461 249.223 213.221 250.93L198.803 354.186C198.648 355.28 198.114 356.281 197.299 357.007C196.485 357.733 195.443 358.136 194.363 358.143Z" fill="white"/>
<path opacity="0.6" d="M202.705 237.271C202.334 237.251 201.962 237.251 201.59 237.271C198.476 237.271 195.489 238.538 193.287 240.792C191.085 243.047 189.848 246.105 189.848 249.293V353.615C189.849 354.564 190.141 355.489 190.684 356.259C191.502 355.994 192.228 355.495 192.778 354.821C193.328 354.147 193.678 353.326 193.787 352.454L208.093 249.198C208.427 246.889 208.095 244.53 207.138 242.411C206.181 240.292 204.64 238.506 202.705 237.271Z" fill="white"/>
<path d="M197.224 362.993C196.911 363.508 196.701 364.082 196.606 364.681C196.51 365.279 196.531 365.892 196.668 366.482C196.804 367.073 197.053 367.63 197.4 368.121C197.748 368.613 198.187 369.029 198.692 369.346L285.461 423.999C286.774 424.828 288.235 425.384 289.758 425.635C291.282 425.885 292.839 425.826 294.34 425.461C295.841 425.095 297.257 424.43 298.507 423.503C299.758 422.577 300.817 421.407 301.625 420.061C302.504 418.593 303.065 416.949 303.27 415.239C303.475 413.53 303.319 411.796 302.814 410.153C302.308 408.511 301.465 406.998 300.34 405.718C299.215 404.438 297.835 403.419 296.293 402.732L202.854 361.186C201.86 360.741 200.744 360.68 199.709 361.012C198.675 361.344 197.792 362.047 197.224 362.993Z" fill="#407BFF"/>
<path opacity="0.3" d="M197.224 362.993C196.911 363.508 196.701 364.082 196.606 364.681C196.51 365.279 196.531 365.892 196.668 366.482C196.804 367.073 197.053 367.63 197.4 368.121C197.748 368.613 198.187 369.029 198.692 369.346L285.461 423.999C286.774 424.828 288.235 425.384 289.758 425.635C291.282 425.885 292.839 425.826 294.34 425.461C295.841 425.095 297.257 424.43 298.507 423.503C299.758 422.577 300.817 421.407 301.625 420.061C302.504 418.593 303.065 416.949 303.27 415.239C303.475 413.53 303.319 411.796 302.814 410.153C302.308 408.511 301.465 406.998 300.34 405.718C299.215 404.438 297.835 403.419 296.293 402.732L202.854 361.186C201.86 360.741 200.744 360.68 199.709 361.012C198.675 361.344 197.792 362.047 197.224 362.993Z" fill="white"/>
<path opacity="0.6" d="M296.297 402.733L202.858 361.187C202.106 360.848 201.278 360.729 200.465 360.843C199.651 360.957 198.885 361.3 198.25 361.833C198.352 362.478 198.59 363.092 198.946 363.634C199.302 364.176 199.768 364.632 200.312 364.972L287.081 419.625C288.156 420.694 289.457 421.496 290.882 421.97C292.308 422.443 293.821 422.576 295.304 422.356C296.788 422.137 298.202 421.571 299.439 420.704C300.675 419.836 301.7 418.69 302.436 417.353C303.171 416.016 303.597 414.523 303.68 412.991C303.764 411.459 303.502 409.928 302.916 408.515C302.33 407.103 301.435 405.847 300.301 404.844C299.166 403.842 297.821 403.119 296.371 402.733H296.297Z" fill="white"/>
<path d="M190.63 362.993C190.943 363.508 191.153 364.082 191.248 364.681C191.344 365.279 191.323 365.892 191.186 366.482C191.05 367.073 190.801 367.63 190.454 368.121C190.106 368.613 189.667 369.029 189.162 369.346L102.394 423.999C101.08 424.828 99.6195 425.384 98.0958 425.635C96.5722 425.885 95.0153 425.826 93.514 425.461C92.0128 425.095 90.5966 424.43 89.3466 423.503C88.0966 422.577 87.0371 421.407 86.2289 420.061C85.3472 418.594 84.7839 416.949 84.5772 415.239C84.3705 413.529 84.5252 411.794 85.0309 410.15C85.5366 408.507 86.3815 406.994 87.5082 405.714C88.6349 404.434 90.0172 403.417 91.5614 402.732L185 361.186C185.994 360.741 187.111 360.68 188.145 361.012C189.18 361.344 190.062 362.047 190.63 362.993Z" fill="#407BFF"/>
<path opacity="0.3" d="M190.63 362.993C190.943 363.508 191.153 364.082 191.248 364.681C191.344 365.279 191.323 365.892 191.186 366.482C191.05 367.073 190.801 367.63 190.454 368.121C190.106 368.613 189.667 369.029 189.162 369.346L102.394 423.999C101.08 424.828 99.6195 425.384 98.0958 425.635C96.5722 425.885 95.0153 425.826 93.514 425.461C92.0128 425.095 90.5966 424.43 89.3466 423.503C88.0966 422.577 87.0371 421.407 86.2289 420.061C85.3472 418.594 84.7839 416.949 84.5772 415.239C84.3705 413.529 84.5252 411.794 85.0309 410.15C85.5366 408.507 86.3815 406.994 87.5082 405.714C88.6349 404.434 90.0172 403.417 91.5614 402.732L185 361.186C185.994 360.741 187.111 360.68 188.145 361.012C189.18 361.344 190.062 362.047 190.63 362.993Z" fill="white"/>
<path opacity="0.6" d="M185 361.186L91.5609 402.732C88.8534 403.941 86.6881 406.146 85.494 408.912C84.2999 411.678 84.1641 414.802 85.1136 417.665C86.974 419.661 89.4492 420.94 92.1226 421.286C94.796 421.633 97.5043 421.026 99.7918 419.568L186.56 364.915C187.199 364.514 187.729 363.956 188.102 363.291C188.476 362.627 188.68 361.877 188.697 361.11C188.111 360.854 187.478 360.728 186.84 360.741C186.203 360.754 185.575 360.906 185 361.186Z" fill="white"/>
<g opacity="0.5">
<path d="M195.539 483.846V486.09C198.586 486.357 201.559 486.471 203.937 486.471C206.315 486.471 209.102 486.376 212.038 486.109V483.884C209.623 484.093 206.966 484.207 203.993 484.207C201.02 484.207 198.01 484.074 195.539 483.846Z" fill="black"/>
<path d="M212.482 505.494L212.129 491.854C209.751 492.083 207.019 492.235 203.879 492.235C200.739 492.235 197.767 492.064 195.333 491.816L194.961 505.475C197.934 505.722 200.962 505.836 203.879 505.836C206.796 505.836 209.621 505.722 212.482 505.494Z" fill="black"/>
</g>
<path d="M367.864 265.254H631.161L668.061 641.431L653.996 657.239H390.68L362.68 273.738L367.864 265.254Z" fill="#407BFF"/>
<path opacity="0.7" d="M404.759 641.431H668.056L631.157 265.254H367.859L404.759 641.431Z" fill="white"/>
<g opacity="0.5">
<path d="M407.94 651.855H651.803C652.172 651.855 652.527 651.705 652.788 651.438C653.05 651.17 653.196 650.807 653.196 650.429C653.196 650.05 653.05 649.687 652.788 649.42C652.527 649.152 652.172 649.002 651.803 649.002H407.94C407.571 649.002 407.216 649.152 406.955 649.42C406.694 649.687 406.547 650.05 406.547 650.429C406.547 650.807 406.694 651.17 406.955 651.438C407.216 651.705 407.571 651.855 407.94 651.855Z" fill="white"/>
</g>
<g opacity="0.5">
<path d="M379.496 458.792C384.24 513.768 388.972 568.757 393.691 623.758L395.754 647.099C395.902 648.906 398.689 649.002 398.541 647.099C393.797 592.098 389.065 537.103 384.345 482.114L382.339 458.792C382.19 456.89 379.403 456.89 379.552 458.792H379.496Z" fill="white"/>
</g>
<path d="M544.949 325.329H569.344C570.025 325.341 570.701 325.204 571.327 324.929C571.953 324.653 572.514 324.245 572.975 323.731C573.435 323.216 573.783 322.608 573.996 321.946C574.21 321.283 574.283 320.582 574.212 319.888L573.952 316.826C573.803 315.348 573.131 313.978 572.063 312.972C570.995 311.966 569.606 311.395 568.155 311.366H543.76C543.077 311.354 542.399 311.491 541.772 311.767C541.145 312.044 540.582 312.454 540.121 312.97C539.661 313.487 539.313 314.098 539.101 314.762C538.889 315.427 538.818 316.13 538.892 316.826L539.152 319.888C539.301 321.364 539.974 322.732 541.042 323.735C542.11 324.737 543.5 325.304 544.949 325.329Z" fill="#407BFF"/>
<path d="M542.664 354.167H571.816C572.497 354.176 573.172 354.037 573.797 353.76C574.422 353.482 574.983 353.071 575.441 352.555C575.9 352.039 576.246 351.429 576.457 350.766C576.668 350.102 576.739 349.401 576.665 348.707L576.405 345.644C576.255 344.169 575.583 342.801 574.515 341.798C573.446 340.796 572.057 340.228 570.608 340.204H541.456C540.775 340.192 540.1 340.328 539.475 340.604C538.85 340.879 538.29 341.288 537.831 341.803C537.372 342.317 537.026 342.926 536.815 343.589C536.603 344.251 536.533 344.952 536.607 345.644L536.867 348.707C537.016 350.185 537.688 351.555 538.755 352.561C539.823 353.566 541.213 354.137 542.664 354.167Z" fill="#407BFF"/>
<path d="M549.967 382.987H574.363C575.046 382.99 575.722 382.843 576.345 382.557C576.968 382.271 577.525 381.852 577.977 381.328C578.429 380.804 578.766 380.187 578.967 379.518C579.167 378.849 579.225 378.145 579.138 377.451L578.878 374.408C578.732 372.929 578.062 371.556 576.993 370.549C575.925 369.543 574.533 368.973 573.081 368.948H548.685C548.002 368.936 547.325 369.073 546.698 369.349C546.07 369.626 545.508 370.036 545.047 370.552C544.587 371.069 544.239 371.68 544.027 372.344C543.815 373.009 543.743 373.712 543.817 374.408L544.096 377.451C544.221 378.958 544.894 380.363 545.981 381.388C547.068 382.412 548.49 382.983 549.967 382.987Z" fill="#407BFF"/>
<path d="M545.304 411.805H576.741C577.419 411.812 578.09 411.672 578.71 411.394C579.331 411.116 579.887 410.706 580.342 410.192C580.796 409.678 581.139 409.071 581.348 408.411C581.557 407.752 581.627 407.054 581.554 406.365L581.294 403.302C581.148 401.826 580.481 400.456 579.416 399.45C578.351 398.444 576.964 397.872 575.515 397.843H544.115C543.432 397.83 542.755 397.967 542.127 398.244C541.5 398.52 540.937 398.931 540.477 399.447C540.016 399.963 539.669 400.574 539.457 401.239C539.244 401.904 539.173 402.607 539.247 403.302L539.507 406.365C539.657 407.84 540.329 409.209 541.397 410.211C542.466 411.214 543.855 411.781 545.304 411.805Z" fill="#407BFF"/>
<path d="M552.828 440.626H625.736C626.418 440.641 627.095 440.507 627.722 440.232C628.349 439.958 628.912 439.55 629.373 439.035C629.834 438.52 630.182 437.91 630.394 437.246C630.606 436.582 630.678 435.88 630.604 435.186L630.343 432.123C630.194 430.647 629.521 429.279 628.453 428.277C627.385 427.274 625.995 426.707 624.546 426.682H551.62C550.94 426.67 550.264 426.806 549.639 427.082C549.014 427.358 548.454 427.767 547.995 428.281C547.536 428.796 547.19 429.405 546.979 430.067C546.768 430.729 546.697 431.43 546.771 432.123L547.031 435.186C547.18 436.661 547.853 438.03 548.921 439.032C549.989 440.034 551.379 440.602 552.828 440.626Z" fill="#407BFF"/>
<path d="M545.375 469.464H628.204C628.885 469.473 629.561 469.334 630.186 469.056C630.811 468.779 631.371 468.368 631.83 467.852C632.288 467.336 632.634 466.726 632.845 466.063C633.056 465.399 633.127 464.698 633.054 464.004L632.793 460.941C632.648 459.467 631.979 458.099 630.914 457.096C629.849 456.094 628.462 455.526 627.015 455.501H544.167C543.486 455.489 542.811 455.625 542.186 455.9C541.561 456.176 541.001 456.585 540.542 457.1C540.083 457.614 539.737 458.223 539.526 458.885C539.314 459.548 539.243 460.249 539.317 460.941L539.578 464.004C539.727 465.481 540.399 466.852 541.466 467.858C542.534 468.863 543.924 469.434 545.375 469.464Z" fill="#407BFF"/>
<path d="M554.96 498.284H630.673C631.355 498.296 632.032 498.16 632.659 497.883C633.285 497.606 633.847 497.196 634.306 496.679C634.765 496.162 635.111 495.551 635.321 494.886C635.53 494.221 635.599 493.518 635.522 492.824L635.262 489.781C635.117 488.302 634.446 486.929 633.378 485.922C632.309 484.916 630.917 484.346 629.465 484.321H553.77C553.088 484.309 552.411 484.445 551.785 484.722C551.158 484.999 550.597 485.409 550.138 485.926C549.679 486.443 549.333 487.054 549.123 487.719C548.913 488.384 548.844 489.087 548.921 489.781L549.181 492.824C549.326 494.3 549.994 495.67 551.059 496.676C552.124 497.682 553.511 498.254 554.96 498.284Z" fill="#407BFF"/>
<g opacity="0.4">
<path d="M544.953 325.329H569.348C570.029 325.341 570.705 325.204 571.331 324.929C571.957 324.653 572.518 324.245 572.979 323.731C573.439 323.216 573.787 322.608 574 321.946C574.214 321.283 574.287 320.582 574.216 319.888L573.956 316.826C573.807 315.348 573.135 313.978 572.067 312.972C570.999 311.966 569.609 311.395 568.159 311.366H543.763C543.081 311.354 542.403 311.491 541.776 311.767C541.148 312.044 540.586 312.454 540.125 312.97C539.665 313.487 539.317 314.098 539.105 314.762C538.893 315.427 538.822 316.13 538.895 316.826L539.156 319.888C539.305 321.364 539.978 322.732 541.046 323.735C542.114 324.737 543.504 325.304 544.953 325.329Z" fill="white"/>
<path d="M542.664 354.167H571.816C572.497 354.176 573.172 354.037 573.797 353.76C574.422 353.482 574.983 353.071 575.441 352.555C575.9 352.039 576.246 351.429 576.457 350.766C576.668 350.102 576.739 349.401 576.665 348.707L576.405 345.644C576.255 344.169 575.583 342.801 574.515 341.798C573.446 340.796 572.057 340.228 570.608 340.204H541.456C540.775 340.192 540.1 340.328 539.475 340.604C538.85 340.879 538.29 341.288 537.831 341.803C537.372 342.317 537.026 342.926 536.815 343.589C536.603 344.251 536.533 344.952 536.607 345.644L536.867 348.707C537.016 350.185 537.688 351.555 538.755 352.561C539.823 353.566 541.213 354.137 542.664 354.167Z" fill="white"/>
<path d="M549.967 382.987H574.363C575.046 382.99 575.722 382.843 576.345 382.557C576.968 382.271 577.525 381.852 577.977 381.328C578.429 380.804 578.766 380.187 578.967 379.518C579.167 378.849 579.225 378.145 579.138 377.451L578.878 374.408C578.732 372.929 578.062 371.556 576.993 370.549C575.925 369.543 574.533 368.973 573.081 368.948H548.685C548.002 368.936 547.325 369.073 546.698 369.349C546.07 369.626 545.508 370.036 545.047 370.552C544.587 371.069 544.239 371.68 544.027 372.344C543.815 373.009 543.743 373.712 543.817 374.408L544.096 377.451C544.221 378.958 544.894 380.363 545.981 381.388C547.068 382.412 548.49 382.983 549.967 382.987Z" fill="white"/>
<path d="M545.3 411.807H576.738C577.415 411.814 578.086 411.674 578.706 411.396C579.327 411.118 579.883 410.708 580.338 410.194C580.792 409.68 581.135 409.073 581.344 408.413C581.553 407.754 581.623 407.056 581.55 406.367L581.29 403.304C581.145 401.828 580.477 400.458 579.412 399.452C578.347 398.446 576.96 397.874 575.511 397.845H544.111C543.428 397.832 542.751 397.969 542.123 398.246C541.496 398.522 540.934 398.932 540.473 399.449C540.013 399.965 539.665 400.576 539.453 401.241C539.241 401.906 539.169 402.609 539.243 403.304L539.503 406.367C539.653 407.842 540.325 409.211 541.393 410.213C542.462 411.216 543.851 411.783 545.3 411.807Z" fill="white"/>
<path d="M552.828 440.626H625.736C626.418 440.641 627.095 440.507 627.722 440.232C628.349 439.958 628.912 439.55 629.373 439.035C629.834 438.52 630.182 437.91 630.394 437.246C630.606 436.582 630.678 435.88 630.604 435.186L630.343 432.123C630.194 430.647 629.521 429.279 628.453 428.277C627.385 427.274 625.995 426.707 624.546 426.682H551.62C550.94 426.67 550.264 426.806 549.639 427.082C549.014 427.358 548.454 427.767 547.995 428.281C547.536 428.796 547.19 429.405 546.979 430.067C546.768 430.729 546.697 431.43 546.771 432.123L547.031 435.186C547.18 436.661 547.853 438.03 548.921 439.032C549.989 440.034 551.379 440.602 552.828 440.626Z" fill="white"/>
<path d="M545.378 469.465H628.208C628.889 469.475 629.565 469.336 630.19 469.058C630.815 468.781 631.375 468.37 631.834 467.854C632.292 467.338 632.638 466.728 632.849 466.064C633.06 465.401 633.131 464.699 633.057 464.006L632.797 460.943C632.652 459.469 631.983 458.101 630.918 457.098C629.853 456.096 628.466 455.528 627.019 455.503H544.171C543.49 455.49 542.815 455.627 542.19 455.902C541.565 456.178 541.005 456.587 540.546 457.101C540.087 457.616 539.741 458.225 539.529 458.887C539.318 459.55 539.247 460.251 539.321 460.943L539.582 464.006C539.731 465.483 540.403 466.854 541.47 467.86C542.538 468.865 543.928 469.436 545.378 469.465Z" fill="white"/>
<path d="M554.963 498.284H630.677C631.359 498.296 632.036 498.16 632.663 497.883C633.289 497.606 633.851 497.196 634.31 496.679C634.769 496.162 635.115 495.551 635.325 494.886C635.534 494.221 635.603 493.518 635.526 492.824L635.266 489.781C635.121 488.302 634.45 486.929 633.382 485.922C632.313 484.916 630.921 484.346 629.469 484.321H553.774C553.092 484.309 552.415 484.445 551.789 484.722C551.162 484.999 550.601 485.409 550.142 485.926C549.683 486.443 549.337 487.054 549.127 487.719C548.917 488.384 548.848 489.087 548.925 489.781L549.185 492.824C549.33 494.3 549.998 495.67 551.063 496.676C552.127 497.682 553.515 498.254 554.963 498.284Z" fill="white"/>
</g>
<path d="M496.567 325.328H513.902C514.583 325.34 515.259 325.204 515.885 324.929C516.511 324.653 517.072 324.245 517.532 323.73C517.992 323.216 518.341 322.608 518.554 321.945C518.767 321.283 518.841 320.582 518.77 319.888L518.491 316.825C518.346 315.349 517.678 313.979 516.614 312.973C515.549 311.967 514.161 311.395 512.713 311.366H495.378C494.696 311.356 494.021 311.495 493.396 311.773C492.771 312.051 492.21 312.461 491.752 312.977C491.294 313.493 490.947 314.103 490.736 314.767C490.525 315.43 490.455 316.132 490.528 316.825L490.788 319.888C490.934 321.362 491.602 322.73 492.667 323.733C493.733 324.736 495.12 325.303 496.567 325.328Z" fill="#263238"/>
<path d="M499.039 354.167H516.375C517.056 354.177 517.731 354.038 518.356 353.76C518.982 353.482 519.542 353.072 520 352.555C520.459 352.039 520.805 351.429 521.016 350.766C521.227 350.103 521.298 349.401 521.224 348.707L520.964 345.645C520.814 344.169 520.142 342.801 519.074 341.798C518.005 340.796 516.616 340.229 515.167 340.204H497.943C497.261 340.189 496.584 340.324 495.957 340.598C495.329 340.872 494.767 341.281 494.306 341.796C493.845 342.311 493.497 342.921 493.285 343.584C493.073 344.248 493.001 344.951 493.075 345.645L493.335 348.707C493.483 350.169 494.141 351.527 495.189 352.53C496.238 353.534 497.605 354.115 499.039 354.167Z" fill="#263238"/>
<path d="M501.491 382.987H518.826C519.509 382.999 520.186 382.862 520.814 382.586C521.441 382.309 522.004 381.899 522.464 381.383C522.925 380.866 523.272 380.255 523.484 379.591C523.696 378.926 523.768 378.223 523.694 377.527L523.434 374.484C523.288 373.005 522.618 371.632 521.549 370.626C520.481 369.619 519.089 369.049 517.637 369.024H500.302C499.62 369.012 498.943 369.148 498.316 369.425C497.69 369.702 497.128 370.112 496.669 370.629C496.21 371.146 495.864 371.757 495.654 372.422C495.444 373.087 495.376 373.79 495.452 374.484L495.712 377.527C495.857 379.003 496.525 380.374 497.59 381.379C498.655 382.385 500.042 382.957 501.491 382.987Z" fill="#263238"/>
<path d="M503.964 411.805H521.299C521.98 411.818 522.655 411.681 523.28 411.406C523.905 411.13 524.466 410.721 524.924 410.207C525.383 409.692 525.73 409.083 525.941 408.421C526.152 407.758 526.223 407.057 526.149 406.365L525.889 403.302C525.744 401.826 525.076 400.456 524.011 399.45C522.946 398.444 521.559 397.872 520.11 397.843H502.775C502.092 397.83 501.415 397.967 500.787 398.244C500.16 398.52 499.598 398.931 499.137 399.447C498.677 399.963 498.329 400.574 498.117 401.239C497.905 401.904 497.833 402.607 497.907 403.302L498.167 406.365C498.317 407.84 498.989 409.209 500.058 410.211C501.126 411.214 502.515 411.781 503.964 411.805Z" fill="#263238"/>
<path d="M506.433 440.626H523.75C524.432 440.641 525.109 440.507 525.736 440.232C526.363 439.958 526.926 439.55 527.387 439.035C527.848 438.52 528.196 437.91 528.408 437.246C528.62 436.582 528.692 435.88 528.618 435.186L528.358 432.123C528.208 430.647 527.535 429.279 526.467 428.277C525.399 427.274 524.009 426.707 522.561 426.682H505.225C504.545 426.67 503.87 426.806 503.245 427.082C502.62 427.358 502.059 427.767 501.6 428.281C501.142 428.796 500.795 429.405 500.584 430.067C500.373 430.729 500.302 431.43 500.376 432.123L500.636 435.186C500.786 436.661 501.458 438.03 502.526 439.032C503.595 440.034 504.984 440.602 506.433 440.626Z" fill="#263238"/>
<path d="M508.888 469.463H526.223C526.905 469.473 527.58 469.334 528.205 469.056C528.83 468.779 529.39 468.368 529.849 467.852C530.307 467.336 530.653 466.726 530.864 466.063C531.075 465.399 531.146 464.697 531.073 464.004L530.812 460.941C530.667 459.467 529.998 458.099 528.933 457.096C527.868 456.094 526.481 455.526 525.034 455.501H507.699C507.018 455.489 506.342 455.625 505.716 455.901C505.09 456.176 504.529 456.585 504.068 457.099C503.608 457.613 503.26 458.222 503.047 458.884C502.833 459.546 502.76 460.248 502.831 460.941L503.091 464.004C503.24 465.481 503.912 466.852 504.98 467.858C506.048 468.863 507.438 469.434 508.888 469.463Z" fill="#263238"/>
<path d="M511.357 498.284H528.674C529.357 498.3 530.036 498.165 530.665 497.889C531.294 497.614 531.858 497.204 532.319 496.687C532.78 496.169 533.128 495.557 533.338 494.891C533.549 494.225 533.619 493.52 533.542 492.825L533.282 489.781C533.136 488.302 532.466 486.929 531.397 485.923C530.328 484.916 528.936 484.347 527.485 484.321H510.168C509.484 484.306 508.805 484.441 508.177 484.716C507.548 484.992 506.984 485.402 506.523 485.919C506.062 486.436 505.714 487.049 505.503 487.715C505.292 488.381 505.223 489.085 505.3 489.781L505.56 492.825C505.706 494.304 506.376 495.677 507.445 496.683C508.513 497.689 509.905 498.259 511.357 498.284Z" fill="#263238"/>
<g opacity="0.4">
<path d="M496.567 325.328H513.902C514.583 325.34 515.259 325.204 515.885 324.929C516.511 324.653 517.072 324.245 517.532 323.73C517.992 323.216 518.341 322.608 518.554 321.945C518.767 321.283 518.841 320.582 518.77 319.888L518.491 316.825C518.346 315.349 517.678 313.979 516.614 312.973C515.549 311.967 514.161 311.395 512.713 311.366H495.378C494.696 311.356 494.021 311.495 493.396 311.773C492.771 312.051 492.21 312.461 491.752 312.977C491.294 313.493 490.947 314.103 490.736 314.767C490.525 315.43 490.455 316.132 490.528 316.825L490.788 319.888C490.934 321.362 491.602 322.73 492.667 323.733C493.733 324.736 495.12 325.303 496.567 325.328Z" fill="white"/>
<path d="M499.036 354.167H516.371C517.052 354.177 517.728 354.038 518.353 353.76C518.978 353.482 519.538 353.072 519.996 352.555C520.455 352.039 520.801 351.429 521.012 350.766C521.223 350.103 521.294 349.401 521.22 348.707L520.96 345.645C520.81 344.169 520.138 342.801 519.07 341.798C518.002 340.796 516.612 340.229 515.163 340.204H497.939C497.257 340.189 496.58 340.324 495.953 340.598C495.326 340.872 494.763 341.281 494.302 341.796C493.841 342.311 493.493 342.921 493.281 343.584C493.069 344.248 492.997 344.951 493.071 345.645L493.331 348.707C493.479 350.169 494.137 351.527 495.185 352.53C496.234 353.534 497.601 354.115 499.036 354.167Z" fill="white"/>
<path d="M501.491 382.987H518.826C519.509 382.999 520.186 382.862 520.814 382.586C521.441 382.309 522.004 381.899 522.464 381.383C522.925 380.866 523.272 380.255 523.484 379.591C523.696 378.926 523.768 378.223 523.694 377.527L523.434 374.484C523.288 373.005 522.618 371.632 521.549 370.626C520.481 369.619 519.089 369.049 517.637 369.024H500.302C499.62 369.012 498.943 369.148 498.316 369.425C497.69 369.702 497.128 370.112 496.669 370.629C496.21 371.146 495.864 371.757 495.654 372.422C495.444 373.087 495.376 373.79 495.452 374.484L495.712 377.527C495.857 379.003 496.525 380.374 497.59 381.379C498.655 382.385 500.042 382.957 501.491 382.987Z" fill="white"/>
<path d="M503.96 411.807H521.296C521.976 411.82 522.651 411.683 523.276 411.408C523.901 411.132 524.462 410.723 524.92 410.208C525.379 409.694 525.726 409.085 525.937 408.423C526.148 407.76 526.219 407.059 526.145 406.367L525.885 403.304C525.74 401.828 525.072 400.458 524.007 399.452C522.942 398.446 521.555 397.874 520.106 397.845H502.771C502.088 397.832 501.411 397.969 500.784 398.246C500.156 398.522 499.594 398.932 499.133 399.449C498.673 399.965 498.325 400.576 498.113 401.241C497.901 401.906 497.829 402.609 497.903 403.304L498.163 406.367C498.313 407.842 498.986 409.211 500.054 410.213C501.122 411.216 502.512 411.783 503.96 411.807Z" fill="white"/>
<path d="M506.437 440.626H523.754C524.436 440.641 525.113 440.507 525.74 440.232C526.367 439.958 526.93 439.55 527.391 439.035C527.852 438.52 528.2 437.91 528.412 437.246C528.624 436.582 528.696 435.88 528.622 435.186L528.361 432.123C528.212 430.647 527.539 429.279 526.471 428.277C525.403 427.274 524.013 426.707 522.564 426.682H505.229C504.549 426.67 503.874 426.806 503.249 427.082C502.624 427.358 502.063 427.767 501.604 428.281C501.146 428.796 500.799 429.405 500.588 430.067C500.377 430.729 500.306 431.43 500.38 432.123L500.64 435.186C500.79 436.661 501.462 438.03 502.53 439.032C503.598 440.034 504.988 440.602 506.437 440.626Z" fill="white"/>
<path d="M508.888 469.465H526.223C526.905 469.475 527.58 469.336 528.205 469.058C528.83 468.78 529.39 468.37 529.849 467.854C530.307 467.338 530.653 466.728 530.864 466.064C531.075 465.401 531.146 464.699 531.073 464.006L530.812 460.943C530.667 459.469 529.998 458.101 528.933 457.098C527.868 456.096 526.481 455.528 525.034 455.503H507.699C507.018 455.491 506.342 455.627 505.716 455.903C505.09 456.178 504.529 456.586 504.068 457.101C503.608 457.615 503.26 458.224 503.047 458.886C502.833 459.548 502.76 460.25 502.831 460.943L503.091 464.006C503.24 465.483 503.912 466.854 504.98 467.859C506.048 468.865 507.438 469.436 508.888 469.465Z" fill="white"/>
<path d="M511.357 498.284H528.674C529.357 498.3 530.036 498.165 530.665 497.889C531.294 497.614 531.858 497.204 532.319 496.687C532.78 496.169 533.128 495.557 533.338 494.891C533.549 494.225 533.619 493.52 533.542 492.825L533.282 489.781C533.136 488.302 532.466 486.929 531.397 485.923C530.328 484.916 528.936 484.347 527.485 484.321H510.168C509.484 484.306 508.805 484.441 508.177 484.716C507.548 484.992 506.984 485.402 506.523 485.919C506.062 486.436 505.714 487.049 505.503 487.715C505.292 488.381 505.223 489.085 505.3 489.781L505.56 492.825C505.706 494.304 506.376 495.677 507.445 496.683C508.513 497.689 509.905 498.259 511.357 498.284Z" fill="white"/>
</g>
<path d="M422.544 535.075H504.296C504.979 535.087 505.655 534.951 506.282 534.674C506.908 534.397 507.47 533.987 507.929 533.47C508.388 532.953 508.734 532.342 508.944 531.677C509.154 531.012 509.222 530.309 509.146 529.615L508.886 526.553C508.74 525.079 508.072 523.711 507.006 522.708C505.941 521.705 504.554 521.137 503.107 521.112H421.355C420.674 521.1 419.998 521.236 419.372 521.512C418.747 521.787 418.185 522.196 417.725 522.71C417.265 523.224 416.916 523.833 416.703 524.495C416.49 525.158 416.416 525.859 416.487 526.553L416.766 529.615C416.907 531.093 417.574 532.465 418.639 533.472C419.705 534.479 421.095 535.049 422.544 535.075Z" fill="#263238"/>
<path d="M420.259 563.876H506.824C507.506 563.891 508.183 563.756 508.81 563.482C509.437 563.208 510 562.799 510.461 562.284C510.922 561.769 511.27 561.159 511.482 560.496C511.694 559.832 511.766 559.129 511.692 558.435L511.432 555.372C511.286 553.893 510.615 552.521 509.547 551.514C508.478 550.508 507.086 549.938 505.635 549.913H419.052C418.37 549.9 417.693 550.037 417.066 550.314C416.44 550.591 415.878 551.001 415.419 551.518C414.96 552.035 414.614 552.646 414.404 553.311C414.194 553.975 414.126 554.678 414.202 555.372L414.462 558.435C414.612 559.911 415.285 561.279 416.353 562.281C417.421 563.284 418.811 563.851 420.259 563.876Z" fill="#263238"/>
<path d="M427.469 592.713H509.221C509.902 592.725 510.578 592.589 511.204 592.313C511.83 592.038 512.391 591.629 512.851 591.115C513.312 590.601 513.66 589.992 513.873 589.33C514.087 588.668 514.16 587.966 514.089 587.273L513.81 584.21C513.665 582.734 512.997 581.364 511.933 580.358C510.868 579.352 509.48 578.78 508.032 578.75H426.28C425.599 578.741 424.923 578.88 424.298 579.158C423.673 579.435 423.113 579.846 422.654 580.362C422.196 580.878 421.85 581.488 421.639 582.151C421.428 582.815 421.357 583.516 421.431 584.21L421.691 587.273C421.836 588.747 422.505 590.115 423.57 591.118C424.635 592.12 426.022 592.688 427.469 592.713Z" fill="#263238"/>
<path d="M422.895 621.551H511.763C512.444 621.561 513.12 621.422 513.745 621.144C514.37 620.866 514.93 620.456 515.389 619.94C515.847 619.424 516.193 618.814 516.404 618.15C516.615 617.487 516.686 616.785 516.612 616.092L516.352 613.029C516.203 611.554 515.53 610.185 514.462 609.183C513.394 608.18 512.004 607.613 510.555 607.589H421.761C421.08 607.577 420.404 607.713 419.779 607.988C419.153 608.264 418.591 608.672 418.131 609.187C417.671 609.701 417.323 610.309 417.109 610.972C416.896 611.634 416.822 612.335 416.893 613.029L417.154 616.092C417.302 617.56 417.965 618.923 419.022 619.927C420.078 620.931 421.454 621.508 422.895 621.551Z" fill="#263238"/>
<g opacity="0.4">
<path d="M422.544 535.075H504.296C504.979 535.087 505.655 534.951 506.282 534.674C506.908 534.397 507.47 533.987 507.929 533.47C508.388 532.953 508.734 532.342 508.944 531.677C509.154 531.012 509.222 530.309 509.146 529.615L508.886 526.553C508.74 525.079 508.072 523.711 507.006 522.708C505.941 521.705 504.554 521.137 503.107 521.112H421.355C420.674 521.1 419.998 521.236 419.372 521.512C418.747 521.787 418.185 522.196 417.725 522.71C417.265 523.224 416.916 523.833 416.703 524.495C416.49 525.158 416.416 525.859 416.487 526.553L416.766 529.615C416.907 531.093 417.574 532.465 418.639 533.472C419.705 534.479 421.095 535.049 422.544 535.075Z" fill="white"/>
<path d="M420.259 563.876H506.824C507.506 563.891 508.183 563.756 508.81 563.482C509.437 563.208 510 562.799 510.461 562.284C510.922 561.769 511.27 561.159 511.482 560.496C511.694 559.832 511.766 559.129 511.692 558.435L511.432 555.372C511.286 553.893 510.615 552.521 509.547 551.514C508.478 550.508 507.086 549.938 505.635 549.913H419.052C418.37 549.9 417.693 550.037 417.066 550.314C416.44 550.591 415.878 551.001 415.419 551.518C414.96 552.035 414.614 552.646 414.404 553.311C414.194 553.975 414.126 554.678 414.202 555.372L414.462 558.435C414.612 559.911 415.285 561.279 416.353 562.281C417.421 563.284 418.811 563.851 420.259 563.876Z" fill="white"/>
<path d="M427.465 592.713H509.217C509.898 592.725 510.574 592.589 511.2 592.313C511.826 592.038 512.387 591.629 512.848 591.115C513.308 590.601 513.656 589.992 513.869 589.33C514.083 588.668 514.156 587.966 514.085 587.273L513.806 584.21C513.661 582.734 512.993 581.364 511.929 580.358C510.864 579.352 509.476 578.78 508.028 578.75H426.276C425.595 578.741 424.919 578.88 424.294 579.158C423.669 579.435 423.109 579.846 422.65 580.362C422.192 580.878 421.846 581.488 421.635 582.151C421.424 582.815 421.353 583.516 421.427 584.21L421.687 587.273C421.832 588.747 422.501 590.115 423.566 591.118C424.631 592.12 426.018 592.688 427.465 592.713Z" fill="white"/>
<path d="M422.899 621.553H511.767C512.448 621.563 513.124 621.424 513.749 621.146C514.374 620.868 514.934 620.458 515.392 619.942C515.851 619.426 516.197 618.816 516.408 618.152C516.619 617.489 516.69 616.787 516.616 616.094L516.356 613.031C516.206 611.555 515.534 610.187 514.466 609.185C513.398 608.182 512.008 607.615 510.559 607.591H421.765C421.084 607.579 420.408 607.715 419.783 607.99C419.157 608.266 418.595 608.674 418.135 609.189C417.675 609.703 417.326 610.311 417.113 610.974C416.9 611.636 416.826 612.337 416.897 613.031L417.158 616.094C417.306 617.562 417.969 618.925 419.025 619.929C420.082 620.933 421.458 621.51 422.899 621.553Z" fill="white"/>
</g>
<path d="M483.581 272.292L486.22 271.722L473.009 225.496C472.366 223.514 472.178 221.408 472.458 219.339C472.738 217.271 473.48 215.296 474.626 213.569C475.792 211.977 477.317 210.698 479.071 209.841C480.824 208.983 482.754 208.571 484.696 208.642C489.237 208.824 493.57 210.642 496.931 213.773C500.293 216.905 502.467 221.151 503.072 225.762L507.252 271.988H509.983L505.803 225.762C505.099 220.403 502.574 215.468 498.669 211.825C494.765 208.183 489.732 206.066 484.454 205.845C482.121 205.78 479.806 206.286 477.702 207.322C475.598 208.358 473.766 209.893 472.359 211.8C470.979 213.858 470.082 216.214 469.737 218.686C469.393 221.157 469.609 223.676 470.371 226.048L483.581 272.292Z" fill="black"/>
<path d="M464.142 279.863H539.651L536.641 244.632C536.446 242.62 535.536 240.751 534.083 239.38C532.631 238.009 530.738 237.231 528.763 237.194H467.765C466.835 237.178 465.912 237.364 465.057 237.741C464.203 238.118 463.436 238.677 462.809 239.381C462.182 240.084 461.708 240.916 461.418 241.822C461.129 242.727 461.032 243.685 461.132 244.632L464.142 279.863Z" fill="#407BFF"/>
<path opacity="0.2" d="M464.142 279.863H539.651L536.641 244.632C536.446 242.62 535.536 240.751 534.083 239.38C532.631 238.009 530.738 237.231 528.763 237.194H467.765C466.835 237.178 465.912 237.364 465.057 237.741C464.203 238.118 463.436 238.677 462.809 239.381C462.182 240.084 461.708 240.916 461.418 241.822C461.129 242.727 461.032 243.685 461.132 244.632L464.142 279.863Z" fill="black"/>
<path d="M491.234 272.14L493.91 271.873L485.456 225.629C485.044 223.558 485.082 221.419 485.566 219.364C486.051 217.31 486.971 215.389 488.261 213.739C489.571 212.124 491.217 210.828 493.078 209.946C494.939 209.064 496.969 208.618 499.019 208.641C503.397 208.698 507.574 210.532 510.632 213.739C512.17 215.293 513.39 217.144 514.223 219.185C515.055 221.227 515.483 223.417 515.481 225.629L514.924 271.873L517.655 272.14L518.231 225.914C518.179 220.634 516.117 215.584 512.484 211.836C508.851 208.088 503.934 205.939 498.778 205.845C496.356 205.816 493.958 206.34 491.76 207.38C489.561 208.42 487.617 209.949 486.069 211.856C484.549 213.81 483.466 216.082 482.895 218.51C482.323 220.939 482.278 223.466 482.762 225.914L491.234 272.14Z" fill="black"/>
<g opacity="0.2">
<path d="M491.234 272.14L493.91 271.873L485.456 225.629C485.044 223.558 485.082 221.419 485.566 219.364C486.051 217.31 486.971 215.389 488.261 213.739C489.571 212.124 491.217 210.828 493.078 209.946C494.939 209.064 496.969 208.618 499.019 208.641C503.397 208.698 507.574 210.532 510.632 213.739C512.17 215.293 513.39 217.144 514.223 219.185C515.055 221.227 515.483 223.417 515.481 225.629L514.924 271.873L517.655 272.14L518.231 225.914C518.179 220.634 516.117 215.584 512.484 211.836C508.851 208.088 503.934 205.939 498.778 205.845C496.356 205.816 493.958 206.34 491.76 207.38C489.561 208.42 487.617 209.949 486.069 211.856C484.549 213.81 483.466 216.082 482.895 218.51C482.323 220.939 482.278 223.466 482.762 225.914L491.234 272.14Z" fill="white"/>
</g>
<path d="M461.748 285.19H542.98C543.308 285.195 543.633 285.128 543.934 284.994C544.235 284.861 544.505 284.664 544.726 284.416C544.948 284.168 545.115 283.875 545.218 283.556C545.32 283.237 545.355 282.899 545.321 282.565L544.931 278.037C544.859 277.327 544.536 276.669 544.022 276.185C543.509 275.702 542.841 275.427 542.144 275.412H460.912C460.584 275.408 460.259 275.474 459.958 275.608C459.657 275.741 459.387 275.939 459.166 276.187C458.945 276.435 458.777 276.728 458.675 277.047C458.572 277.366 458.537 277.703 458.571 278.037L458.961 282.565C459.034 283.275 459.357 283.934 459.87 284.417C460.383 284.901 461.051 285.175 461.748 285.19Z" fill="#407BFF"/>
<path opacity="0.8" d="M629.711 535.037H521.445L523.303 556.875L523.471 558.778L525.161 578.714L525.329 580.616L527.038 600.552L527.205 602.454L529.063 624.292H658.584L656.726 602.454L656.559 600.552L654.868 580.616L654.701 578.714L652.992 558.778L652.824 556.875L650.966 535.037H629.711ZM631.569 578.79H612.172L610.481 558.854H629.86L631.569 578.79ZM610.295 578.79H590.842L589.132 558.854H608.474L610.295 578.79ZM589.021 578.79H569.642L567.933 558.854H587.293L589.021 578.79ZM567.765 578.79H548.368L546.677 558.854H566.019L567.765 578.79ZM548.572 580.692H567.914L569.623 600.628H550.244L548.572 580.692ZM569.846 580.692H589.188L590.897 600.628H571.5L569.846 580.692ZM591.102 580.692H610.462L612.153 600.628H592.7L591.102 580.692ZM612.376 580.692H631.718L633.427 600.628H614.048L612.376 580.692ZM628.002 536.939L629.692 556.875H610.313L608.604 536.939H628.002ZM606.728 536.939L608.437 556.875H588.984L587.293 536.939H606.728ZM585.453 536.939L587.163 556.875H567.784L566.075 536.939H585.453ZM564.198 536.939L565.889 556.875H546.51L544.8 536.939H564.198ZM523.508 536.939H542.924L544.633 556.875H525.18L523.508 536.939ZM525.366 558.778H544.763L546.473 578.714H527.038L525.366 558.778ZM527.224 580.616H546.621L548.312 600.552H528.915L527.224 580.616ZM530.791 622.466L529.1 602.53H548.479L550.189 622.466H530.791ZM552.121 622.466L550.43 602.53H569.772L571.481 622.466H552.121ZM573.395 622.466L571.686 602.53H591.027L592.718 622.466H573.395ZM594.669 622.466L592.96 602.53H612.302L614.011 622.466H594.669ZM615.925 622.466L614.234 602.53H633.576L635.285 622.466H615.925ZM656.615 622.466H637.18L635.434 602.454H654.85L656.615 622.466ZM654.757 600.628H635.322L633.576 580.616H652.992L654.757 600.628ZM652.899 578.79H633.446L631.718 558.778H651.134L652.899 578.79ZM631.625 556.951L629.86 536.939H649.276L650.966 556.875L631.625 556.951Z" fill="white"/>
<path d="M556.674 622.712H542.924L541.066 601.178H554.816L556.674 622.712Z" fill="#407BFF"/>
<path d="M584.175 622.713H570.426L566.691 579.664H580.441L584.175 622.713Z" fill="#263238"/>
<path d="M611.667 622.712H597.917L595.465 594.539H609.214L611.667 622.712Z" fill="#407BFF"/>
<path d="M639.172 622.713H625.423L620.258 563.229H634.007L639.172 622.713Z" fill="#263238"/>
<path d="M538.819 575.403C538.557 575.012 538.376 574.571 538.287 574.107C538.197 573.642 538.201 573.164 538.299 572.701C538.396 572.238 538.585 571.8 538.853 571.414C539.122 571.028 539.464 570.703 539.86 570.457L570.888 552.556L599.055 561.973L627.297 542.722C628.12 542.21 629.104 542.044 630.043 542.261C630.983 542.477 631.803 543.059 632.332 543.882C632.621 544.255 632.832 544.684 632.954 545.143C633.076 545.602 633.106 546.082 633.042 546.553C632.977 547.024 632.82 547.477 632.58 547.885C632.34 548.292 632.022 548.645 631.645 548.923L600.69 569.981L572.226 560.47L543.78 576.887C542.927 577.347 541.932 577.449 541.006 577.172C540.081 576.896 539.296 576.261 538.819 575.403Z" fill="#407BFF"/>
<path d="M617.504 549.93C617.504 549.93 633.427 534.579 614.03 528.092C614.03 528.092 605.241 545.498 614.921 549.93C614.921 549.93 619.585 541.978 616.891 533.646C616.854 533.646 622.186 539.867 617.504 549.93Z" fill="#407BFF"/>
<path d="M448.164 386.771C452.557 386.852 456.916 385.974 460.951 384.195C464.987 382.417 468.606 379.779 471.568 376.456C474.53 373.134 476.767 369.204 478.129 364.928C479.492 360.651 479.95 356.127 479.471 351.655C478.511 342.158 474.192 333.349 467.326 326.887C460.461 320.426 451.524 316.759 442.2 316.577C440.683 316.594 439.169 316.709 437.666 316.919C436.139 316.709 434.6 316.595 433.058 316.577C428.667 316.499 424.31 317.379 420.277 319.159C416.244 320.939 412.627 323.577 409.667 326.899C406.707 330.221 404.472 334.151 403.11 338.426C401.749 342.701 401.292 347.223 401.77 351.693H422.988C422.443 346.645 423.753 341.57 426.662 337.456C429.571 333.342 433.871 330.483 438.725 329.436C443.867 330.551 448.53 333.305 452.046 337.305C455.561 341.304 457.748 346.342 458.29 351.693C458.611 354.597 458.322 357.536 457.444 360.316C456.565 363.096 455.117 365.652 453.197 367.813C451.276 369.974 448.927 371.69 446.306 372.847C443.686 374.004 440.854 374.574 438.001 374.521L439.06 386.886L448.164 386.771Z" fill="#407BFF"/>
<path d="M444.564 390.766L443.505 378.382C437.447 378.268 431.64 375.88 427.188 371.672C422.735 367.464 419.947 361.729 419.351 355.555H398.133C399.059 365.08 403.368 373.927 410.241 380.417C417.114 386.907 426.074 390.59 435.423 390.766H444.564Z" fill="#407BFF"/>
<path d="M448.164 386.771C452.557 386.852 456.916 385.974 460.951 384.195C464.987 382.417 468.606 379.779 471.568 376.456C474.53 373.134 476.767 369.204 478.129 364.928C479.492 360.651 479.95 356.127 479.471 351.655C478.511 342.158 474.192 333.349 467.326 326.887C460.461 320.426 451.524 316.759 442.2 316.577C440.683 316.594 439.169 316.709 437.666 316.919C436.139 316.709 434.6 316.595 433.058 316.577C428.667 316.499 424.31 317.379 420.277 319.159C416.244 320.939 412.627 323.577 409.667 326.899C406.707 330.221 404.472 334.151 403.11 338.426C401.749 342.701 401.292 347.223 401.77 351.693H422.988C422.443 346.645 423.753 341.57 426.662 337.456C429.571 333.342 433.871 330.483 438.725 329.436C443.867 330.551 448.53 333.305 452.046 337.305C455.561 341.304 457.748 346.342 458.29 351.693C458.611 354.597 458.322 357.536 457.444 360.316C456.565 363.096 455.117 365.652 453.197 367.813C451.276 369.974 448.927 371.69 446.306 372.847C443.686 374.004 440.854 374.574 438.001 374.521L439.06 386.886L448.164 386.771Z" fill="#263238"/>
<path d="M444.564 390.766L443.505 378.382C437.447 378.268 431.64 375.88 427.188 371.672C422.735 367.464 419.947 361.729 419.351 355.555H398.133C399.059 365.08 403.368 373.927 410.241 380.417C417.114 386.907 426.074 390.59 435.423 390.766H444.564Z" fill="#263238"/>
<path d="M422.954 351.655C422.634 348.754 422.922 345.815 423.799 343.037C424.677 340.258 426.123 337.703 428.042 335.543C429.96 333.382 432.307 331.665 434.925 330.507C437.544 329.349 440.373 328.777 443.225 328.828C449.282 328.946 455.087 331.336 459.538 335.543C463.99 339.75 466.78 345.483 467.379 351.655C467.699 354.558 467.411 357.498 466.532 360.278C465.654 363.058 464.206 365.614 462.285 367.775C460.365 369.936 458.016 371.652 455.395 372.809C452.774 373.966 449.943 374.536 447.09 374.483L448.149 386.848C452.541 386.928 456.901 386.05 460.936 384.272C464.972 382.493 468.591 379.855 471.553 376.532C474.515 373.21 476.751 369.28 478.114 365.004C479.477 360.727 479.934 356.203 479.456 351.731C478.513 342.224 474.204 333.398 467.34 326.922C460.477 320.445 451.535 316.765 442.203 316.577C437.812 316.499 433.455 317.379 429.421 319.159C425.388 320.939 421.771 323.577 418.811 326.899C415.852 330.221 413.616 334.151 412.255 338.426C410.893 342.701 410.436 347.223 410.914 351.693L422.954 351.655Z" fill="#407BFF"/>
<path d="M407.273 355.707C408.234 365.205 412.557 374.015 419.427 380.474C426.297 386.933 435.238 390.594 444.564 390.766L443.504 378.382C437.446 378.268 431.639 375.88 427.187 371.672C422.734 367.464 419.946 361.729 419.35 355.555L407.273 355.707Z" fill="#407BFF"/>
<path opacity="0.5" d="M407.273 355.707C408.234 365.205 412.557 374.015 419.427 380.474C426.297 386.933 435.238 390.594 444.564 390.766L443.504 378.382C437.446 378.268 431.639 375.88 427.187 371.672C422.734 367.464 419.946 361.729 419.35 355.555L407.273 355.707Z" fill="white"/>
<path d="M442.202 419.796C441.849 415.535 441.719 414.089 441.347 409.733H432.206C427.823 409.675 423.477 410.562 419.45 412.335C415.424 414.108 411.806 416.728 408.832 420.024L418.122 428.775H427.338C430.196 425.575 433.978 423.396 438.133 422.555C438.374 425.332 438.541 427.177 438.932 431.857C444.991 431.967 450.8 434.354 455.253 438.562C459.707 442.771 462.494 448.509 463.086 454.684H484.323C483.37 445.174 479.049 436.35 472.175 429.88C465.301 423.41 456.35 419.741 447.014 419.568L442.202 419.796Z" fill="#407BFF"/>
<path d="M457.304 493.757C461.7 493.843 466.063 492.969 470.103 491.193C474.143 489.416 477.767 486.779 480.733 483.456C483.699 480.133 485.939 476.201 487.304 471.922C488.668 467.643 489.127 463.115 488.648 458.64H467.393C467.917 463.576 466.67 468.539 463.884 472.603C461.098 476.667 456.962 479.554 452.25 480.726L451.953 477.34C445.894 477.225 440.088 474.838 435.635 470.63C431.183 466.422 428.394 460.686 427.799 454.512C427.522 451.629 427.833 448.718 428.713 445.964C429.592 443.21 431.021 440.673 432.908 438.514L423.618 429.764H414.477C411.537 433.106 409.315 437.042 407.951 441.318C406.588 445.594 406.115 450.114 406.562 454.588C407.51 464.099 411.831 472.923 418.707 479.39C425.582 485.858 434.535 489.521 443.87 489.686L447.791 489.248L448.162 493.738L457.304 493.757Z" fill="#407BFF"/>
<path d="M442.202 419.796C441.849 415.535 441.719 414.089 441.347 409.733H432.206C427.823 409.675 423.477 410.562 419.45 412.335C415.424 414.108 411.806 416.728 408.832 420.024L418.122 428.775H427.338C430.196 425.575 433.978 423.396 438.133 422.555C438.374 425.332 438.541 427.177 438.932 431.857C444.991 431.967 450.8 434.354 455.253 438.562C459.707 442.771 462.494 448.509 463.086 454.684H484.323C483.37 445.174 479.049 436.35 472.175 429.88C465.301 423.41 456.35 419.741 447.014 419.568L442.202 419.796Z" fill="#263238"/>
<path d="M457.304 493.757C461.7 493.843 466.063 492.969 470.103 491.193C474.143 489.416 477.767 486.779 480.733 483.456C483.699 480.133 485.939 476.201 487.304 471.922C488.668 467.643 489.127 463.115 488.648 458.64H467.393C467.917 463.576 466.67 468.539 463.884 472.603C461.098 476.667 456.962 479.554 452.25 480.726L451.953 477.34C445.894 477.225 440.088 474.838 435.635 470.63C431.183 466.422 428.394 460.686 427.799 454.512C427.522 451.629 427.833 448.718 428.713 445.964C429.592 443.21 431.021 440.673 432.908 438.514L423.618 429.764H414.477C411.537 433.106 409.315 437.042 407.951 441.318C406.588 445.594 406.115 450.114 406.562 454.588C407.51 464.099 411.831 472.923 418.707 479.39C425.582 485.858 434.535 489.521 443.87 489.686L447.791 489.248L448.162 493.738L457.304 493.757Z" fill="#263238"/>
<path d="M476.539 458.641C476.86 461.544 476.571 464.484 475.693 467.264C474.814 470.044 473.367 472.6 471.446 474.76C469.525 476.921 467.176 478.638 464.555 479.794C461.935 480.951 459.103 481.522 456.25 481.468L457.309 493.833C461.712 493.921 466.082 493.045 470.128 491.264C474.174 489.483 477.801 486.839 480.769 483.507C483.736 480.176 485.974 476.234 487.334 471.946C488.694 467.657 489.144 463.121 488.654 458.641H476.539Z" fill="#407BFF"/>
<path opacity="0.3" d="M476.539 458.641C476.86 461.544 476.571 464.484 475.693 467.264C474.814 470.044 473.367 472.6 471.446 474.76C469.525 476.921 467.176 478.638 464.555 479.794C461.935 480.951 459.103 481.522 456.25 481.468L457.309 493.833C461.712 493.921 466.082 493.045 470.128 491.264C474.174 489.483 477.801 486.839 480.769 483.507C483.736 480.176 485.974 476.234 487.334 471.946C488.694 467.657 489.144 463.121 488.654 458.641H476.539Z" fill="black"/>
<path d="M447.016 419.473C456.352 419.646 465.302 423.314 472.177 429.785C479.051 436.255 483.372 445.079 484.324 454.589H472.229C471.637 448.413 468.85 442.676 464.396 438.467C459.943 434.258 454.134 431.872 448.075 431.761C447.554 425.693 447.443 424.438 447.016 419.473Z" fill="#407BFF"/>
<path d="M432.914 438.514C431.014 440.681 429.577 443.229 428.694 445.997C427.811 448.765 427.502 451.691 427.786 454.588C428.382 460.762 431.17 466.498 435.623 470.706C440.075 474.914 445.882 477.301 451.94 477.416L452.999 489.781C443.664 489.611 434.713 485.943 427.842 479.472C420.97 473.001 416.653 464.175 415.709 454.665C415.252 450.178 415.72 445.643 417.083 441.353C418.447 437.064 420.675 433.115 423.624 429.764L432.914 438.514Z" fill="#407BFF"/>
<path d="M427.337 428.813L418.047 420.062C421.022 416.769 424.641 414.153 428.667 412.383C432.694 410.613 437.039 409.73 441.421 409.79C441.848 414.755 441.959 416.01 442.48 422.155C439.641 422.116 436.826 422.689 434.217 423.836C431.608 424.983 429.264 426.678 427.337 428.813Z" fill="#407BFF"/>
<path opacity="0.5" d="M427.337 428.813L418.047 420.062C421.022 416.769 424.641 414.153 428.667 412.383C432.694 410.613 437.039 409.73 441.421 409.79C441.848 414.755 441.959 416.01 442.48 422.155C439.641 422.116 436.826 422.689 434.217 423.836C431.608 424.983 429.264 426.678 427.337 428.813Z" fill="white"/>
<path d="M742.625 440.227L674.213 385.061C682.835 373.111 686.575 358.196 684.643 343.472C682.712 328.748 675.259 315.372 663.863 306.176C652.468 296.98 638.024 292.685 623.589 294.201C609.155 295.717 595.864 302.925 586.529 314.299C577.195 325.672 572.55 340.319 573.578 355.137C574.606 369.956 581.227 383.783 592.038 393.691C602.849 403.6 617.003 408.812 631.501 408.223C646 407.635 659.706 401.292 669.717 390.539L734.598 450.081C735.223 450.651 735.952 451.088 736.744 451.365C737.536 451.642 738.375 451.754 739.21 451.694C740.044 451.634 740.859 451.402 741.605 451.014C742.351 450.626 743.014 450.089 743.554 449.434C744.105 448.777 744.52 448.012 744.773 447.185C745.026 446.358 745.112 445.487 745.025 444.626C744.938 443.764 744.68 442.929 744.267 442.173C743.855 441.417 743.296 440.755 742.625 440.227ZM597.218 390.025C589.676 383.53 584.185 374.89 581.438 365.199C578.692 355.508 578.814 345.201 581.79 335.582C584.765 325.962 590.459 317.461 598.153 311.155C605.847 304.849 615.194 301.02 625.014 300.153C634.833 299.285 644.683 301.419 653.318 306.283C661.952 311.147 668.985 318.523 673.525 327.479C678.065 336.435 679.91 346.569 678.825 356.598C677.741 366.627 673.776 376.102 667.432 383.824C663.223 388.957 658.068 393.189 652.261 396.281C646.454 399.373 640.108 401.262 633.588 401.842C627.067 402.421 620.499 401.679 614.258 399.658C608.017 397.637 602.227 394.377 597.218 390.064V390.025Z" fill="#263238"/>
<path opacity="0.5" d="M742.625 440.227L674.213 385.061C682.835 373.111 686.575 358.196 684.643 343.472C682.712 328.748 675.259 315.372 663.863 306.176C652.468 296.98 638.024 292.685 623.589 294.201C609.155 295.717 595.864 302.925 586.529 314.299C577.195 325.672 572.55 340.319 573.578 355.137C574.606 369.956 581.227 383.783 592.038 393.691C602.849 403.6 617.003 408.812 631.501 408.223C646 407.635 659.706 401.292 669.717 390.539L734.598 450.081C735.223 450.651 735.952 451.088 736.744 451.365C737.536 451.642 738.375 451.754 739.21 451.694C740.044 451.634 740.859 451.402 741.605 451.014C742.351 450.626 743.014 450.089 743.554 449.434C744.105 448.777 744.52 448.012 744.773 447.185C745.026 446.358 745.112 445.487 745.025 444.626C744.938 443.764 744.68 442.929 744.267 442.173C743.855 441.417 743.296 440.755 742.625 440.227ZM597.218 390.025C589.676 383.53 584.185 374.89 581.438 365.199C578.692 355.508 578.814 345.201 581.79 335.582C584.765 325.962 590.459 317.461 598.153 311.155C605.847 304.849 615.194 301.02 625.014 300.153C634.833 299.285 644.683 301.419 653.318 306.283C661.952 311.147 668.985 318.523 673.525 327.479C678.065 336.435 679.91 346.569 678.825 356.598C677.741 366.627 673.776 376.102 667.432 383.824C663.223 388.957 658.068 393.189 652.261 396.281C646.454 399.373 640.108 401.262 633.588 401.842C627.067 402.421 620.499 401.679 614.258 399.658C608.017 397.637 602.227 394.377 597.218 390.064V390.025Z" fill="white"/>
<path d="M629.583 326.09L620.627 341.841L606.859 333.375L618.342 312.926H641.288L629.583 326.09Z" fill="#407BFF"/>
<path d="M610.763 360.864H628.433V377.3H605.264C601.548 370.965 597.219 363.204 593.781 356.869L610.763 360.864Z" fill="#407BFF"/>
<path d="M593.781 356.87L600.433 344.885L596.996 342.698C596.798 342.57 596.647 342.38 596.564 342.156C596.482 341.933 596.472 341.688 596.537 341.458C596.602 341.229 596.738 341.027 596.925 340.884C597.111 340.74 597.338 340.662 597.572 340.662H612.138C612.414 340.664 612.685 340.743 612.92 340.891C613.156 341.038 613.348 341.249 613.476 341.499L619.589 353.636C619.692 353.854 619.724 354.101 619.679 354.34C619.633 354.578 619.514 354.795 619.338 354.958C619.162 355.121 618.939 355.221 618.703 355.243C618.467 355.265 618.23 355.209 618.028 355.081L615.13 353.179C613.978 355.081 612.361 357.878 610.763 360.94L593.781 356.87Z" fill="#407BFF"/>
<path opacity="0.3" d="M593.781 356.87L600.433 344.885L596.996 342.698C596.798 342.57 596.647 342.38 596.564 342.156C596.482 341.933 596.472 341.688 596.537 341.458C596.602 341.229 596.738 341.027 596.925 340.884C597.111 340.74 597.338 340.662 597.572 340.662H612.138C612.414 340.664 612.685 340.743 612.92 340.891C613.156 341.038 613.348 341.249 613.476 341.499L619.589 353.636C619.692 353.854 619.724 354.101 619.679 354.34C619.633 354.578 619.514 354.795 619.338 354.958C619.162 355.121 618.939 355.221 618.703 355.243C618.467 355.265 618.23 355.209 618.028 355.081L615.13 353.179C613.978 355.081 612.361 357.878 610.763 360.94L593.781 356.87Z" fill="black"/>
</svg>
