<svg width="496" height="107" viewBox="0 0 496 107" fill="none" xmlns="http://www.w3.org/2000/svg">
<path d="M66.7384 23.0997C66.7384 35.5837 56.6228 45.6993 44.1387 45.6993C31.6547 45.6993 21.5391 35.5837 21.5391 23.0997C21.5391 10.6156 31.6547 0.5 44.1387 0.5C56.6228 0.5 66.7384 10.6247 66.7384 23.0997Z" fill="white"/>
<path d="M53.9211 19.4108H48.0813V19.1397C48.0813 18.1453 48.2802 17.3226 48.678 16.6808C49.0757 16.0299 49.7628 15.4604 50.7572 14.9542L51.2091 14.7282C52.0137 14.3214 52.2216 13.9688 52.2216 13.553C52.2216 13.0558 51.7877 12.6942 51.0916 12.6942C50.26 12.6942 49.6362 13.1281 49.2023 14.005L48.0813 12.8841C48.3254 12.3597 48.7232 11.9439 49.2475 11.6094C49.7808 11.275 50.3684 11.1122 51.0103 11.1122C51.8148 11.1122 52.5109 11.3202 53.0804 11.7541C53.668 12.188 53.9573 12.7846 53.9573 13.5349C53.9573 14.7372 53.2793 15.4695 52.0137 16.1203L51.2995 16.4819C50.5402 16.8616 50.1696 17.2051 50.0611 17.8108H53.9211V19.4108ZM53.4058 21.255H47.0146L43.8236 26.7874H50.2148L53.4149 32.3198L56.6059 26.7874L53.4058 21.255ZM44.375 30.4847C40.3071 30.4847 36.9985 27.1761 36.9985 23.1082C36.9985 19.0402 40.3071 15.7316 44.375 15.7316L46.9062 10.4433C46.0835 10.2806 45.2428 10.1992 44.375 10.1992C37.2425 10.1992 31.457 15.9847 31.457 23.1082C31.457 30.2406 37.2335 36.0261 44.375 36.0261C47.2135 36.0261 49.8441 35.1041 51.9775 33.5492L49.1752 28.7038C47.8915 29.8067 46.2101 30.4847 44.375 30.4847Z" fill="#FF492C"/>
<path d="M7.88389 67.6326L9.88155 71.6937L14.3471 72.3451C14.4038 72.3535 14.457 72.3776 14.5007 72.4146C14.5445 72.4516 14.577 72.5001 14.5946 72.5547C14.6123 72.6092 14.6144 72.6675 14.6006 72.7232C14.5869 72.7788 14.558 72.8295 14.517 72.8695L11.2863 76.0299L12.049 80.4934C12.0589 80.5498 12.0527 80.6078 12.0312 80.6609C12.0097 80.714 11.9738 80.76 11.9275 80.7938C11.8812 80.8275 11.8264 80.8475 11.7693 80.8517C11.7122 80.8558 11.655 80.8439 11.6043 80.8172L7.60994 78.7103L3.61554 80.8178C3.5649 80.8446 3.50776 80.8566 3.45062 80.8526C3.39348 80.8485 3.33863 80.8284 3.2923 80.7947C3.24598 80.761 3.21004 80.715 3.18857 80.6619C3.1671 80.6088 3.16096 80.5507 3.17084 80.4943L3.93362 76.0299L0.702003 72.8695C0.661028 72.8295 0.632048 72.7788 0.618328 72.7232C0.604607 72.6675 0.606691 72.6092 0.624345 72.5547C0.641998 72.5001 0.67452 72.4516 0.718248 72.4146C0.761976 72.3776 0.815173 72.3535 0.871848 72.3451L5.33743 71.6937L7.336 67.6326C7.36093 67.5812 7.39984 67.5378 7.44829 67.5074C7.49674 67.477 7.55276 67.4609 7.60994 67.4609C7.66713 67.4609 7.72315 67.477 7.7716 67.5074C7.82005 67.5378 7.85896 67.5812 7.88389 67.6326Z" fill="#BFDBFE"/>
<path d="M26.3526 67.6326L28.3503 71.6937L32.8159 72.3451C32.8726 72.3535 32.9258 72.3776 32.9695 72.4146C33.0132 72.4516 33.0457 72.5001 33.0634 72.5547C33.081 72.6092 33.0831 72.6675 33.0694 72.7232C33.0557 72.7788 33.0267 72.8295 32.9857 72.8695L29.755 76.0299L30.5178 80.4934C30.5276 80.5498 30.5215 80.6078 30.5 80.6609C30.4785 80.714 30.4426 80.76 30.3963 80.7938C30.35 80.8275 30.2952 80.8475 30.238 80.8517C30.1809 80.8558 30.1238 80.8439 30.0731 80.8172L26.0787 78.7103L22.0843 80.8178C22.0336 80.8446 21.9765 80.8566 21.9194 80.8526C21.8622 80.8485 21.8074 80.8284 21.7611 80.7947C21.7147 80.761 21.6788 80.715 21.6573 80.6619C21.6359 80.6088 21.6297 80.5507 21.6396 80.4943L22.4024 76.0299L19.1708 72.8695C19.1298 72.8295 19.1008 72.7788 19.0871 72.7232C19.0734 72.6675 19.0754 72.6092 19.0931 72.5547C19.1107 72.5001 19.1433 72.4516 19.187 72.4146C19.2307 72.3776 19.2839 72.3535 19.3406 72.3451L23.8062 71.6937L25.8048 67.6326C25.8297 67.5812 25.8686 67.5378 25.917 67.5074C25.9655 67.477 26.0215 67.4609 26.0787 67.4609C26.1359 67.4609 26.1919 67.477 26.2403 67.5074C26.2888 67.5378 26.3277 67.5812 26.3526 67.6326Z" fill="#BFDBFE"/>
<path d="M44.8058 67.6326L46.8034 71.6937L51.269 72.3451C51.3257 72.3535 51.3789 72.3776 51.4226 72.4146C51.4663 72.4516 51.4989 72.5001 51.5165 72.5547C51.5342 72.6092 51.5362 72.6675 51.5225 72.7232C51.5088 72.7788 51.4798 72.8295 51.4388 72.8695L48.2081 76.0299L48.9709 80.4934C48.9808 80.5498 48.9746 80.6078 48.9531 80.6609C48.9316 80.714 48.8957 80.76 48.8494 80.7938C48.8031 80.8275 48.7483 80.8475 48.6912 80.8517C48.634 80.8558 48.5769 80.8439 48.5262 80.8172L44.5318 78.7103L40.5374 80.8178C40.4868 80.8446 40.4296 80.8566 40.3725 80.8526C40.3154 80.8485 40.2605 80.8284 40.2142 80.7947C40.1679 80.761 40.1319 80.715 40.1104 80.6619C40.089 80.6088 40.0828 80.5507 40.0927 80.4943L40.8555 76.0299L37.6239 72.8695C37.5829 72.8295 37.5539 72.7788 37.5402 72.7232C37.5265 72.6675 37.5286 72.6092 37.5462 72.5547C37.5639 72.5001 37.5964 72.4516 37.6401 72.4146C37.6839 72.3776 37.737 72.3535 37.7937 72.3451L42.2593 71.6937L44.2579 67.6326C44.2828 67.5812 44.3217 67.5378 44.3702 67.5074C44.4186 67.477 44.4746 67.4609 44.5318 67.4609C44.589 67.4609 44.645 67.477 44.6935 67.5074C44.7419 67.5378 44.7808 67.5812 44.8058 67.6326Z" fill="#BFDBFE"/>
<path d="M63.2745 67.6326L65.2722 71.6937L69.7378 72.3451C69.7944 72.3535 69.8476 72.3776 69.8914 72.4146C69.9351 72.4516 69.9676 72.5001 69.9853 72.5547C70.0029 72.6092 70.005 72.6675 69.9913 72.7232C69.9776 72.7788 69.9486 72.8295 69.9076 72.8695L66.6769 76.0299L67.4397 80.4934C67.4495 80.5498 67.4433 80.6078 67.4219 80.6609C67.4004 80.714 67.3644 80.76 67.3182 80.7938C67.2719 80.8275 67.217 80.8475 67.1599 80.8517C67.1028 80.8558 67.0457 80.8439 66.995 80.8172L63.0006 78.7103L59.0062 80.8178C58.9555 80.8446 58.8984 80.8566 58.8412 80.8526C58.7841 80.8485 58.7293 80.8284 58.6829 80.7947C58.6366 80.761 58.6007 80.715 58.5792 80.6619C58.5577 80.6088 58.5516 80.5507 58.5615 80.4943L59.3242 76.0299L56.0926 72.8695C56.0517 72.8295 56.0227 72.7788 56.009 72.7232C55.9952 72.6675 55.9973 72.6092 56.015 72.5547C56.0326 72.5001 56.0651 72.4516 56.1089 72.4146C56.1526 72.3776 56.2058 72.3535 56.2625 72.3451L60.7281 71.6937L62.7266 67.6326C62.7516 67.5812 62.7905 67.5378 62.8389 67.5074C62.8874 67.477 62.9434 67.4609 63.0006 67.4609C63.0578 67.4609 63.1138 67.477 63.1622 67.5074C63.2107 67.5378 63.2496 67.5812 63.2745 67.6326Z" fill="#BFDBFE"/>
<path d="M81.7433 67.6326L83.7409 71.6937L88.2065 72.3451C88.2632 72.3535 88.3164 72.3776 88.3601 72.4146C88.4038 72.4516 88.4364 72.5001 88.454 72.5547C88.4717 72.6092 88.4737 72.6675 88.46 72.7232C88.4463 72.7788 88.4173 72.8295 88.3763 72.8695L85.1456 76.0299L85.9084 80.4934C85.9183 80.5498 85.9121 80.6078 85.8906 80.6609C85.8691 80.714 85.8332 80.76 85.7869 80.7938C85.7406 80.8275 85.6858 80.8475 85.6287 80.8517C85.5715 80.8558 85.5144 80.8439 85.4637 80.8172L81.4693 78.7103L77.4749 80.8178C77.4243 80.8446 77.3671 80.8566 77.31 80.8526C77.2529 80.8485 77.198 80.8284 77.1517 80.7947C77.1054 80.761 77.0694 80.715 77.0479 80.6619C77.0265 80.6088 77.0203 80.5507 77.0302 80.4943L77.793 76.0299L74.5614 72.8695C74.5204 72.8295 74.4914 72.7788 74.4777 72.7232C74.464 72.6675 74.4661 72.6092 74.4837 72.5547C74.5014 72.5001 74.5339 72.4516 74.5776 72.4146C74.6214 72.3776 74.6745 72.3535 74.7312 72.3451L79.1968 71.6937L81.1954 67.6326C81.2203 67.5812 81.2592 67.5378 81.3077 67.5074C81.3561 67.477 81.4121 67.4609 81.4693 67.4609C81.5265 67.4609 81.5825 67.477 81.631 67.5074C81.6794 67.5378 81.7183 67.5812 81.7433 67.6326Z" fill="#BFDBFE"/>
<path d="M8.67822 102.062V99.8665H4.33422V99.0865L8.33022 93.4105H9.65022V99.0505H10.8502V99.8665H9.65022V102.062H8.67822ZM5.35422 99.0505H8.67822V94.3465L5.35422 99.0505ZM15.5507 102.159C14.0147 102.159 13.0067 101.294 12.8747 99.9385H13.8107C13.9067 100.778 14.5787 101.306 15.5627 101.306C17.3147 101.306 17.6507 99.7945 17.6507 97.5265H17.6027C17.3147 98.4145 16.4987 99.0265 15.3227 99.0265C13.7387 99.0265 12.6587 97.8985 12.6587 96.2065C12.6587 94.3945 13.8707 93.3025 15.5987 93.3025C17.6147 93.3025 18.6227 94.7305 18.6227 97.3465C18.6227 100.91 17.5427 102.159 15.5507 102.159ZM15.5387 98.2585C16.7747 98.2585 17.4947 97.3585 17.4947 96.1585C17.4947 94.9225 16.7387 94.1545 15.5627 94.1545C14.4227 94.1545 13.6547 94.9825 13.6547 96.2305C13.6547 97.4905 14.4227 98.2585 15.5387 98.2585ZM24.7413 102.062V93.3145H28.7013C30.5493 93.3145 31.5213 94.1665 31.5213 95.6785C31.5213 96.7465 30.9813 97.5265 29.9613 97.8025V97.8865C30.9453 98.0545 31.3293 98.6305 31.3293 99.6265V101.138C31.3293 101.426 31.3293 101.738 31.4613 102.062H30.4293C30.3213 101.822 30.2973 101.51 30.2973 101.102V99.8065C30.2973 98.8465 29.9613 98.3545 28.6293 98.3545H25.7613V102.062H24.7413ZM25.7613 97.5145H28.5693C29.9253 97.5145 30.4653 96.8065 30.4653 95.8105C30.4653 94.6705 29.7093 94.1905 28.5693 94.1905H25.7613V97.5145ZM34.133 102.062V93.3145H40.145V94.2145H35.153V97.1665H39.557V98.0065H35.153V101.15H40.157V102.062H34.133ZM44.7249 102.062L41.4729 93.3145H42.6129L44.9289 99.7465L45.3849 101.102H45.4689L45.9249 99.7585L48.2649 93.3145H49.3809L46.1289 102.062H44.7249ZM51.4047 102.062V93.3145H52.4247V102.062H51.4047ZM55.5113 102.062V93.3145H61.5233V94.2145H56.5313V97.1665H60.9353V98.0065H56.5313V101.15H61.5353V102.062H55.5113ZM65.0901 102.062L63.1101 93.3145H64.2261L65.3181 98.3785L65.8461 100.934H65.9181L67.9701 93.3145H69.3021L71.3661 100.946H71.4501L71.9541 98.3785L73.0341 93.3145H74.1501L72.1701 102.062H70.7421L68.6661 94.5865H68.5941L66.5181 102.062H65.0901ZM79.0723 102.171C76.7683 102.171 75.7003 100.994 75.6643 99.3385H76.7323C76.7563 100.574 77.4763 101.342 79.0843 101.342C80.4403 101.342 81.3403 100.85 81.3403 99.8065C81.3403 98.6665 80.6923 98.3185 78.9043 98.0185C76.9123 97.6585 75.8803 97.1185 75.8803 95.6305C75.8803 94.1545 77.0443 93.2185 79.0003 93.2185C80.9803 93.2185 82.0963 94.2265 82.1203 95.7505H81.0763C81.0283 94.6105 80.2243 94.0225 78.9523 94.0225C77.6683 94.0225 76.9363 94.6105 76.9363 95.4865C76.9363 96.5425 77.6323 96.7825 79.3963 97.0945C80.9923 97.3705 82.4083 97.7545 82.4083 99.7105C82.4083 101.174 81.2323 102.171 79.0723 102.171Z" fill="white"/>
<path d="M180.992 102.062V93.3145H182.012V102.062H180.992ZM187.942 102.171C185.638 102.171 184.57 100.994 184.534 99.3385H185.602C185.626 100.574 186.346 101.342 187.954 101.342C189.31 101.342 190.21 100.85 190.21 99.8065C190.21 98.6665 189.562 98.3185 187.774 98.0185C185.782 97.6585 184.75 97.1185 184.75 95.6305C184.75 94.1545 185.914 93.2185 187.87 93.2185C189.85 93.2185 190.966 94.2265 190.99 95.7505H189.946C189.898 94.6105 189.094 94.0225 187.822 94.0225C186.538 94.0225 185.806 94.6105 185.806 95.4865C185.806 96.5425 186.502 96.7825 188.266 97.0945C189.862 97.3705 191.278 97.7545 191.278 99.7105C191.278 101.174 190.102 102.171 187.942 102.171ZM197.564 102.171C194.984 102.171 193.292 100.43 193.292 97.6945C193.292 94.9465 194.996 93.2185 197.564 93.2185C200.144 93.2185 201.848 94.9465 201.848 97.6945C201.848 100.442 200.132 102.171 197.564 102.171ZM197.564 101.271C199.544 101.271 200.792 99.9025 200.792 97.6945C200.792 95.4745 199.544 94.1185 197.564 94.1185C195.584 94.1185 194.348 95.4745 194.348 97.6945C194.348 99.9145 195.596 101.271 197.564 101.271ZM208.072 102.062V99.8665H203.728V99.0865L207.724 93.4105H209.044V99.0505H210.244V99.8665H209.044V102.062H208.072ZM204.748 99.0505H208.072V94.3465L204.748 99.0505ZM214.884 102.171C213.12 102.171 212.016 101.066 212.04 99.4105H212.988C212.952 100.55 213.708 101.318 214.884 101.318C216.048 101.318 216.816 100.646 216.816 99.6025C216.816 98.5105 216.108 97.9825 215.052 97.9825H214.164V97.2145H215.016C216.108 97.2145 216.684 96.5425 216.684 95.6545C216.684 94.6945 215.976 94.1545 214.92 94.1545C213.732 94.1545 213.06 94.8985 213.048 96.0265H212.112C212.088 94.3825 213.216 93.3025 214.944 93.3025C216.624 93.3025 217.692 94.1905 217.692 95.5585C217.692 96.5425 217.128 97.2745 216.288 97.5385V97.5985C217.26 97.8265 217.824 98.6065 217.824 99.6745C217.824 101.174 216.648 102.171 214.884 102.171ZM222.839 102.171C220.967 102.171 219.755 100.586 219.755 97.7305C219.755 94.8385 220.991 93.3145 222.839 93.3145C224.687 93.3145 225.887 94.8865 225.887 97.7305C225.887 100.622 224.651 102.171 222.839 102.171ZM222.827 101.33C224.135 101.33 224.903 100.166 224.903 97.7305C224.903 95.3065 224.135 94.1425 222.827 94.1425C221.507 94.1425 220.739 95.2945 220.739 97.7305C220.739 100.166 221.507 101.33 222.827 101.33ZM230.707 102.171C228.835 102.171 227.623 100.586 227.623 97.7305C227.623 94.8385 228.859 93.3145 230.707 93.3145C232.555 93.3145 233.755 94.8865 233.755 97.7305C233.755 100.622 232.519 102.171 230.707 102.171ZM230.695 101.33C232.003 101.33 232.771 100.166 232.771 97.7305C232.771 95.3065 232.003 94.1425 230.695 94.1425C229.375 94.1425 228.607 95.2945 228.607 97.7305C228.607 100.166 229.375 101.33 230.695 101.33ZM238.647 102.147C236.823 102.147 235.587 101.234 235.587 99.7945C235.587 98.7865 236.235 97.8745 237.435 97.7185V97.6705C236.283 97.4785 235.743 96.6025 235.743 95.6305C235.743 94.2265 236.859 93.3145 238.647 93.3145C240.435 93.3145 241.563 94.2505 241.563 95.6425C241.563 96.6145 241.035 97.5025 239.871 97.6705V97.7185C241.059 97.8385 241.695 98.7145 241.695 99.7825C241.695 101.222 240.459 102.147 238.647 102.147ZM238.647 97.2985C240.003 97.2985 240.567 96.5905 240.567 95.7265C240.567 94.7305 239.799 94.1305 238.647 94.1305C237.459 94.1305 236.751 94.7545 236.751 95.7265C236.751 96.6385 237.327 97.2985 238.647 97.2985ZM238.647 101.306C239.871 101.306 240.651 100.658 240.651 99.6625C240.651 98.7625 240.015 98.1145 238.647 98.1145C237.255 98.1145 236.643 98.8225 236.643 99.6625C236.643 100.694 237.447 101.306 238.647 101.306ZM251.387 102.171C248.831 102.171 247.151 100.418 247.151 97.6945C247.151 94.9585 248.843 93.2185 251.387 93.2185C253.499 93.2185 255.035 94.3825 255.311 96.2065H254.267C254.027 94.9825 252.947 94.1185 251.387 94.1185C249.419 94.1185 248.207 95.4625 248.207 97.6945C248.207 99.9145 249.419 101.271 251.387 101.271C252.947 101.271 254.051 100.43 254.267 99.1345L255.311 99.1465C255.071 100.982 253.523 102.171 251.387 102.171ZM257.764 102.062V93.3145H263.776V94.2145H258.784V97.1665H263.188V98.0065H258.784V101.15H263.788V102.062H257.764ZM266.359 102.062V93.3145H270.319C272.167 93.3145 273.139 94.1665 273.139 95.6785C273.139 96.7465 272.599 97.5265 271.579 97.8025V97.8865C272.563 98.0545 272.947 98.6305 272.947 99.6265V101.138C272.947 101.426 272.947 101.738 273.079 102.062H272.047C271.939 101.822 271.915 101.51 271.915 101.102V99.8065C271.915 98.8465 271.579 98.3545 270.247 98.3545H267.379V102.062H266.359ZM267.379 97.5145H270.187C271.543 97.5145 272.083 96.8065 272.083 95.8105C272.083 94.6705 271.327 94.1905 270.187 94.1905H267.379V97.5145ZM277.34 102.062V94.2145H274.508V93.3145H281.216V94.2145H278.372V102.062H277.34ZM283.291 102.062V93.3145H284.311V102.062H283.291ZM287.397 102.062V93.3145H293.385V94.2145H288.417V97.3225H292.905V98.1745H288.417V102.062H287.397ZM295.711 102.062V93.3145H296.731V102.062H295.711ZM299.818 102.062V93.3145H305.83V94.2145H300.838V97.1665H305.242V98.0065H300.838V101.15H305.842V102.062H299.818ZM308.412 102.062V93.3145H311.856C314.328 93.3145 315.78 95.0545 315.78 97.6945C315.78 100.322 314.328 102.062 311.856 102.062H308.412ZM309.432 101.162H311.724C313.56 101.162 314.724 99.9505 314.724 97.6705C314.724 95.3785 313.524 94.2145 311.724 94.2145H309.432V101.162Z" fill="white"/>
<path d="M288.139 26.7771C287.358 24.7273 285.755 22.8974 283.803 21.5778C278.17 18.0013 269.584 17.7457 263.779 20.9799C260.613 22.5939 258.532 25.7881 257.885 29.0775C256.71 34.4818 257.014 40.9119 261.177 44.9624C266.033 49.2184 273.098 50.1587 279.381 48.4106C279.68 48.3531 280.626 48.1153 281.278 47.7688L281.462 47.69C283.414 46.8789 285.275 45.5573 286.664 43.7704C289.871 39.082 290.091 32.0567 288.139 26.7771ZM277.909 38.9127C277.687 39.9374 276.998 40.9991 275.911 41.3843C274.18 42.1456 271.839 41.9346 270.235 41.0441C268.889 40.1037 268.717 38.5294 268.543 37.0411C268.412 34.1048 268.2 30.9953 269.023 28.3107C269.668 26.6478 271.446 26.2202 273.054 26.0946C274.743 26.0946 276.387 26.3525 277.431 27.7145C278.08 28.6919 278.04 29.9703 278.169 31.1216C278.124 33.5464 278.342 36.44 277.909 38.9127Z" fill="#EFF6FF"/>
<path d="M226.543 41.5573C225.111 41.47 223.508 41.5954 222.123 41.4261L222.165 26.4736L222.253 26.3493L226.543 26.3073C226.587 23.8792 226.63 21.2773 226.498 19.0655L210.16 19.0195L207.469 19.0665C207.425 21.3212 207.425 23.959 207.469 26.2617C208.944 26.3073 210.329 26.2617 211.76 26.3949V40.8758L211.718 41.471L207.425 41.5583C207.338 43.9004 207.338 46.2431 207.425 48.5865H226.542V41.5573H226.543Z" fill="#EFF6FF"/>
<path d="M250.086 0.622359L250.04 0.705043L249.95 0.622359C248.782 0.497019 247.346 0.447474 246.09 0.572814C245.615 0.536065 245.053 0.572814 244.488 0.622359C234.087 1.42656 224.508 6.75414 218.523 15.8232C218.957 15.7822 219.477 15.9544 219.912 15.7822C220.984 14.2984 222.157 12.8901 223.423 11.5672C224.546 10.5025 225.59 9.48044 226.805 8.71036C227.933 9.43221 229.189 10.0366 230.272 10.7155C228.93 12.3685 227.542 14.037 226.545 15.8212C226.847 15.9544 227.413 15.9124 227.847 15.8212C228.93 14.2479 230.097 12.6713 231.489 11.2657C233.348 11.9495 235.171 12.6713 237.081 13.1842L237.249 13.3535L236.17 15.8212C236.648 15.9124 236.952 15.8678 237.425 15.8212C237.814 15.1017 238.114 14.2945 238.549 13.5664C241.066 14.1242 243.711 14.4195 246.399 14.5016C246.743 14.8041 246.484 15.44 246.615 15.8212H247.785C247.912 15.4029 247.741 14.9284 247.912 14.5495C250.429 14.4182 253.071 14.1613 255.507 13.5651L255.718 13.6097L256.889 15.8199C257.28 15.8199 257.799 15.9111 258.103 15.7323L257.017 13.2685L257.108 13.1829C259.098 12.6713 260.965 11.9052 262.872 11.14C264.219 12.545 265.473 14.2059 266.603 15.8189C267.078 15.8189 267.555 15.8655 267.902 15.7313C267.367 14.7804 266.743 13.8824 266.038 13.0497C265.464 12.2336 264.824 11.4662 264.125 10.7552V10.5347L267.16 8.79107L267.597 8.62111C270.236 10.6185 272.546 13.0176 274.442 15.7307C274.962 15.7307 275.396 15.9095 275.831 15.6946C270.018 7.0127 260.44 1.42656 250.086 0.622359ZM231.268 9.68748C230.098 9.26946 229.018 8.62669 227.974 7.90352V7.81986C230.708 5.81836 233.74 4.32906 236.949 3.30633C237.08 3.17311 237.164 3.04745 237.335 3.04745V3.13505C237.681 3.21872 237.943 2.83253 238.245 3.08551C238.508 3.30633 238.813 3.47432 239.027 3.68628C236.342 5.34424 233.696 7.30734 231.268 9.68748ZM237.904 12.0397L237.731 12.0768C235.952 11.6128 234.216 11.0537 232.569 10.3322L232.653 10.0766C235.037 7.81986 237.55 5.94239 240.325 4.49869C240.978 4.75429 241.628 4.96527 242.277 5.26779L242.15 5.60017C240.501 7.65121 239.202 9.86072 237.904 12.0397ZM246.527 13.1862C245.317 13.3561 244.232 13.1481 243.014 13.0549C241.849 12.8836 240.372 12.7596 239.202 12.3714C240.46 10.0395 241.936 7.77786 243.711 5.69631L246.486 6.07429C246.615 8.28446 246.527 10.8418 246.527 13.1862ZM240.548 3.08748C240.325 2.91718 239.897 2.8345 239.85 2.53624C244.447 1.47611 249.862 1.3908 254.418 2.53624V2.62648C250.644 5.34424 244.534 5.60082 240.548 3.08748ZM247.87 13.2318C247.784 10.9678 247.829 8.45771 247.87 6.11432C248.74 5.98997 249.689 5.85774 250.558 5.73207C252.248 7.85857 253.899 10.0386 255.027 12.3705C252.684 12.9374 250.281 13.2265 247.87 13.2318ZM261.702 10.2459C260.007 10.9678 258.272 11.6493 256.411 12.0401C255.068 9.7823 253.595 7.52554 251.943 5.34457C252.551 5.01088 253.292 4.75396 253.94 4.41601C256.762 5.82 259.49 7.82018 261.785 10.1127L261.702 10.2459ZM266.25 7.90385L263.262 9.56247H263.042C260.749 7.27059 258.062 5.26877 255.328 3.68924C255.414 3.39065 255.85 3.17574 256.151 2.96378C259.793 3.90317 263.216 5.51912 266.337 7.73422L266.25 7.90385Z" fill="#EFF6FF"/>
<path d="M246.571 41.8896C242.497 42.9989 238.073 42.1521 235.127 39.0816C234.782 38.655 234.563 38.1481 234.215 37.7242L228.365 37.7648C228.273 41.2136 228.232 45.1759 228.365 48.585L234.864 48.5434L234.951 46.4976C235.691 46.8378 236.427 47.2627 237.164 47.646C241.672 49.5228 247.475 49.9487 251.941 47.646C255.194 45.862 256.928 42.4129 256.45 38.6996C255.977 35.0815 252.508 31.8004 248.999 30.9089L238.507 27.8821L237.731 27.4969C237.384 27.2016 237.166 26.8203 237.251 26.3485C238.074 24.9461 239.984 25.372 241.414 25.4101C244.448 25.8366 247.568 26.8587 249.346 29.6289C251.251 29.6289 253.461 29.666 255.54 29.5843C255.629 26.0925 255.507 23.028 255.455 19.4916C253.504 19.4466 251.119 19.4466 249.171 19.5362C249.084 20.0428 249.255 20.7643 249.038 21.2775L247.046 20.2121C242.275 18.2106 235.6 18.0019 231.267 21.1115C228.448 23.1523 227.583 26.819 228.321 30.0548C228.881 33.1161 231.829 35.3768 234.647 36.4376C238.505 37.799 242.534 38.785 246.442 40.1033C246.829 40.2766 247.348 40.6611 247.265 41.1303C247.267 41.5083 246.874 41.7271 246.572 41.8896" fill="#EFF6FF"/>
<path d="M274.653 51.7764C272.835 54.3774 270.538 56.8901 268.029 58.8443C267.938 58.9775 267.678 58.927 267.595 58.8046C266.508 58.1248 265.339 57.5686 264.296 56.8901C265.685 55.2301 267.029 53.5696 268.07 51.7308H266.721C265.643 53.3127 264.514 54.9726 263.085 56.3736C261.176 55.6085 259.442 54.9276 257.492 54.4125L257.276 54.2484C257.579 53.3878 258.141 52.58 258.313 51.7272H257.142L255.972 54.0286C253.418 53.4754 250.599 53.1755 247.999 53.0059C247.868 52.6236 248.04 52.0694 247.868 51.7262H246.741C246.652 52.2387 246.872 52.6246 246.61 53.0495C243.922 53.1729 241.322 53.4761 238.811 53.9909L237.636 51.7269C237.207 51.7269 236.725 51.6452 236.425 51.7725L237.508 54.2862L237.379 54.4105C235.436 54.9726 233.526 55.6419 231.657 56.4153L231.485 56.328C230.269 55.0074 229.098 53.5656 228.143 52.1167C227.928 51.3886 227.061 51.8145 226.584 51.7289C227.62 53.6053 229.012 55.2643 230.396 56.9708C229.226 57.6543 228.061 58.4165 226.841 58.9756C224.19 56.9571 221.878 54.5274 219.994 51.7784C219.473 51.6947 219.129 51.7328 218.605 51.7784C221.726 56.6345 226.583 60.8921 231.654 63.4058C231.654 63.4058 231.654 63.3677 231.701 63.3677C231.738 63.3677 231.825 63.4464 231.738 63.4911C235.164 65.153 238.808 66.3456 242.662 66.8585C255.97 68.6027 268.672 62.9408 276.036 51.7784C275.577 51.7309 275.113 51.7303 274.653 51.7764ZM256.581 55.6094L256.708 55.5238C258.579 55.9504 260.35 56.5469 261.999 57.3537C260.611 58.926 258.833 60.2923 257.188 61.4413C256.192 62.0356 255.191 62.6813 254.15 63.1889L252.29 62.3797L252.418 62.0844C253.982 59.9996 255.369 57.8672 256.581 55.6094ZM248.039 54.3298C250.512 54.3764 252.984 54.6313 255.277 55.1829L255.323 55.3122C254.111 57.609 252.59 59.8296 250.946 61.9125C250.205 61.9998 249.515 61.7051 248.781 61.6595L248.04 61.5719C247.954 59.0592 247.908 56.8441 248.039 54.3308V54.3298ZM239.677 55.0956C241.93 54.6691 244.27 54.3295 246.696 54.3295L246.741 61.5355C245.829 61.7416 244.832 61.7416 243.965 61.9621C242.187 59.8697 240.716 57.6109 239.46 55.2666L239.677 55.0956ZM237.982 55.5222L238.158 55.5668C239.411 57.9102 240.974 60.1233 242.533 62.3384C241.931 62.6816 241.191 62.8867 240.586 63.2328C237.655 61.785 234.987 59.8551 232.695 57.5237V57.399C234.389 56.5876 236.164 55.9878 237.982 55.5222H237.982ZM238.288 64.6815C234.646 63.7414 231.263 62.1222 228.143 59.9123V59.7811C229.183 59.1482 230.228 58.4644 231.35 57.9909C233.823 60.4258 236.378 62.2564 239.153 64C238.937 64.2556 238.591 64.5125 238.288 64.6821L238.288 64.6815ZM254.368 65.2343C249.774 66.2187 244.656 66.258 240.065 65.1526C239.977 64.9407 240.282 64.8951 240.411 64.7704C244.442 62.1694 250.724 62.1694 254.673 64.9774C254.803 65.2343 254.455 65.151 254.368 65.2343ZM258.531 64.0459L256.493 64.6828C256.146 64.5128 255.844 64.2562 255.538 64.0003L255.625 63.869C258.4 62.257 260.913 60.2926 263.298 57.9496C264.469 58.4171 265.597 59.0599 266.64 59.7804C264.21 61.7058 261.391 62.9779 258.531 64.0443V64.0459Z" fill="#EFF6FF"/>
<path d="M414.696 67.6326L416.694 71.6937L421.16 72.3451C421.216 72.3535 421.27 72.3776 421.313 72.4146C421.357 72.4516 421.389 72.5001 421.407 72.5547C421.425 72.6092 421.427 72.6675 421.413 72.7232C421.399 72.7788 421.37 72.8295 421.329 72.8695L418.099 76.0299L418.862 80.4934C418.871 80.5498 418.865 80.6078 418.844 80.6609C418.822 80.714 418.786 80.76 418.74 80.7938C418.694 80.8275 418.639 80.8475 418.582 80.8517C418.525 80.8558 418.468 80.8439 418.417 80.8172L414.422 78.7103L410.428 80.8178C410.377 80.8446 410.32 80.8566 410.263 80.8526C410.206 80.8485 410.151 80.8284 410.105 80.7947C410.058 80.761 410.023 80.715 410.001 80.6619C409.98 80.6088 409.973 80.5507 409.983 80.4943L410.746 76.0299L407.515 72.8695C407.474 72.8295 407.445 72.7788 407.431 72.7232C407.417 72.6675 407.419 72.6092 407.437 72.5547C407.454 72.5001 407.487 72.4516 407.531 72.4146C407.574 72.3776 407.628 72.3535 407.684 72.3451L412.15 71.6937L414.149 67.6326C414.173 67.5812 414.212 67.5378 414.261 67.5074C414.309 67.477 414.365 67.4609 414.422 67.4609C414.48 67.4609 414.536 67.477 414.584 67.5074C414.633 67.5378 414.671 67.5812 414.696 67.6326Z" fill="#BFDBFE"/>
<path d="M433.15 67.6326L435.147 71.6937L439.613 72.3451C439.669 72.3535 439.723 72.3776 439.766 72.4146C439.81 72.4516 439.843 72.5001 439.86 72.5547C439.878 72.6092 439.88 72.6675 439.866 72.7232C439.853 72.7788 439.824 72.8295 439.783 72.8695L436.552 76.0299L437.315 80.4934C437.325 80.5498 437.318 80.6078 437.297 80.6609C437.275 80.714 437.239 80.76 437.193 80.7938C437.147 80.8275 437.092 80.8475 437.035 80.8517C436.978 80.8558 436.921 80.8439 436.87 80.8172L432.876 78.7103L428.881 80.8178C428.831 80.8446 428.773 80.8566 428.716 80.8526C428.659 80.8485 428.604 80.8284 428.558 80.7947C428.512 80.761 428.476 80.715 428.454 80.6619C428.433 80.6088 428.427 80.5507 428.436 80.4943L429.199 76.0299L425.968 72.8695C425.927 72.8295 425.898 72.7788 425.884 72.7232C425.87 72.6675 425.872 72.6092 425.89 72.5547C425.908 72.5001 425.94 72.4516 425.984 72.4146C426.028 72.3776 426.081 72.3535 426.137 72.3451L430.603 71.6937L432.602 67.6326C432.627 67.5812 432.665 67.5378 432.714 67.5074C432.762 67.477 432.818 67.4609 432.876 67.4609C432.933 67.4609 432.989 67.477 433.037 67.5074C433.086 67.5378 433.125 67.5812 433.15 67.6326Z" fill="#BFDBFE"/>
<path d="M451.618 67.6326L453.616 71.6937L458.082 72.3451C458.138 72.3535 458.191 72.3776 458.235 72.4146C458.279 72.4516 458.311 72.5001 458.329 72.5547C458.347 72.6092 458.349 72.6675 458.335 72.7232C458.321 72.7788 458.292 72.8295 458.251 72.8695L455.021 76.0299L455.783 80.4934C455.793 80.5498 455.787 80.6078 455.766 80.6609C455.744 80.714 455.708 80.76 455.662 80.7938C455.616 80.8275 455.561 80.8475 455.504 80.8517C455.447 80.8558 455.389 80.8439 455.339 80.8172L451.344 78.7103L447.35 80.8178C447.299 80.8446 447.242 80.8566 447.185 80.8526C447.128 80.8485 447.073 80.8284 447.027 80.7947C446.98 80.761 446.944 80.715 446.923 80.6619C446.901 80.6088 446.895 80.5507 446.905 80.4943L447.668 76.0299L444.436 72.8695C444.395 72.8295 444.366 72.7788 444.353 72.7232C444.339 72.6675 444.341 72.6092 444.359 72.5547C444.376 72.5001 444.409 72.4516 444.453 72.4146C444.496 72.3776 444.55 72.3535 444.606 72.3451L449.072 71.6937L451.07 67.6326C451.095 67.5812 451.134 67.5378 451.183 67.5074C451.231 67.477 451.287 67.4609 451.344 67.4609C451.402 67.4609 451.458 67.477 451.506 67.5074C451.554 67.5378 451.593 67.5812 451.618 67.6326Z" fill="#BFDBFE"/>
<path d="M470.079 67.6326L472.077 71.6937L476.542 72.3451C476.599 72.3535 476.652 72.3776 476.696 72.4146C476.74 72.4516 476.772 72.5001 476.79 72.5547C476.808 72.6092 476.81 72.6675 476.796 72.7232C476.782 72.7788 476.753 72.8295 476.712 72.8695L473.482 76.0299L474.244 80.4934C474.254 80.5498 474.248 80.6078 474.227 80.6609C474.205 80.714 474.169 80.76 474.123 80.7938C474.077 80.8275 474.022 80.8475 473.965 80.8517C473.907 80.8558 473.85 80.8439 473.8 80.8172L469.805 78.7103L465.811 80.8178C465.76 80.8446 465.703 80.8566 465.646 80.8526C465.589 80.8485 465.534 80.8284 465.488 80.7947C465.441 80.761 465.405 80.715 465.384 80.6619C465.362 80.6088 465.356 80.5507 465.366 80.4943L466.129 76.0299L462.897 72.8695C462.856 72.8295 462.827 72.7788 462.814 72.7232C462.8 72.6675 462.802 72.6092 462.82 72.5547C462.837 72.5001 462.87 72.4516 462.914 72.4146C462.957 72.3776 463.01 72.3535 463.067 72.3451L467.533 71.6937L469.531 67.6326C469.556 67.5812 469.595 67.5378 469.644 67.5074C469.692 67.477 469.748 67.4609 469.805 67.4609C469.862 67.4609 469.918 67.477 469.967 67.5074C470.015 67.5378 470.054 67.5812 470.079 67.6326Z" fill="#BFDBFE"/>
<path d="M488.548 67.6326L490.546 71.6937L495.011 72.3451C495.068 72.3535 495.121 72.3776 495.165 72.4146C495.209 72.4516 495.241 72.5001 495.259 72.5547C495.276 72.6092 495.278 72.6675 495.265 72.7232C495.251 72.7788 495.222 72.8295 495.181 72.8695L491.95 76.0299L492.713 80.4934C492.723 80.5498 492.717 80.6078 492.695 80.6609C492.674 80.714 492.638 80.76 492.592 80.7938C492.545 80.8275 492.49 80.8475 492.433 80.8517C492.376 80.8558 492.319 80.8439 492.268 80.8172L488.274 78.7103L484.28 80.8178C484.229 80.8446 484.172 80.8566 484.115 80.8526C484.058 80.8485 484.003 80.8284 483.956 80.7947C483.91 80.761 483.874 80.715 483.853 80.6619C483.831 80.6088 483.825 80.5507 483.835 80.4943L484.598 76.0299L481.366 72.8695C481.325 72.8295 481.296 72.7788 481.282 72.7232C481.269 72.6675 481.271 72.6092 481.288 72.5547C481.306 72.5001 481.339 72.4516 481.382 72.4146C481.426 72.3776 481.479 72.3535 481.536 72.3451L486.001 71.6937L488 67.6326C488.025 67.5812 488.064 67.5378 488.112 67.5074C488.161 67.477 488.217 67.4609 488.274 67.4609C488.331 67.4609 488.387 67.477 488.436 67.5074C488.484 67.5378 488.523 67.5812 488.548 67.6326Z" fill="#BFDBFE"/>
<path d="M412.114 102.062V95.5705H410.074V94.8265H410.398C411.562 94.8265 412.054 94.2625 412.138 93.4105H413.086V102.062H412.114ZM418.599 102.159C417.063 102.159 416.055 101.294 415.923 99.9385H416.859C416.955 100.778 417.627 101.306 418.611 101.306C420.363 101.306 420.699 99.7945 420.699 97.5265H420.651C420.363 98.4145 419.547 99.0265 418.371 99.0265C416.787 99.0265 415.707 97.8985 415.707 96.2065C415.707 94.3945 416.919 93.3025 418.647 93.3025C420.663 93.3025 421.671 94.7305 421.671 97.3465C421.671 100.91 420.591 102.159 418.599 102.159ZM418.587 98.2585C419.823 98.2585 420.543 97.3585 420.543 96.1585C420.543 94.9225 419.787 94.1545 418.611 94.1545C417.471 94.1545 416.703 94.9825 416.703 96.2305C416.703 97.4905 417.471 98.2585 418.587 98.2585ZM426.61 102.171C424.87 102.171 423.742 101.066 423.742 99.4225H424.702C424.69 100.55 425.446 101.306 426.622 101.306C427.894 101.306 428.614 100.466 428.614 99.2425C428.614 97.9225 427.834 97.1425 426.646 97.1425C425.758 97.1425 425.11 97.5865 424.834 98.2105H423.922L424.114 93.4105H429.202V94.2625H424.966L424.834 97.2025L424.894 97.2265C425.266 96.6745 425.998 96.3145 426.838 96.3145C428.53 96.3145 429.622 97.4905 429.622 99.2065C429.622 100.982 428.446 102.171 426.61 102.171ZM435.787 102.062V93.3145H439.747C441.595 93.3145 442.567 94.1665 442.567 95.6785C442.567 96.7465 442.027 97.5265 441.007 97.8025V97.8865C441.991 98.0545 442.375 98.6305 442.375 99.6265V101.138C442.375 101.426 442.375 101.738 442.507 102.062H441.475C441.367 101.822 441.343 101.51 441.343 101.102V99.8065C441.343 98.8465 441.007 98.3545 439.675 98.3545H436.807V102.062H435.787ZM436.807 97.5145H439.615C440.971 97.5145 441.511 96.8065 441.511 95.8105C441.511 94.6705 440.755 94.1905 439.615 94.1905H436.807V97.5145ZM445.179 102.062V93.3145H451.191V94.2145H446.199V97.1665H450.603V98.0065H446.199V101.15H451.203V102.062H445.179ZM455.77 102.062L452.518 93.3145H453.658L455.974 99.7465L456.43 101.102H456.514L456.97 99.7585L459.31 93.3145H460.426L457.174 102.062H455.77ZM462.45 102.062V93.3145H463.47V102.062H462.45ZM466.557 102.062V93.3145H472.569V94.2145H467.577V97.1665H471.981V98.0065H467.577V101.15H472.581V102.062H466.557ZM476.136 102.062L474.156 93.3145H475.272L476.364 98.3785L476.892 100.934H476.964L479.016 93.3145H480.348L482.412 100.946H482.496L483 98.3785L484.08 93.3145H485.196L483.216 102.062H481.788L479.712 94.5865H479.64L477.564 102.062H476.136ZM490.118 102.171C487.814 102.171 486.746 100.994 486.71 99.3385H487.778C487.802 100.574 488.522 101.342 490.13 101.342C491.486 101.342 492.386 100.85 492.386 99.8065C492.386 98.6665 491.738 98.3185 489.95 98.0185C487.958 97.6585 486.926 97.1185 486.926 95.6305C486.926 94.1545 488.09 93.2185 490.046 93.2185C492.026 93.2185 493.142 94.2265 493.166 95.7505H492.122C492.074 94.6105 491.27 94.0225 489.998 94.0225C488.714 94.0225 487.982 94.6105 487.982 95.4865C487.982 96.5425 488.678 96.7825 490.442 97.0945C492.038 97.3705 493.454 97.7545 493.454 99.7105C493.454 101.174 492.278 102.171 490.118 102.171Z" fill="white"/>
<circle cx="450.94" cy="23.0997" r="22.5997" fill="white"/>
<path d="M437.543 20.9855H447.443H453.455V15.0273L437.543 20.9855Z" fill="#FF9D28"/>
<path d="M453.457 15.0268V36.0875L460.981 12.2188L453.457 15.0268Z" fill="#68C5ED"/>
<path d="M453.454 20.9844H447.441L453.454 36.0688V20.9844Z" fill="#044D80"/>
<path d="M437.543 20.9844L448.991 24.8545L447.443 20.9844H437.543Z" fill="#E54747"/>
</svg>
