<svg width="1268" height="126" viewBox="0 0 1268 126" fill="none" xmlns="http://www.w3.org/2000/svg">
<g opacity="0.4" filter="url(#filter0_d_1189_8755)">
<path d="M89.8289 158.578C79.8689 158.578 70.8689 157.258 62.8289 154.618C54.7889 151.978 47.8889 148.138 42.1289 143.098C36.4889 137.938 32.1089 131.638 28.9889 124.198C25.9889 116.758 24.4889 108.358 24.4889 98.998C24.4889 89.518 26.1089 80.998 29.3489 73.438C32.5889 65.878 37.2089 59.458 43.2089 54.178C49.2089 48.778 56.3489 44.698 64.6289 41.938C72.9089 39.058 82.0289 37.618 91.9889 37.618C103.629 37.618 113.709 39.418 122.229 43.018C130.749 46.618 137.529 51.658 142.569 58.138C147.609 64.498 150.489 72.058 151.209 80.818H132.309C130.749 75.658 128.169 71.218 124.569 67.498C121.089 63.778 116.589 60.898 111.069 58.858C105.669 56.698 99.3089 55.618 91.9889 55.618C82.3889 55.618 74.0489 57.478 66.9689 61.198C60.0089 64.798 54.6689 69.898 50.9489 76.498C47.2289 82.978 45.3689 90.478 45.3689 98.998C45.3689 107.518 46.9889 114.898 50.2289 121.138C53.5889 127.258 58.6289 132.058 65.3489 135.538C72.0689 138.898 80.4089 140.578 90.3689 140.578C98.0489 140.578 104.769 139.438 110.529 137.158C116.409 134.758 121.269 131.458 125.109 127.258C128.949 123.058 131.649 118.198 133.209 112.678L142.389 110.518C140.709 125.998 135.189 137.878 125.829 146.158C116.589 154.438 104.589 158.578 89.8289 158.578ZM137.529 156.418C137.529 152.578 137.709 148.258 138.069 143.458C138.429 138.538 138.849 133.558 139.329 128.518C139.929 123.358 140.469 118.738 140.949 114.658H92.7089V99.898H155.709V156.418H137.529ZM177.988 66.778H197.968V156.418H177.988V66.778ZM230.368 83.878C223.888 83.878 218.308 85.258 213.628 88.018C209.068 90.778 205.408 94.138 202.648 98.098C199.888 102.058 197.968 105.898 196.888 109.618L196.708 99.538C196.828 98.218 197.248 96.238 197.968 93.598C198.688 90.838 199.768 87.838 201.208 84.598C202.768 81.358 204.808 78.238 207.328 75.238C209.968 72.118 213.148 69.598 216.868 67.678C220.708 65.758 225.208 64.798 230.368 64.798V83.878ZM293.188 158.398C283.228 158.398 274.288 156.598 266.368 152.998C258.448 149.398 252.208 144.118 247.648 137.158C243.088 130.198 240.808 121.738 240.808 111.778C240.808 101.938 243.088 93.538 247.648 86.578C252.208 79.498 258.448 74.098 266.368 70.378C274.288 66.658 283.228 64.798 293.188 64.798C303.148 64.798 312.028 66.658 319.828 70.378C327.628 74.098 333.748 79.498 338.188 86.578C342.748 93.538 345.028 101.938 345.028 111.778C345.028 121.738 342.748 130.198 338.188 137.158C333.748 144.118 327.628 149.398 319.828 152.998C312.028 156.598 303.148 158.398 293.188 158.398ZM293.188 142.018C298.948 142.018 304.228 140.878 309.028 138.598C313.828 136.318 317.608 132.898 320.368 128.338C323.248 123.778 324.688 118.258 324.688 111.778C324.688 105.298 323.248 99.778 320.368 95.218C317.608 90.658 313.828 87.178 309.028 84.778C304.348 82.258 299.068 80.998 293.188 80.998C287.308 80.998 281.968 82.198 277.168 84.598C272.368 86.998 268.468 90.478 265.468 95.038C262.588 99.598 261.148 105.178 261.148 111.778C261.148 118.258 262.588 123.778 265.468 128.338C268.348 132.898 272.188 136.318 276.988 138.598C281.908 140.878 287.308 142.018 293.188 142.018ZM466.666 141.298L460.726 141.118L486.826 66.778H508.786L473.866 156.418H454.966L427.066 81.718H433.366L404.746 156.418H385.846L351.646 66.778H373.606L398.986 141.298H393.046L418.606 66.778H442.006L466.666 141.298ZM516.923 66.778H580.283V83.158H516.923V66.778ZM538.522 42.658H558.683V156.418H538.522V42.658ZM671.236 156.418V104.578C671.236 99.778 670.396 95.818 668.716 92.698C667.156 89.458 664.696 86.998 661.336 85.318C657.976 83.638 653.536 82.798 648.016 82.798C642.496 82.798 637.456 83.998 632.896 86.398C628.336 88.678 624.616 91.738 621.736 95.578C618.856 99.418 617.176 103.678 616.696 108.358L616.516 98.278C617.116 93.958 618.436 89.818 620.476 85.858C622.516 81.778 625.216 78.178 628.576 75.058C631.936 71.938 635.896 69.478 640.456 67.678C645.016 65.758 650.056 64.798 655.576 64.798C660.736 64.798 665.476 65.518 669.796 66.958C674.236 68.398 678.016 70.558 681.136 73.438C684.376 76.198 686.836 79.678 688.516 83.878C690.316 87.958 691.216 92.698 691.216 98.098V156.418H671.236ZM597.796 156.418V30.778H617.776V156.418H597.796ZM788.298 126.898H807.558C806.598 133.018 804.198 138.478 800.358 143.278C796.638 147.958 791.538 151.678 785.058 154.438C778.578 157.078 770.838 158.398 761.838 158.398C751.638 158.398 742.518 156.538 734.478 152.818C726.438 148.978 720.138 143.578 715.578 136.618C711.018 129.658 708.738 121.378 708.738 111.778C708.738 102.298 710.958 94.018 715.398 86.938C719.838 79.858 725.958 74.398 733.758 70.558C741.678 66.718 750.798 64.798 761.118 64.798C771.798 64.798 780.678 66.718 787.758 70.558C794.958 74.278 800.298 79.918 803.778 87.478C807.258 94.918 808.698 104.338 808.098 115.738H729.078C729.678 120.778 731.298 125.338 733.938 129.418C736.698 133.378 740.418 136.498 745.098 138.778C749.778 140.938 755.238 142.018 761.478 142.018C768.438 142.018 774.258 140.638 778.938 137.878C783.738 135.118 786.858 131.458 788.298 126.898ZM760.578 80.998C752.418 80.998 745.698 83.038 740.418 87.118C735.138 91.078 731.718 96.178 730.158 102.418H787.938C787.458 95.698 784.758 90.478 779.838 86.758C774.918 82.918 768.498 80.998 760.578 80.998ZM873.618 158.398C863.658 158.398 854.718 156.598 846.798 152.998C838.878 149.398 832.638 144.118 828.078 137.158C823.518 130.198 821.238 121.738 821.238 111.778C821.238 101.938 823.518 93.538 828.078 86.578C832.638 79.498 838.878 74.098 846.798 70.378C854.718 66.658 863.658 64.798 873.618 64.798C883.578 64.798 892.458 66.658 900.258 70.378C908.058 74.098 914.178 79.498 918.618 86.578C923.178 93.538 925.458 101.938 925.458 111.778C925.458 121.738 923.178 130.198 918.618 137.158C914.178 144.118 908.058 149.398 900.258 152.998C892.458 156.598 883.578 158.398 873.618 158.398ZM873.618 142.018C879.378 142.018 884.658 140.878 889.458 138.598C894.258 136.318 898.038 132.898 900.798 128.338C903.678 123.778 905.118 118.258 905.118 111.778C905.118 105.298 903.678 99.778 900.798 95.218C898.038 90.658 894.258 87.178 889.458 84.778C884.778 82.258 879.498 80.998 873.618 80.998C867.738 80.998 862.398 82.198 857.598 84.598C852.798 86.998 848.898 90.478 845.898 95.038C843.018 99.598 841.578 105.178 841.578 111.778C841.578 118.258 843.018 123.778 845.898 128.338C848.778 132.898 852.618 136.318 857.418 138.598C862.338 140.878 867.738 142.018 873.618 142.018ZM943.34 66.778H963.32V156.418H943.34V66.778ZM995.72 83.878C989.24 83.878 983.66 85.258 978.98 88.018C974.42 90.778 970.76 94.138 968 98.098C965.24 102.058 963.32 105.898 962.24 109.618L962.06 99.538C962.18 98.218 962.6 96.238 963.32 93.598C964.04 90.838 965.12 87.838 966.56 84.598C968.12 81.358 970.16 78.238 972.68 75.238C975.32 72.118 978.5 69.598 982.22 67.678C986.06 65.758 990.56 64.798 995.72 64.798V83.878ZM1034.24 28.798V48.058H1010.3V28.798H1034.24ZM1012.1 66.778H1032.26V156.418H1012.1V66.778ZM1131.07 126.898H1150.33C1149.37 133.018 1146.97 138.478 1143.13 143.278C1139.41 147.958 1134.31 151.678 1127.83 154.438C1121.35 157.078 1113.61 158.398 1104.61 158.398C1094.41 158.398 1085.29 156.538 1077.25 152.818C1069.21 148.978 1062.91 143.578 1058.35 136.618C1053.79 129.658 1051.51 121.378 1051.51 111.778C1051.51 102.298 1053.73 94.018 1058.17 86.938C1062.61 79.858 1068.73 74.398 1076.53 70.558C1084.45 66.718 1093.57 64.798 1103.89 64.798C1114.57 64.798 1123.45 66.718 1130.53 70.558C1137.73 74.278 1143.07 79.918 1146.55 87.478C1150.03 94.918 1151.47 104.338 1150.87 115.738H1071.85C1072.45 120.778 1074.07 125.338 1076.71 129.418C1079.47 133.378 1083.19 136.498 1087.87 138.778C1092.55 140.938 1098.01 142.018 1104.25 142.018C1111.21 142.018 1117.03 140.638 1121.71 137.878C1126.51 135.118 1129.63 131.458 1131.07 126.898ZM1103.35 80.998C1095.19 80.998 1088.47 83.038 1083.19 87.118C1077.91 91.078 1074.49 96.178 1072.93 102.418H1130.71C1130.23 95.698 1127.53 90.478 1122.61 86.758C1117.69 82.918 1111.27 80.998 1103.35 80.998ZM1164.73 126.898H1183.27C1184.23 131.458 1186.69 135.178 1190.65 138.058C1194.61 140.818 1199.95 142.198 1206.67 142.198C1210.99 142.198 1214.35 141.718 1216.75 140.758C1219.27 139.798 1221.01 138.478 1221.97 136.798C1223.05 135.118 1223.59 133.198 1223.59 131.038C1223.59 128.398 1222.81 126.358 1221.25 124.918C1219.81 123.478 1217.65 122.278 1214.77 121.318C1211.89 120.358 1208.29 119.518 1203.97 118.798C1199.53 117.718 1195.15 116.518 1190.83 115.198C1186.51 113.878 1182.61 112.258 1179.13 110.338C1175.65 108.298 1172.89 105.778 1170.85 102.778C1168.93 99.658 1167.97 95.878 1167.97 91.438C1167.97 87.358 1168.87 83.698 1170.67 80.458C1172.59 77.098 1175.23 74.278 1178.59 71.998C1181.95 69.718 1185.91 67.978 1190.47 66.778C1195.03 65.458 1200.01 64.798 1205.41 64.798C1213.21 64.798 1219.69 66.058 1224.85 68.578C1230.13 71.098 1234.09 74.638 1236.73 79.198C1239.49 83.758 1240.87 88.978 1240.87 94.858H1223.23C1222.27 90.058 1220.41 86.578 1217.65 84.418C1214.89 82.258 1210.75 81.178 1205.23 81.178C1199.71 81.178 1195.51 82.138 1192.63 84.058C1189.75 85.978 1188.31 88.618 1188.31 91.978C1188.31 94.498 1189.21 96.538 1191.01 98.098C1192.93 99.538 1195.63 100.798 1199.11 101.878C1202.59 102.958 1206.67 104.038 1211.35 105.118C1215.67 106.318 1219.75 107.578 1223.59 108.898C1227.43 110.098 1230.85 111.658 1233.85 113.578C1236.97 115.378 1239.43 117.778 1241.23 120.778C1243.03 123.778 1243.93 127.498 1243.93 131.938C1243.93 137.458 1242.43 142.198 1239.43 146.158C1236.55 150.118 1232.35 153.178 1226.83 155.338C1221.31 157.378 1214.65 158.398 1206.85 158.398C1200.01 158.398 1194.07 157.618 1189.03 156.058C1184.11 154.498 1179.97 152.458 1176.61 149.938C1173.37 147.418 1170.85 144.718 1169.05 141.838C1167.25 138.958 1165.99 136.198 1165.27 133.558C1164.67 130.918 1164.49 128.698 1164.73 126.898Z" fill="#EDEDFF"/>
</g>
<defs>
<filter id="filter0_d_1189_8755" x="0.489258" y="0.797852" width="1267.44" height="177.78" filterUnits="userSpaceOnUse" color-interpolation-filters="sRGB">
<feFlood flood-opacity="0" result="BackgroundImageFix"/>
<feColorMatrix in="SourceAlpha" type="matrix" values="0 0 0 0 0 0 0 0 0 0 0 0 0 0 0 0 0 0 127 0" result="hardAlpha"/>
<feOffset dy="-4"/>
<feGaussianBlur stdDeviation="12"/>
<feComposite in2="hardAlpha" operator="out"/>
<feColorMatrix type="matrix" values="0 0 0 0 0 0 0 0 0 0 0 0 0 0 0 0 0 0 1 0"/>
<feBlend mode="normal" in2="BackgroundImageFix" result="effect1_dropShadow_1189_8755"/>
<feBlend mode="normal" in="SourceGraphic" in2="effect1_dropShadow_1189_8755" result="shape"/>
</filter>
</defs>
</svg>
