<svg width="156" height="63" viewBox="0 0 156 63" fill="none" xmlns="http://www.w3.org/2000/svg">
<rect x="0.65625" y="0.53125" width="155" height="62.466" rx="8" fill="white"/>
<path d="M56.4375 31.2218C56.4375 26.6326 54.8031 22.2312 51.8939 18.9861C48.9847 15.741 45.039 13.918 40.9248 13.918C36.8106 13.918 32.8649 15.741 29.9557 18.9861C27.0465 22.2312 25.4121 26.6326 25.4121 31.2218H30.2599C31.8663 31.2218 33.1191 29.7202 33.7075 28.0528C34.0938 26.9581 34.68 25.952 35.4402 25.104C36.8948 23.4814 38.8677 22.5699 40.9248 22.5699C42.9819 22.5699 44.9548 23.4814 46.4094 25.104C47.864 26.7265 48.6811 28.9272 48.6811 31.2218H56.4375Z" fill="url(#paint0_linear_1192_11793)"/>
<path d="M47.5007 37.8445C48.2803 35.7451 48.6816 33.495 48.6816 31.2227H56.4371C56.4371 40.7793 49.4918 48.5264 40.9244 48.5264C39.5827 48.5264 38.2807 48.3364 37.0391 47.9793C37.7416 47.7774 38.4321 47.5203 39.1053 47.2093C40.9874 46.3396 42.6975 45.0651 44.138 43.4583C45.5785 41.8515 46.7212 39.9439 47.5007 37.8445Z" fill="#FBCF8E"/>
<path d="M17.6563 31.2227C17.6562 33.4951 18.0575 35.7452 18.8371 37.8446C19.6167 39.944 20.7593 41.8516 22.1998 43.4584C23.6403 45.0651 25.3504 46.3398 27.2325 47.2094C29.1145 48.079 31.1318 48.5265 33.169 48.5265C35.2061 48.5265 37.2233 48.079 39.1054 47.2094C40.9874 46.3398 42.6975 45.0651 44.1381 43.4584C45.5786 41.8516 46.7211 39.944 47.5007 37.8446C48.2803 35.7452 48.6817 33.4951 48.6817 31.2227H43.8339C42.2275 31.2227 40.9746 32.7243 40.3862 34.3916C40.3695 34.4391 40.3524 34.4864 40.3349 34.5337C39.9451 35.5833 39.3738 36.5372 38.6535 37.3405C37.9333 38.1439 37.0781 38.7813 36.1371 39.2161C35.1961 39.6509 34.1875 39.8746 33.169 39.8746C32.1504 39.8746 31.1418 39.6509 30.2008 39.2161C29.2597 38.7813 28.4046 38.1439 27.6844 37.3405C26.9641 36.5372 26.3928 35.5833 26.003 34.5337C25.6132 33.4839 25.4126 32.3589 25.4126 31.2227H17.6563Z" fill="url(#paint1_linear_1192_11793)"/>
<path d="M17.6582 31.2218C17.6582 21.6651 24.6034 13.918 33.1708 13.918C34.5122 13.918 35.8138 14.1079 37.0553 14.4649C34.3914 15.2304 31.934 16.7795 29.9557 18.9862C27.0465 22.2312 25.4122 26.6326 25.4122 31.2218H17.6582Z" fill="#73E5E2"/>
<path d="M71.7556 22.3968V31.3852H73.5236C74.113 31.3852 74.5663 31.2082 74.8836 30.8542C75.201 30.5002 75.3596 29.8429 75.3596 28.8821V24.8999C75.3596 23.9391 75.201 23.2817 74.8836 22.9277C74.5663 22.5738 74.113 22.3968 73.5236 22.3968H71.7556ZM73.5236 18.6042C75.405 18.6042 76.799 19.1604 77.7056 20.2729C78.635 21.3854 79.0996 23.0162 79.0996 25.1653V28.6166C79.0996 30.7657 78.635 32.3965 77.7056 33.509C76.799 34.6215 75.405 35.1777 73.5236 35.1777H71.7556V45.1522H68.0156V18.6042H73.5236Z" fill="#18181B"/>
<path d="M86.572 22.3968V30.5508H88.034C88.7367 30.5508 89.2807 30.3485 89.666 29.944C90.074 29.5395 90.278 28.8062 90.278 27.7443V25.1274C90.278 24.1666 90.1194 23.4713 89.802 23.0415C89.5074 22.6117 89.0314 22.3968 88.374 22.3968H86.572ZM90.652 45.1522C90.6067 44.9752 90.5614 44.8109 90.516 44.6592C90.4707 44.5075 90.4254 44.3179 90.38 44.0903C90.3574 43.8628 90.3347 43.572 90.312 43.218C90.312 42.864 90.312 42.4216 90.312 41.8906V37.7188C90.312 36.4799 90.1194 35.6076 89.734 35.1019C89.3487 34.5962 88.7254 34.3434 87.864 34.3434H86.572V45.1522H82.832V18.6042H88.476C90.4254 18.6042 91.8307 19.1099 92.692 20.1212C93.576 21.1326 94.018 22.6622 94.018 24.7102V26.7962C94.018 29.5268 93.202 31.322 91.57 32.1816C92.522 32.6114 93.168 33.3194 93.508 34.3055C93.8707 35.2662 94.052 36.4419 94.052 37.8326V41.9285C94.052 42.5859 94.0747 43.1674 94.12 43.6731C94.1654 44.1535 94.2787 44.6466 94.46 45.1522H90.652Z" fill="#18181B"/>
<path d="M102.252 29.7923H107.386V33.5849H102.252V41.3597H108.712V45.1522H98.5117V18.6042H108.712V22.3968H102.252V29.7923Z" fill="#18181B"/>
<path d="M112.553 24.9757C112.553 22.8266 113.007 21.1831 113.913 20.0454C114.843 18.8823 116.225 18.3008 118.061 18.3008C119.897 18.3008 121.269 18.8823 122.175 20.0454C123.105 21.1831 123.569 22.8266 123.569 24.9757V25.9997H120.033V24.7102C120.033 23.7494 119.863 23.0794 119.523 22.7002C119.206 22.2956 118.753 22.0934 118.163 22.0934C117.574 22.0934 117.109 22.2956 116.769 22.7002C116.452 23.0794 116.293 23.7494 116.293 24.7102C116.293 25.6205 116.475 26.4295 116.837 27.1375C117.2 27.8202 117.653 28.4775 118.197 29.1096C118.741 29.7164 119.319 30.3359 119.931 30.968C120.566 31.5748 121.155 32.2448 121.699 32.9781C122.243 33.7113 122.697 34.5457 123.059 35.4812C123.422 36.4167 123.603 37.5165 123.603 38.7807C123.603 40.9298 123.127 42.5859 122.175 43.749C121.246 44.8868 119.863 45.4556 118.027 45.4556C116.191 45.4556 114.797 44.8868 113.845 43.749C112.916 42.5859 112.451 40.9298 112.451 38.7807V36.9603H115.987V39.0462C115.987 40.007 116.157 40.677 116.497 41.0562C116.86 41.4355 117.336 41.6251 117.925 41.6251C118.515 41.6251 118.979 41.4355 119.319 41.0562C119.682 40.677 119.863 40.007 119.863 39.0462C119.863 38.136 119.682 37.3395 119.319 36.6569C118.957 35.9489 118.503 35.2915 117.959 34.6847C117.415 34.0526 116.826 33.4332 116.191 32.8264C115.579 32.1943 115.001 31.5116 114.457 30.7784C113.913 30.0451 113.46 29.2108 113.097 28.2753C112.735 27.3398 112.553 26.2399 112.553 24.9757Z" fill="#18181B"/>
<path d="M127.44 24.9757C127.44 22.8266 127.927 21.1831 128.902 20.0454C129.877 18.8823 131.282 18.3008 133.118 18.3008C134.954 18.3008 136.359 18.8823 137.334 20.0454C138.309 21.1831 138.796 22.8266 138.796 24.9757V38.7807C138.796 40.9298 138.309 42.5859 137.334 43.749C136.359 44.8868 134.954 45.4556 133.118 45.4556C131.282 45.4556 129.877 44.8868 128.902 43.749C127.927 42.5859 127.44 40.9298 127.44 38.7807V24.9757ZM131.18 39.0462C131.18 40.007 131.35 40.6896 131.69 41.0942C132.053 41.4734 132.529 41.6631 133.118 41.6631C133.707 41.6631 134.172 41.4734 134.512 41.0942C134.875 40.6896 135.056 40.007 135.056 39.0462V24.7102C135.056 23.7494 134.875 23.0794 134.512 22.7002C134.172 22.2956 133.707 22.0934 133.118 22.0934C132.529 22.0934 132.053 22.2956 131.69 22.7002C131.35 23.0794 131.18 23.7494 131.18 24.7102V39.0462Z" fill="#18181B"/>
<defs>
<linearGradient id="paint0_linear_1192_11793" x1="56.4375" y1="22.5699" x2="25.4121" y2="22.5699" gradientUnits="userSpaceOnUse">
<stop stop-color="#73E5E2"/>
<stop offset="1" stop-color="#394F87"/>
</linearGradient>
<linearGradient id="paint1_linear_1192_11793" x1="17.6563" y1="39.8746" x2="48.6817" y2="39.8746" gradientUnits="userSpaceOnUse">
<stop stop-color="#FBDC8E"/>
<stop offset="1" stop-color="#FB958E"/>
</linearGradient>
</defs>
</svg>
