<svg width="123" height="39" viewBox="0 0 123 39" fill="none" xmlns="http://www.w3.org/2000/svg">
<path opacity="0.87" d="M121.449 19.8773C120.809 19.4677 119.981 19.6166 119.53 20.2496C119.455 20.3613 117.799 22.7445 114.902 22.7445C113.773 22.7445 112.907 22.4094 112.343 21.7019C112.305 21.6646 112.268 21.5902 112.23 21.5529C112.23 21.5529 112.268 21.5529 112.268 21.5157C119.116 17.6431 119.041 14.329 118.74 13.1002C118.326 11.6107 117.009 10.6425 115.316 10.6425C111.402 10.6425 108.806 14.962 108.806 18.9836C108.806 19.5049 108.844 19.989 108.919 20.473C107.527 21.4784 105.382 22.7445 103.501 22.7445C102.409 22.7445 101.582 22.4094 101.055 21.7763C100.867 21.5529 100.716 21.2923 100.603 21.0316C105.833 19.5421 107.828 16.228 107.451 13.5842C107.226 11.8713 105.909 10.6425 104.291 10.6425C100.641 10.6425 98.0069 14.4407 97.593 18.1644C96.8781 18.0899 96.276 17.9037 95.7116 17.5313C95.7869 16.9355 95.8621 16.3398 95.8621 15.7812C95.8621 14.5524 95.6363 13.5098 95.1848 12.6905C94.5828 11.6107 93.5668 11.0149 92.4004 11.0149C91.7607 11.0149 91.1963 11.35 90.8576 11.9458C90.1804 13.1746 90.6319 15.5578 91.8736 17.4569C92.0994 17.8292 92.3627 18.1644 92.6638 18.4995C91.9865 20.6592 90.5566 22.7073 88.7505 22.7073C87.9227 22.7073 87.3207 22.4466 86.7939 21.9253C86.0789 21.1433 85.5898 19.7655 85.4393 18.0154C90.5566 11.6851 93.0777 5.4666 91.6478 2.52488C91.1587 1.51949 90.2556 0.960938 89.1644 0.960938C85.6274 0.960938 83.5203 5.50383 82.6925 14.8503C82.6548 15.4088 82.6172 16.1163 82.6172 16.8611C80.7358 19.3932 77.6127 22.7073 74.8283 22.7073C74.0381 22.7073 73.4361 22.4466 73.0598 21.8881C73.0222 21.8508 72.9845 21.7763 72.9469 21.7391C72.9845 21.7391 73.0222 21.7019 73.0598 21.6646C79.9456 17.2707 79.8328 13.9566 79.4941 12.765C79.1178 11.4617 77.9138 10.6053 76.371 10.6053C72.3825 10.6053 69.6733 15.1482 69.6733 19.3932C69.6733 19.7656 69.7109 20.1379 69.7486 20.5103C68.4692 21.404 67.4533 22.2232 66.4373 23.0052C66.5879 21.8508 66.8136 20.3613 67.077 18.1644C67.1523 17.7175 67.1899 17.3452 67.2275 17.159C67.4533 15.5578 64.7817 15.2227 64.4807 17.01C64.1797 18.8719 63.3895 22.7073 61.1695 22.7073C59.8525 22.7073 59.1376 21.255 59.2881 19.1325C59.4762 15.7812 61.32 13.0629 63.5777 13.0629C64.3678 13.0629 64.7441 13.8821 64.7441 13.8821C65.459 15.1482 67.6791 14.0683 67.1899 12.7278C66.9641 12.132 66.2492 10.6053 63.6529 10.6053C58.385 10.6053 56.7294 15.8929 56.5037 19.3932C56.466 19.9517 56.466 20.5103 56.5413 21.0688C55.7887 21.9625 54.9233 22.7073 54.0579 22.7073C53.2301 22.7073 52.7033 21.7763 53.0043 19.6538C53.3053 17.6058 53.5311 15.9302 53.644 14.962C54.2836 10.5308 48.6771 10.6425 48.6771 10.6425C48.6771 10.6425 48.6019 8.03594 46.4571 8.03594C45.3659 8.03594 44.35 8.89239 44.35 10.4936C44.35 11.983 45.5917 12.7278 45.5917 12.7278C45.3283 15.0365 44.2371 22.7073 41.7913 22.7073C40.7001 22.7073 40.6248 21.5529 40.7377 20.7337C40.8882 19.6166 41.0764 17.6803 41.1516 17.1962C41.3774 15.595 38.7058 15.2599 38.4048 17.0473C38.1038 18.9091 37.3136 22.7445 35.0936 22.7445C33.7766 22.7445 33.0617 21.1061 33.1746 19.0953C33.3627 15.7067 35.2065 13.1002 37.4641 13.1002C38.2543 13.1002 38.6306 13.9194 38.6306 13.9194C39.2326 15.1854 41.5279 14.2917 41.0764 12.765C40.8882 12.0948 40.1357 10.6425 37.5394 10.6425C32.2715 10.6425 30.6159 15.9302 30.3901 19.4304C30.3525 19.989 30.3525 20.5103 30.3901 20.9944C29.6376 21.9998 28.7345 22.7445 27.8691 22.7445C27.0789 22.7445 26.4769 22.3349 26.6274 20.5848C26.7026 19.7656 27.6433 14.1428 27.6057 13.1374C27.4928 11.4245 26.7026 10.6798 24.7836 10.6798C22.7517 10.6798 21.2466 11.7224 20.607 12.3554C20.607 12.3554 21.5476 5.28041 21.7358 3.90265C21.9239 2.48765 19.1395 2.45041 18.989 3.90265C18.9137 4.53567 18.1612 10.1212 17.4839 15.3344C15.9035 18.7602 12.7804 23.9733 8.15223 23.9733C-0.614998 23.9733 3.41115 5.05699 11.6516 5.05699C13.5706 5.05699 12.7052 8.11042 11.4258 9.93502C10.5228 11.2755 12.818 12.765 14.0974 10.6425C17.6344 4.72186 14.6618 2.52488 11.8397 2.52488C-0.351605 2.52488 -4.86691 26.5799 7.81358 26.5799C11.9902 26.5799 14.8123 24.2712 16.6184 21.7391C16.4303 23.1541 16.3174 24.1223 16.2798 24.3085C16.054 25.7979 18.8761 25.6862 19.0266 24.4202C19.1395 23.6382 19.5534 20.3241 19.892 17.7548C20.0802 16.3025 21.8863 13.6215 23.9182 13.6215C24.4073 13.6215 24.7084 14.1055 24.6707 14.5152C24.5955 14.9992 23.73 21.2923 23.7677 22.2232C23.9182 24.867 25.8372 25.4628 27.6433 25.4628C29.0732 25.4628 30.2396 24.7925 31.1803 23.7499C31.82 24.7925 32.7983 25.4628 34.1529 25.4628C37.2007 25.4628 38.2543 23.3031 38.2543 23.3031C38.2543 23.3031 38.6306 25.4628 41.2645 25.4628C46.6076 25.4628 47.8493 16.2653 48.1127 13.1746C48.4137 13.1746 50.2951 13.2863 50.6338 14.329C50.9348 15.3344 49.9941 18.5367 49.9188 21.8508C49.8812 23.6009 50.5209 25.4628 53.3053 25.4628C54.9986 25.4628 56.3532 24.6808 57.2938 23.8244C57.9335 24.8298 58.9118 25.4628 60.2288 25.4628C61.7339 25.4628 62.7498 24.9787 63.3895 24.4946C63.3519 24.7925 63.3143 25.0532 63.2766 25.3511V25.3883C63.2766 25.3511 56.2403 30.3781 56.2403 35.1071C56.2403 36.969 57.1057 38.1606 59.3257 38.1606C63.7282 38.1606 65.1204 32.3144 65.7601 27.5108C65.7977 27.2874 65.8353 27.064 65.8353 26.8778C66.5126 26.3565 67.1523 25.8724 67.7919 25.3883C68.695 24.6808 69.5981 24.0105 70.614 23.2658C70.6516 23.3403 70.7269 23.4148 70.7645 23.4892C71.7052 24.7553 73.0974 25.4256 74.7907 25.4256C77.989 25.4256 80.9616 23.0052 83.0687 20.622C83.4074 21.7763 83.8965 22.8934 84.7243 23.7871C85.7403 24.867 87.1325 25.4628 88.7129 25.4628C91.7607 25.4628 93.8679 23.0424 94.9967 20.2496C95.8245 20.622 96.7652 20.8454 97.7435 20.9199C97.9693 21.8881 98.3455 22.7817 98.9476 23.4892C99.7001 24.3829 101.092 25.4628 103.538 25.4628C105.984 25.4628 108.392 24.1595 110.01 23.0796C110.085 23.1913 110.161 23.303 110.236 23.4148C110.988 24.3457 112.456 25.4628 114.939 25.4628C119.342 25.4628 121.788 21.888 121.9 21.7391C122.239 21.1433 122.051 20.2869 121.449 19.8773ZM59.6644 35.5167C59.2505 35.5167 58.9495 35.2561 58.9495 34.7348C58.9495 32.3516 62.6746 29.112 62.7122 29.112C62.2607 32.3144 60.9437 35.5167 59.6644 35.5167ZM76.2958 13.1746C76.6344 13.1746 76.7097 13.4353 76.7849 13.5842C76.9354 14.1055 76.4087 16.0791 72.3825 18.8346C72.6083 16.228 74.2263 13.1746 76.2958 13.1746ZM89.0891 3.7537C90.2556 3.7537 89.3149 7.70081 85.5898 13.2119C86.4552 5.8762 87.6593 3.7537 89.0891 3.7537ZM103.99 13.1746C104.592 13.1746 104.629 13.7704 104.667 13.9938C104.817 15.1109 103.764 17.1217 100.302 18.2761C100.678 15.8557 102.296 13.1746 103.99 13.1746ZM115.278 13.1746C115.692 13.1746 115.918 13.4725 116.031 13.8449C116.256 14.6269 115.203 16.6004 111.515 18.8346C111.59 16.228 113.171 13.1746 115.278 13.1746Z" fill="black"/>
</svg>
