<svg width="116" height="28" viewBox="0 0 116 28" fill="none" xmlns="http://www.w3.org/2000/svg">
<g clip-path="url(#clip0_2458_11541)">
<path d="M39.9844 9.89263C39.9844 9.32935 39.5612 8.86719 38.9687 8.86719C38.3763 8.86719 37.9531 9.32935 37.9531 9.89263V18.2117C37.9531 18.775 38.3763 19.2372 38.9687 19.2372C39.5752 19.2372 39.9844 18.775 39.9844 18.2117V9.89263Z" fill="#081D34"/>
<path d="M49.9858 8.86719C49.3933 8.86719 48.9842 9.32935 48.9842 9.89263V13.4456L49.0406 16.623L47.8134 13.6477L46.2054 10.2681C45.7117 9.21381 45.1476 8.86719 44.3435 8.86719C43.1587 8.86719 42.6367 9.63265 42.6367 10.7303V18.2117C42.6367 18.775 43.0457 19.2372 43.6383 19.2372C44.2307 19.2372 44.6397 18.775 44.6397 18.2117L44.6256 14.7021L44.5833 11.1058L45.8951 14.3987L47.5172 17.8362C48.0251 18.9338 48.5611 19.2516 49.3792 19.2516C50.4371 19.2516 50.9872 18.5872 50.9872 17.3596V9.89263C50.9872 9.32935 50.5782 8.86719 49.9858 8.86719Z" fill="#081D34"/>
<path d="M58.478 10.9931L60.7771 11.0509C61.3132 11.0653 61.7364 10.6465 61.7364 10.0399C61.7364 9.43329 61.3132 9.01445 60.7771 9.01445L54.1193 9C53.5974 9 53.1602 9.41884 53.1602 10.0254C53.1602 10.632 53.5974 11.0509 54.1193 11.0364L56.4326 10.9931V18.2145C56.4326 18.7778 56.8557 19.24 57.4483 19.24C58.0547 19.24 58.478 18.7778 58.478 18.2145V10.9931Z" fill="#081D34"/>
<path d="M65.2949 19.1088H70.2459C70.7679 19.1088 71.1911 18.7044 71.1911 18.1411C71.1911 17.5634 70.7679 17.159 70.2459 17.159L65.9438 17.1735V14.7615H69.6676C70.1755 14.7615 70.5845 14.3715 70.5845 13.8372C70.5845 13.2883 70.1755 12.8983 69.6676 12.8983L65.9438 12.9272V10.9342H70.2459C70.7679 10.9342 71.1911 10.5298 71.1911 9.95204C71.1911 9.37432 70.7679 8.98438 70.2459 8.98438L65.309 8.99881C64.4062 8.99881 63.8984 9.51875 63.8984 10.4431V17.6645C63.8984 18.5888 64.4062 19.1088 65.2949 19.1088Z" fill="#081D34"/>
<path d="M79.256 14.9938C80.596 14.6327 81.386 13.564 81.386 12.1485C81.386 10.5743 80.3844 9 77.9865 9H74.8832C73.9805 9 73.4727 9.51994 73.4727 10.4443V18.2145C73.4727 18.7778 73.8959 19.24 74.5165 19.24C75.123 19.24 75.5603 18.7778 75.5603 18.2145L75.5462 15.4992H77.253L78.9879 18.7056C79.2701 19.1967 79.8625 19.3988 80.4127 19.11C80.9628 18.8067 81.1179 18.2 80.8217 17.7091L79.256 14.9938ZM75.5462 10.9209H78.0006C78.8328 10.9209 79.3547 11.4553 79.3547 12.2496C79.3547 13.0295 78.861 13.6073 78.0288 13.6073H75.5462V10.9209Z" fill="#081D34"/>
<path d="M87.6151 19.3015C89.6746 19.3015 91.0005 18.3483 91.4519 16.8029C91.6917 15.9219 91.1839 15.2864 90.4222 15.2864C89.9566 15.2864 89.6464 15.5319 89.463 16.0663C89.1809 16.8752 88.4897 17.3807 87.5023 17.3807C85.9366 17.3807 85.2595 16.2974 85.2595 14.0443C85.2595 11.8346 85.9507 10.7803 87.5023 10.7803C88.4756 10.7803 89.0399 11.1991 89.3925 12.1668C89.59 12.7156 89.9144 12.9611 90.3939 12.9611C91.1274 12.9611 91.6634 12.3545 91.4378 11.5169C90.9865 9.81261 89.6746 8.85938 87.5587 8.85938C84.653 8.85938 83.1719 10.6792 83.1719 14.0443C83.1719 17.4384 84.653 19.3015 87.6151 19.3015Z" fill="#081D34"/>
<path d="M97.6409 19.268C100.631 19.268 102.112 17.3903 102.112 14.0396C102.112 10.66 100.589 8.79688 97.6409 8.79688C94.6788 8.79688 93.1977 10.6889 93.1836 14.0396C93.1836 17.4047 94.6929 19.268 97.6409 19.268ZM97.6409 17.3326C95.9765 17.3326 95.2572 16.2494 95.2572 14.0396C95.2572 11.801 95.9907 10.7178 97.6268 10.7178C99.2772 10.7178 100.053 11.801 100.039 14.0396C100.039 16.2638 99.3055 17.3326 97.6409 17.3326Z" fill="#081D34"/>
<path d="M115.246 10.6792C115.246 9.53819 114.555 8.85938 113.483 8.85938C112.608 8.85938 111.945 9.35043 111.621 10.477L110.535 14.1021L109.815 16.7162L109.124 14.1021L107.967 10.477C107.643 9.42264 107.079 8.85938 106.091 8.85938C105.005 8.85938 104.328 9.52374 104.328 10.6792V18.2183C104.328 18.7816 104.723 19.2438 105.301 19.2438C105.88 19.2438 106.275 18.7816 106.275 18.2183L106.261 14.5787L106.162 10.6792L107.276 14.6654L108.461 18.1894C108.715 18.9693 109.195 19.2294 109.815 19.2294C110.394 19.2294 110.859 19.0127 111.099 18.2183L112.227 14.6654L113.426 10.6503L113.313 14.5787V18.2183C113.313 18.7816 113.722 19.2438 114.287 19.2438C114.865 19.2438 115.26 18.7816 115.26 18.2183L115.246 10.6792Z" fill="#081D34"/>
<path d="M23.2424 15.4043C23.2424 15.6451 23.1501 15.8759 22.9856 16.0461C22.8211 16.2162 22.598 16.3119 22.3654 16.3119C22.1327 16.3119 21.9096 16.2162 21.7451 16.0461C21.5807 15.8759 21.4883 15.6451 21.4883 15.4043V7.29691C21.4883 7.05623 21.5807 6.82541 21.7451 6.65522C21.9096 6.48503 22.1327 6.38941 22.3654 6.38941C22.598 6.38941 22.8211 6.48503 22.9856 6.65522C23.1501 6.82541 23.2424 7.05623 23.2424 7.29691V15.4043ZM22.9379 21.0219C22.822 21.1418 19.5603 23.9543 13.5804 23.9543C7.60051 23.9543 4.36049 21.1569 4.22278 21.0368C4.13599 20.9611 4.0645 20.8684 4.01241 20.7641C3.96032 20.6596 3.92865 20.5457 3.91923 20.4286C3.9098 20.3116 3.92279 20.1938 3.95747 20.0818C3.99215 19.9701 4.04782 19.8663 4.1213 19.7768C4.27268 19.5956 4.48717 19.4837 4.718 19.4653C4.94883 19.4471 5.17727 19.5241 5.35352 19.6793C5.40426 19.7169 8.31808 22.1618 13.5731 22.1618C18.8281 22.1618 21.7637 19.7018 21.7928 19.6793C21.971 19.5254 22.2002 19.4495 22.4316 19.4677C22.6631 19.486 22.8785 19.5968 23.0322 19.7768C23.18 19.9554 23.2539 20.1871 23.2376 20.4216C23.2213 20.6561 23.1163 20.8746 22.9452 21.0293L22.9379 21.0219ZM3.9111 7.29691C3.92421 7.05547 4.02916 6.82921 4.20301 6.6676C4.37686 6.50598 4.60548 6.42215 4.83889 6.43441C5.05527 6.44713 5.25944 6.5423 5.41202 6.70156C5.56461 6.86082 5.6548 7.07292 5.66519 7.29691V15.3894C5.66519 15.63 5.57279 15.8608 5.40832 16.031C5.24384 16.2013 5.02076 16.2969 4.78815 16.2969C4.55554 16.2969 4.33246 16.2013 4.16798 16.031C4.00351 15.8608 3.9111 15.63 3.9111 15.3894V7.29691ZM8.31084 5.49692C8.32394 5.25547 8.4289 5.02922 8.60275 4.86761C8.7766 4.70599 9.00521 4.62216 9.23863 4.63443C9.455 4.64714 9.65918 4.74231 9.81176 4.90157C9.96435 5.06084 10.0545 5.27292 10.0649 5.49692V17.4968C10.0649 17.7376 9.97253 17.9684 9.80806 18.1386C9.64357 18.3087 9.42049 18.4043 9.18789 18.4043C8.95528 18.4043 8.7322 18.3087 8.56772 18.1386C8.40325 17.9684 8.31084 17.7376 8.31084 17.4968V5.49692ZM12.7323 5.04692C12.7323 4.80624 12.8247 4.57542 12.9892 4.40523C13.1537 4.23504 13.3768 4.13943 13.6093 4.13943C13.842 4.13943 14.0651 4.23504 14.2295 4.40523C14.394 4.57542 14.4864 4.80624 14.4864 5.04692V18.0969C14.4864 18.3375 14.394 18.5683 14.2295 18.7386C14.0651 18.9088 13.842 19.0043 13.6093 19.0043C13.3768 19.0043 13.1537 18.9088 12.9892 18.7386C12.8247 18.5683 12.7323 18.3375 12.7323 18.0969V5.04692ZM17.0814 5.49692C17.0814 5.25624 17.1737 5.02542 17.3382 4.85522C17.5027 4.68504 17.7258 4.58943 17.9583 4.58943C18.191 4.58943 18.4141 4.68504 18.5785 4.85522C18.743 5.02542 18.8354 5.25624 18.8354 5.49692V17.4968C18.8354 17.7376 18.743 17.9684 18.5785 18.1386C18.4141 18.3087 18.191 18.4043 17.9583 18.4043C17.7258 18.4043 17.5027 18.3087 17.3382 18.1386C17.1737 17.9684 17.0814 17.7376 17.0814 17.4968V5.49692ZM23.4816 0.54695H3.70814C3.27729 0.543987 2.85011 0.628987 2.45105 0.797084C2.05199 0.965182 1.68889 1.21308 1.38255 1.52657C1.07621 1.84007 0.832632 2.213 0.665775 2.62404C0.498917 3.03507 0.412053 3.47611 0.410156 3.92193V24.1719C0.412053 24.6176 0.498917 25.0587 0.665775 25.4698C0.832632 25.8807 1.07621 26.2537 1.38255 26.5672C1.68889 26.8806 2.05199 27.1286 2.45105 27.2966C2.85011 27.4648 3.27729 27.5497 3.70814 27.5468H23.4816C23.9118 27.5497 24.3385 27.465 24.737 27.2974C25.1356 27.1298 25.4984 26.8825 25.8046 26.5698C26.1109 26.2571 26.3546 25.8851 26.5218 25.4749C26.6892 25.0648 26.7768 24.6245 26.7795 24.1793V3.92193C26.7777 3.47675 26.6911 3.03632 26.5246 2.62578C26.3583 2.21524 26.1154 1.84264 25.8097 1.52924C25.5042 1.21584 25.142 0.967788 24.7437 0.799248C24.3455 0.630707 23.9191 0.544976 23.4888 0.54695" fill="#081D34"/>
</g>
<defs>
<clipPath id="clip0_2458_11541">
<rect width="115" height="27" fill="white" transform="translate(0.410156 0.546875)"/>
</clipPath>
</defs>
</svg>
