<svg width="140" height="33" viewBox="0 0 140 33" fill="none" xmlns="http://www.w3.org/2000/svg">
<path d="M11.7773 18.4994V22.3569C14.7169 22.3569 17.5249 21.2172 19.6308 19.2007C21.7368 17.1843 22.8775 14.4665 22.8775 11.6172H18.885C18.885 13.4583 18.1391 15.2117 16.779 16.4829C15.5066 17.7542 13.6639 18.4994 11.7773 18.4994Z" fill="#3BE081"/>
<path d="M11.7789 29.1076C9.89236 29.1076 8.09352 28.4062 6.77729 27.0912C5.46107 25.8199 4.71521 24.0665 4.71521 22.2692C4.71521 20.472 5.46107 18.7186 6.77729 17.4473C8.09352 16.1761 9.89236 15.4309 11.7789 15.4309V11.6172C10.3311 11.6172 8.88325 11.8802 7.56703 12.4062C6.2508 12.9323 5.02233 13.7213 3.96934 14.7295C2.91636 15.7377 2.12663 16.8775 1.55627 18.1925C0.985901 19.5076 0.722656 20.8665 0.722656 22.2692C0.722656 23.672 0.985901 25.0747 1.55627 26.346C2.12663 27.661 2.91636 28.8007 3.92547 29.809C4.93458 30.8172 6.16305 31.6062 7.47928 32.1323C8.7955 32.6583 10.2434 32.9651 11.6912 32.9651H11.7351V29.1076H11.7789Z" fill="#0037FF"/>
<path d="M11.7773 29.104V32.9177C14.7169 32.9177 17.481 31.778 19.5431 29.8054C21.6052 27.8327 22.7898 25.0711 22.7898 22.2656H18.8411C18.8411 24.0629 18.0952 25.8163 16.779 27.0875C15.4628 28.3588 13.6639 29.104 11.7773 29.104Z" fill="#00CCFF"/>
<path d="M11.7773 7.76023V11.5739C14.7169 11.5739 17.481 10.4342 19.5431 8.4616C21.6052 6.44516 22.7898 3.72735 22.7898 0.921875H18.8411C18.8411 2.71914 18.0952 4.47256 16.779 5.74379C15.4628 7.05886 13.6639 7.76023 11.7773 7.76023Z" fill="#861DFF"/>
<path d="M22.8789 7.76023V11.5739C25.8185 11.5739 28.5825 10.4342 30.6446 8.4616C32.7067 6.44516 33.8913 3.72735 33.8913 0.921875H29.9426C29.9426 2.71914 29.1968 4.47256 27.8806 5.74379C26.5643 7.05886 24.7655 7.76023 22.8789 7.76023Z" fill="#FF8110"/>
<path d="M52.2743 16.8845H54.2926L54.7752 17.9366C55.0384 17.7174 55.3017 17.4982 55.6088 17.3667C55.9159 17.1914 56.2669 17.0599 56.574 16.9722C57.0128 16.8407 57.4076 16.7969 57.8464 16.7969C58.5045 16.7969 59.2065 16.9284 59.8207 17.1914C60.4349 17.4544 61.0053 17.8489 61.444 18.3311C61.9267 18.8571 62.3215 19.427 62.5848 20.0407C63.1551 21.4434 63.1551 22.9777 62.5848 24.3804C62.3215 25.038 61.9267 25.6078 61.444 26.09C60.9614 26.5722 60.4349 26.9667 59.8207 27.2298C59.2065 27.4928 58.5484 27.6243 57.8464 27.6243C57.4515 27.6243 57.0128 27.5804 56.6179 27.4489C56.3108 27.3613 56.0036 27.2298 55.7404 27.0982C55.4772 26.9667 55.2139 26.7914 54.9945 26.5722V31.2188H52.2305L52.2743 16.8845ZM57.5392 25.1256C57.8902 25.1256 58.2851 25.0818 58.5922 24.9503C58.9432 24.8188 59.2503 24.5996 59.4697 24.3366C59.9962 23.8106 60.2594 23.1092 60.2594 22.2325C60.2594 21.838 60.2156 21.4434 60.0839 21.0928C59.9523 20.7421 59.733 20.3914 59.4697 20.1284C59.2065 19.8654 58.8993 19.69 58.5922 19.5585C58.2412 19.427 57.8902 19.3393 57.5392 19.3393C57.1882 19.3393 56.7934 19.427 56.4863 19.5585C56.1353 19.69 55.8281 19.9092 55.6088 20.1284C55.0823 20.6544 54.819 21.3558 54.819 22.2325C54.819 23.1092 55.0823 23.8106 55.6088 24.3366C55.872 24.5996 56.1791 24.775 56.4863 24.9503C56.8373 25.0818 57.1882 25.1256 57.5392 25.1256Z" fill="black"/>
<path d="M69.6026 27.665C69.0762 27.665 68.5935 27.5773 68.1109 27.402C67.6722 27.2266 67.2773 26.9636 66.9263 26.6129C66.5753 26.2623 66.3121 25.8677 66.1805 25.3856C66.005 24.8595 65.8733 24.3335 65.9172 23.8075V19.3362H64.25V17.1445H64.952C65.8295 17.1445 66.2682 16.7061 66.2682 15.8732V14.3828H68.6813V16.9253H71.0944V19.3362H68.6813V23.7198C68.6813 23.8951 68.6813 24.0705 68.7252 24.2458C68.769 24.4212 68.8568 24.5965 68.9884 24.728C69.12 24.8595 69.2517 24.991 69.4272 25.0787C69.6026 25.1664 69.7781 25.2102 69.9536 25.2102C70.0414 25.2102 70.0853 25.2102 70.173 25.2102C70.2608 25.2102 70.3924 25.2102 70.4801 25.2102C70.5679 25.2102 70.6118 25.2102 70.6995 25.1664C70.7872 25.1664 70.8311 25.1225 70.875 25.0787V27.402C70.7434 27.4458 70.6118 27.4897 70.4801 27.5335C70.2608 27.665 69.9536 27.665 69.6026 27.665Z" fill="black"/>
<path d="M74.7835 15.6071C74.4325 15.6071 74.0376 15.5194 73.7744 15.3003C73.4673 15.0811 73.2918 14.7742 73.204 14.4235C73.1163 14.0729 73.1602 13.7222 73.3356 13.3715C73.5111 13.0646 73.7744 12.8016 74.1254 12.6701C74.4764 12.5386 74.8274 12.4948 75.2222 12.6263C75.5732 12.7139 75.8804 12.9331 76.0997 13.24C76.3191 13.5468 76.4068 13.8975 76.363 14.2482C76.3191 14.5989 76.1875 14.9496 75.9242 15.2126C75.7926 15.3441 75.6171 15.4756 75.4416 15.5633C75.1784 15.5633 74.959 15.6071 74.7835 15.6071ZM73.3356 16.8783H76.0997V27.5304H73.3356V16.8783Z" fill="black"/>
<path d="M78.7314 16.8845H80.7496L81.2322 17.9366C81.4516 17.7174 81.7148 17.5421 81.9781 17.3667C82.2413 17.1914 82.5046 17.0599 82.8117 16.9722C83.1627 16.8407 83.5137 16.7969 83.9085 16.7969C84.3911 16.7969 84.8738 16.8407 85.3564 17.0161C85.7074 17.1476 86.0145 17.2791 86.3216 17.4982C86.5848 17.6736 86.8481 17.9366 87.0236 18.1996C87.2868 17.9366 87.594 17.7174 87.9011 17.4982C88.2082 17.3229 88.5592 17.1476 88.9102 17.0161C89.3489 16.8845 89.7877 16.7969 90.2264 16.7969C91.411 16.7969 92.3762 17.1476 93.0782 17.8928C93.7802 18.638 94.1751 19.7339 94.1751 21.1804V27.5366H91.411V21.3996C91.4549 20.8298 91.2355 20.3037 90.8845 19.8654C90.7529 19.69 90.5774 19.5585 90.358 19.4708C90.1825 19.3832 89.9632 19.3393 89.7438 19.2955C89.5244 19.2955 89.305 19.2955 89.0857 19.3832C88.8663 19.4708 88.6908 19.5585 88.5153 19.69C88.4714 19.7339 88.3837 19.7777 88.3398 19.8654C87.945 20.3037 87.7694 20.8298 87.8133 21.3996V27.5366H85.0493V21.3996C85.0931 20.8298 84.8738 20.3037 84.5228 19.8654C84.3911 19.69 84.2156 19.5585 83.9963 19.4708C83.8208 19.3832 83.6014 19.3393 83.382 19.2955C83.1627 19.2955 82.9433 19.2955 82.7239 19.3832C82.5046 19.4708 82.3291 19.5585 82.1536 19.69C82.1097 19.7339 82.0219 19.7777 81.9781 19.8654C81.5832 20.3037 81.4077 20.8298 81.4516 21.3996V27.5366H78.6875L78.7314 16.8845Z" fill="black"/>
<path d="M98.0804 15.6071C97.7294 15.6071 97.3345 15.5194 97.0713 15.3003C96.7642 15.0811 96.5887 14.7742 96.5009 14.4235C96.4132 14.0729 96.457 13.7222 96.6325 13.3715C96.808 13.0646 97.0713 12.8016 97.4223 12.6701C97.7733 12.5386 98.1243 12.4948 98.5191 12.6263C98.8701 12.7139 99.1772 12.9331 99.3966 13.24C99.616 13.5468 99.7037 13.8975 99.6598 14.2482C99.616 14.5989 99.4405 14.9496 99.2211 15.2126C99.0895 15.3441 98.914 15.4756 98.7385 15.5633C98.5191 15.5633 98.2997 15.6071 98.0804 15.6071ZM96.6764 16.8783H99.4405V27.5304H96.6764V16.8783Z" fill="black"/>
<path d="M101.458 25.3431L106.24 19.4253H101.458V16.8828H109.706V19.0746L104.924 25.0362H109.926V27.5787H101.414V25.3431H101.458Z" fill="black"/>
<path d="M116.902 27.6681C116.156 27.6681 115.454 27.5366 114.796 27.2298C114.138 26.9667 113.568 26.5722 113.041 26.0462C112.515 25.564 112.12 24.9503 111.857 24.3366C111.55 23.6791 111.418 22.9339 111.418 22.2325C111.418 21.5311 111.55 20.7859 111.857 20.1284C112.164 19.4708 112.559 18.901 113.041 18.4188C113.524 17.9366 114.138 17.5421 114.796 17.2352C115.454 16.9722 116.156 16.7969 116.858 16.7969C117.56 16.7969 118.262 16.9284 118.92 17.1914C119.535 17.4544 120.105 17.8489 120.588 18.2873C121.07 18.7695 121.465 19.3832 121.728 19.9969C122.036 20.6982 122.167 21.4434 122.167 22.1887C122.167 22.3202 122.167 22.4078 122.123 22.5393C122.123 22.6708 122.079 22.7585 122.079 22.89C122.079 22.9777 122.036 23.1092 122.036 23.2407H114.358C114.489 23.7667 114.752 24.2051 115.191 24.5558C115.674 24.9503 116.288 25.1256 116.902 25.0818C117.209 25.0818 117.516 25.038 117.824 24.9503C118.043 24.8626 118.262 24.775 118.438 24.6873C118.613 24.5558 118.789 24.4243 118.92 24.2489H121.772C121.597 24.6873 121.377 25.0818 121.114 25.4763C120.807 25.8708 120.456 26.2654 120.017 26.5722C119.579 26.8791 119.096 27.1421 118.569 27.3613C118.087 27.5804 117.473 27.6681 116.902 27.6681ZM119.535 21.3996C119.403 20.7859 119.096 20.2599 118.613 19.8654C118.131 19.4708 117.516 19.2517 116.902 19.2517C116.288 19.2517 115.674 19.4708 115.191 19.8654C114.709 20.2599 114.401 20.7859 114.27 21.3996H119.535Z" fill="black"/>
<path d="M124.184 12.9375H126.948V27.5348H124.184V12.9375Z" fill="black"/>
<path d="M131.12 31.3924C130.988 31.3924 130.856 31.3924 130.769 31.3924C130.681 31.3924 130.549 31.3924 130.461 31.3486C130.374 31.3486 130.286 31.3047 130.154 31.2609V29.0691C130.637 29.1129 131.163 28.9814 131.558 28.6746C131.909 28.4116 132.129 28.0609 132.304 27.6664L132.524 27.0965L128.355 16.8828H131.207L133.971 23.8527L136.472 16.8828H139.324C138.534 18.8116 137.832 20.6088 137.174 22.1869C136.911 22.8445 136.648 23.5458 136.384 24.1595C136.121 24.8171 135.902 25.3869 135.682 25.9129C135.463 26.439 135.288 26.8773 135.156 27.228C135.024 27.5787 134.937 27.7979 134.893 27.8417C134.673 28.4116 134.41 28.9376 134.103 29.4636C133.884 29.8582 133.577 30.2088 133.269 30.5595C133.006 30.8225 132.655 31.0417 132.304 31.1732C131.953 31.3047 131.514 31.3924 131.12 31.3924Z" fill="black"/>
<path d="M42.0956 11.5781C40.4723 11.5781 38.8489 12.0603 37.4888 12.937C36.1287 13.8137 35.0757 15.085 34.4176 16.5315C33.7595 17.9781 33.6279 19.6 33.935 21.1781C34.2421 22.7562 35.0319 24.1589 36.2165 25.2987C37.3572 26.4384 38.8489 27.1836 40.4723 27.4905C42.0956 27.7973 43.7628 27.622 45.2545 27.0521C46.7901 26.4384 48.0625 25.4302 48.9838 24.0713C49.9052 22.7562 50.3878 21.1781 50.3878 19.6C50.3878 18.548 50.1684 17.4959 49.7736 16.5315C49.3348 15.5672 48.7645 14.6905 47.9747 13.9452C47.185 13.2 46.3075 12.5863 45.2984 12.1918C44.2454 11.7973 43.1925 11.5781 42.0956 11.5781ZM42.0956 24.8603C41.0426 24.8603 39.9896 24.5973 39.0683 24.0274C38.1908 23.4576 37.4449 22.6685 37.0501 21.7042C36.6113 20.7398 36.5236 19.6877 36.6991 18.6795C36.9184 17.6713 37.4011 16.7069 38.1469 15.9617C38.8928 15.2165 39.858 14.6905 40.911 14.5151C41.964 14.2959 43.0608 14.3836 44.0699 14.7781C45.079 15.1726 45.9127 15.8302 46.5269 16.7069C47.1411 17.5836 47.4482 18.5918 47.4482 19.6V19.6439C47.4482 21.0466 46.8779 22.3617 45.8688 23.3261C44.8597 24.2905 43.4996 24.8603 42.0956 24.8603Z" fill="black"/>
</svg>
