<svg width="162" height="36" viewBox="0 0 162 36" fill="none" xmlns="http://www.w3.org/2000/svg">
<g clip-path="url(#clip0_2516_10074)">
<path d="M43.346 13.6875C43.8807 11.6385 43.6598 10.0708 42.683 8.98437C41.7064 7.89792 39.9988 7.35104 37.5608 7.34375H28.2181L22.5859 28.9599H27.1093L29.3871 20.2099H32.3742C32.9207 20.1819 33.4653 20.296 33.9569 20.5416C34.1565 20.6694 34.3228 20.8444 34.442 21.052C34.5611 21.2595 34.6296 21.4934 34.6414 21.7339L35.4576 28.9599H40.3054L39.5141 22.2479C39.3573 20.7495 38.6837 19.8672 37.5145 19.6011C38.9291 19.2019 40.2199 18.4387 41.2644 17.3844C42.2736 16.3682 42.9932 15.0902 43.346 13.6875ZM39.0152 13.7641C38.8201 14.6503 38.2894 15.4212 37.5394 15.9078C36.8264 16.3672 35.7857 16.5932 34.4631 16.5932H30.2641L31.7397 10.9458H35.9425C37.2613 10.9458 38.1668 11.1755 38.6658 11.6312C39.1648 12.087 39.2718 12.8089 39.0152 13.7641Z" fill="#0C2651"/>
<path d="M56.4083 13.5149L55.8343 15.7024C55.5952 14.9206 55.0892 14.2528 54.4085 13.8211C53.6147 13.3338 52.6994 13.0931 51.7743 13.1284C50.4764 13.1287 49.201 13.4756 48.0744 14.1346C46.8479 14.854 45.7888 15.8366 44.9695 17.0149C44.0666 18.2888 43.4054 19.7245 43.0197 21.2476C42.6152 22.6033 42.5296 24.0373 42.7701 25.433C42.9537 26.5355 43.5304 27.5291 44.3885 28.2221C45.3212 28.9043 46.4512 29.2459 47.5967 29.192C48.6195 29.1944 49.6308 28.9704 50.561 28.5356C51.4913 28.1006 52.3185 27.4652 52.9863 26.6726L52.3946 28.955H56.8039L60.8247 13.5149H56.4083ZM54.4051 21.1712C54.1323 22.4283 53.5254 23.5841 52.6512 24.5108C52.2748 24.8876 51.8287 25.1841 51.3392 25.3833C50.8496 25.5822 50.3263 25.6798 49.7995 25.6701C48.6767 25.6701 47.921 25.3055 47.5146 24.5289C47.1084 23.7524 47.0975 22.6696 47.4684 21.2476C47.7503 19.9793 48.3667 18.8141 49.2506 17.8789C49.6283 17.4907 50.0778 17.1833 50.573 16.9749C51.0682 16.7664 51.5989 16.661 52.1343 16.6649C53.2322 16.6649 53.9808 17.055 54.3657 17.8315C54.7508 18.6081 54.79 19.7055 54.4121 21.1675L54.4051 21.1712Z" fill="#0C2651"/>
<path d="M76.5541 13.5156H63.8535L62.916 17.1177H70.3089L60.5883 25.7912L59.7578 28.974H72.8754L73.8129 25.3719H65.8817L75.7628 16.5745L76.5541 13.5156Z" fill="#0C2651"/>
<path d="M90.4449 14.0851C89.2654 13.3958 87.9202 13.0597 86.563 13.1153C85.0321 13.1018 83.5169 13.4328 82.1251 14.0851C80.7714 14.7307 79.5818 15.6878 78.6497 16.8815C77.6759 18.1336 76.9726 19.5824 76.5858 21.1325C76.1697 22.5111 76.1181 23.9778 76.436 25.3835C76.7277 26.5503 77.4527 27.5548 78.4571 28.1835C79.479 28.8277 80.786 29.1497 82.3781 29.1497C83.8927 29.1633 85.3913 28.8333 86.7662 28.1835C88.1158 27.5377 89.2996 26.5791 90.2238 25.3835C91.1995 24.1322 91.9041 22.6832 92.2913 21.1325C92.7082 19.7539 92.7585 18.2866 92.4375 16.8815C92.1567 15.7185 91.4413 14.7145 90.4449 14.0851ZM87.8711 21.1251C87.4756 22.6418 86.8945 23.7793 86.1102 24.5304C85.3535 25.2678 84.3428 25.6701 83.2978 25.6497C80.9928 25.6497 80.2334 24.1416 81.02 21.1251C81.4074 19.628 82.0016 18.499 82.8024 17.7382C83.5688 16.9884 84.5936 16.5783 85.654 16.5971C86.7519 16.5971 87.5005 16.9617 87.8854 17.7382C88.2705 18.5148 88.2597 19.6268 87.8711 21.1251Z" fill="#0C2651"/>
<path d="M138.46 13.5097L137.886 15.6972C137.647 14.9154 137.141 14.2476 136.46 13.8159C135.668 13.3242 134.752 13.0796 133.826 13.1123C132.526 13.1151 131.249 13.4658 130.122 14.1294C128.895 14.8486 127.834 15.8312 127.014 17.0097C126.112 18.2844 125.451 19.7199 125.064 21.2424C124.663 22.5987 124.578 24.0319 124.815 25.4278C124.998 26.5303 125.575 27.5239 126.433 28.2169C127.378 28.9047 128.522 29.2463 129.68 29.1868C130.68 29.1829 131.668 28.9617 132.578 28.5378C133.517 28.1067 134.351 27.4679 135.02 26.6674L134.428 28.9498H138.838L142.862 13.5097H138.46ZM136.446 21.166C136.174 22.4227 135.569 23.5785 134.695 24.5056C134.318 24.8812 133.872 25.177 133.383 25.3761C132.893 25.575 132.37 25.6732 131.844 25.6649C130.717 25.6649 129.962 25.3003 129.555 24.5237C129.149 23.7472 129.142 22.6644 129.509 21.2424C129.792 19.9747 130.409 18.8099 131.291 17.8737C131.67 17.4857 132.12 17.1785 132.616 16.9701C133.112 16.7617 133.643 16.6562 134.179 16.6597C135.277 16.6597 136.02 17.0485 136.41 17.8263C136.824 18.581 136.834 19.7003 136.446 21.1623V21.166Z" fill="#0C2651"/>
<path d="M106.141 17.6651L107.268 13.4615C106.793 13.2416 106.274 13.1379 105.753 13.1589C104.734 13.1601 103.732 13.4287 102.844 13.9391C102.034 14.393 101.331 15.0227 100.784 15.7839L101.365 13.5198H96.9589L92.9023 28.9599H97.3723L99.472 20.899C99.7179 19.8234 100.294 18.8564 101.115 18.1391C101.96 17.4642 103.01 17.1145 104.081 17.1511C104.798 17.148 105.506 17.3245 106.141 17.6651Z" fill="#0C2651"/>
<path d="M121.719 14.162C120.807 13.4491 119.679 13.0865 118.532 13.1375C117.416 13.1388 116.316 13.4112 115.324 13.9323C114.329 14.4326 113.472 15.1781 112.829 16.1016L112.846 15.9959L113.598 13.5203H109.214L108.095 17.8115C108.095 17.8589 108.07 17.9099 108.059 17.9573L103.461 35.6396H107.952L110.273 26.7292C110.495 27.5154 111.006 28.1831 111.699 28.5922C112.503 29.0647 113.42 29.2972 114.347 29.263C115.649 29.2667 116.931 28.9358 118.076 28.3005C119.294 27.6139 120.345 26.6557 121.152 25.4968C122.039 24.2294 122.689 22.8038 123.066 21.2933C123.473 19.9174 123.566 18.4642 123.337 17.0459C123.149 15.9186 122.576 14.8963 121.719 14.162ZM118.543 21.2204C118.269 22.4577 117.665 23.5932 116.799 24.5017C116.033 25.2512 115.008 25.6602 113.948 25.6392C112.843 25.6392 112.094 25.2489 111.699 24.4797C111.303 23.7105 111.282 22.6021 111.67 21.1401C111.948 19.8733 112.565 18.7106 113.452 17.7823C113.829 17.4058 114.275 17.1089 114.765 16.9087C115.254 16.7085 115.777 16.6089 116.304 16.6157C117.373 16.6157 118.118 17.024 118.507 17.8297C118.895 18.6355 118.92 19.7766 118.543 21.2204Z" fill="#0C2651"/>
<path d="M161.614 13.0078H156.98L156.267 14.5318C156.21 14.6083 156.157 14.6849 156.093 14.7797L156.018 14.9036L150.314 23.0629L149.131 13.5219H144.454L146.832 28.1562L141.574 35.6412H146.076L147.377 33.7416C147.417 33.6833 147.456 33.6359 147.491 33.574L149.013 31.3537L149.063 31.2953L155.861 21.375L161.614 13.0078Z" fill="#0C2651"/>
<path d="M11.1397 9.81355L9.78516 14.8594L17.4276 9.78802L12.4372 28.9614H17.5025L24.8776 0.640625L11.1397 9.81355Z" fill="#3395FF"/>
<path d="M2.90387 20.8964L0.800781 28.961H11.1915L15.4441 12.5547L2.90387 20.8964Z" fill="#0C2651"/>
</g>
<defs>
<clipPath id="clip0_2516_10074">
<rect width="161" height="35" fill="white" transform="translate(0.800781 0.640625)"/>
</clipPath>
</defs>
</svg>
