<svg width="157" height="23" viewBox="0 0 157 23" fill="none" xmlns="http://www.w3.org/2000/svg">
<path fill-rule="evenodd" clip-rule="evenodd" d="M69.5108 7.10876C69.5459 5.42948 70.2959 4.18975 72.6397 4.18975H73.5774V0.515625H71.8311C67.671 0.515625 65.421 2.92747 65.421 7.1313V8.15691H62.6672V11.2224H65.421V22.1997H69.5225V11.2224H72.7098V8.15691H69.5225L69.5108 7.10876ZM35.0116 14.7726L40.1443 22.1997H45.2418L39.6755 14.5922C42.7106 14.0851 44.8668 11.1887 44.8668 8.24709C44.8668 4.84343 42.734 1.4736 37.8006 1.4736H29.1875V22.1997H33.535V14.7726H35.0116ZM33.535 11.4028V5.18154H37.3553C39.3943 5.18154 40.4841 6.68049 40.4841 8.3372C40.4841 9.99398 39.4529 11.4028 37.0154 11.4028H33.535ZM108.615 22.5717C105.545 22.5717 102.58 20.8923 102.545 17.7931H106.389C106.389 18.6045 107.103 19.4723 108.545 19.4723C109.728 19.4723 110.642 18.8975 110.642 18.0861C110.642 17.4887 110.139 17.1844 109.049 16.914L107.103 16.4631C103.354 15.5052 102.85 13.4877 102.85 12.0113C102.85 9.84746 105.193 7.79627 108.58 7.79627C111.24 7.79627 114.369 9.02472 114.334 12.372H110.42C110.42 11.414 109.611 10.8956 108.638 10.8956C107.701 10.8956 106.951 11.4028 106.951 12.1241C106.951 12.789 107.572 13.1158 108.393 13.33L110.806 13.9273C114.31 14.8289 114.744 16.9365 114.744 18.0748C114.756 21.0388 111.627 22.5717 108.615 22.5717ZM116.783 3.31066C116.783 4.62929 117.966 5.6887 119.384 5.6887C120.826 5.6887 121.986 4.64056 121.986 3.31066C121.986 1.99203 120.826 0.966438 119.384 0.966438C117.966 0.966438 116.783 1.99203 116.783 3.31066ZM117.345 8.15691V22.211H121.447V8.15691H117.345ZM131.877 22.5717C127.716 22.5717 124.025 19.6188 124.025 15.2009C124.025 10.7491 127.716 7.79627 131.877 7.79627C136.037 7.79627 139.728 10.7491 139.728 15.2009C139.728 19.6188 136.037 22.5717 131.877 22.5717ZM131.877 18.8975C133.916 18.8975 135.568 17.3647 135.568 15.2009C135.568 13.0031 133.916 11.4704 131.877 11.4704C129.849 11.4704 128.185 13.0031 128.185 15.2009C128.185 17.3647 129.849 18.8975 131.877 18.8975ZM156.591 14.5021C156.626 10.287 154.622 7.79627 150.802 7.79627C149.36 7.79627 147.052 8.64151 146.419 10.5349V8.15691H142.317V22.211H146.419V14.8402C146.419 12.2819 148.236 11.5267 149.7 11.5267C151.106 11.5267 152.489 12.5185 152.489 14.7162V22.211H156.591V14.5021ZM95.4905 10.1518C96.8262 8.42738 98.5142 7.55957 100.564 7.55957V11.5943C98.9592 11.5943 97.7057 11.9776 96.803 12.7439C95.9243 13.5103 95.4905 14.5359 95.4905 15.8432V22.5942H91.4125V7.79627H95.4786L95.4905 10.1518ZM62.0226 16.418C62.1047 16.125 62.1398 15.7193 62.1398 15.2009C62.1398 13.082 61.3781 11.3239 59.8547 9.91508C58.3547 8.495 56.4798 7.78499 54.2181 7.78499C51.9682 7.78499 50.0815 8.495 48.5581 9.91508C47.0582 11.3126 46.3082 13.0708 46.3082 15.167C46.3082 17.2633 47.0699 19.0328 48.5933 20.4528C50.1167 21.8503 52.0151 22.5491 54.2885 22.5491C56.0579 22.5491 57.6282 22.1208 58.9993 21.253C60.3704 20.3852 61.343 19.2469 61.9172 17.8268H57.8391C57.5111 18.2889 57.0305 18.6609 56.3978 18.9652C55.7767 19.2469 55.097 19.3821 54.3471 19.3821C53.351 19.3821 52.4838 19.1117 51.7807 18.582C51.0659 18.0522 50.5854 17.3309 50.3393 16.4293L62.0226 16.418ZM54.2298 10.9407C55.1556 10.9407 55.9642 11.1999 56.6556 11.7183C57.3704 12.2367 57.8508 12.9243 58.0969 13.7921H50.3862C50.6323 12.9243 51.1127 12.2367 51.8041 11.7183C52.4955 11.1999 53.3041 10.9407 54.2298 10.9407ZM89.2801 16.418C89.3616 16.125 89.3966 15.7193 89.3966 15.2009C89.3966 13.082 88.6351 11.3239 87.112 9.91508C85.612 8.495 83.7373 7.78499 81.4751 7.78499C79.2255 7.78499 77.3388 8.495 75.815 9.91508C74.3151 11.3126 73.5655 13.0708 73.5655 15.167C73.5655 17.2633 74.327 19.0328 75.8501 20.4528C77.3739 21.8503 79.2725 22.5491 81.5453 22.5491C83.3148 22.5491 84.8856 22.1208 86.2564 21.253C87.6272 20.3852 88.6 19.2469 89.1741 17.8268H85.0962C84.7684 18.2889 84.2876 18.6609 83.6552 18.9652C83.034 19.2469 82.3539 19.3821 81.6042 19.3821C80.6082 19.3821 79.7407 19.1117 79.0381 18.582C78.3229 18.0522 77.8428 17.3309 77.5964 16.4293L89.2801 16.418ZM81.4751 10.9407C82.4009 10.9407 83.2095 11.1999 83.9008 11.7183C84.6161 12.2367 85.0961 12.9243 85.3425 13.7921H77.6315C77.8779 12.9243 78.358 12.2367 79.0493 11.7183C79.7526 11.1999 80.5612 10.9407 81.4751 10.9407Z" fill="#3C3C3C"/>
<path d="M17.2911 1.64266C16.377 1.13549 15.3927 0.752301 14.3615 0.515625L11.5842 5.59854L8.80692 0.526895C6.77965 1.02279 4.93984 2.04839 3.47504 3.47972L6.31091 7.79627L2.33835 7.64976L0.838384 7.59335C0.697762 7.97656 0.592296 8.38233 0.498548 8.77674C0.158713 10.2757 0.158713 11.831 0.486829 13.3412C0.568859 13.747 0.686044 14.1414 0.814947 14.5246L2.29148 14.4683L5.66639 14.3443L3.86175 17.0943L3.06489 18.3115C3.34613 18.6157 3.6391 18.9088 3.9555 19.1906C5.13906 20.2274 6.53355 21.0164 8.05695 21.4897C8.46714 21.6137 8.87725 21.7264 9.28737 21.8053L9.9788 20.5317L11.5725 17.624L13.1779 20.543L13.8693 21.8053C16.2951 21.3319 18.4864 20.1147 20.127 18.3453L19.3301 17.1168L17.1505 13.8146L22.5527 14.0175C23.1152 12.0789 23.1035 10.0278 22.5293 8.10058L16.506 8.32599L19.7051 3.4459C18.9903 2.74715 18.1817 2.13855 17.2911 1.64266ZM18.4629 18.041C17.3263 19.0778 15.9435 19.833 14.4435 20.2612L12.217 16.2039L11.5842 15.0543L10.9514 16.2039L8.73666 20.2499C7.22495 19.8217 5.85388 19.0553 4.72891 17.9959L7.26011 14.1414L7.9749 13.0482L6.62731 13.0933L1.9282 13.2736C1.56493 11.8085 1.57665 10.287 1.93992 8.82187L10.2952 9.13739C11.0335 9.15995 11.7483 9.3628 12.3811 9.71223C13.0139 10.0616 13.5529 10.5575 13.9514 11.1548L18.4629 18.041Z" fill="#3C3C3C"/>
</svg>
