<svg width="162" height="35" viewBox="0 0 162 35" fill="none" xmlns="http://www.w3.org/2000/svg">
<g clip-path="url(#clip0_2516_10060)">
<path d="M0.601562 1.04666C2.15399 0.696781 4.55609 0.492188 6.72294 0.492188C12.5793 0.492188 16.0961 2.41753 16.0961 7.31689C16.0961 10.3206 14.8057 12.3042 12.7867 13.3835L17.6743 21.2579C17.2932 21.5208 16.4733 21.6661 15.3308 21.6661C14.0404 21.6661 13.1927 21.5208 12.5773 21.2579L8.50764 14.4332H8.04608C7.05347 14.4332 5.73232 14.3452 5.02956 14.2286V21.2865C4.61961 21.5198 3.88707 21.6661 2.83293 21.6661C1.80757 21.6661 1.04625 21.5208 0.607518 21.2865L0.601562 1.04666ZM4.99482 4.42986V10.5252C5.82748 10.6622 6.67008 10.7306 7.51404 10.7297C10.062 10.7297 11.6194 9.82835 11.6194 7.55509C11.6194 5.22155 9.97966 4.25986 7.05347 4.25986C6.36355 4.25552 5.6746 4.31241 4.99482 4.42986Z" fill="#F1545B"/>
<path d="M23.3313 15.6541C23.507 17.696 24.971 18.6874 27.8714 18.6874C29.7465 18.6874 31.3862 18.2792 32.4374 17.8127C32.5247 18.9206 32.0562 20.3498 31.3833 21.1079C30.4165 21.6624 28.7767 22.1289 26.7557 22.1289C21.6299 22.1289 18.9062 19.1835 18.9062 14.4581C18.9062 9.58744 21.8354 6.4375 26.4341 6.4375C30.7103 6.4375 32.6726 9.06262 32.6726 12.9123C32.6697 13.8434 32.5217 14.7683 32.2339 15.6541H23.3313ZM28.6913 12.5901C28.9256 11.074 28.3687 9.58645 26.2604 9.58645C24.444 9.58645 23.3313 10.7527 23.2141 12.5901H28.6913Z" fill="#F1545B"/>
<path d="M41.7557 18.3939C41.9594 17.1231 42.2432 15.8664 42.6054 14.6311L44.8308 7.10666C45.1534 6.99003 45.6507 6.84375 46.5887 6.84375C47.7898 6.84375 48.6097 7.07701 49.1367 7.42689L44.5092 21.2522C42.9568 21.6901 40.789 21.8354 38.7095 21.8354L33.9062 7.42788C34.4333 7.07799 35.2532 6.84474 36.487 6.84474C37.3655 6.84474 37.9759 6.99003 38.2449 7.10765L40.6172 14.6321C41.0023 15.8652 41.3057 17.1222 41.5255 18.3949L41.7557 18.3939Z" fill="#F1545B"/>
<path d="M54.5852 15.6541C54.7609 17.696 56.225 18.6874 59.1253 18.6874C61.0004 18.6874 62.6401 18.2792 63.6913 17.8127C63.7787 18.9206 63.3101 20.3498 62.6372 21.1079C61.6704 21.6624 60.0306 22.1289 58.0096 22.1289C52.8839 22.1289 50.1602 19.1835 50.1602 14.4581C50.1602 9.58744 53.0893 6.4375 57.688 6.4375C61.9642 6.4375 63.9266 9.06262 63.9266 12.9123C63.9242 13.8432 63.7769 14.7681 63.4898 15.6541H54.5852ZM59.9452 12.5901C60.1795 11.074 59.6226 9.58645 57.5143 9.58645C55.6979 9.58645 54.5852 10.7527 54.468 12.5901H59.9452Z" fill="#F1545B"/>
<path d="M71.4544 21.3115C71.0732 21.5161 70.3705 21.6614 69.3451 21.6614C68.3197 21.6614 67.617 21.5161 67.207 21.3115V7.40017C68.0011 6.96233 69.2577 6.72907 70.6633 6.72907L70.8975 9.12093H71.1318C71.8345 7.60477 73.3284 6.4375 75.9955 6.4375C78.2219 6.4375 80.8593 7.2282 80.8593 12.0376V21.3125C80.4781 21.5171 79.7754 21.6624 78.75 21.6624C77.7246 21.6624 77.0219 21.5171 76.6119 21.3125V12.7957C76.6119 11.2795 76.0849 10.3169 74.3567 10.3169C72.8341 10.3169 71.9844 11.0749 71.4573 11.9793L71.4544 21.3115Z" fill="#F1545B"/>
<path d="M94.1265 19.7968C93.4823 21.1094 92.1056 22.1303 89.5278 22.1303C87.2448 22.1303 84.6641 21.3396 84.6641 16.4966V7.60127C85.6567 7.04679 87.0662 6.72656 88.9114 6.72656V15.7682C88.9114 17.3427 89.4077 18.2184 91.108 18.2184C92.4848 18.2184 93.391 17.6352 93.9201 16.9641V7.25534C94.33 7.05075 95.0328 6.90546 96.0581 6.90546C97.0835 6.90546 97.7863 7.05174 98.1674 7.25534V21.1677C97.4061 21.6055 96.205 21.8388 94.8581 21.8388L94.3618 19.7968H94.1265Z" fill="#F1545B"/>
<path d="M105.784 15.6541C105.96 17.696 107.424 18.6874 110.325 18.6874C112.2 18.6874 113.839 18.2792 114.891 17.8127C114.978 18.9206 114.509 20.3498 113.836 21.1079C112.87 21.6624 111.23 22.1289 109.209 22.1289C104.083 22.1289 101.359 19.1835 101.359 14.4581C101.359 9.58744 104.289 6.4375 108.887 6.4375C113.163 6.4375 115.126 9.06262 115.126 12.9123C115.123 13.8434 114.974 14.7683 114.686 15.6541H105.784ZM111.144 12.5901C111.379 11.074 110.822 9.58645 108.714 9.58645C106.897 9.58645 105.784 10.7527 105.667 12.5901H111.144Z" fill="#F1545B"/>
<path d="M129.303 4.01999C125.172 4.01999 122.332 6.12028 122.332 11.1946C122.332 16.2689 125.144 18.2822 129.097 18.2822C130.786 18.266 132.455 17.9306 134.018 17.2938C134.076 18.3731 133.549 20.2392 132.846 21.1732C131.587 21.786 129.769 22.2228 127.72 22.2228C121.452 22.2228 117.762 18.1982 117.762 11.4901C117.763 4.25324 122.068 0.140625 128.394 0.140625C130.064 0.140625 131.762 0.437137 132.846 1.07365C133.52 2.03632 133.813 3.75708 133.666 5.03999C132.261 4.36987 130.972 4.01999 129.303 4.01999Z" fill="#F1545B"/>
<path d="M144.419 20.0306C143.775 21.3155 142.398 22.1309 140.377 22.1309C137.797 22.1309 135.574 20.846 135.574 17.4648C135.574 13.9066 138.155 12.5358 141.55 12.5358C142.452 12.5247 143.351 12.6527 144.215 12.9153V12.5071C144.215 10.728 143.336 10.0866 141.403 10.0866C139.761 10.0855 138.146 10.5062 136.716 11.3082C136.364 10.1706 136.51 8.36285 137.184 7.40017C138.239 6.81703 140.055 6.4375 142.223 6.4375C146.44 6.4375 148.461 7.92006 148.461 12.2412V17.2869C148.461 18.1912 148.871 18.3948 149.454 18.3948C149.898 18.4027 150.336 18.2811 150.713 18.0449C150.831 19.2112 150.479 20.6404 149.952 21.4568C149.337 21.865 148.517 22.1279 147.521 22.1279C145.823 22.1279 144.94 21.3985 144.651 20.0276L144.419 20.0306ZM144.302 15.7144C143.686 15.4755 143.03 15.3568 142.369 15.3645C140.67 15.3645 139.821 16.0642 139.821 17.1732C139.821 18.3108 140.67 18.719 141.842 18.719C142.779 18.719 143.717 18.4225 144.302 17.698V15.7144Z" fill="#F1545B"/>
<path d="M157.371 10.6169H161.28C161.457 10.265 161.545 9.52967 161.545 8.79729C161.545 8.0649 161.457 7.33054 161.28 6.9777H157.371V2.63281C155.724 2.66246 154.166 3.04398 153.107 3.80601V6.97473H151.432C151.05 7.91368 150.844 9.34682 150.844 10.6129H153.108L153.051 20.9216C153.051 22.0573 152.852 23.5092 152.2 23.9648C149.096 26.1521 142.783 25.0936 136.99 24.4936C128.668 23.6318 121.481 22.4991 120.287 27.0841C119.656 29.5066 120.475 31.0544 121.273 31.9272C122.876 33.6796 125.705 34.0789 127.95 34.0789C129.005 34.0777 130.059 33.9954 131.102 33.8328C131.633 33.7469 132.108 33.4546 132.422 33.0201C132.737 32.5857 132.866 32.0447 132.78 31.516C132.601 30.415 131.554 29.6381 130.454 29.8417C128.146 30.2707 124.889 31.2254 123.639 29.8585C123.216 29.3969 123.29 28.2633 123.639 27.9124C124.568 26.5287 130.548 27.0575 136.57 27.8669C143.22 28.5588 150.106 29.5284 154.016 27.5813C155.546 26.8193 157.371 25.0451 157.371 20.9216V10.6169Z" fill="#F1545B"/>
</g>
<defs>
<clipPath id="clip0_2516_10060">
<rect width="161" height="34" fill="white" transform="translate(0.601562 0.140625)"/>
</clipPath>
</defs>
</svg>
