<svg width="497" height="252" viewBox="0 0 497 252" fill="none" xmlns="http://www.w3.org/2000/svg">
<g clip-path="url(#clip0_2215_11495)">
<path d="M12.6526 236.026V247.492H11.1326V236.026H12.6526ZM16.6533 240.79V247.492H15.1963V238.971H16.5745L16.6533 240.79ZM16.3068 242.909L15.7003 242.885C15.7056 242.302 15.7922 241.764 15.9602 241.271C16.1282 240.772 16.3645 240.339 16.669 239.971C16.9735 239.604 17.3358 239.32 17.7558 239.121C18.1811 238.916 18.651 238.813 19.1655 238.813C19.5856 238.813 19.9636 238.871 20.2996 238.987C20.6356 239.097 20.9217 239.276 21.158 239.522C21.3995 239.769 21.5833 240.089 21.7093 240.483C21.8353 240.872 21.8983 241.347 21.8983 241.909V247.492H20.4335V241.893C20.4335 241.446 20.3678 241.089 20.2366 240.822C20.1053 240.549 19.9137 240.352 19.6617 240.231C19.4097 240.105 19.0999 240.042 18.7324 240.042C18.3701 240.042 18.0393 240.118 17.7401 240.27C17.4461 240.423 17.1914 240.633 16.9762 240.9C16.7662 241.168 16.6008 241.475 16.48 241.822C16.3645 242.163 16.3068 242.525 16.3068 242.909ZM27.6789 238.971V240.089H23.0717V238.971H27.6789ZM24.6311 236.9H26.088V245.382C26.088 245.67 26.1326 245.888 26.2219 246.035C26.3112 246.182 26.4267 246.279 26.5684 246.327C26.7102 246.374 26.8624 246.398 27.0252 246.398C27.146 246.398 27.272 246.387 27.4032 246.366C27.5397 246.34 27.6421 246.319 27.7104 246.303L27.7182 247.492C27.6027 247.529 27.4505 247.563 27.2615 247.595C27.0777 247.631 26.8546 247.65 26.592 247.65C26.235 247.65 25.9069 247.579 25.6076 247.437C25.3084 247.295 25.0695 247.059 24.891 246.728C24.7177 246.392 24.6311 245.941 24.6311 245.374V236.9ZM30.8448 240.31V247.492H29.3878V238.971H30.8054L30.8448 240.31ZM33.5067 238.924L33.4988 240.278C33.378 240.252 33.2625 240.236 33.1523 240.231C33.0473 240.221 32.9265 240.215 32.79 240.215C32.454 240.215 32.1573 240.268 31.9001 240.373C31.6428 240.478 31.4249 240.625 31.2464 240.814C31.0679 241.003 30.9262 241.229 30.8211 241.491C30.7214 241.748 30.6558 242.032 30.6243 242.342L30.2147 242.578C30.2147 242.063 30.2646 241.58 30.3644 241.129C30.4694 240.677 30.6295 240.278 30.8448 239.932C31.06 239.58 31.333 239.307 31.6638 239.113C31.9998 238.913 32.3989 238.813 32.8609 238.813C32.9659 238.813 33.0866 238.827 33.2231 238.853C33.3597 238.874 33.4542 238.897 33.5067 238.924ZM34.31 243.326V243.145C34.31 242.531 34.3992 241.961 34.5777 241.436C34.7562 240.906 35.0135 240.446 35.3495 240.058C35.6855 239.664 36.0924 239.36 36.5702 239.144C37.048 238.924 37.5835 238.813 38.1768 238.813C38.7753 238.813 39.3135 238.924 39.7912 239.144C40.2743 239.36 40.6838 239.664 41.0198 240.058C41.3611 240.446 41.621 240.906 41.7995 241.436C41.978 241.961 42.0672 242.531 42.0672 243.145V243.326C42.0672 243.94 41.978 244.51 41.7995 245.035C41.621 245.56 41.3611 246.019 41.0198 246.413C40.6838 246.802 40.2769 247.106 39.7991 247.327C39.3266 247.542 38.7911 247.65 38.1925 247.65C37.594 247.65 37.0558 247.542 36.5781 247.327C36.1003 247.106 35.6908 246.802 35.3495 246.413C35.0135 246.019 34.7562 245.56 34.5777 245.035C34.3992 244.51 34.31 243.94 34.31 243.326ZM35.7669 243.145V243.326C35.7669 243.751 35.8168 244.153 35.9165 244.531C36.0163 244.904 36.1659 245.235 36.3654 245.523C36.5702 245.812 36.8248 246.04 37.1294 246.208C37.4339 246.371 37.7883 246.453 38.1925 246.453C38.5916 246.453 38.9407 246.371 39.24 246.208C39.5445 246.04 39.7965 245.812 39.996 245.523C40.1955 245.235 40.3451 244.904 40.4449 244.531C40.5499 244.153 40.6024 243.751 40.6024 243.326V243.145C40.6024 242.725 40.5499 242.329 40.4449 241.956C40.3451 241.578 40.1929 241.244 39.9881 240.956C39.7886 240.662 39.5366 240.431 39.2321 240.263C38.9328 240.095 38.5811 240.011 38.1768 240.011C37.7778 240.011 37.426 240.095 37.1215 240.263C36.8222 240.431 36.5702 240.662 36.3654 240.956C36.1659 241.244 36.0163 241.578 35.9165 241.956C35.8168 242.329 35.7669 242.725 35.7669 243.145ZM49.2654 245.838V235.396H50.7302V247.492H49.3914L49.2654 245.838ZM43.5321 243.326V243.161C43.5321 242.51 43.6108 241.919 43.7683 241.389C43.9311 240.853 44.1595 240.394 44.4535 240.011C44.7528 239.627 45.1071 239.333 45.5167 239.128C45.9314 238.918 46.3935 238.813 46.9027 238.813C47.4383 238.813 47.9055 238.908 48.3046 239.097C48.7088 239.281 49.0501 239.551 49.3284 239.908C49.6119 240.26 49.835 240.685 49.9978 241.184C50.1605 241.683 50.2734 242.247 50.3364 242.877V243.602C50.2787 244.227 50.1658 244.788 49.9978 245.287C49.835 245.786 49.6119 246.211 49.3284 246.563C49.0501 246.915 48.7088 247.185 48.3046 247.374C47.9003 247.558 47.4278 247.65 46.887 247.65C46.3882 247.65 45.9314 247.542 45.5167 247.327C45.1071 247.112 44.7528 246.81 44.4535 246.421C44.1595 246.033 43.9311 245.576 43.7683 245.051C43.6108 244.521 43.5321 243.946 43.5321 243.326ZM44.9969 243.161V243.326C44.9969 243.751 45.0389 244.15 45.1229 244.523C45.2122 244.896 45.3487 245.224 45.5324 245.508C45.7162 245.791 45.9498 246.014 46.2333 246.177C46.5168 246.335 46.8555 246.413 47.2493 246.413C47.7323 246.413 48.1287 246.311 48.4384 246.106C48.7535 245.901 49.0055 245.631 49.1945 245.295C49.3835 244.959 49.5305 244.594 49.6355 244.2V242.302C49.5725 242.014 49.4806 241.735 49.3599 241.467C49.2444 241.194 49.0921 240.953 48.9031 240.743C48.7193 240.528 48.491 240.357 48.2179 240.231C47.9502 240.105 47.6325 240.042 47.265 240.042C46.866 240.042 46.5221 240.126 46.2333 240.294C45.9498 240.457 45.7162 240.683 45.5324 240.971C45.3487 241.255 45.2122 241.586 45.1229 241.964C45.0389 242.336 44.9969 242.735 44.9969 243.161ZM58.2118 245.523V238.971H59.6767V247.492H58.2827L58.2118 245.523ZM58.4875 243.728L59.0939 243.712C59.0939 244.279 59.0335 244.804 58.9128 245.287C58.7972 245.765 58.6082 246.18 58.3457 246.531C58.0832 246.883 57.7393 247.159 57.314 247.358C56.8888 247.553 56.3716 247.65 55.7626 247.65C55.3478 247.65 54.9672 247.589 54.6207 247.469C54.2794 247.348 53.9854 247.161 53.7386 246.909C53.4918 246.657 53.3002 246.329 53.1637 245.925C53.0324 245.521 52.9668 245.035 52.9668 244.468V238.971H54.4238V244.484C54.4238 244.867 54.4658 245.185 54.5498 245.437C54.639 245.683 54.7572 245.88 54.9042 246.027C55.0564 246.169 55.2244 246.269 55.4082 246.327C55.5972 246.384 55.7915 246.413 55.991 246.413C56.6105 246.413 57.1014 246.295 57.4637 246.059C57.8259 245.817 58.0858 245.494 58.2433 245.09C58.4061 244.681 58.4875 244.227 58.4875 243.728ZM65.3076 246.453C65.6541 246.453 65.9744 246.382 66.2684 246.24C66.5624 246.098 66.8039 245.904 66.9929 245.657C67.1819 245.405 67.2896 245.119 67.3158 244.799H68.7019C68.6756 245.303 68.505 245.773 68.19 246.208C67.8802 246.639 67.4733 246.988 66.9693 247.256C66.4653 247.518 65.9114 247.65 65.3076 247.65C64.6671 247.65 64.1079 247.537 63.6301 247.311C63.1576 247.085 62.7638 246.776 62.4488 246.382C62.139 245.988 61.9054 245.536 61.7479 245.027C61.5956 244.513 61.5195 243.969 61.5195 243.397V243.066C61.5195 242.494 61.5956 241.953 61.7479 241.444C61.9054 240.929 62.139 240.475 62.4488 240.081C62.7638 239.688 63.1576 239.378 63.6301 239.152C64.1079 238.926 64.6671 238.813 65.3076 238.813C65.9744 238.813 66.5572 238.95 67.0559 239.223C67.5547 239.491 67.9459 239.858 68.2294 240.326C68.5181 240.788 68.6756 241.313 68.7019 241.901H67.3158C67.2896 241.549 67.1898 241.231 67.0166 240.948C66.8485 240.664 66.6175 240.438 66.3235 240.27C66.0348 240.097 65.6961 240.011 65.3076 240.011C64.8613 240.011 64.4859 240.1 64.1814 240.278C63.8821 240.452 63.6433 240.688 63.4647 240.987C63.2915 241.281 63.1655 241.609 63.0867 241.972C63.0132 242.329 62.9765 242.693 62.9765 243.066V243.397C62.9765 243.77 63.0132 244.137 63.0867 244.5C63.1602 244.862 63.2836 245.19 63.4569 245.484C63.6354 245.778 63.8743 246.014 64.1735 246.193C64.478 246.366 64.8561 246.453 65.3076 246.453ZM73.9075 238.971V240.089H69.3004V238.971H73.9075ZM70.8598 236.9H72.3167V245.382C72.3167 245.67 72.3613 245.888 72.4506 246.035C72.5398 246.182 72.6554 246.279 72.7971 246.327C72.9389 246.374 73.0911 246.398 73.2539 246.398C73.3746 246.398 73.5006 246.387 73.6319 246.366C73.7684 246.34 73.8708 246.319 73.939 246.303L73.9469 247.492C73.8314 247.529 73.6792 247.563 73.4901 247.595C73.3064 247.631 73.0832 247.65 72.8207 247.65C72.4637 247.65 72.1356 247.579 71.8363 247.437C71.537 247.295 71.2982 247.059 71.1196 246.728C70.9464 246.392 70.8598 245.941 70.8598 245.374V236.9ZM77.1995 238.971V247.492H75.7346V238.971H77.1995ZM75.6244 236.711C75.6244 236.474 75.6953 236.275 75.837 236.112C75.984 235.949 76.1993 235.868 76.4828 235.868C76.7611 235.868 76.9737 235.949 77.1207 236.112C77.273 236.275 77.3491 236.474 77.3491 236.711C77.3491 236.937 77.273 237.131 77.1207 237.294C76.9737 237.451 76.7611 237.53 76.4828 237.53C76.1993 237.53 75.984 237.451 75.837 237.294C75.6953 237.131 75.6244 236.937 75.6244 236.711ZM79.1526 243.326V243.145C79.1526 242.531 79.2418 241.961 79.4203 241.436C79.5988 240.906 79.8561 240.446 80.1921 240.058C80.5281 239.664 80.935 239.36 81.4128 239.144C81.8906 238.924 82.4261 238.813 83.0194 238.813C83.6179 238.813 84.1561 238.924 84.6339 239.144C85.1169 239.36 85.5264 239.664 85.8624 240.058C86.2037 240.446 86.4636 240.906 86.6421 241.436C86.8206 241.961 86.9099 242.531 86.9099 243.145V243.326C86.9099 243.94 86.8206 244.51 86.6421 245.035C86.4636 245.56 86.2037 246.019 85.8624 246.413C85.5264 246.802 85.1195 247.106 84.6417 247.327C84.1692 247.542 83.6337 247.65 83.0351 247.65C82.4366 247.65 81.8985 247.542 81.4207 247.327C80.9429 247.106 80.5334 246.802 80.1921 246.413C79.8561 246.019 79.5988 245.56 79.4203 245.035C79.2418 244.51 79.1526 243.94 79.1526 243.326ZM80.6095 243.145V243.326C80.6095 243.751 80.6594 244.153 80.7592 244.531C80.8589 244.904 81.0085 245.235 81.2081 245.523C81.4128 245.812 81.6675 246.04 81.972 246.208C82.2765 246.371 82.6309 246.453 83.0351 246.453C83.4342 246.453 83.7833 246.371 84.0826 246.208C84.3871 246.04 84.6391 245.812 84.8386 245.523C85.0381 245.235 85.1878 244.904 85.2875 244.531C85.3925 244.153 85.445 243.751 85.445 243.326V243.145C85.445 242.725 85.3925 242.329 85.2875 241.956C85.1878 241.578 85.0355 241.244 84.8307 240.956C84.6312 240.662 84.3792 240.431 84.0747 240.263C83.7754 240.095 83.4237 240.011 83.0194 240.011C82.6204 240.011 82.2686 240.095 81.9641 240.263C81.6648 240.431 81.4128 240.662 81.2081 240.956C81.0085 241.244 80.8589 241.578 80.7592 241.956C80.6594 242.329 80.6095 242.725 80.6095 243.145ZM90.1939 240.79V247.492H88.737V238.971H90.1151L90.1939 240.79ZM89.8474 242.909L89.241 242.885C89.2462 242.302 89.3329 241.764 89.5009 241.271C89.6689 240.772 89.9051 240.339 90.2097 239.971C90.5142 239.604 90.8764 239.32 91.2965 239.121C91.7217 238.916 92.1916 238.813 92.7062 238.813C93.1262 238.813 93.5042 238.871 93.8402 238.987C94.1762 239.097 94.4624 239.276 94.6986 239.522C94.9402 239.769 95.1239 240.089 95.2499 240.483C95.3759 240.872 95.4389 241.347 95.4389 241.909V247.492H93.9741V241.893C93.9741 241.446 93.9085 241.089 93.7772 240.822C93.646 240.549 93.4543 240.352 93.2023 240.231C92.9503 240.105 92.6405 240.042 92.273 240.042C91.9107 240.042 91.58 240.118 91.2807 240.27C90.9867 240.423 90.7321 240.633 90.5168 240.9C90.3068 241.168 90.1414 241.475 90.0206 241.822C89.9051 242.163 89.8474 242.525 89.8474 242.909Z" fill="black"/>
<path d="M151.199 241.783V245.98C151.058 246.19 150.832 246.426 150.522 246.689C150.212 246.946 149.784 247.172 149.238 247.366C148.698 247.555 147.999 247.65 147.144 247.65C146.445 247.65 145.802 247.529 145.214 247.287C144.631 247.041 144.125 246.684 143.694 246.216C143.269 245.744 142.938 245.172 142.702 244.5C142.471 243.822 142.355 243.056 142.355 242.2V241.31C142.355 240.454 142.455 239.69 142.655 239.018C142.859 238.346 143.159 237.777 143.552 237.309C143.946 236.837 144.429 236.48 145.001 236.238C145.574 235.991 146.23 235.868 146.97 235.868C147.847 235.868 148.58 236.02 149.168 236.325C149.761 236.624 150.223 237.039 150.554 237.569C150.89 238.099 151.105 238.703 151.199 239.381H149.679C149.611 238.966 149.475 238.588 149.27 238.246C149.07 237.905 148.784 237.632 148.412 237.427C148.039 237.217 147.558 237.112 146.97 237.112C146.44 237.112 145.981 237.21 145.592 237.404C145.204 237.598 144.883 237.876 144.631 238.239C144.379 238.601 144.19 239.039 144.064 239.554C143.944 240.068 143.883 240.648 143.883 241.294V242.2C143.883 242.861 143.959 243.452 144.112 243.972C144.269 244.492 144.492 244.935 144.781 245.303C145.07 245.665 145.414 245.941 145.813 246.13C146.217 246.319 146.663 246.413 147.151 246.413C147.692 246.413 148.131 246.369 148.467 246.279C148.803 246.185 149.065 246.075 149.254 245.949C149.443 245.817 149.588 245.694 149.687 245.578V243.011H147.033V241.783H151.199ZM154.956 240.31V247.492H153.499V238.971H154.917L154.956 240.31ZM157.618 238.924L157.61 240.278C157.489 240.252 157.374 240.236 157.263 240.231C157.158 240.221 157.038 240.215 156.901 240.215C156.565 240.215 156.269 240.268 156.011 240.373C155.754 240.478 155.536 240.625 155.358 240.814C155.179 241.003 155.037 241.229 154.932 241.491C154.833 241.748 154.767 242.032 154.735 242.342L154.326 242.578C154.326 242.063 154.376 241.58 154.476 241.129C154.581 240.677 154.741 240.278 154.956 239.932C155.171 239.58 155.444 239.307 155.775 239.113C156.111 238.913 156.51 238.813 156.972 238.813C157.077 238.813 157.198 238.827 157.334 238.853C157.471 238.874 157.565 238.897 157.618 238.924ZM158.421 243.326V243.145C158.421 242.531 158.51 241.961 158.689 241.436C158.867 240.906 159.125 240.446 159.461 240.058C159.797 239.664 160.204 239.36 160.681 239.144C161.159 238.924 161.695 238.813 162.288 238.813C162.887 238.813 163.425 238.924 163.902 239.144C164.385 239.36 164.795 239.664 165.131 240.058C165.472 240.446 165.732 240.906 165.911 241.436C166.089 241.961 166.178 242.531 166.178 243.145V243.326C166.178 243.94 166.089 244.51 165.911 245.035C165.732 245.56 165.472 246.019 165.131 246.413C164.795 246.802 164.388 247.106 163.91 247.327C163.438 247.542 162.902 247.65 162.304 247.65C161.705 247.65 161.167 247.542 160.689 247.327C160.212 247.106 159.802 246.802 159.461 246.413C159.125 246.019 158.867 245.56 158.689 245.035C158.51 244.51 158.421 243.94 158.421 243.326ZM159.878 243.145V243.326C159.878 243.751 159.928 244.153 160.028 244.531C160.128 244.904 160.277 245.235 160.477 245.523C160.681 245.812 160.936 246.04 161.241 246.208C161.545 246.371 161.899 246.453 162.304 246.453C162.703 246.453 163.052 246.371 163.351 246.208C163.656 246.04 163.908 245.812 164.107 245.523C164.307 245.235 164.456 244.904 164.556 244.531C164.661 244.153 164.714 243.751 164.714 243.326V243.145C164.714 242.725 164.661 242.329 164.556 241.956C164.456 241.578 164.304 241.244 164.099 240.956C163.9 240.662 163.648 240.431 163.343 240.263C163.044 240.095 162.692 240.011 162.288 240.011C161.889 240.011 161.537 240.095 161.233 240.263C160.933 240.431 160.681 240.662 160.477 240.956C160.277 241.244 160.128 241.578 160.028 241.956C159.928 242.329 159.878 242.725 159.878 243.145ZM170.163 245.98L172.353 238.971H173.314L173.125 240.365L170.896 247.492H169.959L170.163 245.98ZM168.691 238.971L170.557 246.059L170.691 247.492H169.707L167.234 238.971H168.691ZM175.408 246.004L177.188 238.971H178.637L176.164 247.492H175.188L175.408 246.004ZM173.526 238.971L175.668 245.862L175.912 247.492H174.983L172.691 240.349L172.502 238.971H173.526ZM183.701 238.971V240.089H179.094V238.971H183.701ZM180.653 236.9H182.11V245.382C182.11 245.67 182.155 245.888 182.244 246.035C182.334 246.182 182.449 246.279 182.591 246.327C182.733 246.374 182.885 246.398 183.048 246.398C183.168 246.398 183.294 246.387 183.426 246.366C183.562 246.34 183.665 246.319 183.733 246.303L183.741 247.492C183.625 247.529 183.473 247.563 183.284 247.595C183.1 247.631 182.877 247.65 182.614 247.65C182.257 247.65 181.929 247.579 181.63 247.437C181.331 247.295 181.092 247.059 180.913 246.728C180.74 246.392 180.653 245.941 180.653 245.374V236.9ZM186.867 235.396V247.492H185.41V235.396H186.867ZM186.521 242.909L185.914 242.885C185.92 242.302 186.006 241.764 186.174 241.271C186.342 240.772 186.578 240.339 186.883 239.971C187.187 239.604 187.55 239.32 187.97 239.121C188.395 238.916 188.865 238.813 189.379 238.813C189.799 238.813 190.177 238.871 190.513 238.987C190.85 239.097 191.136 239.276 191.372 239.522C191.613 239.769 191.797 240.089 191.923 240.483C192.049 240.872 192.112 241.347 192.112 241.909V247.492H190.647V241.893C190.647 241.446 190.582 241.089 190.45 240.822C190.319 240.549 190.128 240.352 189.876 240.231C189.624 240.105 189.314 240.042 188.946 240.042C188.584 240.042 188.253 240.118 187.954 240.27C187.66 240.423 187.405 240.633 187.19 240.9C186.98 241.168 186.815 241.475 186.694 241.822C186.578 242.163 186.521 242.525 186.521 242.909Z" fill="black"/>
<path d="M274.079 236.026H275.552L279.308 245.374L283.057 236.026H284.537L279.875 247.492H278.725L274.079 236.026ZM273.599 236.026H274.898L275.111 243.019V247.492H273.599V236.026ZM283.711 236.026H285.01V247.492H283.498V243.019L283.711 236.026ZM292.484 246.035V241.649C292.484 241.313 292.416 241.021 292.279 240.774C292.148 240.522 291.948 240.328 291.68 240.192C291.413 240.055 291.082 239.987 290.688 239.987C290.321 239.987 289.998 240.05 289.719 240.176C289.446 240.302 289.231 240.467 289.074 240.672C288.921 240.877 288.845 241.097 288.845 241.334H287.388C287.388 241.029 287.467 240.727 287.625 240.428C287.782 240.129 288.008 239.858 288.302 239.617C288.601 239.37 288.958 239.176 289.373 239.034C289.793 238.887 290.26 238.813 290.775 238.813C291.394 238.813 291.94 238.918 292.413 239.128C292.891 239.339 293.263 239.656 293.531 240.081C293.804 240.501 293.941 241.029 293.941 241.664V245.634C293.941 245.917 293.964 246.219 294.012 246.539C294.064 246.86 294.14 247.135 294.24 247.366V247.492H292.72C292.647 247.324 292.589 247.101 292.547 246.823C292.505 246.539 292.484 246.277 292.484 246.035ZM292.736 242.326L292.752 243.35H291.279C290.864 243.35 290.494 243.384 290.168 243.452C289.843 243.515 289.57 243.612 289.349 243.743C289.129 243.875 288.961 244.04 288.845 244.24C288.73 244.434 288.672 244.662 288.672 244.925C288.672 245.193 288.732 245.437 288.853 245.657C288.974 245.878 289.155 246.054 289.397 246.185C289.643 246.311 289.945 246.374 290.302 246.374C290.749 246.374 291.142 246.279 291.484 246.09C291.825 245.901 292.095 245.67 292.295 245.397C292.5 245.124 292.61 244.859 292.626 244.602L293.248 245.303C293.211 245.523 293.111 245.767 292.948 246.035C292.786 246.303 292.568 246.56 292.295 246.807C292.027 247.049 291.707 247.251 291.334 247.413C290.966 247.571 290.552 247.65 290.09 247.65C289.512 247.65 289.005 247.537 288.57 247.311C288.139 247.085 287.803 246.783 287.562 246.405C287.325 246.022 287.207 245.594 287.207 245.122C287.207 244.665 287.296 244.263 287.475 243.917C287.654 243.565 287.911 243.274 288.247 243.043C288.583 242.806 288.987 242.628 289.46 242.507C289.932 242.386 290.46 242.326 291.043 242.326H292.736ZM299.8 238.971V240.089H295.193V238.971H299.8ZM296.752 236.9H298.209V245.382C298.209 245.67 298.254 245.888 298.343 246.035C298.432 246.182 298.548 246.279 298.69 246.327C298.831 246.374 298.984 246.398 299.146 246.398C299.267 246.398 299.393 246.387 299.524 246.366C299.661 246.34 299.763 246.319 299.832 246.303L299.839 247.492C299.724 247.529 299.572 247.563 299.383 247.595C299.199 247.631 298.976 247.65 298.713 247.65C298.356 247.65 298.028 247.579 297.729 247.437C297.43 247.295 297.191 247.059 297.012 246.728C296.839 246.392 296.752 245.941 296.752 245.374V236.9ZM306.723 245.523V238.971H308.187V247.492H306.793L306.723 245.523ZM306.998 243.728L307.605 243.712C307.605 244.279 307.544 244.804 307.423 245.287C307.308 245.765 307.119 246.18 306.856 246.531C306.594 246.883 306.25 247.159 305.825 247.358C305.399 247.553 304.882 247.65 304.273 247.65C303.858 247.65 303.478 247.589 303.131 247.469C302.79 247.348 302.496 247.161 302.249 246.909C302.003 246.657 301.811 246.329 301.674 245.925C301.543 245.521 301.477 245.035 301.477 244.468V238.971H302.934V244.484C302.934 244.867 302.976 245.185 303.06 245.437C303.15 245.683 303.268 245.88 303.415 246.027C303.567 246.169 303.735 246.269 303.919 246.327C304.108 246.384 304.302 246.413 304.502 246.413C305.121 246.413 305.612 246.295 305.974 246.059C306.337 245.817 306.597 245.494 306.754 245.09C306.917 244.681 306.998 244.227 306.998 243.728ZM311.865 240.31V247.492H310.408V238.971H311.826L311.865 240.31ZM314.527 238.924L314.519 240.278C314.398 240.252 314.283 240.236 314.173 240.231C314.068 240.221 313.947 240.215 313.81 240.215C313.474 240.215 313.178 240.268 312.92 240.373C312.663 240.478 312.445 240.625 312.267 240.814C312.088 241.003 311.947 241.229 311.842 241.491C311.742 241.748 311.676 242.032 311.645 242.342L311.235 242.578C311.235 242.063 311.285 241.58 311.385 241.129C311.49 240.677 311.65 240.278 311.865 239.932C312.08 239.58 312.353 239.307 312.684 239.113C313.02 238.913 313.419 238.813 313.881 238.813C313.986 238.813 314.107 238.827 314.244 238.853C314.38 238.874 314.475 238.897 314.527 238.924ZM317.457 238.971V247.492H315.992V238.971H317.457ZM315.882 236.711C315.882 236.474 315.953 236.275 316.094 236.112C316.241 235.949 316.457 235.868 316.74 235.868C317.018 235.868 317.231 235.949 317.378 236.112C317.53 236.275 317.606 236.474 317.606 236.711C317.606 236.937 317.53 237.131 317.378 237.294C317.231 237.451 317.018 237.53 316.74 237.53C316.457 237.53 316.241 237.451 316.094 237.294C315.953 237.131 315.882 236.937 315.882 236.711ZM323.363 238.971V240.089H318.756V238.971H323.363ZM320.315 236.9H321.772V245.382C321.772 245.67 321.817 245.888 321.906 246.035C321.996 246.182 322.111 246.279 322.253 246.327C322.395 246.374 322.547 246.398 322.71 246.398C322.83 246.398 322.956 246.387 323.088 246.366C323.224 246.34 323.327 246.319 323.395 246.303L323.403 247.492C323.287 247.529 323.135 247.563 322.946 247.595C322.762 247.631 322.539 247.65 322.276 247.65C321.919 247.65 321.591 247.579 321.292 247.437C320.993 247.295 320.754 247.059 320.575 246.728C320.402 246.392 320.315 245.941 320.315 245.374V236.9ZM327.466 246.61L329.837 238.971H331.396L327.978 248.807C327.9 249.017 327.795 249.243 327.663 249.485C327.537 249.731 327.374 249.965 327.175 250.186C326.975 250.406 326.734 250.585 326.45 250.721C326.172 250.863 325.839 250.934 325.45 250.934C325.335 250.934 325.188 250.918 325.009 250.886C324.831 250.855 324.705 250.829 324.631 250.808L324.623 249.626C324.665 249.632 324.731 249.637 324.82 249.642C324.915 249.653 324.98 249.658 325.017 249.658C325.348 249.658 325.629 249.613 325.86 249.524C326.091 249.44 326.285 249.296 326.443 249.091C326.605 248.891 326.744 248.616 326.86 248.264L327.466 246.61ZM325.726 238.971L327.939 245.586L328.317 247.122L327.269 247.658L324.135 238.971H325.726Z" fill="black"/>
<path d="M408.74 247.492H406.346L406.362 246.256H408.74C409.56 246.256 410.242 246.085 410.788 245.744C411.334 245.397 411.744 244.914 412.017 244.295C412.295 243.67 412.434 242.94 412.434 242.105V241.404C412.434 240.748 412.355 240.165 412.198 239.656C412.04 239.142 411.809 238.708 411.505 238.357C411.2 238 410.827 237.729 410.386 237.546C409.951 237.362 409.449 237.27 408.882 237.27H406.299V236.026H408.882C409.633 236.026 410.318 236.152 410.938 236.404C411.557 236.65 412.09 237.01 412.536 237.483C412.988 237.95 413.334 238.517 413.576 239.184C413.818 239.845 413.938 240.591 413.938 241.42V242.105C413.938 242.935 413.818 243.683 413.576 244.35C413.334 245.011 412.985 245.576 412.529 246.043C412.077 246.51 411.531 246.87 410.89 247.122C410.255 247.369 409.539 247.492 408.74 247.492ZM407.158 236.026V247.492H405.638V236.026H407.158ZM419.538 247.65C418.944 247.65 418.406 247.55 417.923 247.35C417.445 247.146 417.033 246.86 416.687 246.492C416.346 246.124 416.083 245.689 415.899 245.185C415.715 244.681 415.624 244.129 415.624 243.531V243.2C415.624 242.507 415.726 241.89 415.931 241.349C416.136 240.803 416.414 240.341 416.766 239.963C417.117 239.585 417.516 239.299 417.963 239.105C418.409 238.911 418.871 238.813 419.349 238.813C419.958 238.813 420.483 238.918 420.924 239.128C421.37 239.339 421.735 239.633 422.018 240.011C422.302 240.383 422.512 240.824 422.648 241.334C422.785 241.838 422.853 242.389 422.853 242.987V243.641H416.49V242.452H421.396V242.342C421.375 241.964 421.297 241.596 421.16 241.239C421.029 240.882 420.819 240.588 420.53 240.357C420.241 240.126 419.847 240.011 419.349 240.011C419.018 240.011 418.713 240.081 418.435 240.223C418.157 240.36 417.918 240.564 417.718 240.837C417.519 241.11 417.364 241.444 417.254 241.838C417.144 242.231 417.088 242.686 417.088 243.2V243.531C417.088 243.935 417.144 244.316 417.254 244.673C417.369 245.025 417.535 245.334 417.75 245.602C417.97 245.87 418.236 246.08 418.545 246.232C418.86 246.384 419.217 246.461 419.616 246.461C420.131 246.461 420.567 246.356 420.924 246.145C421.281 245.935 421.593 245.655 421.861 245.303L422.743 246.004C422.559 246.282 422.326 246.547 422.042 246.799C421.759 247.051 421.409 247.256 420.995 247.413C420.585 247.571 420.099 247.65 419.538 247.65ZM427.964 246.453C428.311 246.453 428.631 246.382 428.925 246.24C429.219 246.098 429.461 245.904 429.65 245.657C429.839 245.405 429.946 245.119 429.973 244.799H431.359C431.332 245.303 431.162 245.773 430.847 246.208C430.537 246.639 430.13 246.988 429.626 247.256C429.122 247.518 428.568 247.65 427.964 247.65C427.324 247.65 426.765 247.537 426.287 247.311C425.814 247.085 425.421 246.776 425.106 246.382C424.796 245.988 424.562 245.536 424.405 245.027C424.252 244.513 424.176 243.969 424.176 243.397V243.066C424.176 242.494 424.252 241.953 424.405 241.444C424.562 240.929 424.796 240.475 425.106 240.081C425.421 239.688 425.814 239.378 426.287 239.152C426.765 238.926 427.324 238.813 427.964 238.813C428.631 238.813 429.214 238.95 429.713 239.223C430.212 239.491 430.603 239.858 430.886 240.326C431.175 240.788 431.332 241.313 431.359 241.901H429.973C429.946 241.549 429.847 241.231 429.673 240.948C429.505 240.664 429.274 240.438 428.98 240.27C428.692 240.097 428.353 240.011 427.964 240.011C427.518 240.011 427.143 240.1 426.838 240.278C426.539 240.452 426.3 240.688 426.122 240.987C425.948 241.281 425.822 241.609 425.744 241.972C425.67 242.329 425.633 242.693 425.633 243.066V243.397C425.633 243.77 425.67 244.137 425.744 244.5C425.817 244.862 425.94 245.19 426.114 245.484C426.292 245.778 426.531 246.014 426.83 246.193C427.135 246.366 427.513 246.453 427.964 246.453ZM434.58 235.396V247.492H433.115V235.396H434.58ZM438.502 238.971V247.492H437.037V238.971H438.502ZM436.927 236.711C436.927 236.474 436.997 236.275 437.139 236.112C437.286 235.949 437.502 235.868 437.785 235.868C438.063 235.868 438.276 235.949 438.423 236.112C438.575 236.275 438.651 236.474 438.651 236.711C438.651 236.937 438.575 237.131 438.423 237.294C438.276 237.451 438.063 237.53 437.785 237.53C437.502 237.53 437.286 237.451 437.139 237.294C436.997 237.131 436.927 236.937 436.927 236.711ZM442.298 240.79V247.492H440.841V238.971H442.219L442.298 240.79ZM441.951 242.909L441.345 242.885C441.35 242.302 441.437 241.764 441.605 241.271C441.773 240.772 442.009 240.339 442.313 239.971C442.618 239.604 442.98 239.32 443.4 239.121C443.825 238.916 444.295 238.813 444.81 238.813C445.23 238.813 445.608 238.871 445.944 238.987C446.28 239.097 446.566 239.276 446.802 239.522C447.044 239.769 447.228 240.089 447.354 240.483C447.48 240.872 447.543 241.347 447.543 241.909V247.492H446.078V241.893C446.078 241.446 446.012 241.089 445.881 240.822C445.75 240.549 445.558 240.352 445.306 240.231C445.054 240.105 444.744 240.042 444.377 240.042C444.014 240.042 443.684 240.118 443.384 240.27C443.09 240.423 442.836 240.633 442.621 240.9C442.411 241.168 442.245 241.475 442.124 241.822C442.009 242.163 441.951 242.525 441.951 242.909ZM453.292 247.65C452.698 247.65 452.16 247.55 451.677 247.35C451.199 247.146 450.787 246.86 450.441 246.492C450.1 246.124 449.837 245.689 449.653 245.185C449.47 244.681 449.378 244.129 449.378 243.531V243.2C449.378 242.507 449.48 241.89 449.685 241.349C449.89 240.803 450.168 240.341 450.52 239.963C450.871 239.585 451.27 239.299 451.717 239.105C452.163 238.911 452.625 238.813 453.103 238.813C453.712 238.813 454.237 238.918 454.678 239.128C455.124 239.339 455.489 239.633 455.772 240.011C456.056 240.383 456.266 240.824 456.403 241.334C456.539 241.838 456.607 242.389 456.607 242.987V243.641H450.244V242.452H455.15V242.342C455.129 241.964 455.051 241.596 454.914 241.239C454.783 240.882 454.573 240.588 454.284 240.357C453.995 240.126 453.601 240.011 453.103 240.011C452.772 240.011 452.467 240.081 452.189 240.223C451.911 240.36 451.672 240.564 451.473 240.837C451.273 241.11 451.118 241.444 451.008 241.838C450.898 242.231 450.842 242.686 450.842 243.2V243.531C450.842 243.935 450.898 244.316 451.008 244.673C451.123 245.025 451.289 245.334 451.504 245.602C451.725 245.87 451.99 246.08 452.299 246.232C452.614 246.384 452.971 246.461 453.37 246.461C453.885 246.461 454.321 246.356 454.678 246.145C455.035 245.935 455.347 245.655 455.615 245.303L456.497 246.004C456.313 246.282 456.08 246.547 455.796 246.799C455.513 247.051 455.163 247.256 454.749 247.413C454.339 247.571 453.854 247.65 453.292 247.65Z" fill="black"/>
<path d="M418.847 59.4713C424.364 52.784 424.393 43.0582 417.434 37.3178C406.991 28.7027 386.873 31.0114 384.688 31.292C384.828 33.4906 386.386 53.6807 396.829 62.2958C403.788 68.0362 413.331 66.1585 418.847 59.4713ZM418.847 59.4713L388.564 34.4892M391.432 43.1703C393.189 42.3911 397.886 42.5511 400.5 44.3359C398.251 42.109 397.201 37.5281 397.632 35.6548M394.809 50.7855C397.526 49.0933 404.149 48.0021 407.353 49.9893C404.793 47.222 404.605 40.5117 405.75 37.5228M399.981 58.0239C403.409 55.8697 411.742 54.4406 415.752 56.9181C412.558 53.4525 412.376 44.9995 413.84 41.2245M444.123 108.001C448.091 104.817 453.798 104.878 457.111 109.007C462.082 115.205 460.566 126.991 460.384 128.271C459.095 128.172 447.26 127.095 442.288 120.898C438.976 116.769 440.154 111.184 444.123 108.001ZM444.123 108.001L457.104 124.182M450.209 122.957C451.136 121.513 451.77 117.968 450.728 116.235C452.193 117.629 455.791 117.779 457.402 117.187M445.346 118.77C446.515 116.964 447.335 112.548 446.048 110.399C447.866 112.122 452.355 112.28 454.371 111.53M440.445 33.7128C436.549 30.441 435.497 24.8312 438.901 20.7775C444.011 14.6936 455.867 13.8838 457.158 13.813C457.311 15.0968 458.562 26.9146 453.452 32.9985C450.048 37.0522 444.341 36.9847 440.445 33.7128ZM440.445 33.7128L453.787 17.8265M453.929 24.8269C452.332 24.1987 448.732 24.2677 447.235 25.6278C448.316 23.9188 447.762 20.361 446.868 18.8959M450.77 30.4145C448.772 29.6194 444.28 29.6761 442.424 31.3571C443.759 29.2383 443.038 24.8044 441.91 22.973M421.311 22.7904C425.206 19.5185 426.259 13.9088 422.854 9.85508C417.745 3.77119 405.888 2.96137 404.598 2.89062C404.444 4.17439 403.193 15.9922 408.303 22.076C411.708 26.1298 417.415 26.0623 421.311 22.7904ZM421.311 22.7904L407.969 6.90409M407.826 13.9044C409.424 13.2763 413.024 13.3453 414.52 14.7054C413.439 12.9964 413.993 9.43861 414.888 7.97347M410.985 19.4921C412.984 18.697 417.476 18.7537 419.332 20.4346C417.997 18.3159 418.717 13.882 419.845 12.0506M446.095 83.2763C441.621 73.2255 444.889 61.3232 455.347 56.6677C471.043 49.6807 494.859 59.3373 497.435 60.4225C496.517 63.0633 487.754 87.2219 472.059 94.2088C461.6 98.8643 450.569 93.327 446.095 83.2763ZM446.095 83.2763L491.61 63.0156M485.154 72.6557C483.27 71.106 477.473 69.7063 473.67 71.0009C477.177 69.0419 480.017 63.7971 480.126 61.3601M478.439 80.8202C475.691 77.8283 467.963 74.2442 463.371 75.5859C467.441 73.0716 469.95 64.9303 469.565 60.8868M469.655 87.9146C466.195 84.1162 456.491 79.5382 450.746 81.2057C455.829 78.053 458.922 67.7786 458.415 62.6657M415.66 102.188L370.145 81.9276M376.602 91.5677C378.486 90.018 384.284 88.6183 388.086 89.9129C384.579 87.9539 381.739 82.7092 381.63 80.2722M383.317 99.7314C386.064 96.7396 393.792 93.1554 398.385 94.4971C394.314 91.9828 391.805 83.8415 392.19 79.7981M392.101 106.827C395.561 103.028 405.265 98.4504 411.009 100.118C405.926 96.9652 402.833 86.6908 403.34 81.5779M415.407 102.259C419.881 92.2084 416.613 80.3061 406.154 75.6506C390.459 68.6636 366.643 78.3202 364.066 79.4054C364.984 82.0462 373.747 106.205 389.443 113.192C399.902 117.847 410.933 112.31 415.407 102.259ZM429.649 41.9563C429.649 36.9093 427.548 28.4432 421.41 22.8226C427.997 28.0744 431.807 36.5978 432.171 45.0271C432.971 42.4741 434.161 38.6781 440.347 33.7457C435.475 40.1179 432.293 47.9304 432.293 52.6618L432.922 94.8293C434.06 92.2028 438.246 86.3921 446.377 83.23C438.221 88.1666 433.1 98.6309 433.043 102.951L433.1 106.773C434.166 104.206 438.713 100.988 444.566 108.623C437.004 100.44 433.228 110.619 433.228 115.324L433.773 151.841H428.004L428.468 120.858C428.468 115.977 423 106.755 415.379 102.142C422.997 105.105 427.152 110.393 428.582 113.208L429.088 79.4402C429.088 74.5484 424.716 64.2859 418.545 59.4076C424.774 62.5715 428.338 68.1897 429.217 70.8085L429.649 41.9563Z" stroke="#717070" stroke-width="1.2" stroke-linecap="round" stroke-linejoin="round"/>
<path fill-rule="evenodd" clip-rule="evenodd" d="M397.07 154.524C396.708 153.167 397.802 151.852 399.294 151.852H462.206C463.698 151.852 464.792 153.167 464.43 154.524L462.995 159.901C462.74 160.858 461.823 161.529 460.771 161.529H400.728C399.677 161.529 398.76 160.858 398.504 159.901L397.07 154.524ZM401.625 161.529H459.394L451.51 208.078C451.295 209.146 450.355 209.915 449.262 209.915H411.757C410.664 209.915 409.724 209.146 409.509 208.078L401.625 161.529Z" stroke="black" stroke-width="1.2" stroke-linecap="round" stroke-linejoin="round"/>
<path d="M313.846 95.0129C308.33 88.3257 308.3 78.5998 315.259 72.8594C325.702 64.2444 345.82 66.5531 348.005 66.8336C347.865 69.0322 346.308 89.2224 335.864 97.8374C328.906 103.578 319.363 101.7 313.846 95.0129ZM313.846 95.0129L344.129 70.0309M341.261 78.7119C339.504 77.9327 334.807 78.0928 332.193 79.8776C334.442 77.6507 335.492 73.0698 335.061 71.1964M337.884 86.3271C335.168 84.635 328.544 83.5438 325.34 85.531C327.9 82.7636 328.088 76.0533 326.943 73.0645M332.712 93.5655C329.284 91.4113 320.951 89.9823 316.941 92.4598C320.136 88.9941 320.317 80.5412 318.854 76.7662M290.021 79.5385C295.537 72.8513 295.566 63.1254 288.608 57.385C278.165 48.77 258.046 51.0787 255.861 51.3592C256.001 53.5578 257.559 73.748 268.002 82.363C274.961 88.1034 284.504 86.2258 290.021 79.5385ZM290.021 79.5385L259.738 54.5565M262.513 63.2375C264.271 62.4583 268.968 62.6184 271.582 64.4032C269.332 62.1763 268.282 57.5954 268.713 55.722M265.89 70.8527C268.607 69.1606 275.231 68.0694 278.434 70.0566C275.874 67.2892 275.686 60.5789 276.831 57.5901M271.063 78.0911C274.491 75.937 282.824 74.5079 286.834 76.9854C283.64 73.5197 283.458 65.0668 284.922 61.2918M289.238 108.009C285.269 104.826 279.562 104.887 276.25 109.016C271.278 115.213 272.795 127 272.977 128.28C274.266 128.18 286.101 127.104 291.072 120.906C294.385 116.777 293.206 111.193 289.238 108.009ZM289.238 108.009L276.256 124.192M283.151 122.966C282.224 121.521 281.59 117.977 282.632 116.244C281.167 117.637 277.569 117.787 275.958 117.195M288.015 118.779C286.845 116.973 286.026 112.556 287.313 110.408C285.495 112.13 281.005 112.288 278.989 111.538M311.383 59.2787C307.487 56.0068 306.435 50.3971 309.839 46.3434C314.949 40.2595 326.805 39.4497 328.096 39.3789C328.249 40.6627 329.5 52.4804 324.39 58.5643C320.986 62.618 315.279 62.5506 311.383 59.2787ZM311.383 59.2787L324.725 43.3924M324.867 50.3935C323.27 49.7654 319.67 49.8344 318.173 51.1944C319.254 49.4855 318.7 45.9277 317.805 44.4625M321.708 55.9803C319.71 55.1853 315.218 55.2419 313.362 56.9229C314.697 54.8042 313.976 50.3703 312.848 48.5389M303.176 79.8965C303.176 71.6709 305.933 65.2571 311.283 59.3203C303.734 65.821 300.516 72.3261 300.516 82.3662L300.393 90.8866C299.52 88.2723 295.955 82.6434 289.718 79.4754C295.907 84.3679 300.268 94.4795 300.268 99.5509L300.165 106.718C299.058 104.161 294.605 101.053 288.795 108.632C296.103 100.725 300.048 110.117 300.048 114.858L299.514 151.85H304.137L303.61 114.96C303.61 109.923 307.987 99.8203 314.149 94.9492C307.943 98.1015 304.382 103.69 303.487 106.321L303.176 79.8965Z" stroke="#717070" stroke-width="1.2" stroke-linecap="round" stroke-linejoin="round"/>
<path fill-rule="evenodd" clip-rule="evenodd" d="M268.247 154.524C267.885 153.167 268.98 151.852 270.471 151.852H333.384C334.875 151.852 335.97 153.167 335.608 154.524L334.173 159.901C333.917 160.858 333.001 161.529 331.949 161.529H271.906C270.854 161.529 269.937 160.858 269.682 159.901L268.247 154.524ZM272.885 161.529H330.654L322.769 208.078C322.555 209.146 321.614 209.915 320.522 209.915H283.017C281.924 209.915 280.983 209.146 280.769 208.078L272.885 161.529Z" stroke="black" stroke-width="1.2" stroke-linecap="round" stroke-linejoin="round"/>
<path d="M178.788 107.05C173.271 100.363 173.242 90.6373 180.2 84.897C190.644 76.2819 210.762 78.5906 212.947 78.8711C212.807 81.0698 211.249 101.26 200.806 109.875C193.847 115.615 184.304 113.738 178.788 107.05ZM178.788 107.05L209.071 82.0684M206.203 90.7494C204.445 89.9703 199.748 90.1303 197.135 91.9151C199.384 89.6882 200.434 85.1073 200.003 83.234M202.826 98.3646C200.109 96.6725 193.485 95.5813 190.282 97.5685C192.842 94.8012 193.03 88.0908 191.885 85.102M197.654 105.603C194.226 103.449 185.892 102.02 181.883 104.497C185.077 101.032 185.258 92.5787 183.795 88.8037M157.762 116.95C161.658 113.678 162.711 108.069 159.306 104.015C154.196 97.9311 142.34 97.1213 141.049 97.0505C140.896 98.3343 139.645 110.152 144.755 116.236C148.159 120.29 153.867 120.222 157.762 116.95ZM157.762 116.95L144.42 101.064M144.278 108.065C145.875 107.437 149.475 107.506 150.972 108.866C149.891 107.157 150.445 103.599 151.34 102.134M147.437 113.652C149.436 112.857 153.927 112.914 155.784 114.595C154.449 112.476 155.169 108.042 156.297 106.21M179.091 106.987C173.079 111.739 168.622 120.293 168.622 126.628L169.078 151.853H165.602L165.736 133.572C165.816 128.421 162.313 121.932 157.861 116.992C163.788 122.096 165.329 125.139 166.173 126.807C167.718 118.118 170.73 111.233 179.091 106.987Z" stroke="#717070" stroke-width="1.2" stroke-linecap="round" stroke-linejoin="round"/>
<path fill-rule="evenodd" clip-rule="evenodd" d="M133.601 154.524C133.239 153.167 134.333 151.852 135.825 151.852H198.737C200.229 151.852 201.323 153.167 200.961 154.524L199.526 159.901C199.271 160.858 198.354 161.529 197.303 161.529H137.259C136.208 161.529 135.291 160.858 135.036 159.901L133.601 154.524ZM138.238 161.529H196.007L188.123 208.078C187.909 209.146 186.968 209.915 185.875 209.915H148.37C147.278 209.915 146.337 209.146 146.122 208.078L138.238 161.529Z" stroke="black" stroke-width="1.2" stroke-linecap="round" stroke-linejoin="round"/>
<path d="M64.1497 125.099C65.0432 121.765 68.1901 119.507 71.6597 120.437C76.8669 121.832 80.7679 128.889 81.1819 129.663C80.4367 130.126 73.5297 134.287 68.3225 132.891C64.8529 131.962 63.2563 128.433 64.1497 125.099ZM64.1497 125.099L77.7472 128.742M73.2506 129.841C73.1992 129.014 72.4346 127.455 71.535 127.079C72.5023 127.202 73.944 126.235 74.4017 125.545M68.8328 129.138C68.7746 128.14 67.8672 126.258 66.7937 125.807C67.9491 125.953 69.6757 124.777 70.2254 123.941M42.0556 125.099C41.1622 121.765 38.0153 119.507 34.5457 120.437C29.3385 121.832 25.4374 128.889 25.0234 129.663C25.7687 130.126 32.6756 134.287 37.8828 132.891C41.3524 131.962 42.9491 128.433 42.0556 125.099ZM42.0556 125.099L28.4581 128.742M32.9547 129.841C33.0062 129.014 33.7708 127.455 34.6703 127.079C33.7031 127.202 32.2613 126.235 31.8036 125.545M37.3725 129.138C37.4307 128.14 38.3381 126.258 39.4117 125.807C38.2562 125.953 36.5297 124.777 35.9799 123.941M53.1031 129.547C51.9736 126.98 48.2361 123.217 41.7597 125.233C48.4026 123.862 52.0092 130.381 52.0092 133.834L51.8861 151.236H54.216L54.197 133.834C54.216 130.012 57.8036 123.862 64.4465 125.233C57.9701 123.217 54.2326 126.98 53.1031 129.547Z" stroke="#717070" stroke-width="1.2" stroke-linecap="round" stroke-linejoin="round"/>
<path fill-rule="evenodd" clip-rule="evenodd" d="M19.4213 154.524C19.0591 153.167 20.1534 151.852 21.6451 151.852H84.5575C86.0492 151.852 87.1435 153.167 86.7814 154.524L85.3467 159.901C85.0913 160.858 84.1745 161.529 83.1229 161.529H23.0797C22.0281 161.529 21.1113 160.858 20.856 159.901L19.4213 154.524ZM24.0587 161.529H81.8274L73.9433 208.078C73.7289 209.146 72.7882 209.915 71.6954 209.915H34.1907C33.098 209.915 32.1571 209.146 31.9428 208.078L24.0587 161.529Z" stroke="black" stroke-width="1.2" stroke-linecap="round" stroke-linejoin="round"/>
<path d="M54.3671 184.214C50.4962 172.843 49.5285 172.117 46.9882 172.117V175.867L40.577 179.133C39.9722 179.496 39.4883 180.101 39.4883 180.827V181.553C39.4883 183.609 41.1818 185.303 43.2383 185.303H45.0527V194.375M45.0527 189.778L54.3671 184.335M61.2622 188.327V199.214M61.2622 188.327L58.601 184.698M61.2622 188.327L64.0445 184.698M55.8187 193.77H66.7057M66.7057 189.294C66.7057 188.811 66.3428 188.327 65.738 188.327H56.6655C56.1816 188.327 55.6978 188.69 55.6978 189.294V198.367C55.6978 198.851 56.0607 199.335 56.6655 199.335H65.738C66.2219 199.335 66.7057 198.972 66.7057 198.367V189.294Z" stroke="#E0CB15" stroke-width="1.61289" stroke-linecap="round" stroke-linejoin="round"/>
<path d="M154.58 187.534L164.707 177.413C165.142 176.979 165.833 176.941 166.314 177.323L170.644 180.787C171.137 181.18 171.851 181.127 172.281 180.666L180.588 171.809M172.125 171.809H180.593V179.671M170.311 185.115H179.988C179.988 185.115 180.593 185.115 180.593 185.72V188.139C180.593 188.139 180.593 188.744 179.988 188.744H170.311C170.311 188.744 169.706 188.744 169.706 188.139V185.72C169.706 185.72 169.706 185.115 170.311 185.115ZM169.101 188.744H178.779C178.779 188.744 179.383 188.744 179.383 189.349V191.768C179.383 191.768 179.383 192.373 178.779 192.373H169.101C169.101 192.373 168.496 192.373 168.496 191.768V189.349C168.496 189.349 168.496 188.744 169.101 188.744ZM170.311 192.373H179.988C179.988 192.373 180.593 192.373 180.593 192.978V195.397C180.593 195.397 180.593 196.002 179.988 196.002H170.311C170.311 196.002 169.706 196.002 169.706 195.397V192.978C169.706 192.978 169.706 192.373 170.311 192.373ZM169.101 196.002H178.779C178.779 196.002 179.383 196.002 179.383 196.607V199.026C179.383 199.026 179.383 199.631 178.779 199.631H169.101C169.101 199.631 168.496 199.631 168.496 199.026V196.607C168.496 196.607 168.496 196.002 169.101 196.002ZM154.585 192.373H164.263C164.263 192.373 164.867 192.373 164.867 192.978V195.397C164.867 195.397 164.867 196.002 164.263 196.002H154.585C154.585 196.002 153.98 196.002 153.98 195.397V192.978C153.98 192.978 153.98 192.373 154.585 192.373ZM155.795 196.002H165.472C165.472 196.002 166.077 196.002 166.077 196.607V199.026C166.077 199.026 166.077 199.631 165.472 199.631H155.795C155.795 199.631 155.19 199.631 155.19 199.026V196.607C155.19 196.607 155.19 196.002 155.795 196.002Z" stroke="#DE8431" stroke-width="1.61289" stroke-linecap="round" stroke-linejoin="round"/>
<path d="M295.501 192.077H292.598C291.751 192.077 291.146 191.472 290.904 190.746L288.364 179.859C288.122 178.77 288.969 177.561 290.057 177.561H311.952C313.041 177.561 313.888 178.649 313.646 179.859L312.678 183.488M291.872 177.561L297.315 172.117M310.017 177.561L304.573 172.117M307.435 189.415C308.437 189.415 309.249 188.603 309.249 187.601C309.249 186.599 308.437 185.786 307.435 185.786C306.433 185.786 305.62 186.599 305.62 187.601C305.62 188.603 306.433 189.415 307.435 189.415ZM301.024 193.044C302.026 193.044 302.838 192.232 302.838 191.23C302.838 190.228 302.026 189.415 301.024 189.415C300.022 189.415 299.209 190.228 299.209 191.23C299.209 192.232 300.022 193.044 301.024 193.044ZM313.725 193.044C314.727 193.044 315.54 192.232 315.54 191.23C315.54 190.228 314.727 189.415 313.725 189.415C312.723 189.415 311.911 190.228 311.911 191.23C311.911 192.232 312.723 193.044 313.725 193.044ZM303.806 199.335C303.08 199.335 302.596 198.488 303.08 197.883L306.709 193.044C307.072 192.561 307.798 192.561 308.161 193.044L311.79 197.883C312.274 198.488 311.79 199.335 311.064 199.335H303.806Z" stroke="#E55753" stroke-width="1.61289" stroke-linecap="round" stroke-linejoin="round"/>
<path d="M418.693 199.631L422.184 172.861C422.263 172.259 422.777 171.808 423.384 171.809H437.358C437.533 171.807 437.701 171.882 437.817 172.013C437.933 172.144 437.986 172.319 437.963 172.492L434.419 199.631M437.958 172.492L442.802 199.632M419.482 193.581H435.208M441.723 193.584H437.963M422.927 189.952H432.604M424.663 175.957C424.706 175.656 424.964 175.433 425.268 175.436H434.328C434.504 175.436 434.67 175.513 434.785 175.645C434.9 175.778 434.952 175.953 434.927 176.127L433.289 187.014C433.246 187.312 432.991 187.533 432.69 187.533H423.624C423.449 187.533 423.283 187.457 423.168 187.325C423.052 187.192 423 187.015 423.025 186.841L424.663 175.957Z" stroke="#969696" stroke-width="1.61289" stroke-linecap="round" stroke-linejoin="round"/>
</g>
<defs>
<clipPath id="clip0_2215_11495">
<rect width="497" height="251" fill="white" transform="translate(0 0.0664062)"/>
</clipPath>
</defs>
</svg>
