<svg width="525" height="421" viewBox="0 0 525 421" fill="none" xmlns="http://www.w3.org/2000/svg">
<path d="M516.203 388.367H33.082V408.157H516.203V388.367Z" fill="#92E3A9"/>
<path opacity="0.5" d="M516.203 388.367H33.082V408.157H516.203V388.367Z" fill="white"/>
<path d="M153.393 176.115C151.029 176.883 148.709 177.779 146.444 178.799C147.682 177.884 148.921 176.956 150.16 176.004C155.685 171.582 160.938 166.832 165.892 161.78C160.082 167.426 153.872 172.647 147.311 177.402C148.207 175.829 149.001 174.202 149.689 172.528C150.866 169.449 151.151 166.344 148.203 164.699C144.585 162.671 140.188 165.701 141.352 170.883C142.051 173.776 143.417 176.465 145.341 178.737C141.065 181.692 136.6 184.365 131.975 186.74L131.529 186.962C132.512 185.272 133.377 183.515 134.118 181.706C135.295 178.638 135.58 175.522 132.631 173.889C129.014 171.848 124.616 174.891 125.781 180.073C126.473 182.93 127.817 185.588 129.708 187.841C124.146 190.574 118.385 192.899 112.675 195.422L111.845 195.793C112.963 194.596 113.998 193.323 114.942 191.984C116.812 189.275 117.803 186.332 115.326 184.031C112.278 181.211 107.298 183.153 107.212 188.496C107.213 191.447 107.904 194.356 109.231 196.993C103.887 199.47 98.8072 202.478 94.0684 205.973L93.9197 206.096C94.5599 205.082 95.143 204.033 95.6664 202.955C97.0662 199.974 97.5865 196.907 94.7745 195.039C94.2012 194.642 93.5452 194.381 92.856 194.276C92.1667 194.17 91.4624 194.222 90.7964 194.428C90.1303 194.634 89.52 194.989 89.0117 195.466C88.5033 195.942 88.1102 196.528 87.8621 197.179C87.4878 196.596 86.9778 196.112 86.3756 195.769C83.5388 194.136 80.7516 195.905 78.3731 198.403C77.7537 199.059 77.1344 199.751 76.6017 200.456C78.4432 195.341 80.7616 190.409 83.5264 185.726C86.15 186.882 88.9833 187.488 91.851 187.507C97.4997 187.507 99.8906 182.807 97.1157 179.888C94.8612 177.525 91.6899 178.428 88.6921 180.16C87.7009 180.734 86.7415 181.362 85.8181 182.04C88.6934 177.721 91.9566 173.672 95.5673 169.943C97.8917 171.86 100.599 173.26 103.508 174.05C108.996 175.398 112.452 171.428 110.457 167.927C108.847 165.083 105.502 165.194 102.219 166.146C100.656 166.623 99.1218 167.188 97.6236 167.841C99.1225 166.394 100.671 164.996 102.232 163.611C104.301 161.854 106.431 160.16 108.587 158.503C110.918 160.358 113.616 161.703 116.502 162.448C121.99 163.796 125.434 159.826 123.452 156.326C121.842 153.481 118.497 153.592 115.214 154.545C114.434 154.767 113.666 155.039 112.898 155.324C115.759 153.283 118.67 151.292 121.569 149.313L124.27 147.47C126.69 149.498 129.535 150.96 132.594 151.749C138.082 153.098 141.526 149.127 139.544 145.627C137.933 142.782 134.589 142.894 131.306 143.846C130.006 144.235 128.728 144.693 127.478 145.219C128.035 144.823 128.593 144.427 129.138 143.982C130.166 143.252 131.17 142.498 132.173 141.731C133.412 140.803 134.576 139.764 135.79 138.787C136.471 138.243 137.14 137.662 137.797 137.068C140.229 139.116 143.091 140.591 146.171 141.385C151.659 142.733 155.103 138.763 153.121 135.262C151.51 132.418 148.165 132.529 144.883 133.481C143.042 134.049 141.238 134.73 139.482 135.522C141.724 133.444 143.892 131.28 145.936 129.029L146.344 128.559C147.224 127.582 148.104 126.58 148.946 125.566C149.788 124.551 150.866 123.178 151.783 121.954C155.559 117.028 158.658 111.621 160.999 105.875C158.542 111.549 155.343 116.872 151.485 121.707C147.667 126.561 143.408 131.053 138.763 135.126L138.255 135.559C139.325 133.733 140.268 131.836 141.08 129.882C142.318 126.815 142.541 123.698 139.593 122.065C135.976 120.024 131.578 123.067 132.743 128.249C133.486 131.32 134.98 134.158 137.091 136.512L136.001 137.452L134.762 138.515C134.031 139.097 133.3 139.653 132.557 140.21L131.318 141.113C130.265 141.892 129.188 142.646 128.11 143.388L126.574 144.44L124.815 145.677C125.835 143.92 126.737 142.098 127.515 140.222C128.692 137.142 128.977 134.038 126.029 132.393C122.411 130.364 118.014 133.407 119.178 138.577C119.9 141.553 121.323 144.313 123.328 146.629L122.027 147.47L117.196 150.624L116.255 151.242L113.567 153.036L112.402 153.815C111.163 154.668 109.925 155.534 108.686 156.425C109.728 154.642 110.647 152.791 111.436 150.884C112.613 147.816 112.898 144.699 109.949 143.067C106.332 141.026 101.935 144.069 103.099 149.251C103.834 152.265 105.288 155.057 107.336 157.389C105.23 158.936 103.161 160.519 101.142 162.176C99.6676 163.413 98.2058 164.65 96.7936 165.986C97.4149 164.841 97.9651 163.66 98.4412 162.448C99.68 159.368 99.903 156.264 96.9547 154.631C93.3375 152.591 88.9398 155.633 90.1043 160.816C90.8018 163.67 92.1451 166.327 94.0312 168.583C90.0193 172.567 86.4018 176.929 83.2291 181.607C83.5913 180.257 83.8685 178.885 84.0591 177.501C84.4555 174.235 83.9848 171.168 80.7268 170.277C76.7132 169.177 73.1827 173.184 75.5735 177.958C76.9522 180.584 78.9192 182.857 81.3214 184.6C78.2136 189.696 75.6082 195.081 73.5419 200.679C73.4994 199.51 73.3836 198.345 73.1951 197.191C72.65 193.938 71.3245 191.131 67.9427 191.192C63.7928 191.279 61.5506 196.14 65.1926 200.023C67.148 202.05 69.5303 203.618 72.1669 204.612C70.7613 208.94 69.6114 213.347 68.7231 217.809C68.5868 218.514 68.4754 219.219 68.3391 219.924C68.1904 220.06 68.0418 220.196 67.9055 220.345C67.7569 219.739 67.5834 219.108 67.3852 218.527C66.3447 215.41 64.598 212.825 61.2781 213.418C57.1778 214.123 55.7036 219.256 59.9155 222.559C62.0626 224.187 64.5334 225.338 67.1623 225.935L67.3109 226.294C66.865 229.646 66.5181 233.022 66.3075 236.411C66.1465 238.885 66.0598 241.47 66.0102 244.006C62.4673 244.006 59.965 247.889 62.4054 252.094C63.4375 253.836 64.7567 255.392 66.3075 256.696C66.6048 261.457 67.0755 266.219 67.7073 270.944C67.2057 270.482 66.5927 270.159 65.9282 270.005C65.2637 269.851 64.5706 269.872 63.9167 270.066C61.6869 270.672 60.6835 272.465 60.3119 274.667C59.5302 275.494 59.0881 276.585 59.0731 277.722C57.4131 275.248 55.8523 272.774 54.3286 270.152C56.6502 268.376 58.5743 266.135 59.9774 263.572C62.6531 258.625 59.6429 254.284 55.7532 255.335C52.5943 256.188 51.8882 259.417 52.0369 262.867C52.0846 264.176 52.2087 265.481 52.4085 266.776C51.8511 265.823 51.306 264.859 50.7733 263.906C49.4107 261.433 48.2958 258.959 46.9579 256.485C46.6358 255.879 46.3509 255.248 46.0784 254.63C48.6922 253.323 51.001 251.482 52.8545 249.225C56.4097 244.847 54.2667 240.035 50.253 240.344C46.9951 240.604 45.6944 243.634 45.1493 247.048C44.9211 248.535 44.7887 250.034 44.7529 251.538L43.5885 248.854C41.1121 242.764 39.0713 236.506 37.4813 230.128C40.433 229.078 43.1151 227.389 45.3351 225.181C49.3116 221.161 47.664 216.177 43.638 216.078C40.3677 216.003 38.7696 218.885 37.8777 222.262C37.4397 224.055 37.1088 225.872 36.8867 227.704C36.032 223.993 35.2887 220.345 34.6693 216.634C34.2481 214.334 33.9756 211.996 33.6783 209.671C36.8571 209.042 39.8517 207.702 42.4364 205.75C46.896 202.287 45.905 197.092 41.9285 196.511C38.6953 196.004 36.7381 198.663 35.425 201.866C34.6513 203.886 34.0018 205.952 33.4801 208.051C33.2323 205.354 32.9474 202.646 32.8235 199.937C32.4705 194.343 32.4953 188.731 32.8979 183.141C32.326 188.728 32.1315 194.348 32.3156 199.962C32.3156 202.547 32.5386 205.119 32.6997 207.704C31.9891 205.948 31.1614 204.242 30.2221 202.596C28.525 199.764 26.2828 197.649 23.1487 198.886C19.3086 200.469 18.9741 205.787 23.7929 208.112C26.6315 209.41 29.7433 210 32.8607 209.832C33.0837 212.132 33.2695 214.445 33.6287 216.733C34.1119 220.382 34.7312 224.006 35.4497 227.605C34.6659 226.223 33.7884 224.897 32.8235 223.635C30.7796 221.05 28.2649 219.219 25.3909 220.889C21.7861 222.954 22.1453 228.31 27.2243 229.955C30.105 230.85 33.1567 231.054 36.1311 230.549C37.5403 236.999 39.3989 243.343 41.6931 249.534L42.4364 251.389C41.7807 250.523 41.0733 249.697 40.3181 248.916C38.0264 246.541 35.363 244.97 32.5882 246.937C29.2063 249.349 30.1106 254.605 35.3259 255.768C38.2174 256.355 41.2056 256.271 44.0592 255.521C44.3069 256.151 44.5795 256.757 44.8892 257.401C46.1279 259.948 47.2304 262.558 48.5312 265.057L49.6584 267.196C49.0176 266.634 48.3477 266.106 47.6516 265.613C44.9511 263.721 42.0276 262.682 39.6863 265.118C36.8248 268.124 38.6829 273.121 44.0344 273.282C46.7723 273.354 49.4935 272.835 52.0121 271.76C53.5358 274.531 55.1214 277.264 56.8309 279.948C57.4627 280.975 58.0697 281.989 58.7882 283.003C57.816 282.092 56.7856 281.245 55.7036 280.468C53.0155 278.575 50.0796 277.536 47.7507 279.973C44.8768 282.978 46.7473 287.975 52.0988 288.136C55.1573 288.171 58.1804 287.48 60.9189 286.12C61.7943 287.357 62.7109 288.594 63.6689 289.831C61.6745 292.143 62.3187 296.015 66.3694 297.783C68.3379 298.599 70.4342 299.063 72.5633 299.156L73.3313 299.738L73.4676 299.837C76.0248 309.39 79.0595 318.81 82.5602 328.061C84.055 332.011 85.6323 335.924 87.2923 339.799H72.427V398.339H117.84V339.787H93.5728C91.5041 335.272 89.5221 330.708 87.6639 326.095C84.6289 318.513 81.8789 310.832 79.4756 303.028C79.8818 303.15 80.2957 303.245 80.7144 303.312C81.2649 303.421 81.8287 303.446 82.3867 303.386L81.7426 299.317H81.6559H81.309C81.086 299.317 80.7887 299.206 80.5286 299.169C79.9594 299.008 79.4043 298.801 78.8686 298.55L78.2245 298.253C80.6118 297.422 82.828 296.165 84.7652 294.543C89.0761 290.832 87.8497 285.761 83.8485 285.328C80.5905 284.97 78.7572 287.716 77.6546 290.968C77.3202 291.896 77.0476 292.861 76.7999 293.801C76.5769 292.935 76.3292 292.069 76.1186 291.203C75.462 288.643 74.8798 286.058 74.2852 283.473C76.8736 282.65 79.2763 281.331 81.3586 279.589C85.6695 275.879 84.4431 270.82 80.4419 270.387C77.1839 270.029 75.3505 272.774 74.248 276.027C73.9104 276.973 73.621 277.935 73.3809 278.909C73.0093 277.017 72.6376 275.137 72.3155 273.244C72.0678 271.834 71.8572 270.437 71.6466 269.027C71.5599 267.023 71.5351 265.019 71.5599 263.003C71.5599 261.903 71.5599 260.802 71.659 259.689C74.0856 260.465 76.634 260.792 79.1783 260.653C84.8147 260.282 86.9083 255.459 83.96 252.725C81.5568 250.487 78.4475 251.6 75.5611 253.504C74.2647 254.38 73.0236 255.334 71.8448 256.362C72.1876 251.654 72.9 246.981 73.9755 242.385C74.6176 239.679 75.4116 237.012 76.3539 234.395C78.9431 235.291 81.6825 235.673 84.4183 235.521C90.0547 235.162 92.1483 230.338 89.2 227.593C86.7968 225.366 83.6875 226.467 80.8011 228.384C79.7761 229.074 78.7879 229.818 77.8405 230.611C78.9242 228.049 80.1911 225.569 81.6311 223.189C84.5134 218.406 88.1148 214.092 92.3093 210.401C94.4642 212.394 97.0128 213.914 99.7915 214.866C105.155 216.622 108.896 212.911 107.224 209.275C105.837 206.319 102.529 206.183 99.1473 206.888C97.8605 207.165 96.5908 207.516 95.3443 207.939L95.4186 207.865C100.041 204.263 105.022 201.147 110.284 198.564C112.134 200.996 114.493 202.997 117.196 204.427C122.213 207.012 126.499 203.944 125.384 200.085C124.48 196.944 121.247 196.288 117.778 196.375C116.425 196.453 115.078 196.602 113.74 196.82C119.315 194.186 125.025 191.699 130.513 188.793L130.624 188.731C133.089 190.85 136.01 192.373 139.16 193.184C144.647 194.544 148.104 190.562 146.121 187.061C144.499 184.217 141.166 184.34 137.871 185.28C136.942 185.552 136.013 185.886 135.121 186.233C138.789 184.099 142.345 181.779 145.775 179.282L146.072 179.591C146.065 179.546 146.065 179.5 146.072 179.455C148.555 181.596 151.496 183.14 154.669 183.969C160.157 185.317 163.601 181.347 161.619 177.847C160.021 175.039 156.725 175.163 153.393 176.115ZM66.7782 288.186C65.6633 286.862 64.598 285.502 63.5451 284.116C63.8052 283.894 64.0777 283.646 64.3503 283.374C65.894 283.856 67.492 284.143 69.1071 284.228C69.1071 284.314 69.1071 284.401 69.1071 284.487L69.8628 284.327C70.2468 286.281 70.668 288.223 71.1016 290.164C70.5952 289.51 69.9373 288.988 69.1842 288.643C68.4311 288.298 67.6055 288.141 66.7782 288.186ZM70.829 241.618C70.445 243.066 70.1105 244.537 69.8132 246.009C69.7573 245.915 69.6908 245.828 69.615 245.749C69.615 242.732 69.6646 239.722 69.7637 236.721C69.8504 234.618 69.999 232.528 70.1849 230.425C71.1987 231.467 72.3198 232.4 73.5295 233.208C72.4641 235.956 71.5624 238.764 70.829 241.618ZM75.908 227.766C75.908 227.222 76.0319 226.665 76.069 226.121C76.069 225.836 76.069 225.564 76.069 225.292C76.515 225.156 76.9609 224.995 77.4193 224.81C76.899 225.787 76.3911 226.764 75.908 227.766ZM82.362 217.302C82.1422 216.816 81.8273 216.378 81.4359 216.015C81.0445 215.652 80.5844 215.37 80.0826 215.187C77.0353 213.95 74.5453 216.177 72.5757 219.021L72.489 219.157H72.2908C72.083 219.11 71.8717 219.082 71.659 219.071C71.659 218.898 71.659 218.724 71.7457 218.551C72.5318 214.089 73.5866 209.678 74.9046 205.342C77.7484 205.7 80.6354 205.477 83.3902 204.686C85.075 204.254 86.5505 203.237 87.5524 201.817C88.103 204.307 89.1384 206.664 90.5998 208.756C87.5612 211.322 84.8002 214.199 82.362 217.339V217.302Z" fill="#92E3A9"/>
<path opacity="0.5" d="M153.393 176.115C151.029 176.883 148.709 177.779 146.444 178.799C147.682 177.884 148.921 176.956 150.16 176.004C155.685 171.582 160.938 166.832 165.892 161.78C160.082 167.426 153.872 172.647 147.311 177.402C148.207 175.829 149.001 174.202 149.689 172.528C150.866 169.449 151.151 166.344 148.203 164.699C144.585 162.671 140.188 165.701 141.352 170.883C142.051 173.776 143.417 176.465 145.341 178.737C141.065 181.692 136.6 184.365 131.975 186.74L131.529 186.962C132.512 185.272 133.377 183.515 134.118 181.706C135.295 178.638 135.58 175.522 132.631 173.889C129.014 171.848 124.616 174.891 125.781 180.073C126.473 182.93 127.817 185.588 129.708 187.841C124.146 190.574 118.385 192.899 112.675 195.422L111.845 195.793C112.963 194.596 113.998 193.323 114.942 191.984C116.812 189.275 117.803 186.332 115.326 184.031C112.278 181.211 107.298 183.153 107.212 188.496C107.213 191.447 107.904 194.356 109.231 196.993C103.887 199.47 98.8072 202.478 94.0684 205.973L93.9197 206.096C94.5599 205.082 95.143 204.033 95.6664 202.955C97.0662 199.974 97.5865 196.907 94.7745 195.039C94.2012 194.642 93.5452 194.381 92.856 194.276C92.1667 194.17 91.4624 194.222 90.7964 194.428C90.1303 194.634 89.52 194.989 89.0117 195.466C88.5033 195.942 88.1102 196.528 87.8621 197.179C87.4878 196.596 86.9778 196.112 86.3756 195.769C83.5388 194.136 80.7516 195.905 78.3731 198.403C77.7537 199.059 77.1344 199.751 76.6017 200.456C78.4432 195.341 80.7616 190.409 83.5264 185.726C86.15 186.882 88.9833 187.488 91.851 187.507C97.4997 187.507 99.8906 182.807 97.1157 179.888C94.8612 177.525 91.6899 178.428 88.6921 180.16C87.7009 180.734 86.7415 181.362 85.8181 182.04C88.6934 177.721 91.9566 173.672 95.5673 169.943C97.8917 171.86 100.599 173.26 103.508 174.05C108.996 175.398 112.452 171.428 110.457 167.927C108.847 165.083 105.502 165.194 102.219 166.146C100.656 166.623 99.1218 167.188 97.6236 167.841C99.1225 166.394 100.671 164.996 102.232 163.611C104.301 161.854 106.431 160.16 108.587 158.503C110.918 160.358 113.616 161.703 116.502 162.448C121.99 163.796 125.434 159.826 123.452 156.326C121.842 153.481 118.497 153.592 115.214 154.545C114.434 154.767 113.666 155.039 112.898 155.324C115.759 153.283 118.67 151.292 121.569 149.313L124.27 147.47C126.69 149.498 129.535 150.96 132.594 151.749C138.082 153.098 141.526 149.127 139.544 145.627C137.933 142.782 134.589 142.894 131.306 143.846C130.006 144.235 128.728 144.693 127.478 145.219C128.035 144.823 128.593 144.427 129.138 143.982C130.166 143.252 131.17 142.498 132.173 141.731C133.412 140.803 134.576 139.764 135.79 138.787C136.471 138.243 137.14 137.662 137.797 137.068C140.229 139.116 143.091 140.591 146.171 141.385C151.659 142.733 155.103 138.763 153.121 135.262C151.51 132.418 148.165 132.529 144.883 133.481C143.042 134.049 141.238 134.73 139.482 135.522C141.724 133.444 143.892 131.28 145.936 129.029L146.344 128.559C147.224 127.582 148.104 126.58 148.946 125.566C149.788 124.551 150.866 123.178 151.783 121.954C155.559 117.028 158.658 111.621 160.999 105.875C158.542 111.549 155.343 116.872 151.485 121.707C147.667 126.561 143.408 131.053 138.763 135.126L138.255 135.559C139.325 133.733 140.268 131.836 141.08 129.882C142.318 126.815 142.541 123.698 139.593 122.065C135.976 120.024 131.578 123.067 132.743 128.249C133.486 131.32 134.98 134.158 137.091 136.512L136.001 137.452L134.762 138.515C134.031 139.097 133.3 139.653 132.557 140.21L131.318 141.113C130.265 141.892 129.188 142.646 128.11 143.388L126.574 144.44L124.815 145.677C125.835 143.92 126.737 142.098 127.515 140.222C128.692 137.142 128.977 134.038 126.029 132.393C122.411 130.364 118.014 133.407 119.178 138.577C119.9 141.553 121.323 144.313 123.328 146.629L122.027 147.47L117.196 150.624L116.255 151.242L113.567 153.036L112.402 153.815C111.163 154.668 109.925 155.534 108.686 156.425C109.728 154.642 110.647 152.791 111.436 150.884C112.613 147.816 112.898 144.699 109.949 143.067C106.332 141.026 101.935 144.069 103.099 149.251C103.834 152.265 105.288 155.057 107.336 157.389C105.23 158.936 103.161 160.519 101.142 162.176C99.6676 163.413 98.2058 164.65 96.7936 165.986C97.4149 164.841 97.9651 163.66 98.4412 162.448C99.68 159.368 99.903 156.264 96.9547 154.631C93.3375 152.591 88.9398 155.633 90.1043 160.816C90.8018 163.67 92.1451 166.327 94.0312 168.583C90.0193 172.567 86.4018 176.929 83.2291 181.607C83.5913 180.257 83.8685 178.885 84.0591 177.501C84.4555 174.235 83.9848 171.168 80.7268 170.277C76.7132 169.177 73.1827 173.184 75.5735 177.958C76.9522 180.584 78.9192 182.857 81.3214 184.6C78.2136 189.696 75.6082 195.081 73.5419 200.679C73.4994 199.51 73.3836 198.345 73.1951 197.191C72.65 193.938 71.3245 191.131 67.9427 191.192C63.7928 191.279 61.5506 196.14 65.1926 200.023C67.148 202.05 69.5303 203.618 72.1669 204.612C70.7613 208.94 69.6114 213.347 68.7231 217.809C68.5868 218.514 68.4754 219.219 68.3391 219.924C68.1904 220.06 68.0418 220.196 67.9055 220.345C67.7569 219.739 67.5834 219.108 67.3852 218.527C66.3447 215.41 64.598 212.825 61.2781 213.418C57.1778 214.123 55.7036 219.256 59.9155 222.559C62.0626 224.187 64.5334 225.338 67.1623 225.935L67.3109 226.294C66.865 229.646 66.5181 233.022 66.3075 236.411C66.1465 238.885 66.0598 241.47 66.0102 244.006C62.4673 244.006 59.965 247.889 62.4054 252.094C63.4375 253.836 64.7567 255.392 66.3075 256.696C66.6048 261.457 67.0755 266.219 67.7073 270.944C67.2057 270.482 66.5927 270.159 65.9282 270.005C65.2637 269.851 64.5706 269.872 63.9167 270.066C61.6869 270.672 60.6835 272.465 60.3119 274.667C59.5302 275.494 59.0881 276.585 59.0731 277.722C57.4131 275.248 55.8523 272.774 54.3286 270.152C56.6502 268.376 58.5743 266.135 59.9774 263.572C62.6531 258.625 59.6429 254.284 55.7532 255.335C52.5943 256.188 51.8882 259.417 52.0369 262.867C52.0846 264.176 52.2087 265.481 52.4085 266.776C51.8511 265.823 51.306 264.859 50.7733 263.906C49.4107 261.433 48.2958 258.959 46.9579 256.485C46.6358 255.879 46.3509 255.248 46.0784 254.63C48.6922 253.323 51.001 251.482 52.8545 249.225C56.4097 244.847 54.2667 240.035 50.253 240.344C46.9951 240.604 45.6944 243.634 45.1493 247.048C44.9211 248.535 44.7887 250.034 44.7529 251.538L43.5885 248.854C41.1121 242.764 39.0713 236.506 37.4813 230.128C40.433 229.078 43.1151 227.389 45.3351 225.181C49.3116 221.161 47.664 216.177 43.638 216.078C40.3677 216.003 38.7696 218.885 37.8777 222.262C37.4397 224.055 37.1088 225.872 36.8867 227.704C36.032 223.993 35.2887 220.345 34.6693 216.634C34.2481 214.334 33.9756 211.996 33.6783 209.671C36.8571 209.042 39.8517 207.702 42.4364 205.75C46.896 202.287 45.905 197.092 41.9285 196.511C38.6953 196.004 36.7381 198.663 35.425 201.866C34.6513 203.886 34.0018 205.952 33.4801 208.051C33.2323 205.354 32.9474 202.646 32.8235 199.937C32.4705 194.343 32.4953 188.731 32.8979 183.141C32.326 188.728 32.1315 194.348 32.3156 199.962C32.3156 202.547 32.5386 205.119 32.6997 207.704C31.9891 205.948 31.1614 204.242 30.2221 202.596C28.525 199.764 26.2828 197.649 23.1487 198.886C19.3086 200.469 18.9741 205.787 23.7929 208.112C26.6315 209.41 29.7433 210 32.8607 209.832C33.0837 212.132 33.2695 214.445 33.6287 216.733C34.1119 220.382 34.7312 224.006 35.4497 227.605C34.6659 226.223 33.7884 224.897 32.8235 223.635C30.7796 221.05 28.2649 219.219 25.3909 220.889C21.7861 222.954 22.1453 228.31 27.2243 229.955C30.105 230.85 33.1567 231.054 36.1311 230.549C37.5403 236.999 39.3989 243.343 41.6931 249.534L42.4364 251.389C41.7807 250.523 41.0733 249.697 40.3181 248.916C38.0264 246.541 35.363 244.97 32.5882 246.937C29.2063 249.349 30.1106 254.605 35.3259 255.768C38.2174 256.355 41.2056 256.271 44.0592 255.521C44.3069 256.151 44.5795 256.757 44.8892 257.401C46.1279 259.948 47.2304 262.558 48.5312 265.057L49.6584 267.196C49.0176 266.634 48.3477 266.106 47.6516 265.613C44.9511 263.721 42.0276 262.682 39.6863 265.118C36.8248 268.124 38.6829 273.121 44.0344 273.282C46.7723 273.354 49.4935 272.835 52.0121 271.76C53.5358 274.531 55.1214 277.264 56.8309 279.948C57.4627 280.975 58.0697 281.989 58.7882 283.003C57.816 282.092 56.7856 281.245 55.7036 280.468C53.0155 278.575 50.0796 277.536 47.7507 279.973C44.8768 282.978 46.7473 287.975 52.0988 288.136C55.1573 288.171 58.1804 287.48 60.9189 286.12C61.7943 287.357 62.7109 288.594 63.6689 289.831C61.6745 292.143 62.3187 296.015 66.3694 297.783C68.3379 298.599 70.4342 299.063 72.5633 299.156L73.3313 299.738L73.4676 299.837C76.0248 309.39 79.0595 318.81 82.5602 328.061C84.055 332.011 85.6323 335.924 87.2923 339.799H72.427V398.339H117.84V339.787H93.5728C91.5041 335.272 89.5221 330.708 87.6639 326.095C84.6289 318.513 81.8789 310.832 79.4756 303.028C79.8818 303.15 80.2957 303.245 80.7144 303.312C81.2649 303.421 81.8287 303.446 82.3867 303.386L81.7426 299.317H81.6559H81.309C81.086 299.317 80.7887 299.206 80.5286 299.169C79.9594 299.008 79.4043 298.801 78.8686 298.55L78.2245 298.253C80.6118 297.422 82.828 296.165 84.7652 294.543C89.0761 290.832 87.8497 285.761 83.8485 285.328C80.5905 284.97 78.7572 287.716 77.6546 290.968C77.3202 291.896 77.0476 292.861 76.7999 293.801C76.5769 292.935 76.3292 292.069 76.1186 291.203C75.462 288.643 74.8798 286.058 74.2852 283.473C76.8736 282.65 79.2763 281.331 81.3586 279.589C85.6695 275.879 84.4431 270.82 80.4419 270.387C77.1839 270.029 75.3505 272.774 74.248 276.027C73.9104 276.973 73.621 277.935 73.3809 278.909C73.0093 277.017 72.6376 275.137 72.3155 273.244C72.0678 271.834 71.8572 270.437 71.6466 269.027C71.5599 267.023 71.5351 265.019 71.5599 263.003C71.5599 261.903 71.5599 260.802 71.659 259.689C74.0856 260.465 76.634 260.792 79.1783 260.653C84.8147 260.282 86.9083 255.459 83.96 252.725C81.5568 250.487 78.4475 251.6 75.5611 253.504C74.2647 254.38 73.0236 255.334 71.8448 256.362C72.1876 251.654 72.9 246.981 73.9755 242.385C74.6176 239.679 75.4116 237.012 76.3539 234.395C78.9431 235.291 81.6825 235.673 84.4183 235.521C90.0547 235.162 92.1483 230.338 89.2 227.593C86.7968 225.366 83.6875 226.467 80.8011 228.384C79.7761 229.074 78.7879 229.818 77.8405 230.611C78.9242 228.049 80.1911 225.569 81.6311 223.189C84.5134 218.406 88.1148 214.092 92.3093 210.401C94.4642 212.394 97.0128 213.914 99.7915 214.866C105.155 216.622 108.896 212.911 107.224 209.275C105.837 206.319 102.529 206.183 99.1473 206.888C97.8605 207.165 96.5908 207.516 95.3443 207.939L95.4186 207.865C100.041 204.263 105.022 201.147 110.284 198.564C112.134 200.996 114.493 202.997 117.196 204.427C122.213 207.012 126.499 203.944 125.384 200.085C124.48 196.944 121.247 196.288 117.778 196.375C116.425 196.453 115.078 196.602 113.74 196.82C119.315 194.186 125.025 191.699 130.513 188.793L130.624 188.731C133.089 190.85 136.01 192.373 139.16 193.184C144.647 194.544 148.104 190.562 146.121 187.061C144.499 184.217 141.166 184.34 137.871 185.28C136.942 185.552 136.013 185.886 135.121 186.233C138.789 184.099 142.345 181.779 145.775 179.282L146.072 179.591C146.065 179.546 146.065 179.5 146.072 179.455C148.555 181.596 151.496 183.14 154.669 183.969C160.157 185.317 163.601 181.347 161.619 177.847C160.021 175.039 156.725 175.163 153.393 176.115ZM66.7782 288.186C65.6633 286.862 64.598 285.502 63.5451 284.116C63.8052 283.894 64.0777 283.646 64.3503 283.374C65.894 283.856 67.492 284.143 69.1071 284.228C69.1071 284.314 69.1071 284.401 69.1071 284.487L69.8628 284.327C70.2468 286.281 70.668 288.223 71.1016 290.164C70.5952 289.51 69.9373 288.988 69.1842 288.643C68.4311 288.298 67.6055 288.141 66.7782 288.186ZM70.829 241.618C70.445 243.066 70.1105 244.537 69.8132 246.009C69.7573 245.915 69.6908 245.828 69.615 245.749C69.615 242.732 69.6646 239.722 69.7637 236.721C69.8504 234.618 69.999 232.528 70.1849 230.425C71.1987 231.467 72.3198 232.4 73.5295 233.208C72.4641 235.956 71.5624 238.764 70.829 241.618ZM75.908 227.766C75.908 227.222 76.0319 226.665 76.069 226.121C76.069 225.836 76.069 225.564 76.069 225.292C76.515 225.156 76.9609 224.995 77.4193 224.81C76.899 225.787 76.3911 226.764 75.908 227.766ZM82.362 217.302C82.1422 216.816 81.8273 216.378 81.4359 216.015C81.0445 215.652 80.5844 215.37 80.0826 215.187C77.0353 213.95 74.5453 216.177 72.5757 219.021L72.489 219.157H72.2908C72.083 219.11 71.8717 219.082 71.659 219.071C71.659 218.898 71.659 218.724 71.7457 218.551C72.5318 214.089 73.5866 209.678 74.9046 205.342C77.7484 205.7 80.6354 205.477 83.3902 204.686C85.075 204.254 86.5505 203.237 87.5524 201.817C88.103 204.307 89.1384 206.664 90.5998 208.756C87.5612 211.322 84.8002 214.199 82.362 217.339V217.302Z" fill="white"/>
<path d="M505.525 400.793C505.525 403.761 437.492 406.161 353.577 406.161C269.663 406.161 201.617 403.761 201.617 400.793C201.617 397.825 269.65 395.438 353.577 395.438C437.504 395.438 505.525 397.837 505.525 400.793Z" fill="#92E3A9"/>
<path opacity="0.3" d="M505.525 400.793C505.525 403.761 437.492 406.161 353.577 406.161C269.663 406.161 201.617 403.761 201.617 400.793C201.617 397.825 269.65 395.438 353.577 395.438C437.504 395.438 505.525 397.837 505.525 400.793Z" fill="#E2B7BF"/>
<path d="M342.638 352.641C342.638 352.641 350.071 384.353 346.813 389.573C342.614 396.388 297.832 400.494 297.832 400.494H396.574C396.574 400.494 408.962 397.031 405.246 387.099C402.359 379.406 388.547 352.641 388.547 352.641H342.638Z" fill="white" stroke="#E2B7BF" stroke-linecap="round" stroke-linejoin="round"/>
<path d="M340.483 352.641C340.483 352.641 348.361 384.625 344.658 389.573C340.954 394.52 297.832 398.292 297.832 398.292H397.033C397.033 398.292 405.382 394.928 403.066 387.099C400.749 379.27 386.379 352.641 386.379 352.641H340.483Z" fill="white" stroke="#E2B7BF" stroke-linecap="round" stroke-linejoin="round"/>
<g style="mix-blend-mode:multiply">
<path d="M386.381 352.641H340.547C340.547 352.641 345.205 371.589 345.663 382.572H401.408C396.837 372.01 386.381 352.641 386.381 352.641Z" fill="#92E3A9"/>
</g>
<path d="M396.574 398.453H297.832V400.494H396.574V398.453Z" fill="white" stroke="#E2B7BF" stroke-linecap="round" stroke-linejoin="round"/>
<path d="M505.252 132.656H228.325C222.523 132.656 217.82 137.352 217.82 143.145V345.282C217.82 351.074 222.523 355.77 228.325 355.77H505.252C511.054 355.77 515.757 351.074 515.757 345.282V143.145C515.757 137.352 511.054 132.656 505.252 132.656Z" fill="#92E3A9" stroke="#E2B7BF" stroke-linecap="round" stroke-linejoin="round"/>
<path d="M498.229 132.656H221.302C215.5 132.656 210.797 137.352 210.797 143.145V345.282C210.797 351.074 215.5 355.77 221.302 355.77H498.229C504.03 355.77 508.734 351.074 508.734 345.282V143.145C508.734 137.352 504.03 132.656 498.229 132.656Z" fill="#E2B7BF" stroke="#E2B7BF" stroke-linecap="round" stroke-linejoin="round"/>
<path d="M210.797 321.078H508.734V345.258C508.734 348.04 507.627 350.708 505.657 352.675C503.687 354.642 501.015 355.747 498.229 355.747H221.302C218.516 355.747 215.844 354.642 213.874 352.675C211.904 350.708 210.797 348.04 210.797 345.258V321.078Z" fill="white" stroke="#E2B7BF" stroke-linecap="round" stroke-linejoin="round"/>
<path d="M493.756 146.531H225.785V304.154H493.756V146.531Z" fill="#92E3A9" stroke="#E2B7BF" stroke-linecap="round" stroke-linejoin="round"/>
<path d="M365.258 338.421C365.258 337.335 364.935 336.272 364.33 335.369C363.725 334.466 362.866 333.762 361.86 333.347C360.854 332.931 359.748 332.823 358.68 333.036C357.613 333.249 356.633 333.773 355.864 334.543C355.096 335.312 354.573 336.291 354.362 337.357C354.151 338.424 354.262 339.528 354.68 340.531C355.098 341.535 355.805 342.391 356.711 342.993C357.617 343.595 358.682 343.915 359.77 343.913C360.492 343.913 361.207 343.771 361.873 343.495C362.54 343.218 363.145 342.814 363.655 342.304C364.165 341.794 364.569 341.188 364.844 340.522C365.119 339.856 365.26 339.142 365.258 338.421Z" fill="#E2B7BF" stroke="#E2B7BF" stroke-linecap="round" stroke-linejoin="round"/>
<path d="M491.241 157.641H227.891V171.456H491.241V157.641Z" fill="#E2B7BF" stroke="#E2B7BF" stroke-linecap="round" stroke-linejoin="round"/>
<path d="M271.334 171.472L268.188 162.938H227.891V171.472V182.789V297.444H491.241V171.472H271.334Z" fill="white" stroke="#E2B7BF" stroke-linecap="round" stroke-linejoin="round"/>
<path d="M416.965 401.712C416.965 401.712 418.662 405.806 428.015 407.228C437.367 408.65 500.445 401.279 500.445 401.279C500.445 401.279 504.41 400.289 504.694 398.31C504.979 396.331 494.487 390.531 475.075 388.119C458.183 386.183 441.071 388.12 425.041 393.783C413.001 398.174 416.965 401.712 416.965 401.712Z" fill="white" stroke="#E2B7BF" stroke-linecap="round" stroke-linejoin="round"/>
<g style="mix-blend-mode:multiply">
<path d="M489.559 394.766C485.347 394.766 475.821 395.211 468.066 395.879C460.311 396.547 447.465 401.407 440.379 403.832C433.294 406.256 421.996 405.613 421.996 405.613C423.928 406.397 425.95 406.938 428.017 407.221C437.369 408.631 500.447 401.271 500.447 401.271C501.83 400.927 503.107 400.247 504.164 399.292C500.163 396.398 493.002 394.766 489.559 394.766Z" fill="#92E3A9"/>
</g>
<path d="M501.836 397.922C502.387 398.211 502.914 398.546 503.409 398.924" stroke="#E2B7BF" stroke-linecap="round" stroke-linejoin="round"/>
<path d="M423.914 406.238C430.487 406.433 437.034 405.328 443.177 402.985C456.207 397.864 470.055 395.128 484.056 394.909C492.195 394.847 497.175 395.96 500.16 397.086" stroke="#E2B7BF" stroke-linecap="round" stroke-linejoin="round"/>
<path d="M476.254 237.188H394.148V287.082H475.87" stroke="#E2B7BF" stroke-width="0.5" stroke-linecap="round" stroke-linejoin="round"/>
<path d="M394.52 251.406H476.625" stroke="#E2B7BF" stroke-width="0.5" stroke-linecap="round" stroke-linejoin="round"/>
<path d="M394.52 265.602H476.625" stroke="#E2B7BF" stroke-width="0.5" stroke-linecap="round" stroke-linejoin="round"/>
<path d="M394.52 279.781H476.625" stroke="#E2B7BF" stroke-width="0.5" stroke-linecap="round" stroke-linejoin="round"/>
<path d="M391.893 237.516H388.523" stroke="#E2B7BF" stroke-width="0.5" stroke-linecap="round" stroke-linejoin="round"/>
<path d="M391.893 244.547H388.523" stroke="#E2B7BF" stroke-width="0.5" stroke-linecap="round" stroke-linejoin="round"/>
<path d="M391.893 251.586H388.523" stroke="#E2B7BF" stroke-width="0.5" stroke-linecap="round" stroke-linejoin="round"/>
<path d="M391.893 258.625H388.523" stroke="#E2B7BF" stroke-width="0.5" stroke-linecap="round" stroke-linejoin="round"/>
<path d="M391.893 265.648H388.523" stroke="#E2B7BF" stroke-width="0.5" stroke-linecap="round" stroke-linejoin="round"/>
<path d="M391.893 272.688H388.523" stroke="#E2B7BF" stroke-width="0.5" stroke-linecap="round" stroke-linejoin="round"/>
<path d="M391.893 279.719H388.523" stroke="#E2B7BF" stroke-width="0.5" stroke-linecap="round" stroke-linejoin="round"/>
<path d="M391.893 286.75H388.523" stroke="#E2B7BF" stroke-width="0.5" stroke-linecap="round" stroke-linejoin="round"/>
<path d="M400.911 257.164H397.133V286.885H400.911V257.164Z" fill="#E2B7BF" stroke="#E2B7BF" stroke-linecap="round" stroke-linejoin="round"/>
<path d="M407.614 242.938H403.836V286.882H407.614V242.938Z" fill="#92E3A9" stroke="#E2B7BF" stroke-linecap="round" stroke-linejoin="round"/>
<path d="M414.329 257.164H410.551V286.885H414.329V257.164Z" fill="white" stroke="#E2B7BF" stroke-linecap="round" stroke-linejoin="round"/>
<path d="M429.415 247.539H425.637V286.883H429.415V247.539Z" fill="#E2B7BF" stroke="#E2B7BF" stroke-linecap="round" stroke-linejoin="round"/>
<path d="M436.118 253.406H432.34V286.888H436.118V253.406Z" fill="#92E3A9" stroke="#E2B7BF" stroke-linecap="round" stroke-linejoin="round"/>
<path d="M442.833 270.141H439.055V286.887H442.833V270.141Z" fill="white" stroke="#E2B7BF" stroke-linecap="round" stroke-linejoin="round"/>
<path d="M457.919 257.164H454.141V286.885H457.919V257.164Z" fill="#E2B7BF" stroke="#E2B7BF" stroke-linecap="round" stroke-linejoin="round"/>
<path d="M464.622 242.938H460.844V286.882H464.622V242.938Z" fill="#92E3A9" stroke="#E2B7BF" stroke-linecap="round" stroke-linejoin="round"/>
<path d="M471.337 257.164H467.559V286.885H471.337V257.164Z" fill="white" stroke="#E2B7BF" stroke-linecap="round" stroke-linejoin="round"/>
<path opacity="0.4" d="M370.312 190.225L412.208 221.53V177.82L370.312 14.5938V190.225Z" fill="#92E3A9" stroke="white" stroke-linecap="round" stroke-linejoin="round"/>
<path opacity="0.4" d="M412.209 221.531H275.944L54.8359 190.227H370.314L412.209 221.531Z" fill="#92E3A9" stroke="white" stroke-linecap="round" stroke-linejoin="round"/>
<path d="M370.314 14.5938H54.8359V172.91H370.314V14.5938Z" fill="#A1182F" stroke="#E2B7BF" stroke-linecap="round" stroke-linejoin="round"/>
<path d="M67 22.8125H127.291" stroke="white" stroke-width="2" stroke-linecap="round" stroke-linejoin="round"/>
<path d="M362.287 22.0685C362.287 21.251 362.044 20.4518 361.589 19.7722C361.133 19.0926 360.486 18.5631 359.73 18.2508C358.973 17.9385 358.14 17.8574 357.337 18.0178C356.535 18.1782 355.797 18.5729 355.219 19.1518C354.641 19.7308 354.248 20.4681 354.09 21.2702C353.931 22.0724 354.015 22.9034 354.33 23.658C354.645 24.4126 355.178 25.057 355.86 25.5094C356.542 25.9618 357.343 26.202 358.162 26.1996C358.704 26.1996 359.242 26.0927 359.743 25.8849C360.244 25.6771 360.7 25.3727 361.083 24.9889C361.466 24.6051 361.77 24.1496 361.976 23.6485C362.183 23.1474 362.288 22.6105 362.287 22.0685Z" fill="white"/>
<path d="M344.61 22.0594C344.607 21.2454 344.363 20.4503 343.908 19.7746C343.454 19.0989 342.808 18.5729 342.055 18.2631C341.301 17.9533 340.472 17.8735 339.672 18.0338C338.873 18.1941 338.139 18.5873 337.563 19.1638C336.988 19.7403 336.596 20.4742 336.438 21.2728C336.28 22.0714 336.362 22.8989 336.675 23.6508C336.987 24.4027 337.516 25.0452 338.194 25.4972C338.872 25.9492 339.669 26.1905 340.484 26.1905C341.027 26.1905 341.565 26.0836 342.066 25.8758C342.567 25.668 343.023 25.3636 343.406 24.9798C343.789 24.596 344.093 24.1405 344.299 23.6394C344.506 23.1383 344.611 22.6014 344.61 22.0594Z" fill="white"/>
<path d="M370.314 31.9062H54.8359V190.222H370.314V31.9062Z" fill="white" stroke="#E2B7BF" stroke-linecap="round" stroke-linejoin="round"/>
<path d="M355.447 48.4062H77.1328V175.38H354.617" stroke="#E2B7BF" stroke-width="0.5" stroke-linecap="round" stroke-linejoin="round"/>
<path d="M77.9648 84.6016H356.267" stroke="#E2B7BF" stroke-width="0.5" stroke-linecap="round" stroke-linejoin="round"/>
<path d="M77.9648 120.719H356.267" stroke="#E2B7BF" stroke-width="0.5" stroke-linecap="round" stroke-linejoin="round"/>
<path d="M77.9648 156.828H356.267" stroke="#E2B7BF" stroke-width="0.5" stroke-linecap="round" stroke-linejoin="round"/>
<path d="M72.1787 49.2266H64.7461" stroke="#E2B7BF" stroke-width="0.5" stroke-linecap="round" stroke-linejoin="round"/>
<path d="M72.1787 67.1406H64.7461" stroke="#E2B7BF" stroke-width="0.5" stroke-linecap="round" stroke-linejoin="round"/>
<path d="M72.1787 85.0469H64.7461" stroke="#E2B7BF" stroke-width="0.5" stroke-linecap="round" stroke-linejoin="round"/>
<path d="M72.1787 102.938H64.7461" stroke="#E2B7BF" stroke-width="0.5" stroke-linecap="round" stroke-linejoin="round"/>
<path d="M72.1787 120.852H64.7461" stroke="#E2B7BF" stroke-width="0.5" stroke-linecap="round" stroke-linejoin="round"/>
<path d="M72.1787 138.75H64.7461" stroke="#E2B7BF" stroke-width="0.5" stroke-linecap="round" stroke-linejoin="round"/>
<path d="M72.1787 156.656H64.7461" stroke="#E2B7BF" stroke-width="0.5" stroke-linecap="round" stroke-linejoin="round"/>
<path d="M72.1787 174.562H64.7461" stroke="#E2B7BF" stroke-width="0.5" stroke-linecap="round" stroke-linejoin="round"/>
<path d="M79.2031 85.2701C79.2031 85.2701 103.557 86.3337 108.512 83.0437C113.468 79.7537 120.083 73.149 124.208 73.9653C128.68 75.1204 133.092 76.4991 137.425 78.0964C137.425 78.0964 147.335 72.3203 149.813 72.3203C152.291 72.3203 160.541 76.439 167.156 76.439H186.146L193.579 82.215L207.614 78.0964L223.309 84.6887L233.219 83.0437L247.255 90.4648H253.87L267.075 96.2285H284.418L294.328 102.005L310.023 102.833L322.411 115.202L332.321 113.544L343.061 117.675L352.971 116.847" stroke="#92E3A9" stroke-width="3" stroke-linecap="round" stroke-linejoin="round"/>
<path d="M78.7812 89.633H109.342L127.514 92.1066L142.38 92.9353L155.585 102.001L174.588 96.2253L197.703 104.475L223.309 100.356L232.389 104.475L253.039 81.3832H273.689L286.077 68.1985L299.282 73.9622L307.545 66.5411L318.285 72.3172L324.888 64.0674L329.013 64.8961L339.753 61.5938L344.708 64.8961L352.971 63.2511" stroke="#E2B7BF" stroke-width="3" stroke-linecap="round" stroke-linejoin="round"/>
<path d="M79.6133 170.433H111.821L136.597 156.42L154.769 164.669H167.975L174.59 167.143L189.455 159.722L209.275 147.354L215.878 156.42L228.266 154.775L234.868 156.42L251.394 157.248L269.554 142.406L278.647 153.117L290.204 152.301L296.807 156.42L306.717 153.946L319.935 158.893L338.108 156.42L348.018 158.065L353.79 156.42" stroke="#92E3A9" stroke-width="3" stroke-linecap="round" stroke-linejoin="round"/>
<path opacity="0.4" d="M276.773 201.781L350.27 233.073V288.323L276.773 368.334V201.781Z" fill="#92E3A9" stroke="white" stroke-linecap="round" stroke-linejoin="round"/>
<path d="M276.774 201.781H114.297V360.097H276.774V201.781Z" fill="#A1182F" stroke="#E2B7BF" stroke-linecap="round" stroke-linejoin="round"/>
<path d="M276.774 219.094H114.297V368.343H276.774V219.094Z" fill="white" stroke="#E2B7BF" stroke-linecap="round" stroke-linejoin="round"/>
<path d="M194.37 293.111L129.954 293.049C129.845 284.402 131.539 275.826 134.93 267.869C138.321 259.911 143.334 252.746 149.651 246.828L194.37 293.111Z" fill="#A1182F" stroke="white" stroke-miterlimit="10"/>
<path d="M194.371 293.109L177.647 355.186C163.895 351.629 151.731 343.578 143.094 332.316C134.457 321.054 129.845 307.23 129.992 293.047L194.371 293.109Z" fill="#A1182F" stroke="white" stroke-miterlimit="10"/>
<path d="M197.258 294.906L227.546 238.172C241.464 245.629 252.152 257.932 257.58 272.742C263.007 287.552 262.796 303.837 256.986 318.502C251.176 333.166 240.172 345.188 226.065 352.283C211.959 359.378 195.733 361.05 180.473 356.983L197.258 294.906Z" fill="#92E3A9" stroke="white" stroke-miterlimit="10"/>
<path d="M194.37 293.106L191.062 228.902C202.741 228.123 214.399 230.698 224.658 236.323L194.37 293.106Z" fill="#A1182F" stroke="white" stroke-miterlimit="10"/>
<path d="M194.37 293.111L149.688 246.828C160.682 235.8 175.485 229.388 191.062 228.906L194.37 293.111Z" fill="#A1182F" stroke="white" stroke-miterlimit="10"/>
<path d="M270.16 210.806C270.16 209.992 269.918 209.195 269.465 208.518C269.012 207.841 268.368 207.313 267.614 207.001C266.86 206.689 266.031 206.608 265.23 206.767C264.43 206.926 263.695 207.318 263.118 207.894C262.541 208.47 262.149 209.204 261.989 210.003C261.83 210.802 261.912 211.63 262.224 212.382C262.536 213.135 263.065 213.778 263.743 214.231C264.422 214.683 265.219 214.925 266.035 214.925C266.577 214.925 267.113 214.818 267.614 214.611C268.114 214.404 268.569 214.101 268.952 213.719C269.335 213.336 269.639 212.882 269.846 212.382C270.054 211.883 270.16 211.347 270.16 210.806Z" fill="white"/>
<path d="M252.494 210.8C252.496 209.982 252.256 209.182 251.802 208.501C251.349 207.82 250.704 207.289 249.948 206.974C249.192 206.66 248.36 206.576 247.557 206.734C246.753 206.892 246.015 207.285 245.435 207.862C244.855 208.439 244.46 209.175 244.299 209.977C244.139 210.779 244.22 211.61 244.533 212.365C244.845 213.121 245.376 213.767 246.056 214.221C246.737 214.676 247.537 214.918 248.356 214.918C249.451 214.918 250.502 214.485 251.278 213.713C252.053 212.941 252.49 211.893 252.494 210.8Z" fill="white"/>
<g style="mix-blend-mode:multiply" opacity="0.73">
<path d="M276.774 219.094H114.297V238.228H276.774V219.094Z" fill="#92E3A9"/>
<path d="M276.774 219.094H114.297V238.228H276.774V219.094Z" stroke="white" stroke-linecap="round" stroke-linejoin="round"/>
</g>
</svg>
