<svg width="614" height="381" viewBox="0 0 614 381" fill="none" xmlns="http://www.w3.org/2000/svg">
<g clip-path="url(#clip0_2583_14744)">
<path d="M483.6 46.8164C483.6 46.543 483.557 46.2988 483.473 46.084C483.395 45.8626 483.248 45.6641 483.033 45.4883C482.825 45.306 482.529 45.1302 482.145 44.9609C481.767 44.7852 481.279 44.6029 480.68 44.4141C480.016 44.2057 479.397 43.9714 478.824 43.7109C478.251 43.4505 477.747 43.1478 477.311 42.8027C476.881 42.4577 476.546 42.0605 476.305 41.6113C476.064 41.1556 475.943 40.6283 475.943 40.0293C475.943 39.4434 476.067 38.9095 476.314 38.4277C476.568 37.946 476.926 37.5326 477.389 37.1875C477.851 36.8359 478.395 36.5658 479.02 36.377C479.651 36.1882 480.348 36.0938 481.109 36.0938C482.164 36.0938 483.076 36.2858 483.844 36.6699C484.618 37.054 485.217 37.5749 485.641 38.2324C486.064 38.89 486.275 39.6289 486.275 40.4492H483.6C483.6 40.0065 483.505 39.6159 483.316 39.2773C483.134 38.9388 482.854 38.6719 482.477 38.4766C482.105 38.2812 481.637 38.1836 481.07 38.1836C480.523 38.1836 480.068 38.265 479.703 38.4277C479.345 38.5905 479.075 38.8118 478.893 39.0918C478.717 39.3717 478.629 39.6842 478.629 40.0293C478.629 40.2897 478.691 40.5241 478.814 40.7324C478.938 40.9342 479.124 41.1263 479.371 41.3086C479.618 41.4844 479.924 41.6504 480.289 41.8066C480.66 41.9564 481.09 42.1061 481.578 42.2559C482.359 42.4902 483.043 42.7507 483.629 43.0371C484.221 43.3236 484.713 43.6491 485.104 44.0137C485.501 44.3783 485.797 44.7884 485.992 45.2441C486.194 45.6999 486.295 46.2174 486.295 46.7969C486.295 47.4089 486.174 47.9557 485.934 48.4375C485.693 48.9193 485.348 49.3294 484.898 49.668C484.449 50.0065 483.909 50.2637 483.277 50.4395C482.652 50.6152 481.952 50.7031 481.178 50.7031C480.488 50.7031 479.804 50.612 479.127 50.4297C478.456 50.2409 477.848 49.9609 477.301 49.5898C476.754 49.2122 476.318 48.737 475.992 48.1641C475.667 47.5846 475.504 46.9076 475.504 46.1328H478.199C478.199 46.582 478.271 46.9661 478.414 47.2852C478.564 47.5977 478.772 47.8548 479.039 48.0566C479.312 48.252 479.632 48.3952 479.996 48.4863C480.361 48.5775 480.755 48.623 481.178 48.623C481.725 48.623 482.174 48.5482 482.525 48.3984C482.883 48.2422 483.15 48.0273 483.326 47.7539C483.508 47.4805 483.6 47.168 483.6 46.8164ZM491.266 49.3359L494.098 39.9414H496.861L492.623 52.1094C492.525 52.3698 492.398 52.653 492.242 52.959C492.092 53.265 491.891 53.5547 491.637 53.8281C491.383 54.1081 491.064 54.3359 490.68 54.5117C490.302 54.6875 489.843 54.7754 489.303 54.7754C489.068 54.7754 488.86 54.7591 488.678 54.7266C488.495 54.694 488.303 54.6517 488.102 54.5996V52.666C488.167 52.6725 488.242 52.6758 488.326 52.6758C488.417 52.6823 488.495 52.6855 488.561 52.6855C488.938 52.6855 489.251 52.64 489.498 52.5488C489.745 52.4642 489.944 52.3242 490.094 52.1289C490.25 51.9401 490.38 51.6927 490.484 51.3867L491.266 49.3359ZM489.869 39.9414L492.262 47.7246L492.682 50.4492L490.904 50.7715L487.086 39.9414H489.869ZM503.922 47.6172C503.922 47.3958 503.863 47.1973 503.746 47.0215C503.629 46.8457 503.408 46.6862 503.082 46.543C502.763 46.3932 502.294 46.2533 501.676 46.123C501.129 46.0059 500.624 45.8594 500.162 45.6836C499.7 45.5078 499.303 45.2962 498.971 45.0488C498.639 44.7949 498.378 44.4987 498.189 44.1602C498.007 43.8151 497.916 43.418 497.916 42.9688C497.916 42.5326 498.01 42.1224 498.199 41.7383C498.388 41.3477 498.661 41.0059 499.02 40.7129C499.378 40.4134 499.814 40.179 500.328 40.0098C500.842 39.834 501.422 39.7461 502.066 39.7461C502.965 39.7461 503.736 39.8926 504.381 40.1855C505.032 40.4785 505.53 40.8822 505.875 41.3965C506.22 41.9043 506.393 42.4772 506.393 43.1152H503.814C503.814 42.8353 503.749 42.5814 503.619 42.3535C503.495 42.1257 503.303 41.9434 503.043 41.8066C502.783 41.6634 502.454 41.5918 502.057 41.5918C501.699 41.5918 501.396 41.6504 501.148 41.7676C500.908 41.8848 500.725 42.0378 500.602 42.2266C500.478 42.4154 500.416 42.6237 500.416 42.8516C500.416 43.0208 500.449 43.1738 500.514 43.3105C500.585 43.4408 500.699 43.5612 500.855 43.6719C501.012 43.7826 501.223 43.8835 501.49 43.9746C501.764 44.0658 502.099 44.1536 502.496 44.2383C503.284 44.3945 503.971 44.6029 504.557 44.8633C505.149 45.1172 505.611 45.4557 505.943 45.8789C506.275 46.3021 506.441 46.8424 506.441 47.5C506.441 47.9688 506.34 48.3984 506.139 48.7891C505.937 49.1732 505.644 49.5085 505.26 49.7949C504.876 50.0814 504.417 50.306 503.883 50.4688C503.349 50.625 502.747 50.7031 502.076 50.7031C501.106 50.7031 500.286 50.5306 499.615 50.1855C498.945 49.834 498.437 49.3913 498.092 48.8574C497.747 48.3171 497.574 47.7572 497.574 47.1777H500.045C500.064 47.5879 500.175 47.9167 500.377 48.1641C500.579 48.4115 500.833 48.5905 501.139 48.7012C501.451 48.8053 501.78 48.8574 502.125 48.8574C502.516 48.8574 502.844 48.8053 503.111 48.7012C503.378 48.5905 503.58 48.444 503.717 48.2617C503.854 48.0729 503.922 47.8581 503.922 47.6172ZM513.404 39.9414V41.7969H507.35V39.9414H513.404ZM508.971 37.3438H511.559V47.4609C511.559 47.7734 511.601 48.0143 511.686 48.1836C511.77 48.3529 511.897 48.4668 512.066 48.5254C512.236 48.584 512.438 48.6133 512.672 48.6133C512.841 48.6133 512.997 48.6035 513.141 48.584C513.284 48.5645 513.404 48.5449 513.502 48.5254L513.512 50.459C513.297 50.5306 513.053 50.5892 512.779 50.6348C512.512 50.6803 512.21 50.7031 511.871 50.7031C511.292 50.7031 510.784 50.6055 510.348 50.4102C509.911 50.2083 509.573 49.8861 509.332 49.4434C509.091 48.9941 508.971 48.4017 508.971 47.666V37.3438ZM519.869 50.7031C519.068 50.7031 518.349 50.5729 517.711 50.3125C517.073 50.0521 516.529 49.6908 516.08 49.2285C515.637 48.7598 515.296 48.2161 515.055 47.5977C514.82 46.9727 514.703 46.3021 514.703 45.5859V45.1953C514.703 44.3815 514.82 43.6426 515.055 42.9785C515.289 42.3079 515.621 41.7318 516.051 41.25C516.48 40.7682 516.995 40.3971 517.594 40.1367C518.193 39.8763 518.854 39.7461 519.576 39.7461C520.325 39.7461 520.986 39.873 521.559 40.127C522.132 40.3743 522.61 40.7259 522.994 41.1816C523.378 41.6374 523.668 42.1842 523.863 42.8223C524.059 43.4538 524.156 44.1536 524.156 44.9219V46.0059H515.875V44.2285H521.617V44.0332C521.604 43.623 521.526 43.2487 521.383 42.9102C521.24 42.5651 521.018 42.2917 520.719 42.0898C520.419 41.8815 520.032 41.7773 519.557 41.7773C519.173 41.7773 518.837 41.862 518.551 42.0312C518.271 42.194 518.036 42.4284 517.848 42.7344C517.665 43.0339 517.529 43.3919 517.438 43.8086C517.346 44.2253 517.301 44.6875 517.301 45.1953V45.5859C517.301 46.0286 517.359 46.4388 517.477 46.8164C517.6 47.194 517.779 47.5228 518.014 47.8027C518.255 48.0762 518.541 48.291 518.873 48.4473C519.212 48.597 519.596 48.6719 520.025 48.6719C520.566 48.6719 521.054 48.5677 521.49 48.3594C521.933 48.1445 522.317 47.8288 522.643 47.4121L523.941 48.7598C523.72 49.0853 523.421 49.3978 523.043 49.6973C522.672 49.9967 522.223 50.2409 521.695 50.4297C521.168 50.612 520.559 50.7031 519.869 50.7031ZM528.453 42.1094V50.5078H525.875V39.9414H528.307L528.453 42.1094ZM528.072 44.8438H527.281C527.281 44.1081 527.369 43.431 527.545 42.8125C527.727 42.194 527.994 41.6569 528.346 41.2012C528.697 40.7389 529.13 40.3809 529.645 40.127C530.165 39.873 530.768 39.7461 531.451 39.7461C531.926 39.7461 532.363 39.8177 532.76 39.9609C533.157 40.0977 533.499 40.3158 533.785 40.6152C534.078 40.9082 534.303 41.2923 534.459 41.7676C534.615 42.2363 534.693 42.7995 534.693 43.457V50.5078H532.115V43.7207C532.115 43.2259 532.044 42.8385 531.9 42.5586C531.764 42.2786 531.565 42.0833 531.305 41.9727C531.044 41.8555 530.732 41.7969 530.367 41.7969C529.964 41.7969 529.615 41.8783 529.322 42.041C529.036 42.1973 528.798 42.4154 528.609 42.6953C528.427 42.9753 528.29 43.2975 528.199 43.6621C528.115 44.0267 528.072 44.4206 528.072 44.8438ZM534.498 44.3652L533.434 44.5605C533.44 43.8965 533.531 43.2747 533.707 42.6953C533.883 42.1094 534.14 41.5983 534.479 41.1621C534.824 40.7194 535.25 40.3743 535.758 40.127C536.272 39.873 536.865 39.7461 537.535 39.7461C538.056 39.7461 538.525 39.821 538.941 39.9707C539.365 40.1139 539.726 40.3451 540.025 40.6641C540.325 40.9766 540.553 41.3835 540.709 41.8848C540.872 42.3861 540.953 42.998 540.953 43.7207V50.5078H538.355V43.7109C538.355 43.1966 538.284 42.8027 538.141 42.5293C538.004 42.2559 537.805 42.0671 537.545 41.9629C537.285 41.8522 536.979 41.7969 536.627 41.7969C536.269 41.7969 535.956 41.8652 535.689 42.002C535.429 42.1322 535.208 42.3145 535.025 42.5488C534.85 42.7832 534.716 43.0566 534.625 43.3691C534.54 43.6751 534.498 44.0072 534.498 44.3652ZM549.088 48.2617V43.3887C549.088 43.0306 549.026 42.7214 548.902 42.4609C548.779 42.2005 548.59 41.9987 548.336 41.8555C548.082 41.7122 547.76 41.6406 547.369 41.6406C547.024 41.6406 546.721 41.6992 546.461 41.8164C546.207 41.9336 546.012 42.0996 545.875 42.3145C545.738 42.5228 545.67 42.7637 545.67 43.0371H543.082C543.082 42.6009 543.186 42.1875 543.395 41.7969C543.603 41.3997 543.899 41.0482 544.283 40.7422C544.674 40.4297 545.139 40.1855 545.68 40.0098C546.227 39.834 546.839 39.7461 547.516 39.7461C548.316 39.7461 549.029 39.8828 549.654 40.1562C550.286 40.4232 550.781 40.8268 551.139 41.3672C551.503 41.9076 551.686 42.5879 551.686 43.4082V48.0176C551.686 48.5449 551.718 48.9974 551.783 49.375C551.855 49.7461 551.959 50.0684 552.096 50.3418V50.5078H549.469C549.345 50.2409 549.251 49.9023 549.186 49.4922C549.12 49.0755 549.088 48.6654 549.088 48.2617ZM549.449 44.0723L549.469 45.6055H547.838C547.434 45.6055 547.079 45.6478 546.773 45.7324C546.467 45.8105 546.217 45.9277 546.021 46.084C545.826 46.2337 545.68 46.416 545.582 46.6309C545.484 46.8392 545.436 47.0768 545.436 47.3438C545.436 47.6042 545.494 47.8385 545.611 48.0469C545.735 48.2552 545.911 48.4212 546.139 48.5449C546.373 48.6621 546.646 48.7207 546.959 48.7207C547.415 48.7207 547.812 48.6296 548.15 48.4473C548.489 48.2585 548.753 48.0306 548.941 47.7637C549.13 47.4967 549.231 47.2428 549.244 47.002L549.986 48.1152C549.895 48.3822 549.758 48.6654 549.576 48.9648C549.394 49.2643 549.16 49.5443 548.873 49.8047C548.587 50.0651 548.242 50.2799 547.838 50.4492C547.434 50.6185 546.965 50.7031 546.432 50.7031C545.748 50.7031 545.136 50.5664 544.596 50.293C544.055 50.0195 543.629 49.6452 543.316 49.1699C543.004 48.6947 542.848 48.1543 542.848 47.5488C542.848 46.9889 542.952 46.4941 543.16 46.0645C543.368 45.6348 543.678 45.2734 544.088 44.9805C544.498 44.681 545.006 44.4564 545.611 44.3066C546.223 44.1504 546.923 44.0723 547.711 44.0723H549.449ZM559.01 39.9414V41.7969H552.955V39.9414H559.01ZM554.576 37.3438H557.164V47.4609C557.164 47.7734 557.206 48.0143 557.291 48.1836C557.376 48.3529 557.503 48.4668 557.672 48.5254C557.841 48.584 558.043 48.6133 558.277 48.6133C558.447 48.6133 558.603 48.6035 558.746 48.584C558.889 48.5645 559.01 48.5449 559.107 48.5254L559.117 50.459C558.902 50.5306 558.658 50.5892 558.385 50.6348C558.118 50.6803 557.815 50.7031 557.477 50.7031C556.897 50.7031 556.389 50.6055 555.953 50.4102C555.517 50.2083 555.178 49.8861 554.938 49.4434C554.697 48.9941 554.576 48.4017 554.576 47.666V37.3438ZM563.463 39.9414V50.5078H560.875V39.9414H563.463ZM560.699 37.1777C560.699 36.7936 560.829 36.4746 561.09 36.2207C561.357 35.9668 561.715 35.8398 562.164 35.8398C562.613 35.8398 562.968 35.9668 563.229 36.2207C563.495 36.4746 563.629 36.7936 563.629 37.1777C563.629 37.5553 563.495 37.8711 563.229 38.125C562.968 38.3789 562.613 38.5059 562.164 38.5059C561.715 38.5059 561.357 38.3789 561.09 38.125C560.829 37.8711 560.699 37.5553 560.699 37.1777ZM570.26 48.6719C570.624 48.6719 570.95 48.6003 571.236 48.457C571.523 48.3138 571.751 48.112 571.92 47.8516C572.096 47.5911 572.19 47.2884 572.203 46.9434H574.635C574.622 47.6595 574.42 48.3008 574.029 48.8672C573.639 49.4336 573.118 49.8828 572.467 50.2148C571.822 50.5404 571.1 50.7031 570.299 50.7031C569.485 50.7031 568.775 50.5664 568.17 50.293C567.564 50.0195 567.06 49.6387 566.656 49.1504C566.259 48.6621 565.96 48.0957 565.758 47.4512C565.562 46.8066 565.465 46.1165 565.465 45.3809V45.0684C565.465 44.3327 565.562 43.6426 565.758 42.998C565.96 42.3535 566.259 41.7871 566.656 41.2988C567.06 40.8105 567.564 40.4297 568.17 40.1562C568.775 39.8828 569.482 39.7461 570.289 39.7461C571.142 39.7461 571.891 39.9121 572.535 40.2441C573.186 40.5762 573.694 41.0449 574.059 41.6504C574.43 42.2559 574.622 42.9688 574.635 43.7891H572.203C572.19 43.4115 572.105 43.0729 571.949 42.7734C571.793 42.474 571.572 42.2331 571.285 42.0508C570.999 41.8685 570.65 41.7773 570.24 41.7773C569.804 41.7773 569.439 41.8685 569.146 42.0508C568.86 42.2331 568.635 42.4837 568.473 42.8027C568.316 43.1152 568.206 43.4668 568.141 43.8574C568.082 44.2415 568.053 44.6452 568.053 45.0684V45.3809C568.053 45.8105 568.082 46.2207 568.141 46.6113C568.206 47.002 568.316 47.3535 568.473 47.666C568.635 47.972 568.86 48.2161 569.146 48.3984C569.439 48.5807 569.811 48.6719 570.26 48.6719Z" fill="#171717"/>
<path d="M481.812 58.1035L477.76 70.1641H474.918L480.23 55.9453H482.047L481.812 58.1035ZM485.201 70.1641L481.129 58.1035L480.885 55.9453H482.711L488.053 70.1641H485.201ZM485.016 64.8809V67H477.389V64.8809H485.016ZM491.646 61.6289V74.2266H489.059V59.5977H491.451L491.646 61.6289ZM498.434 64.7734V64.9785C498.434 65.7467 498.342 66.4596 498.16 67.1172C497.984 67.7682 497.724 68.3379 497.379 68.8262C497.034 69.3079 496.604 69.6855 496.09 69.959C495.582 70.2259 494.996 70.3594 494.332 70.3594C493.681 70.3594 493.115 70.2357 492.633 69.9883C492.151 69.7344 491.744 69.3763 491.412 68.9141C491.08 68.4518 490.813 67.9147 490.611 67.3027C490.416 66.6842 490.27 66.0104 490.172 65.2812V64.627C490.27 63.8522 490.416 63.1491 490.611 62.5176C490.813 61.8796 491.08 61.3294 491.412 60.8672C491.744 60.3984 492.148 60.0371 492.623 59.7832C493.105 59.5293 493.668 59.4023 494.312 59.4023C494.983 59.4023 495.572 59.5293 496.08 59.7832C496.594 60.0371 497.027 60.4017 497.379 60.877C497.73 61.3522 497.994 61.9186 498.17 62.5762C498.346 63.2337 498.434 63.9661 498.434 64.7734ZM495.846 64.9785V64.7734C495.846 64.3047 495.803 63.8717 495.719 63.4746C495.634 63.071 495.504 62.7194 495.328 62.4199C495.152 62.1139 494.924 61.8763 494.645 61.707C494.365 61.5378 494.026 61.4531 493.629 61.4531C493.232 61.4531 492.89 61.5182 492.604 61.6484C492.317 61.7786 492.083 61.9642 491.9 62.2051C491.718 62.446 491.575 62.7324 491.471 63.0645C491.373 63.39 491.308 63.7513 491.275 64.1484V65.7695C491.334 66.2513 491.448 66.6842 491.617 67.0684C491.786 67.4525 492.034 67.7585 492.359 67.9863C492.691 68.2142 493.121 68.3281 493.648 68.3281C494.046 68.3281 494.384 68.2402 494.664 68.0645C494.944 67.8887 495.172 67.6478 495.348 67.3418C495.523 67.0293 495.65 66.6712 495.729 66.2676C495.807 65.8639 495.846 65.4342 495.846 64.9785ZM502.896 61.6289V74.2266H500.309V59.5977H502.701L502.896 61.6289ZM509.684 64.7734V64.9785C509.684 65.7467 509.592 66.4596 509.41 67.1172C509.234 67.7682 508.974 68.3379 508.629 68.8262C508.284 69.3079 507.854 69.6855 507.34 69.959C506.832 70.2259 506.246 70.3594 505.582 70.3594C504.931 70.3594 504.365 70.2357 503.883 69.9883C503.401 69.7344 502.994 69.3763 502.662 68.9141C502.33 68.4518 502.063 67.9147 501.861 67.3027C501.666 66.6842 501.52 66.0104 501.422 65.2812V64.627C501.52 63.8522 501.666 63.1491 501.861 62.5176C502.063 61.8796 502.33 61.3294 502.662 60.8672C502.994 60.3984 503.398 60.0371 503.873 59.7832C504.355 59.5293 504.918 59.4023 505.562 59.4023C506.233 59.4023 506.822 59.5293 507.33 59.7832C507.844 60.0371 508.277 60.4017 508.629 60.877C508.98 61.3522 509.244 61.9186 509.42 62.5762C509.596 63.2337 509.684 63.9661 509.684 64.7734ZM507.096 64.9785V64.7734C507.096 64.3047 507.053 63.8717 506.969 63.4746C506.884 63.071 506.754 62.7194 506.578 62.4199C506.402 62.1139 506.174 61.8763 505.895 61.707C505.615 61.5378 505.276 61.4531 504.879 61.4531C504.482 61.4531 504.14 61.5182 503.854 61.6484C503.567 61.7786 503.333 61.9642 503.15 62.2051C502.968 62.446 502.825 62.7324 502.721 63.0645C502.623 63.39 502.558 63.7513 502.525 64.1484V65.7695C502.584 66.2513 502.698 66.6842 502.867 67.0684C503.036 67.4525 503.284 67.7585 503.609 67.9863C503.941 68.2142 504.371 68.3281 504.898 68.3281C505.296 68.3281 505.634 68.2402 505.914 68.0645C506.194 67.8887 506.422 67.6478 506.598 67.3418C506.773 67.0293 506.9 66.6712 506.979 66.2676C507.057 65.8639 507.096 65.4342 507.096 64.9785ZM514.146 61.7559V70.1641H511.568V59.5977H514.01L514.146 61.7559ZM517.359 59.5293L517.32 61.9316C517.177 61.9056 517.014 61.8861 516.832 61.873C516.656 61.86 516.49 61.8535 516.334 61.8535C515.937 61.8535 515.589 61.9089 515.289 62.0195C514.99 62.1237 514.739 62.2767 514.537 62.4785C514.342 62.6803 514.192 62.9277 514.088 63.2207C513.984 63.5072 513.925 63.8327 513.912 64.1973L513.355 64.1289C513.355 63.4583 513.424 62.8366 513.561 62.2637C513.697 61.6908 513.896 61.1895 514.156 60.7598C514.417 60.3301 514.742 59.998 515.133 59.7637C515.53 59.5228 515.986 59.4023 516.5 59.4023C516.643 59.4023 516.796 59.4154 516.959 59.4414C517.128 59.4609 517.262 59.4902 517.359 59.5293ZM518.043 64.9883V64.7832C518.043 64.0085 518.154 63.2956 518.375 62.6445C518.596 61.987 518.919 61.4173 519.342 60.9355C519.765 60.4538 520.283 60.0794 520.895 59.8125C521.507 59.5391 522.203 59.4023 522.984 59.4023C523.779 59.4023 524.482 59.5391 525.094 59.8125C525.712 60.0794 526.233 60.4538 526.656 60.9355C527.079 61.4173 527.402 61.987 527.623 62.6445C527.844 63.2956 527.955 64.0085 527.955 64.7832V64.9883C527.955 65.7565 527.844 66.4694 527.623 67.127C527.402 67.778 527.079 68.3477 526.656 68.8359C526.233 69.3177 525.715 69.6921 525.104 69.959C524.492 70.2259 523.792 70.3594 523.004 70.3594C522.223 70.3594 521.523 70.2259 520.904 69.959C520.286 69.6921 519.765 69.3177 519.342 68.8359C518.919 68.3477 518.596 67.778 518.375 67.127C518.154 66.4694 518.043 65.7565 518.043 64.9883ZM520.621 64.7832V64.9883C520.621 65.4505 520.667 65.8835 520.758 66.2871C520.849 66.6908 520.989 67.0456 521.178 67.3516C521.367 67.6576 521.611 67.8984 521.91 68.0742C522.216 68.2435 522.581 68.3281 523.004 68.3281C523.421 68.3281 523.779 68.2435 524.078 68.0742C524.378 67.8984 524.622 67.6576 524.811 67.3516C525.006 67.0456 525.149 66.6908 525.24 66.2871C525.331 65.8835 525.377 65.4505 525.377 64.9883V64.7832C525.377 64.3275 525.331 63.901 525.24 63.5039C525.149 63.1003 525.006 62.7454 524.811 62.4395C524.622 62.127 524.374 61.8828 524.068 61.707C523.769 61.5247 523.408 61.4336 522.984 61.4336C522.568 61.4336 522.21 61.5247 521.91 61.707C521.611 61.8828 521.367 62.127 521.178 62.4395C520.989 62.7454 520.849 63.1003 520.758 63.5039C520.667 63.901 520.621 64.3275 520.621 64.7832ZM535.65 67.918V63.0449C535.65 62.6868 535.589 62.3776 535.465 62.1172C535.341 61.8568 535.152 61.6549 534.898 61.5117C534.645 61.3685 534.322 61.2969 533.932 61.2969C533.587 61.2969 533.284 61.3555 533.023 61.4727C532.77 61.5898 532.574 61.7559 532.438 61.9707C532.301 62.179 532.232 62.4199 532.232 62.6934H529.645C529.645 62.2572 529.749 61.8438 529.957 61.4531C530.165 61.056 530.462 60.7044 530.846 60.3984C531.236 60.0859 531.702 59.8418 532.242 59.666C532.789 59.4902 533.401 59.4023 534.078 59.4023C534.879 59.4023 535.592 59.5391 536.217 59.8125C536.848 60.0794 537.343 60.4831 537.701 61.0234C538.066 61.5638 538.248 62.2441 538.248 63.0645V67.6738C538.248 68.2012 538.281 68.6536 538.346 69.0312C538.417 69.4023 538.521 69.7246 538.658 69.998V70.1641H536.031C535.908 69.8971 535.813 69.5586 535.748 69.1484C535.683 68.7318 535.65 68.3216 535.65 67.918ZM536.012 63.7285L536.031 65.2617H534.4C533.997 65.2617 533.642 65.304 533.336 65.3887C533.03 65.4668 532.779 65.584 532.584 65.7402C532.389 65.89 532.242 66.0723 532.145 66.2871C532.047 66.4954 531.998 66.7331 531.998 67C531.998 67.2604 532.057 67.4948 532.174 67.7031C532.298 67.9115 532.473 68.0775 532.701 68.2012C532.936 68.3184 533.209 68.377 533.521 68.377C533.977 68.377 534.374 68.2858 534.713 68.1035C535.051 67.9147 535.315 67.6868 535.504 67.4199C535.693 67.153 535.794 66.8991 535.807 66.6582L536.549 67.7715C536.458 68.0384 536.321 68.3216 536.139 68.6211C535.956 68.9206 535.722 69.2005 535.436 69.4609C535.149 69.7214 534.804 69.9362 534.4 70.1055C533.997 70.2747 533.528 70.3594 532.994 70.3594C532.311 70.3594 531.699 70.2227 531.158 69.9492C530.618 69.6758 530.191 69.3014 529.879 68.8262C529.566 68.3509 529.41 67.8105 529.41 67.2051C529.41 66.6452 529.514 66.1504 529.723 65.7207C529.931 65.291 530.24 64.9297 530.65 64.6367C531.061 64.3372 531.568 64.1126 532.174 63.9629C532.786 63.8066 533.486 63.7285 534.273 63.7285H536.012ZM544.908 68.3281C545.273 68.3281 545.598 68.2565 545.885 68.1133C546.171 67.9701 546.399 67.7682 546.568 67.5078C546.744 67.2474 546.839 66.9447 546.852 66.5996H549.283C549.27 67.3158 549.068 67.957 548.678 68.5234C548.287 69.0898 547.766 69.5391 547.115 69.8711C546.471 70.1966 545.748 70.3594 544.947 70.3594C544.133 70.3594 543.424 70.2227 542.818 69.9492C542.213 69.6758 541.708 69.2949 541.305 68.8066C540.908 68.3184 540.608 67.752 540.406 67.1074C540.211 66.4629 540.113 65.7728 540.113 65.0371V64.7246C540.113 63.9889 540.211 63.2988 540.406 62.6543C540.608 62.0098 540.908 61.4434 541.305 60.9551C541.708 60.4668 542.213 60.0859 542.818 59.8125C543.424 59.5391 544.13 59.4023 544.938 59.4023C545.79 59.4023 546.539 59.5684 547.184 59.9004C547.835 60.2324 548.342 60.7012 548.707 61.3066C549.078 61.9121 549.27 62.625 549.283 63.4453H546.852C546.839 63.0677 546.754 62.7292 546.598 62.4297C546.441 62.1302 546.22 61.8893 545.934 61.707C545.647 61.5247 545.299 61.4336 544.889 61.4336C544.452 61.4336 544.088 61.5247 543.795 61.707C543.508 61.8893 543.284 62.14 543.121 62.459C542.965 62.7715 542.854 63.123 542.789 63.5137C542.73 63.8978 542.701 64.3014 542.701 64.7246V65.0371C542.701 65.4668 542.73 65.877 542.789 66.2676C542.854 66.6582 542.965 67.0098 543.121 67.3223C543.284 67.6283 543.508 67.8724 543.795 68.0547C544.088 68.237 544.459 68.3281 544.908 68.3281ZM553.531 55.1641V70.1641H550.943V55.1641H553.531ZM553.121 64.5H552.359C552.359 63.7643 552.457 63.0872 552.652 62.4688C552.848 61.8503 553.124 61.3132 553.482 60.8574C553.84 60.3952 554.267 60.0371 554.762 59.7832C555.263 59.5293 555.816 59.4023 556.422 59.4023C556.943 59.4023 557.415 59.4772 557.838 59.627C558.268 59.7702 558.635 60.0013 558.941 60.3203C559.247 60.6393 559.482 61.056 559.645 61.5703C559.814 62.0781 559.898 62.6966 559.898 63.4258V70.1641H557.301V63.4062C557.301 62.918 557.229 62.5339 557.086 62.2539C556.943 61.9674 556.738 61.7624 556.471 61.6387C556.21 61.515 555.888 61.4531 555.504 61.4531C555.087 61.4531 554.729 61.5345 554.43 61.6973C554.13 61.8535 553.883 62.0716 553.688 62.3516C553.499 62.6315 553.355 62.9538 553.258 63.3184C553.167 63.6829 553.121 64.0768 553.121 64.5Z" fill="#171717"/>
<path d="M51.0527 35.3164C51.0527 35.043 51.0104 34.7988 50.9258 34.584C50.8477 34.3626 50.7012 34.1641 50.4863 33.9883C50.278 33.806 49.9818 33.6302 49.5977 33.4609C49.2201 33.2852 48.7318 33.1029 48.1328 32.9141C47.4688 32.7057 46.8503 32.4714 46.2773 32.2109C45.7044 31.9505 45.1999 31.6478 44.7637 31.3027C44.334 30.9577 43.9987 30.5605 43.7578 30.1113C43.5169 29.6556 43.3965 29.1283 43.3965 28.5293C43.3965 27.9434 43.5202 27.4095 43.7676 26.9277C44.0215 26.446 44.3796 26.0326 44.8418 25.6875C45.304 25.3359 45.8477 25.0658 46.4727 24.877C47.1042 24.6882 47.8008 24.5938 48.5625 24.5938C49.6172 24.5938 50.5286 24.7858 51.2969 25.1699C52.0716 25.554 52.6706 26.0749 53.0938 26.7324C53.5169 27.39 53.7285 28.1289 53.7285 28.9492H51.0527C51.0527 28.5065 50.9583 28.1159 50.7695 27.7773C50.5872 27.4388 50.3073 27.1719 49.9297 26.9766C49.5586 26.7812 49.0898 26.6836 48.5234 26.6836C47.9766 26.6836 47.5208 26.765 47.1562 26.9277C46.7982 27.0905 46.528 27.3118 46.3457 27.5918C46.1699 27.8717 46.082 28.1842 46.082 28.5293C46.082 28.7897 46.1439 29.0241 46.2676 29.2324C46.3913 29.4342 46.5768 29.6263 46.8242 29.8086C47.0716 29.9844 47.3776 30.1504 47.7422 30.3066C48.1133 30.4564 48.543 30.6061 49.0312 30.7559C49.8125 30.9902 50.4961 31.2507 51.082 31.5371C51.6745 31.8236 52.166 32.1491 52.5566 32.5137C52.9538 32.8783 53.25 33.2884 53.4453 33.7441C53.6471 34.1999 53.748 34.7174 53.748 35.2969C53.748 35.9089 53.6276 36.4557 53.3867 36.9375C53.1458 37.4193 52.8008 37.8294 52.3516 38.168C51.9023 38.5065 51.362 38.7637 50.7305 38.9395C50.1055 39.1152 49.4056 39.2031 48.6309 39.2031C47.9408 39.2031 47.2572 39.112 46.5801 38.9297C45.9095 38.7409 45.3008 38.4609 44.7539 38.0898C44.207 37.7122 43.7708 37.237 43.4453 36.6641C43.1198 36.0846 42.957 35.4076 42.957 34.6328H45.6523C45.6523 35.082 45.724 35.4661 45.8672 35.7852C46.0169 36.0977 46.2253 36.3548 46.4922 36.5566C46.7656 36.752 47.0846 36.8952 47.4492 36.9863C47.8138 37.0775 48.2077 37.123 48.6309 37.123C49.1777 37.123 49.627 37.0482 49.9785 36.8984C50.3366 36.7422 50.6035 36.5273 50.7793 36.2539C50.9616 35.9805 51.0527 35.668 51.0527 35.3164ZM60.623 28.4414V30.2969H54.5684V28.4414H60.623ZM56.1895 25.8438H58.7773V35.9609C58.7773 36.2734 58.8197 36.5143 58.9043 36.6836C58.9889 36.8529 59.1159 36.9668 59.2852 37.0254C59.4544 37.084 59.6562 37.1133 59.8906 37.1133C60.0599 37.1133 60.2161 37.1035 60.3594 37.084C60.5026 37.0645 60.623 37.0449 60.7207 37.0254L60.7305 38.959C60.5156 39.0306 60.2715 39.0892 59.998 39.1348C59.7311 39.1803 59.4284 39.2031 59.0898 39.2031C58.5104 39.2031 58.0026 39.1055 57.5664 38.9102C57.1302 38.7083 56.7917 38.3861 56.5508 37.9434C56.3099 37.4941 56.1895 36.9017 56.1895 36.166V25.8438ZM64.9199 30.5996V39.0078H62.3418V28.4414H64.7832L64.9199 30.5996ZM68.1328 28.373L68.0938 30.7754C67.9505 30.7493 67.7878 30.7298 67.6055 30.7168C67.4297 30.7038 67.2637 30.6973 67.1074 30.6973C66.7103 30.6973 66.362 30.7526 66.0625 30.8633C65.763 30.9674 65.5124 31.1204 65.3105 31.3223C65.1152 31.5241 64.9655 31.7715 64.8613 32.0645C64.7572 32.3509 64.6986 32.6764 64.6855 33.041L64.1289 32.9727C64.1289 32.3021 64.1973 31.6803 64.334 31.1074C64.4707 30.5345 64.6693 30.0332 64.9297 29.6035C65.1901 29.1738 65.5156 28.8418 65.9062 28.6074C66.3034 28.3665 66.7591 28.2461 67.2734 28.2461C67.4167 28.2461 67.5697 28.2591 67.7324 28.2852C67.9017 28.3047 68.0352 28.334 68.1328 28.373ZM75.0371 36.7617V31.8887C75.0371 31.5306 74.9753 31.2214 74.8516 30.9609C74.7279 30.7005 74.5391 30.4987 74.2852 30.3555C74.0312 30.2122 73.709 30.1406 73.3184 30.1406C72.9733 30.1406 72.6706 30.1992 72.4102 30.3164C72.1562 30.4336 71.9609 30.5996 71.8242 30.8145C71.6875 31.0228 71.6191 31.2637 71.6191 31.5371H69.0312C69.0312 31.1009 69.1354 30.6875 69.3438 30.2969C69.5521 29.8997 69.8483 29.5482 70.2324 29.2422C70.623 28.9297 71.0885 28.6855 71.6289 28.5098C72.1758 28.334 72.7878 28.2461 73.4648 28.2461C74.2656 28.2461 74.9785 28.3828 75.6035 28.6562C76.235 28.9232 76.7298 29.3268 77.0879 29.8672C77.4525 30.4076 77.6348 31.0879 77.6348 31.9082V36.5176C77.6348 37.0449 77.6673 37.4974 77.7324 37.875C77.804 38.2461 77.9082 38.5684 78.0449 38.8418V39.0078H75.418C75.2943 38.7409 75.1999 38.4023 75.1348 37.9922C75.0697 37.5755 75.0371 37.1654 75.0371 36.7617ZM75.3984 32.5723L75.418 34.1055H73.7871C73.3835 34.1055 73.0286 34.1478 72.7227 34.2324C72.4167 34.3105 72.166 34.4277 71.9707 34.584C71.7754 34.7337 71.6289 34.916 71.5312 35.1309C71.4336 35.3392 71.3848 35.5768 71.3848 35.8438C71.3848 36.1042 71.4434 36.3385 71.5605 36.5469C71.6842 36.7552 71.86 36.9212 72.0879 37.0449C72.3223 37.1621 72.5957 37.2207 72.9082 37.2207C73.3639 37.2207 73.7611 37.1296 74.0996 36.9473C74.4382 36.7585 74.7018 36.5306 74.8906 36.2637C75.0794 35.9967 75.1803 35.7428 75.1934 35.502L75.9355 36.6152C75.8444 36.8822 75.7077 37.1654 75.5254 37.4648C75.3431 37.7643 75.1087 38.0443 74.8223 38.3047C74.5358 38.5651 74.1908 38.7799 73.7871 38.9492C73.3835 39.1185 72.9147 39.2031 72.3809 39.2031C71.6973 39.2031 71.0853 39.0664 70.5449 38.793C70.0046 38.5195 69.5781 38.1452 69.2656 37.6699C68.9531 37.1947 68.7969 36.6543 68.7969 36.0488C68.7969 35.4889 68.901 34.9941 69.1094 34.5645C69.3177 34.1348 69.627 33.7734 70.0371 33.4805C70.4473 33.181 70.9551 32.9564 71.5605 32.8066C72.1725 32.6504 72.8724 32.5723 73.6602 32.5723H75.3984ZM84.959 28.4414V30.2969H78.9043V28.4414H84.959ZM80.5254 25.8438H83.1133V35.9609C83.1133 36.2734 83.1556 36.5143 83.2402 36.6836C83.3249 36.8529 83.4518 36.9668 83.6211 37.0254C83.7904 37.084 83.9922 37.1133 84.2266 37.1133C84.3958 37.1133 84.5521 37.1035 84.6953 37.084C84.8385 37.0645 84.959 37.0449 85.0566 37.0254L85.0664 38.959C84.8516 39.0306 84.6074 39.0892 84.334 39.1348C84.0671 39.1803 83.7643 39.2031 83.4258 39.2031C82.8464 39.2031 82.3385 39.1055 81.9023 38.9102C81.4661 38.7083 81.1276 38.3861 80.8867 37.9434C80.6458 37.4941 80.5254 36.9017 80.5254 36.166V25.8438ZM91.4238 39.2031C90.623 39.2031 89.9036 39.0729 89.2656 38.8125C88.6276 38.5521 88.084 38.1908 87.6348 37.7285C87.1921 37.2598 86.8503 36.7161 86.6094 36.0977C86.375 35.4727 86.2578 34.8021 86.2578 34.0859V33.6953C86.2578 32.8815 86.375 32.1426 86.6094 31.4785C86.8438 30.8079 87.1758 30.2318 87.6055 29.75C88.0352 29.2682 88.5495 28.8971 89.1484 28.6367C89.7474 28.3763 90.4082 28.2461 91.1309 28.2461C91.8796 28.2461 92.5404 28.373 93.1133 28.627C93.6862 28.8743 94.1647 29.2259 94.5488 29.6816C94.9329 30.1374 95.2227 30.6842 95.418 31.3223C95.6133 31.9538 95.7109 32.6536 95.7109 33.4219V34.5059H87.4297V32.7285H93.1719V32.5332C93.1589 32.123 93.0807 31.7487 92.9375 31.4102C92.7943 31.0651 92.5729 30.7917 92.2734 30.5898C91.974 30.3815 91.5866 30.2773 91.1113 30.2773C90.7272 30.2773 90.3919 30.362 90.1055 30.5312C89.8255 30.694 89.5911 30.9284 89.4023 31.2344C89.2201 31.5339 89.0833 31.8919 88.9922 32.3086C88.901 32.7253 88.8555 33.1875 88.8555 33.6953V34.0859C88.8555 34.5286 88.9141 34.9388 89.0312 35.3164C89.1549 35.694 89.334 36.0228 89.5684 36.3027C89.8092 36.5762 90.0957 36.791 90.4277 36.9473C90.7663 37.097 91.1504 37.1719 91.5801 37.1719C92.1204 37.1719 92.6087 37.0677 93.0449 36.8594C93.4876 36.6445 93.8717 36.3288 94.1973 35.9121L95.4961 37.2598C95.2747 37.5853 94.9753 37.8978 94.5977 38.1973C94.2266 38.4967 93.7773 38.7409 93.25 38.9297C92.7227 39.112 92.1139 39.2031 91.4238 39.2031ZM104.158 28.4414H106.502V38.6855C106.502 39.6426 106.294 40.4531 105.877 41.1172C105.467 41.7878 104.891 42.2956 104.148 42.6406C103.406 42.9922 102.544 43.168 101.561 43.168C101.137 43.168 100.678 43.1094 100.184 42.9922C99.6953 42.875 99.2233 42.6895 98.7676 42.4355C98.3184 42.1882 97.944 41.8659 97.6445 41.4688L98.8066 39.9453C99.1582 40.3555 99.5553 40.6647 99.998 40.873C100.441 41.0879 100.919 41.1953 101.434 41.1953C101.954 41.1953 102.397 41.0977 102.762 40.9023C103.133 40.7135 103.416 40.4336 103.611 40.0625C103.813 39.6979 103.914 39.2487 103.914 38.7148V30.8535L104.158 28.4414ZM97.0195 33.8516V33.6465C97.0195 32.8392 97.1172 32.1068 97.3125 31.4492C97.5078 30.7852 97.7878 30.2155 98.1523 29.7402C98.5234 29.265 98.9694 28.8971 99.4902 28.6367C100.018 28.3763 100.61 28.2461 101.268 28.2461C101.964 28.2461 102.55 28.373 103.025 28.627C103.507 28.8809 103.904 29.2422 104.217 29.7109C104.536 30.1797 104.783 30.7363 104.959 31.3809C105.141 32.0189 105.281 32.722 105.379 33.4902V34.0469C105.288 34.7956 105.141 35.4824 104.939 36.1074C104.744 36.7324 104.484 37.2793 104.158 37.748C103.833 38.2103 103.429 38.5684 102.947 38.8223C102.465 39.0762 101.899 39.2031 101.248 39.2031C100.597 39.2031 100.011 39.0697 99.4902 38.8027C98.9694 38.5358 98.5234 38.1615 98.1523 37.6797C97.7878 37.1979 97.5078 36.6315 97.3125 35.9805C97.1172 35.3294 97.0195 34.6198 97.0195 33.8516ZM99.5977 33.6465V33.8516C99.5977 34.3073 99.6432 34.7337 99.7344 35.1309C99.8255 35.528 99.9655 35.8796 100.154 36.1855C100.343 36.485 100.581 36.7194 100.867 36.8887C101.154 37.0579 101.495 37.1426 101.893 37.1426C102.426 37.1426 102.863 37.0319 103.201 36.8105C103.546 36.5827 103.807 36.2734 103.982 35.8828C104.165 35.4857 104.282 35.0397 104.334 34.5449V33.0117C104.301 32.6211 104.23 32.2598 104.119 31.9277C104.015 31.5957 103.868 31.3092 103.68 31.0684C103.491 30.8275 103.25 30.6387 102.957 30.502C102.664 30.3652 102.316 30.2969 101.912 30.2969C101.521 30.2969 101.18 30.3848 100.887 30.5605C100.594 30.7298 100.353 30.9674 100.164 31.2734C99.9753 31.5794 99.832 31.9342 99.7344 32.3379C99.6432 32.7415 99.5977 33.1777 99.5977 33.6465ZM111.922 37.8359L114.754 28.4414H117.518L113.279 40.6094C113.182 40.8698 113.055 41.153 112.898 41.459C112.749 41.765 112.547 42.0547 112.293 42.3281C112.039 42.6081 111.72 42.8359 111.336 43.0117C110.958 43.1875 110.499 43.2754 109.959 43.2754C109.725 43.2754 109.516 43.2591 109.334 43.2266C109.152 43.194 108.96 43.1517 108.758 43.0996V41.166C108.823 41.1725 108.898 41.1758 108.982 41.1758C109.074 41.1823 109.152 41.1855 109.217 41.1855C109.594 41.1855 109.907 41.14 110.154 41.0488C110.402 40.9642 110.6 40.8242 110.75 40.6289C110.906 40.4401 111.036 40.1927 111.141 39.8867L111.922 37.8359ZM110.525 28.4414L112.918 36.2246L113.338 38.9492L111.561 39.2715L107.742 28.4414H110.525Z" fill="#171717"/>
<path d="M22.9414 51.1934V51.9258C22.9414 53 22.7982 53.9668 22.5117 54.8262C22.2253 55.679 21.8184 56.4049 21.291 57.0039C20.7637 57.6029 20.1354 58.0618 19.4062 58.3809C18.6771 58.6999 17.8665 58.8594 16.9746 58.8594C16.0957 58.8594 15.2884 58.6999 14.5527 58.3809C13.8236 58.0618 13.1921 57.6029 12.6582 57.0039C12.1243 56.4049 11.7109 55.679 11.418 54.8262C11.125 53.9668 10.9785 53 10.9785 51.9258V51.1934C10.9785 50.1126 11.125 49.1458 11.418 48.293C11.7109 47.4401 12.1211 46.7142 12.6484 46.1152C13.1758 45.5098 13.804 45.0475 14.5332 44.7285C15.2689 44.4095 16.0762 44.25 16.9551 44.25C17.847 44.25 18.6576 44.4095 19.3867 44.7285C20.1159 45.0475 20.7441 45.5098 21.2715 46.1152C21.8053 46.7142 22.2155 47.4401 22.502 48.293C22.7949 49.1458 22.9414 50.1126 22.9414 51.1934ZM20.2266 51.9258V51.1738C20.2266 50.3991 20.1549 49.7188 20.0117 49.1328C19.8685 48.5404 19.6569 48.0423 19.377 47.6387C19.097 47.235 18.752 46.9323 18.3418 46.7305C17.9316 46.5221 17.4694 46.418 16.9551 46.418C16.4342 46.418 15.972 46.5221 15.5684 46.7305C15.1712 46.9323 14.8327 47.235 14.5527 47.6387C14.2728 48.0423 14.0579 48.5404 13.9082 49.1328C13.765 49.7188 13.6934 50.3991 13.6934 51.1738V51.9258C13.6934 52.694 13.765 53.3743 13.9082 53.9668C14.0579 54.5592 14.2728 55.0605 14.5527 55.4707C14.8392 55.8743 15.1842 56.1803 15.5879 56.3887C15.9915 56.597 16.4538 56.7012 16.9746 56.7012C17.4954 56.7012 17.9577 56.597 18.3613 56.3887C18.765 56.1803 19.1035 55.8743 19.377 55.4707C19.6569 55.0605 19.8685 54.5592 20.0117 53.9668C20.1549 53.3743 20.2266 52.694 20.2266 51.9258ZM27.5996 50.1289V62.7266H25.0117V48.0977H27.4043L27.5996 50.1289ZM34.3867 53.2734V53.4785C34.3867 54.2467 34.2956 54.9596 34.1133 55.6172C33.9375 56.2682 33.6771 56.8379 33.332 57.3262C32.987 57.8079 32.5573 58.1855 32.043 58.459C31.5352 58.7259 30.9492 58.8594 30.2852 58.8594C29.6341 58.8594 29.0677 58.7357 28.5859 58.4883C28.1042 58.2344 27.6973 57.8763 27.3652 57.4141C27.0332 56.9518 26.7663 56.4147 26.5645 55.8027C26.3691 55.1842 26.2227 54.5104 26.125 53.7812V53.127C26.2227 52.3522 26.3691 51.6491 26.5645 51.0176C26.7663 50.3796 27.0332 49.8294 27.3652 49.3672C27.6973 48.8984 28.1009 48.5371 28.5762 48.2832C29.0579 48.0293 29.6211 47.9023 30.2656 47.9023C30.9362 47.9023 31.5254 48.0293 32.0332 48.2832C32.5475 48.5371 32.9805 48.9017 33.332 49.377C33.6836 49.8522 33.9473 50.4186 34.123 51.0762C34.2988 51.7337 34.3867 52.4661 34.3867 53.2734ZM31.7988 53.4785V53.2734C31.7988 52.8047 31.7565 52.3717 31.6719 51.9746C31.5872 51.571 31.457 51.2194 31.2812 50.9199C31.1055 50.6139 30.8776 50.3763 30.5977 50.207C30.3177 50.0378 29.9792 49.9531 29.582 49.9531C29.1849 49.9531 28.8431 50.0182 28.5566 50.1484C28.2702 50.2786 28.0358 50.4642 27.8535 50.7051C27.6712 50.946 27.528 51.2324 27.4238 51.5645C27.3262 51.89 27.2611 52.2513 27.2285 52.6484V54.2695C27.2871 54.7513 27.401 55.1842 27.5703 55.5684C27.7396 55.9525 27.987 56.2585 28.3125 56.4863C28.6445 56.7142 29.0742 56.8281 29.6016 56.8281C29.9987 56.8281 30.3372 56.7402 30.6172 56.5645C30.8971 56.3887 31.125 56.1478 31.3008 55.8418C31.4766 55.5293 31.6035 55.1712 31.6816 54.7676C31.7598 54.3639 31.7988 53.9342 31.7988 53.4785ZM41.2715 48.0977V49.9531H35.2168V48.0977H41.2715ZM36.8379 45.5H39.4258V55.6172C39.4258 55.9297 39.4681 56.1706 39.5527 56.3398C39.6374 56.5091 39.7643 56.623 39.9336 56.6816C40.1029 56.7402 40.3047 56.7695 40.5391 56.7695C40.7083 56.7695 40.8646 56.7598 41.0078 56.7402C41.151 56.7207 41.2715 56.7012 41.3691 56.6816L41.3789 58.6152C41.1641 58.6868 40.9199 58.7454 40.6465 58.791C40.3796 58.8366 40.0768 58.8594 39.7383 58.8594C39.1589 58.8594 38.651 58.7617 38.2148 58.5664C37.7786 58.3646 37.4401 58.0423 37.1992 57.5996C36.9583 57.1504 36.8379 56.5579 36.8379 55.8223V45.5ZM45.7246 48.0977V58.6641H43.1367V48.0977H45.7246ZM42.9609 45.334C42.9609 44.9499 43.0911 44.6309 43.3516 44.377C43.6185 44.123 43.9766 43.9961 44.4258 43.9961C44.875 43.9961 45.2298 44.123 45.4902 44.377C45.7572 44.6309 45.8906 44.9499 45.8906 45.334C45.8906 45.7116 45.7572 46.0273 45.4902 46.2812C45.2298 46.5352 44.875 46.6621 44.4258 46.6621C43.9766 46.6621 43.6185 46.5352 43.3516 46.2812C43.0911 46.0273 42.9609 45.7116 42.9609 45.334ZM50.7539 50.2656V58.6641H48.1758V48.0977H50.6074L50.7539 50.2656ZM50.373 53H49.582C49.582 52.2643 49.6699 51.5872 49.8457 50.9688C50.028 50.3503 50.2949 49.8132 50.6465 49.3574C50.998 48.8952 51.431 48.5371 51.9453 48.2832C52.4661 48.0293 53.0684 47.9023 53.752 47.9023C54.2272 47.9023 54.6634 47.974 55.0605 48.1172C55.4577 48.2539 55.7995 48.472 56.0859 48.7715C56.3789 49.0645 56.6035 49.4486 56.7598 49.9238C56.916 50.3926 56.9941 50.9557 56.9941 51.6133V58.6641H54.416V51.877C54.416 51.3822 54.3444 50.9948 54.2012 50.7148C54.0645 50.4349 53.8659 50.2396 53.6055 50.1289C53.3451 50.0117 53.0326 49.9531 52.668 49.9531C52.2643 49.9531 51.916 50.0345 51.623 50.1973C51.3366 50.3535 51.099 50.5716 50.9102 50.8516C50.7279 51.1315 50.5911 51.4538 50.5 51.8184C50.4154 52.1829 50.373 52.5768 50.373 53ZM56.7988 52.5215L55.7344 52.7168C55.7409 52.0527 55.832 51.431 56.0078 50.8516C56.1836 50.2656 56.4408 49.7546 56.7793 49.3184C57.1243 48.8757 57.5508 48.5306 58.0586 48.2832C58.5729 48.0293 59.1654 47.9023 59.8359 47.9023C60.3568 47.9023 60.8255 47.9772 61.2422 48.127C61.6654 48.2702 62.0267 48.5013 62.3262 48.8203C62.6257 49.1328 62.8535 49.5397 63.0098 50.041C63.1725 50.5423 63.2539 51.1543 63.2539 51.877V58.6641H60.6562V51.8672C60.6562 51.3529 60.5846 50.959 60.4414 50.6855C60.3047 50.4121 60.1061 50.2233 59.8457 50.1191C59.5853 50.0085 59.2793 49.9531 58.9277 49.9531C58.5697 49.9531 58.2572 50.0215 57.9902 50.1582C57.7298 50.2884 57.5085 50.4707 57.3262 50.7051C57.1504 50.9395 57.0169 51.2129 56.9258 51.5254C56.8411 51.8314 56.7988 52.1634 56.7988 52.5215ZM68.3027 48.0977V58.6641H65.7148V48.0977H68.3027ZM65.5391 45.334C65.5391 44.9499 65.6693 44.6309 65.9297 44.377C66.1966 44.123 66.5547 43.9961 67.0039 43.9961C67.4531 43.9961 67.8079 44.123 68.0684 44.377C68.3353 44.6309 68.4688 44.9499 68.4688 45.334C68.4688 45.7116 68.3353 46.0273 68.0684 46.2812C67.8079 46.5352 67.4531 46.6621 67.0039 46.6621C66.5547 46.6621 66.1966 46.5352 65.9297 46.2812C65.6693 46.0273 65.5391 45.7116 65.5391 45.334ZM79.0449 56.6328V58.6641H71.0957V56.6328H79.0449ZM78.8594 49.6406L72.0625 58.6641H70.3633V57.0723L77.1211 48.0977H78.8594V49.6406ZM77.9121 48.0977V50.1387H70.5V48.0977H77.9121ZM86.7012 56.418V51.5449C86.7012 51.1868 86.6393 50.8776 86.5156 50.6172C86.3919 50.3568 86.2031 50.1549 85.9492 50.0117C85.6953 49.8685 85.373 49.7969 84.9824 49.7969C84.6374 49.7969 84.3346 49.8555 84.0742 49.9727C83.8203 50.0898 83.625 50.2559 83.4883 50.4707C83.3516 50.679 83.2832 50.9199 83.2832 51.1934H80.6953C80.6953 50.7572 80.7995 50.3438 81.0078 49.9531C81.2161 49.556 81.5124 49.2044 81.8965 48.8984C82.2871 48.5859 82.7526 48.3418 83.293 48.166C83.8398 47.9902 84.4518 47.9023 85.1289 47.9023C85.9297 47.9023 86.6426 48.0391 87.2676 48.3125C87.8991 48.5794 88.3939 48.9831 88.752 49.5234C89.1165 50.0638 89.2988 50.7441 89.2988 51.5645V56.1738C89.2988 56.7012 89.3314 57.1536 89.3965 57.5312C89.4681 57.9023 89.5723 58.2246 89.709 58.498V58.6641H87.082C86.9583 58.3971 86.8639 58.0586 86.7988 57.6484C86.7337 57.2318 86.7012 56.8216 86.7012 56.418ZM87.0625 52.2285L87.082 53.7617H85.4512C85.0475 53.7617 84.6927 53.804 84.3867 53.8887C84.0807 53.9668 83.8301 54.084 83.6348 54.2402C83.4395 54.39 83.293 54.5723 83.1953 54.7871C83.0977 54.9954 83.0488 55.2331 83.0488 55.5C83.0488 55.7604 83.1074 55.9948 83.2246 56.2031C83.3483 56.4115 83.5241 56.5775 83.752 56.7012C83.9863 56.8184 84.2598 56.877 84.5723 56.877C85.028 56.877 85.4251 56.7858 85.7637 56.6035C86.1022 56.4147 86.3659 56.1868 86.5547 55.9199C86.7435 55.653 86.8444 55.3991 86.8574 55.1582L87.5996 56.2715C87.5085 56.5384 87.3717 56.8216 87.1895 57.1211C87.0072 57.4206 86.7728 57.7005 86.4863 57.9609C86.1999 58.2214 85.8548 58.4362 85.4512 58.6055C85.0475 58.7747 84.5788 58.8594 84.0449 58.8594C83.3613 58.8594 82.7493 58.7227 82.209 58.4492C81.6686 58.1758 81.2422 57.8014 80.9297 57.3262C80.6172 56.8509 80.4609 56.3105 80.4609 55.7051C80.4609 55.1452 80.5651 54.6504 80.7734 54.2207C80.9818 53.791 81.291 53.4297 81.7012 53.1367C82.1113 52.8372 82.6191 52.6126 83.2246 52.4629C83.8366 52.3066 84.5365 52.2285 85.3242 52.2285H87.0625ZM96.623 48.0977V49.9531H90.5684V48.0977H96.623ZM92.1895 45.5H94.7773V55.6172C94.7773 55.9297 94.8197 56.1706 94.9043 56.3398C94.9889 56.5091 95.1159 56.623 95.2852 56.6816C95.4544 56.7402 95.6562 56.7695 95.8906 56.7695C96.0599 56.7695 96.2161 56.7598 96.3594 56.7402C96.5026 56.7207 96.623 56.7012 96.7207 56.6816L96.7305 58.6152C96.5156 58.6868 96.2715 58.7454 95.998 58.791C95.7311 58.8366 95.4284 58.8594 95.0898 58.8594C94.5104 58.8594 94.0026 58.7617 93.5664 58.5664C93.1302 58.3646 92.7917 58.0423 92.5508 57.5996C92.3099 57.1504 92.1895 56.5579 92.1895 55.8223V45.5ZM101.076 48.0977V58.6641H98.4883V48.0977H101.076ZM98.3125 45.334C98.3125 44.9499 98.4427 44.6309 98.7031 44.377C98.9701 44.123 99.3281 43.9961 99.7773 43.9961C100.227 43.9961 100.581 44.123 100.842 44.377C101.109 44.6309 101.242 44.9499 101.242 45.334C101.242 45.7116 101.109 46.0273 100.842 46.2812C100.581 46.5352 100.227 46.6621 99.7773 46.6621C99.3281 46.6621 98.9701 46.5352 98.7031 46.2812C98.4427 46.0273 98.3125 45.7116 98.3125 45.334ZM103.078 53.4883V53.2832C103.078 52.5085 103.189 51.7956 103.41 51.1445C103.632 50.487 103.954 49.9173 104.377 49.4355C104.8 48.9538 105.318 48.5794 105.93 48.3125C106.542 48.0391 107.238 47.9023 108.02 47.9023C108.814 47.9023 109.517 48.0391 110.129 48.3125C110.747 48.5794 111.268 48.9538 111.691 49.4355C112.115 49.9173 112.437 50.487 112.658 51.1445C112.88 51.7956 112.99 52.5085 112.99 53.2832V53.4883C112.99 54.2565 112.88 54.9694 112.658 55.627C112.437 56.278 112.115 56.8477 111.691 57.3359C111.268 57.8177 110.751 58.1921 110.139 58.459C109.527 58.7259 108.827 58.8594 108.039 58.8594C107.258 58.8594 106.558 58.7259 105.939 58.459C105.321 58.1921 104.8 57.8177 104.377 57.3359C103.954 56.8477 103.632 56.278 103.41 55.627C103.189 54.9694 103.078 54.2565 103.078 53.4883ZM105.656 53.2832V53.4883C105.656 53.9505 105.702 54.3835 105.793 54.7871C105.884 55.1908 106.024 55.5456 106.213 55.8516C106.402 56.1576 106.646 56.3984 106.945 56.5742C107.251 56.7435 107.616 56.8281 108.039 56.8281C108.456 56.8281 108.814 56.7435 109.113 56.5742C109.413 56.3984 109.657 56.1576 109.846 55.8516C110.041 55.5456 110.184 55.1908 110.275 54.7871C110.367 54.3835 110.412 53.9505 110.412 53.4883V53.2832C110.412 52.8275 110.367 52.401 110.275 52.0039C110.184 51.6003 110.041 51.2454 109.846 50.9395C109.657 50.627 109.41 50.3828 109.104 50.207C108.804 50.0247 108.443 49.9336 108.02 49.9336C107.603 49.9336 107.245 50.0247 106.945 50.207C106.646 50.3828 106.402 50.627 106.213 50.9395C106.024 51.2454 105.884 51.6003 105.793 52.0039C105.702 52.401 105.656 52.8275 105.656 53.2832ZM117.395 50.3535V58.6641H114.816V48.0977H117.238L117.395 50.3535ZM116.984 53H116.223C116.229 52.2318 116.333 51.5352 116.535 50.9102C116.737 50.2852 117.02 49.748 117.385 49.2988C117.756 48.8496 118.195 48.5046 118.703 48.2637C119.211 48.0228 119.777 47.9023 120.402 47.9023C120.91 47.9023 121.369 47.974 121.779 48.1172C122.189 48.2604 122.541 48.4883 122.834 48.8008C123.133 49.1133 123.361 49.5234 123.518 50.0312C123.68 50.5326 123.762 51.151 123.762 51.8867V58.6641H121.164V51.8672C121.164 51.3854 121.092 51.0046 120.949 50.7246C120.812 50.4447 120.611 50.2461 120.344 50.1289C120.083 50.0117 119.761 49.9531 119.377 49.9531C118.98 49.9531 118.632 50.0345 118.332 50.1973C118.039 50.3535 117.792 50.5716 117.59 50.8516C117.395 51.1315 117.245 51.4538 117.141 51.8184C117.036 52.1829 116.984 52.5768 116.984 53Z" fill="#171717"/>
<path d="M499.906 272.873L503.695 275.881L501.977 277.375L498.246 274.387L499.906 272.873ZM503.764 267.404V268.137C503.764 269.211 503.62 270.178 503.334 271.037C503.048 271.89 502.637 272.616 502.104 273.215C501.576 273.814 500.948 274.273 500.219 274.592C499.49 274.911 498.682 275.07 497.797 275.07C496.918 275.07 496.111 274.911 495.375 274.592C494.646 274.273 494.014 273.814 493.48 273.215C492.947 272.616 492.533 271.89 492.24 271.037C491.947 270.178 491.801 269.211 491.801 268.137V267.404C491.801 266.324 491.944 265.357 492.23 264.504C492.523 263.651 492.934 262.925 493.461 262.326C493.995 261.721 494.626 261.258 495.355 260.939C496.091 260.62 496.898 260.461 497.777 260.461C498.663 260.461 499.47 260.62 500.199 260.939C500.935 261.258 501.566 261.721 502.094 262.326C502.628 262.925 503.038 263.651 503.324 264.504C503.617 265.357 503.764 266.324 503.764 267.404ZM501.049 268.137V267.385C501.049 266.61 500.977 265.93 500.834 265.344C500.691 264.751 500.476 264.253 500.189 263.85C499.91 263.446 499.568 263.143 499.164 262.941C498.76 262.733 498.298 262.629 497.777 262.629C497.263 262.629 496.804 262.733 496.4 262.941C495.997 263.143 495.655 263.446 495.375 263.85C495.095 264.253 494.88 264.751 494.73 265.344C494.587 265.93 494.516 266.61 494.516 267.385V268.137C494.516 268.905 494.587 269.585 494.73 270.178C494.88 270.77 495.095 271.271 495.375 271.682C495.661 272.085 496.007 272.391 496.41 272.6C496.82 272.808 497.283 272.912 497.797 272.912C498.318 272.912 498.78 272.808 499.184 272.6C499.587 272.391 499.926 272.085 500.199 271.682C500.479 271.271 500.691 270.77 500.834 270.178C500.977 269.585 501.049 268.905 501.049 268.137ZM512.162 272.365V264.309H514.76V274.875H512.318L512.162 272.365ZM512.494 270.178L513.295 270.158C513.295 270.868 513.217 271.522 513.061 272.121C512.904 272.72 512.66 273.241 512.328 273.684C512.003 274.12 511.589 274.462 511.088 274.709C510.587 274.95 509.994 275.07 509.311 275.07C508.79 275.07 508.314 274.999 507.885 274.855C507.455 274.706 507.084 274.475 506.771 274.162C506.465 273.843 506.228 273.436 506.059 272.941C505.889 272.44 505.805 271.838 505.805 271.135V264.309H508.383V271.154C508.383 271.506 508.422 271.799 508.5 272.033C508.585 272.268 508.699 272.46 508.842 272.609C508.992 272.753 509.164 272.857 509.359 272.922C509.561 272.98 509.776 273.01 510.004 273.01C510.629 273.01 511.12 272.886 511.479 272.639C511.843 272.385 512.104 272.046 512.26 271.623C512.416 271.193 512.494 270.712 512.494 270.178ZM519.779 264.309V274.875H517.191V264.309H519.779ZM517.016 261.545C517.016 261.161 517.146 260.842 517.406 260.588C517.673 260.334 518.031 260.207 518.48 260.207C518.93 260.207 519.285 260.334 519.545 260.588C519.812 260.842 519.945 261.161 519.945 261.545C519.945 261.923 519.812 262.238 519.545 262.492C519.285 262.746 518.93 262.873 518.48 262.873C518.031 262.873 517.673 262.746 517.406 262.492C517.146 262.238 517.016 261.923 517.016 261.545ZM526.576 273.039C526.941 273.039 527.266 272.967 527.553 272.824C527.839 272.681 528.067 272.479 528.236 272.219C528.412 271.958 528.507 271.656 528.52 271.311H530.951C530.938 272.027 530.736 272.668 530.346 273.234C529.955 273.801 529.434 274.25 528.783 274.582C528.139 274.908 527.416 275.07 526.615 275.07C525.801 275.07 525.092 274.934 524.486 274.66C523.881 274.387 523.376 274.006 522.973 273.518C522.576 273.029 522.276 272.463 522.074 271.818C521.879 271.174 521.781 270.484 521.781 269.748V269.436C521.781 268.7 521.879 268.01 522.074 267.365C522.276 266.721 522.576 266.154 522.973 265.666C523.376 265.178 523.881 264.797 524.486 264.523C525.092 264.25 525.798 264.113 526.605 264.113C527.458 264.113 528.207 264.279 528.852 264.611C529.503 264.943 530.01 265.412 530.375 266.018C530.746 266.623 530.938 267.336 530.951 268.156H528.52C528.507 267.779 528.422 267.44 528.266 267.141C528.109 266.841 527.888 266.6 527.602 266.418C527.315 266.236 526.967 266.145 526.557 266.145C526.12 266.145 525.756 266.236 525.463 266.418C525.176 266.6 524.952 266.851 524.789 267.17C524.633 267.482 524.522 267.834 524.457 268.225C524.398 268.609 524.369 269.012 524.369 269.436V269.748C524.369 270.178 524.398 270.588 524.457 270.979C524.522 271.369 524.633 271.721 524.789 272.033C524.952 272.339 525.176 272.583 525.463 272.766C525.756 272.948 526.127 273.039 526.576 273.039ZM535.248 259.865V274.875H532.67V259.865H535.248ZM541.869 264.309L537.27 269.475L534.779 272.004L533.959 270.002L535.883 267.58L538.754 264.309H541.869ZM539.232 274.875L535.961 269.953L537.68 268.283L542.221 274.875H539.232ZM554.027 260.656V274.875H551.352V260.656H554.027ZM558.441 260.656V262.775H546.986V260.656H558.441ZM563.861 275.07C563.061 275.07 562.341 274.94 561.703 274.68C561.065 274.419 560.521 274.058 560.072 273.596C559.63 273.127 559.288 272.583 559.047 271.965C558.812 271.34 558.695 270.669 558.695 269.953V269.562C558.695 268.749 558.812 268.01 559.047 267.346C559.281 266.675 559.613 266.099 560.043 265.617C560.473 265.135 560.987 264.764 561.586 264.504C562.185 264.243 562.846 264.113 563.568 264.113C564.317 264.113 564.978 264.24 565.551 264.494C566.124 264.742 566.602 265.093 566.986 265.549C567.37 266.005 567.66 266.551 567.855 267.189C568.051 267.821 568.148 268.521 568.148 269.289V270.373H559.867V268.596H565.609V268.4C565.596 267.99 565.518 267.616 565.375 267.277C565.232 266.932 565.01 266.659 564.711 266.457C564.411 266.249 564.024 266.145 563.549 266.145C563.165 266.145 562.829 266.229 562.543 266.398C562.263 266.561 562.029 266.796 561.84 267.102C561.658 267.401 561.521 267.759 561.43 268.176C561.339 268.592 561.293 269.055 561.293 269.562V269.953C561.293 270.396 561.352 270.806 561.469 271.184C561.592 271.561 561.771 271.89 562.006 272.17C562.247 272.443 562.533 272.658 562.865 272.814C563.204 272.964 563.588 273.039 564.018 273.039C564.558 273.039 565.046 272.935 565.482 272.727C565.925 272.512 566.309 272.196 566.635 271.779L567.934 273.127C567.712 273.452 567.413 273.765 567.035 274.064C566.664 274.364 566.215 274.608 565.688 274.797C565.16 274.979 564.551 275.07 563.861 275.07ZM575.688 271.984C575.688 271.763 575.629 271.564 575.512 271.389C575.395 271.213 575.173 271.053 574.848 270.91C574.529 270.76 574.06 270.62 573.441 270.49C572.895 270.373 572.39 270.227 571.928 270.051C571.465 269.875 571.068 269.663 570.736 269.416C570.404 269.162 570.144 268.866 569.955 268.527C569.773 268.182 569.682 267.785 569.682 267.336C569.682 266.9 569.776 266.49 569.965 266.105C570.154 265.715 570.427 265.373 570.785 265.08C571.143 264.781 571.579 264.546 572.094 264.377C572.608 264.201 573.188 264.113 573.832 264.113C574.73 264.113 575.502 264.26 576.146 264.553C576.798 264.846 577.296 265.249 577.641 265.764C577.986 266.271 578.158 266.844 578.158 267.482H575.58C575.58 267.202 575.515 266.949 575.385 266.721C575.261 266.493 575.069 266.311 574.809 266.174C574.548 266.031 574.219 265.959 573.822 265.959C573.464 265.959 573.161 266.018 572.914 266.135C572.673 266.252 572.491 266.405 572.367 266.594C572.243 266.783 572.182 266.991 572.182 267.219C572.182 267.388 572.214 267.541 572.279 267.678C572.351 267.808 572.465 267.928 572.621 268.039C572.777 268.15 572.989 268.251 573.256 268.342C573.529 268.433 573.865 268.521 574.262 268.605C575.049 268.762 575.736 268.97 576.322 269.23C576.915 269.484 577.377 269.823 577.709 270.246C578.041 270.669 578.207 271.21 578.207 271.867C578.207 272.336 578.106 272.766 577.904 273.156C577.702 273.54 577.41 273.876 577.025 274.162C576.641 274.449 576.182 274.673 575.648 274.836C575.115 274.992 574.512 275.07 573.842 275.07C572.872 275.07 572.051 274.898 571.381 274.553C570.71 274.201 570.202 273.758 569.857 273.225C569.512 272.684 569.34 272.124 569.34 271.545H571.811C571.83 271.955 571.941 272.284 572.143 272.531C572.344 272.779 572.598 272.958 572.904 273.068C573.217 273.173 573.546 273.225 573.891 273.225C574.281 273.225 574.61 273.173 574.877 273.068C575.144 272.958 575.346 272.811 575.482 272.629C575.619 272.44 575.688 272.225 575.688 271.984ZM585.17 264.309V266.164H579.115V264.309H585.17ZM580.736 261.711H583.324V271.828C583.324 272.141 583.367 272.382 583.451 272.551C583.536 272.72 583.663 272.834 583.832 272.893C584.001 272.951 584.203 272.98 584.438 272.98C584.607 272.98 584.763 272.971 584.906 272.951C585.049 272.932 585.17 272.912 585.268 272.893L585.277 274.826C585.062 274.898 584.818 274.956 584.545 275.002C584.278 275.048 583.975 275.07 583.637 275.07C583.057 275.07 582.549 274.973 582.113 274.777C581.677 274.576 581.339 274.253 581.098 273.811C580.857 273.361 580.736 272.769 580.736 272.033V261.711ZM589.623 264.309V274.875H587.035V264.309H589.623ZM586.859 261.545C586.859 261.161 586.99 260.842 587.25 260.588C587.517 260.334 587.875 260.207 588.324 260.207C588.773 260.207 589.128 260.334 589.389 260.588C589.656 260.842 589.789 261.161 589.789 261.545C589.789 261.923 589.656 262.238 589.389 262.492C589.128 262.746 588.773 262.873 588.324 262.873C587.875 262.873 587.517 262.746 587.25 262.492C586.99 262.238 586.859 261.923 586.859 261.545ZM594.613 266.564V274.875H592.035V264.309H594.457L594.613 266.564ZM594.203 269.211H593.441C593.448 268.443 593.552 267.746 593.754 267.121C593.956 266.496 594.239 265.959 594.604 265.51C594.975 265.061 595.414 264.715 595.922 264.475C596.43 264.234 596.996 264.113 597.621 264.113C598.129 264.113 598.588 264.185 598.998 264.328C599.408 264.471 599.76 264.699 600.053 265.012C600.352 265.324 600.58 265.734 600.736 266.242C600.899 266.743 600.98 267.362 600.98 268.098V274.875H598.383V268.078C598.383 267.596 598.311 267.215 598.168 266.936C598.031 266.656 597.829 266.457 597.562 266.34C597.302 266.223 596.98 266.164 596.596 266.164C596.199 266.164 595.85 266.245 595.551 266.408C595.258 266.564 595.01 266.783 594.809 267.062C594.613 267.342 594.464 267.665 594.359 268.029C594.255 268.394 594.203 268.788 594.203 269.211ZM609.975 264.309H612.318V274.553C612.318 275.51 612.11 276.32 611.693 276.984C611.283 277.655 610.707 278.163 609.965 278.508C609.223 278.859 608.36 279.035 607.377 279.035C606.954 279.035 606.495 278.977 606 278.859C605.512 278.742 605.04 278.557 604.584 278.303C604.135 278.055 603.76 277.733 603.461 277.336L604.623 275.812C604.975 276.223 605.372 276.532 605.814 276.74C606.257 276.955 606.736 277.062 607.25 277.062C607.771 277.062 608.214 276.965 608.578 276.77C608.949 276.581 609.232 276.301 609.428 275.93C609.63 275.565 609.73 275.116 609.73 274.582V266.721L609.975 264.309ZM602.836 269.719V269.514C602.836 268.706 602.934 267.974 603.129 267.316C603.324 266.652 603.604 266.083 603.969 265.607C604.34 265.132 604.786 264.764 605.307 264.504C605.834 264.243 606.426 264.113 607.084 264.113C607.781 264.113 608.367 264.24 608.842 264.494C609.324 264.748 609.721 265.109 610.033 265.578C610.352 266.047 610.6 266.604 610.775 267.248C610.958 267.886 611.098 268.589 611.195 269.357V269.914C611.104 270.663 610.958 271.35 610.756 271.975C610.561 272.6 610.3 273.146 609.975 273.615C609.649 274.077 609.245 274.436 608.764 274.689C608.282 274.943 607.715 275.07 607.064 275.07C606.413 275.07 605.827 274.937 605.307 274.67C604.786 274.403 604.34 274.029 603.969 273.547C603.604 273.065 603.324 272.499 603.129 271.848C602.934 271.197 602.836 270.487 602.836 269.719ZM605.414 269.514V269.719C605.414 270.174 605.46 270.601 605.551 270.998C605.642 271.395 605.782 271.747 605.971 272.053C606.16 272.352 606.397 272.587 606.684 272.756C606.97 272.925 607.312 273.01 607.709 273.01C608.243 273.01 608.679 272.899 609.018 272.678C609.363 272.45 609.623 272.141 609.799 271.75C609.981 271.353 610.098 270.907 610.15 270.412V268.879C610.118 268.488 610.046 268.127 609.936 267.795C609.831 267.463 609.685 267.176 609.496 266.936C609.307 266.695 609.066 266.506 608.773 266.369C608.48 266.232 608.132 266.164 607.729 266.164C607.338 266.164 606.996 266.252 606.703 266.428C606.41 266.597 606.169 266.835 605.98 267.141C605.792 267.447 605.648 267.801 605.551 268.205C605.46 268.609 605.414 269.045 605.414 269.514Z" fill="#171717"/>
<path d="M35.2891 309.361L31.2363 321.422H28.3945L33.707 307.203H35.5234L35.2891 309.361ZM38.6777 321.422L34.6055 309.361L34.3613 307.203H36.1875L41.5293 321.422H38.6777ZM38.4922 316.139V318.258H30.8652V316.139H38.4922ZM48.9707 318.912V310.855H51.5684V321.422H49.127L48.9707 318.912ZM49.3027 316.725L50.1035 316.705C50.1035 317.415 50.0254 318.069 49.8691 318.668C49.7129 319.267 49.4688 319.788 49.1367 320.23C48.8112 320.667 48.3978 321.008 47.8965 321.256C47.3952 321.497 46.8027 321.617 46.1191 321.617C45.5983 321.617 45.123 321.546 44.6934 321.402C44.2637 321.253 43.8926 321.021 43.5801 320.709C43.2741 320.39 43.0365 319.983 42.8672 319.488C42.6979 318.987 42.6133 318.385 42.6133 317.682V310.855H45.1914V317.701C45.1914 318.053 45.2305 318.346 45.3086 318.58C45.3932 318.814 45.5072 319.007 45.6504 319.156C45.8001 319.299 45.9727 319.404 46.168 319.469C46.3698 319.527 46.5846 319.557 46.8125 319.557C47.4375 319.557 47.929 319.433 48.2871 319.186C48.6517 318.932 48.9121 318.593 49.0684 318.17C49.2246 317.74 49.3027 317.258 49.3027 316.725ZM60.1914 319.176V306.422H62.7891V321.422H60.4453L60.1914 319.176ZM53.4043 316.266V316.061C53.4043 315.253 53.4954 314.521 53.6777 313.863C53.8665 313.199 54.14 312.63 54.498 312.154C54.8561 311.679 55.2891 311.311 55.7969 311.051C56.3112 310.79 56.8939 310.66 57.5449 310.66C58.1764 310.66 58.7266 310.787 59.1953 311.041C59.6706 311.295 60.0742 311.656 60.4062 312.125C60.7448 312.594 61.015 313.15 61.2168 313.795C61.4186 314.433 61.5651 315.136 61.6562 315.904V316.461C61.5651 317.21 61.4186 317.896 61.2168 318.521C61.015 319.146 60.7448 319.693 60.4062 320.162C60.0742 320.624 59.6706 320.982 59.1953 321.236C58.7201 321.49 58.1634 321.617 57.5254 321.617C56.8809 321.617 56.3014 321.484 55.7871 321.217C55.2793 320.95 54.8464 320.576 54.4883 320.094C54.1367 319.612 53.8665 319.046 53.6777 318.395C53.4954 317.743 53.4043 317.034 53.4043 316.266ZM55.9922 316.061V316.266C55.9922 316.721 56.0312 317.148 56.1094 317.545C56.1875 317.942 56.3145 318.294 56.4902 318.6C56.666 318.899 56.8906 319.133 57.1641 319.303C57.444 319.472 57.7826 319.557 58.1797 319.557C58.6875 319.557 59.1042 319.446 59.4297 319.225C59.7617 318.997 60.0189 318.688 60.2012 318.297C60.3835 317.9 60.5007 317.454 60.5527 316.959V315.426C60.5267 315.035 60.4583 314.674 60.3477 314.342C60.2435 314.01 60.0938 313.723 59.8984 313.482C59.7096 313.242 59.4753 313.053 59.1953 312.916C58.9154 312.779 58.5833 312.711 58.1992 312.711C57.8021 312.711 57.4635 312.799 57.1836 312.975C56.9036 313.144 56.6758 313.382 56.5 313.688C56.3242 313.993 56.194 314.348 56.1094 314.752C56.0312 315.156 55.9922 315.592 55.9922 316.061ZM67.8574 310.855V321.422H65.2695V310.855H67.8574ZM65.0938 308.092C65.0938 307.708 65.224 307.389 65.4844 307.135C65.7513 306.881 66.1094 306.754 66.5586 306.754C67.0078 306.754 67.3626 306.881 67.623 307.135C67.89 307.389 68.0234 307.708 68.0234 308.092C68.0234 308.469 67.89 308.785 67.623 309.039C67.3626 309.293 67.0078 309.42 66.5586 309.42C66.1094 309.42 65.7513 309.293 65.4844 309.039C65.224 308.785 65.0938 308.469 65.0938 308.092ZM75.0645 321.617C74.2637 321.617 73.5443 321.487 72.9062 321.227C72.2682 320.966 71.7246 320.605 71.2754 320.143C70.8327 319.674 70.4909 319.13 70.25 318.512C70.0156 317.887 69.8984 317.216 69.8984 316.5V316.109C69.8984 315.296 70.0156 314.557 70.25 313.893C70.4844 313.222 70.8164 312.646 71.2461 312.164C71.6758 311.682 72.1901 311.311 72.7891 311.051C73.388 310.79 74.0488 310.66 74.7715 310.66C75.5202 310.66 76.181 310.787 76.7539 311.041C77.3268 311.288 77.8053 311.64 78.1895 312.096C78.5736 312.551 78.8633 313.098 79.0586 313.736C79.2539 314.368 79.3516 315.068 79.3516 315.836V316.92H71.0703V315.143H76.8125V314.947C76.7995 314.537 76.7214 314.163 76.5781 313.824C76.4349 313.479 76.2135 313.206 75.9141 313.004C75.6146 312.796 75.2272 312.691 74.752 312.691C74.3678 312.691 74.0326 312.776 73.7461 312.945C73.4661 313.108 73.2318 313.342 73.043 313.648C72.8607 313.948 72.724 314.306 72.6328 314.723C72.5417 315.139 72.4961 315.602 72.4961 316.109V316.5C72.4961 316.943 72.5547 317.353 72.6719 317.73C72.7956 318.108 72.9746 318.437 73.209 318.717C73.4499 318.99 73.7363 319.205 74.0684 319.361C74.4069 319.511 74.791 319.586 75.2207 319.586C75.7611 319.586 76.2493 319.482 76.6855 319.273C77.1283 319.059 77.5124 318.743 77.8379 318.326L79.1367 319.674C78.9154 319.999 78.6159 320.312 78.2383 320.611C77.8672 320.911 77.418 321.155 76.8906 321.344C76.3633 321.526 75.7546 321.617 75.0645 321.617ZM83.6094 313.111V321.422H81.0312V310.855H83.4531L83.6094 313.111ZM83.1992 315.758H82.4375C82.444 314.99 82.5482 314.293 82.75 313.668C82.9518 313.043 83.235 312.506 83.5996 312.057C83.9707 311.607 84.4102 311.262 84.918 311.021C85.4258 310.781 85.9922 310.66 86.6172 310.66C87.125 310.66 87.584 310.732 87.9941 310.875C88.4043 311.018 88.7559 311.246 89.0488 311.559C89.3483 311.871 89.5762 312.281 89.7324 312.789C89.8952 313.29 89.9766 313.909 89.9766 314.645V321.422H87.3789V314.625C87.3789 314.143 87.3073 313.762 87.1641 313.482C87.0273 313.202 86.8255 313.004 86.5586 312.887C86.2982 312.77 85.9759 312.711 85.5918 312.711C85.1947 312.711 84.8464 312.792 84.5469 312.955C84.2539 313.111 84.0065 313.329 83.8047 313.609C83.6094 313.889 83.4596 314.212 83.3555 314.576C83.2513 314.941 83.1992 315.335 83.1992 315.758ZM96.5879 319.586C96.9525 319.586 97.278 319.514 97.5645 319.371C97.8509 319.228 98.0788 319.026 98.248 318.766C98.4238 318.505 98.5182 318.202 98.5312 317.857H100.963C100.95 318.574 100.748 319.215 100.357 319.781C99.9668 320.348 99.446 320.797 98.7949 321.129C98.1504 321.454 97.4277 321.617 96.627 321.617C95.8132 321.617 95.1035 321.48 94.498 321.207C93.8926 320.934 93.388 320.553 92.9844 320.064C92.5872 319.576 92.2878 319.01 92.0859 318.365C91.8906 317.721 91.793 317.031 91.793 316.295V315.982C91.793 315.247 91.8906 314.557 92.0859 313.912C92.2878 313.268 92.5872 312.701 92.9844 312.213C93.388 311.725 93.8926 311.344 94.498 311.07C95.1035 310.797 95.8099 310.66 96.6172 310.66C97.4701 310.66 98.2188 310.826 98.8633 311.158C99.5143 311.49 100.022 311.959 100.387 312.564C100.758 313.17 100.95 313.883 100.963 314.703H98.5312C98.5182 314.326 98.4336 313.987 98.2773 313.688C98.1211 313.388 97.8997 313.147 97.6133 312.965C97.3268 312.783 96.9785 312.691 96.5684 312.691C96.1322 312.691 95.7676 312.783 95.4746 312.965C95.1882 313.147 94.9635 313.398 94.8008 313.717C94.6445 314.029 94.5339 314.381 94.4688 314.771C94.4102 315.156 94.3809 315.559 94.3809 315.982V316.295C94.3809 316.725 94.4102 317.135 94.4688 317.525C94.5339 317.916 94.6445 318.268 94.8008 318.58C94.9635 318.886 95.1882 319.13 95.4746 319.312C95.7676 319.495 96.1387 319.586 96.5879 319.586ZM107.428 321.617C106.627 321.617 105.908 321.487 105.27 321.227C104.632 320.966 104.088 320.605 103.639 320.143C103.196 319.674 102.854 319.13 102.613 318.512C102.379 317.887 102.262 317.216 102.262 316.5V316.109C102.262 315.296 102.379 314.557 102.613 313.893C102.848 313.222 103.18 312.646 103.609 312.164C104.039 311.682 104.553 311.311 105.152 311.051C105.751 310.79 106.412 310.66 107.135 310.66C107.883 310.66 108.544 310.787 109.117 311.041C109.69 311.288 110.169 311.64 110.553 312.096C110.937 312.551 111.227 313.098 111.422 313.736C111.617 314.368 111.715 315.068 111.715 315.836V316.92H103.434V315.143H109.176V314.947C109.163 314.537 109.085 314.163 108.941 313.824C108.798 313.479 108.577 313.206 108.277 313.004C107.978 312.796 107.59 312.691 107.115 312.691C106.731 312.691 106.396 312.776 106.109 312.945C105.829 313.108 105.595 313.342 105.406 313.648C105.224 313.948 105.087 314.306 104.996 314.723C104.905 315.139 104.859 315.602 104.859 316.109V316.5C104.859 316.943 104.918 317.353 105.035 317.73C105.159 318.108 105.338 318.437 105.572 318.717C105.813 318.99 106.1 319.205 106.432 319.361C106.77 319.511 107.154 319.586 107.584 319.586C108.124 319.586 108.613 319.482 109.049 319.273C109.492 319.059 109.876 318.743 110.201 318.326L111.5 319.674C111.279 319.999 110.979 320.312 110.602 320.611C110.23 320.911 109.781 321.155 109.254 321.344C108.727 321.526 108.118 321.617 107.428 321.617Z" fill="#171717"/>
<path d="M17.1895 326.859H22.3555C23.4362 326.859 24.3639 327.022 25.1387 327.348C25.9134 327.673 26.5091 328.155 26.9258 328.793C27.3424 329.431 27.5508 330.215 27.5508 331.146C27.5508 331.882 27.4206 332.52 27.1602 333.061C26.8997 333.601 26.5319 334.053 26.0566 334.418C25.5879 334.783 25.0345 335.069 24.3965 335.277L23.5566 335.707H18.9961L18.9766 333.588H22.3848C22.9382 333.588 23.3971 333.49 23.7617 333.295C24.1263 333.1 24.3997 332.829 24.582 332.484C24.7708 332.139 24.8652 331.745 24.8652 331.303C24.8652 330.827 24.7741 330.417 24.5918 330.072C24.4095 329.721 24.1328 329.451 23.7617 329.262C23.3906 329.073 22.9219 328.979 22.3555 328.979H19.875V341.078H17.1895V326.859ZM25.2168 341.078L21.9258 334.711L24.7676 334.701L28.0977 340.941V341.078H25.2168ZM34.4551 341.273C33.6543 341.273 32.9349 341.143 32.2969 340.883C31.6589 340.622 31.1152 340.261 30.666 339.799C30.2233 339.33 29.8815 338.786 29.6406 338.168C29.4062 337.543 29.2891 336.872 29.2891 336.156V335.766C29.2891 334.952 29.4062 334.213 29.6406 333.549C29.875 332.878 30.207 332.302 30.6367 331.82C31.0664 331.339 31.5807 330.967 32.1797 330.707C32.7786 330.447 33.4395 330.316 34.1621 330.316C34.9108 330.316 35.5716 330.443 36.1445 330.697C36.7174 330.945 37.196 331.296 37.5801 331.752C37.9642 332.208 38.2539 332.755 38.4492 333.393C38.6445 334.024 38.7422 334.724 38.7422 335.492V336.576H30.4609V334.799H36.2031V334.604C36.1901 334.193 36.112 333.819 35.9688 333.48C35.8255 333.135 35.6042 332.862 35.3047 332.66C35.0052 332.452 34.6178 332.348 34.1426 332.348C33.7585 332.348 33.4232 332.432 33.1367 332.602C32.8568 332.764 32.6224 332.999 32.4336 333.305C32.2513 333.604 32.1146 333.962 32.0234 334.379C31.9323 334.796 31.8867 335.258 31.8867 335.766V336.156C31.8867 336.599 31.9453 337.009 32.0625 337.387C32.1862 337.764 32.3652 338.093 32.5996 338.373C32.8405 338.646 33.127 338.861 33.459 339.018C33.7975 339.167 34.1816 339.242 34.6113 339.242C35.1517 339.242 35.64 339.138 36.0762 338.93C36.5189 338.715 36.903 338.399 37.2285 337.982L38.5273 339.33C38.306 339.656 38.0065 339.968 37.6289 340.268C37.2578 340.567 36.8086 340.811 36.2812 341C35.7539 341.182 35.1452 341.273 34.4551 341.273ZM46.2812 338.188C46.2812 337.966 46.2227 337.768 46.1055 337.592C45.9883 337.416 45.7669 337.257 45.4414 337.113C45.1224 336.964 44.6536 336.824 44.0352 336.693C43.4883 336.576 42.9837 336.43 42.5215 336.254C42.0592 336.078 41.6621 335.867 41.3301 335.619C40.998 335.365 40.7376 335.069 40.5488 334.73C40.3665 334.385 40.2754 333.988 40.2754 333.539C40.2754 333.103 40.3698 332.693 40.5586 332.309C40.7474 331.918 41.0208 331.576 41.3789 331.283C41.737 330.984 42.1732 330.749 42.6875 330.58C43.2018 330.404 43.7812 330.316 44.4258 330.316C45.3242 330.316 46.0957 330.463 46.7402 330.756C47.3913 331.049 47.8893 331.452 48.2344 331.967C48.5794 332.475 48.752 333.048 48.752 333.686H46.1738C46.1738 333.406 46.1087 333.152 45.9785 332.924C45.8548 332.696 45.6628 332.514 45.4023 332.377C45.1419 332.234 44.8132 332.162 44.416 332.162C44.0579 332.162 43.7552 332.221 43.5078 332.338C43.2669 332.455 43.0846 332.608 42.9609 332.797C42.8372 332.986 42.7754 333.194 42.7754 333.422C42.7754 333.591 42.8079 333.744 42.873 333.881C42.9447 334.011 43.0586 334.132 43.2148 334.242C43.3711 334.353 43.5827 334.454 43.8496 334.545C44.123 334.636 44.4583 334.724 44.8555 334.809C45.6432 334.965 46.3301 335.173 46.916 335.434C47.5085 335.688 47.9707 336.026 48.3027 336.449C48.6348 336.872 48.8008 337.413 48.8008 338.07C48.8008 338.539 48.6999 338.969 48.498 339.359C48.2962 339.743 48.0033 340.079 47.6191 340.365C47.235 340.652 46.776 340.876 46.2422 341.039C45.7083 341.195 45.1061 341.273 44.4355 341.273C43.4655 341.273 42.6452 341.101 41.9746 340.756C41.304 340.404 40.7962 339.962 40.4512 339.428C40.1061 338.887 39.9336 338.327 39.9336 337.748H42.4043C42.4238 338.158 42.5345 338.487 42.7363 338.734C42.9382 338.982 43.1921 339.161 43.498 339.271C43.8105 339.376 44.1393 339.428 44.4844 339.428C44.875 339.428 45.2038 339.376 45.4707 339.271C45.7376 339.161 45.9395 339.014 46.0762 338.832C46.2129 338.643 46.2812 338.428 46.2812 338.188ZM50.3047 335.902V335.697C50.3047 334.923 50.4154 334.21 50.6367 333.559C50.8581 332.901 51.1803 332.331 51.6035 331.85C52.0267 331.368 52.5443 330.993 53.1562 330.727C53.7682 330.453 54.4648 330.316 55.2461 330.316C56.0404 330.316 56.7435 330.453 57.3555 330.727C57.974 330.993 58.4948 331.368 58.918 331.85C59.3411 332.331 59.6634 332.901 59.8848 333.559C60.1061 334.21 60.2168 334.923 60.2168 335.697V335.902C60.2168 336.671 60.1061 337.383 59.8848 338.041C59.6634 338.692 59.3411 339.262 58.918 339.75C58.4948 340.232 57.9772 340.606 57.3652 340.873C56.7533 341.14 56.0534 341.273 55.2656 341.273C54.4844 341.273 53.7845 341.14 53.166 340.873C52.5475 340.606 52.0267 340.232 51.6035 339.75C51.1803 339.262 50.8581 338.692 50.6367 338.041C50.4154 337.383 50.3047 336.671 50.3047 335.902ZM52.8828 335.697V335.902C52.8828 336.365 52.9284 336.798 53.0195 337.201C53.1107 337.605 53.2507 337.96 53.4395 338.266C53.6283 338.572 53.8724 338.812 54.1719 338.988C54.4779 339.158 54.8424 339.242 55.2656 339.242C55.6823 339.242 56.0404 339.158 56.3398 338.988C56.6393 338.812 56.8835 338.572 57.0723 338.266C57.2676 337.96 57.4108 337.605 57.502 337.201C57.5931 336.798 57.6387 336.365 57.6387 335.902V335.697C57.6387 335.242 57.5931 334.815 57.502 334.418C57.4108 334.014 57.2676 333.66 57.0723 333.354C56.8835 333.041 56.6361 332.797 56.3301 332.621C56.0306 332.439 55.6693 332.348 55.2461 332.348C54.8294 332.348 54.4714 332.439 54.1719 332.621C53.8724 332.797 53.6283 333.041 53.4395 333.354C53.2507 333.66 53.1107 334.014 53.0195 334.418C52.9284 334.815 52.8828 335.242 52.8828 335.697ZM64.6211 332.768V341.078H62.043V330.512H64.4648L64.6211 332.768ZM64.2109 335.414H63.4492C63.4557 334.646 63.5599 333.949 63.7617 333.324C63.9635 332.699 64.2467 332.162 64.6113 331.713C64.9824 331.264 65.4219 330.919 65.9297 330.678C66.4375 330.437 67.0039 330.316 67.6289 330.316C68.1367 330.316 68.5957 330.388 69.0059 330.531C69.416 330.674 69.7676 330.902 70.0605 331.215C70.36 331.527 70.5879 331.938 70.7441 332.445C70.9069 332.947 70.9883 333.565 70.9883 334.301V341.078H68.3906V334.281C68.3906 333.799 68.319 333.419 68.1758 333.139C68.0391 332.859 67.8372 332.66 67.5703 332.543C67.3099 332.426 66.9876 332.367 66.6035 332.367C66.2064 332.367 65.8581 332.449 65.5586 332.611C65.2656 332.768 65.0182 332.986 64.8164 333.266C64.6211 333.546 64.4714 333.868 64.3672 334.232C64.263 334.597 64.2109 334.991 64.2109 335.414ZM79.084 338.832V333.959C79.084 333.601 79.0221 333.292 78.8984 333.031C78.7747 332.771 78.5859 332.569 78.332 332.426C78.0781 332.283 77.7559 332.211 77.3652 332.211C77.0202 332.211 76.7174 332.27 76.457 332.387C76.2031 332.504 76.0078 332.67 75.8711 332.885C75.7344 333.093 75.666 333.334 75.666 333.607H73.0781C73.0781 333.171 73.1823 332.758 73.3906 332.367C73.599 331.97 73.8952 331.618 74.2793 331.312C74.6699 331 75.1354 330.756 75.6758 330.58C76.2227 330.404 76.8346 330.316 77.5117 330.316C78.3125 330.316 79.0254 330.453 79.6504 330.727C80.2819 330.993 80.7767 331.397 81.1348 331.938C81.4993 332.478 81.6816 333.158 81.6816 333.979V338.588C81.6816 339.115 81.7142 339.568 81.7793 339.945C81.8509 340.316 81.9551 340.639 82.0918 340.912V341.078H79.4648C79.3411 340.811 79.2467 340.473 79.1816 340.062C79.1165 339.646 79.084 339.236 79.084 338.832ZM79.4453 334.643L79.4648 336.176H77.834C77.4303 336.176 77.0755 336.218 76.7695 336.303C76.4635 336.381 76.2129 336.498 76.0176 336.654C75.8223 336.804 75.6758 336.986 75.5781 337.201C75.4805 337.41 75.4316 337.647 75.4316 337.914C75.4316 338.174 75.4902 338.409 75.6074 338.617C75.7311 338.826 75.9069 338.992 76.1348 339.115C76.3691 339.232 76.6426 339.291 76.9551 339.291C77.4108 339.291 77.8079 339.2 78.1465 339.018C78.485 338.829 78.7487 338.601 78.9375 338.334C79.1263 338.067 79.2272 337.813 79.2402 337.572L79.9824 338.686C79.8913 338.952 79.7546 339.236 79.5723 339.535C79.39 339.835 79.1556 340.115 78.8691 340.375C78.5827 340.635 78.2376 340.85 77.834 341.02C77.4303 341.189 76.9616 341.273 76.4277 341.273C75.7441 341.273 75.1322 341.137 74.5918 340.863C74.0514 340.59 73.625 340.215 73.3125 339.74C73 339.265 72.8438 338.725 72.8438 338.119C72.8438 337.559 72.9479 337.064 73.1562 336.635C73.3646 336.205 73.6738 335.844 74.084 335.551C74.4941 335.251 75.002 335.027 75.6074 334.877C76.2194 334.721 76.9193 334.643 77.707 334.643H79.4453ZM86.5352 332.768V341.078H83.957V330.512H86.3789L86.5352 332.768ZM86.125 335.414H85.3633C85.3698 334.646 85.474 333.949 85.6758 333.324C85.8776 332.699 86.1608 332.162 86.5254 331.713C86.8965 331.264 87.3359 330.919 87.8438 330.678C88.3516 330.437 88.918 330.316 89.543 330.316C90.0508 330.316 90.5098 330.388 90.9199 330.531C91.3301 330.674 91.6816 330.902 91.9746 331.215C92.2741 331.527 92.502 331.938 92.6582 332.445C92.821 332.947 92.9023 333.565 92.9023 334.301V341.078H90.3047V334.281C90.3047 333.799 90.2331 333.419 90.0898 333.139C89.9531 332.859 89.7513 332.66 89.4844 332.543C89.224 332.426 88.9017 332.367 88.5176 332.367C88.1204 332.367 87.7721 332.449 87.4727 332.611C87.1797 332.768 86.9323 332.986 86.7305 333.266C86.5352 333.546 86.3854 333.868 86.2812 334.232C86.1771 334.597 86.125 334.991 86.125 335.414ZM99.5137 339.242C99.8783 339.242 100.204 339.171 100.49 339.027C100.777 338.884 101.005 338.682 101.174 338.422C101.35 338.161 101.444 337.859 101.457 337.514H103.889C103.876 338.23 103.674 338.871 103.283 339.438C102.893 340.004 102.372 340.453 101.721 340.785C101.076 341.111 100.354 341.273 99.5527 341.273C98.7389 341.273 98.0293 341.137 97.4238 340.863C96.8184 340.59 96.3138 340.209 95.9102 339.721C95.513 339.232 95.2135 338.666 95.0117 338.021C94.8164 337.377 94.7188 336.687 94.7188 335.951V335.639C94.7188 334.903 94.8164 334.213 95.0117 333.568C95.2135 332.924 95.513 332.357 95.9102 331.869C96.3138 331.381 96.8184 331 97.4238 330.727C98.0293 330.453 98.7357 330.316 99.543 330.316C100.396 330.316 101.145 330.482 101.789 330.814C102.44 331.146 102.948 331.615 103.312 332.221C103.684 332.826 103.876 333.539 103.889 334.359H101.457C101.444 333.982 101.359 333.643 101.203 333.344C101.047 333.044 100.826 332.803 100.539 332.621C100.253 332.439 99.9043 332.348 99.4941 332.348C99.0579 332.348 98.6934 332.439 98.4004 332.621C98.1139 332.803 97.8893 333.054 97.7266 333.373C97.5703 333.686 97.4596 334.037 97.3945 334.428C97.3359 334.812 97.3066 335.215 97.3066 335.639V335.951C97.3066 336.381 97.3359 336.791 97.3945 337.182C97.4596 337.572 97.5703 337.924 97.7266 338.236C97.8893 338.542 98.1139 338.786 98.4004 338.969C98.6934 339.151 99.0645 339.242 99.5137 339.242ZM110.354 341.273C109.553 341.273 108.833 341.143 108.195 340.883C107.557 340.622 107.014 340.261 106.564 339.799C106.122 339.33 105.78 338.786 105.539 338.168C105.305 337.543 105.188 336.872 105.188 336.156V335.766C105.188 334.952 105.305 334.213 105.539 333.549C105.773 332.878 106.105 332.302 106.535 331.82C106.965 331.339 107.479 330.967 108.078 330.707C108.677 330.447 109.338 330.316 110.061 330.316C110.809 330.316 111.47 330.443 112.043 330.697C112.616 330.945 113.094 331.296 113.479 331.752C113.863 332.208 114.152 332.755 114.348 333.393C114.543 334.024 114.641 334.724 114.641 335.492V336.576H106.359V334.799H112.102V334.604C112.089 334.193 112.01 333.819 111.867 333.48C111.724 333.135 111.503 332.862 111.203 332.66C110.904 332.452 110.516 332.348 110.041 332.348C109.657 332.348 109.322 332.432 109.035 332.602C108.755 332.764 108.521 332.999 108.332 333.305C108.15 333.604 108.013 333.962 107.922 334.379C107.831 334.796 107.785 335.258 107.785 335.766V336.156C107.785 336.599 107.844 337.009 107.961 337.387C108.085 337.764 108.264 338.093 108.498 338.373C108.739 338.646 109.025 338.861 109.357 339.018C109.696 339.167 110.08 339.242 110.51 339.242C111.05 339.242 111.538 339.138 111.975 338.93C112.417 338.715 112.801 338.399 113.127 337.982L114.426 339.33C114.204 339.656 113.905 339.968 113.527 340.268C113.156 340.567 112.707 340.811 112.18 341C111.652 341.182 111.044 341.273 110.354 341.273Z" fill="#171717"/>
<path fill-rule="evenodd" clip-rule="evenodd" d="M443.541 271.847C453.866 249.907 459.637 225.401 459.637 199.547C459.637 170.11 452.156 142.421 438.99 118.277C424.515 119.086 410.502 122.522 397.547 129.115C399.682 132.369 401.654 135.698 403.463 139.091L403.386 139.093C412.986 157.12 418.427 177.698 418.427 199.547C418.427 225.573 410.707 249.797 397.432 270.052C410.392 276.635 424.41 280.06 438.888 280.86C440.515 277.881 442.045 274.863 443.479 271.811L443.541 271.847ZM289.643 29.5469C315.576 29.5469 340.153 35.3541 362.145 45.7393L362.121 45.7799C365.173 47.2146 368.493 48.9065 371.472 50.5328C370.78 64.9641 366.99 79.0751 360.371 91.9028C340.071 78.5367 315.765 70.759 289.643 70.759C263.536 70.759 239.243 78.5277 218.95 91.8795C212.349 78.9033 208.915 64.8661 208.114 50.3662C211.093 48.74 214.111 47.2096 217.163 45.7751C217.156 45.7631 217.149 45.751 217.142 45.739C239.133 35.3541 263.71 29.5469 289.643 29.5469ZM140.463 117.97C127.194 142.186 119.648 169.985 119.648 199.547C119.648 229.112 127.195 256.914 140.468 281.132C154.871 280.428 168.952 276.639 181.755 270.03C179.62 266.776 177.632 263.41 175.822 260.016L175.907 260.013C166.302 241.984 160.859 221.401 160.859 199.547C160.859 177.696 166.301 157.116 175.903 139.089C175.875 139.088 175.848 139.087 175.821 139.086C177.63 135.692 179.619 132.326 181.754 129.072C168.95 122.463 154.867 118.674 140.463 117.97ZM361.985 353.43L361.94 353.353C364.992 351.918 368.312 350.226 371.291 348.6C370.6 334.191 366.821 320.102 360.221 307.29C339.951 320.595 315.701 328.335 289.643 328.335C263.538 328.335 239.247 320.567 218.955 307.217C212.352 320.195 208.916 334.234 208.115 348.736C211.095 350.362 214.113 351.892 217.164 353.327L217.147 353.357C239.137 363.741 263.712 369.547 289.643 369.547C315.514 369.547 340.034 363.768 361.985 353.43Z" stroke="#171717" stroke-width="1.42126" stroke-linecap="round" stroke-linejoin="round"/>
<path d="M181.765 129.086C185.854 131.166 189.821 133.598 193.681 136.324M181.765 129.086C179.63 132.34 177.641 135.706 175.831 139.1C182.569 139.309 188.762 138.453 193.681 136.324M181.765 129.086C168.935 122.464 154.821 118.672 140.387 117.98M193.681 136.324C193.681 136.324 202.737 124.018 208.3 118.455C213.874 112.881 219.84 108.024 226.168 103.835M123.832 118.455C127.091 121.714 131.123 124.702 135.634 127.331C137.069 124.279 138.761 120.96 140.387 117.98M123.832 118.455C129.351 118.048 134.849 117.714 140.387 117.98M123.832 118.455C132.539 100.558 144.705 84.5863 159.568 69.7221C174.183 55.1066 190.74 42.6473 208.3 33.9844M226.168 103.835C223.442 99.9761 221.047 95.9929 218.967 91.9043M226.168 103.835C228.298 98.9162 229.151 92.7255 228.943 85.9877C225.549 87.7972 222.22 89.7694 218.967 91.9043M208.3 33.9844C207.893 39.4934 207.826 44.9691 208.125 50.3803M208.3 33.9844C211.559 37.2436 214.545 41.2777 217.174 45.7893C214.122 47.2239 211.104 48.7542 208.125 50.3803M208.125 50.3803C208.926 64.8843 212.362 78.9251 218.967 91.9043" stroke="#20743F" stroke-width="1.42126" stroke-linecap="round" stroke-linejoin="round"/>
<path d="M360.365 91.9348C358.284 96.0236 355.853 99.9914 353.127 103.851M360.365 91.9348C357.11 89.7994 353.744 87.8111 350.351 86.0012C350.142 92.739 350.998 98.9317 353.127 103.851M360.365 91.9348C366.987 79.1045 370.778 64.9904 371.471 50.5557M353.127 103.851C353.127 103.851 365.433 112.908 370.995 118.47C376.569 124.044 381.426 130.011 385.615 136.339M370.995 34C367.736 37.2593 364.748 41.2912 362.119 45.8027C365.172 47.2375 368.491 48.9294 371.471 50.5557M370.995 34C371.403 39.5191 371.737 45.0171 371.471 50.5557M370.995 34C388.892 42.7074 404.863 54.8734 419.727 69.7375C434.342 84.353 446.801 100.91 455.463 118.471M385.615 136.339C389.474 133.613 393.457 131.218 397.545 129.138M385.615 136.339C390.534 138.469 396.724 139.322 403.462 139.114C401.652 135.721 399.68 132.391 397.545 129.138M455.463 118.471C449.954 118.064 444.479 117.996 439.068 118.295M455.463 118.471C452.204 121.73 448.17 124.716 443.659 127.345C442.224 124.293 440.694 121.275 439.068 118.295M439.068 118.295C424.564 119.097 410.524 122.533 397.545 129.138" stroke="#590D1A" stroke-width="1.42126" stroke-linecap="round" stroke-linejoin="round"/>
<path d="M360.193 307.225C358.112 303.136 355.681 299.169 352.955 295.309M360.193 307.225C356.939 309.361 353.573 311.349 350.179 313.159C349.971 306.421 350.826 300.228 352.955 295.309M360.193 307.225C366.815 320.055 370.606 334.17 371.299 348.604M352.955 295.309C352.955 295.309 365.261 286.252 370.823 280.69C376.397 275.115 381.254 269.149 385.443 262.821M370.823 365.16C367.564 361.901 364.577 357.869 361.948 353.357C365 351.922 368.319 350.231 371.299 348.604M370.823 365.16C371.231 359.641 371.565 354.143 371.299 348.604M370.823 365.16C388.72 356.453 404.691 344.287 419.555 329.422C434.17 314.807 446.629 298.25 455.291 280.689M385.443 262.821C389.302 265.547 393.285 267.942 397.373 270.022M385.443 262.821C390.362 260.691 396.552 259.838 403.29 260.046C401.48 263.439 399.508 266.769 397.373 270.022M455.291 280.689C449.783 281.096 444.307 281.164 438.896 280.865M455.291 280.689C452.032 277.43 447.998 274.444 443.487 271.815C442.052 274.867 440.522 277.885 438.896 280.865M438.896 280.865C424.393 280.063 410.352 276.627 397.373 270.022" stroke="#171717" stroke-width="1.42126" stroke-linecap="round" stroke-linejoin="round"/>
<path d="M181.765 270.014C185.854 267.933 189.821 265.502 193.681 262.776M181.765 270.014C179.63 266.759 177.641 263.393 175.831 259.999C182.569 259.791 188.762 260.646 193.681 262.776M181.765 270.014C168.935 276.636 154.821 280.427 140.387 281.12M193.681 262.776C193.681 262.776 202.737 275.081 208.3 280.644C213.874 286.218 219.84 291.075 226.168 295.264M123.832 280.644C127.091 277.385 131.123 274.397 135.634 271.768C137.069 274.82 138.761 278.14 140.387 281.12M123.832 280.644C129.351 281.052 134.849 281.386 140.387 281.12M123.832 280.644C132.539 298.542 144.705 314.513 159.568 329.377C174.183 343.993 190.74 356.452 208.3 365.115M226.168 295.264C223.442 299.123 221.047 303.107 218.967 307.195M226.168 295.264C228.298 300.183 229.151 306.374 228.943 313.112C225.549 311.302 222.22 309.33 218.967 307.195M208.3 365.115C207.893 359.606 207.826 354.13 208.125 348.719M208.3 365.115C211.559 361.856 214.545 357.822 217.174 353.31C214.122 351.876 211.104 350.345 208.125 348.719M208.125 348.719C208.926 334.215 212.362 320.174 218.967 307.195" stroke="#1A009E" stroke-width="1.42126" stroke-linecap="round" stroke-linejoin="round"/>
<path d="M166.855 107.455C182.936 112.815 177.576 112.815 195.954 103.626C194.895 102.202 193.06 101.591 191.359 102.094L184.745 104.188M166.855 98.9364H171.45C175.053 98.9364 177.576 102 178.342 102H183.702C185.233 102 185.233 105.063 183.702 105.063H175.279M172.084 98.9686C172.084 98.9686 173.718 104.231 166.855 104.231M188.875 102.882L190.802 106.272M183.147 105.063L184.869 109.388M178.498 102C178.201 102.999 178.201 104.063 178.498 105.063M191.79 93.8472C190.575 92.6838 190.498 90.7689 191.614 89.5111C192.73 88.2534 194.64 88.1027 195.94 89.1699C196.032 89.2512 196.119 89.3382 196.2 89.4302C196.51 89.7401 196.755 90.1094 196.918 90.5161C197.017 90.7656 197.234 90.9498 197.496 91.0077C197.758 91.0674 198.031 90.9887 198.222 90.7994L200.66 88.349C200.953 88.0501 201.114 87.6472 201.11 87.2289C201.105 86.8107 200.935 86.4114 200.635 86.1191L198.069 83.5691C198.601 83.433 199.087 83.1558 199.474 82.7665C200.685 81.5157 200.669 79.5251 199.438 78.2942C198.207 77.0633 196.217 77.0471 194.966 78.2577C194.577 78.6454 194.3 79.1313 194.165 79.6637L191.609 77.1075C191 76.4849 190.002 76.4732 189.379 77.0815L187.109 79.3512C186.944 79.5184 186.863 79.7514 186.889 79.9853C186.915 80.2226 187.045 80.4362 187.244 80.5688C188.213 81.1585 188.787 82.2264 188.744 83.3598C188.701 84.4932 188.048 85.5147 187.038 86.0295C186.027 86.5444 184.817 86.472 183.875 85.8403C183.674 85.7133 183.489 85.5632 183.323 85.3931C183.177 85.2413 183.046 85.075 182.933 84.8969C182.799 84.699 182.586 84.5688 182.349 84.54C182.115 84.5139 181.882 84.5949 181.714 84.7606L179.437 87.0242C178.826 87.6467 178.836 88.6465 179.458 89.2572L188.475 98.2748C189.086 98.8965 190.085 98.9061 190.708 98.2963L193.146 95.8535C193.332 95.6655 193.409 95.396 193.352 95.1382C193.294 94.8764 193.111 94.6595 192.863 94.5578C192.461 94.3962 192.095 94.1544 191.79 93.8472Z" stroke="#20743F" stroke-width="1.42126" stroke-linecap="round" stroke-linejoin="round"/>
<path d="M385.364 79.3203H391.49M399.148 79.3203H404.508M404.508 79.3203V108.419H412.931V87.7437L404.508 79.3203ZM386.13 88.5095H391.107M399.531 88.5095H404.508M391.107 79.3203H399.531V108.419H391.107V79.3203ZM377.707 79.3203H386.13V108.419H377.707V79.3203Z" stroke="#590D1A" stroke-width="1.42126" stroke-linecap="round" stroke-linejoin="round"/>
<path d="M190.421 317.843C193.496 317.233 196.124 316.199 197.973 314.873C199.821 313.547 200.808 311.987 200.808 310.392C200.808 308.253 199.036 306.202 195.88 304.69M172.084 304.69C170.53 305.435 169.287 306.323 168.437 307.306C167.164 308.78 166.83 310.401 167.48 311.966C168.129 313.53 169.731 314.967 172.084 316.095C174.438 317.223 177.436 317.991 180.7 318.302C181.786 318.406 182.885 318.457 183.982 318.457H185.316M182.224 314.941L185.74 318.457L182.224 321.974M188.759 298.247C189.12 297.454 189.333 296.478 189.333 295.422C189.333 294.366 189.12 293.389 188.759 292.596M191.923 301.412C192.943 299.751 193.549 297.675 193.549 295.422C193.549 293.168 192.943 291.092 191.923 289.431M183.66 288.615C183.429 288.5 183.17 288.451 182.913 288.474C182.656 288.498 182.41 288.592 182.203 288.747L176.085 292.641H173.304C172.935 292.641 172.581 292.787 172.321 293.048C172.06 293.309 171.913 293.663 171.913 294.031V296.813C171.913 297.181 172.06 297.535 172.321 297.796C172.581 298.057 172.935 298.203 173.304 298.203H176.085L182.203 302.097C182.41 302.252 182.656 302.346 182.913 302.369C183.17 302.393 183.429 302.344 183.66 302.228C183.891 302.113 184.085 301.935 184.221 301.716C184.356 301.496 184.428 301.243 184.428 300.984V289.86C184.428 289.601 184.357 289.348 184.221 289.128C184.085 288.909 183.891 288.731 183.66 288.615Z" stroke="#1A009E" stroke-width="1.42126" stroke-linecap="round" stroke-linejoin="round"/>
<path d="M393.064 287.617H396.127M394.595 287.617V292.212M406.847 292.212L409.144 294.509M407.996 293.36L405.029 296.329M383.875 307.527H386.938M386.938 299.869L389.235 302.167M386.938 315.185L389.235 312.887M405.316 307.527H402.253M402.253 315.185L399.956 312.887M402.253 299.869L399.956 302.167M394.595 292.207V322.838C403.054 322.838 409.91 315.981 409.91 307.523C409.91 299.064 403.054 292.207 394.595 292.207Z" stroke="#171717" stroke-width="1.42126" stroke-linecap="round" stroke-linejoin="round"/>
</g>
<defs>
<clipPath id="clip0_2583_14744">
<rect width="613" height="380" fill="white" transform="translate(0.945312 0.859375)"/>
</clipPath>
</defs>
</svg>
