<svg width="375" height="173" viewBox="0 0 375 173" fill="none" xmlns="http://www.w3.org/2000/svg">
<rect x="26.3086" y="88.7734" width="119" height="36" rx="18" transform="rotate(-3.40495 26.3086 88.7734)" fill="white" fill-opacity="0.6"/>
<path d="M60.0426 119.187C59.4676 119.222 58.9789 119.09 58.5766 118.794C58.1969 118.517 57.817 118.059 57.437 117.419C57.1761 116.986 56.8964 116.415 56.5977 115.706C56.3191 114.974 56.0404 114.061 55.7616 112.967C55.4815 111.851 55.2513 110.497 55.0711 108.904L56.2739 109.185C55.4884 111.07 54.605 112.565 53.6236 113.671C52.6422 114.776 51.6105 115.575 50.5285 116.067C49.4464 116.559 48.3304 116.839 47.1805 116.907C45.7536 116.992 44.4688 116.769 43.326 116.239C42.2044 115.707 41.3 114.874 40.6127 113.74C39.9255 112.605 39.5299 111.165 39.426 109.419C39.3335 107.864 39.5097 106.336 39.9547 104.835C40.3997 103.334 41.0533 101.927 41.9155 100.615C42.7765 99.2816 43.7748 98.1003 44.9103 97.071C46.0672 96.0405 47.3219 95.2178 48.6744 94.6031C50.0269 93.9883 51.3953 93.6398 52.7795 93.5574C53.6101 93.508 54.2772 93.5859 54.7809 93.791C55.306 93.9948 55.6977 94.2921 55.956 94.6828C56.2143 95.0734 56.3587 95.5243 56.3891 96.0354C56.4284 96.6956 56.3574 97.2982 56.1761 97.8433C55.9948 98.3883 55.7214 98.8213 55.3558 99.1423C55.0115 99.462 54.6158 99.6351 54.1685 99.6617C53.8704 99.6794 53.6743 99.6163 53.5803 99.4723C53.4849 99.307 53.4303 99.1072 53.4164 98.873C53.4012 98.6174 53.3759 98.3732 53.3407 98.1402C53.3055 97.9072 53.2083 97.71 53.0491 97.5485C52.8898 97.387 52.6186 97.3176 52.2353 97.3404C51.2983 97.3962 50.3745 97.6755 49.4641 98.1785C48.5525 98.6602 47.7036 99.2984 46.9174 100.093C46.1312 100.888 45.4472 101.783 44.8653 102.78C44.2835 103.776 43.8319 104.807 43.5107 105.874C43.2107 106.939 43.0912 107.982 43.152 109.005C43.2457 110.58 43.6562 111.731 44.3832 112.457C45.1103 113.184 46.0275 113.514 47.1349 113.448C48.1997 113.384 49.1654 113.092 50.0319 112.57C50.9185 112.026 51.7285 111.272 52.462 110.31C53.2167 109.346 53.8843 108.174 54.4646 106.793C54.7511 106.22 55.0797 105.816 55.4503 105.58C55.821 105.344 56.3044 105.209 56.9007 105.173C57.3266 105.148 57.6537 105.257 57.8818 105.499C58.13 105.72 58.2674 106.054 58.294 106.501C58.3776 107.906 58.5056 109.16 58.678 110.261C58.8704 111.339 59.1197 112.297 59.4259 113.133C59.7322 113.97 60.0785 114.761 60.4648 115.508C60.6831 115.944 60.8537 116.297 60.9766 116.567C61.0996 116.838 61.1774 117.068 61.2101 117.259C61.2641 117.448 61.2968 117.638 61.3082 117.83C61.3323 118.234 61.2229 118.551 60.98 118.779C60.7597 119.027 60.4472 119.163 60.0426 119.187ZM49.8898 108.027C49.3574 108.058 48.912 107.935 48.5535 107.657C48.2151 107.357 48.0313 106.962 48.0021 106.472C47.9793 106.089 48.0987 105.761 48.3604 105.489C48.6208 105.196 49.1492 104.918 49.9458 104.657C51.3298 104.212 52.7395 103.839 54.1749 103.54C55.6316 103.24 57.1367 103.033 58.69 102.919C59.4353 102.875 59.9928 102.906 60.3624 103.012C60.7534 103.117 61.0197 103.283 61.1614 103.509C61.3244 103.735 61.416 104.018 61.4363 104.358C61.4629 104.806 61.3279 105.23 61.0313 105.633C60.7347 106.035 60.235 106.257 59.5322 106.299C57.7008 106.408 56.1625 106.596 54.9175 106.862C53.6938 107.127 52.683 107.38 51.8851 107.619C51.1086 107.858 50.4435 107.994 49.8898 108.027ZM79.1626 115.101C78.6515 115.131 78.1697 114.935 77.7172 114.513C77.2647 114.091 76.8845 113.27 76.5768 112.049C76.3834 111.312 76.2162 110.478 76.0753 109.546C75.9331 108.593 75.8133 107.478 75.716 106.201C75.64 104.924 75.5939 103.431 75.5777 101.722C75.5615 100.013 75.5821 98.0243 75.6395 95.7556C75.6504 95.2207 75.7741 94.7859 76.0106 94.4513C76.2472 94.1166 76.5784 93.9366 77.0043 93.9113C77.8136 93.8631 78.3844 94.1177 78.7167 94.6749C79.0491 95.2322 79.2144 96.2161 79.2129 97.6267C79.2007 99.9355 79.2327 101.91 79.3089 103.551C79.3852 105.192 79.4889 106.575 79.6199 107.7C79.7509 108.825 79.8812 109.758 80.0108 110.498C80.139 111.217 80.249 111.809 80.3408 112.274C80.4313 112.717 80.4867 113.109 80.5069 113.45C80.5412 114.025 80.4375 114.437 80.1958 114.686C79.9542 114.936 79.6098 115.074 79.1626 115.101ZM82.6427 95.4672C81.4714 95.5368 80.4066 95.6002 79.4483 95.6572C78.49 95.7142 77.5737 95.7581 76.6993 95.7887C75.8249 95.8194 74.9505 95.85 74.0761 95.8807C73.2218 95.8888 72.3029 95.89 71.3195 95.8844C70.4651 95.8925 69.798 95.8146 69.3181 95.6509C68.8595 95.4858 68.5255 95.2599 68.3161 94.9732C68.1279 94.6852 68.0225 94.3495 67.9997 93.9662C67.9781 93.6042 68.0769 93.2884 68.2959 93.0189C68.5363 92.7482 68.9333 92.5963 69.487 92.5634C70.6157 92.4962 71.6391 92.4567 72.5574 92.4448C73.4744 92.4116 74.3387 92.3923 75.1505 92.3867C75.961 92.3598 76.7715 92.333 77.582 92.3061C78.3925 92.2793 79.2663 92.238 80.2033 92.1822C81.0764 92.1303 81.7779 92.0672 82.3077 91.9929C82.8363 91.8973 83.323 91.815 83.7676 91.7458C84.2111 91.6553 84.699 91.5942 85.2313 91.5625C85.7211 91.5334 86.0901 91.629 86.3383 91.8493C86.5865 92.0696 86.7214 92.3608 86.7429 92.7228C86.7771 93.2978 86.5927 93.7896 86.1896 94.1983C85.8065 94.5844 85.29 94.8822 84.6399 95.0919C84.0112 95.3002 83.3454 95.4253 82.6427 95.4672ZM90.7854 109.472C89.8998 109.675 89.2246 109.64 88.7596 109.368C88.2934 109.076 88.0445 108.663 88.0128 108.131C87.9887 107.726 88.115 107.334 88.3916 106.954C88.6682 106.574 89.2893 106.238 90.255 105.946C92.1863 105.36 94.1239 104.882 96.0679 104.51C98.0332 104.136 99.9529 103.894 101.827 103.782C102.721 103.729 103.412 103.838 103.898 104.108C104.405 104.377 104.676 104.788 104.709 105.342C104.733 105.747 104.614 106.085 104.352 106.357C104.111 106.606 103.638 106.752 102.936 106.794C101.594 106.874 100.405 106.998 99.3676 107.166C98.3291 107.314 97.4097 107.486 96.6094 107.683C95.8077 107.859 95.0713 108.053 94.3999 108.263C93.7499 108.473 93.1318 108.681 92.5457 108.887C91.9808 109.091 91.3941 109.286 90.7854 109.472ZM90.3741 101.483C89.486 101.642 88.8195 101.575 88.3746 101.281C87.951 100.986 87.7221 100.55 87.6879 99.9755C87.6612 99.5283 87.8201 99.1448 88.1644 98.8251C88.5287 98.4829 89.2175 98.2068 90.2308 97.9969C91.4533 97.7105 92.6683 97.4779 93.8758 97.2992C95.0833 97.1205 96.2402 96.9876 97.3463 96.9004C98.4724 96.7907 99.4933 96.7085 100.409 96.6541C101.985 96.5603 103.123 96.6529 103.824 96.9318C104.524 97.2106 104.891 97.6376 104.926 98.2126C104.951 98.6385 104.822 98.9881 104.539 99.2614C104.256 99.5346 103.753 99.6928 103.029 99.7359C101.282 99.8398 99.783 99.9611 98.5304 100.1C97.2777 100.238 96.1861 100.389 95.2554 100.551C94.3247 100.713 93.4686 100.871 92.687 101.024C91.9267 101.176 91.1557 101.329 90.3741 101.483ZM112.251 113.004C110.633 113.1 109.403 112.906 108.562 112.422C107.72 111.916 107.276 111.28 107.23 110.513C107.208 110.13 107.286 109.837 107.467 109.634C107.646 109.409 107.937 109.285 108.342 109.261C108.619 109.245 108.855 109.263 109.051 109.315C109.266 109.345 109.482 109.386 109.699 109.437C109.937 109.487 110.207 109.535 110.509 109.581C110.831 109.605 111.226 109.602 111.695 109.575C112.823 109.507 113.81 109.395 114.656 109.238C115.523 109.08 116.259 108.886 116.865 108.658C117.491 108.407 118.02 108.13 118.451 107.826C118.291 107.301 117.912 106.854 117.313 106.483C116.714 106.113 115.978 105.772 115.104 105.461C114.231 105.149 113.325 104.829 112.386 104.501C111.468 104.149 110.6 103.752 109.783 103.309C108.966 102.866 108.282 102.319 107.73 101.668C107.198 100.994 106.904 100.179 106.847 99.2202C106.784 98.1554 107.023 97.1474 107.565 96.1963C108.128 95.2438 108.878 94.3764 109.814 93.5941C110.749 92.7904 111.766 92.0995 112.864 91.5212C113.963 90.943 115.036 90.4838 116.084 90.1436C117.154 89.8021 118.083 89.6079 118.871 89.5611C119.382 89.5306 119.791 89.5918 120.1 89.7444C120.408 89.897 120.634 90.1079 120.778 90.3772C120.923 90.6464 121.005 90.9514 121.025 91.2921C121.049 91.6968 120.952 92.0445 120.735 92.3352C120.517 92.626 120.134 92.8411 119.587 92.9805C117.649 93.4591 115.985 94.039 114.593 94.7202C113.222 95.3788 112.174 96.0823 111.449 96.8307C110.744 97.5565 110.414 98.2814 110.457 99.0055C110.487 99.5166 110.781 99.9586 111.337 100.332C111.913 100.682 112.628 101.024 113.482 101.358C114.355 101.669 115.272 101.999 116.233 102.348C117.215 102.675 118.136 103.069 118.996 103.53C119.879 103.991 120.606 104.546 121.179 105.196C121.751 105.824 122.065 106.607 122.12 107.544C122.169 108.353 121.955 109.082 121.481 109.73C121.007 110.378 120.324 110.931 119.432 111.39C118.539 111.828 117.481 112.19 116.259 112.477C115.035 112.742 113.699 112.917 112.251 113.004ZM124.466 99.326C123.784 99.3665 123.273 99.2046 122.93 98.8403C122.588 98.476 122.399 97.9957 122.364 97.3994C122.317 96.9748 122.352 96.6628 122.468 96.4636C122.584 96.243 122.723 96.0744 122.887 95.9578C124.117 95.0725 125.139 94.2958 125.954 93.6275C126.768 92.938 127.405 92.3337 127.866 91.8148C128.325 91.2745 128.649 90.7851 128.836 90.3466C129.024 89.908 129.106 89.4864 129.082 89.0818C129.04 88.379 128.636 88.0504 127.869 88.096C127.124 88.1404 126.472 88.3287 125.915 88.6611C125.378 88.9709 124.916 89.2869 124.529 89.6091C124.141 89.91 123.787 90.07 123.468 90.089C123.063 90.113 122.702 89.9742 122.385 89.6725C122.089 89.3696 121.928 89.0051 121.903 88.5792C121.864 88.2823 121.893 88.0456 121.989 87.8689C122.084 87.6709 122.264 87.4571 122.528 87.2277C123.342 86.5382 124.186 86.0071 125.062 85.6344C125.937 85.2618 126.822 85.0488 127.717 84.9956C129.207 84.9069 130.294 85.2162 130.977 85.9236C131.681 86.6084 132.067 87.5364 132.137 88.7076C132.177 89.3891 132.061 90.1227 131.787 90.9083C131.513 91.694 130.944 92.5506 130.081 93.4782C129.217 94.4058 127.954 95.4533 126.293 96.6207L125.606 95.8601C125.865 95.9088 126.113 95.9368 126.348 95.9442C126.584 95.9516 126.819 95.9483 127.053 95.9343C127.607 95.9014 128.264 95.8195 129.026 95.6887C129.809 95.5567 130.679 95.4621 131.638 95.4051C132.575 95.3494 133.234 95.4811 133.617 95.8003C133.999 96.1195 134.216 96.534 134.268 97.0438C134.288 97.3845 134.168 97.7015 133.908 97.9949C133.667 98.2656 133.291 98.4162 132.78 98.4466C130.608 98.5758 128.855 98.7443 127.521 98.9519C126.208 99.1582 125.19 99.2829 124.466 99.326Z" fill="#590D1A"/>
<path d="M195.968 123.547C194.958 123.622 194.188 123.512 193.658 123.218C193.127 122.91 192.843 122.516 192.807 122.038C192.79 121.798 192.836 121.614 192.947 121.486C193.057 121.344 193.238 121.263 193.49 121.245C193.663 121.232 193.811 121.241 193.934 121.272C194.069 121.288 194.204 121.312 194.34 121.342C194.489 121.371 194.658 121.398 194.847 121.424C195.049 121.436 195.296 121.431 195.588 121.409C196.293 121.357 196.909 121.277 197.436 121.171C197.976 121.064 198.434 120.936 198.811 120.788C199.2 120.625 199.528 120.447 199.794 120.253C199.69 119.927 199.448 119.65 199.07 119.425C198.693 119.199 198.229 118.993 197.681 118.806C197.132 118.62 196.563 118.428 195.973 118.232C195.396 118.021 194.85 117.781 194.335 117.511C193.82 117.242 193.387 116.907 193.037 116.505C192.698 116.089 192.507 115.582 192.462 114.984C192.412 114.319 192.552 113.687 192.882 113.087C193.225 112.487 193.685 111.938 194.263 111.44C194.84 110.929 195.469 110.488 196.15 110.116C196.831 109.744 197.497 109.447 198.149 109.225C198.815 109.001 199.393 108.871 199.885 108.835C200.204 108.811 200.461 108.845 200.655 108.938C200.849 109.03 200.992 109.16 201.085 109.327C201.178 109.494 201.232 109.684 201.248 109.896C201.267 110.149 201.209 110.367 201.076 110.551C200.943 110.735 200.706 110.873 200.365 110.965C199.158 111.282 198.124 111.66 197.261 112.099C196.41 112.523 195.761 112.973 195.316 113.447C194.882 113.907 194.682 114.364 194.716 114.816C194.739 115.135 194.927 115.408 195.278 115.636C195.642 115.85 196.092 116.057 196.628 116.257C197.177 116.444 197.753 116.642 198.357 116.851C198.973 117.045 199.553 117.283 200.095 117.563C200.651 117.843 201.11 118.183 201.475 118.583C201.838 118.971 202.041 119.457 202.085 120.042C202.122 120.547 201.996 121.005 201.706 121.414C201.415 121.824 200.994 122.176 200.441 122.471C199.887 122.753 199.229 122.989 198.468 123.18C197.706 123.357 196.873 123.479 195.968 123.547ZM207.918 122.676C207.054 122.74 206.29 122.617 205.625 122.305C204.973 121.993 204.419 121.559 203.963 121.005C203.52 120.437 203.171 119.794 202.917 119.078C202.663 118.361 202.509 117.637 202.454 116.906C202.407 116.268 202.41 115.679 202.463 115.14C202.529 114.587 202.642 114.051 202.804 113.531C202.868 113.312 202.969 113.137 203.106 113.007C203.243 112.876 203.438 112.801 203.691 112.783C204.01 112.759 204.284 112.845 204.513 113.042C204.741 113.239 204.868 113.51 204.894 113.856C204.91 114.069 204.898 114.27 204.859 114.46C204.832 114.636 204.793 114.833 204.743 115.051C204.705 115.267 204.67 115.517 204.638 115.801C204.618 116.069 204.623 116.403 204.653 116.802C204.697 117.401 204.798 117.941 204.954 118.424C205.124 118.906 205.342 119.318 205.608 119.659C205.886 119.986 206.205 120.23 206.565 120.39C206.924 120.55 207.317 120.615 207.742 120.583C208.261 120.544 208.685 120.319 209.016 119.906C209.345 119.481 209.575 118.889 209.705 118.13C209.836 117.372 209.863 116.48 209.787 115.457C209.761 115.111 209.726 114.819 209.681 114.582C209.65 114.344 209.614 114.132 209.574 113.948C209.546 113.75 209.524 113.544 209.508 113.332C209.484 113.012 209.526 112.762 209.632 112.58C209.739 112.398 209.945 112.296 210.251 112.273C210.557 112.251 210.823 112.324 211.05 112.495C211.276 112.652 211.457 112.939 211.596 113.356C211.746 113.76 211.848 114.327 211.903 115.058C212.025 116.694 211.94 118.064 211.648 119.169C211.355 120.26 210.89 121.104 210.252 121.699C209.614 122.282 208.836 122.607 207.918 122.676ZM216.272 122.053C215.594 122.103 215.029 122.058 214.577 121.918C214.126 121.778 213.784 121.583 213.551 121.333C213.332 121.082 213.211 120.804 213.188 120.498C213.171 120.272 213.224 120.081 213.346 119.924C213.481 119.767 213.682 119.679 213.948 119.659C214.094 119.648 214.222 119.665 214.333 119.71C214.456 119.755 214.587 119.805 214.725 119.862C214.876 119.917 215.053 119.964 215.257 120.002C215.474 120.04 215.748 120.046 216.081 120.021C216.905 119.96 217.596 119.815 218.154 119.586C218.724 119.343 219.107 119.007 219.302 118.578C219.176 118.32 218.948 118.129 218.618 118.007C218.288 117.885 217.899 117.786 217.453 117.713C217.006 117.639 216.539 117.56 216.051 117.476C215.576 117.378 215.125 117.251 214.699 117.096C214.285 116.926 213.94 116.691 213.664 116.391C213.387 116.091 213.23 115.688 213.193 115.183C213.154 114.664 213.272 114.187 213.547 113.752C213.822 113.317 214.202 112.941 214.687 112.624C215.171 112.308 215.714 112.053 216.314 111.861C216.915 111.669 217.522 111.557 218.134 111.525C218.76 111.492 219.237 111.603 219.563 111.86C219.903 112.115 220.086 112.416 220.112 112.761C220.13 113.001 220.078 113.198 219.955 113.355C219.847 113.51 219.666 113.597 219.413 113.616C219.294 113.625 219.18 113.626 219.073 113.621C218.979 113.615 218.872 113.616 218.752 113.625C218.632 113.62 218.472 113.626 218.272 113.641C217.527 113.696 216.891 113.851 216.361 114.104C215.831 114.344 215.448 114.68 215.213 115.112C215.311 115.346 215.524 115.523 215.855 115.646C216.185 115.768 216.573 115.866 217.02 115.94C217.48 116.013 217.953 116.091 218.441 116.175C218.942 116.258 219.406 116.384 219.833 116.553C220.272 116.707 220.637 116.934 220.927 117.233C221.216 117.532 221.38 117.928 221.416 118.42C221.472 119.165 221.271 119.795 220.815 120.31C220.359 120.825 219.734 121.226 218.939 121.513C218.145 121.799 217.256 121.979 216.272 122.053ZM227.03 121.311C225.967 121.39 225.091 121.208 224.403 120.764C223.713 120.308 223.189 119.645 222.83 118.776C222.484 117.893 222.266 116.859 222.178 115.676C222.125 114.971 222.112 114.344 222.138 113.794C222.176 113.229 222.216 112.691 222.258 112.18C222.314 111.668 222.341 111.144 222.342 110.61C222.336 109.995 222.319 109.502 222.291 109.129C222.264 108.757 222.251 108.404 222.253 108.069C222.248 107.829 222.306 107.617 222.426 107.435C222.558 107.237 222.791 107.127 223.123 107.102C223.602 107.066 223.959 107.287 224.195 107.764C224.431 108.241 224.549 109.008 224.547 110.064C224.53 110.547 224.503 110.997 224.467 111.414C224.431 111.818 224.394 112.221 224.357 112.625C224.333 113.015 224.317 113.437 224.311 113.892C224.304 114.334 224.322 114.841 224.364 115.412C224.437 116.383 224.581 117.148 224.796 117.707C225.025 118.265 225.322 118.657 225.686 118.884C226.063 119.096 226.517 119.183 227.049 119.143C227.368 119.119 227.612 119.068 227.78 118.988C227.961 118.908 228.116 118.836 228.245 118.773C228.373 118.697 228.524 118.652 228.696 118.639C228.936 118.621 229.121 118.681 229.251 118.818C229.382 118.956 229.457 119.157 229.477 119.423C229.511 119.875 229.328 120.29 228.928 120.668C228.541 121.031 227.908 121.245 227.03 121.311ZM224.158 113.984C223.746 114.202 223.421 114.233 223.182 114.077C222.943 113.921 222.812 113.683 222.788 113.364C222.764 113.045 222.81 112.761 222.925 112.511C223.052 112.248 223.388 111.996 223.931 111.755C224.422 111.517 224.969 111.323 225.572 111.171C226.188 111.005 226.769 110.901 227.314 110.86C227.833 110.822 228.213 110.9 228.455 111.096C228.709 111.278 228.849 111.542 228.875 111.887C228.894 112.14 228.828 112.339 228.679 112.483C228.542 112.627 228.329 112.724 228.038 112.772C227.469 112.854 226.962 112.952 226.516 113.066C226.083 113.178 225.678 113.309 225.302 113.457C224.938 113.605 224.557 113.78 224.158 113.984ZM233.022 120.804C232.397 120.85 231.835 120.758 231.337 120.528C230.85 120.284 230.463 119.925 230.173 119.452C229.884 118.979 229.715 118.41 229.665 117.745C229.616 117.093 229.667 116.428 229.817 115.748C229.979 115.054 230.224 114.394 230.552 113.768C230.879 113.142 231.278 112.577 231.749 112.074C232.219 111.558 232.743 111.144 233.321 110.834C233.899 110.51 234.52 110.323 235.185 110.274C235.544 110.247 235.857 110.33 236.126 110.524C236.394 110.718 236.544 111.021 236.575 111.433C236.588 111.606 236.545 111.756 236.448 111.884C236.35 112.012 236.203 112.096 236.006 112.138C235.11 112.325 234.337 112.71 233.685 113.293C233.047 113.876 232.562 114.554 232.232 115.327C231.915 116.099 231.787 116.891 231.848 117.702C231.873 118.035 231.922 118.338 231.996 118.614C232.069 118.876 232.214 119.213 232.432 119.624L231.177 118.113C231.504 118.383 231.778 118.556 231.998 118.634C232.229 118.697 232.525 118.715 232.884 118.688C233.668 118.629 234.345 118.104 234.912 117.113C235.493 116.107 235.861 114.675 236.016 112.819C236.035 112.537 236.126 112.316 236.288 112.157C236.449 111.984 236.655 111.889 236.908 111.87C237.294 111.841 237.629 111.95 237.915 112.196C238.2 112.429 238.404 112.741 238.527 113.133C238.726 113.84 238.928 114.48 239.131 115.053C239.333 115.613 239.587 116.149 239.893 116.661C240.197 117.16 240.604 117.678 241.112 118.215C241.255 118.351 241.342 118.532 241.373 118.757C241.402 118.969 241.384 119.184 241.32 119.402C241.256 119.608 241.142 119.79 240.98 119.949C240.831 120.094 240.643 120.175 240.417 120.192C240.217 120.207 240.048 120.179 239.909 120.109C239.784 120.039 239.663 119.941 239.546 119.816C239.255 119.49 238.983 119.162 238.731 118.833C238.478 118.491 238.236 118.115 238.005 117.704C237.786 117.279 237.582 116.787 237.393 116.226C237.217 115.651 237.053 114.974 236.901 114.197L237.676 114.099C237.564 115.284 237.352 116.296 237.04 117.135C236.741 117.972 236.378 118.655 235.949 119.181C235.52 119.708 235.055 120.104 234.554 120.368C234.051 120.62 233.54 120.765 233.022 120.804ZM243.647 120.031C243.354 120.053 243.116 120.004 242.934 119.884C242.751 119.764 242.604 119.588 242.493 119.355C242.395 119.108 242.333 118.819 242.308 118.487C242.235 117.503 242.166 116.672 242.102 115.995C242.051 115.304 241.999 114.706 241.948 114.201C241.911 113.696 241.869 113.225 241.823 112.787C241.79 112.348 241.755 111.883 241.719 111.391C241.697 111.098 241.724 110.835 241.8 110.602C241.876 110.356 242.001 110.16 242.178 110.013C242.367 109.865 242.615 109.78 242.921 109.757C243.28 109.73 243.574 109.828 243.805 110.052C244.035 110.262 244.174 110.606 244.223 111.084C244.244 111.363 244.267 111.762 244.292 112.282C244.331 112.8 244.36 113.373 244.38 114C244.412 114.613 244.439 115.239 244.46 115.879C244.493 116.505 244.523 117.078 244.548 117.597C244.574 118.117 244.598 118.536 244.622 118.855C244.645 119.161 244.578 119.427 244.421 119.653C244.264 119.878 244.006 120.004 243.647 120.031ZM242.943 108.171C242.398 108.211 241.934 108.092 241.552 107.813C241.169 107.521 240.962 107.155 240.929 106.716C240.897 106.291 241.018 105.941 241.292 105.667C241.566 105.392 241.928 105.238 242.381 105.204C242.753 105.177 243.078 105.239 243.357 105.392C243.636 105.545 243.852 105.75 244.005 106.006C244.171 106.261 244.264 106.521 244.283 106.787C244.306 107.093 244.215 107.394 244.01 107.69C243.817 107.972 243.461 108.132 242.943 108.171ZM256.115 119.061C255.663 119.095 255.25 118.932 254.876 118.572C254.513 118.198 254.208 117.599 253.959 116.775C253.71 115.938 253.535 114.842 253.433 113.485C253.394 112.953 253.349 112.529 253.298 112.212C253.26 111.88 253.2 111.617 253.119 111.423C253.051 111.227 252.959 111.074 252.844 110.962C252.741 110.836 252.605 110.713 252.435 110.592C252.727 110.556 252.975 110.571 253.181 110.636C253.385 110.688 253.548 110.803 253.668 110.981C253.787 111.146 253.853 111.402 253.865 111.748C253.644 111.471 253.464 111.29 253.324 111.207C253.184 111.124 253.021 111.089 252.835 111.103C252.569 111.123 252.275 111.305 251.953 111.65C251.644 111.994 251.326 112.479 250.998 113.105C250.683 113.717 250.383 114.448 250.099 115.298C249.814 116.135 249.568 117.049 249.361 118.041C249.257 118.623 249.121 119.035 248.951 119.275C248.781 119.501 248.537 119.626 248.217 119.65C247.672 119.691 247.244 119.422 246.934 118.843C246.623 118.265 246.433 117.51 246.364 116.58C246.314 115.915 246.298 115.334 246.314 114.838C246.343 114.328 246.375 113.858 246.41 113.427C246.457 112.983 246.49 112.532 246.509 112.076C246.541 111.606 246.535 111.078 246.492 110.493C246.468 110.174 246.523 109.929 246.657 109.759C246.804 109.574 247.03 109.47 247.336 109.448C247.682 109.422 247.957 109.522 248.161 109.747C248.378 109.972 248.507 110.356 248.548 110.901C248.578 111.314 248.575 111.715 248.537 112.106C248.498 112.483 248.456 112.894 248.409 113.339C248.374 113.769 248.352 114.279 248.342 114.868C248.333 115.457 248.372 116.162 248.46 116.985L247.954 116.662C248.287 115.032 248.713 113.657 249.231 112.535C249.748 111.4 250.319 110.535 250.943 109.941C251.566 109.333 252.197 109.005 252.835 108.957C253.619 108.899 254.219 109.135 254.633 109.666C255.059 110.182 255.307 110.912 255.378 111.856C255.452 112.853 255.529 113.71 255.609 114.426C255.688 115.129 255.805 115.702 255.958 116.145C256.125 116.587 256.35 116.918 256.634 117.137C256.803 117.258 256.927 117.39 257.004 117.531C257.082 117.672 257.128 117.849 257.144 118.062C257.162 118.301 257.085 118.521 256.912 118.721C256.753 118.92 256.488 119.034 256.115 119.061ZM260.862 118.727C260.237 118.774 259.676 118.682 259.177 118.452C258.691 118.207 258.303 117.849 258.014 117.375C257.725 116.902 257.555 116.333 257.506 115.669C257.457 115.017 257.508 114.351 257.658 113.672C257.82 112.978 258.065 112.318 258.392 111.692C258.72 111.065 259.119 110.501 259.59 109.998C260.059 109.481 260.583 109.068 261.162 108.757C261.739 108.434 262.36 108.247 263.025 108.197C263.384 108.171 263.698 108.254 263.967 108.448C264.235 108.642 264.385 108.945 264.415 109.357C264.428 109.53 264.386 109.68 264.289 109.808C264.191 109.935 264.044 110.02 263.846 110.061C262.951 110.249 262.177 110.634 261.526 111.217C260.887 111.8 260.403 112.478 260.073 113.251C259.756 114.023 259.628 114.815 259.688 115.626C259.713 115.958 259.763 116.262 259.837 116.538C259.91 116.8 260.055 117.136 260.273 117.548L259.017 116.037C259.345 116.307 259.618 116.48 259.838 116.557C260.07 116.62 260.366 116.638 260.725 116.612C261.509 116.553 262.185 116.028 262.753 115.037C263.333 114.031 263.701 112.599 263.857 110.743C263.876 110.46 263.966 110.24 264.128 110.081C264.289 109.908 264.496 109.812 264.749 109.794C265.134 109.765 265.47 109.873 265.756 110.12C266.041 110.352 266.244 110.665 266.367 111.057C266.567 111.764 266.768 112.404 266.972 112.977C267.174 113.537 267.428 114.073 267.733 114.585C268.038 115.084 268.444 115.601 268.952 116.139C269.096 116.275 269.183 116.456 269.213 116.681C269.242 116.892 269.225 117.108 269.161 117.326C269.096 117.532 268.983 117.714 268.821 117.873C268.671 118.018 268.483 118.099 268.257 118.116C268.058 118.131 267.889 118.103 267.75 118.033C267.624 117.962 267.503 117.864 267.387 117.739C267.095 117.414 266.823 117.086 266.572 116.757C266.319 116.415 266.077 116.039 265.846 115.628C265.627 115.203 265.423 114.71 265.234 114.15C265.057 113.574 264.893 112.898 264.742 112.121L265.517 112.023C265.404 113.208 265.192 114.22 264.881 115.058C264.582 115.896 264.219 116.578 263.79 117.105C263.361 117.632 262.896 118.027 262.394 118.292C261.892 118.544 261.381 118.689 260.862 118.727ZM272.522 117.858C272.203 117.882 271.882 117.879 271.559 117.849C271.236 117.82 270.937 117.755 270.662 117.656C270.387 117.556 270.156 117.419 269.969 117.246C269.795 117.058 269.697 116.818 269.675 116.526C269.654 116.247 269.725 116.034 269.888 115.888C270.063 115.728 270.291 115.638 270.57 115.617C270.783 115.601 271.025 115.623 271.297 115.683C271.581 115.729 271.856 115.741 272.122 115.722C272.747 115.675 273.352 115.543 273.938 115.326C274.536 115.107 275.063 114.814 275.517 114.446C275.984 114.077 276.338 113.629 276.58 113.103C276.833 112.563 276.935 111.953 276.885 111.275C276.859 110.929 276.796 110.62 276.695 110.347C276.593 110.06 276.43 109.838 276.204 109.681C275.979 109.524 275.673 109.46 275.287 109.489C274.649 109.537 274.109 109.824 273.667 110.352C273.224 110.866 272.869 111.568 272.601 112.457C272.333 113.346 272.134 114.357 272.004 115.49C271.97 115.746 271.891 115.939 271.767 116.069C271.656 116.198 271.514 116.268 271.342 116.281C271.102 116.299 270.881 116.195 270.677 115.97C270.472 115.731 270.313 115.402 270.202 114.982C270.016 114.288 269.85 113.585 269.704 112.874C269.57 112.162 269.461 111.501 269.375 110.893C269.289 110.271 269.23 109.747 269.198 109.321C269.143 108.59 269.11 107.958 269.097 107.424C269.097 106.889 269.101 106.414 269.111 105.999C269.133 105.583 269.145 105.201 269.146 104.853C269.145 104.492 269.124 104.119 269.082 103.735C269.048 103.456 269.083 103.206 269.187 102.985C269.304 102.762 269.515 102.639 269.821 102.616C270.22 102.587 270.557 102.709 270.831 102.982C271.105 103.243 271.263 103.665 271.307 104.251C271.331 104.583 271.336 104.917 271.321 105.252C271.318 105.573 271.311 105.921 271.299 106.297C271.287 106.672 271.279 107.101 271.274 107.582C271.282 108.05 271.31 108.596 271.356 109.221C271.396 109.752 271.443 110.297 271.498 110.855C271.566 111.398 271.652 112.013 271.756 112.7L271.186 112.041C271.338 111.04 271.616 110.197 272.02 109.512C272.423 108.827 272.899 108.297 273.446 107.922C274.006 107.546 274.572 107.336 275.144 107.294C275.835 107.242 276.465 107.349 277.033 107.614C277.613 107.865 278.086 108.291 278.452 108.892C278.817 109.493 279.037 110.292 279.112 111.29C279.181 112.22 279.044 113.073 278.701 113.847C278.37 114.607 277.892 115.278 277.267 115.859C276.641 116.441 275.914 116.903 275.084 117.246C274.267 117.587 273.413 117.791 272.522 117.858ZM283.844 117.034C283.552 117.055 283.256 117.031 282.956 116.959C282.658 116.901 282.373 116.762 282.103 116.542C281.831 116.308 281.578 115.959 281.343 115.495C281.108 115.031 280.901 114.412 280.723 113.636C280.558 112.86 280.432 111.886 280.345 110.716C280.264 109.639 280.213 108.674 280.189 107.82C280.178 106.952 280.191 106.142 280.228 105.39C280.266 104.639 280.318 103.899 280.384 103.172C280.427 102.675 280.521 102.32 280.666 102.109C280.824 101.896 281.035 101.78 281.301 101.76C281.66 101.734 281.95 101.852 282.17 102.117C282.391 102.381 282.524 102.826 282.571 103.451C282.599 103.836 282.604 104.257 282.585 104.713C282.564 105.156 282.542 105.666 282.518 106.242C282.493 106.806 282.483 107.475 282.487 108.25C282.491 109.012 282.531 109.911 282.608 110.949C282.669 111.76 282.745 112.429 282.838 112.957C282.93 113.472 283.027 113.872 283.128 114.159C283.243 114.444 283.365 114.643 283.494 114.753C283.636 114.863 283.773 114.913 283.906 114.903C284.066 114.891 284.191 114.868 284.282 114.835C284.385 114.787 284.469 114.747 284.534 114.716C284.598 114.684 284.67 114.666 284.75 114.66C285.043 114.638 285.241 114.703 285.346 114.856C285.465 115.007 285.533 115.203 285.551 115.442C285.572 115.735 285.505 116 285.349 116.239C285.206 116.464 284.999 116.647 284.728 116.787C284.471 116.927 284.177 117.009 283.844 117.034ZM290.257 116.535C289.473 116.594 288.787 116.538 288.199 116.368C287.612 116.198 287.117 115.927 286.715 115.556C286.313 115.185 285.999 114.74 285.773 114.222C285.56 113.703 285.43 113.125 285.383 112.487C285.331 111.795 285.406 111.094 285.607 110.384C285.82 109.659 286.145 108.993 286.581 108.386C287.016 107.765 287.553 107.257 288.192 106.862C288.844 106.452 289.581 106.217 290.406 106.155C291.084 106.105 291.678 106.181 292.188 106.384C292.71 106.572 293.128 106.888 293.442 107.333C293.756 107.777 293.939 108.352 293.991 109.057C294.032 109.602 293.942 110.097 293.721 110.541C293.499 110.972 293.166 111.345 292.721 111.658C292.29 111.971 291.781 112.223 291.193 112.414C290.605 112.592 289.958 112.707 289.254 112.759C288.483 112.817 287.916 112.746 287.553 112.545C287.203 112.331 287.017 112.077 286.995 111.785C286.983 111.625 287.014 111.502 287.088 111.417C287.161 111.318 287.297 111.261 287.496 111.246C287.643 111.235 287.824 111.248 288.041 111.286C288.256 111.31 288.557 111.307 288.943 111.278C289.541 111.234 290.067 111.121 290.522 110.94C290.975 110.746 291.332 110.505 291.591 110.219C291.85 109.918 291.966 109.596 291.94 109.25C291.91 108.851 291.788 108.559 291.574 108.375C291.36 108.19 291.02 108.115 290.555 108.15C290.063 108.187 289.626 108.339 289.245 108.609C288.863 108.864 288.534 109.203 288.258 109.625C287.995 110.045 287.803 110.514 287.681 111.032C287.559 111.549 287.518 112.08 287.559 112.625C287.59 113.037 287.691 113.404 287.862 113.726C288.033 114.047 288.285 114.289 288.618 114.451C288.964 114.613 289.416 114.673 289.975 114.631C290.72 114.575 291.332 114.45 291.812 114.253C292.292 114.057 292.691 113.847 293.008 113.623C293.325 113.385 293.59 113.178 293.804 113.002C294.032 112.824 294.252 112.728 294.465 112.712C294.664 112.697 294.809 112.753 294.898 112.88C295 112.993 295.061 113.182 295.081 113.448C295.103 113.74 294.993 114.056 294.751 114.395C294.522 114.733 294.185 115.052 293.739 115.353C293.307 115.653 292.791 115.912 292.193 116.13C291.607 116.348 290.962 116.483 290.257 116.535ZM314.71 116.617C314.351 116.644 314.044 116.566 313.79 116.385C313.55 116.215 313.309 115.933 313.065 115.536C312.898 115.268 312.718 114.914 312.525 114.474C312.344 114.019 312.161 113.451 311.976 112.77C311.791 112.075 311.634 111.231 311.507 110.238L312.261 110.402C311.788 111.587 311.25 112.53 310.647 113.23C310.044 113.93 309.407 114.439 308.735 114.756C308.063 115.074 307.369 115.259 306.651 115.313C305.76 115.379 304.955 115.252 304.236 114.931C303.53 114.61 302.957 114.097 302.517 113.395C302.076 112.692 301.816 111.796 301.734 110.706C301.662 109.735 301.758 108.778 302.022 107.836C302.286 106.894 302.681 106.009 303.208 105.181C303.733 104.339 304.346 103.592 305.046 102.938C305.759 102.283 306.536 101.757 307.375 101.36C308.215 100.963 309.066 100.733 309.931 100.668C310.449 100.63 310.867 100.672 311.184 100.795C311.514 100.918 311.761 101.1 311.926 101.342C312.091 101.583 312.186 101.864 312.21 102.183C312.24 102.595 312.202 102.972 312.093 103.315C311.985 103.657 311.819 103.93 311.593 104.134C311.381 104.337 311.135 104.449 310.856 104.47C310.67 104.484 310.547 104.446 310.487 104.357C310.425 104.255 310.389 104.13 310.379 103.984C310.367 103.825 310.349 103.672 310.324 103.527C310.3 103.382 310.238 103.259 310.137 103.16C310.036 103.06 309.865 103.02 309.626 103.037C309.041 103.081 308.466 103.264 307.902 103.587C307.337 103.897 306.812 104.304 306.329 104.808C305.845 105.312 305.426 105.878 305.071 106.506C304.717 107.134 304.445 107.783 304.254 108.452C304.076 109.12 304.011 109.774 304.059 110.412C304.132 111.396 304.4 112.111 304.861 112.558C305.322 113.005 305.898 113.203 306.59 113.151C307.255 113.102 307.855 112.91 308.392 112.576C308.941 112.227 309.44 111.749 309.889 111.14C310.352 110.531 310.758 109.792 311.108 108.924C311.282 108.563 311.483 108.307 311.713 108.156C311.942 108.006 312.243 107.916 312.615 107.889C312.881 107.869 313.086 107.934 313.231 108.083C313.388 108.219 313.477 108.426 313.498 108.705C313.564 109.583 313.655 110.365 313.773 111.051C313.904 111.723 314.069 112.319 314.268 112.839C314.467 113.359 314.691 113.851 314.939 114.314C315.08 114.584 315.19 114.803 315.269 114.971C315.349 115.139 315.399 115.282 315.422 115.401C315.457 115.518 315.479 115.637 315.488 115.757C315.507 116.009 315.442 116.208 315.292 116.353C315.157 116.51 314.963 116.598 314.71 116.617ZM308.261 109.738C307.928 109.762 307.649 109.69 307.422 109.519C307.208 109.335 307.089 109.09 307.066 108.784C307.048 108.544 307.12 108.338 307.281 108.166C307.441 107.98 307.769 107.802 308.264 107.631C309.125 107.34 310.002 107.094 310.896 106.894C311.804 106.692 312.742 106.549 313.712 106.463C314.177 106.428 314.526 106.442 314.758 106.505C315.003 106.567 315.171 106.668 315.262 106.809C315.366 106.948 315.426 107.124 315.442 107.337C315.463 107.616 315.382 107.883 315.201 108.137C315.019 108.391 314.709 108.535 314.27 108.567C313.127 108.653 312.167 108.784 311.392 108.963C310.629 109.14 310 109.307 309.504 109.464C309.021 109.621 308.606 109.712 308.261 109.738ZM318.65 114.458C318.411 114.476 318.193 114.419 317.995 114.286C317.812 114.153 317.657 113.964 317.532 113.719C317.419 113.46 317.35 113.164 317.325 112.832C317.259 111.941 317.176 111.098 317.077 110.303C316.991 109.508 316.883 108.78 316.754 108.121C316.624 107.463 316.476 106.912 316.31 106.47C316.179 106.159 316.088 105.925 316.037 105.768C315.997 105.597 315.97 105.419 315.957 105.233C315.939 104.993 315.997 104.788 316.131 104.618C316.266 104.448 316.492 104.35 316.812 104.327C317.091 104.306 317.351 104.387 317.592 104.569C317.833 104.752 318.051 105.083 318.247 105.563C318.443 106.03 318.612 106.686 318.755 107.531C318.912 108.375 319.032 109.456 319.117 110.773L318.274 110.495C318.335 109.341 318.508 108.345 318.794 107.508C319.092 106.67 319.455 105.981 319.883 105.441C320.324 104.9 320.795 104.491 321.295 104.213C321.796 103.935 322.299 103.777 322.804 103.739C323.217 103.709 323.51 103.794 323.686 103.994C323.874 104.181 323.979 104.427 324.002 104.733C324.019 104.972 323.956 105.198 323.811 105.409C323.679 105.606 323.432 105.785 323.069 105.946C322.394 106.21 321.838 106.559 321.402 106.993C320.967 107.426 320.624 107.933 320.373 108.513C320.135 109.093 319.962 109.734 319.854 110.437C319.76 111.14 319.709 111.899 319.703 112.715C319.696 113.157 319.655 113.501 319.58 113.747C319.505 113.993 319.391 114.169 319.238 114.274C319.085 114.379 318.889 114.44 318.65 114.458ZM329.883 113.62C328.833 113.699 327.879 113.549 327.022 113.172C326.164 112.781 325.467 112.218 324.931 111.483C324.407 110.733 324.107 109.853 324.032 108.842C323.978 108.124 324.068 107.449 324.302 106.816C324.535 106.184 324.848 105.626 325.24 105.142C325.644 104.644 326.069 104.251 326.516 103.964C326.976 103.676 327.392 103.518 327.764 103.49C327.937 103.477 328.092 103.492 328.229 103.535C328.379 103.578 328.498 103.649 328.586 103.749C328.673 103.85 328.724 103.993 328.738 104.179C328.764 104.525 328.713 104.836 328.587 105.113C328.473 105.376 328.21 105.616 327.798 105.834C327.429 106.075 327.121 106.346 326.876 106.645C326.643 106.929 326.473 107.243 326.365 107.585C326.256 107.914 326.215 108.272 326.244 108.657C326.316 109.628 326.66 110.384 327.276 110.927C327.891 111.469 328.691 111.704 329.675 111.63C330.499 111.569 331.142 111.22 331.602 110.584C332.062 109.935 332.254 109.111 332.18 108.114C332.113 107.21 331.84 106.515 331.363 106.029C330.884 105.53 330.279 105.308 329.548 105.362C329.163 105.391 328.856 105.494 328.629 105.672C328.401 105.849 328.164 106.081 327.918 106.366C327.734 106.581 327.587 106.765 327.478 106.921C327.37 107.076 327.258 107.198 327.145 107.286C327.044 107.374 326.901 107.425 326.715 107.439C326.502 107.455 326.324 107.401 326.181 107.278C326.037 107.142 325.952 106.894 325.925 106.535C325.902 106.216 325.976 105.876 326.15 105.515C326.324 105.155 326.559 104.816 326.857 104.5C327.167 104.183 327.522 103.922 327.921 103.719C328.32 103.502 328.732 103.378 329.157 103.346C330.168 103.27 331.047 103.412 331.796 103.771C332.544 104.116 333.138 104.647 333.579 105.363C334.02 106.078 334.279 106.942 334.354 107.952C334.428 108.949 334.283 109.869 333.918 110.712C333.552 111.542 333.021 112.216 332.324 112.736C331.628 113.256 330.814 113.551 329.883 113.62ZM339.405 112.97C338.913 113.007 338.471 112.819 338.079 112.407C337.701 111.994 337.333 111.266 336.974 110.224C336.748 109.518 336.528 108.819 336.316 108.127C336.103 107.421 335.874 106.762 335.628 106.152C335.394 105.528 335.113 104.987 334.785 104.531C334.545 104.187 334.423 103.889 334.417 103.635C334.411 103.382 334.49 103.182 334.653 103.036C334.828 102.876 335.056 102.786 335.335 102.765C335.654 102.741 335.94 102.807 336.192 102.962C336.443 103.103 336.722 103.437 337.029 103.962C337.319 104.449 337.56 104.999 337.753 105.613C337.958 106.213 338.145 106.834 338.313 107.476C338.494 108.105 338.685 108.699 338.888 109.259C339.09 109.818 339.34 110.301 339.637 110.707L338.902 110.802C339.078 110.468 339.23 110.082 339.358 109.645C339.484 109.194 339.596 108.718 339.692 108.216C339.801 107.7 339.916 107.176 340.036 106.646C340.157 106.115 340.286 105.604 340.423 105.113C340.702 104.183 340.985 103.493 341.272 103.044C341.558 102.581 341.934 102.333 342.4 102.298C342.799 102.268 343.153 102.362 343.464 102.58C343.786 102.783 344.091 103.108 344.379 103.554C344.678 103.987 344.994 104.545 345.326 105.229C345.548 105.693 345.749 106.16 345.931 106.627C346.113 107.095 346.294 107.543 346.473 107.971C346.664 108.384 346.866 108.764 347.079 109.109C347.305 109.453 347.56 109.728 347.843 109.934L347.255 110.119C347.465 109.715 347.617 109.243 347.71 108.701C347.817 108.158 347.889 107.598 347.926 107.02C347.977 106.441 348.027 105.869 348.079 105.304C348.144 104.738 348.238 104.209 348.362 103.719C348.468 103.35 348.604 103.019 348.769 102.726C348.933 102.419 349.129 102.177 349.357 102C349.596 101.808 349.856 101.702 350.135 101.681C350.321 101.667 350.49 101.695 350.643 101.764C350.795 101.832 350.917 101.944 351.009 102.097C351.1 102.251 351.154 102.434 351.17 102.647C351.186 102.86 351.148 103.07 351.056 103.277C350.977 103.47 350.871 103.659 350.738 103.842C350.544 104.111 350.394 104.436 350.289 104.818C350.196 105.186 350.119 105.593 350.059 106.039C349.999 106.485 349.946 106.943 349.901 107.414C349.856 107.886 349.802 108.331 349.74 108.75C349.61 109.696 349.463 110.422 349.301 110.929C349.137 111.422 348.942 111.771 348.717 111.975C348.504 112.165 348.251 112.271 347.958 112.292C347.559 112.322 347.198 112.229 346.874 112.012C346.55 111.782 346.158 111.364 345.698 110.756C345.367 110.259 345.059 109.714 344.774 109.12C344.489 108.527 344.224 107.931 343.979 107.335C343.733 106.738 343.486 106.201 343.237 105.725C343.001 105.248 342.746 104.879 342.472 104.619L342.964 104.482C342.735 104.82 342.539 105.243 342.376 105.749C342.226 106.242 342.086 106.794 341.958 107.405C341.83 108.016 341.69 108.655 341.54 109.321C341.401 109.974 341.222 110.622 341.003 111.267C340.885 111.663 340.749 111.988 340.594 112.24C340.438 112.479 340.264 112.652 340.071 112.76C339.88 112.881 339.658 112.951 339.405 112.97ZM357.107 111.61C356.043 111.689 355.167 111.507 354.479 111.064C353.79 110.607 353.266 109.944 352.907 109.075C352.56 108.192 352.343 107.159 352.254 105.975C352.202 105.271 352.188 104.643 352.214 104.093C352.252 103.529 352.292 102.991 352.335 102.48C352.39 101.968 352.418 101.444 352.418 100.909C352.412 100.295 352.396 99.8011 352.368 99.4288C352.34 99.0565 352.327 98.7032 352.329 98.3688C352.324 98.1284 352.382 97.9169 352.502 97.7341C352.634 97.5371 352.867 97.4262 353.199 97.4014C353.678 97.3657 354.035 97.5864 354.271 98.0635C354.508 98.5406 354.625 99.3073 354.624 100.364C354.606 100.846 354.579 101.296 354.544 101.713C354.507 102.117 354.47 102.521 354.433 102.925C354.409 103.314 354.394 103.737 354.388 104.192C354.38 104.634 354.398 105.14 354.441 105.712C354.513 106.683 354.657 107.447 354.873 108.006C355.101 108.564 355.398 108.957 355.763 109.183C356.139 109.396 356.594 109.482 357.126 109.443C357.445 109.419 357.688 109.367 357.856 109.288C358.037 109.208 358.192 109.136 358.321 109.073C358.449 108.996 358.6 108.952 358.773 108.939C359.012 108.921 359.197 108.981 359.328 109.118C359.458 109.255 359.533 109.457 359.553 109.723C359.587 110.175 359.404 110.59 359.004 110.967C358.617 111.33 357.984 111.545 357.107 111.61ZM354.234 104.283C353.822 104.501 353.497 104.532 353.258 104.376C353.019 104.22 352.888 103.983 352.864 103.664C352.84 103.345 352.886 103.06 353.001 102.811C353.128 102.548 353.464 102.295 354.008 102.054C354.343 101.895 354.701 101.755 355.079 101.633C355.458 101.511 355.845 101.409 356.24 101.326C356.648 101.242 357.031 101.187 357.39 101.16C357.736 101.134 358.019 101.16 358.239 101.237C358.458 101.314 358.628 101.436 358.747 101.6C358.865 101.752 358.933 101.948 358.951 102.187C358.97 102.439 358.905 102.638 358.755 102.783C358.619 102.927 358.405 103.023 358.115 103.072C357.546 103.154 357.038 103.252 356.592 103.366C356.159 103.478 355.755 103.609 355.378 103.757C355.015 103.904 354.633 104.08 354.234 104.283ZM361.974 111.147C361.548 111.179 361.188 111.005 360.892 110.626C360.596 110.234 360.418 109.652 360.361 108.881C360.261 107.538 360.238 106.329 360.291 105.256C360.357 104.168 360.437 103.179 360.531 102.29C360.625 101.4 360.672 100.588 360.67 99.8525C360.678 99.4108 360.655 99.018 360.603 98.6743C360.563 98.3163 360.525 97.9915 360.49 97.7C360.454 97.3952 360.432 97.1093 360.426 96.8424C360.42 96.5888 360.483 96.3568 360.615 96.1464C360.746 95.9361 360.978 95.8185 361.31 95.7937C361.643 95.7689 361.924 95.8683 362.155 96.0917C362.384 96.3019 362.558 96.6633 362.677 97.1759C362.809 97.6875 362.875 98.3979 362.876 99.307C362.864 100.043 362.811 100.856 362.717 101.746C362.636 102.634 362.567 103.595 362.511 104.629C362.466 105.648 362.495 106.756 362.598 107.952L362.032 107.352C362.525 105.711 363.008 104.391 363.481 103.393C363.969 102.394 364.455 101.663 364.942 101.199C365.442 100.733 365.965 100.481 366.51 100.44C367.135 100.393 367.635 100.55 368.009 100.91C368.383 101.256 368.683 101.782 368.909 102.487C369.136 103.192 369.333 104.047 369.501 105.05C369.655 105.854 369.796 106.492 369.925 106.964C370.054 107.436 370.182 107.807 370.309 108.079C370.449 108.349 370.587 108.586 370.723 108.79C370.798 108.904 370.861 109.027 370.911 109.157C370.96 109.287 370.99 109.418 371 109.551C371.021 109.83 370.945 110.07 370.773 110.27C370.601 110.47 370.355 110.582 370.036 110.606C369.65 110.635 369.298 110.487 368.98 110.163C368.661 109.826 368.386 109.372 368.157 108.801C367.939 108.215 367.771 107.579 367.653 106.893C367.512 106.074 367.383 105.415 367.265 104.916C367.147 104.404 367.029 103.991 366.912 103.679C366.794 103.353 366.653 103.07 366.488 102.828C366.239 102.9 365.911 103.246 365.502 103.864C365.106 104.469 364.687 105.309 364.246 106.385C363.818 107.46 363.406 108.747 363.01 110.247C362.915 110.589 362.785 110.819 362.62 110.938C362.455 111.057 362.24 111.127 361.974 111.147Z" fill="#590D1A"/>
<path d="M34.5979 165.952C33.5874 166.028 32.8171 165.918 32.287 165.623C31.756 165.315 31.4726 164.922 31.4369 164.443C31.4191 164.204 31.4655 164.02 31.5762 163.891C31.686 163.75 31.8672 163.669 32.1198 163.65C32.2927 163.637 32.4404 163.647 32.5631 163.677C32.698 163.694 32.8335 163.717 32.9694 163.747C33.1186 163.776 33.2878 163.804 33.4769 163.83C33.6784 163.842 33.9253 163.837 34.2179 163.815C34.9226 163.762 35.5384 163.683 36.0653 163.577C36.6055 163.47 37.0639 163.342 37.4406 163.193C37.8296 163.031 38.1572 162.853 38.4235 162.659C38.319 162.332 38.0778 162.056 37.6999 161.83C37.3221 161.604 36.8588 161.398 36.3101 161.212C35.7614 161.026 35.1922 160.834 34.6026 160.637C34.0253 160.426 33.4793 160.186 32.9645 159.917C32.4498 159.648 32.017 159.313 31.6661 158.911C31.3276 158.495 31.136 157.988 31.0914 157.39C31.0418 156.725 31.1818 156.093 31.5115 155.493C31.8544 154.893 32.3149 154.343 32.8928 153.846C33.4697 153.335 34.0987 152.893 34.7796 152.522C35.4605 152.15 36.1269 151.853 36.7788 151.631C37.4441 151.407 38.0227 151.277 38.5146 151.24C38.8337 151.217 39.0903 151.251 39.2844 151.343C39.4785 151.436 39.6219 151.566 39.7145 151.733C39.8072 151.899 39.8615 152.089 39.8774 152.302C39.8962 152.555 39.8389 152.773 39.7056 152.957C39.5722 153.14 39.3351 153.278 38.9944 153.371C37.788 153.688 36.7532 154.066 35.8901 154.505C35.0393 154.929 34.391 155.379 33.945 155.853C33.5114 156.313 33.3114 156.769 33.3451 157.221C33.3689 157.541 33.5564 157.814 33.9077 158.042C34.2712 158.255 34.7212 158.463 35.2576 158.663C35.8063 158.85 36.3826 159.047 36.9865 159.256C37.6027 159.451 38.182 159.689 38.7243 159.969C39.28 160.248 39.7399 160.589 40.104 160.989C40.4672 161.377 40.6706 161.863 40.7142 162.448C40.7519 162.953 40.6255 163.41 40.3352 163.82C40.0448 164.229 39.6232 164.582 39.0703 164.877C38.5164 165.159 37.8588 165.395 37.0975 165.586C36.3353 165.763 35.502 165.885 34.5979 165.952ZM46.5479 165.081C45.6836 165.146 44.919 165.022 44.254 164.711C43.6023 164.399 43.0485 163.965 42.5927 163.411C42.1492 162.842 41.8005 162.2 41.5465 161.483C41.2925 160.767 41.1382 160.043 41.0837 159.312C41.0361 158.673 41.039 158.085 41.0924 157.546C41.1581 156.993 41.2719 156.456 41.4337 155.936C41.4976 155.718 41.5982 155.543 41.7355 155.412C41.8729 155.282 42.0679 155.207 42.3205 155.188C42.6396 155.165 42.9135 155.251 43.1421 155.448C43.3707 155.645 43.4979 155.916 43.5236 156.262C43.5395 156.475 43.5278 156.676 43.4885 156.866C43.4615 157.042 43.4227 157.239 43.3721 157.456C43.3347 157.673 43.2999 157.923 43.2675 158.206C43.2475 158.475 43.2523 158.809 43.2821 159.208C43.3267 159.806 43.4272 160.347 43.5835 160.83C43.7532 161.312 43.9711 161.724 44.2372 162.065C44.5156 162.392 44.8346 162.635 45.1942 162.796C45.5538 162.956 45.9463 163.02 46.3718 162.989C46.8904 162.95 47.3148 162.724 47.645 162.312C47.9743 161.886 48.2042 161.294 48.3348 160.536C48.4654 159.777 48.4926 158.886 48.4162 157.862C48.3904 157.517 48.3553 157.225 48.3109 156.988C48.2798 156.749 48.2439 156.538 48.2035 156.354C48.1753 156.156 48.1533 155.95 48.1374 155.737C48.1136 155.418 48.1551 155.168 48.2619 154.986C48.3687 154.804 48.575 154.702 48.8808 154.679C49.1866 154.656 49.4528 154.73 49.6794 154.9C49.9051 155.057 50.0869 155.345 50.225 155.762C50.3754 156.165 50.4779 156.733 50.5325 157.464C50.6544 159.099 50.5694 160.469 50.2774 161.574C49.9845 162.666 49.5192 163.509 48.8818 164.105C48.2433 164.687 47.4654 165.013 46.5479 165.081ZM56.8338 164.294C55.8499 164.368 54.9912 164.238 54.2577 163.905C53.5242 163.572 52.9461 163.08 52.5232 162.43C52.0993 161.766 51.8537 160.982 51.7863 160.078C51.7268 159.28 51.8308 158.524 52.0983 157.808C52.3792 157.092 52.7862 156.454 53.3192 155.892C53.8513 155.318 54.4721 154.857 55.1816 154.51C55.9044 154.162 56.6846 153.957 57.5223 153.894C57.8414 153.87 58.1307 153.896 58.3903 153.97C58.6499 154.044 58.8607 154.182 59.0229 154.384C59.1973 154.572 59.2974 154.838 59.3232 155.184C59.347 155.503 59.2942 155.781 59.1648 156.018C59.0477 156.241 58.8495 156.362 58.5703 156.383C58.4107 156.395 58.2886 156.371 58.2038 156.31C58.1191 156.25 58.0216 156.197 57.9112 156.152C57.8142 156.105 57.6526 156.091 57.4266 156.107C56.7219 156.16 56.1027 156.373 55.5691 156.747C55.0477 157.107 54.6416 157.579 54.3509 158.162C54.0724 158.731 53.959 159.361 54.0105 160.052C54.0442 160.505 54.1671 160.896 54.379 161.228C54.5909 161.56 54.8905 161.812 55.2776 161.984C55.6638 162.142 56.1295 162.201 56.6747 162.16C57.2464 162.118 57.6802 162.018 57.9761 161.863C58.272 161.707 58.4938 161.543 58.6415 161.372C58.7881 161.187 58.9235 161.03 59.0475 160.9C59.1706 160.757 59.3385 160.678 59.5512 160.662C59.7772 160.645 59.9556 160.705 60.0861 160.843C60.23 160.979 60.3123 161.187 60.3332 161.466C60.3699 161.958 60.2364 162.409 59.9327 162.82C59.6424 163.229 59.2264 163.568 58.6848 163.835C58.1555 164.089 57.5385 164.242 56.8338 164.294ZM65.7504 163.629C64.7665 163.703 63.9078 163.573 63.1743 163.24C62.4409 162.907 61.8627 162.415 61.4398 161.765C61.016 161.101 60.7703 160.317 60.7029 159.413C60.6434 158.615 60.7474 157.859 61.015 157.143C61.2958 156.427 61.7028 155.789 62.2359 155.227C62.768 154.653 63.3887 154.192 64.0982 153.845C64.821 153.497 65.6012 153.292 66.4389 153.229C66.758 153.205 67.0474 153.231 67.307 153.305C67.5665 153.379 67.7774 153.517 67.9395 153.719C68.1139 153.907 68.214 154.173 68.2398 154.519C68.2636 154.838 68.2108 155.116 68.0814 155.353C67.9643 155.576 67.7661 155.697 67.4869 155.718C67.3274 155.73 67.2052 155.706 67.1205 155.645C67.0357 155.585 66.9382 155.532 66.8279 155.487C66.7308 155.44 66.5693 155.426 66.3433 155.443C65.6385 155.495 65.0194 155.708 64.4857 156.082C63.9643 156.442 63.5583 156.914 63.2675 157.497C62.9891 158.066 62.8756 158.696 62.9272 159.387C62.9609 159.84 63.0837 160.232 63.2956 160.563C63.5076 160.895 63.8071 161.147 64.1943 161.319C64.5805 161.477 65.0461 161.536 65.5913 161.495C66.163 161.453 66.5969 161.353 66.8928 161.198C67.1887 161.042 67.4104 160.878 67.5581 160.707C67.7048 160.522 67.8401 160.365 67.9642 160.235C68.0872 160.092 68.2551 160.013 68.4679 159.997C68.6939 159.98 68.8722 160.04 69.0028 160.178C69.1466 160.314 69.229 160.522 69.2498 160.801C69.2865 161.293 69.153 161.744 68.8494 162.155C68.559 162.564 68.143 162.903 67.6014 163.17C67.0722 163.424 66.4552 163.577 65.7504 163.629ZM74.6273 162.987C73.8428 163.046 73.1567 162.99 72.5691 162.82C71.9815 162.65 71.4867 162.379 71.0847 162.008C70.6826 161.637 70.3687 161.192 70.1429 160.674C69.9303 160.155 69.8003 159.577 69.7527 158.939C69.7011 158.247 69.7759 157.546 69.977 156.836C70.1903 156.112 70.515 155.446 70.9511 154.838C71.3861 154.217 71.9232 153.709 72.5622 153.314C73.2135 152.905 73.9514 152.669 74.7758 152.608C75.4539 152.557 76.0479 152.633 76.5577 152.836C77.0798 153.024 77.4978 153.34 77.8117 153.785C78.1257 154.23 78.3089 154.804 78.3615 155.509C78.4021 156.054 78.312 156.549 78.0911 156.993C77.8692 157.424 77.536 157.797 77.0914 158.111C76.6602 158.424 76.1508 158.675 75.5634 158.866C74.975 159.044 74.3284 159.159 73.6237 159.212C72.8525 159.269 72.2856 159.198 71.9231 158.997C71.5728 158.783 71.3868 158.529 71.365 158.237C71.3531 158.077 71.384 157.955 71.4579 157.869C71.5307 157.77 71.6668 157.713 71.8663 157.698C72.0125 157.687 72.194 157.7 72.4107 157.738C72.6265 157.762 72.9271 157.759 73.3127 157.731C73.911 157.686 74.4375 157.573 74.8919 157.392C75.3454 157.198 75.7018 156.957 75.9612 156.671C76.2196 156.371 76.3359 156.048 76.3102 155.702C76.2804 155.303 76.1584 155.011 75.9441 154.827C75.7297 154.642 75.3899 154.567 74.9245 154.602C74.4325 154.639 73.996 154.792 73.615 155.061C73.233 155.316 72.9039 155.655 72.6278 156.077C72.3651 156.498 72.1727 156.967 72.0509 157.484C71.929 158.001 71.8884 158.532 71.929 159.077C71.9598 159.489 72.0607 159.856 72.2317 160.178C72.4028 160.499 72.6548 160.741 72.9878 160.903C73.3341 161.065 73.7864 161.125 74.3449 161.083C75.0895 161.028 75.7018 160.902 76.1819 160.705C76.662 160.509 77.0608 160.299 77.3783 160.075C77.6948 159.837 77.9602 159.63 78.1743 159.454C78.4018 159.276 78.6219 159.18 78.8346 159.164C79.034 159.149 79.1786 159.205 79.2683 159.332C79.3703 159.445 79.4312 159.634 79.451 159.9C79.4729 160.193 79.3627 160.508 79.1206 160.847C78.8917 161.185 78.5546 161.504 78.109 161.805C77.6768 162.105 77.1613 162.364 76.5625 162.582C75.9771 162.8 75.332 162.935 74.6273 162.987ZM83.1708 162.35C82.4926 162.401 81.9277 162.356 81.4761 162.216C81.0244 162.076 80.6823 161.881 80.4497 161.631C80.2304 161.38 80.1094 161.101 80.0866 160.795C80.0697 160.569 80.1223 160.378 80.2444 160.222C80.3797 160.065 80.5804 159.976 80.8463 159.956C80.9926 159.946 81.1209 159.963 81.2312 160.008C81.3548 160.052 81.4856 160.103 81.6235 160.159C81.7747 160.215 81.9521 160.262 82.1555 160.3C82.3722 160.337 82.6467 160.344 82.9792 160.319C83.8035 160.257 84.4946 160.112 85.0525 159.883C85.6227 159.64 86.0054 159.304 86.2007 158.875C86.0745 158.617 85.8464 158.427 85.5164 158.305C85.1864 158.182 84.798 158.084 84.3513 158.01C83.9046 157.937 83.4374 157.858 82.9498 157.774C82.4745 157.676 82.0238 157.549 81.5978 157.393C81.184 157.224 80.8389 156.989 80.5625 156.689C80.286 156.388 80.129 155.985 80.0913 155.48C80.0526 154.962 80.1708 154.485 80.4459 154.05C80.721 153.615 81.1008 153.239 81.5852 152.922C82.0696 152.605 82.6122 152.351 83.213 152.159C83.8137 151.967 84.4204 151.855 85.033 151.823C85.6589 151.789 86.1352 151.901 86.4618 152.157C86.8018 152.413 86.9846 152.713 87.0104 153.059C87.0283 153.298 86.9762 153.496 86.8541 153.652C86.7453 153.807 86.5646 153.894 86.312 153.913C86.1923 153.922 86.0788 153.924 85.9715 153.919C85.8774 153.912 85.7705 153.914 85.6509 153.922C85.5302 153.918 85.3701 153.923 85.1707 153.938C84.4261 153.994 83.7892 154.148 83.2599 154.402C82.7296 154.642 82.3469 154.978 82.1117 155.41C82.2093 155.643 82.4231 155.821 82.7531 155.944C83.0832 156.066 83.4715 156.164 83.9182 156.238C84.3783 156.31 84.8521 156.389 85.3397 156.473C85.8405 156.556 86.3045 156.681 86.7316 156.85C87.171 157.005 87.5355 157.231 87.8252 157.531C88.115 157.83 88.2782 158.226 88.3148 158.718C88.3704 159.462 88.17 160.092 87.7137 160.608C87.2575 161.123 86.6322 161.524 85.838 161.81C85.0438 162.097 84.1547 162.277 83.1708 162.35ZM91.99 161.693C91.3119 161.743 90.747 161.698 90.2953 161.558C89.8437 161.418 89.5015 161.223 89.269 160.973C89.0497 160.722 88.9286 160.443 88.9058 160.138C88.889 159.912 88.9416 159.72 89.0636 159.564C89.199 159.407 89.3996 159.319 89.6656 159.299C89.8118 159.288 89.9401 159.305 90.0505 159.35C90.1741 159.395 90.3049 159.445 90.4428 159.502C90.594 159.557 90.7713 159.604 90.9747 159.642C91.1914 159.68 91.466 159.686 91.7984 159.661C92.6228 159.6 93.3139 159.455 93.8718 159.226C94.4419 158.983 94.8247 158.647 95.02 158.218C94.8938 157.96 94.6657 157.769 94.3356 157.647C94.0056 157.524 93.6173 157.426 93.1705 157.353C92.7238 157.279 92.2567 157.2 91.7691 157.116C91.2938 157.018 90.8431 156.891 90.417 156.736C90.0033 156.566 89.6582 156.331 89.3817 156.031C89.1053 155.731 88.9483 155.328 88.9106 154.823C88.8719 154.304 88.9901 153.827 89.2652 153.392C89.5403 152.957 89.92 152.581 90.4045 152.264C90.8889 151.947 91.4315 151.693 92.0322 151.501C92.6329 151.309 93.2396 151.197 93.8522 151.165C94.2644 151.134 94.6151 151.175 94.9042 151.287C95.1934 151.399 95.4124 151.557 95.5612 151.759C95.7233 151.961 95.8128 152.175 95.8297 152.401C95.8475 152.641 95.7954 152.838 95.6734 152.995C95.5646 153.15 95.3839 153.237 95.1313 153.256C95.0116 153.264 94.8981 153.266 94.7907 153.261C94.6967 153.255 94.5898 153.256 94.4701 153.265C94.3495 153.26 94.1894 153.266 93.99 153.28C93.2454 153.336 92.6084 153.49 92.0791 153.744C91.5489 153.984 91.1661 154.32 90.9309 154.752C91.0286 154.985 91.2424 155.163 91.5724 155.286C91.9024 155.408 92.2908 155.506 92.7375 155.58C93.1975 155.653 93.6713 155.731 94.1589 155.815C94.6598 155.898 95.1238 156.024 95.5508 156.192C95.9902 156.347 96.3548 156.574 96.6445 156.873C96.9342 157.172 97.0974 157.568 97.1341 158.06C97.1896 158.804 96.9893 159.434 96.533 159.95C96.0767 160.465 95.4515 160.866 94.6572 161.153C93.863 161.439 92.9739 161.619 91.99 161.693Z" fill="#590D1A"/>
<path d="M16.1959 43.3446C15.8369 43.3714 15.5303 43.294 15.2761 43.1124C15.0361 42.9431 14.7944 42.6603 14.551 42.264C14.3839 41.9957 14.2037 41.6414 14.0104 41.2012C13.8295 40.7468 13.6467 40.1788 13.4622 39.4973C13.2767 38.8025 13.1201 37.9585 12.9926 36.9652L13.7469 37.1296C13.2737 38.3147 12.7357 39.2573 12.1327 39.9574C11.5298 40.6575 10.8925 41.1663 10.221 41.4838C9.54937 41.8013 8.85458 41.9868 8.13657 42.0404C7.24571 42.1068 6.44069 41.9797 5.72152 41.6589C5.01564 41.3372 4.44263 40.8251 4.0025 40.1225C3.56236 39.42 3.30164 38.5235 3.22033 37.4332C3.14795 36.4626 3.24375 35.5062 3.50774 34.5639C3.77174 33.6217 4.167 32.7365 4.69354 31.9084C5.21909 31.067 5.83185 30.3193 6.53183 29.6655C7.2451 29.0106 8.02148 28.4847 8.86096 28.0879C9.70044 27.691 10.5523 27.4604 11.4166 27.3959C11.9351 27.3572 12.3528 27.3996 12.6695 27.5231C12.9995 27.6455 13.2471 27.8276 13.4122 28.0694C13.5773 28.3111 13.6717 28.5915 13.6955 28.9106C13.7263 29.3228 13.6876 29.7001 13.5794 30.0424C13.4712 30.3847 13.3044 30.6579 13.0789 30.8619C12.8668 31.0649 12.6211 31.1768 12.3419 31.1976C12.1557 31.2115 12.0326 31.1739 11.9724 31.0848C11.9113 30.9824 11.8753 30.858 11.8644 30.7118C11.8525 30.5522 11.8345 30.3998 11.8103 30.2545C11.7861 30.1093 11.7234 29.9869 11.6224 29.8875C11.5214 29.7881 11.3513 29.7473 11.1119 29.7651C10.5269 29.8088 9.95225 29.992 9.38803 30.3148C8.82282 30.6244 8.29829 31.0312 7.81443 31.5353C7.33058 32.0393 6.91152 32.6054 6.55724 33.2335C6.20297 33.8615 5.93046 34.5103 5.73971 35.1796C5.56226 35.848 5.49733 36.5013 5.54493 37.1396C5.61831 38.1235 5.88559 38.8389 6.34677 39.2859C6.80795 39.7328 7.38425 39.9305 8.07566 39.8789C8.74048 39.8294 9.34121 39.6375 9.87784 39.3033C10.4268 38.9549 10.9259 38.4764 11.3752 37.868C11.8379 37.2586 12.244 36.5196 12.5938 35.6512C12.7674 35.2906 12.969 35.0349 13.1984 34.8841C13.4278 34.7333 13.7287 34.644 14.101 34.6163C14.3669 34.5964 14.5723 34.6613 14.7172 34.811C14.8743 34.9463 14.9633 35.1536 14.9841 35.4329C15.0496 36.3104 15.1413 37.0924 15.2594 37.7789C15.3897 38.451 15.5545 39.0471 15.7537 39.5671C15.953 40.087 16.1768 40.5784 16.4252 41.0412C16.5657 41.3115 16.6756 41.5306 16.755 41.6985C16.8344 41.8664 16.8852 42.0097 16.9074 42.1284C16.9429 42.246 16.9651 42.3647 16.9741 42.4844C16.9929 42.737 16.9275 42.9358 16.7779 43.0806C16.6425 43.2378 16.4485 43.3258 16.1959 43.3446ZM9.74642 36.4652C9.41401 36.49 9.13449 36.4173 8.90786 36.247C8.69354 36.0624 8.57498 35.8172 8.55218 35.5114C8.53433 35.2721 8.60588 35.0662 8.76683 34.8937C8.9268 34.708 9.25445 34.5298 9.7498 34.3591C10.6105 34.0677 11.488 33.8217 12.3822 33.6213C13.2898 33.42 14.2283 33.2764 15.198 33.1907C15.6634 33.156 16.0121 33.1701 16.244 33.2331C16.4893 33.295 16.6573 33.3961 16.748 33.5364C16.852 33.6757 16.9119 33.8518 16.9278 34.0645C16.9486 34.3437 16.8682 34.6105 16.6866 34.8647C16.505 35.1189 16.1948 35.2623 15.756 35.2951C14.6125 35.3803 13.653 35.5121 12.8775 35.6902C12.1152 35.8674 11.4859 36.0347 10.9895 36.192C10.5065 36.3484 10.0921 36.4394 9.74642 36.4652ZM20.1359 41.1857C19.8966 41.2035 19.6784 41.1462 19.4813 41.0139C19.2976 40.8805 19.1431 40.6915 19.0179 40.4468C18.905 40.1878 18.8361 39.8921 18.8113 39.5597C18.7449 38.6688 18.662 37.826 18.5626 37.0312C18.4765 36.2354 18.3688 35.508 18.2394 34.8491C18.1101 34.1903 17.9621 33.6398 17.7954 33.1976C17.6652 32.8864 17.5742 32.6525 17.5224 32.4959C17.483 32.3251 17.4563 32.1466 17.4424 31.9604C17.4246 31.7211 17.4828 31.5162 17.6172 31.3457C17.7515 31.1753 17.9783 31.0781 18.2974 31.0543C18.5766 31.0335 18.8367 31.1144 19.0776 31.297C19.3185 31.4796 19.5371 31.8109 19.7333 32.291C19.9286 32.7577 20.0978 33.4136 20.2411 34.2587C20.3976 35.1027 20.5183 36.1834 20.6032 37.5007L19.7602 37.2226C19.8211 36.0682 19.9942 35.0726 20.2795 34.2357C20.578 33.3979 20.9411 32.709 21.3688 32.169C21.8098 31.628 22.2806 31.2186 22.7813 30.9405C23.2821 30.6625 23.785 30.5047 24.2903 30.467C24.7025 30.4363 24.9963 30.5213 25.1717 30.7222C25.3594 30.9087 25.4647 31.1549 25.4875 31.4607C25.5054 31.7001 25.442 31.9254 25.2973 32.1368C25.1649 32.3338 24.9175 32.5127 24.5551 32.6734C23.8796 32.9377 23.324 33.2867 22.8884 33.7203C22.4527 34.1539 22.1095 34.6608 21.8586 35.2411C21.621 35.8204 21.4482 36.4616 21.3402 37.165C21.2455 37.8673 21.1952 38.6265 21.1892 39.4425C21.182 39.8843 21.1408 40.2283 21.0656 40.4745C20.9904 40.7208 20.8765 40.8964 20.7239 41.0014C20.5712 41.1064 20.3753 41.1678 20.1359 41.1857ZM31.3691 40.3479C30.3187 40.4263 29.3649 40.2768 28.5078 39.8995C27.6497 39.5089 26.9526 38.9458 26.4164 38.2103C25.8925 37.4606 25.5929 36.5804 25.5176 35.5699C25.464 34.8519 25.5541 34.1766 25.7877 33.5442C26.0213 32.9117 26.334 32.3536 26.7257 31.8698C27.1298 31.3717 27.5551 30.979 28.0017 30.6916C28.4615 30.4033 28.8776 30.2453 29.2499 30.2175C29.4227 30.2046 29.5776 30.2198 29.7145 30.2631C29.8648 30.3053 29.9837 30.3767 30.0714 30.4771C30.1591 30.5775 30.2099 30.7208 30.2238 30.907C30.2496 31.2527 30.1993 31.5639 30.0729 31.8408C29.9587 32.1033 29.6959 32.3435 29.2843 32.5614C28.9145 32.8029 28.6071 33.0732 28.362 33.3723C28.1292 33.657 27.9587 33.9706 27.8505 34.3129C27.7414 34.6419 27.7012 34.9992 27.7299 35.3848C27.8023 36.3555 28.1462 37.112 28.7616 37.6544C29.3769 38.1968 30.1766 38.4313 31.1605 38.3579C31.9849 38.2965 32.6274 37.9477 33.0881 37.3117C33.5477 36.6624 33.7404 35.8391 33.666 34.8419C33.5986 33.9377 33.3261 33.2427 32.8487 32.7569C32.3702 32.2578 31.7654 32.0355 31.0341 32.09C30.6485 32.1187 30.3419 32.2218 30.1145 32.3992C29.8871 32.5766 29.6503 32.8082 29.4042 33.094C29.2196 33.3083 29.073 33.4931 28.9642 33.6482C28.8554 33.8034 28.7442 33.9254 28.6305 34.0141C28.5301 34.1018 28.3868 34.1526 28.2006 34.1665C27.9879 34.1823 27.8101 34.1287 27.6672 34.0057C27.5233 33.8693 27.438 33.6217 27.4112 33.2627C27.3874 32.9435 27.4624 32.6037 27.636 32.2431C27.8097 31.8825 28.0452 31.5441 28.3425 31.2278C28.6531 30.9105 29.008 30.65 29.4073 30.4464C29.8056 30.2295 30.2175 30.1052 30.643 30.0735C31.6535 29.9981 32.5332 30.1398 33.2819 30.4984C34.0297 30.8438 34.6241 31.3744 35.0652 32.0902C35.5064 32.806 35.7646 33.6692 35.84 34.6798C35.9143 35.677 35.769 36.597 35.404 37.4398C35.038 38.2693 34.5067 38.9441 33.8101 39.464C33.1135 39.9839 32.2999 40.2785 31.3691 40.3479ZM40.8909 39.698C40.3989 39.7347 39.9571 39.5471 39.5654 39.135C39.1869 38.722 38.8184 37.9941 38.4599 36.9512C38.2335 36.2461 38.0142 35.5471 37.8021 34.8543C37.589 34.1482 37.3594 33.4901 37.1134 32.8801C36.8796 32.2557 36.5987 31.7151 36.2704 31.2583C36.0309 30.9151 35.9084 30.6168 35.9029 30.3631C35.8973 30.1095 35.976 29.9098 36.139 29.7639C36.3142 29.6038 36.5414 29.5133 36.8207 29.4925C37.1398 29.4687 37.4254 29.5343 37.6777 29.6893C37.9289 29.831 38.2078 30.1645 38.5144 30.6898C38.8047 31.1762 39.0463 31.7265 39.2392 32.3405C39.4443 32.9402 39.631 33.5614 39.7993 34.204C39.9798 34.8323 40.1712 35.4264 40.3734 35.9862C40.5756 36.5461 40.8255 37.0288 41.1232 37.4345L40.3882 37.5294C40.5639 37.1954 40.7156 36.8097 40.8434 36.3723C40.9703 35.9217 41.0818 35.4454 41.1781 34.9435C41.2867 34.4273 41.4014 33.904 41.5223 33.3736C41.6432 32.8431 41.7722 32.3321 41.9094 31.8405C42.1876 30.9106 42.4705 30.221 42.7579 29.7717C43.0443 29.3091 43.4201 29.0605 43.8855 29.0258C44.2844 28.996 44.639 29.0899 44.9494 29.3074C45.2721 29.5107 45.5771 29.8355 45.8644 30.2821C46.1641 30.7143 46.4798 31.2724 46.8115 31.9563C47.0334 32.4211 47.2353 32.8873 47.4173 33.3551C47.5992 33.8229 47.7797 34.2707 47.9587 34.6986C48.1499 35.1122 48.3521 35.4915 48.565 35.8366C48.7912 36.1808 49.0457 36.4559 49.3285 36.6621L48.7406 36.8464C48.9511 36.4429 49.1031 35.9703 49.1964 35.4285C49.303 34.8858 49.3748 34.3255 49.412 33.7479C49.4624 33.1692 49.5134 32.5971 49.5648 32.0317C49.6295 31.4654 49.7238 30.9369 49.8477 30.4463C49.9539 30.0774 50.0896 29.7464 50.2549 29.4533C50.4193 29.1469 50.6152 28.905 50.8426 28.7276C51.0823 28.5359 51.3418 28.4296 51.621 28.4088C51.8072 28.3949 51.9764 28.4224 52.1286 28.4913C52.2808 28.5601 52.4027 28.6714 52.4944 28.825C52.5861 28.9786 52.6399 29.1618 52.6557 29.3745C52.6716 29.5873 52.6338 29.7973 52.5423 30.0047C52.4631 30.1978 52.3568 30.3862 52.2234 30.57C52.0295 30.8385 51.88 31.1638 51.7748 31.546C51.6819 31.914 51.6053 32.3208 51.5449 32.7665C51.4846 33.2122 51.4318 33.6708 51.3868 34.1421C51.3417 34.6134 51.288 35.0586 51.2257 35.4778C51.0956 36.4234 50.9492 37.1496 50.7865 37.6565C50.6227 38.15 50.4281 38.4988 50.2027 38.7028C49.9895 38.8925 49.7367 38.9982 49.4442 39.0201C49.0453 39.0498 48.684 38.9564 48.3603 38.7399C48.0357 38.5101 47.6434 38.0914 47.1837 37.4839C46.8525 36.9872 46.5444 36.4419 46.2594 35.8481C45.9745 35.2543 45.7095 34.6591 45.4644 34.0623C45.2194 33.4655 44.9721 32.9291 44.7227 32.453C44.4866 31.9759 44.2318 31.6072 43.9583 31.3468L44.4495 31.2099C44.2207 31.5478 44.0249 31.9702 43.8621 32.4771C43.7117 32.9696 43.5723 33.5215 43.4441 34.1327C43.3158 34.744 43.1763 35.3828 43.0254 36.0492C42.8869 36.7013 42.708 37.3497 42.4886 37.9945C42.3711 38.391 42.2349 38.7154 42.0799 38.9676C41.9239 39.2065 41.7496 39.38 41.5571 39.4879C41.3656 39.6091 41.1435 39.6792 40.8909 39.698ZM58.5927 38.3378C57.5289 38.4171 56.653 38.2351 55.9648 37.7917C55.2756 37.3351 54.7515 36.6722 54.3925 35.8032C54.0459 34.9198 53.8284 33.8865 53.7402 32.7031C53.6876 31.9984 53.6743 31.371 53.7001 30.8208C53.7382 30.2564 53.7783 29.7186 53.8204 29.2074C53.8758 28.6952 53.9036 28.1717 53.9039 27.6369C53.8981 27.0223 53.8814 26.5288 53.8536 26.1565C53.8259 25.7842 53.8129 25.4309 53.8147 25.0965C53.8101 24.8561 53.8679 24.6446 53.988 24.4618C54.1204 24.2648 54.3528 24.1538 54.6852 24.1291C55.1638 24.0934 55.5212 24.3141 55.7574 24.7912C55.9935 25.2682 56.1108 26.035 56.1094 27.0913C56.0919 27.574 56.0653 28.0239 56.0296 28.441C55.9928 28.8449 55.9561 29.2487 55.9194 29.6526C55.8949 30.0421 55.8796 30.4644 55.8734 30.9195C55.8663 31.3612 55.884 31.868 55.9266 32.4397C55.999 33.4104 56.143 34.1751 56.3585 34.734C56.5873 35.2919 56.8839 35.6842 57.2485 35.9111C57.6253 36.1236 58.0797 36.2101 58.6115 36.1704C58.9306 36.1466 59.1741 36.095 59.342 36.0157C59.5232 35.9353 59.6783 35.8636 59.8073 35.8005C59.9353 35.7241 60.0858 35.6794 60.2586 35.6665C60.4979 35.6487 60.6829 35.7084 60.8135 35.8458C60.9441 35.9831 61.0193 36.1847 61.0391 36.4507C61.0728 36.9027 60.8898 37.3175 60.4901 37.6949C60.1027 38.0581 59.4702 38.2724 58.5927 38.3378ZM55.7198 31.0112C55.3082 31.2291 54.983 31.26 54.744 31.104C54.5051 30.948 54.3737 30.7104 54.3499 30.3913C54.3261 30.0722 54.3718 29.788 54.4869 29.5388C54.6143 29.2752 54.9498 29.0229 55.4934 28.7818C55.8292 28.6231 56.1864 28.4828 56.5651 28.361C56.9437 28.2391 57.3305 28.1368 57.7255 28.0538C58.1337 27.9699 58.5173 27.9146 58.8763 27.8878C59.222 27.862 59.5047 27.8877 59.7244 27.9649C59.9441 28.0421 60.1135 28.1632 60.2328 28.3281C60.3511 28.4797 60.4191 28.6752 60.437 28.9146C60.4558 29.1672 60.3904 29.3659 60.2408 29.5108C60.1044 29.6547 59.891 29.7508 59.6005 29.7992C59.0317 29.8817 58.5242 29.9798 58.0781 30.0932C57.6453 30.2057 57.2405 30.3362 56.8638 30.4846C56.5005 30.6321 56.1191 30.8076 55.7198 31.0112ZM63.4598 37.8746C63.0343 37.9063 62.6737 37.7326 62.3781 37.3536C62.0814 36.9612 61.9043 36.3794 61.8468 35.6083C61.7467 34.2653 61.7234 33.057 61.777 31.9834C61.843 30.8955 61.923 29.9068 62.0171 29.0173C62.1112 28.1279 62.1576 27.3155 62.1563 26.5802C62.1634 26.1385 62.1408 25.7457 62.0885 25.402C62.0484 25.044 62.0108 24.7192 61.9757 24.4277C61.9396 24.1229 61.9183 23.837 61.9117 23.5701C61.9062 23.3165 61.9691 23.0845 62.1005 22.8741C62.2319 22.6638 62.4638 22.5462 62.7962 22.5214C63.1286 22.4966 63.4101 22.596 63.6407 22.8194C63.8703 23.0296 64.0443 23.391 64.1628 23.9036C64.2945 24.4152 64.3609 25.1256 64.3618 26.0347C64.3499 26.771 64.2968 27.5838 64.2027 28.4733C64.1219 29.3618 64.0532 30.3229 63.9966 31.3566C63.9523 32.3761 63.9814 33.4836 64.0839 34.6793L63.5178 34.0798C64.0104 32.4386 64.4936 31.119 64.9674 30.121C65.4544 29.122 65.9414 28.3904 66.4282 27.9263C66.9283 27.4611 67.451 27.2082 67.9961 27.1676C68.621 27.121 69.1207 27.2776 69.4952 27.6374C69.8687 27.9839 70.1686 28.5097 70.395 29.2148C70.6214 29.9199 70.8188 30.7743 70.9873 31.7779C71.1408 32.582 71.282 33.22 71.4108 33.6917C71.5395 34.1634 71.6675 34.5349 71.7947 34.8062C71.9352 35.0765 72.0732 35.3136 72.2087 35.5174C72.2841 35.6321 72.3468 35.7545 72.3966 35.8845C72.4464 36.0144 72.4762 36.1459 72.4861 36.2789C72.507 36.5581 72.4312 36.7977 72.259 36.9978C72.0867 37.1978 71.841 37.3097 71.5219 37.3335C71.1363 37.3623 70.7844 37.2147 70.4661 36.8908C70.1468 36.5536 69.8722 36.0994 69.6424 35.5283C69.425 34.9428 69.2572 34.3069 69.1392 33.6204C68.9979 32.802 68.8686 32.1431 68.7511 31.6438C68.6326 31.1312 68.515 30.7188 68.3981 30.4066C68.2802 30.0812 68.1388 29.7976 67.9737 29.5558C67.725 29.6279 67.3964 29.9733 66.988 30.592C66.5918 31.1965 66.1732 32.0366 65.732 33.1124C65.304 34.1872 64.892 35.4748 64.4958 36.975C64.4009 37.3164 64.271 37.5467 64.1061 37.6659C63.9412 37.7852 63.7257 37.8547 63.4598 37.8746Z" fill="#590D1A"/>
<path d="M139.636 55.6063C139.317 55.6301 139.014 55.5123 138.727 55.2529C138.441 54.9935 138.195 54.4837 137.992 53.7234C137.864 53.2649 137.751 52.7452 137.655 52.1641C137.557 51.5697 137.472 50.8742 137.399 50.0774C137.339 49.2796 137.296 48.3468 137.27 47.2792C137.244 46.2115 137.238 44.9685 137.253 43.5501C137.255 43.2157 137.328 42.9429 137.473 42.7315C137.617 42.5202 137.823 42.4046 138.089 42.3848C138.594 42.3471 138.953 42.5008 139.166 42.8459C139.379 43.191 139.491 43.8044 139.504 44.6859C139.518 46.1289 139.556 47.3627 139.619 48.3876C139.682 49.4124 139.76 50.2756 139.852 50.9774C139.945 51.6791 140.035 52.2607 140.123 52.7221C140.21 53.1702 140.284 53.539 140.346 53.8286C140.407 54.1048 140.445 54.3493 140.461 54.5621C140.488 54.9211 140.427 55.1797 140.278 55.3378C140.129 55.496 139.915 55.5855 139.636 55.6063ZM141.627 43.3042C140.895 43.3587 140.231 43.4083 139.632 43.4529C139.034 43.4975 138.462 43.5335 137.916 43.5609C137.369 43.5882 136.823 43.6156 136.277 43.643C135.743 43.656 135.169 43.6654 134.554 43.6711C134.021 43.6842 133.603 43.6418 133.302 43.544C133.013 43.4451 132.803 43.3071 132.669 43.1299C132.549 42.9516 132.48 42.7429 132.462 42.5035C132.445 42.2775 132.504 42.0792 132.638 41.9088C132.786 41.7373 133.032 41.6387 133.378 41.6129C134.083 41.5604 134.722 41.5261 135.296 41.51C135.869 41.4807 136.409 41.4605 136.916 41.4494C137.422 41.425 137.928 41.4006 138.435 41.3762C138.941 41.3519 139.486 41.3178 140.071 41.2742C140.617 41.2336 141.054 41.1875 141.385 41.1362C141.714 41.0715 142.018 41.0154 142.295 40.968C142.571 40.9073 142.875 40.8646 143.208 40.8398C143.514 40.817 143.745 40.8732 143.902 41.0086C144.06 41.1439 144.147 41.3246 144.163 41.5507C144.19 41.9097 144.079 42.2188 143.831 42.4779C143.596 42.7228 143.276 42.9138 142.871 43.0509C142.48 43.187 142.066 43.2715 141.627 43.3042ZM146.647 54.9832C146.354 55.005 146.095 54.9374 145.869 54.7804C145.643 54.6102 145.457 54.3566 145.311 54.0198C145.165 53.6698 145.072 53.2354 145.034 52.7169C144.933 51.374 144.91 50.1657 144.964 49.092C145.03 48.0041 145.11 47.0154 145.204 46.126C145.298 45.2365 145.344 44.4241 145.343 43.6889C145.35 43.2471 145.328 42.8544 145.275 42.5107C145.235 42.1526 145.198 41.8279 145.162 41.5363C145.126 41.2315 145.105 40.9456 145.098 40.6787C145.093 40.4251 145.156 40.1931 145.287 39.9828C145.419 39.7724 145.651 39.6548 145.983 39.63C146.315 39.6053 146.597 39.7046 146.827 39.9281C147.057 40.1382 147.231 40.4996 147.349 41.0122C147.481 41.5239 147.548 42.2342 147.549 43.1433C147.537 43.8796 147.484 44.6925 147.389 45.5819C147.309 46.4704 147.24 47.4315 147.183 48.4652C147.139 49.4847 147.168 50.5923 147.271 51.7879L146.704 51.1884C147.197 49.5472 147.68 48.2276 148.154 47.2296C148.641 46.2306 149.128 45.4991 149.615 45.0349C150.115 44.5698 150.638 44.3169 151.183 44.2762C151.808 44.2296 152.307 44.3862 152.682 44.746C153.055 45.0925 153.355 45.6184 153.582 46.3235C153.808 47.0286 154.006 47.8829 154.174 48.8865C154.328 49.6907 154.469 50.3286 154.597 50.8003C154.726 51.2721 154.854 51.6436 154.981 51.9149C155.122 52.1852 155.26 52.4222 155.395 52.626C155.471 52.7407 155.533 52.8631 155.583 52.9931C155.633 53.1231 155.663 53.2546 155.673 53.3875C155.694 53.6667 155.618 53.9064 155.446 54.1064C155.273 54.3064 155.028 54.4183 154.709 54.4421C154.323 54.4709 153.971 54.3233 153.653 53.9994C153.333 53.6623 153.059 53.2081 152.829 52.6369C152.612 52.0515 152.444 51.4155 152.326 50.7291C152.185 49.9106 152.055 49.2518 151.938 48.7525C151.819 48.2398 151.702 47.8274 151.585 47.5153C151.467 47.1898 151.325 46.9062 151.16 46.6645C150.912 46.7365 150.583 47.0819 150.175 47.7007C149.779 48.3051 149.36 49.1453 148.919 50.221C148.491 51.2958 148.079 52.5834 147.683 54.0837C147.588 54.425 147.458 54.6553 147.293 54.7746C147.128 54.8938 146.912 54.9634 146.647 54.9832ZM160.988 53.9538C159.937 54.0322 159.059 53.9105 158.353 53.5887C157.66 53.2527 157.129 52.7708 156.761 52.1431C156.393 51.5021 156.177 50.7561 156.113 49.9051C156.062 49.2137 156.136 48.5129 156.337 47.8026C156.551 47.0781 156.876 46.4121 157.312 45.8046C157.747 45.1839 158.284 44.6759 158.923 44.2806C159.574 43.871 160.312 43.6355 161.136 43.574C162.147 43.4987 162.978 43.7041 163.629 44.1904C164.279 44.6633 164.644 45.425 164.722 46.4754C164.777 47.2067 164.603 47.8347 164.201 48.3594C163.799 48.8841 163.228 49.301 162.489 49.6102C161.75 49.9193 160.915 50.1086 159.984 50.178C159.213 50.2355 158.646 50.1641 158.284 49.9639C157.933 49.7493 157.747 49.4958 157.726 49.2033C157.714 49.0437 157.745 48.9211 157.818 48.8354C157.891 48.7363 158.027 48.6794 158.227 48.6645C158.373 48.6536 158.555 48.6668 158.771 48.7041C158.987 48.7282 159.288 48.7258 159.673 48.697C160.272 48.6524 160.798 48.5396 161.252 48.3586C161.706 48.1644 162.062 47.9239 162.322 47.6371C162.58 47.3371 162.696 47.0142 162.671 46.6685C162.641 46.2696 162.519 45.9779 162.305 45.7933C162.09 45.6087 161.75 45.5338 161.285 45.5685C160.647 45.6161 160.09 45.8582 159.614 46.2948C159.152 46.7303 158.799 47.2848 158.555 47.9581C158.324 48.6172 158.235 49.3124 158.29 50.0437C158.32 50.4558 158.421 50.8227 158.592 51.1442C158.763 51.4657 159.015 51.7076 159.348 51.87C159.695 52.0313 160.147 52.0912 160.705 52.0496C161.45 51.994 162.062 51.8681 162.542 51.6719C163.022 51.4756 163.421 51.2654 163.739 51.0412C164.055 50.8036 164.321 50.5967 164.535 50.4203C164.762 50.2428 164.982 50.1462 165.195 50.1303C165.395 50.1155 165.539 50.1715 165.629 50.2986C165.731 50.4113 165.792 50.6006 165.812 50.8665C165.833 51.1591 165.723 51.4748 165.481 51.8137C165.252 52.1517 164.915 52.471 164.47 52.7716C164.037 53.0713 163.522 53.3303 162.923 53.5488C162.338 53.7663 161.693 53.9013 160.988 53.9538ZM172.247 53.1543C171.197 53.2326 170.243 53.0831 169.386 52.7058C168.528 52.3152 167.831 51.7522 167.295 51.0167C166.771 50.2669 166.471 49.3867 166.396 48.3762C166.342 47.6582 166.432 46.983 166.666 46.3505C166.899 45.7181 167.212 45.1599 167.604 44.6761C168.008 44.178 168.433 43.7853 168.88 43.498C169.34 43.2096 169.756 43.0516 170.128 43.0238C170.301 43.0109 170.456 43.0261 170.593 43.0694C170.743 43.1117 170.862 43.183 170.95 43.2834C171.037 43.3839 171.088 43.5271 171.102 43.7133C171.128 44.059 171.077 44.3703 170.951 44.6471C170.837 44.9097 170.574 45.1499 170.162 45.3678C169.793 45.6093 169.485 45.8795 169.24 46.1786C169.007 46.4634 168.837 46.7769 168.729 47.1192C168.619 47.4483 168.579 47.8056 168.608 48.1912C168.68 49.1618 169.024 49.9183 169.64 50.4607C170.255 51.0031 171.055 51.2376 172.039 51.1643C172.863 51.1028 173.506 50.754 173.966 50.118C174.426 49.4687 174.618 48.6454 174.544 47.6482C174.477 46.7441 174.204 46.0491 173.727 45.5632C173.248 45.0641 172.643 44.8418 171.912 44.8963C171.527 44.9251 171.22 45.0282 170.993 45.2056C170.765 45.383 170.528 45.6145 170.282 45.9003C170.098 46.1146 169.951 46.2994 169.842 46.4546C169.734 46.6098 169.622 46.7317 169.509 46.8204C169.408 46.9081 169.265 46.9589 169.079 46.9728C168.866 46.9887 168.688 46.9351 168.545 46.812C168.401 46.6757 168.316 46.428 168.289 46.069C168.266 45.7499 168.34 45.41 168.514 45.0494C168.688 44.6889 168.923 44.3504 169.221 44.0341C169.531 43.7168 169.886 43.4563 170.285 43.2527C170.684 43.0359 171.096 42.9115 171.521 42.8798C172.532 42.8045 173.411 42.9461 174.16 43.3047C174.908 43.6501 175.502 44.1807 175.943 44.8965C176.384 45.6124 176.643 46.4756 176.718 47.4861C176.792 48.4833 176.647 49.4033 176.282 50.2461C175.916 51.0757 175.385 51.7504 174.688 52.2703C173.992 52.7902 173.178 53.0849 172.247 53.1543ZM180.211 52.5604C179.971 52.5782 179.753 52.521 179.556 52.3886C179.372 52.2552 179.218 52.0662 179.093 51.8215C178.98 51.5625 178.911 51.2668 178.886 50.9344C178.82 50.0435 178.737 49.2007 178.637 48.4059C178.551 47.6101 178.444 46.8828 178.314 46.2239C178.185 45.565 178.037 45.0145 177.87 44.5723C177.74 44.2612 177.649 44.0273 177.597 43.8707C177.558 43.6998 177.531 43.5213 177.517 43.3352C177.499 43.0958 177.558 42.8909 177.692 42.7205C177.826 42.55 178.053 42.4529 178.372 42.4291C178.651 42.4082 178.911 42.4891 179.152 42.6717C179.393 42.8543 179.612 43.1856 179.808 43.6657C180.003 44.1325 180.173 44.7884 180.316 45.6334C180.472 46.4774 180.593 47.5581 180.678 48.8754L179.835 48.5974C179.896 47.443 180.069 46.4473 180.354 45.6105C180.653 44.7726 181.016 44.0837 181.444 43.5437C181.885 43.0028 182.355 42.5933 182.856 42.3153C183.357 42.0373 183.86 41.8794 184.365 41.8418C184.777 41.811 185.071 41.8961 185.247 42.0969C185.434 42.2835 185.54 42.5297 185.562 42.8355C185.58 43.0748 185.517 43.3002 185.372 43.5115C185.24 43.7086 184.992 43.8874 184.63 44.0482C183.954 44.3125 183.399 44.6614 182.963 45.095C182.528 45.5286 182.184 46.0356 181.933 46.6158C181.696 47.1951 181.523 47.8364 181.415 48.5397C181.32 49.242 181.27 50.0012 181.264 50.8172C181.257 51.259 181.216 51.603 181.14 51.8493C181.065 52.0956 180.951 52.2712 180.799 52.3762C180.646 52.4811 180.45 52.5425 180.211 52.5604ZM188.242 51.9414C187.95 51.9632 187.712 51.9141 187.529 51.794C187.347 51.6739 187.2 51.4977 187.089 51.2653C186.99 51.0186 186.929 50.7291 186.904 50.3967C186.83 49.4127 186.762 48.5822 186.698 47.9051C186.646 47.2136 186.595 46.6158 186.544 46.1115C186.506 45.6063 186.465 45.1347 186.419 44.697C186.386 44.2582 186.351 43.7928 186.314 43.3008C186.293 43.0083 186.32 42.7456 186.396 42.5126C186.471 42.2663 186.597 42.0697 186.773 41.9229C186.963 41.7751 187.21 41.6897 187.516 41.6669C187.875 41.6402 188.17 41.7385 188.401 41.962C188.63 42.1721 188.77 42.5161 188.819 42.9938C188.839 43.273 188.862 43.6724 188.888 44.1919C188.927 44.7105 188.956 45.2832 188.976 45.9101C189.008 46.5228 189.035 47.1492 189.056 47.7894C189.089 48.4153 189.119 48.988 189.144 49.5076C189.169 50.0272 189.194 50.4465 189.218 50.7656C189.24 51.0714 189.173 51.3371 189.016 51.5628C188.859 51.7884 188.601 51.9146 188.242 51.9414ZM187.538 40.0809C186.993 40.1215 186.53 40.0024 186.148 39.7233C185.765 39.431 185.557 39.0654 185.525 38.6266C185.493 38.2011 185.614 37.8512 185.888 37.5767C186.161 37.3023 186.524 37.1482 186.976 37.1145C187.349 37.0867 187.674 37.1493 187.953 37.3024C188.232 37.4554 188.448 37.6599 188.6 37.9159C188.766 38.1709 188.859 38.4314 188.879 38.6973C188.902 39.0032 188.811 39.3041 188.606 39.6002C188.413 39.882 188.057 40.0422 187.538 40.0809ZM195.427 51.3855C194.377 51.4638 193.499 51.3421 192.793 51.0204C192.099 50.6844 191.569 50.2025 191.201 49.5748C190.832 48.9338 190.616 48.1878 190.553 47.3368C190.501 46.6454 190.576 45.9446 190.777 45.2343C190.99 44.5098 191.315 43.8438 191.751 43.2363C192.186 42.6156 192.723 42.1076 193.362 41.7123C194.014 41.3027 194.751 41.0672 195.576 41.0057C196.254 40.9552 196.848 41.0312 197.358 41.2338C197.88 41.4222 198.298 41.7387 198.612 42.1832C198.926 42.6278 199.109 43.2024 199.162 43.9071C199.216 44.6384 199.042 45.2664 198.64 45.7911C198.238 46.3158 197.668 46.7327 196.928 47.0418C196.189 47.351 195.355 47.5403 194.424 47.6097C193.653 47.6672 193.086 47.5958 192.723 47.3956C192.373 47.181 192.187 46.9275 192.165 46.635C192.153 46.4754 192.184 46.3528 192.258 46.267C192.331 46.168 192.467 46.1111 192.666 46.0962C192.813 46.0853 192.994 46.0985 193.211 46.1358C193.427 46.1598 193.727 46.1575 194.113 46.1287C194.711 46.0841 195.238 45.9713 195.692 45.7903C196.145 45.5961 196.502 45.3556 196.761 45.0688C197.02 44.7688 197.136 44.4459 197.11 44.1002C197.08 43.7013 196.958 43.4096 196.744 43.225C196.53 43.0404 196.19 42.9655 195.725 43.0002C195.233 43.0369 194.796 43.1898 194.415 43.4588C194.033 43.7146 193.704 44.0534 193.428 44.4751C193.165 44.8958 192.973 45.3647 192.851 45.8819C192.729 46.399 192.688 46.9302 192.729 47.4753C192.76 47.8875 192.861 48.2544 193.032 48.5759C193.203 48.8974 193.455 49.1393 193.788 49.3017C194.134 49.463 194.587 49.5229 195.145 49.4812C195.89 49.4257 196.502 49.2998 196.982 49.1036C197.462 48.9073 197.861 48.6971 198.178 48.4729C198.495 48.2353 198.76 48.0284 198.974 47.8519C199.202 47.6745 199.422 47.5779 199.635 47.562C199.834 47.5472 199.979 47.6032 200.068 47.7302C200.17 47.843 200.231 48.0323 200.251 48.2982C200.273 48.5907 200.163 48.9065 199.921 49.2454C199.692 49.5834 199.355 49.9027 198.909 50.2033C198.477 50.5029 197.961 50.762 197.363 50.9805C196.777 51.1979 196.132 51.333 195.427 51.3855ZM203.971 50.7484C203.293 50.799 202.728 50.7542 202.276 50.614C201.824 50.4739 201.482 50.2788 201.25 50.0288C201.03 49.7777 200.909 49.4993 200.887 49.1934C200.87 48.9674 200.922 48.7763 201.044 48.6201C201.18 48.463 201.38 48.3745 201.646 48.3546C201.793 48.3437 201.921 48.3609 202.031 48.4061C202.155 48.4504 202.286 48.5008 202.424 48.5574C202.575 48.613 202.752 48.6599 202.956 48.6982C203.172 48.7355 203.447 48.7418 203.779 48.717C204.604 48.6555 205.295 48.5104 205.853 48.2816C206.423 48.0385 206.805 47.7025 207.001 47.2734C206.875 47.0154 206.646 46.8252 206.316 46.7027C205.986 46.5803 205.598 46.4822 205.151 46.4086C204.705 46.3349 204.237 46.2561 203.75 46.1721C203.275 46.0739 202.824 45.947 202.398 45.7916C201.984 45.6219 201.639 45.387 201.363 45.0867C201.086 44.7864 200.929 44.3836 200.891 43.8784C200.853 43.3598 200.971 42.883 201.246 42.448C201.521 42.013 201.901 41.6371 202.385 41.3202C202.87 41.0033 203.412 40.7489 204.013 40.557C204.614 40.3652 205.22 40.2531 205.833 40.2207C206.245 40.19 206.596 40.2307 206.885 40.3428C207.174 40.455 207.393 40.6125 207.542 40.8153C207.704 41.0171 207.794 41.2311 207.81 41.4571C207.828 41.6964 207.776 41.8942 207.654 42.0504C207.545 42.2056 207.365 42.2926 207.112 42.3114C206.992 42.3203 206.879 42.3221 206.772 42.3168C206.677 42.3104 206.571 42.3117 206.451 42.3206C206.33 42.3162 206.17 42.3215 205.971 42.3364C205.226 42.3919 204.589 42.5463 204.06 42.7997C203.53 43.0398 203.147 43.3759 202.912 43.8079C203.009 44.0413 203.223 44.2192 203.553 44.3417C203.883 44.4642 204.272 44.5622 204.718 44.6359C205.178 44.7085 205.652 44.7868 206.14 44.8708C206.641 44.9538 207.105 45.0796 207.532 45.2483C207.971 45.4028 208.336 45.6296 208.625 45.9289C208.915 46.2282 209.078 46.6238 209.115 47.1158C209.157 47.6742 209.046 48.1704 208.785 48.6044C208.536 49.0375 208.169 49.4058 207.684 49.7094C207.211 49.9987 206.653 50.2275 206.01 50.3957C205.382 50.5763 204.702 50.6938 203.971 50.7484Z" fill="#590D1A"/>
<g clip-path="url(#clip0_2637_8675)">
<path opacity="0.5" d="M109.597 164.915C108.981 163.878 108.364 162.842 107.637 161.61C108.141 161.62 108.485 161.611 108.854 161.671C116.584 162.674 123.087 159.031 126.396 151.87C128.495 147.254 128.671 142.444 127.888 137.436C127.001 131.834 124.274 127.193 120.462 123.153C118.496 121.076 116.059 119.807 113.422 118.929C112.726 118.713 112.042 118.532 111.194 118.531C111.526 118.803 111.85 119.157 112.233 119.252C121.51 121.933 127.975 134.042 126.625 145.023C126.107 149.328 124.372 153.057 121.324 156.048C117.736 159.557 111.787 160.858 107.131 159.109C108.422 157.917 110.591 157.744 111.151 155.519C109.011 156.393 107.061 157.158 105.158 157.944C104.527 158.218 104.149 158.754 104.551 159.317C105.893 161.269 107.289 163.162 108.707 165.008C108.793 165.134 109.123 165.091 109.331 165.132C109.412 165.142 109.521 165.022 109.597 164.915Z" fill="#0D1927"/>
</g>
<g clip-path="url(#clip1_2637_8675)">
<path opacity="0.5" d="M187.881 136.904C187.429 135.786 186.977 134.668 186.437 133.343C186.139 133.751 185.924 134.019 185.749 134.349C181.869 141.109 175.032 144.081 167.329 142.381C162.385 141.257 158.449 138.486 154.936 134.832C151.015 130.735 148.97 125.755 148.062 120.275C147.599 117.453 148.063 114.746 148.96 112.115C149.21 111.43 149.48 110.776 149.992 110.1C150.007 110.529 150.093 111.002 149.938 111.364C146.456 120.372 152.182 132.847 161.74 138.419C165.481 140.612 169.499 141.488 173.725 140.872C178.69 140.14 183.326 136.192 184.752 131.427C183.022 131.733 181.571 133.355 179.461 132.454C181.453 131.28 183.242 130.19 185.02 129.151C185.619 128.815 186.275 128.838 186.479 129.499C187.222 131.749 187.883 134.007 188.494 136.252C188.543 136.397 188.308 136.633 188.215 136.824C188.174 136.894 188.012 136.909 187.881 136.904Z" fill="#0D1927"/>
</g>
<g opacity="0.5" clip-path="url(#clip2_2637_8675)">
<path d="M80.683 84.7539C78.6827 75.6695 84.3619 59.3393 91.3193 53.4152C98.8181 46.9773 104.652 46.2377 119.253 50.0282C118.476 48.8325 117.794 47.9066 117.245 46.9928C116.598 45.9696 115.919 44.8833 115.406 43.7918C115.245 43.4759 115.258 42.7535 115.427 42.5878C115.597 42.4222 116.157 42.6939 116.385 42.9758C118.532 45.7021 120.611 48.4625 122.757 51.2691C123.439 52.1949 123.623 53.0557 123.213 53.6618C121.546 55.7824 119.91 57.9663 118.177 60.0407C117.77 60.4864 117.037 60.5408 116.366 60.8822C115.521 57.8916 116.89 57.5931 117.409 56.4541C117.93 55.2349 118.678 54.2975 119.467 52.9418C114.882 50.8193 110.937 50.0411 107.243 50.1699C93.6654 50.5519 85.7809 59.9699 82.3321 76.2C81.895 78.3312 81.6871 80.664 81.3158 82.8413C81.1072 83.3451 80.9322 83.8318 80.683 84.7539Z" fill="#0D1927"/>
</g>
<g clip-path="url(#clip3_2637_8675)">
<path opacity="0.5" d="M46.5675 45.3909C45.8224 46.3673 45.0773 47.3438 44.196 48.5052C44.6599 48.5387 44.9729 48.5773 45.3216 48.5491C52.5769 48.2214 57.8998 52.4034 59.6827 59.8049C60.8002 64.5721 60.1234 69.3673 58.5336 74.2755C56.7441 79.7644 53.4377 84.1402 49.2411 87.8247C47.0782 89.7183 44.6253 90.7689 42.0561 91.4135C41.3806 91.5676 40.7229 91.6883 39.946 91.6162C40.2977 91.3747 40.6563 91.0509 41.0229 90.9893C49.9891 89.1277 58.0218 77.6547 58.6989 66.6276C58.9743 62.3052 58.0356 58.4503 55.7647 55.2145C53.0894 51.4183 47.8668 49.6108 43.2968 50.9464C44.2713 52.2417 46.2285 52.6019 46.3535 54.8608C44.5455 53.8068 42.8924 52.8788 41.286 51.9328C40.7564 51.6064 40.5031 51.041 40.9691 50.5168C42.5389 48.6925 44.1484 46.9324 45.7688 45.2212C45.8692 45.103 46.1642 45.175 46.3619 45.1519C46.4374 45.1493 46.5169 45.2779 46.5675 45.3909Z" fill="#0D1927"/>
</g>
<defs>
<clipPath id="clip0_2637_8675">
<rect width="43.0428" height="30.0084" fill="white" transform="matrix(-0.348371 -0.937357 -0.937357 0.348371 135.129 155.555)"/>
</clipPath>
<clipPath id="clip1_2637_8675">
<rect width="43.0428" height="30.0084" fill="white" transform="translate(164.977 151.562) rotate(-122.364)"/>
</clipPath>
<clipPath id="clip2_2637_8675">
<rect width="52.7453" height="24" fill="white" transform="translate(69.8047 63.3594) rotate(-26.9536)"/>
</clipPath>
<clipPath id="clip3_2637_8675">
<rect width="44.0015" height="27.1602" fill="white" transform="translate(68.3242 56.8984) rotate(118.163)"/>
</clipPath>
</defs>
</svg>
