<svg width="531" height="499" viewBox="0 0 531 499" fill="none" xmlns="http://www.w3.org/2000/svg">
<path d="M248.197 302.562H193.852L248.197 218.68V302.562Z" fill="#AEAEFF"/>
<path d="M45.0293 343.959C45.0293 343.959 45.944 344.138 47.6838 344.37" stroke="#555555" stroke-width="2" stroke-miterlimit="10"/>
<path d="M53.0547 344.915C72.7571 346.417 126.394 345.595 188.353 303.332C265.162 250.939 420.835 213.477 513.626 224.555" stroke="#555555" stroke-width="2" stroke-miterlimit="10" stroke-dasharray="6.03 6.03"/>
<path d="M516.325 224.895C517.222 225.011 518.11 225.136 518.989 225.261" stroke="#555555" stroke-width="2" stroke-miterlimit="10"/>
<path d="M45.0293 380.176C45.0293 380.176 45.953 380.024 47.6658 379.666" stroke="#555555" stroke-width="2" stroke-miterlimit="10"/>
<path d="M52.8848 378.504C72.8831 373.73 127.309 357.574 172.032 315.105" stroke="#555555" stroke-width="2" stroke-miterlimit="10" stroke-dasharray="5.97 5.97"/>
<path d="M173.96 313.246C174.597 312.62 175.242 311.994 175.879 311.359" stroke="#555555" stroke-width="2" stroke-miterlimit="10"/>
<path d="M45.0293 431.39C45.0293 431.39 152.644 371.129 205.536 283.009C234.385 238.269 289.34 110.89 518.989 102.674" stroke="#555555" stroke-width="2" stroke-miterlimit="10"/>
<path d="M31.4424 261.783H218.449" stroke="#4E4EFF" stroke-width="2" stroke-miterlimit="10"/>
<path d="M248.501 331.174H521.276" stroke="#4E4EFF" stroke-width="2" stroke-miterlimit="10"/>
<path d="M189.501 419.061H521.276" stroke="#4E4EFF" stroke-width="2" stroke-miterlimit="10"/>
<path d="M189.501 375.117H335.811" stroke="#4E4EFF" stroke-width="2" stroke-miterlimit="10"/>
<path d="M31.4424 302.562H521.275" stroke="#555555" stroke-width="0.75" stroke-miterlimit="10"/>
<path opacity="0.6" d="M430.512 112.975V302.563" stroke="#555555" stroke-width="0.75" stroke-miterlimit="10"/>
<path opacity="0.6" d="M335.812 145.197V302.563" stroke="#555555" stroke-width="0.75" stroke-miterlimit="10"/>
<g opacity="0.6">
<path d="M335.812 303.555V305.79" stroke="#555555" stroke-width="0.75" stroke-miterlimit="10"/>
<path d="M335.812 310.197V369.653" stroke="#555555" stroke-width="0.75" stroke-miterlimit="10" stroke-dasharray="4.93 4.93"/>
<path d="M335.812 371.854V374.089" stroke="#555555" stroke-width="0.75" stroke-miterlimit="10"/>
</g>
<g opacity="0.6">
<path d="M189.501 303.555V305.79" stroke="#555555" stroke-width="0.75" stroke-miterlimit="10"/>
<path d="M189.501 310.234V414.609" stroke="#555555" stroke-width="0.75" stroke-miterlimit="10" stroke-dasharray="4.97 4.97"/>
<path d="M189.501 416.824V419.059" stroke="#555555" stroke-width="0.75" stroke-miterlimit="10"/>
</g>
<g opacity="0.6">
<path d="M218.853 264.904V266.245" stroke="#555555" stroke-width="0.75" stroke-miterlimit="10"/>
<path d="M218.853 268.938V299.881" stroke="#555555" stroke-width="0.75" stroke-miterlimit="10" stroke-dasharray="3.01 3.01"/>
<path d="M218.853 301.221V302.562" stroke="#555555" stroke-width="0.75" stroke-miterlimit="10"/>
</g>
<g opacity="0.6">
<path d="M45.0293 303.555V305.79" stroke="#555555" stroke-width="0.75" stroke-miterlimit="10"/>
<path d="M45.0293 310.359V426.866" stroke="#555555" stroke-width="0.75" stroke-miterlimit="10" stroke-dasharray="5.11 5.11"/>
<path d="M45.0293 429.154V431.389" stroke="#555555" stroke-width="0.75" stroke-miterlimit="10"/>
</g>
<path opacity="0.6" d="M120.583 302.562V377.289" stroke="#555555" stroke-width="0.75" stroke-miterlimit="10"/>
<g opacity="0.6">
<path d="M248.196 303.555V304.896" stroke="#555555" stroke-width="0.75" stroke-miterlimit="10"/>
<path d="M248.196 307.668V328.446" stroke="#555555" stroke-width="0.75" stroke-miterlimit="10" stroke-dasharray="3.1 3.1"/>
<path d="M248.196 329.832V331.173" stroke="#555555" stroke-width="0.75" stroke-miterlimit="10"/>
</g>
<path d="M109.15 231.931C109.114 231.153 109.069 230.214 109.078 229.4H109.051C108.854 230.134 108.603 230.947 108.334 231.707L107.446 234.318H106.603L105.796 231.743C105.563 230.974 105.347 230.151 105.186 229.4H105.168C105.141 230.187 105.105 231.144 105.06 231.966L104.926 234.389H103.895L104.298 228.363H105.751L106.54 230.786C106.755 231.493 106.944 232.208 107.096 232.878H107.123C107.284 232.226 107.491 231.484 107.724 230.777L108.558 228.363H109.993L110.342 234.389H109.266L109.15 231.931Z" fill="#555555"/>
<path d="M112.621 232.682L112.101 234.389H110.962L112.899 228.363H114.307L116.271 234.389H115.078L114.531 232.682H112.621ZM114.352 231.85L113.876 230.366C113.76 229.999 113.661 229.588 113.572 229.239H113.554C113.464 229.588 113.365 230.008 113.267 230.366L112.8 231.85H114.352Z" fill="#555555"/>
<path d="M117.113 228.452C117.535 228.372 118.145 228.318 118.781 228.318C119.651 228.318 120.234 228.461 120.647 228.801C120.978 229.078 121.167 229.499 121.167 230.017C121.167 230.795 120.638 231.322 120.064 231.519V231.546C120.503 231.707 120.763 232.127 120.907 232.708C121.104 233.459 121.265 234.157 121.382 234.389H120.252C120.162 234.21 120.01 233.719 119.848 232.968C119.669 232.181 119.391 231.93 118.763 231.913H118.207V234.389H117.113V228.452ZM118.207 231.108H118.862C119.606 231.108 120.064 230.714 120.064 230.115C120.064 229.463 119.606 229.15 118.889 229.15C118.539 229.15 118.315 229.177 118.207 229.203V231.108Z" fill="#555555"/>
<path d="M122.216 228.363H123.31V231.135H123.337C123.48 230.902 123.633 230.688 123.776 230.482L125.364 228.363H126.718L124.637 230.929L126.852 234.389H125.561L123.857 231.627L123.31 232.27V234.389H122.216V228.363Z" fill="#555555"/>
<path d="M130.816 231.716H128.539V233.486H131.085V234.389H127.436V228.363H130.951V229.266H128.539V230.822H130.816V231.716Z" fill="#555555"/>
<path d="M133.299 229.284H131.577V228.363H136.142V229.284H134.402V234.389H133.299V229.284Z" fill="#555555"/>
<path d="M137.955 228.363V234.389H136.852V228.363H137.955Z" fill="#555555"/>
<path d="M139.211 234.389V228.363H140.475L142.036 230.947C142.43 231.618 142.789 232.315 143.067 232.968H143.085C143.004 232.163 142.986 231.385 142.986 230.464V228.363H144.009V234.389H142.861L141.283 231.734C140.897 231.072 140.502 230.339 140.206 229.66L140.171 229.669C140.215 230.446 140.233 231.242 140.233 232.235V234.389H139.211Z" fill="#555555"/>
<path d="M150.124 234.112C149.739 234.255 148.985 234.452 148.187 234.452C147.165 234.452 146.385 234.193 145.811 233.647C145.273 233.138 144.968 232.342 144.968 231.43C144.977 229.517 146.331 228.301 148.331 228.301C149.075 228.301 149.658 228.453 149.936 228.587L149.694 229.472C149.362 229.32 148.958 229.213 148.322 229.213C147.03 229.213 146.125 229.973 146.125 231.376C146.125 232.744 146.968 233.558 148.223 233.558C148.627 233.558 148.914 233.504 149.057 233.442V231.931H147.99V231.063H150.124V234.112Z" fill="#555555"/>
<path d="M153.908 229.284H152.187V228.363H156.751V229.284H155.011V234.389H153.908V229.284Z" fill="#555555"/>
<path d="M160.841 231.716H158.563V233.486H161.11V234.389H157.46V228.363H160.975V229.266H158.563V230.822H160.841V231.716Z" fill="#555555"/>
<path d="M163.289 232.682L162.769 234.389H161.63L163.567 228.363H164.975L166.939 234.389H165.746L165.199 232.682H163.289ZM165.02 231.85L164.544 230.366C164.428 229.999 164.329 229.588 164.24 229.239H164.222C164.132 229.588 164.033 230.008 163.935 230.366L163.468 231.85H165.02Z" fill="#555555"/>
<path d="M172.857 231.931C172.821 231.153 172.776 230.214 172.785 229.4H172.758C172.561 230.134 172.31 230.947 172.041 231.707L171.153 234.318H170.31L169.503 231.743C169.27 230.974 169.054 230.151 168.893 229.4H168.875C168.848 230.187 168.812 231.144 168.767 231.966L168.633 234.389H167.602L168.005 228.363H169.458L170.247 230.786C170.462 231.493 170.651 232.208 170.803 232.878H170.83C170.991 232.226 171.198 231.484 171.431 230.777L172.265 228.363H173.7L174.049 234.389H172.973L172.857 231.931Z" fill="#555555"/>
<path d="M282.516 214.326C282.265 214.443 281.727 214.586 281.027 214.586C279.198 214.586 278.095 213.45 278.095 211.698C278.095 209.811 279.413 208.676 281.171 208.676C281.861 208.676 282.345 208.819 282.561 208.935L282.337 209.767C282.067 209.65 281.682 209.543 281.216 209.543C280.05 209.543 279.207 210.276 279.207 211.653C279.207 212.923 279.942 213.718 281.207 213.718C281.619 213.718 282.068 213.629 282.346 213.513L282.516 214.326Z" fill="#4E4EFF"/>
<path d="M284.453 208.756V212.1C284.453 213.217 284.919 213.736 285.627 213.736C286.39 213.736 286.838 213.217 286.838 212.1V208.756H287.887V212.028C287.887 213.798 286.973 214.576 285.591 214.576C284.264 214.576 283.403 213.834 283.403 212.037V208.756H284.453Z" fill="#4E4EFF"/>
<path d="M289.072 213.343C289.404 213.54 289.924 213.709 290.462 213.709C291.125 213.709 291.502 213.397 291.502 212.932C291.502 212.502 291.215 212.243 290.489 211.984C289.538 211.644 288.928 211.143 288.928 210.321C288.928 209.373 289.718 208.676 290.964 208.676C291.583 208.676 292.04 208.81 292.336 208.962L292.085 209.802C291.87 209.695 291.475 209.534 290.937 209.534C290.274 209.534 289.996 209.883 289.996 210.223C289.996 210.661 290.327 210.866 291.099 211.17C292.094 211.546 292.578 212.046 292.578 212.869C292.578 213.799 291.879 214.595 290.408 214.595C289.798 214.595 289.162 214.425 288.848 214.228L289.072 213.343Z" fill="#4E4EFF"/>
<path d="M294.605 209.632H292.973V208.756H297.313V209.632H295.663V214.487H294.614V209.632H294.605Z" fill="#4E4EFF"/>
<path d="M302.837 211.563C302.837 213.485 301.671 214.576 300.093 214.576C298.461 214.576 297.438 213.333 297.438 211.661C297.438 209.891 298.559 208.648 300.174 208.648C301.851 208.648 302.837 209.918 302.837 211.563ZM298.55 211.635C298.55 212.806 299.142 213.736 300.147 213.736C301.16 213.736 301.734 212.788 301.734 211.59C301.734 210.508 301.196 209.489 300.147 209.489C299.106 209.498 298.55 210.454 298.55 211.635Z" fill="#4E4EFF"/>
<path d="M308.594 212.144C308.558 211.402 308.522 210.508 308.522 209.739H308.495C308.307 210.437 308.065 211.215 307.814 211.93L306.971 214.415H306.172L305.401 211.966C305.177 211.232 304.98 210.455 304.818 209.739H304.8C304.773 210.49 304.738 211.393 304.702 212.18L304.576 214.487H303.599L303.984 208.756H305.365L306.119 211.063C306.325 211.733 306.504 212.413 306.648 213.047H306.675C306.827 212.431 307.024 211.724 307.249 211.054L308.038 208.756H309.401L309.733 214.487H308.71L308.594 212.144Z" fill="#4E4EFF"/>
<path d="M314.002 211.938H311.831V213.619H314.253V214.477H310.782V208.746H314.127V209.604H311.831V211.08H314.002V211.938Z" fill="#4E4EFF"/>
<path d="M315.168 208.836C315.572 208.756 316.146 208.711 316.755 208.711C317.58 208.711 318.136 208.845 318.531 209.167C318.845 209.426 319.024 209.829 319.024 210.32C319.024 211.062 318.522 211.563 317.975 211.751V211.778C318.397 211.93 318.639 212.332 318.773 212.886C318.962 213.602 319.114 214.263 319.222 214.487H318.145C318.056 214.317 317.912 213.852 317.76 213.137C317.589 212.386 317.32 212.153 316.729 212.135H316.199V214.487H315.159V208.836H315.168ZM316.208 211.366H316.827C317.536 211.366 317.966 210.991 317.966 210.419C317.966 209.802 317.536 209.498 316.845 209.498C316.513 209.498 316.298 209.525 316.199 209.551V211.366H316.208Z" fill="#4E4EFF"/>
<path d="M198.54 310.171H196.818V309.25H201.383V310.171H199.643V315.276H198.54V310.171Z" fill="#555555"/>
<path d="M203.06 309.714C203.06 310.036 202.818 310.304 202.432 310.304C202.064 310.304 201.822 310.036 201.822 309.714C201.822 309.375 202.073 309.115 202.441 309.115C202.818 309.115 203.051 309.375 203.06 309.714ZM201.894 315.275V310.921H202.997V315.275H201.894Z" fill="#555555"/>
<path d="M204.189 312.217C204.189 311.716 204.171 311.296 204.153 310.921H205.095L205.149 311.564H205.176C205.382 311.225 205.777 310.822 206.521 310.822C207.095 310.822 207.543 311.144 207.731 311.627H207.749C207.902 311.386 208.081 311.207 208.279 311.082C208.53 310.912 208.808 310.822 209.175 310.822C209.893 310.822 210.628 311.314 210.628 312.709V315.275H209.552V312.87C209.552 312.146 209.301 311.716 208.772 311.716C208.395 311.716 208.117 311.985 208.001 312.297C207.965 312.396 207.947 312.539 207.947 312.664V315.275H206.871V312.753C206.871 312.146 206.628 311.716 206.117 311.716C205.705 311.716 205.427 312.038 205.319 312.333C205.283 312.449 205.265 312.575 205.265 312.7V315.275H204.189V312.217Z" fill="#555555"/>
<path d="M212.567 313.406C212.594 314.193 213.204 314.533 213.912 314.533C214.423 314.533 214.782 314.452 215.123 314.336L215.284 315.087C214.908 315.248 214.387 315.364 213.76 315.364C212.343 315.364 211.509 314.497 211.509 313.165C211.509 311.958 212.244 310.822 213.643 310.822C215.06 310.822 215.526 311.985 215.526 312.941C215.526 313.147 215.508 313.308 215.491 313.406H212.567ZM214.486 312.637C214.495 312.235 214.316 311.573 213.58 311.573C212.899 311.573 212.612 312.19 212.567 312.637H214.486Z" fill="#555555"/>
<path d="M219.534 309.805V310.922H220.583V311.745H219.534V313.667C219.534 314.204 219.677 314.472 220.099 314.472C220.296 314.472 220.404 314.463 220.529 314.427L220.547 315.259C220.386 315.321 220.09 315.375 219.749 315.375C219.337 315.375 219.005 315.241 218.799 315.017C218.556 314.767 218.449 314.364 218.449 313.792V311.745H217.83V310.922H218.449V310.109L219.534 309.805Z" fill="#555555"/>
<path d="M225.516 313.057C225.516 314.658 224.386 315.373 223.274 315.373C222.045 315.373 221.086 314.533 221.086 313.129C221.086 311.698 222.028 310.822 223.346 310.822C224.646 310.822 225.516 311.734 225.516 313.057ZM222.225 313.102C222.225 313.943 222.646 314.577 223.31 314.577C223.938 314.577 224.377 313.969 224.377 313.084C224.377 312.405 224.072 311.618 223.319 311.618C222.539 311.618 222.225 312.378 222.225 313.102Z" fill="#555555"/>
<path d="M229.426 309.258V315.284H228.323V309.258H229.426Z" fill="#555555"/>
<path d="M230.699 312.217C230.699 311.716 230.681 311.296 230.663 310.921H231.623L231.676 311.573H231.703C231.901 311.234 232.376 310.822 233.102 310.822C233.865 310.822 234.654 311.314 234.654 312.691V315.275H233.551V312.816C233.551 312.19 233.318 311.716 232.717 311.716C232.277 311.716 231.972 312.029 231.856 312.36C231.82 312.449 231.802 312.584 231.802 312.709V315.275H230.699V312.217Z" fill="#555555"/>
<path d="M237.003 309.714C237.003 310.036 236.761 310.304 236.375 310.304C236.008 310.304 235.766 310.036 235.766 309.714C235.766 309.375 236.017 309.115 236.384 309.115C236.761 309.115 236.994 309.375 237.003 309.714ZM235.828 315.275V310.921H236.931V315.275H235.828Z" fill="#555555"/>
<path d="M239.389 309.805V310.922H240.439V311.745H239.389V313.667C239.389 314.204 239.533 314.472 239.954 314.472C240.152 314.472 240.259 314.463 240.385 314.427L240.403 315.259C240.241 315.321 239.945 315.375 239.605 315.375C239.192 315.375 238.86 315.241 238.654 315.017C238.412 314.767 238.304 314.364 238.304 313.792V311.745H237.686V310.922H238.304V310.109L239.389 309.805Z" fill="#555555"/>
<path d="M242.447 309.714C242.447 310.036 242.204 310.304 241.819 310.304C241.451 310.304 241.209 310.036 241.209 309.714C241.209 309.375 241.46 309.115 241.828 309.115C242.204 309.115 242.438 309.375 242.447 309.714ZM241.272 315.275V310.921H242.375V315.275H241.272Z" fill="#555555"/>
<path d="M246.956 314.229C246.956 314.622 246.974 315.007 247.028 315.275H246.033L245.952 314.792H245.925C245.665 315.132 245.208 315.373 244.634 315.373C243.755 315.373 243.262 314.738 243.262 314.077C243.262 312.986 244.239 312.423 245.853 312.432V312.36C245.853 312.074 245.737 311.6 244.966 311.6C244.535 311.6 244.087 311.734 243.791 311.922L243.576 311.207C243.898 311.01 244.463 310.822 245.154 310.822C246.553 310.822 246.956 311.707 246.956 312.664V314.229ZM245.88 313.147C245.1 313.138 244.356 313.299 244.356 313.96C244.356 314.39 244.634 314.586 244.984 314.586C245.432 314.586 245.746 314.3 245.853 313.987C245.88 313.907 245.88 313.826 245.88 313.746V313.147Z" fill="#555555"/>
<path d="M248.124 308.928H249.227V315.276H248.124V308.928Z" fill="#555555"/>
<path d="M253.388 315.276L251.433 309.25H252.634L253.459 311.995C253.692 312.755 253.899 313.452 254.051 314.185H254.069C254.231 313.47 254.455 312.737 254.688 312.004L255.567 309.25H256.742L254.652 315.276H253.388Z" fill="#555555"/>
<path d="M260.4 314.229C260.4 314.622 260.418 315.007 260.472 315.275H259.476L259.395 314.792H259.369C259.108 315.132 258.651 315.373 258.077 315.373C257.198 315.373 256.705 314.738 256.705 314.077C256.705 312.986 257.683 312.423 259.297 312.432V312.36C259.297 312.074 259.18 311.6 258.409 311.6C257.979 311.6 257.53 311.734 257.234 311.922L257.019 311.207C257.342 311.01 257.907 310.822 258.597 310.822C259.996 310.822 260.4 311.707 260.4 312.664V314.229ZM259.324 313.147C258.543 313.138 257.799 313.299 257.799 313.96C257.799 314.39 258.077 314.586 258.427 314.586C258.875 314.586 259.189 314.3 259.297 313.987C259.324 313.907 259.324 313.826 259.324 313.746V313.147Z" fill="#555555"/>
<path d="M261.565 308.928H262.668V315.276H261.565V308.928Z" fill="#555555"/>
<path d="M267.781 313.971C267.781 314.489 267.799 314.918 267.817 315.276H266.858L266.804 314.623H266.777C266.589 314.927 266.158 315.374 265.369 315.374C264.58 315.374 263.854 314.9 263.854 313.479V310.922H264.957V313.291C264.957 314.015 265.19 314.48 265.773 314.48C266.221 314.48 266.508 314.176 266.616 313.89C266.66 313.801 266.678 313.676 266.678 313.55V310.922H267.781V313.971Z" fill="#555555"/>
<path d="M269.754 313.406C269.781 314.193 270.391 314.533 271.1 314.533C271.611 314.533 271.97 314.452 272.31 314.336L272.472 315.087C272.095 315.248 271.575 315.364 270.947 315.364C269.53 315.364 268.696 314.497 268.696 313.165C268.696 311.958 269.432 310.822 270.831 310.822C272.248 310.822 272.714 311.985 272.714 312.941C272.714 313.147 272.696 313.308 272.678 313.406H269.754ZM271.674 312.637C271.683 312.235 271.503 311.573 270.768 311.573C270.086 311.573 269.799 312.19 269.754 312.637H271.674Z" fill="#555555"/>
<path d="M234.743 400.116C235.093 400.321 235.64 400.5 236.205 400.5C236.905 400.5 237.299 400.169 237.299 399.678C237.299 399.222 236.994 398.954 236.232 398.676C235.228 398.319 234.591 397.791 234.591 396.924C234.591 395.932 235.416 395.189 236.734 395.189C237.389 395.189 237.864 395.333 238.178 395.493L237.918 396.379C237.694 396.262 237.272 396.092 236.707 396.092C236.008 396.092 235.712 396.459 235.712 396.817C235.712 397.282 236.062 397.496 236.869 397.809C237.918 398.202 238.42 398.73 238.42 399.597C238.42 400.572 237.685 401.412 236.133 401.412C235.488 401.412 234.824 401.233 234.492 401.028L234.743 400.116Z" fill="#555555"/>
<path d="M240.627 399.605L240.107 401.313H238.968L240.905 395.287H242.313L244.277 401.313H243.084L242.537 399.605H240.627ZM242.358 398.774L241.882 397.29C241.766 396.923 241.667 396.512 241.577 396.163H241.559C241.47 396.512 241.371 396.932 241.273 397.29L240.806 398.774H242.358Z" fill="#555555"/>
<path d="M245.119 395.287H246.222V400.392H248.706V401.313H245.119V395.287Z" fill="#555555"/>
<path d="M252.921 398.64H250.643V400.41H253.19V401.313H249.54V395.287H253.055V396.19H250.643V397.746H252.921V398.64Z" fill="#555555"/>
<path d="M254.142 400.116C254.491 400.321 255.039 400.5 255.603 400.5C256.303 400.5 256.698 400.169 256.698 399.678C256.698 399.222 256.393 398.954 255.63 398.676C254.626 398.319 253.989 397.791 253.989 396.924C253.989 395.932 254.814 395.189 256.133 395.189C256.787 395.189 257.263 395.333 257.576 395.493L257.316 396.379C257.092 396.262 256.671 396.092 256.106 396.092C255.406 396.092 255.11 396.459 255.11 396.817C255.11 397.282 255.46 397.496 256.267 397.809C257.316 398.202 257.819 398.73 257.819 399.597C257.819 400.572 257.083 401.412 255.532 401.412C254.886 401.412 254.222 401.233 253.891 401.028L254.142 400.116Z" fill="#555555"/>
<path d="M261.468 396.208H259.746V395.287H264.311V396.208H262.571V401.313H261.468V396.208Z" fill="#555555"/>
<path d="M268.398 398.64H266.121V400.41H268.668V401.313H265.018V395.287H268.533V396.19H266.121V397.746H268.398V398.64Z" fill="#555555"/>
<path d="M270.848 399.605L270.327 401.313H269.188L271.126 395.287H272.533L274.497 401.313H273.305L272.758 399.605H270.848ZM272.578 398.774L272.103 397.29C271.986 396.923 271.888 396.512 271.798 396.163H271.78C271.69 396.512 271.592 396.932 271.493 397.29L271.027 398.774H272.578Z" fill="#555555"/>
<path d="M280.416 398.854C280.38 398.077 280.336 397.138 280.345 396.324H280.318C280.12 397.057 279.869 397.871 279.6 398.631L278.712 401.242H277.869L277.062 398.667C276.829 397.898 276.614 397.075 276.453 396.324H276.435C276.408 397.111 276.372 398.068 276.327 398.89L276.192 401.313H275.161L275.565 395.287H277.017L277.807 397.71C278.022 398.416 278.21 399.132 278.363 399.802H278.39C278.551 399.15 278.757 398.407 278.99 397.701L279.824 395.287H281.259L281.609 401.313H280.533L280.416 398.854Z" fill="#555555"/>
<path d="M327.731 442.11C328.135 442.038 328.682 441.984 329.417 441.984C330.225 441.984 330.807 442.154 331.193 442.476C331.552 442.771 331.785 443.245 331.785 443.808C331.785 444.38 331.606 444.845 331.274 445.167C330.825 445.605 330.144 445.82 329.364 445.82C329.157 445.82 328.978 445.811 328.826 445.775V448.055H327.731V442.11ZM328.826 444.908C328.969 444.953 329.139 444.962 329.364 444.962C330.189 444.962 330.691 444.55 330.691 443.853C330.691 443.182 330.225 442.834 329.462 442.834C329.157 442.834 328.942 442.861 328.826 442.887V444.908Z" fill="#555555"/>
<path d="M332.744 442.118C333.166 442.038 333.775 441.984 334.412 441.984C335.282 441.984 335.865 442.127 336.277 442.467C336.609 442.744 336.798 443.165 336.798 443.683C336.798 444.461 336.269 444.988 335.695 445.185V445.212C336.134 445.373 336.394 445.793 336.538 446.374C336.735 447.125 336.896 447.823 337.013 448.055H335.883C335.793 447.876 335.641 447.385 335.479 446.634C335.3 445.847 335.022 445.596 334.394 445.579H333.838V448.055H332.744V442.118ZM333.838 444.774H334.493C335.237 444.774 335.695 444.381 335.695 443.781C335.695 443.129 335.237 442.816 334.52 442.816C334.17 442.816 333.946 442.843 333.838 442.87V444.774Z" fill="#555555"/>
<path d="M343.201 444.98C343.201 447 341.972 448.154 340.313 448.154C338.601 448.154 337.524 446.848 337.524 445.087C337.524 443.227 338.699 441.922 340.403 441.922C342.161 441.922 343.201 443.254 343.201 444.98ZM338.699 445.06C338.699 446.294 339.318 447.268 340.376 447.268C341.443 447.268 342.044 446.276 342.044 445.015C342.044 443.88 341.479 442.807 340.376 442.807C339.282 442.807 338.699 443.817 338.699 445.06Z" fill="#555555"/>
<path d="M344.161 442.11C344.654 442.038 345.264 441.984 345.919 441.984C347.049 441.984 347.82 442.217 348.376 442.682C348.968 443.156 349.327 443.88 349.327 444.899C349.327 445.981 348.959 446.777 348.385 447.295C347.784 447.841 346.825 448.118 345.65 448.118C345.013 448.118 344.529 448.082 344.161 448.037V442.11ZM345.264 447.224C345.417 447.25 345.65 447.25 345.874 447.25C347.309 447.259 348.161 446.464 348.161 444.935C348.17 443.612 347.399 442.843 346.017 442.843C345.668 442.843 345.426 442.869 345.264 442.905V447.224Z" fill="#555555"/>
<path d="M351.38 442.029V445.543C351.38 446.723 351.874 447.269 352.618 447.269C353.416 447.269 353.891 446.723 353.891 445.543V442.029H354.994V445.471C354.994 447.331 354.035 448.154 352.582 448.154C351.183 448.154 350.277 447.376 350.277 445.48V442.029H351.38Z" fill="#555555"/>
<path d="M360.58 447.886C360.32 448.011 359.746 448.154 359.011 448.154C357.092 448.154 355.926 446.956 355.926 445.115C355.926 443.13 357.316 441.932 359.163 441.932C359.89 441.932 360.401 442.084 360.625 442.2L360.392 443.076C360.105 442.951 359.701 442.844 359.208 442.844C357.979 442.844 357.092 443.613 357.092 445.061C357.092 446.393 357.863 447.234 359.199 447.234C359.638 447.234 360.105 447.144 360.401 447.019L360.58 447.886Z" fill="#555555"/>
<path d="M362.867 442.95H361.146V442.029H365.71V442.95H363.97V448.055H362.867V442.95Z" fill="#555555"/>
<path d="M369.073 442.95H367.352V442.029H371.916V442.95H370.176V448.055H369.073V442.95Z" fill="#555555"/>
<path d="M376.006 445.382H373.728V447.152H376.275V448.055H372.625V442.029H376.14V442.932H373.728V444.488H376.006V445.382Z" fill="#555555"/>
<path d="M378.454 446.348L377.934 448.055H376.795L378.732 442.029H380.14L382.104 448.055H380.911L380.364 446.348H378.454ZM380.185 445.516L379.709 444.032C379.593 443.665 379.494 443.254 379.405 442.905H379.387C379.297 443.254 379.198 443.674 379.1 444.032L378.633 445.516H380.185Z" fill="#555555"/>
<path d="M388.013 445.597C387.977 444.819 387.932 443.88 387.941 443.066H387.914C387.717 443.8 387.466 444.613 387.197 445.373L386.309 447.984H385.466L384.659 445.409C384.426 444.64 384.211 443.817 384.049 443.066H384.031C384.004 443.853 383.968 444.81 383.924 445.632L383.789 448.055H382.758L383.161 442.029H384.614L385.403 444.452C385.619 445.159 385.807 445.874 385.959 446.544H385.986C386.148 445.892 386.354 445.15 386.587 444.443L387.421 442.029H388.856L389.206 448.055H388.13L388.013 445.597Z" fill="#555555"/>
<path d="M312.791 315.276L310.836 309.25H312.038L312.863 311.995C313.096 312.755 313.302 313.452 313.455 314.185H313.472C313.634 313.47 313.858 312.737 314.091 312.004L314.97 309.25H316.145L314.055 315.276H312.791Z" fill="#555555"/>
<path d="M319.804 314.229C319.804 314.622 319.822 315.007 319.876 315.275H318.88L318.8 314.792H318.773C318.513 315.132 318.055 315.373 317.481 315.373C316.603 315.373 316.109 314.738 316.109 314.077C316.109 312.986 317.087 312.423 318.701 312.432V312.36C318.701 312.074 318.584 311.6 317.813 311.6C317.383 311.6 316.934 311.734 316.638 311.922L316.423 311.207C316.746 311.01 317.311 310.822 318.002 310.822C319.401 310.822 319.804 311.707 319.804 312.664V314.229ZM318.728 313.147C317.948 313.138 317.203 313.299 317.203 313.96C317.203 314.39 317.481 314.586 317.831 314.586C318.28 314.586 318.593 314.3 318.701 313.987C318.728 313.907 318.728 313.826 318.728 313.746V313.147Z" fill="#555555"/>
<path d="M320.971 308.928H322.074V315.276H320.971V308.928Z" fill="#555555"/>
<path d="M327.184 313.971C327.184 314.489 327.202 314.918 327.22 315.276H326.26L326.206 314.623H326.179C325.991 314.927 325.561 315.374 324.771 315.374C323.982 315.374 323.256 314.9 323.256 313.479V310.922H324.359V313.291C324.359 314.015 324.592 314.48 325.175 314.48C325.623 314.48 325.91 314.176 326.018 313.89C326.063 313.801 326.081 313.676 326.081 313.55V310.922H327.184V313.971Z" fill="#555555"/>
<path d="M329.157 313.406C329.184 314.193 329.794 314.533 330.502 314.533C331.013 314.533 331.372 314.452 331.713 314.336L331.874 315.087C331.497 315.248 330.977 315.364 330.35 315.364C328.933 315.364 328.099 314.497 328.099 313.165C328.099 311.958 328.834 310.822 330.233 310.822C331.65 310.822 332.116 311.985 332.116 312.941C332.116 313.147 332.098 313.308 332.08 313.406H329.157ZM331.076 312.637C331.085 312.235 330.906 311.573 330.17 311.573C329.489 311.573 329.202 312.19 329.157 312.637H331.076Z" fill="#555555"/>
<path d="M334.905 309.338C335.309 309.267 335.856 309.213 336.591 309.213C337.398 309.213 337.981 309.383 338.367 309.705C338.726 310 338.959 310.474 338.959 311.037C338.959 311.609 338.779 312.074 338.448 312.396C337.999 312.834 337.318 313.048 336.537 313.048C336.331 313.048 336.152 313.04 335.999 313.004V315.284H334.905V309.338ZM335.999 312.128C336.143 312.172 336.313 312.181 336.537 312.181C337.362 312.181 337.865 311.77 337.865 311.073C337.865 310.402 337.398 310.053 336.636 310.053C336.331 310.053 336.116 310.08 335.999 310.107V312.128Z" fill="#555555"/>
<path d="M343.076 314.229C343.076 314.622 343.094 315.007 343.147 315.275H342.152L342.071 314.792H342.044C341.784 315.132 341.327 315.373 340.753 315.373C339.874 315.373 339.381 314.738 339.381 314.077C339.381 312.986 340.358 312.423 341.973 312.432V312.36C341.973 312.074 341.856 311.6 341.085 311.6C340.654 311.6 340.206 311.734 339.91 311.922L339.695 311.207C340.018 311.01 340.583 310.822 341.273 310.822C342.672 310.822 343.076 311.707 343.076 312.664V314.229ZM341.999 313.147C341.219 313.138 340.475 313.299 340.475 313.96C340.475 314.39 340.753 314.586 341.103 314.586C341.551 314.586 341.865 314.3 341.973 313.987C341.999 313.907 341.999 313.826 341.999 313.746V313.147Z" fill="#555555"/>
<path d="M345.451 309.805V310.922H346.5V311.745H345.451V313.667C345.451 314.204 345.594 314.472 346.016 314.472C346.213 314.472 346.321 314.463 346.446 314.427L346.464 315.259C346.303 315.321 346.007 315.375 345.666 315.375C345.254 315.375 344.922 315.241 344.716 315.017C344.473 314.767 344.366 314.364 344.366 313.792V311.745H343.747V310.922H344.366V310.109L345.451 309.805Z" fill="#555555"/>
<path d="M347.334 308.928H348.437V311.512H348.455C348.589 311.306 348.778 311.136 349.002 311.02C349.226 310.895 349.486 310.823 349.764 310.823C350.509 310.823 351.289 311.315 351.289 312.71V315.276H350.186V312.826C350.186 312.2 349.953 311.717 349.343 311.717C348.912 311.717 348.607 312.003 348.482 312.334C348.446 312.433 348.437 312.549 348.437 312.665V315.276H347.334V308.928Z" fill="#555555"/>
<path d="M353.81 315.625L355.989 309.143H356.76L354.572 315.625H353.81Z" fill="#555555"/>
<path d="M359.245 309.339C359.667 309.259 360.276 309.205 360.913 309.205C361.783 309.205 362.366 309.348 362.778 309.688C363.11 309.965 363.299 310.385 363.299 310.904C363.299 311.682 362.769 312.209 362.196 312.406V312.433C362.635 312.594 362.895 313.014 363.039 313.595C363.236 314.346 363.397 315.043 363.514 315.276H362.384C362.294 315.097 362.142 314.605 361.98 313.854C361.801 313.067 361.523 312.817 360.895 312.799H360.339V315.276H359.245V309.339ZM360.339 311.995H360.994C361.738 311.995 362.196 311.601 362.196 311.002C362.196 310.35 361.738 310.037 361.021 310.037C360.671 310.037 360.447 310.063 360.339 310.09V311.995Z" fill="#555555"/>
<path d="M365.109 313.406C365.136 314.193 365.746 314.533 366.454 314.533C366.965 314.533 367.324 314.452 367.665 314.336L367.826 315.087C367.45 315.248 366.929 315.364 366.302 315.364C364.885 315.364 364.051 314.497 364.051 313.165C364.051 311.958 364.786 310.822 366.185 310.822C367.602 310.822 368.068 311.985 368.068 312.941C368.068 313.147 368.05 313.308 368.033 313.406H365.109ZM367.028 312.637C367.037 312.235 366.858 311.573 366.122 311.573C365.441 311.573 365.154 312.19 365.109 312.637H367.028Z" fill="#555555"/>
<path d="M372.347 314.229C372.347 314.622 372.365 315.007 372.419 315.275H371.423L371.343 314.792H371.316C371.056 315.132 370.598 315.373 370.024 315.373C369.146 315.373 368.652 314.738 368.652 314.077C368.652 312.986 369.63 312.423 371.244 312.432V312.36C371.244 312.074 371.127 311.6 370.356 311.6C369.926 311.6 369.477 311.734 369.181 311.922L368.966 311.207C369.289 311.01 369.854 310.822 370.545 310.822C371.944 310.822 372.347 311.707 372.347 312.664V314.229ZM371.271 313.147C370.491 313.138 369.746 313.299 369.746 313.96C369.746 314.39 370.024 314.586 370.374 314.586C370.823 314.586 371.136 314.3 371.244 313.987C371.271 313.907 371.271 313.826 371.271 313.746V313.147Z" fill="#555555"/>
<path d="M373.513 308.928H374.616V315.276H373.513V308.928Z" fill="#555555"/>
<path d="M376.992 309.714C376.992 310.036 376.75 310.304 376.365 310.304C375.997 310.304 375.755 310.036 375.755 309.714C375.755 309.375 376.006 309.115 376.374 309.115C376.75 309.115 376.983 309.375 376.992 309.714ZM375.818 315.275V310.921H376.921V315.275H375.818Z" fill="#555555"/>
<path d="M377.701 314.641L379.342 312.549C379.566 312.281 379.755 312.066 379.979 311.816V311.798H377.863V310.922H381.324V311.592L379.728 313.64C379.513 313.899 379.306 314.149 379.082 314.382V314.4H381.378V315.276H377.701V314.641Z" fill="#555555"/>
<path d="M382.866 313.406C382.893 314.193 383.503 314.533 384.211 314.533C384.722 314.533 385.081 314.452 385.422 314.336L385.583 315.087C385.206 315.248 384.686 315.364 384.059 315.364C382.642 315.364 381.808 314.497 381.808 313.165C381.808 311.958 382.543 310.822 383.942 310.822C385.359 310.822 385.825 311.985 385.825 312.941C385.825 313.147 385.807 313.308 385.789 313.406H382.866ZM384.785 312.637C384.794 312.235 384.615 311.573 383.879 311.573C383.198 311.573 382.911 312.19 382.866 312.637H384.785Z" fill="#555555"/>
<path d="M390.74 308.928V314.051C390.74 314.498 390.758 314.981 390.776 315.276H389.799L389.745 314.587H389.727C389.467 315.07 388.938 315.374 388.31 315.374C387.261 315.374 386.436 314.489 386.436 313.148C386.427 311.69 387.341 310.823 388.391 310.823C388.991 310.823 389.422 311.065 389.619 311.386H389.637V308.928H390.74ZM389.637 312.737C389.637 312.647 389.628 312.531 389.61 312.441C389.512 312.021 389.162 311.673 388.66 311.673C387.951 311.673 387.557 312.298 387.557 313.103C387.557 313.908 387.951 314.489 388.651 314.489C389.099 314.489 389.494 314.185 389.601 313.711C389.628 313.613 389.637 313.505 389.637 313.389V312.737Z" fill="#555555"/>
<path d="M394.882 315.276L392.927 309.25H394.128L394.953 311.995C395.187 312.755 395.393 313.452 395.545 314.185H395.563C395.725 313.47 395.949 312.737 396.182 312.004L397.061 309.25H398.236L396.146 315.276H394.882Z" fill="#555555"/>
<path d="M401.896 314.229C401.896 314.622 401.914 315.007 401.968 315.275H400.972L400.892 314.792H400.865C400.605 315.132 400.147 315.373 399.573 315.373C398.694 315.373 398.201 314.738 398.201 314.077C398.201 312.986 399.179 312.423 400.793 312.432V312.36C400.793 312.074 400.676 311.6 399.905 311.6C399.475 311.6 399.026 311.734 398.73 311.922L398.515 311.207C398.838 311.01 399.403 310.822 400.093 310.822C401.492 310.822 401.896 311.707 401.896 312.664V314.229ZM400.82 313.147C400.04 313.138 399.295 313.299 399.295 313.96C399.295 314.39 399.573 314.586 399.923 314.586C400.371 314.586 400.685 314.3 400.793 313.987C400.82 313.907 400.82 313.826 400.82 313.746V313.147Z" fill="#555555"/>
<path d="M403.062 308.928H404.165V315.276H403.062V308.928Z" fill="#555555"/>
<path d="M409.277 313.971C409.277 314.489 409.294 314.918 409.312 315.276H408.353L408.299 314.623H408.272C408.084 314.927 407.653 315.374 406.864 315.374C406.075 315.374 405.349 314.9 405.349 313.479V310.922H406.452V313.291C406.452 314.015 406.685 314.48 407.268 314.48C407.716 314.48 408.003 314.176 408.111 313.89C408.156 313.801 408.174 313.676 408.174 313.55V310.922H409.277V313.971Z" fill="#555555"/>
<path d="M411.248 313.406C411.275 314.193 411.884 314.533 412.593 314.533C413.104 314.533 413.463 314.452 413.803 314.336L413.965 315.087C413.588 315.248 413.068 315.364 412.44 315.364C411.023 315.364 410.189 314.497 410.189 313.165C410.189 311.958 410.925 310.822 412.324 310.822C413.741 310.822 414.207 311.985 414.207 312.941C414.207 313.147 414.189 313.308 414.171 313.406H411.248ZM413.167 312.637C413.176 312.235 412.996 311.573 412.261 311.573C411.579 311.573 411.292 312.19 411.248 312.637H413.167Z" fill="#555555"/>
<path d="M360.115 356.207C359.863 356.323 359.325 356.466 358.626 356.466C356.805 356.466 355.693 355.331 355.693 353.579C355.693 351.692 357.012 350.557 358.769 350.557C359.46 350.557 359.944 350.7 360.159 350.816L359.935 351.647C359.666 351.531 359.281 351.424 358.814 351.424C357.648 351.424 356.805 352.157 356.805 353.534C356.805 354.804 357.541 355.599 358.805 355.599C359.218 355.599 359.666 355.51 359.944 355.394L360.115 356.207Z" fill="#555555"/>
<path d="M362.042 350.637V353.981C362.042 355.098 362.509 355.617 363.217 355.617C363.979 355.617 364.428 355.098 364.428 353.981V350.637H365.477V353.909C365.477 355.679 364.562 356.457 363.181 356.457C361.854 356.457 360.993 355.715 360.993 353.918V350.637H362.042Z" fill="#555555"/>
<path d="M366.662 355.232C366.994 355.428 367.514 355.598 368.052 355.598C368.716 355.598 369.092 355.285 369.092 354.82C369.092 354.382 368.805 354.132 368.079 353.873C367.128 353.533 366.519 353.032 366.519 352.21C366.519 351.262 367.308 350.564 368.554 350.564C369.173 350.564 369.63 350.699 369.926 350.851L369.675 351.691C369.46 351.584 369.065 351.423 368.527 351.423C367.864 351.423 367.577 351.771 367.577 352.111C367.577 352.549 367.909 352.755 368.68 353.05C369.675 353.425 370.151 353.926 370.151 354.749C370.151 355.679 369.451 356.474 367.98 356.474C367.371 356.474 366.734 356.304 366.42 356.108L366.662 355.232Z" fill="#555555"/>
<path d="M372.195 351.513H370.554V350.637H374.894V351.513H373.244V356.368H372.195V351.513Z" fill="#555555"/>
<path d="M380.436 353.444C380.436 355.366 379.27 356.457 377.692 356.457C376.059 356.457 375.037 355.214 375.037 353.542C375.037 351.772 376.158 350.529 377.772 350.529C379.44 350.538 380.436 351.799 380.436 353.444ZM376.14 353.516C376.14 354.687 376.732 355.617 377.736 355.617C378.75 355.617 379.324 354.669 379.324 353.471C379.324 352.389 378.786 351.37 377.736 351.37C376.696 351.379 376.14 352.335 376.14 353.516Z" fill="#555555"/>
<path d="M386.184 354.025C386.148 353.283 386.103 352.389 386.112 351.62H386.085C385.897 352.318 385.654 353.095 385.403 353.811L384.56 356.296H383.762L382.991 353.846C382.767 353.113 382.561 352.335 382.408 351.62H382.39C382.363 352.371 382.327 353.274 382.292 354.061L382.166 356.368H381.188L381.574 350.637H382.955L383.708 352.943C383.915 353.614 384.094 354.294 384.238 354.928H384.264C384.417 354.311 384.614 353.605 384.838 352.934L385.628 350.637H386.991L387.323 356.368H386.3L386.184 354.025Z" fill="#555555"/>
<path d="M391.592 353.829H389.421V355.509H391.843V356.368H388.372V350.637H391.717V351.495H389.421V352.97H391.592V353.829Z" fill="#555555"/>
<path d="M392.767 350.727C393.17 350.646 393.744 350.602 394.354 350.602C395.179 350.602 395.735 350.736 396.13 351.058C396.444 351.317 396.623 351.719 396.623 352.211C396.623 352.953 396.121 353.454 395.574 353.641V353.668C395.995 353.82 396.237 354.223 396.372 354.777C396.56 355.492 396.713 356.154 396.82 356.377H395.744C395.663 356.207 395.511 355.743 395.358 355.027C395.188 354.276 394.928 354.044 394.327 354.026H393.798V356.377H392.758V350.727H392.767ZM393.807 353.248H394.426C395.134 353.248 395.565 352.873 395.565 352.3C395.565 351.683 395.134 351.379 394.444 351.379C394.112 351.379 393.897 351.406 393.798 351.433V353.248H393.807Z" fill="#555555"/>
<path d="M399.357 355.232C399.689 355.428 400.209 355.598 400.747 355.598C401.411 355.598 401.788 355.285 401.788 354.82C401.788 354.382 401.501 354.132 400.774 353.873C399.824 353.533 399.214 353.032 399.214 352.21C399.214 351.262 400.003 350.564 401.25 350.564C401.868 350.564 402.326 350.699 402.622 350.851L402.371 351.691C402.155 351.584 401.761 351.423 401.223 351.423C400.559 351.423 400.272 351.771 400.272 352.111C400.272 352.549 400.604 352.755 401.375 353.05C402.371 353.425 402.846 353.926 402.846 354.749C402.846 355.679 402.146 356.474 400.676 356.474C400.066 356.474 399.429 356.304 399.115 356.108L399.357 355.232Z" fill="#555555"/>
<path d="M404.838 350.637V353.981C404.838 355.098 405.305 355.617 406.013 355.617C406.775 355.617 407.224 355.098 407.224 353.981V350.637H408.273V353.909C408.273 355.679 407.358 356.457 405.977 356.457C404.65 356.457 403.789 355.715 403.789 353.918V350.637H404.838Z" fill="#555555"/>
<path d="M413.59 356.207C413.339 356.323 412.801 356.466 412.101 356.466C410.281 356.466 409.169 355.331 409.169 353.579C409.169 351.692 410.487 350.557 412.245 350.557C412.935 350.557 413.42 350.7 413.635 350.816L413.411 351.647C413.142 351.531 412.756 351.424 412.29 351.424C411.124 351.424 410.281 352.157 410.281 353.534C410.281 354.804 411.016 355.599 412.281 355.599C412.693 355.599 413.142 355.51 413.42 355.394L413.59 356.207Z" fill="#555555"/>
<path d="M418.379 356.207C418.128 356.323 417.59 356.466 416.891 356.466C415.07 356.466 413.958 355.331 413.958 353.579C413.958 351.692 415.276 350.557 417.034 350.557C417.724 350.557 418.209 350.7 418.424 350.816L418.2 351.647C417.931 351.531 417.545 351.424 417.079 351.424C415.913 351.424 415.07 352.157 415.07 353.534C415.07 354.804 415.805 355.599 417.07 355.599C417.482 355.599 417.931 355.51 418.209 355.394L418.379 356.207Z" fill="#555555"/>
<path d="M422.486 353.829H420.316V355.509H422.737V356.368H419.267V350.637H422.612V351.495H420.316V352.97H422.486V353.829Z" fill="#555555"/>
<path d="M423.633 355.232C423.965 355.428 424.485 355.598 425.023 355.598C425.687 355.598 426.064 355.285 426.064 354.82C426.064 354.382 425.777 354.132 425.05 353.873C424.1 353.533 423.49 353.032 423.49 352.21C423.49 351.262 424.279 350.564 425.526 350.564C426.144 350.564 426.602 350.699 426.898 350.851L426.647 351.691C426.431 351.584 426.037 351.423 425.499 351.423C424.835 351.423 424.557 351.771 424.557 352.111C424.557 352.549 424.889 352.755 425.66 353.05C426.656 353.425 427.14 353.926 427.14 354.749C427.14 355.679 426.44 356.474 424.97 356.474C424.36 356.474 423.723 356.304 423.409 356.108L423.633 355.232Z" fill="#555555"/>
<path d="M428.063 355.232C428.395 355.428 428.915 355.598 429.453 355.598C430.117 355.598 430.493 355.285 430.493 354.82C430.493 354.382 430.206 354.132 429.48 353.873C428.529 353.533 427.92 353.032 427.92 352.21C427.92 351.262 428.709 350.564 429.955 350.564C430.574 350.564 431.031 350.699 431.327 350.851L431.076 351.691C430.861 351.584 430.466 351.423 429.928 351.423C429.265 351.423 428.987 351.771 428.987 352.111C428.987 352.549 429.319 352.755 430.09 353.05C431.085 353.425 431.569 353.926 431.569 354.749C431.569 355.679 430.87 356.474 429.399 356.474C428.789 356.474 428.153 356.304 427.839 356.108L428.063 355.232Z" fill="#555555"/>
<path d="M435.024 351.513H433.383V350.637H437.723V351.513H436.073V356.368H435.024V351.513Z" fill="#555555"/>
<path d="M441.606 353.829H439.436V355.509H441.857V356.368H438.387V350.637H441.732V351.495H439.436V352.97H441.606V353.829Z" fill="#555555"/>
<path d="M443.929 354.741L443.436 356.368H442.351L444.189 350.637H445.525L447.391 356.368H446.261L445.74 354.741H443.929ZM445.579 353.954L445.131 352.541C445.023 352.192 444.924 351.799 444.844 351.468H444.826C444.745 351.799 444.646 352.201 444.557 352.541L444.117 353.954H445.579Z" fill="#555555"/>
<path d="M453.022 354.025C452.987 353.283 452.942 352.389 452.951 351.62H452.924C452.735 352.318 452.493 353.095 452.242 353.811L451.399 356.296H450.601L449.83 353.846C449.606 353.113 449.399 352.335 449.247 351.62H449.229C449.202 352.371 449.166 353.274 449.13 354.061L449.005 356.368H448.027L448.413 350.637H449.794L450.547 352.943C450.754 353.614 450.933 354.294 451.076 354.928H451.103C451.256 354.311 451.453 353.605 451.677 352.934L452.466 350.637H453.83L454.161 356.368H453.139L453.022 354.025Z" fill="#555555"/>
<path d="M364.043 171.188L363.55 172.815H362.465L364.303 167.084H365.639L367.505 172.815H366.375L365.855 171.188H364.043ZM365.684 170.401L365.236 168.988C365.128 168.64 365.03 168.246 364.949 167.915H364.931C364.85 168.246 364.752 168.649 364.662 168.988L364.223 170.401H365.684Z" fill="#4E4EFF"/>
<path d="M372.249 172.645C371.998 172.761 371.46 172.904 370.761 172.904C368.931 172.904 367.828 171.769 367.828 170.016C367.828 168.13 369.146 166.994 370.904 166.994C371.595 166.994 372.079 167.137 372.294 167.253L372.07 168.085C371.801 167.969 371.415 167.861 370.949 167.861C369.783 167.861 368.94 168.595 368.94 169.971C368.94 171.241 369.676 172.037 370.94 172.037C371.361 172.037 371.801 171.947 372.079 171.831L372.249 172.645Z" fill="#4E4EFF"/>
<path d="M374.411 167.96H372.77V167.084H377.11V167.96H375.46V172.815H374.411V167.96Z" fill="#4E4EFF"/>
<path d="M378.831 167.084V172.815H377.782V167.084H378.831Z" fill="#4E4EFF"/>
<path d="M381.343 172.805L379.486 167.074H380.625L381.405 169.685C381.63 170.409 381.827 171.071 381.97 171.768H381.988C382.141 171.089 382.356 170.391 382.58 169.694L383.414 167.074H384.535L382.553 172.805H381.343Z" fill="#4E4EFF"/>
<path d="M388.363 170.266H386.193V171.947H388.614V172.805H385.144V167.074H388.489V167.933H386.193V169.408H388.363V170.266Z" fill="#4E4EFF"/>
<path d="M367.012 182.838C366.761 182.954 366.223 183.097 365.523 183.097C363.703 183.097 362.591 181.962 362.591 180.209C362.591 178.323 363.909 177.188 365.667 177.188C366.357 177.188 366.842 177.331 367.057 177.447L366.833 178.278C366.564 178.162 366.178 178.055 365.712 178.055C364.546 178.055 363.703 178.788 363.703 180.165C363.703 181.434 364.438 182.23 365.703 182.23C366.115 182.23 366.564 182.141 366.842 182.024L367.012 182.838Z" fill="#4E4EFF"/>
<path d="M368.94 177.275V180.619C368.94 181.737 369.406 182.255 370.115 182.255C370.877 182.255 371.325 181.737 371.325 180.619V177.275H372.375V180.548C372.375 182.318 371.46 183.096 370.079 183.096C368.752 183.096 367.891 182.354 367.891 180.557V177.275H368.94Z" fill="#4E4EFF"/>
<path d="M373.558 181.862C373.889 182.059 374.41 182.229 374.948 182.229C375.611 182.229 375.988 181.916 375.988 181.451C375.988 181.022 375.701 180.763 374.974 180.503C374.024 180.164 373.414 179.663 373.414 178.84C373.414 177.893 374.203 177.195 375.45 177.195C376.069 177.195 376.526 177.329 376.822 177.481L376.571 178.322C376.356 178.215 375.961 178.054 375.423 178.054C374.759 178.054 374.472 178.402 374.472 178.742C374.472 179.18 374.804 179.386 375.575 179.69C376.571 180.065 377.046 180.566 377.046 181.389C377.046 182.318 376.347 183.114 374.876 183.114C374.266 183.114 373.629 182.944 373.315 182.748L373.558 181.862Z" fill="#4E4EFF"/>
<path d="M379.101 178.152H377.46V177.275H381.8V178.152H380.15V183.006H379.101V178.152Z" fill="#4E4EFF"/>
<path d="M387.333 180.075C387.333 181.997 386.167 183.088 384.589 183.088C382.957 183.088 381.935 181.845 381.935 180.173C381.935 178.403 383.056 177.16 384.67 177.16C386.338 177.169 387.333 178.439 387.333 180.075ZM383.038 180.155C383.038 181.327 383.63 182.256 384.634 182.256C385.647 182.256 386.221 181.309 386.221 180.111C386.221 179.029 385.683 178.01 384.634 178.01C383.594 178.01 383.038 178.975 383.038 180.155Z" fill="#4E4EFF"/>
<path d="M393.081 180.664C393.045 179.922 393 179.028 393.009 178.259H392.982C392.794 178.956 392.552 179.734 392.301 180.449L391.458 182.935H390.66L389.888 180.485C389.664 179.752 389.458 178.974 389.306 178.259H389.288C389.261 179.01 389.225 179.913 389.189 180.7L389.063 183.006H388.086L388.472 177.275H389.853L390.606 179.582C390.812 180.253 390.992 180.932 391.135 181.567H391.162C391.314 180.95 391.512 180.244 391.736 179.573L392.525 177.275H393.888L394.22 183.006H393.198L393.081 180.664Z" fill="#4E4EFF"/>
<path d="M398.489 180.459H396.319V182.14H398.74V182.999H395.27V177.268H398.615V178.126H396.319V179.601H398.489V180.459Z" fill="#4E4EFF"/>
<path d="M399.664 177.356C400.068 177.275 400.642 177.23 401.252 177.23C402.077 177.23 402.633 177.365 403.027 177.686C403.341 177.946 403.52 178.348 403.52 178.84C403.52 179.582 403.018 180.083 402.471 180.27V180.297C402.893 180.449 403.135 180.851 403.269 181.406C403.458 182.121 403.61 182.783 403.718 183.006H402.642C402.561 182.836 402.408 182.371 402.256 181.656C402.086 180.905 401.825 180.673 401.225 180.655H400.696V183.006H399.655V177.356H399.664ZM400.704 179.886H401.323C402.032 179.886 402.462 179.51 402.462 178.938C402.462 178.321 402.032 178.017 401.341 178.017C401.009 178.017 400.794 178.044 400.696 178.071V179.886H400.704Z" fill="#4E4EFF"/>
<path d="M448.107 147.271H449.157V152.126H451.515V153.003H448.107V147.271Z" fill="#4E4EFF"/>
<path d="M457.067 150.069C457.067 151.991 455.901 153.082 454.322 153.082C452.69 153.082 451.668 151.839 451.668 150.167C451.668 148.397 452.789 147.154 454.403 147.154C456.08 147.163 457.067 148.433 457.067 150.069ZM452.78 150.149C452.78 151.321 453.372 152.251 454.376 152.251C455.39 152.251 455.964 151.303 455.964 150.105C455.964 149.023 455.425 148.004 454.376 148.004C453.336 148.004 452.78 148.969 452.78 150.149Z" fill="#4E4EFF"/>
<path d="M458.995 152.993V150.606L457.184 147.262H458.385L459.067 148.728C459.264 149.157 459.408 149.479 459.569 149.863H459.587C459.722 149.497 459.883 149.139 460.08 148.728L460.771 147.262H461.954L460.044 150.579V152.993H458.995Z" fill="#4E4EFF"/>
<path d="M462.994 151.375L462.501 153.003H461.416L463.254 147.271H464.591L466.456 153.003H465.326L464.806 151.375H462.994ZM464.644 150.58L464.196 149.167C464.088 148.818 463.99 148.425 463.909 148.094H463.891C463.81 148.425 463.712 148.827 463.622 149.167L463.183 150.58H464.644Z" fill="#4E4EFF"/>
<path d="M467.263 147.271H468.312V152.126H470.67V153.003H467.263V147.271Z" fill="#4E4EFF"/>
<path d="M452.224 163.024C451.973 163.14 451.435 163.283 450.735 163.283C448.915 163.283 447.803 162.147 447.803 160.395C447.803 158.509 449.121 157.373 450.879 157.373C451.569 157.373 452.053 157.516 452.269 157.632L452.045 158.464C451.775 158.348 451.39 158.24 450.924 158.24C449.758 158.24 448.915 158.973 448.915 160.35C448.915 161.62 449.65 162.416 450.915 162.416C451.327 162.416 451.775 162.326 452.053 162.21L452.224 163.024Z" fill="#4E4EFF"/>
<path d="M454.152 157.463V160.807C454.152 161.924 454.618 162.443 455.327 162.443C456.089 162.443 456.537 161.924 456.537 160.807V157.463H457.586V160.735C457.586 162.505 456.672 163.283 455.291 163.283C453.963 163.283 453.103 162.541 453.103 160.744V157.463H454.152Z" fill="#4E4EFF"/>
<path d="M458.771 162.05C459.103 162.247 459.623 162.416 460.161 162.416C460.825 162.416 461.202 162.104 461.202 161.639C461.202 161.209 460.915 160.95 460.188 160.691C459.238 160.351 458.628 159.85 458.628 159.028C458.628 158.08 459.417 157.383 460.664 157.383C461.282 157.383 461.74 157.517 462.036 157.669L461.785 158.509C461.569 158.402 461.175 158.241 460.637 158.241C459.973 158.241 459.686 158.59 459.686 158.93C459.686 159.368 460.018 159.573 460.789 159.877C461.785 160.253 462.26 160.753 462.26 161.576C462.26 162.506 461.56 163.302 460.09 163.302C459.48 163.302 458.843 163.132 458.529 162.935L458.771 162.05Z" fill="#4E4EFF"/>
<path d="M464.304 158.329H462.663V157.453H467.003V158.329H465.353V163.184H464.304V158.329Z" fill="#4E4EFF"/>
<path d="M472.545 160.262C472.545 162.185 471.379 163.275 469.801 163.275C468.169 163.275 467.146 162.033 467.146 160.361C467.146 158.59 468.267 157.348 469.882 157.348C471.55 157.357 472.545 158.626 472.545 160.262ZM468.25 160.343C468.25 161.514 468.841 162.444 469.846 162.444C470.859 162.444 471.433 161.496 471.433 160.298C471.433 159.216 470.895 158.197 469.846 158.197C468.805 158.197 468.25 159.163 468.25 160.343Z" fill="#4E4EFF"/>
<path d="M478.293 160.851C478.257 160.109 478.212 159.215 478.221 158.446H478.194C478.006 159.144 477.764 159.922 477.513 160.637L476.67 163.122H475.872L475.1 160.673C474.876 159.939 474.67 159.162 474.517 158.446H474.5C474.473 159.197 474.437 160.1 474.401 160.887L474.275 163.194H473.298L473.683 157.463H475.064L475.818 159.77C476.024 160.44 476.203 161.12 476.347 161.754H476.374C476.526 161.138 476.724 160.431 476.948 159.761L477.737 157.463H479.1L479.432 163.194H478.41L478.293 160.851Z" fill="#4E4EFF"/>
<path d="M483.701 160.645H481.531V162.326H483.952V163.184H480.481V157.453H483.826V158.311H481.531V159.787H483.701V160.645Z" fill="#4E4EFF"/>
<path d="M484.876 157.543C485.28 157.463 485.854 157.418 486.463 157.418C487.289 157.418 487.845 157.552 488.239 157.874C488.553 158.133 488.732 158.536 488.732 159.027C488.732 159.769 488.23 160.27 487.683 160.458V160.485C488.105 160.637 488.347 161.039 488.481 161.593C488.67 162.309 488.822 162.97 488.93 163.194H487.853C487.773 163.024 487.62 162.559 487.468 161.844C487.297 161.093 487.037 160.86 486.437 160.842H485.907V163.194H484.867V157.543H484.876ZM485.916 160.064H486.535C487.244 160.064 487.674 159.689 487.674 159.117C487.674 158.5 487.244 158.196 486.553 158.196C486.221 158.196 486.006 158.223 485.907 158.249V160.064H485.916Z" fill="#4E4EFF"/>
<path d="M104.028 285.792C104.378 285.997 104.925 286.176 105.49 286.176C106.19 286.176 106.584 285.845 106.584 285.354C106.584 284.898 106.279 284.629 105.517 284.352C104.513 283.995 103.876 283.467 103.876 282.6C103.876 281.607 104.701 280.865 106.019 280.865C106.674 280.865 107.149 281.008 107.463 281.169L107.203 282.054C106.979 281.938 106.557 281.768 105.992 281.768C105.293 281.768 104.997 282.135 104.997 282.492C104.997 282.957 105.347 283.172 106.154 283.485C107.203 283.878 107.705 284.406 107.705 285.273C107.705 286.248 106.97 287.088 105.418 287.088C104.773 287.088 104.109 286.909 103.777 286.704L104.028 285.792Z" fill="#4E4EFF"/>
<path d="M109.804 280.963V286.989H108.701V280.963H109.804Z" fill="#4E4EFF"/>
<path d="M115.91 286.712C115.525 286.855 114.772 287.052 113.973 287.052C112.951 287.052 112.171 286.792 111.597 286.247C111.059 285.737 110.754 284.942 110.754 284.03C110.763 282.116 112.117 280.9 114.117 280.9C114.861 280.9 115.444 281.052 115.722 281.187L115.48 282.072C115.148 281.92 114.745 281.812 114.108 281.812C112.817 281.812 111.911 282.572 111.911 283.976C111.911 285.344 112.754 286.158 114.009 286.158C114.413 286.158 114.7 286.104 114.843 286.041V284.53H113.776V283.663H115.91V286.712Z" fill="#4E4EFF"/>
<path d="M117.031 286.989V280.963H118.296L119.856 283.547C120.251 284.217 120.609 284.915 120.887 285.567H120.905C120.825 284.763 120.807 283.985 120.807 283.064V280.963H121.829V286.989H120.681L119.103 284.334C118.717 283.672 118.323 282.939 118.027 282.259L117.991 282.268C118.036 283.046 118.054 283.842 118.054 284.834V286.989H117.031Z" fill="#4E4EFF"/>
<path d="M126.053 280.963V284.477C126.053 285.657 126.546 286.202 127.291 286.202C128.089 286.202 128.564 285.657 128.564 284.477V280.963H129.667V284.405C129.667 286.265 128.708 287.087 127.255 287.087C125.856 287.087 124.95 286.309 124.95 284.414V280.963H126.053Z" fill="#4E4EFF"/>
<path d="M130.932 281.043C131.335 280.972 131.882 280.918 132.618 280.918C133.425 280.918 134.008 281.088 134.393 281.41C134.752 281.705 134.985 282.179 134.985 282.742C134.985 283.314 134.806 283.779 134.474 284.101C134.026 284.539 133.344 284.754 132.564 284.754C132.358 284.754 132.178 284.745 132.026 284.709V286.989H130.932V281.043ZM132.026 283.842C132.169 283.886 132.34 283.895 132.564 283.895C133.389 283.895 133.891 283.484 133.891 282.787C133.891 282.116 133.425 281.767 132.662 281.767C132.358 281.767 132.142 281.794 132.026 281.821V283.842Z" fill="#4E4EFF"/>
<path d="M137.246 287.338L139.425 280.855H140.197L138.008 287.338H137.246Z" fill="#4E4EFF"/>
<path d="M143.478 281.884H141.756V280.963H146.321V281.884H144.581V286.989H143.478V281.884Z" fill="#4E4EFF"/>
<path d="M147.029 281.052C147.451 280.972 148.061 280.918 148.697 280.918C149.567 280.918 150.15 281.061 150.563 281.401C150.894 281.678 151.083 282.098 151.083 282.617C151.083 283.395 150.554 283.922 149.98 284.119V284.146C150.419 284.307 150.679 284.727 150.823 285.308C151.02 286.059 151.181 286.756 151.298 286.989H150.168C150.078 286.81 149.926 286.318 149.764 285.567C149.585 284.78 149.307 284.53 148.679 284.512H148.123V286.989H147.029V281.052ZM148.123 283.707H148.778C149.522 283.707 149.98 283.314 149.98 282.715C149.98 282.062 149.522 281.749 148.805 281.749C148.455 281.749 148.231 281.776 148.123 281.803V283.707Z" fill="#4E4EFF"/>
<path d="M153.235 280.963V286.989H152.132V280.963H153.235Z" fill="#4E4EFF"/>
<path d="M155.711 285.281L155.191 286.989H154.052L155.989 280.963H157.397L159.361 286.989H158.168L157.621 285.281H155.711ZM157.442 284.45L156.966 282.966C156.85 282.599 156.751 282.188 156.661 281.839H156.643C156.554 282.188 156.455 282.608 156.356 282.966L155.89 284.45H157.442Z" fill="#4E4EFF"/>
<path d="M160.203 280.963H161.306V286.068H163.79V286.989H160.203V280.963Z" fill="#4E4EFF"/>
<path d="M54.4092 333.535C54.1491 333.66 53.5752 333.803 52.8398 333.803C50.9207 333.803 49.7549 332.605 49.7549 330.763C49.7549 328.778 51.1449 327.58 52.9923 327.58C53.7187 327.58 54.2298 327.732 54.454 327.848L54.2209 328.725C53.9339 328.599 53.5304 328.492 53.0371 328.492C51.8085 328.492 50.9207 329.261 50.9207 330.709C50.9207 332.042 51.6919 332.882 53.0281 332.882C53.4676 332.882 53.9339 332.793 54.2298 332.667L54.4092 333.535Z" fill="#4E4EFF"/>
<path d="M60.4813 330.628C60.4813 332.649 59.2527 333.802 57.5937 333.802C55.8808 333.802 54.8047 332.497 54.8047 330.735C54.8047 328.876 55.9795 327.57 57.6834 327.57C59.4411 327.57 60.4813 328.902 60.4813 330.628ZM55.9705 330.708C55.9705 331.942 56.5893 332.917 57.6475 332.917C58.7147 332.917 59.3155 331.924 59.3155 330.664C59.3155 329.528 58.7505 328.455 57.6475 328.455C56.5534 328.455 55.9705 329.466 55.9705 330.708Z" fill="#4E4EFF"/>
<path d="M61.4219 333.704V327.678H62.6863L64.2467 330.262C64.6413 330.932 65 331.63 65.278 332.282H65.296C65.2153 331.478 65.1973 330.7 65.1973 329.779V327.678H66.2197V333.704H65.0718L63.4934 331.048C63.1078 330.387 62.7132 329.654 62.4173 328.974L62.3814 328.983C62.4263 329.761 62.4442 330.557 62.4442 331.549V333.704H61.4219Z" fill="#4E4EFF"/>
<path d="M68.6505 328.599H66.9287V327.678H71.4933V328.599H69.7536V333.704H68.6505V328.599Z" fill="#4E4EFF"/>
<path d="M75.5821 331.031H73.3042V332.801H75.8511V333.704H72.2012V327.678H75.7166V328.581H73.3042V330.136H75.5821V331.031Z" fill="#4E4EFF"/>
<path d="M76.8105 333.704V327.678H78.075L79.6354 330.262C80.03 330.932 80.3887 331.63 80.6667 332.282H80.6847C80.6039 331.478 80.586 330.7 80.586 329.779V327.678H81.6084V333.704H80.4605L78.8821 331.048C78.4965 330.387 78.1019 329.654 77.806 328.974L77.7701 328.983C77.8149 329.761 77.8329 330.557 77.8329 331.549V333.704H76.8105Z" fill="#4E4EFF"/>
<path d="M84.0392 328.599H82.3174V327.678H86.882V328.599H85.1423V333.704H84.0392V328.599Z" fill="#4E4EFF"/>
<path d="M37.0839 388.5C37.2095 388.759 37.353 389.331 37.353 390.064C37.353 391.978 36.1513 393.14 34.3039 393.14C32.313 393.14 31.1113 391.754 31.1113 389.912C31.1113 389.188 31.2638 388.679 31.3804 388.455L32.2592 388.688C32.1337 388.974 32.026 389.376 32.026 389.868C32.026 391.093 32.7973 391.978 34.2501 391.978C35.5863 391.978 36.4293 391.209 36.4293 389.877C36.4293 389.439 36.3396 388.974 36.214 388.679L37.0839 388.5Z" fill="#4E4EFF"/>
<path d="M31.2178 386.462H33.6391V383.914H31.2178V382.814H37.2621V383.914H34.5987V386.462H37.2621V387.562H31.2178V386.462Z" fill="#4E4EFF"/>
<path d="M35.5405 380.346L37.2533 380.865V382L31.209 380.069V378.665L37.2533 376.707V377.896L35.5405 378.442V380.346ZM34.7064 378.62L33.2178 379.094C32.8501 379.21 32.4376 379.309 32.0878 379.398V379.416C32.4376 379.506 32.8591 379.604 33.2178 379.702L34.7064 380.167V378.62Z" fill="#4E4EFF"/>
<path d="M37.2533 375.877H31.209V374.616L33.8007 373.061C34.4733 372.667 35.1728 372.31 35.8274 372.033V372.015C35.0203 372.095 34.2401 372.113 33.3164 372.113H31.209V371.094H37.2533V372.238L34.5899 373.812C33.9262 374.196 33.1909 374.59 32.5093 374.885L32.5183 374.92C33.2985 374.876 34.0966 374.858 35.0921 374.858H37.2533V375.877Z" fill="#4E4EFF"/>
<path d="M37.2533 369.832H31.209V368.571L33.8007 367.016C34.4733 366.622 35.1728 366.265 35.8274 365.988V365.97C35.0203 366.05 34.2401 366.068 33.3164 366.068H31.209V365.049H37.2533V366.193L34.5899 367.767C33.9262 368.151 33.1909 368.545 32.5093 368.84L32.5183 368.875C33.2985 368.831 34.0966 368.813 35.0921 368.813H37.2533V369.832Z" fill="#4E4EFF"/>
<path d="M34.5719 360.409V362.68H36.3476V360.141H37.2533V363.779H31.209V360.275H32.1147V362.68H33.6751V360.409H34.5719Z" fill="#4E4EFF"/>
<path d="M31.2178 359.174V358.074H36.3384V355.598H37.2621V359.174H31.2178Z" fill="#4E4EFF"/>
<path d="M36.0526 354.785C36.2589 354.436 36.4382 353.891 36.4382 353.328C36.4382 352.63 36.1064 352.237 35.6132 352.237C35.1558 352.237 34.8868 352.541 34.6088 353.301C34.2501 354.302 33.721 354.937 32.8511 354.937C31.8557 354.937 31.1113 354.114 31.1113 352.8C31.1113 352.147 31.2548 351.673 31.4162 351.361L32.3041 351.62C32.1875 351.843 32.0171 352.264 32.0171 352.827C32.0171 353.524 32.3848 353.819 32.7435 353.819C33.2098 353.819 33.425 353.471 33.7389 352.666C34.1335 351.62 34.6626 351.119 35.5325 351.119C36.51 351.119 37.353 351.852 37.353 353.399C37.353 354.043 37.1736 354.704 36.9673 355.035L36.0526 354.785Z" fill="#4E4EFF"/>
<path d="M129.892 317.315L127.938 311.289H129.139L129.964 314.034C130.197 314.794 130.404 315.491 130.556 316.224H130.574C130.735 315.509 130.96 314.776 131.193 314.043L132.072 311.289H133.246L131.157 317.315H129.892Z" fill="#4E4EFF"/>
<path d="M135.004 311.289V317.315H133.901V311.289H135.004Z" fill="#4E4EFF"/>
<path d="M136.251 316.118C136.601 316.323 137.148 316.502 137.713 316.502C138.412 316.502 138.807 316.171 138.807 315.68C138.807 315.224 138.502 314.955 137.74 314.678C136.735 314.321 136.099 313.793 136.099 312.926C136.099 311.933 136.924 311.191 138.242 311.191C138.897 311.191 139.372 311.334 139.686 311.495L139.426 312.381C139.202 312.264 138.78 312.094 138.215 312.094C137.516 312.094 137.22 312.461 137.22 312.819C137.22 313.284 137.569 313.498 138.376 313.811C139.426 314.204 139.928 314.732 139.928 315.599C139.928 316.574 139.193 317.414 137.641 317.414C136.995 317.414 136.332 317.235 136 317.03L136.251 316.118Z" fill="#4E4EFF"/>
<path d="M142.027 311.289V317.315H140.924V311.289H142.027Z" fill="#4E4EFF"/>
<path d="M144.447 312.21H142.726V311.289H147.29V312.21H145.55V317.315H144.447V312.21Z" fill="#4E4EFF"/>
<path d="M147.909 316.118C148.259 316.323 148.806 316.502 149.371 316.502C150.071 316.502 150.465 316.171 150.465 315.68C150.465 315.224 150.16 314.955 149.398 314.678C148.394 314.321 147.757 313.793 147.757 312.926C147.757 311.933 148.582 311.191 149.9 311.191C150.555 311.191 151.03 311.334 151.344 311.495L151.084 312.381C150.86 312.264 150.438 312.094 149.873 312.094C149.174 312.094 148.878 312.461 148.878 312.819C148.878 313.284 149.228 313.498 150.035 313.811C151.084 314.204 151.586 314.732 151.586 315.599C151.586 316.574 150.851 317.414 149.299 317.414C148.654 317.414 147.99 317.235 147.658 317.03L147.909 316.118Z" fill="#4E4EFF"/>
<path d="M50.3926 360.473C50.7961 360.401 51.3432 360.348 52.0785 360.348C52.8856 360.348 53.4686 360.518 53.8542 360.839C54.2129 361.134 54.4461 361.608 54.4461 362.172C54.4461 362.744 54.2667 363.209 53.9349 363.531C53.4865 363.969 52.8049 364.183 52.0247 364.183C51.8185 364.183 51.6391 364.174 51.4867 364.139V366.418H50.3926V360.473ZM51.4867 363.262C51.6301 363.307 51.8005 363.316 52.0247 363.316C52.8498 363.316 53.352 362.905 53.352 362.207C53.352 361.537 52.8856 361.188 52.1234 361.188C51.8185 361.188 51.6032 361.215 51.4867 361.242V363.262Z" fill="#4E4EFF"/>
<path d="M55.9803 364.701L55.4602 366.409H54.3213L56.2583 360.383H57.6663L59.6303 366.409H58.4375L57.8905 364.701H55.9803ZM57.7111 363.87L57.2358 362.386C57.1193 362.019 57.0206 361.608 56.9309 361.259H56.913C56.8233 361.608 56.7247 362.028 56.626 362.386L56.1597 363.87H57.7111Z" fill="#4E4EFF"/>
<path d="M61.5757 360.393V366.419H60.4727V360.393H61.5757Z" fill="#4E4EFF"/>
<path d="M62.8408 360.473C63.3341 360.401 63.9439 360.348 64.5985 360.348C65.7285 360.348 66.4997 360.58 67.0557 361.045C67.6476 361.519 68.0063 362.243 68.0063 363.262C68.0063 364.344 67.6386 365.14 67.0647 365.658C66.4638 366.204 65.5043 366.481 64.3295 366.481C63.6928 366.481 63.2085 366.445 62.8408 366.401V360.473ZM63.9439 365.578C64.0963 365.605 64.3295 365.605 64.5537 365.605C65.9885 365.614 66.8405 364.818 66.8405 363.289C66.8494 361.966 66.0782 361.197 64.6972 361.197C64.3474 361.197 64.1053 361.224 63.9439 361.26V365.578Z" fill="#4E4EFF"/>
<path d="M55.7548 399.4C55.7548 401.42 54.5262 402.573 52.8671 402.573C51.1543 402.573 50.0781 401.268 50.0781 399.507C50.0781 397.647 51.2529 396.342 52.9568 396.342C54.7145 396.351 55.7548 397.674 55.7548 399.4ZM51.2439 399.48C51.2439 400.714 51.8627 401.688 52.9209 401.688C53.9881 401.688 54.589 400.696 54.589 399.435C54.589 398.3 54.024 397.227 52.9209 397.227C51.8269 397.236 51.2439 398.237 51.2439 399.48Z" fill="#4E4EFF"/>
<path d="M57.6203 397.37H55.8984V396.449H60.4631V397.37H58.7233V402.475H57.6203V397.37Z" fill="#4E4EFF"/>
<path d="M62.2739 396.459V398.873H64.8298V396.459H65.9328V402.485H64.8298V399.83H62.2739V402.485H61.1709V396.459H62.2739Z" fill="#4E4EFF"/>
<path d="M70.5791 399.802H68.3013V401.572H70.8482V402.475H67.1982V396.449H70.7136V397.352H68.3013V398.908H70.5791V399.802Z" fill="#4E4EFF"/>
<path d="M71.8164 396.548C72.2379 396.468 72.8477 396.414 73.4844 396.414C74.3543 396.414 74.9372 396.557 75.3497 396.897C75.6816 397.174 75.8699 397.594 75.8699 398.113C75.8699 398.891 75.3408 399.418 74.7668 399.615V399.642C75.2063 399.803 75.4663 400.223 75.6098 400.804C75.8071 401.555 75.9685 402.252 76.0851 402.485H74.9552C74.8655 402.306 74.713 401.814 74.5516 401.063C74.3722 400.276 74.0942 400.026 73.4665 400.008H72.9105V402.485H71.8164V396.548ZM72.9105 399.195H73.5651C74.3095 399.195 74.7668 398.801 74.7668 398.202C74.7668 397.55 74.3095 397.237 73.592 397.237C73.2423 397.237 73.0181 397.263 72.9105 397.29V399.195Z" fill="#4E4EFF"/>
<path d="M76.9015 401.278C77.2512 401.484 77.7983 401.662 78.3633 401.662C79.0627 401.662 79.4573 401.332 79.4573 400.84C79.4573 400.384 79.1524 400.116 78.3902 399.838C77.3858 399.481 76.749 398.953 76.749 398.086C76.749 397.094 77.5741 396.352 78.8924 396.352C79.547 396.352 80.0223 396.495 80.3362 396.656L80.0761 397.541C79.8519 397.424 79.4304 397.255 78.8655 397.255C78.166 397.255 77.87 397.621 77.87 397.979C77.87 398.444 78.2198 398.658 79.0269 398.971C80.0761 399.365 80.5783 399.892 80.5783 400.759C80.5783 401.734 79.8429 402.574 78.2915 402.574C77.6458 402.574 76.9822 402.395 76.6504 402.19L76.9015 401.278Z" fill="#4E4EFF"/>
<path d="M228.206 263.409C228.574 263.347 229.058 263.293 229.722 263.293C230.448 263.293 230.977 263.445 231.318 263.74C231.641 264.008 231.847 264.428 231.847 264.938C231.847 265.457 231.686 265.868 231.39 266.163C230.986 266.556 230.376 266.753 229.668 266.753C229.48 266.753 229.318 266.744 229.184 266.717V268.774H228.197V263.409H228.206ZM229.193 265.931C229.318 265.966 229.48 265.975 229.677 265.975C230.421 265.975 230.87 265.609 230.87 264.974C230.87 264.375 230.448 264.053 229.767 264.053C229.489 264.053 229.3 264.08 229.193 264.098V265.931Z" fill="#555555"/>
<path d="M237.291 269.633C236.529 269.427 235.857 269.195 235.166 268.935C235.049 268.891 234.933 268.864 234.807 268.855C233.552 268.792 232.422 267.863 232.422 266.101C232.422 264.42 233.462 263.24 235.023 263.24C236.601 263.24 237.534 264.447 237.534 265.985C237.534 267.29 236.924 268.167 236.126 268.488V268.524C236.592 268.649 237.121 268.766 237.56 268.846L237.291 269.633ZM236.493 266.03C236.493 265.002 235.982 264.045 234.996 264.045C234 264.045 233.48 264.984 233.48 266.074C233.48 267.165 234.036 268.059 234.987 268.059C235.946 268.059 236.493 267.165 236.493 266.03Z" fill="#555555"/>
<path d="M238.393 263.338H239.388V267.933H241.621V268.765H238.393V263.338Z" fill="#555555"/>
<path d="M185.69 197.866H60.517C51.9616 197.866 45.0205 190.955 45.0205 182.416V146.957C45.0205 138.428 51.9527 131.508 60.517 131.508H185.681C194.237 131.508 201.178 138.428 201.178 146.957V182.416C201.178 190.946 194.246 197.866 185.69 197.866Z" fill="#4E4EFF" fill-opacity="0.4" stroke="#4E4EFF" stroke-miterlimit="10"/>
<path d="M187.857 197.674L205.471 240.958L163.383 197.918L187.857 197.674Z" fill="#4E4EFF" fill-opacity="0.4" stroke="#4E4EFF" stroke-miterlimit="10"/>
<path d="M356.869 438.435V426.848" stroke="#4E4EFF" stroke-miterlimit="10"/>
<path d="M356.868 426.678L355.389 428.868H358.339L356.868 426.678Z" fill="#4E4EFF" stroke="#4E4EFF" stroke-miterlimit="10"/>
<path d="M408.623 347.357V335.77" stroke="#4E4EFF" stroke-miterlimit="10"/>
<path d="M408.622 335.6L407.151 337.79H410.102L408.622 335.6Z" fill="#4E4EFF" stroke="#4E4EFF" stroke-miterlimit="10"/>
<path d="M63.4037 152.582H60.3008V150.928H68.5153V152.582H65.3856V161.773H63.4037V152.582Z" fill="#231F20"/>
<path d="M69.5557 150.338H71.5376V154.987H71.5734C71.8156 154.621 72.1563 154.308 72.5599 154.102C72.9634 153.878 73.4298 153.744 73.932 153.744C75.2682 153.744 76.6761 154.629 76.6761 157.142V161.764H74.6942V157.356C74.6942 156.23 74.2728 155.363 73.1787 155.363C72.4074 155.363 71.8514 155.881 71.6272 156.471C71.5645 156.65 71.5465 156.856 71.5465 157.07V161.773H69.5646V150.338H69.5557Z" fill="#231F20"/>
<path d="M80.1924 158.412C80.2372 159.825 81.3403 160.442 82.6137 160.442C83.5374 160.442 84.1831 160.299 84.7929 160.084L85.0799 161.434C84.3983 161.72 83.4656 161.935 82.3357 161.935C79.7888 161.935 78.2822 160.37 78.2822 157.974C78.2822 155.801 79.6095 153.754 82.1294 153.754C84.6763 153.754 85.5193 155.846 85.5193 157.572C85.5193 157.938 85.4834 158.233 85.4565 158.412H80.1924ZM83.645 157.026C83.6629 156.302 83.3401 155.113 82.0129 155.113C80.7843 155.113 80.2731 156.222 80.1924 157.026H83.645Z" fill="#231F20"/>
<path d="M90.4602 156.543C90.4602 155.515 90.4244 154.675 90.3975 153.933H92.1372L92.2359 155.14H92.2717C92.8547 154.255 93.7694 153.754 94.9711 153.754C96.7826 153.754 98.2802 155.301 98.2802 157.75C98.2802 160.585 96.4866 161.953 94.6931 161.953C93.7066 161.953 92.8816 161.532 92.478 160.907H92.4421V164.966H90.4602V156.543ZM92.4421 158.492C92.4421 158.689 92.4601 158.859 92.487 159.038C92.6932 159.843 93.3927 160.424 94.2447 160.424C95.5002 160.424 96.2445 159.378 96.2445 157.831C96.2445 156.445 95.5629 155.319 94.2895 155.319C93.4645 155.319 92.7112 155.918 92.4959 156.785C92.4601 156.946 92.4332 157.125 92.4332 157.286V158.492H92.4421Z" fill="#231F20"/>
<path d="M99.9026 156.462C99.9026 155.398 99.8847 154.629 99.8398 153.932H101.553L101.633 155.416H101.678C102.064 154.325 102.988 153.762 103.839 153.762C104.037 153.762 104.144 153.78 104.306 153.806V155.657C104.126 155.621 103.947 155.612 103.705 155.612C102.772 155.612 102.109 156.211 101.929 157.106C101.893 157.284 101.885 157.49 101.885 157.705V161.782H99.9026V156.462Z" fill="#231F20"/>
<path d="M112.977 157.776C112.977 160.655 110.942 161.943 108.942 161.943C106.727 161.943 105.005 160.432 105.005 157.902C105.005 155.327 106.7 153.744 109.076 153.744C111.408 153.753 112.977 155.398 112.977 157.776ZM107.05 157.857C107.05 159.368 107.812 160.512 109.005 160.512C110.135 160.512 110.924 159.422 110.924 157.821C110.924 156.596 110.377 155.184 109.022 155.184C107.615 155.184 107.05 156.552 107.05 157.857Z" fill="#231F20"/>
<path d="M121.857 150.338V159.565C121.857 160.369 121.893 161.237 121.92 161.773H120.162L120.063 160.53H120.028C119.561 161.398 118.611 161.943 117.472 161.943C115.579 161.943 114.1 160.352 114.1 157.938C114.082 155.309 115.732 153.753 117.615 153.753C118.7 153.753 119.471 154.191 119.83 154.764H119.866V150.338H121.857ZM119.866 157.195C119.866 157.035 119.848 156.829 119.821 156.668C119.642 155.908 119.014 155.282 118.108 155.282C116.835 155.282 116.126 156.409 116.126 157.857C116.126 159.305 116.835 160.352 118.099 160.352C118.907 160.352 119.615 159.806 119.812 158.948C119.857 158.769 119.875 158.581 119.875 158.367V157.195H119.866Z" fill="#231F20"/>
<path d="M131.022 159.421C131.022 160.351 131.058 161.129 131.085 161.773H129.354L129.255 160.601H129.21C128.87 161.147 128.098 161.951 126.673 161.951C125.247 161.951 123.946 161.102 123.946 158.536V153.932H125.928V158.196C125.928 159.502 126.35 160.333 127.399 160.333C128.206 160.333 128.726 159.788 128.914 159.269C128.995 159.108 129.031 158.885 129.031 158.661V153.932H131.013V159.421H131.022Z" fill="#231F20"/>
<path d="M138.948 161.531C138.527 161.728 137.702 161.934 136.724 161.934C134.267 161.934 132.671 160.36 132.671 157.928C132.671 155.577 134.285 153.762 137.047 153.762C137.774 153.762 138.518 153.923 138.966 154.119L138.608 155.612C138.285 155.452 137.818 155.308 137.11 155.308C135.594 155.308 134.689 156.417 134.707 157.848C134.707 159.457 135.756 160.378 137.11 160.378C137.792 160.378 138.285 160.235 138.679 160.074L138.948 161.531Z" fill="#231F20"/>
<path d="M142.931 151.92V153.932H144.823V155.416H142.931V158.876C142.931 159.841 143.191 160.324 143.945 160.324C144.303 160.324 144.492 160.306 144.716 160.244L144.752 161.737C144.465 161.853 143.927 161.942 143.317 161.942C142.573 161.942 141.981 161.701 141.604 161.299C141.165 160.852 140.976 160.128 140.976 159.09V155.407H139.864V153.923H140.976V152.456L142.931 151.92Z" fill="#231F20"/>
<path d="M151.782 151.742C151.782 152.323 151.342 152.806 150.652 152.806C149.988 152.806 149.558 152.323 149.558 151.742C149.558 151.134 150.006 150.66 150.67 150.66C151.342 150.66 151.764 151.134 151.782 151.742ZM149.665 161.774V153.932H151.647V161.774H149.665Z" fill="#231F20"/>
<path d="M153.72 159.941C154.159 160.218 155.011 160.522 155.72 160.522C156.59 160.522 156.975 160.155 156.975 159.637C156.975 159.109 156.652 158.85 155.684 158.492C154.15 157.974 153.523 157.142 153.523 156.204C153.523 154.818 154.671 153.754 156.491 153.754C157.361 153.754 158.123 153.96 158.59 154.219L158.186 155.605C157.863 155.408 157.217 155.158 156.527 155.158C155.818 155.158 155.433 155.515 155.433 155.998C155.433 156.499 155.801 156.722 156.805 157.089C158.24 157.589 158.885 158.314 158.903 159.476C158.903 160.907 157.791 161.935 155.711 161.935C154.76 161.935 153.899 161.711 153.316 161.389L153.72 159.941Z" fill="#231F20"/>
<path d="M166.148 151.92V153.932H168.04V155.416H166.148V158.876C166.148 159.841 166.408 160.324 167.161 160.324C167.52 160.324 167.708 160.306 167.933 160.244L167.969 161.737C167.682 161.853 167.143 161.942 166.534 161.942C165.789 161.942 165.197 161.701 164.821 161.299C164.381 160.852 164.193 160.128 164.193 159.09V155.407H163.081V153.923H164.193V152.456L166.148 151.92Z" fill="#231F20"/>
<path d="M169.539 150.338H171.521V154.987H171.557C171.799 154.621 172.14 154.308 172.543 154.102C172.947 153.878 173.413 153.744 173.915 153.744C175.252 153.744 176.66 154.629 176.66 157.142V161.764H174.678V157.356C174.678 156.23 174.256 155.363 173.162 155.363C172.391 155.363 171.835 155.881 171.611 156.471C171.548 156.65 171.53 156.856 171.53 157.07V161.773H169.548V150.338H169.539Z" fill="#231F20"/>
<path d="M180.173 158.412C180.218 159.825 181.321 160.442 182.594 160.442C183.518 160.442 184.164 160.299 184.773 160.084L185.06 161.434C184.379 161.72 183.446 161.935 182.316 161.935C179.769 161.935 178.263 160.37 178.263 157.974C178.263 155.801 179.59 153.754 182.11 153.754C184.657 153.754 185.5 155.846 185.5 157.572C185.5 157.938 185.464 158.233 185.437 158.412H180.173ZM183.625 157.026C183.643 156.302 183.321 155.113 181.993 155.113C180.765 155.113 180.254 156.222 180.173 157.026H183.625Z" fill="#231F20"/>
<path d="M87.1601 174.504C87.205 175.916 88.308 176.533 89.5815 176.533C90.5052 176.533 91.1508 176.39 91.7607 176.176L92.0476 177.526C91.3661 177.812 90.4334 178.026 89.3035 178.026C86.7566 178.026 85.25 176.462 85.25 174.066C85.25 171.893 86.5772 169.846 89.0972 169.846C91.6441 169.846 92.4871 171.938 92.4871 173.663C92.4871 174.03 92.4512 174.325 92.4243 174.504H87.1601ZM90.6217 173.118C90.6397 172.394 90.3168 171.205 88.9896 171.205C87.761 171.205 87.2498 172.313 87.1691 173.118H90.6217Z" fill="#231F20"/>
<path d="M95.2846 170.025L96.2172 171.51C96.4773 171.93 96.7015 172.314 96.9257 172.717H96.9616C97.1858 172.278 97.41 171.876 97.6521 171.474L98.522 170.025H100.683L98.0467 173.789L100.728 177.866H98.4682L97.5176 176.302C97.2575 175.882 97.0333 175.461 96.8091 175.032H96.7733C96.5491 175.479 96.3069 175.873 96.0648 176.302L95.159 177.866H92.9619L95.6881 173.87L93.0606 170.025H95.2846Z" fill="#231F20"/>
<path d="M101.929 172.635C101.929 171.607 101.893 170.767 101.866 170.025H103.606L103.705 171.232H103.74C104.323 170.346 105.238 169.846 106.44 169.846C108.251 169.846 109.749 171.392 109.749 173.842C109.749 176.676 107.955 178.044 106.162 178.044C105.175 178.044 104.35 177.624 103.947 176.998H103.911V181.057H101.929V172.635ZM103.92 174.584C103.92 174.781 103.938 174.951 103.965 175.13C104.171 175.934 104.87 176.515 105.722 176.515C106.978 176.515 107.722 175.469 107.722 173.923C107.722 172.537 107.041 171.41 105.767 171.41C104.942 171.41 104.189 172.009 103.974 172.877C103.938 173.038 103.911 173.216 103.911 173.377V174.584H103.92Z" fill="#231F20"/>
<path d="M112.781 174.504C112.826 175.916 113.929 176.533 115.203 176.533C116.126 176.533 116.772 176.39 117.382 176.176L117.669 177.526C116.987 177.812 116.055 178.026 114.925 178.026C112.378 178.026 110.871 176.462 110.871 174.066C110.871 171.893 112.198 169.846 114.718 169.846C117.265 169.846 118.108 171.938 118.108 173.663C118.108 174.03 118.072 174.325 118.045 174.504H112.781ZM116.234 173.118C116.252 172.394 115.929 171.205 114.602 171.205C113.373 171.205 112.862 172.313 112.781 173.118H116.234Z" fill="#231F20"/>
<path d="M119.703 172.556C119.703 171.492 119.685 170.723 119.641 170.025H121.353L121.434 171.509H121.479C121.865 170.419 122.788 169.855 123.64 169.855C123.838 169.855 123.945 169.873 124.107 169.9V171.751C123.927 171.715 123.748 171.706 123.506 171.706C122.573 171.706 121.909 172.305 121.73 173.199C121.694 173.378 121.685 173.584 121.685 173.798V177.875H119.703V172.556Z" fill="#231F20"/>
<path d="M127.568 167.836C127.568 168.417 127.128 168.9 126.438 168.9C125.774 168.9 125.344 168.417 125.344 167.836C125.344 167.228 125.792 166.754 126.456 166.754C127.128 166.754 127.55 167.228 127.568 167.836ZM125.451 177.867V170.026H127.433V177.867H125.451Z" fill="#231F20"/>
<path d="M130.985 174.504C131.03 175.916 132.133 176.533 133.407 176.533C134.33 176.533 134.976 176.39 135.586 176.176L135.873 177.526C135.191 177.812 134.259 178.026 133.129 178.026C130.582 178.026 129.075 176.462 129.075 174.066C129.075 171.893 130.402 169.846 132.922 169.846C135.469 169.846 136.312 171.938 136.312 173.663C136.312 174.03 136.276 174.325 136.249 174.504H130.985ZM134.447 173.118C134.465 172.394 134.142 171.205 132.815 171.205C131.586 171.205 131.075 172.313 130.994 173.118H134.447Z" fill="#231F20"/>
<path d="M137.909 172.358C137.909 171.455 137.874 170.704 137.847 170.025H139.577L139.676 171.196H139.721C140.08 170.588 140.932 169.846 142.241 169.846C143.613 169.846 145.039 170.731 145.039 173.207V177.857H143.057V173.431C143.057 172.304 142.636 171.455 141.559 171.455C140.77 171.455 140.223 172.018 140.008 172.617C139.945 172.778 139.909 173.02 139.909 173.243V177.866H137.927V172.358H137.909Z" fill="#231F20"/>
<path d="M152.929 177.625C152.507 177.822 151.682 178.027 150.705 178.027C148.248 178.027 146.651 176.454 146.651 174.022C146.651 171.67 148.266 169.855 151.028 169.855C151.754 169.855 152.498 170.016 152.947 170.213L152.588 171.706C152.265 171.545 151.799 171.402 151.09 171.402C149.575 171.402 148.669 172.511 148.687 173.941C148.687 175.551 149.736 176.472 151.09 176.472C151.772 176.472 152.265 176.329 152.66 176.168L152.929 177.625Z" fill="#231F20"/>
<path d="M155.655 174.504C155.7 175.916 156.803 176.533 158.077 176.533C159 176.533 159.646 176.39 160.256 176.176L160.543 177.526C159.861 177.812 158.929 178.026 157.799 178.026C155.252 178.026 153.745 176.462 153.745 174.066C153.745 171.893 155.072 169.846 157.592 169.846C160.139 169.846 160.982 171.938 160.982 173.663C160.982 174.03 160.946 174.325 160.919 174.504H155.655ZM159.108 173.118C159.126 172.394 158.803 171.205 157.476 171.205C156.247 171.205 155.736 172.313 155.655 173.118H159.108Z" fill="#231F20"/>
<path d="M104.665 26.4819C106.037 26.2405 107.894 26.0527 110.396 26.0527C113.14 26.0527 115.122 26.6339 116.431 27.7247C117.651 28.726 118.44 30.3443 118.44 32.2576C118.44 34.2067 117.83 35.7892 116.7 36.88C115.176 38.3731 112.853 39.0973 110.207 39.0973C109.508 39.0973 108.898 39.0705 108.378 38.9453V46.6969H104.656V26.4819H104.665ZM108.387 36.0038C108.871 36.1558 109.454 36.1826 110.216 36.1826C113.023 36.1826 114.727 34.7879 114.727 32.4096C114.727 30.1297 113.14 28.9406 110.548 28.9406C109.508 28.9406 108.781 29.03 108.387 29.1194V36.0038Z" fill="#4E4EFF"/>
<path d="M121.713 26.5165C123.148 26.2394 125.22 26.0605 127.39 26.0605C130.349 26.0605 132.331 26.5434 133.73 27.7057C134.86 28.6444 135.497 30.0749 135.497 31.8452C135.497 34.4917 133.694 36.2888 131.748 36.9504V37.0398C133.246 37.5852 134.125 39.0157 134.618 40.9916C135.29 43.5487 135.837 45.918 136.232 46.7048H132.385C132.08 46.0968 131.56 44.4249 131.013 41.8678C130.403 39.1945 129.461 38.3362 127.318 38.2826H125.426V46.7048H121.704V26.5165H121.713ZM125.435 35.5467H127.659C130.188 35.5467 131.748 34.2056 131.748 32.1671C131.748 29.9498 130.197 28.8858 127.748 28.8858C126.556 28.8858 125.793 28.9752 125.435 29.0646V35.5467Z" fill="#4E4EFF"/>
<path d="M157.315 36.2449C157.315 43.1204 153.136 47.0364 147.495 47.0364C141.666 47.0364 138.007 42.5929 138.007 36.6026C138.007 30.2815 142.006 25.8379 147.8 25.8379C153.772 25.8468 157.315 30.3798 157.315 36.2449ZM141.971 36.5221C141.971 40.7153 144.078 44.0323 147.674 44.0323C151.306 44.0323 153.351 40.6527 153.351 36.3701C153.351 32.5077 151.432 28.8599 147.674 28.8599C143.953 28.8599 141.971 32.2931 141.971 36.5221Z" fill="#4E4EFF"/>
<path d="M160.553 26.4819C162.23 26.2405 164.301 26.0527 166.534 26.0527C170.381 26.0527 173 26.8395 174.892 28.422C176.901 30.0314 178.13 32.499 178.13 35.9591C178.13 39.6427 176.883 42.3428 174.928 44.1131C172.884 45.9638 169.619 46.9115 165.629 46.9115C163.458 46.9115 161.817 46.7863 160.562 46.6344V26.4819H160.553ZM164.301 43.8806C164.821 43.97 165.611 43.97 166.373 43.97C171.251 43.9968 174.148 41.2967 174.148 36.0932C174.175 31.596 171.556 28.9764 166.857 28.9764C165.664 28.9764 164.848 29.0658 164.292 29.1909V43.8806H164.301Z" fill="#4E4EFF"/>
<path d="M185.106 26.214V38.1678C185.106 42.1822 186.783 44.0329 189.312 44.0329C192.029 44.0329 193.644 42.1822 193.644 38.1678V26.214H197.392V37.9175C197.392 44.2386 194.128 47.037 189.187 47.037C184.425 47.037 181.349 44.3906 181.349 37.9443V26.2051H185.106V26.214Z" fill="#4E4EFF"/>
<path d="M216.441 46.1238C215.553 46.553 213.607 47.0358 211.105 47.0358C204.576 47.0358 200.612 42.9588 200.612 36.7003C200.612 29.95 205.338 25.873 211.625 25.873C214.091 25.873 215.831 26.3916 216.593 26.785L215.804 29.7623C214.826 29.3331 213.454 28.9755 211.777 28.9755C207.598 28.9755 204.576 31.5951 204.576 36.5215C204.576 41.0545 207.204 43.9155 211.741 43.9155C213.239 43.9155 214.826 43.6115 215.831 43.1823L216.441 46.1238Z" fill="#4E4EFF"/>
<path d="M224.189 29.3422H218.333V26.2129H233.856V29.3422H227.938V46.7051H224.189V29.3422Z" fill="#4E4EFF"/>
<path d="M241.085 37.3086V39.8925H233.31V37.3086H241.085Z" fill="#4E4EFF"/>
<path d="M244.169 26.2129H247.918V43.5758H256.365V46.7051H244.169V26.2129Z" fill="#4E4EFF"/>
<path d="M270.714 37.6124H262.965V43.6295H271.628V46.7051H259.217V26.2129H271.171V29.2885H262.965V34.5814H270.714V37.6124Z" fill="#4E4EFF"/>
<path d="M274.919 26.4819C276.596 26.2405 278.668 26.0527 280.901 26.0527C284.748 26.0527 287.366 26.8395 289.259 28.422C291.276 30.0314 292.496 32.499 292.496 35.9591C292.496 39.6427 291.249 42.3428 289.294 44.1131C287.25 45.9638 283.985 46.9115 279.995 46.9115C277.825 46.9115 276.183 46.7863 274.928 46.6344V26.4819H274.919ZM278.676 43.8806C279.197 43.97 279.986 43.97 280.748 43.97C285.627 43.9968 288.523 41.2967 288.523 36.0932C288.55 31.596 285.931 28.9764 281.232 28.9764C280.04 28.9764 279.224 29.0658 278.668 29.1909V43.8806H278.676Z" fill="#4E4EFF"/>
<path d="M318.539 45.7661C317.23 46.2489 314.665 46.9194 311.948 46.9194C308.468 46.9194 305.814 46.0343 303.868 44.1835C302.038 42.449 300.998 39.74 300.998 36.6375C301.025 30.1287 305.634 25.998 312.432 25.998C314.961 25.998 316.943 26.5166 317.893 26.9726L317.068 29.9856C315.938 29.4671 314.566 29.1005 312.405 29.1005C308.011 29.1005 304.935 31.6844 304.935 36.4587C304.935 41.1079 307.805 43.8796 312.073 43.8796C313.445 43.8796 314.423 43.7007 314.907 43.4862V38.3452H311.275V35.3948H318.53V45.7661H318.539Z" fill="#4E4EFF"/>
<path d="M322.386 26.5165C323.821 26.2394 325.892 26.0605 328.063 26.0605C331.022 26.0605 333.004 26.5434 334.403 27.7057C335.533 28.6444 336.17 30.0749 336.17 31.8452C336.17 34.4917 334.367 36.2888 332.421 36.9504V37.0398C333.919 37.5852 334.797 39.0157 335.291 40.9916C335.963 43.5487 336.51 45.918 336.905 46.7048H333.058C332.753 46.0968 332.233 44.4249 331.686 41.8678C331.076 39.1945 330.134 38.3362 327.991 38.2826H326.099V46.7048H322.377V26.5165H322.386ZM326.108 35.5467H328.332C330.861 35.5467 332.421 34.2056 332.421 32.1671C332.421 29.9498 330.869 28.8858 328.421 28.8858C327.229 28.8858 326.466 28.9752 326.108 29.0646V35.5467Z" fill="#4E4EFF"/>
<path d="M357.99 36.2449C357.99 43.1204 353.811 47.0364 348.171 47.0364C342.342 47.0364 338.683 42.5929 338.683 36.6026C338.683 30.2815 342.682 25.8379 348.476 25.8379C354.448 25.8468 357.99 30.3798 357.99 36.2449ZM342.646 36.5221C342.646 40.7153 344.754 44.0323 348.35 44.0323C351.982 44.0323 354.027 40.6527 354.027 36.3701C354.027 32.5077 352.107 28.8599 348.35 28.8599C344.628 28.8599 342.646 32.2931 342.646 36.5221Z" fill="#4E4EFF"/>
<path d="M364.464 46.7062L359.433 26.214H363.432L365.387 35.5213C365.907 38.0158 366.392 40.6265 366.732 42.665H366.795C367.127 40.5013 367.71 38.0695 368.293 35.4856L370.517 26.214H374.454L376.498 35.6376C376.983 38.0695 377.44 40.3494 377.745 42.5667H377.808C378.175 40.3136 378.66 37.9711 379.207 35.4498L381.341 26.2051H385.152L379.601 46.6973H375.602L373.467 37.0592C372.947 34.7167 372.579 32.7676 372.31 30.5503H372.248C371.916 32.7408 371.512 34.7167 370.903 37.0592L368.526 46.6973H364.464V46.7062Z" fill="#4E4EFF"/>
<path d="M392.408 29.3422H386.552V26.2129H402.075V29.3422H396.156V46.7051H392.408V29.3422Z" fill="#4E4EFF"/>
<path d="M408.236 26.2129V34.4205H416.926V26.2129H420.674V46.7051H416.926V37.6749H408.236V46.7051H404.487V26.2129H408.236Z" fill="#4E4EFF"/>
<path d="M261.183 391.863V380.275" stroke="#4E4EFF" stroke-miterlimit="10"/>
<path d="M261.182 380.115L259.702 382.306H262.662L261.182 380.115Z" fill="#4E4EFF" stroke="#4E4EFF" stroke-miterlimit="10"/>
<path d="M136.763 237.43V253.389" stroke="#4E4EFF" stroke-miterlimit="10"/>
<path d="M136.762 253.622L135.291 250.6H138.241L136.762 253.622Z" fill="#4E4EFF" stroke="#4E4EFF" stroke-miterlimit="10"/>
<path d="M172.731 285.852L185.941 294.864" stroke="#4E4EFF" stroke-miterlimit="10"/>
<path d="M186.13 294.998L182.803 294.506L184.471 292.074L186.13 294.998Z" fill="#4E4EFF" stroke="#4E4EFF" stroke-miterlimit="10"/>
</svg>
