<svg width="541" height="410" viewBox="0 0 541 410" fill="none" xmlns="http://www.w3.org/2000/svg">
<path d="M290.928 166.028V166.017C281.491 162.581 272.835 157.288 265.468 150.45C258.101 143.611 252.171 135.365 248.027 126.195C221.48 131.536 198.058 147.049 182.739 169.437C167.419 191.825 161.412 219.321 165.993 246.081C167.732 255.972 165.484 266.151 159.743 274.381C154.001 282.61 145.236 288.217 135.374 289.969V289.955L131.803 269.647L95.1465 316.305L145.507 347.577L141.938 327.282C161.669 323.784 179.207 312.572 190.696 296.111C202.185 279.65 206.685 259.287 203.205 239.5C203.205 239.5 202.284 232.168 202.284 228.384C202.287 217.713 204.856 207.202 209.775 197.74C214.694 188.278 221.816 180.146 230.537 174.034C239.259 167.921 249.322 164.009 259.873 162.629C270.424 161.249 281.151 162.441 291.144 166.106C291.071 166.086 291.001 166.055 290.928 166.028Z" fill="#FBC02D"/>
<path d="M417.849 288.086C404.963 272.699 386.511 263.074 366.549 261.327C346.587 259.58 326.751 265.854 311.402 278.77V278.78L311.381 278.755C302.468 286.408 291.685 291.544 280.139 293.635C268.592 295.726 256.699 294.698 245.68 290.655C234.661 286.612 224.914 279.701 217.44 270.631C209.965 261.562 205.033 250.66 203.15 239.047L203.206 239.501C204.967 249.458 204.717 259.669 202.47 269.527C200.223 279.385 196.025 288.691 190.124 296.892C208.083 317.535 233.428 330.254 260.671 332.294C287.914 334.334 314.862 325.532 335.68 307.792H335.693C343.365 301.338 353.279 298.202 363.256 299.073C373.232 299.944 382.456 304.751 388.9 312.438L388.89 312.447L373.136 325.697L431.76 334.203L433.587 274.832L417.849 288.086Z" fill="#AFB42B"/>
<path d="M290.932 166.018V166.029C301.828 169.986 311.497 176.746 318.967 185.632C326.437 194.517 331.446 205.215 333.493 216.654C335.539 228.093 334.551 239.871 330.628 250.806C326.704 261.742 319.982 271.45 311.137 278.959C311.219 278.89 311.304 278.826 311.385 278.756L311.407 278.781V278.771C319.055 272.32 327.908 267.459 337.449 264.473C346.99 261.486 357.028 260.434 366.978 261.377C375.549 235.6 373.746 207.487 361.953 183.024C350.16 158.561 329.309 139.682 303.84 130.407C303.854 130.412 303.867 130.419 303.88 130.423C294.469 126.988 286.803 119.946 282.566 110.846C278.33 101.745 277.87 91.33 281.287 81.8894H281.3L300.624 88.9422L278.657 33.7793L226.471 61.8775L245.781 68.925C238.936 87.8047 239.846 108.638 248.313 126.844C256.779 145.051 272.109 159.141 290.932 166.018Z" fill="#0097A7"/>
<path d="M379.243 228.385C379.251 239.914 377.47 251.373 373.963 262.352C387.534 264.898 400.144 271.14 410.412 280.393C417.905 259.765 420.843 237.752 419.024 215.874C417.205 193.996 410.672 172.774 399.876 153.675C389.08 134.576 374.279 118.055 356.495 105.251C338.71 92.4484 318.366 83.669 296.868 79.5195L300.621 88.9451L281.299 81.8949H281.287C279.043 88.0879 278.449 94.761 279.565 101.255C280.68 107.748 283.466 113.837 287.647 118.92C313.309 123.462 336.556 136.924 353.306 156.941C370.056 176.959 379.239 202.254 379.243 228.385Z" fill="#006064"/>
<path d="M131.803 269.647L135.374 289.955V289.969C141.817 288.826 147.853 286.024 152.891 281.837C157.929 277.651 161.796 272.223 164.113 266.087C158.755 251.146 156.648 235.228 157.935 219.403C159.222 203.577 163.872 188.212 171.573 174.339C179.275 160.466 189.848 148.406 202.584 138.972C215.319 129.538 229.921 122.947 245.408 119.642C240.872 106.575 240.007 92.509 242.909 78.9824C221.317 82.7031 200.789 91.0828 182.745 103.542C164.7 116.001 149.57 132.242 138.401 151.142C127.232 170.042 120.29 191.149 118.056 213.004C115.822 234.859 118.349 256.939 125.462 277.718L131.803 269.647Z" fill="#F57F17"/>
<path d="M388.905 312.443C384.661 307.378 379.169 303.516 372.974 301.242C366.78 298.968 360.099 298.36 353.598 299.48C343.407 311.762 330.695 321.696 316.329 328.605C301.963 335.513 286.28 339.234 270.349 339.514C254.419 339.794 238.616 336.627 224.017 330.227C209.418 323.827 196.367 314.346 185.754 302.43C176.701 312.877 164.957 320.624 151.807 324.823C165.825 341.866 183.388 355.629 203.268 365.149C223.147 374.67 244.861 379.717 266.89 379.938C288.919 380.159 310.73 375.548 330.796 366.429C350.861 357.309 368.696 343.901 383.051 327.143L373.141 325.705L388.894 312.454L388.905 312.443Z" fill="#9E9D24"/>
<path d="M229.992 282.352C222.89 277.267 216.861 270.823 212.255 263.39C207.648 255.958 204.553 247.684 203.15 239.047L203.206 239.501C204.967 249.458 204.717 259.669 202.47 269.527C200.223 279.385 196.025 288.691 190.124 296.892C200.985 309.373 214.65 319.084 229.992 325.224V282.352Z" fill="url(#paint0_linear_1252_303)"/>
<path d="M334.404 224.471C334.479 225.767 334.53 227.07 334.53 228.384C334.539 238.013 332.45 247.529 328.409 256.264C324.368 264.999 318.474 272.744 311.137 278.957C311.219 278.888 311.304 278.824 311.385 278.754L311.406 278.779V278.769C319.055 272.317 327.908 267.457 337.449 264.47C346.989 261.484 357.027 260.432 366.978 261.374C370.52 250.738 372.322 239.598 372.316 228.384C372.316 227.074 372.286 225.77 372.239 224.471H334.404Z" fill="url(#paint1_linear_1252_303)"/>
<path opacity="0.5" d="M233.041 172.371C241.601 166.934 251.292 163.542 261.366 162.457C271.44 161.372 281.629 162.622 291.145 166.112C291.072 166.086 291.001 166.055 290.928 166.028V166.017C281.492 162.581 272.835 157.288 265.468 150.45C258.101 143.611 252.171 135.365 248.027 126.195C231.257 129.553 215.578 137.026 202.392 147.946L233.041 172.371Z" fill="url(#paint2_linear_1252_303)"/>
<path d="M219.102 236.887L214.854 223.605H218.135L219.737 229.228C220.201 230.808 220.603 232.311 220.934 233.967H220.974C221.309 232.372 221.738 230.794 222.188 229.275L223.87 223.605H227.055L222.601 236.887H219.102Z" fill="black"/>
<path d="M231.471 223.605V236.887H228.476V223.605H231.471Z" fill="black"/>
<path d="M234.077 223.787C235.394 223.586 236.725 223.491 238.057 223.501C240.022 223.501 241.398 223.801 242.344 224.553C242.751 224.888 243.075 225.315 243.288 225.798C243.501 226.282 243.597 226.809 243.57 227.337C243.559 228.056 243.329 228.754 242.912 229.339C242.494 229.923 241.908 230.365 241.232 230.606V230.669C241.701 230.912 242.106 231.262 242.414 231.692C242.721 232.122 242.922 232.619 243.001 233.143C243.294 234.409 243.65 235.66 244.069 236.891H241.004C240.602 235.892 240.297 234.857 240.094 233.799C239.725 232.138 239.168 231.695 237.935 231.679H237.045V236.891H234.077V223.787ZM237.045 229.498H238.218C239.704 229.498 240.597 228.739 240.597 227.584C240.597 226.368 239.766 225.746 238.395 225.739C237.943 225.723 237.49 225.757 237.046 225.84L237.045 229.498Z" fill="black"/>
<path d="M248.979 233.476L248.044 236.887H244.946L248.989 223.605H252.91L257.033 236.887H253.807L252.789 233.476H248.979ZM252.343 231.239L251.518 228.416C251.291 227.631 251.055 226.635 250.852 225.854H250.811C250.617 226.636 250.417 227.645 250.204 228.416L249.412 231.235L252.343 231.239Z" fill="black"/>
<path d="M258.801 223.605H261.796V234.369H267.066V236.887H258.802L258.801 223.605Z" fill="black"/>
<path d="M272.812 223.605H275.808V234.369H281.077V236.887H272.812V223.605Z" fill="black"/>
<path d="M294.224 230.113C294.224 234.469 291.601 237.104 287.729 237.104C283.801 237.104 281.49 234.124 281.49 230.336C281.49 226.361 284.036 223.387 287.937 223.387C292 223.387 294.224 226.438 294.224 230.113ZM284.655 230.279C284.655 232.881 285.878 234.715 287.877 234.715C289.903 234.715 291.058 232.797 291.058 230.21C291.058 227.815 289.929 225.771 287.869 225.771C285.838 225.775 284.654 227.695 284.654 230.279H284.655Z" fill="black"/>
<path d="M308.319 230.113C308.319 234.469 305.695 237.104 301.824 237.104C297.896 237.104 295.585 234.124 295.585 230.336C295.585 226.361 298.131 223.387 302.032 223.387C306.093 223.387 308.319 226.438 308.319 230.113ZM298.75 230.279C298.75 232.881 299.973 234.715 301.972 234.715C303.998 234.715 305.153 232.797 305.153 230.21C305.153 227.815 304.024 225.771 301.964 225.771C299.931 225.775 298.746 227.695 298.746 230.279H298.75Z" fill="black"/>
<path d="M310.292 223.782C311.63 223.577 312.982 223.484 314.335 223.502C315.767 223.39 317.195 223.768 318.387 224.574C318.839 224.945 319.2 225.415 319.444 225.947C319.687 226.48 319.806 227.061 319.791 227.646C319.818 228.226 319.724 228.805 319.516 229.346C319.308 229.887 318.99 230.379 318.581 230.79C317.378 231.791 315.84 232.296 314.28 232.204C313.938 232.206 313.597 232.183 313.259 232.135V236.891H310.292V223.782ZM313.26 229.805C313.587 229.868 313.92 229.895 314.253 229.885C315.844 229.885 316.827 229.077 316.827 227.731C316.827 226.509 315.992 225.782 314.483 225.782C314.073 225.772 313.663 225.805 313.26 225.881V229.805Z" fill="black"/>
<path d="M240.882 21.2624C239.896 21.6676 238.835 21.8593 237.769 21.8251C234.452 21.8251 231.964 19.7201 231.964 15.843C231.916 15.0194 232.042 14.1949 232.333 13.4234C232.625 12.6519 233.076 11.9508 233.656 11.366C234.236 10.7812 234.933 10.3257 235.701 10.0295C236.469 9.7333 237.29 9.60298 238.112 9.64704C239.07 9.60723 240.026 9.78476 240.906 10.1664L240.532 11.4076C239.786 11.0751 238.978 10.9093 238.162 10.9217C235.397 10.9217 233.568 12.6885 233.568 15.7944C233.568 18.6839 235.229 20.5301 238.081 20.5301C238.937 20.5436 239.787 20.3788 240.576 20.0461L240.882 21.2624Z" fill="black"/>
<path d="M250.199 17.3195C250.199 20.4581 248.028 21.8309 245.997 21.8309C243.707 21.8309 241.934 20.1525 241.934 17.4653C241.934 14.6297 243.794 12.9707 246.131 12.9707C248.561 12.9716 250.199 14.7392 250.199 17.3195ZM243.499 17.4176C243.499 19.2727 244.56 20.6763 246.06 20.6763C247.534 20.6763 248.636 19.2956 248.636 17.3725C248.636 15.9388 247.914 14.1262 246.088 14.1262C244.283 14.127 243.499 15.8116 243.499 17.4185V17.4176Z" fill="black"/>
<path d="M251.927 20.0712C252.543 20.445 253.245 20.6531 253.964 20.6754C255.086 20.6754 255.607 20.1215 255.607 19.4131C255.607 18.6719 255.159 18.2832 254.036 17.8619C252.508 17.3071 251.786 16.4741 251.79 15.4582C251.79 14.0934 252.896 12.9733 254.713 12.9733C255.437 12.9605 256.151 13.1403 256.783 13.4945L256.401 14.6155C255.881 14.2919 255.281 14.1191 254.668 14.1164C253.761 14.1164 253.268 14.6411 253.268 15.2798C253.268 15.9812 253.765 16.2939 254.873 16.725C256.329 17.2691 257.086 18.0059 257.09 19.2717C257.09 20.7735 255.925 21.8246 253.929 21.8246C253.099 21.8362 252.28 21.6327 251.551 21.2337L251.927 20.0712Z" fill="black"/>
<path d="M260.908 10.7266V13.1691H263.117V14.3369H260.908V18.9039C260.908 19.9595 261.211 20.5567 262.071 20.5567C262.372 20.5636 262.672 20.5258 262.962 20.4445L263.032 21.6159C262.591 21.7677 262.126 21.8395 261.659 21.8279C261.352 21.8443 261.045 21.7946 260.758 21.682C260.472 21.5694 260.213 21.3965 259.999 21.1751C259.54 20.536 259.328 19.751 259.403 18.9666V14.3387H258.094V13.1691H259.403V11.1276L260.908 10.7266Z" fill="black"/>
<path d="M268.325 16.3398V17.4688H264.009V16.3398H268.325Z" fill="black"/>
<path d="M276.266 16.1038H271.7V20.3696H276.809V21.6407H270.176V9.83008H276.543V11.1004H271.7V14.8405H276.266V16.1038Z" fill="black"/>
<path d="M289.327 10.7029C288.806 10.3985 288.214 10.2401 287.612 10.2444C285.99 10.2444 285.508 11.3857 285.508 12.7452V13.1648H290.426V21.6399H288.897V14.3326H285.516V21.6399H283.987V14.3326H280.42V21.6399H278.89V14.3326H277.711V13.1683H278.89V12.8415C278.866 12.3276 278.942 11.8138 279.116 11.3297C279.29 10.8457 279.558 10.4008 279.904 10.0209C280.193 9.74607 280.533 9.53203 280.906 9.39139C281.279 9.25075 281.676 9.18636 282.074 9.20201C282.592 9.2144 283.101 9.34236 283.564 9.57657L283.135 10.7126C282.812 10.5274 282.449 10.4252 282.078 10.4149C281.873 10.4053 281.669 10.4404 281.479 10.5179C281.29 10.5954 281.119 10.7134 280.98 10.8636C280.557 11.4298 280.356 12.1313 280.413 12.8362V13.1683H283.988V12.6984C283.944 12.2017 284.01 11.7013 284.18 11.2327C284.35 10.7641 284.621 10.3388 284.973 9.98676C285.325 9.63474 285.75 9.36463 286.218 9.19559C286.686 9.02655 287.185 8.96271 287.68 9.00855C288.414 9.00475 289.137 9.189 289.779 9.54386L289.327 10.7029Z" fill="black"/>
<path d="M299.009 21.3324C298.245 21.6685 297.418 21.836 296.584 21.8236C296.014 21.852 295.445 21.7587 294.914 21.5499C294.383 21.341 293.902 21.0214 293.503 20.6121C293.104 20.2029 292.797 19.7134 292.601 19.176C292.405 18.6386 292.326 18.0657 292.367 17.4951C292.338 16.891 292.436 16.2875 292.654 15.7238C292.873 15.16 293.207 14.6486 293.635 14.2227C294.063 13.7968 294.576 13.4658 295.14 13.2513C295.704 13.0368 296.306 12.9435 296.908 12.9775C297.645 12.9667 298.374 13.1206 299.044 13.428L298.703 14.6126C298.147 14.3281 297.529 14.1878 296.906 14.2045C296.493 14.1958 296.083 14.2746 295.702 14.4358C295.322 14.597 294.98 14.8369 294.698 15.1399C294.417 15.4429 294.202 15.802 294.069 16.1939C293.935 16.5857 293.886 17.0014 293.924 17.4138C293.887 17.8209 293.936 18.2312 294.068 18.618C294.2 19.0047 294.412 19.3592 294.69 19.6584C294.968 19.9576 295.305 20.1948 295.68 20.3545C296.056 20.5141 296.46 20.5927 296.868 20.5851C297.517 20.5879 298.159 20.4489 298.749 20.1778L299.009 21.3324Z" fill="black"/>
<path d="M302.531 10.7706C302.535 10.8995 302.513 11.0278 302.465 11.1474C302.417 11.267 302.344 11.3753 302.252 11.4654C302.16 11.5555 302.051 11.6255 301.931 11.6709C301.81 11.7163 301.682 11.7361 301.553 11.729C301.429 11.7307 301.305 11.7069 301.19 11.6589C301.074 11.611 300.97 11.54 300.883 11.4503C300.796 11.3606 300.729 11.254 300.684 11.1371C300.64 11.0203 300.62 10.8956 300.625 10.7706C300.622 10.644 300.645 10.5181 300.692 10.4005C300.739 10.283 300.809 10.1762 300.898 10.0867C300.988 9.99718 301.094 9.92677 301.212 9.87973C301.329 9.83269 301.454 9.80999 301.581 9.81301C301.707 9.8088 301.833 9.83072 301.95 9.87741C302.068 9.9241 302.174 9.99456 302.264 10.0844C302.353 10.1742 302.423 10.2815 302.469 10.3996C302.515 10.5176 302.536 10.6439 302.531 10.7706ZM300.813 21.6413V13.1698H302.343V21.6449L300.813 21.6413Z" fill="black"/>
<path d="M305.764 17.681C305.729 18.0727 305.779 18.4674 305.911 18.8377C306.044 19.208 306.255 19.5448 306.53 19.8249C306.806 20.105 307.139 20.3215 307.506 20.4594C307.873 20.5974 308.266 20.6534 308.657 20.6235C309.459 20.6458 310.257 20.498 310.998 20.1898L311.267 21.2834C310.377 21.6626 309.416 21.8469 308.448 21.824C307.884 21.8575 307.32 21.7688 306.793 21.5642C306.266 21.3596 305.789 21.0437 305.395 20.638C305.001 20.2323 304.698 19.7463 304.507 19.2129C304.317 18.6795 304.243 18.1113 304.29 17.5468C304.29 14.9788 305.799 12.9727 308.267 12.9727C311.024 12.9727 311.746 15.3984 311.746 16.9584C311.751 17.2004 311.733 17.4424 311.693 17.681H305.764ZM310.263 16.5724C310.278 15.6007 309.867 14.0778 308.143 14.0778C307.509 14.1197 306.914 14.3998 306.476 14.8622C306.039 15.3245 305.792 15.9352 305.784 16.5724H310.263Z" fill="black"/>
<path d="M313.657 15.4555C313.657 14.5722 313.628 13.8655 313.587 13.1658H314.945L315.033 14.5598H315.076C315.354 14.0654 315.761 13.6562 316.253 13.3761C316.746 13.0959 317.305 12.9555 317.871 12.9697C319.031 12.9697 320.849 13.6702 320.849 16.5818V21.6373H319.319V16.7506C319.319 15.3813 318.805 14.2338 317.365 14.2338C316.898 14.2442 316.446 14.4028 316.074 14.6869C315.702 14.971 315.429 15.3659 315.295 15.8151C315.224 16.0466 315.188 16.2875 315.189 16.5297V21.6373H313.657V15.4555Z" fill="black"/>
<path d="M329.382 21.3324C328.618 21.6683 327.791 21.8358 326.957 21.8235C326.387 21.8521 325.818 21.7589 325.287 21.5501C324.755 21.3413 324.275 21.0217 323.876 20.6124C323.477 20.2031 323.17 19.7135 322.974 19.1761C322.778 18.6387 322.699 18.0656 322.74 17.495C322.711 16.891 322.809 16.2876 323.027 15.724C323.246 15.1603 323.58 14.6489 324.008 14.223C324.436 13.7971 324.948 13.4661 325.512 13.2515C326.076 13.037 326.678 12.9436 327.281 12.9775C328.017 12.9669 328.747 13.1208 329.417 13.428L329.075 14.6126C328.519 14.328 327.901 14.1877 327.277 14.2045C326.864 14.1959 326.454 14.2748 326.074 14.4361C325.694 14.5973 325.352 14.8373 325.071 15.1402C324.789 15.4432 324.575 15.8023 324.442 16.1941C324.308 16.5859 324.259 17.0015 324.297 17.4137C324.26 17.8208 324.309 18.2312 324.441 18.618C324.573 19.0048 324.784 19.3594 325.062 19.6587C325.34 19.9579 325.677 20.1951 326.052 20.3547C326.428 20.5143 326.832 20.5928 327.24 20.5851C327.889 20.5879 328.531 20.4489 329.122 20.1778L329.382 21.3324Z" fill="black"/>
<path d="M332.055 13.1695L333.905 18.1792C334.103 18.7392 334.31 19.4035 334.449 19.9079H334.492C334.643 19.4088 334.829 18.7595 335.031 18.1412L336.705 13.166H338.334L336.022 19.203C334.927 22.1181 334.172 23.5995 333.127 24.5182C332.593 25.0025 331.945 25.3429 331.243 25.5076L330.862 24.2196C331.354 24.0576 331.811 23.8021 332.208 23.467C332.757 22.9968 333.196 22.4103 333.493 21.7497C333.558 21.6358 333.599 21.5094 333.612 21.3787C333.604 21.2409 333.567 21.1062 333.505 20.9829L330.389 13.166L332.055 13.1695Z" fill="black"/>
<path d="M10.9504 337.874C11.5663 338.247 12.2677 338.455 12.9871 338.478C14.1093 338.478 14.6299 337.924 14.6299 337.216C14.6299 336.475 14.1825 336.087 13.0593 335.664C11.5327 335.11 10.8094 334.277 10.8138 333.26C10.8138 331.895 11.9194 330.776 13.7367 330.776C14.4606 330.763 15.175 330.943 15.8068 331.297L15.4254 332.418C14.9042 332.095 14.3039 331.922 13.6909 331.919C12.7844 331.919 12.2911 332.444 12.2911 333.083C12.2911 333.783 12.788 334.097 13.8961 334.527C15.3523 335.072 16.109 335.809 16.1134 337.074C16.1134 338.575 14.9488 339.627 12.9527 339.627C12.1224 339.639 11.3031 339.435 10.5742 339.036L10.9504 337.874Z" fill="black"/>
<path d="M24.114 339.132C23.3502 339.468 22.5235 339.635 21.6897 339.622C21.1198 339.651 20.5503 339.558 20.019 339.349C19.4878 339.14 19.0068 338.821 18.608 338.412C18.2093 338.002 17.9019 337.513 17.7061 336.975C17.5104 336.438 17.4309 335.865 17.4728 335.294C17.4437 334.69 17.5415 334.086 17.7599 333.523C17.9782 332.959 18.3123 332.448 18.7403 332.022C19.1684 331.596 19.6809 331.265 20.2447 331.05C20.8085 330.836 21.411 330.742 22.013 330.776C22.7496 330.766 23.4793 330.92 24.1492 331.227L23.8075 332.411C23.2517 332.126 22.634 331.986 22.0104 332.002C21.5976 331.994 21.1876 332.073 20.8073 332.234C20.427 332.395 20.085 332.635 19.8035 332.938C19.522 333.241 19.3075 333.6 19.1739 333.992C19.0404 334.384 18.9908 334.799 19.0285 335.212C18.9918 335.619 19.041 336.029 19.173 336.416C19.305 336.803 19.5168 337.157 19.7946 337.456C20.0723 337.756 20.4098 337.993 20.7851 338.152C21.1604 338.312 21.5649 338.391 21.9725 338.383C22.6218 338.386 23.264 338.247 23.8541 337.976L24.114 339.132Z" fill="black"/>
<path d="M30.6206 339.442L30.4849 338.371H30.4391C30.1395 338.773 29.7486 339.097 29.2989 339.317C28.8492 339.537 28.3538 339.646 27.8536 339.635C27.5219 339.658 27.1888 339.613 26.8754 339.501C26.562 339.389 26.275 339.214 26.0326 338.986C25.7901 338.757 25.5975 338.481 25.4667 338.174C25.3359 337.868 25.2698 337.537 25.2725 337.204C25.2725 335.151 27.0864 334.024 30.351 334.046V333.87C30.3845 333.607 30.3581 333.341 30.2736 333.09C30.1892 332.839 30.049 332.611 29.8636 332.423C29.6783 332.234 29.4526 332.091 29.2037 332.003C28.9548 331.915 28.6893 331.885 28.4271 331.915C27.6482 331.912 26.8844 332.131 26.2248 332.546L25.8724 331.522C26.7157 331.02 27.6811 330.763 28.6614 330.778C31.2443 330.778 31.875 332.545 31.875 334.247V337.416C31.8653 338.096 31.908 338.775 32.0027 339.448L30.6206 339.442ZM30.3819 335.114C28.7187 335.078 26.8141 335.379 26.8141 337.015C26.7966 337.211 26.8213 337.407 26.8867 337.592C26.9521 337.776 27.0565 337.944 27.1929 338.085C27.3292 338.225 27.4942 338.334 27.6766 338.404C27.8589 338.474 28.0542 338.504 28.2492 338.492C28.6982 338.505 29.14 338.375 29.5103 338.12C29.8806 337.865 30.1603 337.498 30.3087 337.073C30.358 336.916 30.3826 336.752 30.3819 336.588V335.114Z" fill="black"/>
<path d="M34.3545 327H35.8838V339.441H34.3545V327Z" fill="black"/>
<path d="M43.164 339.442L43.0283 338.371H42.9878C42.6881 338.773 42.2972 339.097 41.8475 339.317C41.3979 339.536 40.9024 339.645 40.4024 339.635C40.0705 339.658 39.7373 339.613 39.4238 339.501C39.1103 339.39 38.8233 339.214 38.5807 338.986C38.3382 338.758 38.1454 338.481 38.0146 338.175C37.8837 337.868 37.8176 337.537 37.8204 337.204C37.8204 335.151 39.6342 334.024 42.8997 334.046V333.87C42.9331 333.607 42.9065 333.341 42.822 333.09C42.7374 332.839 42.5971 332.611 42.4117 332.423C42.2262 332.234 42.0006 332.091 41.7517 332.003C41.5027 331.915 41.2371 331.885 40.9749 331.915C40.196 331.912 39.4322 332.131 38.7727 332.546L38.4203 331.522C39.2635 331.02 40.2289 330.763 41.2093 330.778C43.793 330.778 44.4228 332.545 44.4228 334.247V337.416C44.4132 338.096 44.4559 338.775 44.5506 339.448L43.164 339.442ZM42.9253 335.114C41.2621 335.078 39.3576 335.379 39.3576 337.015C39.34 337.211 39.3648 337.407 39.4301 337.592C39.4955 337.776 39.5999 337.944 39.7363 338.085C39.8726 338.225 40.0377 338.334 40.22 338.404C40.4023 338.474 40.5977 338.504 40.7926 338.492C41.2417 338.505 41.6834 338.375 42.0537 338.12C42.4241 337.865 42.7037 337.498 42.8522 337.073C42.9014 336.916 42.9261 336.752 42.9253 336.588V335.114Z" fill="black"/>
<path d="M46.832 339.441C46.8734 338.859 46.9025 338.009 46.9025 337.257V327H48.43V332.329H48.4652C48.7558 331.829 49.1787 331.419 49.6873 331.145C50.1959 330.871 50.7703 330.743 51.3467 330.776C53.4468 330.776 54.9215 332.525 54.9135 335.092C54.9135 338.131 52.994 339.636 51.1089 339.636C50.5354 339.665 49.9652 339.532 49.4641 339.25C48.963 338.969 48.5514 338.551 48.2767 338.046H48.2362L48.1578 339.439L46.832 339.441ZM48.43 336.046C48.4302 336.233 48.4517 336.42 48.4943 336.603C48.6216 337.119 48.9178 337.577 49.3357 337.904C49.7535 338.231 50.2687 338.408 50.7988 338.407C52.4162 338.407 53.3658 337.095 53.3658 335.15C53.3658 333.445 52.4849 331.987 50.8437 331.987C50.3017 332 49.7793 332.194 49.3584 332.536C48.9375 332.879 48.642 333.352 48.5181 333.881C48.4617 334.091 48.4321 334.306 48.43 334.523V336.046Z" fill="black"/>
<path d="M58.5655 328.573C58.5699 328.702 58.5474 328.83 58.4996 328.95C58.4517 329.07 58.3796 329.178 58.2877 329.268C58.1958 329.358 58.0861 329.428 57.9658 329.474C57.8454 329.519 57.7169 329.539 57.5886 329.532C57.4639 329.533 57.3403 329.509 57.2252 329.461C57.1101 329.413 57.0059 329.342 56.9191 329.252C56.8323 329.163 56.7646 329.056 56.7203 328.939C56.6759 328.823 56.6557 328.698 56.661 328.573C56.6578 328.446 56.6804 328.32 56.7273 328.202C56.7742 328.085 56.8445 327.978 56.9339 327.888C57.0232 327.798 57.1299 327.728 57.2473 327.681C57.3646 327.633 57.4903 327.611 57.6168 327.614C57.7431 327.61 57.869 327.632 57.9865 327.679C58.104 327.725 58.2106 327.796 58.2996 327.886C58.3886 327.976 58.4582 328.084 58.504 328.202C58.5497 328.32 58.5707 328.446 58.5655 328.573ZM56.8486 339.439V330.965H58.3779V339.439H56.8486Z" fill="black"/>
<path d="M60.9375 327H62.4668V339.441H60.9375V327Z" fill="black"/>
<path d="M66.7793 328.573C66.7834 328.702 66.7608 328.83 66.7129 328.949C66.6651 329.069 66.5929 329.177 66.5012 329.267C66.4094 329.357 66.3001 329.427 66.1799 329.473C66.0598 329.518 65.9315 329.538 65.8033 329.532C65.6786 329.533 65.5549 329.509 65.4398 329.461C65.3246 329.413 65.2204 329.342 65.1335 329.252C65.0466 329.163 64.9789 329.056 64.9344 328.939C64.89 328.823 64.8697 328.698 64.8748 328.573C64.8718 328.446 64.8945 328.32 64.9414 328.203C64.9884 328.085 65.0586 327.978 65.148 327.888C65.2373 327.799 65.3439 327.728 65.4612 327.681C65.5786 327.634 65.7042 327.611 65.8306 327.614C65.957 327.61 66.0828 327.632 66.2002 327.679C66.3176 327.726 66.4242 327.796 66.5132 327.886C66.6022 327.976 66.6718 328.084 66.7176 328.202C66.7634 328.32 66.7844 328.446 66.7793 328.573ZM65.0625 339.439V330.965H66.5961V339.439H65.0625Z" fill="black"/>
<path d="M71.0006 328.533V330.973H73.2029V332.14H71.0006V336.707C71.0006 337.767 71.3036 338.359 72.1625 338.359C72.4632 338.366 72.7633 338.329 73.0531 338.248L73.1236 339.418C72.682 339.57 72.2169 339.642 71.7502 339.63C71.4433 339.647 71.1364 339.597 70.8502 339.485C70.564 339.372 70.3052 339.2 70.0914 338.978C69.6315 338.339 69.4194 337.554 69.4951 336.77V332.137H68.1816V330.97H69.4906V328.928L71.0006 328.533Z" fill="black"/>
<path d="M75.6487 330.969L77.4986 335.978C77.6977 336.538 77.9038 337.202 78.0421 337.707H78.0853C78.236 337.208 78.4227 336.558 78.6244 335.94L80.2981 330.967H81.9243L79.6119 337.003C78.5169 339.918 77.762 341.399 76.7172 342.317C76.1827 342.802 75.5344 343.142 74.833 343.307L74.4506 342.019C74.9438 341.858 75.4012 341.602 75.7976 341.267C76.3472 340.797 76.7861 340.21 77.0828 339.55C77.1482 339.435 77.1887 339.309 77.2018 339.178C77.1935 339.04 77.1569 338.905 77.0943 338.782L73.9785 330.967L75.6487 330.969Z" fill="black"/>
<path d="M456.185 327.632V334.632C456.185 337.267 457.351 338.384 458.939 338.384C460.673 338.384 461.803 337.227 461.803 334.632V327.632H463.333V334.522C463.333 338.153 461.43 339.634 458.876 339.634C456.471 339.634 454.656 338.259 454.656 334.589V327.631L456.185 327.632Z" fill="black"/>
<path d="M465.603 337.874C466.219 338.247 466.92 338.455 467.639 338.478C468.763 338.478 469.281 337.924 469.281 337.216C469.281 336.475 468.835 336.087 467.712 335.664C466.185 335.11 465.462 334.277 465.465 333.26C465.465 331.895 466.572 330.776 468.389 330.776C469.113 330.763 469.827 330.943 470.459 331.297L470.078 332.418C469.557 332.094 468.956 331.922 468.343 331.919C467.437 331.919 466.943 332.444 466.943 333.083C466.943 333.783 467.441 334.097 468.548 334.527C470.006 335.072 470.761 335.809 470.766 337.074C470.766 338.575 469.602 339.627 467.605 339.627C466.775 339.639 465.955 339.435 465.227 339.036L465.603 337.874Z" fill="black"/>
<path d="M473.601 335.484C473.566 335.875 473.616 336.27 473.748 336.64C473.88 337.01 474.091 337.347 474.367 337.627C474.642 337.907 474.975 338.123 475.342 338.261C475.709 338.399 476.102 338.455 476.493 338.425C477.295 338.448 478.092 338.3 478.833 337.993L479.103 339.086C478.212 339.465 477.251 339.649 476.284 339.626C475.72 339.659 475.156 339.571 474.629 339.366C474.102 339.162 473.625 338.846 473.23 338.44C472.836 338.035 472.533 337.549 472.342 337.016C472.152 336.482 472.078 335.914 472.125 335.349C472.125 332.782 473.634 330.775 476.103 330.775C478.859 330.775 479.581 333.201 479.581 334.761C479.586 335.003 479.568 335.245 479.527 335.484H473.601ZM478.099 334.375C478.114 333.403 477.702 331.88 475.978 331.88C475.344 331.922 474.749 332.202 474.312 332.665C473.875 333.127 473.628 333.738 473.619 334.375H478.099Z" fill="black"/>
<path d="M481.492 333.607C481.492 332.607 481.467 331.752 481.423 330.968H482.77L482.828 332.629H482.883C483.032 332.112 483.339 331.654 483.761 331.321C484.184 330.988 484.7 330.797 485.236 330.774C485.38 330.771 485.523 330.785 485.664 330.817V332.267C485.491 332.233 485.316 332.218 485.14 332.222C484.617 332.242 484.118 332.454 483.739 332.817C483.361 333.18 483.127 333.67 483.083 334.193C483.042 334.431 483.022 334.671 483.022 334.912V339.441H481.492V333.607Z" fill="black"/>
<path d="M492.491 328.922H488.906V327.633H497.627V328.922H494.023V339.443H492.493L492.491 328.922Z" fill="black"/>
<path d="M498.094 333.607C498.094 332.607 498.069 331.752 498.023 330.968H499.371L499.429 332.629H499.485C499.634 332.112 499.941 331.654 500.363 331.322C500.785 330.989 501.301 330.797 501.837 330.774C501.981 330.771 502.125 330.785 502.265 330.817V332.267C502.093 332.233 501.918 332.218 501.743 332.222C501.219 332.242 500.72 332.453 500.341 332.817C499.962 333.18 499.729 333.67 499.685 334.193C499.643 334.431 499.623 334.671 499.623 334.912V339.441H498.094V333.607Z" fill="black"/>
<path d="M510.841 337.123C510.841 338.011 510.87 338.773 510.911 339.442H509.553L509.471 338.056H509.428C509.145 338.546 508.737 338.951 508.245 339.229C507.752 339.507 507.195 339.647 506.631 339.635C505.309 339.635 503.724 338.891 503.724 335.925V330.973H505.253V335.655C505.253 337.269 505.755 338.368 507.142 338.368C507.582 338.359 508.01 338.22 508.372 337.969C508.733 337.717 509.013 337.365 509.176 336.955C509.267 336.701 509.314 336.434 509.316 336.164V330.974H510.844L510.841 337.123Z" fill="black"/>
<path d="M513.187 337.874C513.803 338.247 514.505 338.455 515.224 338.478C516.347 338.478 516.866 337.924 516.866 337.216C516.866 336.475 516.419 336.087 515.297 335.664C513.769 335.11 513.046 334.277 513.05 333.26C513.05 331.895 514.157 330.776 515.973 330.776C516.697 330.763 517.412 330.943 518.044 331.297L517.662 332.418C517.141 332.094 516.541 331.922 515.928 331.919C515.021 331.919 514.528 332.444 514.528 333.083C514.528 333.783 515.025 334.097 516.133 334.527C517.59 335.072 518.346 335.809 518.351 337.074C518.351 338.575 517.186 339.627 515.19 339.627C514.36 339.639 513.54 339.435 512.812 339.036L513.187 337.874Z" fill="black"/>
<path d="M522.171 328.533V330.973H524.378V332.14H522.171V336.707C522.171 337.767 522.473 338.359 523.333 338.359C523.634 338.366 523.934 338.329 524.223 338.248L524.294 339.418C523.852 339.57 523.387 339.642 522.921 339.63C522.613 339.647 522.306 339.597 522.02 339.485C521.734 339.372 521.475 339.2 521.261 338.978C520.802 338.339 520.59 337.554 520.665 336.77V332.137H519.355V330.97H520.665V328.928L522.171 328.533Z" fill="black"/>
<defs>
<linearGradient id="paint0_linear_1252_303" x1="239.835" y1="288.387" x2="193.29" y2="275.95" gradientUnits="userSpaceOnUse">
<stop stop-color="#00AAE1"/>
<stop offset="0.114" stop-color="#01A6DB"/>
<stop offset="0.261" stop-color="#049ACB"/>
<stop offset="0.427" stop-color="#0987B1"/>
<stop offset="0.606" stop-color="#106C8B"/>
<stop offset="0.796" stop-color="#184A5C"/>
<stop offset="0.992" stop-color="#232122"/>
<stop offset="1" stop-color="#231F20"/>
</linearGradient>
<linearGradient id="paint1_linear_1252_303" x1="334.408" y1="224.471" x2="346.495" y2="269.457" gradientUnits="userSpaceOnUse">
<stop stop-color="#0082D2"/>
<stop offset="0.116" stop-color="#017FCC"/>
<stop offset="0.274" stop-color="#0575BA"/>
<stop offset="0.456" stop-color="#0A659E"/>
<stop offset="0.656" stop-color="#124F76"/>
<stop offset="0.869" stop-color="#1C3343"/>
<stop offset="1" stop-color="#231F20"/>
</linearGradient>
<linearGradient id="paint2_linear_1252_303" x1="229.112" y1="174.736" x2="264.527" y2="139.42" gradientUnits="userSpaceOnUse">
<stop stop-color="#00D7E1"/>
<stop offset="0.114" stop-color="#01D2DB"/>
<stop offset="0.261" stop-color="#04C2CB"/>
<stop offset="0.427" stop-color="#09A9B1"/>
<stop offset="0.606" stop-color="#10858B"/>
<stop offset="0.796" stop-color="#18585C"/>
<stop offset="0.992" stop-color="#232122"/>
<stop offset="1" stop-color="#231F20"/>
</linearGradient>
</defs>
</svg>
