<svg width="347" height="155" viewBox="0 0 347 155" fill="none" xmlns="http://www.w3.org/2000/svg">
<g filter="url(#filter0_d_2240_18148)">
<rect x="-16.6143" y="14.9883" width="344.687" height="154.643" rx="18.6317" fill="#F5F5F5"/>
<rect x="-16.1485" y="15.4541" width="343.755" height="153.712" rx="18.1659" stroke="#D2D2D2" stroke-width="0.931587"/>
<path d="M24.0998 84.5039V71.2033H25.6464V83.1211H31.5507V84.5039H24.0998ZM45.9302 79.5003C45.9302 80.319 45.8241 81.0499 45.6118 81.6928C45.3995 82.3357 45.0932 82.8785 44.6929 83.3212C44.2926 83.764 43.8074 84.1036 43.2373 84.3402C42.6733 84.5706 42.0334 84.6859 41.3178 84.6859C40.6506 84.6859 40.038 84.5706 39.4801 84.3402C38.9281 84.1036 38.449 83.764 38.0426 83.3212C37.6424 82.8785 37.33 82.3357 37.1056 81.6928C36.8873 81.0499 36.7781 80.319 36.7781 79.5003C36.7781 78.4086 36.9631 77.4806 37.333 76.7164C37.703 75.9462 38.2307 75.3609 38.916 74.9606C39.6074 74.5542 40.4292 74.3511 41.3814 74.3511C42.2912 74.3511 43.0857 74.5542 43.765 74.9606C44.4503 75.367 44.981 75.9553 45.3571 76.7255C45.7391 77.4897 45.9302 78.4146 45.9302 79.5003ZM38.3429 79.5003C38.3429 80.3009 38.449 80.9953 38.6613 81.5836C38.8736 82.1719 39.2011 82.6268 39.6438 82.9482C40.0866 83.2697 40.6567 83.4304 41.3541 83.4304C42.0456 83.4304 42.6126 83.2697 43.0554 82.9482C43.5042 82.6268 43.8347 82.1719 44.047 81.5836C44.2593 80.9953 44.3654 80.3009 44.3654 79.5003C44.3654 78.7058 44.2593 78.0204 44.047 77.4442C43.8347 76.862 43.5072 76.4132 43.0645 76.0978C42.6217 75.7824 42.0486 75.6247 41.345 75.6247C40.3079 75.6247 39.5468 75.9674 39.0616 76.6527C38.5824 77.3381 38.3429 78.2873 38.3429 79.5003ZM50.6937 74.533H52.313L54.5146 80.319C54.642 80.6587 54.7603 80.9862 54.8694 81.3016C54.9786 81.6109 55.0756 81.9081 55.1605 82.1931C55.2455 82.4782 55.3122 82.7541 55.3607 83.021H55.4244C55.5093 82.7178 55.6306 82.3205 55.7883 81.8292C55.946 81.3319 56.1158 80.8255 56.2977 80.3099L58.3811 74.533H60.0095L55.67 85.9686C55.4395 86.5812 55.1696 87.1149 54.8603 87.5698C54.5571 88.0246 54.1871 88.3734 53.7504 88.616C53.3137 88.8647 52.7861 88.989 52.1675 88.989C51.8824 88.989 51.6307 88.9708 51.4124 88.9344C51.194 88.9041 51.006 88.8677 50.8483 88.8252V87.6153C50.9817 87.6456 51.1425 87.6729 51.3305 87.6971C51.5246 87.7214 51.7247 87.7335 51.9309 87.7335C52.307 87.7335 52.6314 87.6607 52.9044 87.5152C53.1833 87.3757 53.4229 87.1695 53.6231 86.8966C53.8232 86.6236 53.9961 86.2992 54.1416 85.9231L54.6875 84.5221L50.6937 74.533ZM69.0579 74.3693C70.2467 74.3693 71.1291 74.6361 71.7053 75.1698C72.2815 75.7036 72.5696 76.5557 72.5696 77.7263V84.5039H71.4688L71.1776 83.0301H71.1049C70.8259 83.394 70.5348 83.7003 70.2315 83.949C69.9283 84.1916 69.5765 84.3765 69.1762 84.5039C68.782 84.6252 68.2968 84.6859 67.7206 84.6859C67.1141 84.6859 66.5743 84.5797 66.1012 84.3674C65.6342 84.1552 65.2643 83.8337 64.9913 83.4031C64.7245 82.9725 64.591 82.4266 64.591 81.7656C64.591 80.7709 64.9853 80.0067 65.7737 79.473C66.5622 78.9393 67.763 78.6481 69.3763 78.5996L71.0958 78.5268V77.9173C71.0958 77.0561 70.9108 76.4526 70.5408 76.1069C70.1709 75.7612 69.6493 75.5883 68.976 75.5883C68.4545 75.5883 67.9571 75.6641 67.4841 75.8158C67.011 75.9674 66.5622 76.1463 66.1376 76.3525L65.6736 75.2062C66.1225 74.9758 66.638 74.7787 67.2202 74.6149C67.8025 74.4511 68.415 74.3693 69.0579 74.3693ZM71.0776 79.5912L69.5583 79.6549C68.315 79.7034 67.4386 79.9066 66.9291 80.2645C66.4196 80.6223 66.1649 81.1287 66.1649 81.7837C66.1649 82.3539 66.3378 82.7754 66.6835 83.0483C67.0292 83.3212 67.4871 83.4577 68.0572 83.4577C68.9427 83.4577 69.6675 83.2121 70.2315 82.7208C70.7955 82.2295 71.0776 81.4926 71.0776 80.5101V79.5912ZM80.9266 84.5039H79.4073V70.3482H80.9266V84.5039ZM91.0667 83.4486C91.3153 83.4486 91.57 83.4274 91.8308 83.3849C92.0916 83.3425 92.3039 83.2909 92.4677 83.2303V84.4038C92.2918 84.4827 92.0462 84.5494 91.7308 84.604C91.4215 84.6586 91.1182 84.6859 90.821 84.6859C90.2934 84.6859 89.8142 84.5949 89.3836 84.4129C88.953 84.2249 88.6073 83.9095 88.3465 83.4668C88.0918 83.024 87.9644 82.4115 87.9644 81.6291V75.7157H86.5452V74.9788L87.9735 74.3875L88.5739 72.2222H89.4837V74.533H92.404V75.7157H89.4837V81.5836C89.4837 82.2083 89.6262 82.6753 89.9113 82.9846C90.2024 83.2939 90.5875 83.4486 91.0667 83.4486ZM96.6398 74.533H98.2592L100.461 80.319C100.588 80.6587 100.706 80.9862 100.816 81.3016C100.925 81.6109 101.022 81.9081 101.107 82.1931C101.192 82.4782 101.258 82.7541 101.307 83.021H101.371C101.455 82.7178 101.577 82.3205 101.734 81.8292C101.892 81.3319 102.062 80.8255 102.244 80.3099L104.327 74.533H105.956L101.616 85.9686C101.386 86.5812 101.116 87.1149 100.806 87.5698C100.503 88.0246 100.133 88.3734 99.6966 88.616C99.2599 88.8647 98.7322 88.989 98.1136 88.989C97.8285 88.989 97.5768 88.9708 97.3585 88.9344C97.1402 88.9041 96.9521 88.8677 96.7945 88.8252V87.6153C96.9279 87.6456 97.0886 87.6729 97.2766 87.6971C97.4707 87.7214 97.6709 87.7335 97.8771 87.7335C98.2531 87.7335 98.5776 87.6607 98.8505 87.5152C99.1295 87.3757 99.3691 87.1695 99.5692 86.8966C99.7693 86.6236 99.9422 86.2992 100.088 85.9231L100.634 84.5221L96.6398 74.533ZM110.728 76.6982V75.4701H119.262V76.6982H110.728ZM110.728 80.4191V79.191H119.262V80.4191H110.728ZM127.437 84.5039H125.89V71.2033H133.296V72.568H127.437V77.4442H132.941V78.7998H127.437V84.5039ZM138.168 79.4002C138.168 78.3752 138.265 77.3775 138.459 76.4071C138.659 75.4367 138.963 74.5118 139.369 73.6324C139.775 72.7529 140.288 71.9433 140.907 71.2033H142.353C141.474 72.3557 140.813 73.6354 140.37 75.0425C139.927 76.4496 139.706 77.8961 139.706 79.382C139.706 80.3524 139.803 81.3107 139.997 82.2568C140.197 83.1969 140.491 84.1036 140.879 84.977C141.273 85.8503 141.759 86.6752 142.335 87.4515H140.907C140.288 86.7237 139.775 85.9292 139.369 85.068C138.963 84.2128 138.659 83.3061 138.459 82.3478C138.265 81.3895 138.168 80.407 138.168 79.4002ZM154.313 84.5039L149.846 72.7317H149.773C149.797 72.9804 149.818 73.2836 149.837 73.6415C149.855 73.9993 149.87 74.3905 149.882 74.815C149.894 75.2335 149.9 75.6611 149.9 76.0978V84.5039H148.463V71.2033H150.756L154.968 82.2659H155.031L159.307 71.2033H161.582V84.5039H160.053V75.9886C160.053 75.5944 160.059 75.2002 160.071 74.8059C160.084 74.4057 160.099 74.0296 160.117 73.6779C160.135 73.32 160.153 73.0107 160.171 72.7499H160.099L155.577 84.5039H154.313ZM172.449 74.3693C173.638 74.3693 174.521 74.6361 175.097 75.1698C175.673 75.7036 175.961 76.5557 175.961 77.7263V84.5039H174.86L174.569 83.0301H174.496C174.217 83.394 173.926 83.7003 173.623 83.949C173.32 84.1916 172.968 84.3765 172.568 84.5039C172.174 84.6252 171.688 84.6859 171.112 84.6859C170.506 84.6859 169.966 84.5797 169.493 84.3674C169.026 84.1552 168.656 83.8337 168.383 83.4031C168.116 82.9725 167.983 82.4266 167.983 81.7656C167.983 80.7709 168.377 80.0067 169.165 79.473C169.954 78.9393 171.155 78.6481 172.768 78.5996L174.487 78.5268V77.9173C174.487 77.0561 174.302 76.4526 173.932 76.1069C173.562 75.7612 173.041 75.5883 172.368 75.5883C171.846 75.5883 171.349 75.6641 170.876 75.8158C170.403 75.9674 169.954 76.1463 169.529 76.3525L169.065 75.2062C169.514 74.9758 170.03 74.7787 170.612 74.6149C171.194 74.4511 171.807 74.3693 172.449 74.3693ZM174.469 79.5912L172.95 79.6549C171.706 79.7034 170.83 79.9066 170.321 80.2645C169.811 80.6223 169.556 81.1287 169.556 81.7837C169.556 82.3539 169.729 82.7754 170.075 83.0483C170.421 83.3212 170.879 83.4577 171.449 83.4577C172.334 83.4577 173.059 83.2121 173.623 82.7208C174.187 82.2295 174.469 81.4926 174.469 80.5101V79.5912ZM187.329 74.3511C187.53 74.3511 187.739 74.3632 187.957 74.3875C188.175 74.4057 188.37 74.4329 188.539 74.4693L188.348 75.8704C188.185 75.8279 188.003 75.7945 187.802 75.7703C187.602 75.746 187.414 75.7339 187.238 75.7339C186.838 75.7339 186.459 75.8158 186.101 75.9795C185.749 76.1372 185.44 76.3677 185.173 76.6709C184.906 76.9681 184.697 77.329 184.546 77.7535C184.394 78.172 184.318 78.639 184.318 79.1546V84.5039H182.799V74.533H184.054L184.218 76.3707H184.282C184.488 76.0008 184.737 75.6641 185.028 75.3609C185.319 75.0516 185.655 74.8059 186.038 74.624C186.426 74.442 186.856 74.3511 187.329 74.3511ZM195.65 70.3482V77.699C195.65 77.9416 195.641 78.2387 195.623 78.5905C195.604 78.9362 195.589 79.2425 195.577 79.5094H195.641C195.768 79.3517 195.953 79.1182 196.196 78.8089C196.444 78.4995 196.654 78.2509 196.824 78.0629L200.135 74.533H201.909L197.897 78.7907L202.2 84.5039H200.381L196.86 79.7823L195.65 80.8922V84.5039H194.149V70.3482H195.65ZM211.503 74.3511C212.352 74.3511 213.08 74.5391 213.687 74.9151C214.293 75.2911 214.757 75.8188 215.079 76.4981C215.4 77.1713 215.561 77.9598 215.561 78.8634V79.8005H208.674C208.692 80.971 208.983 81.8626 209.547 82.4752C210.111 83.0877 210.906 83.394 211.931 83.394C212.562 83.394 213.12 83.3364 213.605 83.2212C214.09 83.1059 214.593 82.9361 215.115 82.7117V84.0399C214.612 84.2643 214.111 84.4281 213.614 84.5312C213.123 84.6343 212.54 84.6859 211.867 84.6859C210.909 84.6859 210.072 84.4918 209.356 84.1036C208.647 83.7094 208.095 83.1332 207.701 82.3751C207.306 81.617 207.109 80.689 207.109 79.5912C207.109 78.5177 207.288 77.5898 207.646 76.8074C208.01 76.0189 208.519 75.4124 209.174 74.9879C209.835 74.5633 210.612 74.3511 211.503 74.3511ZM211.485 75.5883C210.678 75.5883 210.036 75.8522 209.556 76.3798C209.077 76.9075 208.792 77.6444 208.701 78.5905H213.978C213.972 77.9961 213.878 77.4746 213.696 77.0257C213.52 76.5709 213.25 76.2191 212.886 75.9704C212.522 75.7157 212.055 75.5883 211.485 75.5883ZM225.073 83.4486C225.322 83.4486 225.577 83.4274 225.837 83.3849C226.098 83.3425 226.31 83.2909 226.474 83.2303V84.4038C226.298 84.4827 226.053 84.5494 225.737 84.604C225.428 84.6586 225.125 84.6859 224.828 84.6859C224.3 84.6859 223.821 84.5949 223.39 84.4129C222.96 84.2249 222.614 83.9095 222.353 83.4668C222.098 83.024 221.971 82.4115 221.971 81.6291V75.7157H220.552V74.9788L221.98 74.3875L222.58 72.2222H223.49V74.533H226.411V75.7157H223.49V81.5836C223.49 82.2083 223.633 82.6753 223.918 82.9846C224.209 83.2939 224.594 83.4486 225.073 83.4486ZM248.519 80.965C248.519 81.7534 248.322 82.4266 247.928 82.9846C247.54 83.5365 246.994 83.9581 246.29 84.2492C245.587 84.5403 244.759 84.6859 243.807 84.6859C243.303 84.6859 242.827 84.6616 242.378 84.6131C241.93 84.5646 241.517 84.4948 241.141 84.4038C240.765 84.3129 240.435 84.2007 240.15 84.0672V82.5843C240.604 82.7723 241.159 82.9482 241.814 83.112C242.469 83.2697 243.155 83.3485 243.87 83.3485C244.538 83.3485 245.102 83.2606 245.563 83.0847C246.024 82.9027 246.372 82.645 246.609 82.3114C246.851 81.9718 246.973 81.5654 246.973 81.0923C246.973 80.6375 246.873 80.2584 246.673 79.9551C246.472 79.6458 246.139 79.3668 245.672 79.1182C245.211 78.8634 244.58 78.5935 243.78 78.3085C243.215 78.1083 242.718 77.89 242.288 77.6535C241.857 77.4109 241.496 77.1379 241.205 76.8347C240.914 76.5314 240.692 76.1797 240.541 75.7794C240.395 75.3791 240.322 74.9212 240.322 74.4057C240.322 73.696 240.501 73.0895 240.859 72.5861C241.223 72.0767 241.723 71.6885 242.36 71.4217C243.003 71.1487 243.74 71.0123 244.571 71.0123C245.281 71.0123 245.936 71.079 246.536 71.2124C247.143 71.3459 247.698 71.5248 248.201 71.7492L247.719 73.0774C247.24 72.8773 246.73 72.7105 246.19 72.5771C245.657 72.4436 245.105 72.3769 244.535 72.3769C243.965 72.3769 243.482 72.4618 243.088 72.6316C242.7 72.7954 242.403 73.0289 242.197 73.3321C241.99 73.6354 241.887 73.9963 241.887 74.4148C241.887 74.8818 241.984 75.2699 242.178 75.5792C242.378 75.8886 242.694 76.1645 243.124 76.4071C243.561 76.6436 244.137 76.8923 244.853 77.1531C245.635 77.4382 246.3 77.7414 246.845 78.0629C247.391 78.3782 247.807 78.7664 248.092 79.2273C248.377 79.6822 248.519 80.2614 248.519 80.965ZM256.249 70.3482V74.5785C256.249 74.8211 256.243 75.0667 256.23 75.3154C256.218 75.558 256.197 75.7824 256.167 75.9886H256.267C256.473 75.6369 256.734 75.3427 257.049 75.1062C257.371 74.8636 257.735 74.6816 258.141 74.5603C258.547 74.4329 258.978 74.3693 259.433 74.3693C260.233 74.3693 260.9 74.4966 261.434 74.7514C261.974 75.0061 262.377 75.4003 262.644 75.934C262.917 76.4678 263.054 77.1592 263.054 78.0083V84.5039H261.562V78.1083C261.562 77.2774 261.37 76.6558 260.988 76.2434C260.612 75.8309 260.033 75.6247 259.251 75.6247C258.511 75.6247 257.919 75.7673 257.477 76.0523C257.04 76.3313 256.725 76.7437 256.531 77.2896C256.343 77.8354 256.249 78.5026 256.249 79.291V84.5039H254.738V70.3482H256.249ZM273.621 74.3693C274.81 74.3693 275.692 74.6361 276.269 75.1698C276.845 75.7036 277.133 76.5557 277.133 77.7263V84.5039H276.032L275.741 83.0301H275.668C275.389 83.394 275.098 83.7003 274.795 83.949C274.492 84.1916 274.14 84.3765 273.739 84.5039C273.345 84.6252 272.86 84.6859 272.284 84.6859C271.677 84.6859 271.138 84.5797 270.665 84.3674C270.198 84.1552 269.828 83.8337 269.555 83.4031C269.288 82.9725 269.154 82.4266 269.154 81.7656C269.154 80.7709 269.549 80.0067 270.337 79.473C271.125 78.9393 272.326 78.6481 273.94 78.5996L275.659 78.5268V77.9173C275.659 77.0561 275.474 76.4526 275.104 76.1069C274.734 75.7612 274.213 75.5883 273.539 75.5883C273.018 75.5883 272.52 75.6641 272.047 75.8158C271.574 75.9674 271.125 76.1463 270.701 76.3525L270.237 75.2062C270.686 74.9758 271.201 74.7787 271.784 74.6149C272.366 74.4511 272.978 74.3693 273.621 74.3693ZM275.641 79.5912L274.122 79.6549C272.878 79.7034 272.002 79.9066 271.492 80.2645C270.983 80.6223 270.728 81.1287 270.728 81.7837C270.728 82.3539 270.901 82.7754 271.247 83.0483C271.592 83.3212 272.05 83.4577 272.62 83.4577C273.506 83.4577 274.231 83.2121 274.795 82.7208C275.359 82.2295 275.641 81.4926 275.641 80.5101V79.5912ZM288.501 74.3511C288.701 74.3511 288.911 74.3632 289.129 74.3875C289.347 74.4057 289.541 74.4329 289.711 74.4693L289.52 75.8704C289.356 75.8279 289.174 75.7945 288.974 75.7703C288.774 75.746 288.586 75.7339 288.41 75.7339C288.01 75.7339 287.631 75.8158 287.273 75.9795C286.921 76.1372 286.612 76.3677 286.345 76.6709C286.078 76.9681 285.869 77.329 285.717 77.7535C285.566 78.172 285.49 78.639 285.49 79.1546V84.5039H283.971V74.533H285.226L285.39 76.3707H285.453C285.66 76.0008 285.908 75.6641 286.199 75.3609C286.491 75.0516 286.827 74.8059 287.209 74.624C287.597 74.442 288.028 74.3511 288.501 74.3511ZM299.16 74.3511C300.009 74.3511 300.737 74.5391 301.343 74.9151C301.95 75.2911 302.414 75.8188 302.735 76.4981C303.057 77.1713 303.217 77.9598 303.217 78.8634V79.8005H296.33C296.349 80.971 296.64 81.8626 297.204 82.4752C297.768 83.0877 298.562 83.394 299.587 83.394C300.218 83.394 300.776 83.3364 301.261 83.2212C301.746 83.1059 302.25 82.9361 302.771 82.7117V84.0399C302.268 84.2643 301.768 84.4281 301.27 84.5312C300.779 84.6343 300.197 84.6859 299.524 84.6859C298.565 84.6859 297.728 84.4918 297.013 84.1036C296.303 83.7094 295.751 83.1332 295.357 82.3751C294.963 81.617 294.766 80.689 294.766 79.5912C294.766 78.5177 294.945 77.5898 295.302 76.8074C295.666 76.0189 296.176 75.4124 296.831 74.9879C297.492 74.5633 298.268 74.3511 299.16 74.3511ZM299.142 75.5883C298.335 75.5883 297.692 75.8522 297.213 76.3798C296.734 76.9075 296.449 77.6444 296.358 78.5905H301.634C301.628 77.9961 301.534 77.4746 301.352 77.0257C301.176 76.5709 300.906 76.2191 300.543 75.9704C300.179 75.7157 299.712 75.5883 299.142 75.5883ZM312.666 79.382C312.666 80.3949 312.566 81.3835 312.366 82.3478C312.172 83.3061 311.871 84.2158 311.465 85.0771C311.065 85.9383 310.552 86.7298 309.928 87.4515H308.499C309.082 86.6812 309.567 85.8564 309.955 84.977C310.349 84.0976 310.643 83.1878 310.837 82.2477C311.038 81.3016 311.138 80.3433 311.138 79.3729C311.138 78.3843 311.038 77.4109 310.837 76.4526C310.637 75.4943 310.34 74.5724 309.946 73.687C309.558 72.8015 309.069 71.9736 308.481 71.2033H309.928C310.552 71.9493 311.065 72.762 311.465 73.6415C311.871 74.5148 312.172 75.4367 312.366 76.4071C312.566 77.3714 312.666 78.3631 312.666 79.382Z" fill="#2B2A2A"/>
</g>
<defs>
<filter id="filter0_d_2240_18148" x="-35.246" y="0.0828981" width="381.951" height="191.908" filterUnits="userSpaceOnUse" color-interpolation-filters="sRGB">
<feFlood flood-opacity="0" result="BackgroundImageFix"/>
<feColorMatrix in="SourceAlpha" type="matrix" values="0 0 0 0 0 0 0 0 0 0 0 0 0 0 0 0 0 0 127 0" result="hardAlpha"/>
<feOffset dy="3.72635"/>
<feGaussianBlur stdDeviation="9.31586"/>
<feComposite in2="hardAlpha" operator="out"/>
<feColorMatrix type="matrix" values="0 0 0 0 0 0 0 0 0 0 0 0 0 0 0 0 0 0 0.06 0"/>
<feBlend mode="normal" in2="BackgroundImageFix" result="effect1_dropShadow_2240_18148"/>
<feBlend mode="normal" in="SourceGraphic" in2="effect1_dropShadow_2240_18148" result="shape"/>
</filter>
</defs>
</svg>
