<svg width="330" height="155" viewBox="0 0 330 155" fill="none" xmlns="http://www.w3.org/2000/svg">
<g filter="url(#filter0_d_2240_18165)">
<rect x="18.834" y="14.9883" width="345.619" height="154.643" rx="18.6317" fill="#F5F5F5"/>
<rect x="19.2998" y="15.4541" width="344.687" height="153.712" rx="18.1659" stroke="#D2D2D2" stroke-width="0.931587"/>
<path d="M104.341 67.547C104.341 68.3355 104.143 69.0087 103.749 69.5667C103.361 70.1186 102.815 70.5401 102.112 70.8312C101.408 71.1223 100.58 71.2679 99.6281 71.2679C99.1247 71.2679 98.6486 71.2436 98.1998 71.1951C97.7509 71.1466 97.3385 71.0768 96.9625 70.9859C96.5865 70.8949 96.2559 70.7827 95.9709 70.6493V69.1664C96.4257 69.3544 96.9807 69.5303 97.6357 69.694C98.2907 69.8517 98.9761 69.9306 99.6918 69.9306C100.359 69.9306 100.923 69.8426 101.384 69.6667C101.845 69.4848 102.194 69.227 102.43 68.8934C102.673 68.5538 102.794 68.1474 102.794 67.6744C102.794 67.2195 102.694 66.8404 102.494 66.5372C102.294 66.2279 101.96 65.9489 101.493 65.7002C101.032 65.4455 100.401 65.1756 99.6008 64.8905C99.0367 64.6904 98.5394 64.472 98.1088 64.2355C97.6782 63.9929 97.3173 63.72 97.0262 63.4167C96.7351 63.1135 96.5137 62.7617 96.3621 62.3614C96.2165 61.9611 96.1437 61.5032 96.1437 60.9877C96.1437 60.2781 96.3226 59.6716 96.6805 59.1682C97.0444 58.6587 97.5447 58.2706 98.1816 58.0037C98.8245 57.7308 99.5614 57.5943 100.392 57.5943C101.102 57.5943 101.757 57.661 102.357 57.7945C102.964 57.9279 103.519 58.1068 104.022 58.3312L103.54 59.6594C103.061 59.4593 102.551 59.2925 102.012 59.1591C101.478 59.0257 100.926 58.9589 100.356 58.9589C99.7858 58.9589 99.3036 59.0438 98.9094 59.2137C98.5212 59.3774 98.224 59.6109 98.0178 59.9142C97.8116 60.2174 97.7085 60.5783 97.7085 60.9968C97.7085 61.4638 97.8055 61.852 97.9996 62.1613C98.1998 62.4706 98.5151 62.7465 98.9458 62.9891C99.3824 63.2257 99.9586 63.4743 100.674 63.7351C101.457 64.0202 102.121 64.3234 102.667 64.6449C103.212 64.9603 103.628 65.3484 103.913 65.8094C104.198 66.2642 104.341 66.8435 104.341 67.547ZM122.323 64.4175C122.323 65.4424 122.192 66.3765 121.932 67.2195C121.671 68.0565 121.283 68.7782 120.767 69.3847C120.258 69.9851 119.624 70.4491 118.866 70.7766C118.108 71.1041 117.228 71.2679 116.227 71.2679C115.196 71.2679 114.296 71.1041 113.525 70.7766C112.761 70.4491 112.124 69.9821 111.615 69.3756C111.112 68.7691 110.733 68.0443 110.478 67.2013C110.229 66.3583 110.105 65.4242 110.105 64.3993C110.105 63.0407 110.329 61.8489 110.778 60.8239C111.227 59.7989 111.906 59.0014 112.816 58.4313C113.732 57.8612 114.878 57.5761 116.255 57.5761C117.571 57.5761 118.678 57.8581 119.575 58.4222C120.479 58.9862 121.161 59.7807 121.622 60.8057C122.089 61.8247 122.323 63.0286 122.323 64.4175ZM111.733 64.4175C111.733 65.5455 111.894 66.522 112.215 67.3469C112.537 68.1717 113.028 68.8085 113.689 69.2573C114.356 69.7061 115.202 69.9306 116.227 69.9306C117.258 69.9306 118.102 69.7061 118.757 69.2573C119.418 68.8085 119.906 68.1717 120.221 67.3469C120.537 66.522 120.694 65.5455 120.694 64.4175C120.694 62.7011 120.333 61.3607 119.612 60.3963C118.896 59.4259 117.777 58.9407 116.255 58.9407C115.224 58.9407 114.375 59.1621 113.707 59.6049C113.04 60.0476 112.543 60.6784 112.215 61.4971C111.894 62.3099 111.733 63.2833 111.733 64.4175ZM134.865 71.0859L130.398 59.3137H130.325C130.349 59.5624 130.37 59.8657 130.389 60.2235C130.407 60.5813 130.422 60.9725 130.434 61.3971C130.446 61.8156 130.452 62.2431 130.452 62.6798V71.0859H129.015V57.7854H131.307L135.52 68.8479H135.583L139.859 57.7854H142.134V71.0859H140.605V62.5707C140.605 62.1764 140.611 61.7822 140.623 61.388C140.635 60.9877 140.651 60.6117 140.669 60.2599C140.687 59.902 140.705 59.5927 140.723 59.3319H140.651L136.129 71.0859H134.865ZM152.719 63.2803C152.289 63.0862 151.925 62.9528 151.628 62.88C151.331 62.8011 151.039 62.7617 150.754 62.7617C150.409 62.7617 150.042 62.8648 149.654 63.071C149.271 63.2772 148.926 63.538 148.616 63.8534V62.4979C148.92 62.1764 149.256 61.9338 149.626 61.7701C150.002 61.6063 150.412 61.5244 150.854 61.5244C151.23 61.5244 151.594 61.5669 151.946 61.6518C152.304 61.7307 152.75 61.8853 153.283 62.1158C153.726 62.3038 154.093 62.4372 154.384 62.5161C154.675 62.5949 154.957 62.6343 155.23 62.6343C155.588 62.6343 155.958 62.5312 156.34 62.325C156.722 62.1188 157.065 61.858 157.368 61.5426V62.88C157.077 63.1954 156.747 63.441 156.377 63.6169C156.007 63.7867 155.597 63.8716 155.148 63.8716C154.785 63.8716 154.424 63.8322 154.066 63.7533C153.708 63.6745 153.259 63.5168 152.719 63.2803ZM152.719 66.8738C152.289 66.6797 151.925 66.5463 151.628 66.4735C151.331 66.3946 151.039 66.3552 150.754 66.3552C150.409 66.3552 150.042 66.4583 149.654 66.6645C149.271 66.8708 148.926 67.1315 148.616 67.4469V66.0914C148.92 65.77 149.256 65.5274 149.626 65.3636C150.002 65.1998 150.412 65.118 150.854 65.118C151.23 65.118 151.594 65.1604 151.946 65.2453C152.304 65.3242 152.75 65.4788 153.283 65.7093C153.726 65.8973 154.093 66.0307 154.384 66.1096C154.675 66.1884 154.957 66.2279 155.23 66.2279C155.588 66.2279 155.958 66.1248 156.34 65.9185C156.722 65.7123 157.065 65.4515 157.368 65.1362V66.4735C157.077 66.7889 156.747 67.0345 156.377 67.2104C156.007 67.3802 155.597 67.4651 155.148 67.4651C154.785 67.4651 154.424 67.4257 154.066 67.3469C153.708 67.268 153.259 67.1103 152.719 66.8738ZM165.434 71.0859H163.888V57.7854H171.293V59.15H165.434V64.0263H170.938V65.3818H165.434V71.0859ZM176.166 65.9822C176.166 64.9572 176.263 63.9595 176.457 62.9891C176.657 62.0187 176.96 61.0938 177.366 60.2144C177.773 59.335 178.285 58.5253 178.904 57.7854H180.35C179.471 58.9377 178.81 60.2174 178.367 61.6245C177.924 63.0316 177.703 64.4781 177.703 65.964C177.703 66.9344 177.8 67.8927 177.994 68.8388C178.194 69.7789 178.488 70.6856 178.877 71.559C179.271 72.4324 179.756 73.2572 180.332 74.0335H178.904C178.285 73.3057 177.773 72.5112 177.366 71.65C176.96 70.7948 176.657 69.8881 176.457 68.9298C176.263 67.9716 176.166 66.989 176.166 65.9822ZM193.966 67.547C193.966 68.3355 193.769 69.0087 193.374 69.5667C192.986 70.1186 192.44 70.5401 191.737 70.8312C191.033 71.1223 190.205 71.2679 189.253 71.2679C188.75 71.2679 188.274 71.2436 187.825 71.1951C187.376 71.1466 186.964 71.0768 186.588 70.9859C186.212 70.8949 185.881 70.7827 185.596 70.6493V69.1664C186.051 69.3544 186.606 69.5303 187.261 69.694C187.916 69.8517 188.601 69.9306 189.317 69.9306C189.984 69.9306 190.548 69.8426 191.009 69.6667C191.47 69.4848 191.819 69.227 192.055 68.8934C192.298 68.5538 192.419 68.1474 192.419 67.6744C192.419 67.2195 192.319 66.8404 192.119 66.5372C191.919 66.2279 191.585 65.9489 191.118 65.7002C190.657 65.4455 190.027 65.1756 189.226 64.8905C188.662 64.6904 188.165 64.472 187.734 64.2355C187.303 63.9929 186.942 63.72 186.651 63.4167C186.36 63.1135 186.139 62.7617 185.987 62.3614C185.842 61.9611 185.769 61.5032 185.769 60.9877C185.769 60.2781 185.948 59.6716 186.306 59.1682C186.67 58.6587 187.17 58.2706 187.807 58.0037C188.45 57.7308 189.187 57.5943 190.017 57.5943C190.727 57.5943 191.382 57.661 191.982 57.7945C192.589 57.9279 193.144 58.1068 193.647 58.3312L193.165 59.6594C192.686 59.4593 192.177 59.2925 191.637 59.1591C191.103 59.0257 190.551 58.9589 189.981 58.9589C189.411 58.9589 188.929 59.0438 188.535 59.2137C188.146 59.3774 187.849 59.6109 187.643 59.9142C187.437 60.2174 187.334 60.5783 187.334 60.9968C187.334 61.4638 187.431 61.852 187.625 62.1613C187.825 62.4706 188.14 62.7465 188.571 62.9891C189.008 63.2257 189.584 63.4743 190.299 63.7351C191.082 64.0202 191.746 64.3234 192.292 64.6449C192.838 64.9603 193.253 65.3484 193.538 65.8094C193.823 66.2642 193.966 66.8435 193.966 67.547ZM211.948 64.4175C211.948 65.4424 211.818 66.3765 211.557 67.2195C211.296 68.0565 210.908 68.7782 210.392 69.3847C209.883 69.9851 209.249 70.4491 208.491 70.7766C207.733 71.1041 206.853 71.2679 205.853 71.2679C204.822 71.2679 203.921 71.1041 203.151 70.7766C202.386 70.4491 201.75 69.9821 201.24 69.3756C200.737 68.7691 200.358 68.0443 200.103 67.2013C199.854 66.3583 199.73 65.4242 199.73 64.3993C199.73 63.0407 199.954 61.8489 200.403 60.8239C200.852 59.7989 201.531 59.0014 202.441 58.4313C203.357 57.8612 204.503 57.5761 205.88 57.5761C207.196 57.5761 208.303 57.8581 209.2 58.4222C210.104 58.9862 210.786 59.7807 211.247 60.8057C211.714 61.8247 211.948 63.0286 211.948 64.4175ZM201.358 64.4175C201.358 65.5455 201.519 66.522 201.841 67.3469C202.162 68.1717 202.653 68.8085 203.314 69.2573C203.982 69.7061 204.828 69.9306 205.853 69.9306C206.884 69.9306 207.727 69.7061 208.382 69.2573C209.043 68.8085 209.531 68.1717 209.846 67.3469C210.162 66.522 210.319 65.5455 210.319 64.4175C210.319 62.7011 209.959 61.3607 209.237 60.3963C208.521 59.4259 207.402 58.9407 205.88 58.9407C204.849 58.9407 204 59.1621 203.333 59.6049C202.665 60.0476 202.168 60.6784 201.841 61.4971C201.519 62.3099 201.358 63.2833 201.358 64.4175ZM227.929 57.7854L223.152 71.0859H221.597L216.821 57.7854H218.44L221.551 66.5463C221.679 66.898 221.791 67.2347 221.888 67.5561C221.991 67.8775 222.082 68.1869 222.161 68.484C222.24 68.7812 222.309 69.0693 222.37 69.3483C222.431 69.0693 222.5 68.7812 222.579 68.484C222.658 68.1808 222.749 67.8684 222.852 67.547C222.955 67.2195 223.071 66.8768 223.198 66.519L226.291 57.7854H227.929ZM236.413 65.964C236.413 66.9769 236.313 67.9655 236.113 68.9298C235.919 69.8881 235.618 70.7978 235.212 71.6591C234.812 72.5203 234.299 73.3118 233.675 74.0335H232.246C232.829 73.2633 233.314 72.4384 233.702 71.559C234.096 70.6796 234.39 69.7698 234.584 68.8298C234.785 67.8836 234.885 66.9253 234.885 65.9549C234.885 64.9663 234.785 63.9929 234.584 63.0346C234.384 62.0764 234.087 61.1545 233.693 60.269C233.305 59.3835 232.816 58.5556 232.228 57.7854H233.675C234.299 58.5314 234.812 59.3441 235.212 60.2235C235.618 61.0969 235.919 62.0187 236.113 62.9891C236.313 63.9535 236.413 64.9451 236.413 65.964Z" fill="#2B2A2A"/>
</g>
<defs>
<filter id="filter0_d_2240_18165" x="0.202255" y="0.0828981" width="382.883" height="191.908" filterUnits="userSpaceOnUse" color-interpolation-filters="sRGB">
<feFlood flood-opacity="0" result="BackgroundImageFix"/>
<feColorMatrix in="SourceAlpha" type="matrix" values="0 0 0 0 0 0 0 0 0 0 0 0 0 0 0 0 0 0 127 0" result="hardAlpha"/>
<feOffset dy="3.72635"/>
<feGaussianBlur stdDeviation="9.31586"/>
<feComposite in2="hardAlpha" operator="out"/>
<feColorMatrix type="matrix" values="0 0 0 0 0 0 0 0 0 0 0 0 0 0 0 0 0 0 0.06 0"/>
<feBlend mode="normal" in2="BackgroundImageFix" result="effect1_dropShadow_2240_18165"/>
<feBlend mode="normal" in="SourceGraphic" in2="effect1_dropShadow_2240_18165" result="shape"/>
</filter>
</defs>
</svg>
