<svg width="25" height="24" viewBox="0 0 25 24" fill="none" xmlns="http://www.w3.org/2000/svg">
<path d="M15.1284 2.00195V4.48817C15.1284 6.23612 15.1284 7.11009 15.3424 7.9491C15.5564 8.78811 15.9758 9.55849 16.8146 11.0993L17.9512 13.1872C20.0887 17.1135 21.1575 19.0767 20.2807 20.532L20.2671 20.5542C19.3775 22.002 17.1143 22.002 12.5879 22.002C8.06146 22.002 5.79825 22.002 4.90869 20.5542L4.89514 20.532C4.01834 19.0767 5.08707 17.1135 7.22455 13.1872L8.36119 11.0993C9.19998 9.55849 9.61938 8.78811 9.83337 7.9491C10.0474 7.11009 10.0474 6.23612 10.0474 4.48817V2.00195" stroke="black" stroke-width="1.5"/>
<path d="M9.58789 16.0044L9.59657 16.002" stroke="black" stroke-width="2" stroke-linecap="round" stroke-linejoin="round"/>
<path d="M15.5879 18.0044L15.5966 18.002" stroke="black" stroke-width="2" stroke-linecap="round" stroke-linejoin="round"/>
<path d="M8.58789 2.00195H16.5879" stroke="black" stroke-width="1.5" stroke-linecap="round" stroke-linejoin="round"/>
<path d="M8.08789 11.5582C9.08789 10.4048 10.6873 11.2362 12.5879 12.3201C15.0879 13.7458 16.5879 12.6519 17.0879 11.6171" stroke="black" stroke-width="1.5" stroke-linecap="round"/>
</svg>
