<svg width="25" height="24" viewBox="0 0 25 24" fill="none" xmlns="http://www.w3.org/2000/svg">
<path d="M14.5879 2.20004C13.9417 2.06886 13.2728 2 12.5879 2C7.06504 2 2.58789 6.47715 2.58789 12C2.58789 17.5228 7.06504 22 12.5879 22C18.1107 22 22.5879 17.5228 22.5879 12C22.5879 11.3151 22.519 10.6462 22.3879 10" stroke="black" stroke-width="1.5" stroke-linecap="round"/>
<path d="M12.5879 9C11.4833 9 10.5879 9.67157 10.5879 10.5C10.5879 11.3284 11.4833 12 12.5879 12C13.6925 12 14.5879 12.6716 14.5879 13.5C14.5879 14.3284 13.6925 15 12.5879 15M12.5879 9C13.4587 9 14.1995 9.4174 14.4741 10M12.5879 9V8M12.5879 15C11.7171 15 10.9763 14.5826 10.7017 14M12.5879 15V16" stroke="black" stroke-width="1.5" stroke-linecap="round"/>
<path d="M17.5859 7.00195L21.7618 2.82375M22.5859 6.48019L22.4677 3.3887C22.4677 2.66006 22.0327 2.20607 21.2402 2.14881L18.1161 2.00195" stroke="black" stroke-width="1.5" stroke-linecap="round" stroke-linejoin="round"/>
</svg>
