<svg width="25" height="24" viewBox="0 0 25 24" fill="none" xmlns="http://www.w3.org/2000/svg">
<path d="M2.844 15.6342C2.87796 15.311 3.11217 15.0505 3.5806 14.5296L4.61167 13.3769C4.8637 13.0578 5.04255 12.502 5.04255 12.0018C5.04255 11.502 4.86364 10.946 4.61164 10.627L3.5806 9.47426C3.11217 8.95332 2.87795 8.69285 2.844 8.36963C2.81004 8.04641 2.985 7.74278 3.33491 7.13553L3.82849 6.27893C4.20179 5.6311 4.38843 5.30718 4.70601 5.17802C5.02359 5.04885 5.38275 5.15078 6.10109 5.35462L7.32132 5.69832C7.77993 5.80407 8.26108 5.74408 8.67983 5.52893L9.01671 5.33456C9.37579 5.10457 9.65199 4.76547 9.80487 4.36688L10.1388 3.36949C10.3584 2.70948 10.4682 2.37947 10.7295 2.19071C10.9909 2.00195 11.3381 2.00195 12.0324 2.00195H13.1472C13.8416 2.00195 14.1888 2.00195 14.4501 2.19071C14.7115 2.37947 14.8213 2.70948 15.0409 3.36949L15.3748 4.36688C15.5277 4.76547 15.8039 5.10457 16.163 5.33456L16.4999 5.52893C16.9186 5.74408 17.3998 5.80407 17.8584 5.69832L19.0786 5.35462C19.7969 5.15078 20.1561 5.04885 20.4737 5.17802C20.7913 5.30718 20.9779 5.6311 21.3512 6.27893L21.8448 7.13553C22.1947 7.74278 22.3696 8.04641 22.3357 8.36963C22.3017 8.69285 22.0675 8.95332 21.5991 9.47426L20.568 10.627C20.3161 10.946 20.1371 11.502 20.1371 12.0018C20.1371 12.502 20.316 13.0578 20.568 13.3769L21.5991 14.5296C22.0675 15.0505 22.3017 15.311 22.3357 15.6342C22.3696 15.9575 22.1947 16.2611 21.8448 16.8683L21.3512 17.7249C20.9779 18.3727 20.7913 18.6967 20.4737 18.8258C20.1561 18.955 19.7969 18.8531 19.0786 18.6492L17.8584 18.3055C17.3997 18.1997 16.9185 18.2598 16.4997 18.475L16.1629 18.6694C15.8038 18.8994 15.5277 19.2384 15.3749 19.637L15.0409 20.6345C14.8213 21.2945 14.7115 21.6245 14.4501 21.8132C14.1888 22.002 13.8416 22.002 13.1472 22.002H12.0324C11.3381 22.002 10.9909 22.002 10.7295 21.8132C10.4682 21.6245 10.3584 21.2945 10.1388 20.6345" stroke="black" stroke-width="1.5" stroke-linecap="round"/>
<path d="M3.32485 18.7818C4.40485 17.7018 8.07685 14.0658 8.43685 13.6458C8.81742 13.2018 8.50885 12.6018 8.69245 10.7418C8.78129 9.84176 8.97488 9.16751 9.52885 8.66576C10.1888 8.04176 10.7289 8.04175 12.5889 7.99976C14.2089 8.04175 14.4009 7.86175 14.5689 8.28176C14.6889 8.58176 14.3289 8.76175 13.8969 9.24176C12.9369 10.2018 12.3729 10.6818 12.3189 10.9818C11.9289 12.3018 13.4649 13.0818 14.3049 12.2418C14.6225 11.9241 16.0929 10.4418 16.2369 10.3218C16.3449 10.2258 16.6034 10.2304 16.7289 10.3818C16.8369 10.4879 16.8489 10.5018 16.8369 10.9818C16.8258 11.4261 16.8307 12.064 16.8321 12.7218C16.8338 13.5741 16.7889 14.5218 16.4289 15.0018C15.7089 16.0818 14.5089 16.1418 13.4289 16.1898C12.4089 16.2498 11.5689 16.1418 11.3049 16.3338C11.0889 16.4418 9.94885 17.6418 8.56885 19.0218L6.10885 21.4818C4.06885 23.1018 1.82485 20.5818 3.32485 18.7818Z" stroke="black" stroke-width="1.5" stroke-linecap="round"/>
</svg>
