<svg width="29" height="31" viewBox="0 0 29 31" fill="none" xmlns="http://www.w3.org/2000/svg">
<g clip-path="url(#clip0_1191_10640)">
<path d="M4.01823 26.4762H10.5197C10.6821 26.4762 10.814 26.3442 10.814 26.1819V20.4875C10.814 20.3251 10.6821 20.1932 10.5197 20.1932H7.56211L7.56324 17.6494C7.56324 17.487 7.43131 17.3551 7.26895 17.3551L4.01806 17.3562C3.85569 17.3562 3.72377 17.4881 3.72377 17.6505V26.183C3.72377 26.3442 3.85587 26.4762 4.01823 26.4762ZM10.2267 20.7809V25.8876H7.56338V20.7809H10.2267ZM4.31151 17.9439H6.97486V25.8878H4.31151V17.9439ZM11.8213 13.1989V26.182C11.8213 26.3444 11.9532 26.4763 12.1156 26.4763H18.6171C18.7794 26.4763 18.9113 26.3444 18.9113 26.182V16.593C18.9113 16.4306 18.7794 16.2987 18.6171 16.2987H15.6595L15.6606 13.1991C15.6606 13.0367 15.5287 12.9048 15.3663 12.9048H12.1154C11.953 12.9048 11.8213 13.0366 11.8213 13.1989ZM18.3239 16.8871V25.8887H15.6606V16.8871H18.3239ZM12.4099 13.4931H15.0732V25.8876H12.4099V13.4931ZM20.2126 26.4761H26.7141C26.8765 26.4761 27.0084 26.3442 27.0084 26.1818L27.0095 12.3138C27.0095 12.1514 26.8776 12.0195 26.7152 12.0195H23.7576L23.7588 6.81119C23.7588 6.64882 23.6268 6.5169 23.4645 6.5169H20.2124C20.0501 6.5169 19.9181 6.64882 19.9181 6.81119V26.1817C19.9181 26.3441 20.0503 26.4761 20.2126 26.4761ZM26.4211 12.6081V25.8876H23.7578L23.7589 12.6081H26.4211ZM20.5071 7.10562H23.1704V25.8876H20.5071V7.10562ZM28.638 28.5351C28.638 28.6975 28.5061 28.8294 28.3437 28.8294H1.87046C1.70809 28.8294 1.57617 28.6975 1.57617 28.5351V2.06187C1.57617 1.8995 1.7081 1.76758 1.87046 1.76758C2.03282 1.76758 2.16475 1.8995 2.16475 2.06187V28.2407H28.3436C28.506 28.2407 28.638 28.3728 28.638 28.5351ZM10.1716 10.4388C11.2293 10.4388 12.199 10.0577 12.9522 9.42621C12.9601 9.42058 12.9691 9.41494 12.977 9.4093C12.986 9.40253 12.9928 9.39351 13.0007 9.38562C13.9219 8.58955 14.5071 7.41462 14.5071 6.10442C14.5071 3.71282 12.5621 1.76789 10.1715 1.76789C7.78088 1.76789 5.8358 3.71296 5.8358 6.10356C5.8358 8.49415 7.78088 10.4392 10.1715 10.4392L10.1716 10.4388ZM12.8124 8.75981L10.8075 6.39754H13.9072C13.8339 7.31764 13.4303 8.14529 12.8124 8.75981ZM13.9061 5.80884H10.4659V2.3686C12.2982 2.5118 13.763 3.97652 13.9061 5.80884ZM9.87731 2.3686V6.10328C9.87731 6.10891 9.87843 6.11343 9.87843 6.11906C9.87956 6.12921 9.87956 6.13936 9.88182 6.14951C9.88295 6.15853 9.8852 6.16755 9.88745 6.17657C9.88971 6.18559 9.89309 6.19461 9.89535 6.20363C9.89873 6.21265 9.90211 6.22167 9.90662 6.23069C9.91001 6.23859 9.91452 6.24648 9.91903 6.25437C9.92466 6.26339 9.9303 6.27241 9.93707 6.28031C9.94045 6.28369 9.94271 6.2882 9.94496 6.29271L12.3614 9.13872C11.7446 9.58525 10.988 9.84909 10.1693 9.84909C8.10247 9.84909 6.42253 8.16787 6.42253 6.10228C6.42479 4.13691 7.94796 2.51985 9.87731 2.3686Z" fill="#2B2A2A"/>
</g>
<defs>
<clipPath id="clip0_1191_10640">
<rect width="28" height="30.5979" fill="white" transform="translate(0.673828)"/>
</clipPath>
</defs>
</svg>
