<svg width="29" height="28" viewBox="0 0 29 28" fill="none" xmlns="http://www.w3.org/2000/svg">
<g clip-path="url(#clip0_1191_10664)">
<path d="M14.3265 22.7015C14.302 22.7015 14.2763 22.7015 14.2518 22.7004C13.6669 22.6803 13.1156 22.4236 12.7406 21.9961C12.5665 21.7975 12.4303 21.5653 12.3366 21.3053C12.1837 20.8845 11.8589 20.5464 11.4448 20.3778C11.0308 20.2093 10.562 20.2238 10.1591 20.418C9.83656 20.5731 9.50062 20.6468 9.1591 20.6345C8.46156 20.61 7.79639 20.216 7.4225 19.6044C7.04973 18.9961 7.0129 18.2695 7.32094 17.6133C7.51067 17.2081 7.5196 16.7394 7.34661 16.3265C7.1725 15.9135 6.83098 15.5932 6.40798 15.4459C5.55084 15.1468 4.99281 14.3667 4.98832 13.4593C4.98274 12.5508 5.53072 11.7651 6.38452 11.4559C6.80529 11.303 7.14344 10.9783 7.31198 10.5642C7.48052 10.1501 7.466 9.6814 7.2718 9.27849C6.87672 8.4604 7.03408 7.51509 7.67246 6.86889C8.31086 6.22269 9.25395 6.05414 10.0765 6.4392C10.4816 6.62893 10.9504 6.63786 11.3633 6.46375C11.7751 6.28965 12.0966 5.94813 12.2439 5.52513C12.543 4.66798 13.3231 4.10995 14.2305 4.10547H14.2439C15.1457 4.10547 15.9269 4.65235 16.2338 5.50167C16.3867 5.92244 16.7115 6.26058 17.1256 6.42913C17.5396 6.59765 18.0084 6.58314 18.4113 6.38895C19.1591 6.02846 19.9916 6.11774 20.639 6.6289C21.2863 7.14007 21.5809 7.94587 21.4079 8.73047C21.3733 8.88784 21.3198 9.04299 21.2495 9.19365C21.0597 9.59879 21.0508 10.0675 21.2238 10.4805C21.3979 10.8923 21.7394 11.2137 22.1624 11.361C23.0196 11.6602 23.5776 12.4403 23.5821 13.3476C23.5877 14.2561 23.0397 15.0418 22.1859 15.351C21.7651 15.5039 21.427 15.8287 21.2584 16.2427C21.0899 16.6568 21.1044 17.1255 21.2986 17.5284C21.456 17.8543 21.5285 18.1947 21.5151 18.5396C21.4694 19.6579 20.5095 20.5731 19.4002 20.5731C19.3767 20.5731 19.3533 20.5731 19.3299 20.572C19.0453 20.5619 18.764 20.4927 18.4939 20.3666C18.0888 20.1769 17.62 20.168 17.2071 20.3421C16.7941 20.5162 16.4738 20.8577 16.3265 21.2807C16.216 21.5966 16.0453 21.8711 15.8187 22.0966C15.4303 22.4838 14.8902 22.7015 14.3265 22.7015ZM10.8477 19.7283C11.1189 19.7283 11.3901 19.7797 11.6457 19.8846C12.1993 20.11 12.6345 20.562 12.8377 21.1245C12.9091 21.321 13.0106 21.4962 13.1412 21.6446C13.4202 21.9616 13.831 22.1524 14.2696 22.168C14.7127 22.1826 15.1401 22.0196 15.4426 21.7194C15.6111 21.552 15.7395 21.3455 15.8231 21.1067C16.0207 20.5419 16.4493 20.0844 17.0006 19.8522C17.5519 19.6201 18.1792 19.6324 18.7205 19.8857C18.9247 19.9817 19.1367 20.0341 19.3488 20.0408C20.1993 20.071 20.947 19.3745 20.9816 18.5196C20.9916 18.2629 20.937 18.0073 20.8187 17.7618C20.5586 17.2228 20.5385 16.5967 20.764 16.042C20.9894 15.4884 21.4414 15.0531 22.0039 14.85C22.7784 14.5688 23.0519 13.8913 23.0485 13.3511C23.0452 12.8109 22.765 12.1368 21.986 11.8645C21.4213 11.667 20.9637 11.2384 20.7316 10.6871C20.4994 10.1357 20.5117 9.50849 20.765 8.96721C20.8186 8.85225 20.8588 8.73395 20.8856 8.61563C21.0139 8.03192 20.7918 7.43149 20.3063 7.04755C19.8231 6.66586 19.2014 6.59889 18.6412 6.86898C18.1021 7.12902 17.476 7.14911 16.9213 6.92367C16.3677 6.69822 15.9325 6.24621 15.7293 5.68372C15.4481 4.90918 14.7706 4.63795 14.2305 4.63909C13.6903 4.64244 13.0151 4.92369 12.7439 5.70161C12.5463 6.26635 12.1177 6.72392 11.5664 6.95607C11.0151 7.18821 10.3878 7.17593 9.84655 6.92258C9.09989 6.57324 8.42803 6.85897 8.04855 7.24401C7.66906 7.62906 7.39006 8.30427 7.74832 9.04647C8.00837 9.58553 8.02845 10.2116 7.80301 10.7663C7.57756 11.3199 7.12555 11.7552 6.56307 11.9583C5.78852 12.2395 5.51507 12.917 5.51844 13.4572C5.52179 13.9974 5.80192 14.6715 6.58095 14.9438C7.14569 15.1413 7.60327 15.5699 7.83541 16.1212C8.06755 16.6726 8.05527 17.2998 7.80193 17.8411C7.57201 18.3333 7.5988 18.8746 7.87559 19.3277C8.15684 19.7875 8.65573 20.0855 9.17581 20.1034C9.43028 20.1123 9.68139 20.0565 9.92581 19.9393C10.216 19.7987 10.5318 19.7283 10.8477 19.7283Z" fill="#2B2A2A"/>
<path d="M14.2855 19.0398C11.1907 19.0398 8.67383 16.522 8.67383 13.4281C8.67383 10.3333 11.1906 7.81641 14.2855 7.81641C17.3805 7.81641 19.8973 10.3343 19.8973 13.4281C19.8973 16.523 17.3805 19.0398 14.2855 19.0398ZM14.2855 8.35012C11.4853 8.35012 9.20754 10.628 9.20754 13.4281C9.20754 16.2283 11.4855 18.5061 14.2855 18.5061C17.0856 18.5061 19.3635 16.2282 19.3635 13.4281C19.3635 10.6279 17.0856 8.35012 14.2855 8.35012Z" fill="#2B2A2A"/>
<path d="M3.8563 13.6956H1.69447C1.54715 13.6956 1.42773 13.5762 1.42773 13.4288C1.42773 13.2815 1.54715 13.1621 1.69447 13.1621H3.8563C4.00362 13.1621 4.12304 13.2815 4.12304 13.4288C4.12304 13.5762 4.00362 13.6956 3.8563 13.6956Z" fill="#2B2A2A"/>
<path d="M3.3821 19.992C3.28947 19.992 3.20018 19.944 3.15108 19.8581C3.07742 19.7309 3.12094 19.5679 3.24817 19.4943L5.12094 18.4128C5.24818 18.3391 5.41112 18.3827 5.48477 18.5099C5.55843 18.6371 5.51491 18.8001 5.38768 18.8737L3.5149 19.9552C3.47249 19.9798 3.42674 19.992 3.3821 19.992Z" fill="#2B2A2A"/>
<path d="M7.98841 24.6006C7.94265 24.6006 7.89689 24.5894 7.8556 24.5649C7.72837 24.4912 7.68484 24.3282 7.7585 24.201L8.83999 22.3283C8.91365 22.201 9.07659 22.1575 9.20381 22.2312C9.33105 22.3048 9.37457 22.4678 9.30091 22.595L8.21943 24.4678C8.17032 24.5526 8.08104 24.6006 7.98841 24.6006Z" fill="#2B2A2A"/>
<path d="M14.2843 26.2871C14.137 26.2871 14.0176 26.1677 14.0176 26.0204V23.8585C14.0176 23.7112 14.137 23.5918 14.2843 23.5918C14.4316 23.5918 14.5511 23.7112 14.5511 23.8585V26.0204C14.5511 26.1677 14.4316 26.2871 14.2843 26.2871Z" fill="#2B2A2A"/>
<path d="M20.5808 24.5997C20.4881 24.5997 20.3989 24.5517 20.3497 24.4658L19.2683 22.593C19.1946 22.4658 19.2381 22.3029 19.3654 22.2292C19.4926 22.1555 19.6555 22.1991 19.7292 22.3263L20.8107 24.1991C20.8843 24.3263 20.8408 24.4892 20.7136 24.5629C20.6712 24.5875 20.6254 24.5997 20.5808 24.5997Z" fill="#2B2A2A"/>
<path d="M25.1874 19.9914C25.1416 19.9914 25.0958 19.9803 25.0545 19.9557L23.1818 18.8742C23.0545 18.8006 23.011 18.6376 23.0847 18.5104C23.1583 18.3832 23.3213 18.3385 23.4485 18.4133L25.3213 19.4948C25.4485 19.5684 25.492 19.7314 25.4184 19.8586C25.3693 19.9434 25.28 19.9914 25.1874 19.9914Z" fill="#2B2A2A"/>
<path d="M26.8758 13.6956H24.714C24.5667 13.6956 24.4473 13.5762 24.4473 13.4288C24.4473 13.2815 24.5667 13.1621 24.714 13.1621H26.8758C27.0232 13.1621 27.1426 13.2815 27.1426 13.4288C27.1426 13.5762 27.0232 13.6956 26.8758 13.6956Z" fill="#2B2A2A"/>
<path d="M23.3157 8.48199C23.2231 8.48199 23.1338 8.434 23.0847 8.34806C23.011 8.22083 23.0545 8.05789 23.1818 7.98423L25.0545 6.90275C25.1818 6.82909 25.3458 6.87373 25.4195 7.00096C25.4931 7.12819 25.4496 7.29113 25.3224 7.36479L23.4496 8.44627C23.4072 8.47083 23.3615 8.48199 23.3157 8.48199Z" fill="#2B2A2A"/>
<path d="M19.4982 4.66552C19.4524 4.66552 19.4067 4.65435 19.3654 4.6298C19.2381 4.55614 19.1946 4.3932 19.2683 4.26597L20.3498 2.3932C20.4234 2.26597 20.5864 2.22133 20.7136 2.2961C20.8408 2.36976 20.8843 2.53271 20.8107 2.65993L19.7292 4.5327C19.6801 4.61753 19.5897 4.66552 19.4982 4.66552Z" fill="#2B2A2A"/>
<path d="M14.2843 3.26757C14.137 3.26757 14.0176 3.14815 14.0176 3.00083V0.839006C14.0176 0.691686 14.137 0.572266 14.2843 0.572266C14.4316 0.572266 14.5511 0.691686 14.5511 0.839006V3.00083C14.5511 3.14815 14.4316 3.26757 14.2843 3.26757Z" fill="#2B2A2A"/>
<path d="M9.07023 4.66418C8.9776 4.66418 8.88831 4.61619 8.83921 4.53025L7.75772 2.65748C7.68517 2.53137 7.7287 2.36731 7.85593 2.29365C7.98317 2.21999 8.14611 2.26352 8.21976 2.39075L9.30125 4.26352C9.37491 4.39075 9.33138 4.55369 9.20415 4.62735C9.16174 4.65302 9.11599 4.66418 9.07023 4.66418Z" fill="#2B2A2A"/>
<path d="M5.25264 8.48165C5.20688 8.48165 5.16112 8.47049 5.11983 8.44594L3.24705 7.36445C3.11982 7.29079 3.07518 7.12784 3.14884 7.00062C3.2225 6.87339 3.38545 6.82875 3.51267 6.90353L5.38544 7.98501C5.51267 8.05867 5.5562 8.22162 5.48254 8.34884C5.43455 8.43366 5.34416 8.48165 5.25264 8.48165Z" fill="#2B2A2A"/>
<path d="M12.9247 16.524C12.8901 16.524 12.8544 16.5218 12.8187 16.5173C12.5698 16.485 12.3555 16.3421 12.2305 16.1256L11.7662 15.3265L10.8298 13.7059C10.5408 13.2059 10.7127 12.5642 11.2115 12.2751C11.4571 12.1334 11.7394 12.0966 12.0095 12.1691C12.2796 12.2416 12.5062 12.4158 12.6457 12.6579L13.197 13.6155L14.697 12.1178C14.6982 12.1166 14.7004 12.1144 14.7026 12.1133L16.0955 10.7952C16.504 10.3901 17.1658 10.3912 17.5732 10.7986C17.9817 11.207 17.9817 11.8711 17.5732 12.2796L14.138 15.639L13.4885 16.2886C13.3367 16.4415 13.1345 16.524 12.9247 16.524ZM11.7372 12.6646C11.6479 12.6646 11.5598 12.688 11.4805 12.7338C11.2328 12.8767 11.149 13.1914 11.2908 13.4369L12.6914 15.8566C12.7339 15.9291 12.8053 15.976 12.8879 15.9871C12.9705 15.9983 13.0519 15.9704 13.1111 15.9113L13.7629 15.2595L17.198 11.8966C17.3967 11.698 17.3967 11.3721 17.1958 11.1723C16.996 10.9725 16.6701 10.9725 16.4692 11.1723C16.4681 11.1734 16.4658 11.1756 16.4636 11.1767L15.0708 12.4948L13.3263 14.2359C13.2672 14.2951 13.1846 14.323 13.1031 14.3118C13.0205 14.3007 12.948 14.2527 12.9067 14.1801L12.1823 12.9212C12.1143 12.8018 12.0027 12.717 11.8698 12.6812C11.8274 12.6701 11.7819 12.6646 11.7372 12.6646Z" fill="#2B2A2A"/>
</g>
<defs>
<clipPath id="clip0_1191_10664">
<rect width="28" height="27.1429" fill="white" transform="translate(0.570312)"/>
</clipPath>
</defs>
</svg>
