<svg width="646" height="489" viewBox="0 0 646 489" fill="none" xmlns="http://www.w3.org/2000/svg">
<path d="M668.806 282.641C668.806 282.641 675.515 174.685 563.983 102.152C452.451 29.6185 368.549 130.028 324.941 146.896C281.332 163.765 217.597 108.109 160.58 135.089C103.563 162.068 107.742 232.914 102.71 258.265C97.6785 283.617 28.0581 337.546 23.8892 370.395C19.7203 403.244 37.3072 437.029 37.3072 437.029H638.402C638.402 437.029 673.799 393.162 668.806 282.641Z" fill="#F6E8EA"/>
<path opacity="0.7" d="M668.806 282.641C668.806 282.641 675.515 174.685 563.983 102.152C452.451 29.6185 368.549 130.028 324.941 146.896C281.332 163.765 217.597 108.109 160.58 135.089C103.563 162.068 107.742 232.914 102.71 258.265C97.6785 283.617 28.0581 337.546 23.8892 370.395C19.7203 403.244 37.3072 437.029 37.3072 437.029H638.402C638.402 437.029 673.799 393.162 668.806 282.641Z" fill="white"/>
<path d="M656.115 306.812H561.297V437.01H656.115V306.812Z" fill="#263238" stroke="#263238" stroke-width="0.966313" stroke-linecap="round" stroke-linejoin="round"/>
<path d="M638.382 306.812H561.297V437.01H638.382V306.812Z" fill="white" stroke="#263238" stroke-width="0.966313" stroke-linecap="round" stroke-linejoin="round"/>
<path d="M630.314 317.43H569.633V347.178H630.314V317.43Z" fill="white" stroke="#263238" stroke-width="0.966313" stroke-linecap="round" stroke-linejoin="round"/>
<path d="M608.801 328.922H591.156V333.446H608.801V328.922Z" fill="#263238" stroke="#263238" stroke-width="0.966313" stroke-linecap="round" stroke-linejoin="round"/>
<path d="M630.314 356.594H569.633V386.342H630.314V356.594Z" fill="white" stroke="#263238" stroke-width="0.966313" stroke-linecap="round" stroke-linejoin="round"/>
<path d="M608.801 368.078H591.156V372.602H608.801V368.078Z" fill="#263238" stroke="#263238" stroke-width="0.966313" stroke-linecap="round" stroke-linejoin="round"/>
<path d="M630.314 395.742H569.633V425.491H630.314V395.742Z" fill="white" stroke="#263238" stroke-width="0.966313" stroke-linecap="round" stroke-linejoin="round"/>
<path d="M608.801 407.25H591.156V411.774H608.801V407.25Z" fill="#263238" stroke="#263238" stroke-width="0.966313" stroke-linecap="round" stroke-linejoin="round"/>
<path d="M443.955 306.812H349.137V437.01H443.955V306.812Z" fill="#263238" stroke="#263238" stroke-width="0.966313" stroke-linecap="round" stroke-linejoin="round"/>
<path d="M426.222 306.812H349.137V437.01H426.222V306.812Z" fill="white" stroke="#263238" stroke-width="0.966313" stroke-linecap="round" stroke-linejoin="round"/>
<path d="M418.146 317.43H357.465V347.178H418.146V317.43Z" fill="white" stroke="#263238" stroke-width="0.966313" stroke-linecap="round" stroke-linejoin="round"/>
<path d="M396.633 328.922H378.988V333.446H396.633V328.922Z" fill="#263238" stroke="#263238" stroke-width="0.966313" stroke-linecap="round" stroke-linejoin="round"/>
<path d="M418.146 356.594H357.465V386.342H418.146V356.594Z" fill="white" stroke="#263238" stroke-width="0.966313" stroke-linecap="round" stroke-linejoin="round"/>
<path d="M396.633 368.078H378.988V372.602H396.633V368.078Z" fill="#263238" stroke="#263238" stroke-width="0.966313" stroke-linecap="round" stroke-linejoin="round"/>
<path d="M418.146 395.742H357.465V425.491H418.146V395.742Z" fill="white" stroke="#263238" stroke-width="0.966313" stroke-linecap="round" stroke-linejoin="round"/>
<path d="M396.633 407.25H378.988V411.774H396.633V407.25Z" fill="#263238" stroke="#263238" stroke-width="0.966313" stroke-linecap="round" stroke-linejoin="round"/>
<path d="M202.435 306.812H107.617V437.01H202.435V306.812Z" fill="#263238" stroke="#263238" stroke-width="0.966313" stroke-linecap="round" stroke-linejoin="round"/>
<path d="M184.703 306.812H107.617V437.01H184.703V306.812Z" fill="white" stroke="#263238" stroke-width="0.966313" stroke-linecap="round" stroke-linejoin="round"/>
<path d="M176.635 317.43H115.953V347.178H176.635V317.43Z" fill="white" stroke="#263238" stroke-width="0.966313" stroke-linecap="round" stroke-linejoin="round"/>
<path d="M155.122 328.922H137.477V333.446H155.122V328.922Z" fill="#263238" stroke="#263238" stroke-width="0.966313" stroke-linecap="round" stroke-linejoin="round"/>
<path d="M176.635 356.594H115.953V386.342H176.635V356.594Z" fill="white" stroke="#263238" stroke-width="0.966313" stroke-linecap="round" stroke-linejoin="round"/>
<path d="M155.122 368.078H137.477V372.602H155.122V368.078Z" fill="#263238" stroke="#263238" stroke-width="0.966313" stroke-linecap="round" stroke-linejoin="round"/>
<path d="M176.635 395.742H115.953V425.491H176.635V395.742Z" fill="white" stroke="#263238" stroke-width="0.966313" stroke-linecap="round" stroke-linejoin="round"/>
<path d="M155.122 407.25H137.477V411.774H155.122V407.25Z" fill="#263238" stroke="#263238" stroke-width="0.966313" stroke-linecap="round" stroke-linejoin="round"/>
<path d="M550.179 287.84V276.969H510.778C509.832 277.018 508.941 277.43 508.289 278.12C507.637 278.811 507.273 279.726 507.273 280.679C507.273 281.631 507.637 282.547 508.289 283.237C508.941 283.928 509.832 284.34 510.778 284.389H532.902C540.581 288.491 546.582 295.176 549.859 303.275L550.16 304.016H555.56V287.84H550.179Z" fill="white" stroke="#263238" stroke-width="0.966313" stroke-linecap="round" stroke-linejoin="round"/>
<path d="M450.325 287.838V276.966H410.914C410.414 276.94 409.914 277.017 409.444 277.192C408.974 277.366 408.544 277.636 408.181 277.983C407.818 278.33 407.528 278.747 407.331 279.21C407.133 279.673 407.031 280.172 407.031 280.676C407.031 281.18 407.133 281.678 407.331 282.141C407.528 282.604 407.818 283.022 408.181 283.369C408.544 283.716 408.974 283.985 409.444 284.16C409.914 284.335 410.414 284.412 410.914 284.386H433.038C440.717 288.488 446.719 295.173 449.995 303.272L450.296 304.013H455.696V287.838H450.325Z" fill="white" stroke="#263238" stroke-width="0.966313" stroke-linecap="round" stroke-linejoin="round"/>
<path d="M416.344 276.969C415.399 277.018 414.508 277.43 413.856 278.12C413.203 278.811 412.84 279.726 412.84 280.679C412.84 281.631 413.203 282.547 413.856 283.237C414.508 283.928 415.399 284.34 416.344 284.389H438.469C446.147 288.491 452.149 295.176 455.425 303.275L455.726 304.016V276.969H416.344Z" fill="#263238" stroke="#263238" stroke-width="0.966313" stroke-linecap="round" stroke-linejoin="round"/>
<path d="M555.577 284.389H410.092C409.114 284.389 408.176 283.999 407.484 283.304C406.791 282.61 406.401 281.667 406.398 280.684C406.398 279.698 406.788 278.753 407.48 278.057C408.173 277.36 409.113 276.969 410.092 276.969H555.577V284.389Z" fill="white" stroke="#263238" stroke-width="0.966313" stroke-linecap="round" stroke-linejoin="round"/>
<path d="M516.203 276.966C515.703 276.94 515.203 277.017 514.733 277.192C514.263 277.366 513.833 277.636 513.47 277.983C513.107 278.33 512.818 278.747 512.62 279.21C512.422 279.673 512.32 280.172 512.32 280.676C512.32 281.18 512.422 281.678 512.62 282.141C512.818 282.604 513.107 283.022 513.47 283.369C513.833 283.716 514.263 283.985 514.733 284.16C515.203 284.335 515.703 284.412 516.203 284.386H538.318C545.996 288.488 551.998 295.173 555.275 303.272L555.575 304.013V276.966H516.203Z" fill="#263238" stroke="#263238" stroke-width="0.966313" stroke-linecap="round" stroke-linejoin="round"/>
<path d="M485.635 267.342C522.361 267.342 552.134 237.4 552.134 200.464C552.134 163.528 522.361 133.586 485.635 133.586C448.909 133.586 419.137 163.528 419.137 200.464C419.137 237.4 448.909 267.342 485.635 267.342Z" fill="#263238" stroke="#263238" stroke-width="0.966313" stroke-linecap="round" stroke-linejoin="round"/>
<path d="M483.065 267.342C519.791 267.342 549.564 237.4 549.564 200.464C549.564 163.528 519.791 133.586 483.065 133.586C446.339 133.586 416.566 163.528 416.566 200.464C416.566 237.4 446.339 267.342 483.065 267.342Z" fill="white" stroke="#263238" stroke-width="0.966313" stroke-linecap="round" stroke-linejoin="round"/>
<path d="M533.714 240.609H523.438V276.481H533.714V240.609Z" fill="white" stroke="#263238" stroke-width="0.966313" stroke-linecap="round" stroke-linejoin="round"/>
<path d="M533.714 240.609H523.438V250.73H533.714V240.609Z" fill="white" stroke="#263238" stroke-width="0.966313" stroke-linecap="round" stroke-linejoin="round"/>
<path d="M515.73 251.188H508.488V276.48H515.73V251.188Z" fill="white" stroke="#263238" stroke-width="0.966313" stroke-linecap="round" stroke-linejoin="round"/>
<path d="M515.73 251.188H508.488V258.325H515.73V251.188Z" fill="white" stroke="#263238" stroke-width="0.966313" stroke-linecap="round" stroke-linejoin="round"/>
<path d="M461.235 231.375L457.328 235.304" stroke="#263238" stroke-width="0.966313" stroke-linecap="round" stroke-linejoin="round"/>
<path d="M523.572 168.672L463.977 228.608" stroke="#263238" stroke-width="0.966313" stroke-linecap="round" stroke-linejoin="round"/>
<path d="M507.11 164.453L493.789 177.84" stroke="#263238" stroke-width="0.966313" stroke-linecap="round" stroke-linejoin="round"/>
<path d="M512.026 159.5L509.68 161.86" stroke="#263238" stroke-width="0.966313" stroke-linecap="round" stroke-linejoin="round"/>
<path d="M354.464 287.84V276.969H315.083C314.137 277.018 313.246 277.43 312.594 278.12C311.942 278.811 311.578 279.726 311.578 280.679C311.578 281.631 311.942 282.547 312.594 283.237C313.246 283.928 314.137 284.34 315.083 284.389H337.236C344.915 288.491 350.916 295.176 354.193 303.275L354.493 304.016H359.893V287.84H354.464Z" fill="white" stroke="#263238" stroke-width="0.966313" stroke-linecap="round" stroke-linejoin="round"/>
<path d="M254.612 287.838V276.966H215.231C214.73 276.94 214.23 277.017 213.76 277.192C213.29 277.366 212.861 277.636 212.497 277.983C212.134 278.33 211.845 278.747 211.647 279.21C211.45 279.673 211.348 280.172 211.348 280.676C211.348 281.18 211.45 281.678 211.647 282.141C211.845 282.604 212.134 283.022 212.497 283.369C212.861 283.716 213.29 283.985 213.76 284.16C214.23 284.335 214.73 284.412 215.231 284.386H237.374C245.053 288.488 251.054 295.173 254.331 303.272L254.631 304.013H260.032V287.838H254.612Z" fill="white" stroke="#263238" stroke-width="0.966313" stroke-linecap="round" stroke-linejoin="round"/>
<path d="M220.63 276.969C219.684 277.018 218.793 277.43 218.141 278.12C217.489 278.811 217.125 279.726 217.125 280.679C217.125 281.631 217.489 282.547 218.141 283.237C218.793 283.928 219.684 284.34 220.63 284.389H242.754C250.418 288.498 256.405 295.182 259.672 303.275L259.972 304.016V276.969H220.63Z" fill="#263238" stroke="#263238" stroke-width="0.966313" stroke-linecap="round" stroke-linejoin="round"/>
<path d="M359.862 284.389H214.377C213.399 284.389 212.461 283.999 211.769 283.304C211.076 282.61 210.686 281.667 210.684 280.684C210.684 279.698 211.073 278.753 211.765 278.057C212.458 277.36 213.398 276.969 214.377 276.969H359.862V284.389Z" fill="white" stroke="#263238" stroke-width="0.966313" stroke-linecap="round" stroke-linejoin="round"/>
<path d="M320.492 276.966C319.992 276.94 319.492 277.017 319.022 277.192C318.552 277.366 318.122 277.636 317.759 277.983C317.396 278.33 317.107 278.747 316.909 279.21C316.711 279.673 316.609 280.172 316.609 280.676C316.609 281.18 316.711 281.678 316.909 282.141C317.107 282.604 317.396 283.022 317.759 283.369C318.122 283.716 318.552 283.985 319.022 284.16C319.492 284.335 319.992 284.412 320.492 284.386H342.617C350.279 288.497 356.266 295.18 359.534 303.272L359.835 304.013V276.966H320.492Z" fill="#263238" stroke="#263238" stroke-width="0.966313" stroke-linecap="round" stroke-linejoin="round"/>
<path d="M289.92 267.342C326.647 267.342 356.419 237.4 356.419 200.464C356.419 163.528 326.647 133.586 289.92 133.586C253.194 133.586 223.422 163.528 223.422 200.464C223.422 237.4 253.194 267.342 289.92 267.342Z" fill="#263238" stroke="#263238" stroke-width="0.966313" stroke-linecap="round" stroke-linejoin="round"/>
<path d="M287.35 267.342C324.076 267.342 353.849 237.4 353.849 200.464C353.849 163.528 324.076 133.586 287.35 133.586C250.624 133.586 220.852 163.528 220.852 200.464C220.852 237.4 250.624 267.342 287.35 267.342Z" fill="white" stroke="#263238" stroke-width="0.966313" stroke-linecap="round" stroke-linejoin="round"/>
<path d="M309.631 155.844L285.016 180.6" stroke="#263238" stroke-width="0.966313" stroke-linecap="round" stroke-linejoin="round"/>
<path d="M318.135 147.281L313.879 151.562" stroke="#263238" stroke-width="0.966313" stroke-linecap="round" stroke-linejoin="round"/>
<path d="M278.625 171.734L269.812 180.597" stroke="#263238" stroke-width="0.966313" stroke-linecap="round" stroke-linejoin="round"/>
<path d="M285.316 165.008L280.914 169.434" stroke="#263238" stroke-width="0.966313" stroke-linecap="round" stroke-linejoin="round"/>
<path d="M337.999 240.609H327.723V276.481H337.999V240.609Z" fill="white" stroke="#263238" stroke-width="0.966313" stroke-linecap="round" stroke-linejoin="round"/>
<path d="M337.999 240.609H327.723V250.73H337.999V240.609Z" fill="white" stroke="#263238" stroke-width="0.966313" stroke-linecap="round" stroke-linejoin="round"/>
<path d="M320.016 251.188H312.773V276.48H320.016V251.188Z" fill="white" stroke="#263238" stroke-width="0.966313" stroke-linecap="round" stroke-linejoin="round"/>
<path d="M320.016 251.188H312.773V258.325H320.016V251.188Z" fill="white" stroke="#263238" stroke-width="0.966313" stroke-linecap="round" stroke-linejoin="round"/>
<path d="M617.69 110.148H592.531V169.187H617.69V110.148Z" fill="white" stroke="#263238" stroke-width="0.966313" stroke-linecap="round" stroke-linejoin="round"/>
<path d="M605.105 110.194V44.3594" stroke="#263238" stroke-width="0.966313" stroke-linecap="round" stroke-linejoin="round"/>
<path d="M399.155 110.148H373.996V169.187H399.155V110.148Z" fill="white" stroke="#263238" stroke-width="0.966313" stroke-linecap="round" stroke-linejoin="round"/>
<path d="M386.578 110.194V44.3594" stroke="#263238" stroke-width="0.966313" stroke-linecap="round" stroke-linejoin="round"/>
<path d="M177.01 110.148H151.852V169.187H177.01V110.148Z" fill="white" stroke="#263238" stroke-width="0.966313" stroke-linecap="round" stroke-linejoin="round"/>
<path d="M164.438 110.194V44.3594" stroke="#263238" stroke-width="0.966313" stroke-linecap="round" stroke-linejoin="round"/>
<path d="M179.82 358.516L213.22 406.78" stroke="#263238" stroke-width="1.93263" stroke-linecap="round" stroke-linejoin="round"/>
<path d="M212.688 406.977H227.143" stroke="#263238" stroke-width="1.93263" stroke-linecap="round" stroke-linejoin="round"/>
<path d="M187.695 359.094L226.66 406.588" stroke="#263238" stroke-width="1.93263" stroke-linecap="round" stroke-linejoin="round"/>
<path d="M140.469 373.391L106.109 389.216" stroke="#263238" stroke-width="1.93263" stroke-linecap="round" stroke-linejoin="round"/>
<path d="M150.699 357.281H144.445V427.25H150.699V357.281Z" fill="#3D3D3D" stroke="#263238" stroke-width="0.966313" stroke-linecap="round" stroke-linejoin="round"/>
<path d="M162.362 425.901L161.489 425.423C159.704 424.371 158.226 422.865 157.205 421.055C156.183 419.246 155.655 417.197 155.672 415.117V369.719H139.51V415.321C139.523 417.479 138.95 419.598 137.853 421.452C136.756 423.306 135.177 424.824 133.286 425.842L133.17 425.901C128.002 428.592 114.245 432.102 108.321 433.535C107.524 433.724 106.813 434.178 106.305 434.824C105.796 435.47 105.52 436.27 105.52 437.094H189.973C189.974 436.273 189.701 435.475 189.196 434.829C188.691 434.184 187.985 433.728 187.191 433.535C181.287 432.102 167.568 428.592 162.362 425.901Z" fill="white" stroke="#263238" stroke-width="0.966313" stroke-linecap="round" stroke-linejoin="round"/>
<path d="M132.045 428.898C130.591 429.531 129.078 430.014 127.527 430.342" stroke="#263238" stroke-width="0.966313" stroke-linecap="round" stroke-linejoin="round"/>
<path d="M143.098 373.172V413.149C143.098 419.34 139.783 424.303 134.887 427.384" stroke="#263238" stroke-width="0.966313" stroke-linecap="round" stroke-linejoin="round"/>
<path d="M152.183 373.391L127.422 389.216" stroke="#263238" stroke-width="1.93263" stroke-linecap="round" stroke-linejoin="round"/>
<path d="M107.07 388.445H127.42" stroke="#263238" stroke-width="3.86525" stroke-linecap="round" stroke-linejoin="round"/>
<path d="M136.437 316.44H188.664C189.426 316.434 190.182 316.583 190.886 316.875C191.591 317.168 192.23 317.6 192.766 318.146C193.301 318.691 193.723 319.338 194.006 320.05C194.289 320.762 194.428 321.523 194.413 322.29V322.436C194.22 327.263 194.22 355.636 193.832 357.177C193.687 357.993 193.282 358.739 192.678 359.302H97.0845C95.8404 357.488 94.9308 355.464 94.399 353.325C93.2453 349.269 83.6471 324.942 86.3424 318.224C87.3991 315.562 91.9074 316.274 91.9074 316.274L136.437 316.44Z" fill="#BDBDBD" stroke="#263238" stroke-width="0.966313" stroke-linecap="round" stroke-linejoin="round"/>
<path d="M86.3424 318.171C83.6471 324.928 93.2453 349.255 94.399 353.272C94.9308 355.411 95.8404 357.435 97.0845 359.249H139.103C139.171 359.015 139.248 358.762 139.316 358.479C140.47 354.043 140.664 327.785 140.082 322.188C139.501 316.591 136.437 316.396 136.437 316.396L91.9461 316.24C91.9461 316.24 87.3991 315.509 86.3424 318.171Z" fill="#3D3D3D" stroke="#263238" stroke-width="0.966313" stroke-linecap="round" stroke-linejoin="round"/>
<path d="M90.6761 279.953C89.5552 279.946 88.4443 280.165 87.4089 280.597C85.5184 281.406 84.0447 285.414 84.4228 287.802C84.9948 291.469 98.6261 344.043 99.9349 344.433C101.244 344.823 131.415 344.433 131.415 344.433C131.415 344.433 129.883 324.357 131.231 320.3C131.454 319.431 131.886 318.63 132.49 317.969C133.093 317.307 133.85 316.806 134.692 316.508C135.535 316.196 143.117 316.566 144.009 316.439L138.512 287.373C138.113 285.286 137.003 283.403 135.374 282.049C133.744 280.695 131.696 279.954 129.583 279.953H90.6761Z" fill="#737373" stroke="#263238" stroke-width="0.966313" stroke-linecap="round" stroke-linejoin="round"/>
<path d="M124.058 280.696C126.019 281.294 127.798 282.378 129.233 283.848C130.668 285.318 131.713 287.128 132.27 289.111L136.429 316.412C138.96 316.412 143.371 316.568 144.04 316.47L138.543 287.404C138.144 285.317 137.034 283.434 135.405 282.08C133.775 280.726 131.727 279.985 129.614 279.984H120.888H119.715L124.058 280.696Z" fill="#BDBDBD" stroke="#263238" stroke-width="0.966313" stroke-linecap="round" stroke-linejoin="round"/>
<path d="M356.129 345.575L367.288 339.393C367.71 346.344 368.682 353.25 370.196 360.045C372.504 369.512 377.487 391.519 378.835 395.761C380.182 400.002 379.601 405.998 380.561 406.769C381.52 407.539 384.981 407.149 387.085 406.193C389.189 405.238 393.62 403.268 395.539 402.518C397.459 401.767 402.064 399.592 404.362 395.956C406.66 392.319 403.79 394.795 400.717 395.38C397.643 395.965 388.821 393.645 387.085 392.455C385.35 391.266 385.36 361.761 385.941 346.511C386.523 331.262 382.674 319.483 379.989 317.358C377.303 315.232 368.083 318.128 368.083 318.128L359.144 318.927L356.129 345.575Z" fill="white" stroke="#263238" stroke-width="0.966313" stroke-linecap="round" stroke-linejoin="round"/>
<path d="M367.258 339.404L375.508 334.188" stroke="#263238" stroke-width="0.966313" stroke-linecap="round" stroke-linejoin="round"/>
<path d="M400.655 395.393C398.086 395.871 391.493 394.33 388.391 393.141C388.442 393.253 388.481 393.371 388.507 393.492C388.866 395.081 389.389 396.856 389.389 396.856C389.389 396.856 385.705 399.508 381.827 399.644C381.081 399.644 380.305 399.722 379.539 399.771C379.898 403.067 379.811 406.196 380.509 406.742C381.478 407.513 384.93 407.123 387.033 406.157C389.137 405.192 393.568 403.232 395.487 402.491C397.407 401.75 402.012 399.566 404.31 395.929C406.608 392.292 403.728 394.769 400.655 395.393Z" fill="#263238" stroke="#263238" stroke-width="0.966313" stroke-linecap="round" stroke-linejoin="round"/>
<path d="M347.102 358.5L380.501 406.765" stroke="#263238" stroke-width="1.93263" stroke-linecap="round" stroke-linejoin="round"/>
<path d="M379.977 406.961H394.422" stroke="#263238" stroke-width="1.93263" stroke-linecap="round" stroke-linejoin="round"/>
<path d="M354.973 359.086L393.937 406.58" stroke="#263238" stroke-width="1.93263" stroke-linecap="round" stroke-linejoin="round"/>
<path d="M357.854 300.586C357.854 300.586 377.147 293.517 379.183 296.15C391.787 312.531 405.36 353.482 408.2 358.504C409.74 361.364 412.075 363.712 414.919 365.261C414.919 365.261 426.631 363.135 430.276 361.79C433.921 360.444 433.185 362.17 432.215 364.296C431.246 366.421 430.102 369.512 426.262 372.018C422.343 374.484 418.157 376.493 413.785 378.005C410.333 379.165 409.907 379.74 408.792 378.005C407.677 376.269 403.799 367.191 400.347 361.595C396.896 355.998 383.226 338.428 378.243 331.671C375.017 327.241 372.117 322.581 369.565 317.728L356.4 319.882C356.4 319.882 351.707 324.68 350.747 319.278C349.787 313.876 357.854 300.586 357.854 300.586Z" fill="white" stroke="#263238" stroke-width="0.966313" stroke-linecap="round" stroke-linejoin="round"/>
<path d="M369.564 317.742C369.564 317.742 367.062 310.409 367.062 304.812" stroke="#263238" stroke-width="0.966313" stroke-linecap="round" stroke-linejoin="round"/>
<path d="M430.304 361.795C426.658 363.141 414.947 365.266 414.947 365.266C414.947 365.266 413.696 366.085 413.871 366.972L414.045 367.86C414.045 367.86 415.102 369.274 409.479 370.502C407.831 370.873 406.522 371.136 405.484 371.341C407.007 374.49 408.228 377.191 408.8 378.01C409.954 379.745 410.342 379.17 413.793 378.01C418.165 376.498 422.351 374.49 426.271 372.023C430.149 369.517 433.125 364.496 434.085 362.38C435.045 360.264 433.901 360.44 430.304 361.795Z" fill="#263238" stroke="#263238" stroke-width="0.966313" stroke-linecap="round" stroke-linejoin="round"/>
<path d="M431.933 362.89C430.359 363.699 428.893 364.705 427.57 365.884C426.312 366.869 425.123 367.941 424.012 369.092C421.733 371.393 420.328 373.333 416.808 374.942C413.667 376.366 410.749 377.116 408.703 377.945C408.706 377.971 408.706 377.997 408.703 378.023C409.857 379.759 410.245 379.183 413.696 378.023C418.068 376.511 422.254 374.503 426.174 372.036C430.052 369.53 433.028 364.509 433.988 362.393C434.318 361.75 432.66 362.588 431.933 362.89Z" fill="white" stroke="#263238" stroke-width="0.966313" stroke-linecap="round" stroke-linejoin="round"/>
<path d="M307.75 373.375L273.391 389.2" stroke="#263238" stroke-width="1.93263" stroke-linecap="round" stroke-linejoin="round"/>
<path d="M317.988 357.266H311.734V427.235H317.988V357.266Z" fill="#3D3D3D" stroke="#263238" stroke-width="0.966313" stroke-linecap="round" stroke-linejoin="round"/>
<path d="M329.649 425.885C329.339 425.729 329.048 425.563 328.767 425.407C326.983 424.354 325.506 422.847 324.485 421.038C323.464 419.229 322.934 417.181 322.95 415.101V369.703H306.788V415.306C306.8 417.463 306.227 419.583 305.13 421.437C304.034 423.29 302.455 424.808 300.564 425.826L300.447 425.885C295.28 428.576 281.523 432.086 275.599 433.52C274.806 433.714 274.101 434.17 273.596 434.815C273.092 435.461 272.817 436.258 272.816 437.078H357.28C357.279 436.258 357.005 435.461 356.5 434.815C355.996 434.17 355.29 433.714 354.497 433.52C348.564 432.086 334.807 428.576 329.649 425.885Z" fill="white" stroke="#263238" stroke-width="0.966313" stroke-linecap="round" stroke-linejoin="round"/>
<path d="M299.323 428.891C297.869 429.524 296.355 430.008 294.805 430.334" stroke="#263238" stroke-width="0.966313" stroke-linecap="round" stroke-linejoin="round"/>
<path d="M310.374 373.164V413.141C310.374 419.332 307.068 424.295 302.172 427.376" stroke="#263238" stroke-width="0.966313" stroke-linecap="round" stroke-linejoin="round"/>
<path d="M319.46 373.375L294.699 389.2" stroke="#263238" stroke-width="1.93263" stroke-linecap="round" stroke-linejoin="round"/>
<path d="M274.348 388.43H294.698" stroke="#263238" stroke-width="3.86525" stroke-linecap="round" stroke-linejoin="round"/>
<path d="M303.725 316.426H359.2C359.2 316.426 361.885 317.586 361.692 322.413C361.498 327.239 361.498 355.613 361.12 357.153C360.969 357.967 360.565 358.712 359.966 359.279H264.372C263.123 357.467 262.213 355.442 261.687 353.302C260.533 349.246 250.935 324.919 253.62 318.201C254.677 315.539 259.185 316.25 259.185 316.25L303.725 316.426Z" fill="#BDBDBD" stroke="#263238" stroke-width="0.966313" stroke-linecap="round" stroke-linejoin="round"/>
<path d="M253.62 318.16C250.935 324.917 260.533 349.244 261.687 353.261C262.213 355.401 263.123 357.427 264.372 359.238H306.381C306.459 359.004 306.527 358.751 306.604 358.468C307.748 354.032 307.942 327.774 307.37 322.177C306.798 316.58 303.725 316.385 303.725 316.385L259.185 316.19C259.185 316.19 254.677 315.498 253.62 318.16Z" fill="#3D3D3D" stroke="#263238" stroke-width="0.966313" stroke-linecap="round" stroke-linejoin="round"/>
<path d="M256.5 279.945C256.5 279.945 249.975 281.681 250.547 285.347C251.119 289.013 265.904 344.035 267.252 344.425C268.6 344.815 298.732 344.425 298.732 344.425C298.732 344.425 297.19 324.349 298.538 320.292C299.333 317.884 303.725 316.392 303.725 316.392L296.812 279.906L256.5 279.945Z" fill="#737373" stroke="#263238" stroke-width="0.966313" stroke-linecap="round" stroke-linejoin="round"/>
<path d="M310.443 196.156C310.999 198.188 311.446 200.248 311.781 202.328C312.169 205.039 310.627 208.12 311.209 209.865C311.791 211.611 316.008 214.107 315.087 215.267C314.166 216.427 312.014 218.553 312.014 218.553C312.014 218.553 311.044 225.885 309.522 227.426C308 228.966 304.529 228.011 303.569 227.816C302.609 227.621 301.068 227.241 301.068 227.241L298.576 224.315C298.576 224.315 294.698 223.925 296.085 219.294C297.471 214.663 298.576 208.871 299.536 207.125C300.453 205.636 301.481 204.218 302.609 202.884C302.609 202.884 304.907 200.368 305.683 199.598C306.458 198.828 310.443 196.156 310.443 196.156Z" fill="white" stroke="#263238" stroke-width="0.966313" stroke-linecap="round" stroke-linejoin="round"/>
<path d="M310.258 210.161C310.258 211.136 309.947 211.877 309.569 211.877C309.191 211.877 308.891 211.117 308.891 210.161C308.891 209.206 309.191 208.445 309.569 208.445C309.947 208.445 310.258 209.216 310.258 210.161Z" fill="#263238"/>
<path d="M310.907 206.007C310.907 206.007 309.482 204.125 308.367 206.982" stroke="#263238" stroke-width="0.966313" stroke-linecap="round" stroke-linejoin="round"/>
<path d="M311.453 220.989C310.977 221.127 310.473 221.136 309.993 221.014C309.513 220.892 309.073 220.645 308.719 220.297" stroke="#263238" stroke-width="0.966313" stroke-linecap="round" stroke-linejoin="round"/>
<path d="M303.298 245.583C303.298 245.583 311.364 248.508 313.09 254.076C314.816 259.643 329.979 278.783 333.624 283.034C337.27 287.286 359.927 300.41 359.927 300.41C359.927 300.41 356.854 314.06 353.974 316.81H357.426C357.426 316.81 358.008 320.291 355.322 324.727C352.636 329.164 340.149 334.185 332.471 338.046C324.792 341.907 327.672 346.548 322.107 348.479C316.542 350.41 308.485 350.215 307.137 348.664C305.79 347.114 296.773 279.943 296.773 279.943H256.5C256.5 279.943 261.299 261.798 264.944 254.846C268.59 247.894 278.382 242.492 290.287 242.492C302.193 242.492 303.298 245.583 303.298 245.583Z" fill="#F6E8EA" stroke="#263238" stroke-width="0.966313" stroke-linecap="round" stroke-linejoin="round"/>
<path d="M281.804 279.95L274.542 261.609C274.542 261.609 273.776 263.15 271.091 267.781C269.297 270.872 267.601 276.557 266.66 279.95H281.804Z" fill="white" stroke="#263238" stroke-width="0.966313" stroke-linecap="round" stroke-linejoin="round"/>
<path d="M296.426 278.582L294.895 262.562" stroke="#263238" stroke-width="0.966313" stroke-linecap="round" stroke-linejoin="round"/>
<path d="M313.32 258.898C313.32 258.898 320.029 280.135 326.37 291.133" stroke="#263238" stroke-width="0.966313" stroke-linecap="round" stroke-linejoin="round"/>
<path d="M335.391 286.117C335.391 286.117 347.868 310.834 352.095 314.881" stroke="#263238" stroke-width="0.966313" stroke-linecap="round" stroke-linejoin="round"/>
<path d="M327.333 339.789C327.333 339.789 312.024 271.059 311.055 263.727" stroke="#263238" stroke-width="0.966313" stroke-linecap="round" stroke-linejoin="round"/>
<path d="M311.405 192.686C311.405 192.686 311.017 199.434 310.057 200.399C309.098 201.364 305.452 203.685 304.686 206.191C303.92 208.697 307.944 212.948 305.258 216.809C302.573 220.67 299.112 220.709 300.459 225.496C301.807 230.284 306.218 237.47 306.606 241.331C306.994 245.192 304.299 250.399 301.613 250.984C298.927 251.569 298.152 246.733 296.426 247.318C294.7 247.903 291.249 251.218 291.579 255.04C291.707 256.792 291.963 258.533 292.345 260.247C289.965 261.198 287.42 261.659 284.86 261.602C282.29 261.587 279.724 261.392 277.181 261.017C276.609 261.017 275.068 254.845 275.068 254.845L273.924 259.672C273.924 259.672 272.382 261.622 268.349 259.672C264.316 257.722 260.865 256.005 260.68 254.845C260.496 253.685 258.741 251.559 262.018 245.768C265.295 239.976 267.205 238.63 266.817 233.414C266.674 228.966 266.865 224.514 267.389 220.095C267.389 220.095 273.148 205.04 272.77 198.088C272.392 191.136 285.626 183.999 295.069 186.505C304.512 189.01 304.851 189.79 306.005 189.595C307.159 189.4 311.783 187.665 311.405 192.686Z" fill="#263238" stroke="#263238" stroke-width="0.966313" stroke-linecap="round" stroke-linejoin="round"/>
<path d="M224.889 132C224.889 132 228.631 139.362 227.923 143.125C227.216 146.889 227.206 150.302 228.457 152.271C229.707 154.241 232.199 155.323 230.948 156.756C229.848 157.844 228.585 158.752 227.206 159.447C227.206 159.447 226.139 164.323 225.267 167.345C224.394 170.368 224.55 170.933 221.34 171.245C219.686 171.464 218.014 171.526 216.347 171.431C215.144 164.483 214.309 157.475 213.846 150.438C212.76 136.67 224.889 132 224.889 132Z" fill="white" stroke="#263238" stroke-width="0.966313" stroke-linecap="round" stroke-linejoin="round"/>
<path d="M226.246 149.211C226.246 150.43 225.935 151.415 225.548 151.415C225.16 151.415 224.84 150.44 224.84 149.211C224.84 147.983 225.16 147.008 225.548 147.008C225.935 147.008 226.246 147.993 226.246 149.211Z" fill="#263238"/>
<path d="M223.277 145.278C223.277 145.278 225.992 140.949 227.921 143.114" stroke="#263238" stroke-width="0.966313" stroke-linecap="round" stroke-linejoin="round"/>
<path d="M226.247 162.908C225.648 162.865 225.064 162.703 224.529 162.432C223.993 162.161 223.516 161.786 223.125 161.328" stroke="#263238" stroke-width="0.966313" stroke-linecap="round" stroke-linejoin="round"/>
<path d="M239.332 218.816L229.88 231.375L227.562 223.838L236.123 213.609L239.332 218.816Z" fill="white" stroke="#263238" stroke-width="0.966313" stroke-linecap="round" stroke-linejoin="round"/>
<path d="M245.577 203.93L250.424 207.157L237.375 221.549C237.141 221.808 236.854 222.012 236.534 222.147C236.214 222.281 235.868 222.343 235.52 222.329C235.173 222.314 234.834 222.222 234.526 222.06C234.218 221.899 233.949 221.671 233.739 221.393C233.424 220.969 233.257 220.451 233.266 219.922C233.275 219.392 233.458 218.881 233.788 218.468L245.577 203.93Z" fill="#263238" stroke="#263238" stroke-width="0.966313" stroke-linecap="round" stroke-linejoin="round"/>
<path d="M245.936 209.312C245.936 209.312 244.327 211.643 245.219 212.004C246.11 212.364 249.678 213.076 250.57 212.715C251.462 212.355 253.072 210.921 252.18 210.024C251.288 209.127 247.187 209.508 245.936 209.312Z" fill="white" stroke="#263238" stroke-width="0.966313" stroke-linecap="round" stroke-linejoin="round"/>
<path d="M243.076 213.609C243.076 213.609 241.476 215.94 242.368 216.3C243.26 216.661 246.828 217.383 247.72 217.022C248.612 216.661 250.211 215.228 249.32 214.331C248.428 213.434 244.327 213.795 243.076 213.609Z" fill="white" stroke="#263238" stroke-width="0.966313" stroke-linecap="round" stroke-linejoin="round"/>
<path d="M240.049 216.125C240.049 216.125 238.44 218.455 239.332 218.816C240.224 219.177 243.792 219.889 244.683 219.528C245.575 219.167 247.185 217.734 246.293 216.837C245.401 215.94 241.251 216.33 240.049 216.125Z" fill="white" stroke="#263238" stroke-width="0.966313" stroke-linecap="round" stroke-linejoin="round"/>
<path d="M238.345 219.352C238.345 219.352 237.143 221.107 237.812 221.37C238.481 221.633 241.157 222.179 241.826 221.906C242.495 221.633 243.707 220.561 243.038 219.888C242.369 219.215 239.315 219.488 238.345 219.352Z" fill="white" stroke="#263238" stroke-width="0.966313" stroke-linecap="round" stroke-linejoin="round"/>
<path d="M269.662 204.298C269.662 204.298 264.485 196.936 260.937 191.915C257.389 186.893 251.727 184.378 246.491 186.893C244.458 187.907 242.864 189.634 242.011 191.748C241.157 193.862 241.102 196.218 241.857 198.37C243.457 202.855 247.916 206.092 250.418 207.145C252.919 208.198 263.555 210.928 263.555 210.928L269.662 204.298Z" fill="#BDBDBD" stroke="#263238" stroke-width="0.966313" stroke-linecap="round" stroke-linejoin="round"/>
<path d="M235.056 217.026C235.056 217.026 243.074 210.025 243.782 207.519C244.063 206.19 244.677 204.954 245.566 203.931C246.283 202.849 247.505 199.806 245.925 197.652C244.344 195.497 243.966 200.733 242.221 202.683C240.476 204.633 237.228 206.446 235.977 207.558C234.727 208.67 233.127 212.579 233.127 212.579L231.527 218.498L228.852 221.911L235.056 217.026Z" fill="white" stroke="#263238" stroke-width="0.966313" stroke-linecap="round" stroke-linejoin="round"/>
<path d="M266.801 215.404C266.801 215.404 258.424 204.288 260.916 202.133C263.408 199.979 276.428 206.619 276.428 206.619L266.801 215.404Z" fill="#BDBDBD" stroke="#263238" stroke-width="0.966313" stroke-linecap="round" stroke-linejoin="round"/>
<path d="M192.778 245.578C192.778 245.578 184.402 263.88 184.751 276.077C185.1 288.275 191.179 301.906 192.071 304.237C192.963 306.567 197.064 327.735 196.172 336.705C195.28 345.676 189.036 348.903 185.643 358.41C182.249 367.916 177.625 396.797 177.082 403.798C176.539 410.799 174.232 429.627 173.873 431.957C173.514 434.287 173.514 436.832 175.124 436.832H202.27C202.27 436.832 204.054 436.647 203.705 435.575C203.356 434.502 199.565 432.786 196.172 429.588C192.778 426.39 186.719 422.412 186.36 419.72C186.001 417.029 188.677 405.368 191.537 398.728C193.531 394.299 195.981 390.093 198.847 386.179C198.847 386.179 212.042 362.681 215.251 342.76C218.461 322.84 224.888 290.03 224.888 290.03V248.103L192.778 245.578Z" fill="#F6E8EA" stroke="#263238" stroke-width="0.966313" stroke-linecap="round" stroke-linejoin="round"/>
<path d="M196.171 429.585C192.777 426.358 186.718 422.409 186.359 419.717C186.127 417.953 187.203 412.317 188.773 406.779L176.965 405.141C176.276 412.941 174.211 429.721 173.872 431.915C173.533 434.109 173.513 436.79 175.123 436.79H202.269C202.269 436.79 204.053 436.605 203.704 435.533C203.355 434.46 199.564 432.783 196.171 429.585Z" fill="white" stroke="#263238" stroke-width="0.966313" stroke-linecap="round" stroke-linejoin="round"/>
<path d="M196.172 429.593C193.961 427.487 190.626 425.079 188.464 422.914L187.204 426.424C187.204 426.424 178.614 425.81 174.697 425.566C174.299 428.745 173.989 431.182 173.873 431.923C173.514 434.254 173.514 436.799 175.124 436.799H202.27C202.27 436.799 204.054 436.613 203.705 435.541C203.356 434.468 199.565 432.791 196.172 429.593Z" fill="white" stroke="#263238" stroke-width="0.966313" stroke-linecap="round" stroke-linejoin="round"/>
<path d="M192.961 287.88L197.595 293.613C197.595 293.613 201.163 312.636 202.443 325.906C203.722 339.176 202.772 339.186 200.63 349.912C198.487 360.637 195.685 366.487 197.236 375.419C198.788 384.35 201.522 428.51 201.88 430.489C202.239 432.468 201.367 436.047 203.335 436.768C205.303 437.49 234.873 436.768 234.873 436.768C234.873 436.768 237.015 434.428 235.765 433.356C234.514 432.283 224.489 429.046 220.03 425.458C215.57 421.87 213.67 420.661 213.311 418.506C212.952 416.351 214.717 385.101 217.926 372.191C221.135 359.282 224.887 336.671 227.378 325.185C229.87 313.699 232.381 299.717 230.597 273.507C230.122 266.624 228.658 263.64 228.658 262.382C228.658 261.124 228.3 248.936 228.484 248.215C228.668 247.493 197.624 245.719 197.624 245.719" fill="#F6E8EA"/>
<path d="M192.961 287.88L197.595 293.613C197.595 293.613 201.163 312.636 202.443 325.906C203.722 339.176 202.772 339.186 200.63 349.912C198.487 360.637 195.685 366.487 197.236 375.419C198.788 384.35 201.522 428.51 201.88 430.489C202.239 432.468 201.367 436.047 203.335 436.768C205.303 437.49 234.873 436.768 234.873 436.768C234.873 436.768 237.015 434.428 235.765 433.356C234.514 432.283 224.489 429.046 220.03 425.458C215.57 421.87 213.67 420.661 213.311 418.506C212.952 416.351 214.717 385.101 217.926 372.191C221.135 359.282 224.887 336.671 227.378 325.185C229.87 313.699 232.381 299.717 230.597 273.507C230.122 266.624 228.658 263.64 228.658 262.382C228.658 261.124 228.3 248.936 228.484 248.215C228.668 247.493 197.624 245.719 197.624 245.719" stroke="#263238" stroke-width="0.966313" stroke-linecap="round" stroke-linejoin="round"/>
<path d="M213.467 183.659C213.467 183.659 230.773 209.849 230.773 217.025C230.773 224.202 232.712 247.515 230.24 248.597C227.768 249.679 211.868 250.391 205.798 249.67C199.729 248.948 193.321 247.72 191.711 245.721C190.102 243.722 189.326 243.147 188.609 235.61C187.892 228.073 184.227 210.259 184.052 200.186C183.878 190.114 198.13 178.638 203.123 179.711C206.713 180.615 210.185 181.94 213.467 183.659Z" fill="white" stroke="#263238" stroke-width="0.966313" stroke-linecap="round" stroke-linejoin="round"/>
<path d="M226.856 131.219C226.856 131.219 227.68 132.389 223.87 140.375C220.06 148.361 219.74 151.861 222.057 156.356C223.187 158.554 223.748 161.003 223.691 163.477C223.633 165.951 222.958 168.371 221.728 170.514C219.236 175.174 217.588 173.507 219.071 180.332C220.555 187.158 214.107 190.005 210.297 190.005C206.487 190.005 201.572 183.179 198.217 185.685C194.863 188.191 199.71 194.461 196.23 196.84C192.749 199.219 182.162 196.333 180.01 191.964C177.857 187.596 181.163 184.164 177.857 180.147C174.551 176.13 170.237 175.321 172.554 167.832C174.871 160.344 183.316 159.837 183.151 155.01C182.986 150.184 182.181 135.198 186.631 128.538C191.081 121.879 202.027 121.05 208.484 122.044C214.941 123.039 226.856 128.392 226.856 131.219Z" fill="#263238" stroke="#263238" stroke-width="0.966313" stroke-linecap="round" stroke-linejoin="round"/>
<path d="M256.811 231.473C256.333 231.477 255.865 231.338 255.466 231.074C255.067 230.81 254.755 230.432 254.569 229.99C254.383 229.547 254.332 229.059 254.422 228.587C254.513 228.115 254.74 227.681 255.076 227.339L262.124 220.075C262.575 219.621 263.185 219.364 263.823 219.359C264.461 219.355 265.075 219.604 265.531 220.052C265.988 220.499 266.251 221.11 266.263 221.752C266.275 222.393 266.035 223.013 265.595 223.478L258.547 230.742C258.32 230.974 258.05 231.158 257.752 231.284C257.454 231.409 257.134 231.474 256.811 231.473Z" fill="#BDBDBD" stroke="#263238" stroke-width="0.966313" stroke-linecap="round" stroke-linejoin="round"/>
<path d="M263.864 225.685C263.099 225.688 262.35 225.463 261.712 225.039C261.074 224.615 260.575 224.01 260.278 223.302C259.98 222.593 259.898 221.812 260.041 221.056C260.184 220.301 260.546 219.604 261.081 219.055L275.624 204.078C275.972 203.683 276.396 203.364 276.871 203.138C277.346 202.913 277.861 202.787 278.385 202.768C278.91 202.749 279.433 202.837 279.922 203.027C280.412 203.217 280.858 203.505 281.234 203.874C281.609 204.243 281.907 204.684 282.108 205.172C282.309 205.659 282.409 206.183 282.403 206.71C282.397 207.238 282.285 207.759 282.073 208.242C281.861 208.725 281.553 209.159 281.169 209.519L266.627 224.506C266.267 224.877 265.838 225.173 265.363 225.375C264.889 225.578 264.379 225.683 263.864 225.685Z" fill="#BDBDBD" stroke="#263238" stroke-width="0.966313" stroke-linecap="round" stroke-linejoin="round"/>
<path d="M265.996 214.032L272.482 218.722L274.712 217.093L271.571 213.018L275.623 215.865L279.269 211.789L274.305 208.123L280.694 210.668L274.101 205.578L265.996 214.032Z" fill="#263238"/>
<path d="M196.348 201.603C196.348 201.603 191.714 209.131 196.881 228.329C202.049 247.528 211.336 259.716 211.336 259.716L256.099 238.011C256.099 238.011 261.635 237.836 262.342 236.578C263.05 235.32 263.593 232.99 264.281 232.454C264.97 231.917 268.382 229.762 267.665 228.144C266.947 226.525 264.814 226.711 264.814 226.711L257.349 225.112C257.349 225.112 259.492 222.957 259.851 221.163C260.209 219.369 258.959 218.111 257.912 219.369C256.865 220.626 256.671 220.626 254.528 222.957C252.385 225.287 252.027 229.411 251.493 230.845C250.96 232.278 248.284 234.433 246.5 235.154C244.717 235.876 220.101 238.918 220.101 238.918C220.101 238.918 215.253 214.162 212.432 207.346C209.611 200.531 204.23 193.9 201.37 194.437C198.51 194.973 196.348 201.603 196.348 201.603Z" fill="white" stroke="#263238" stroke-width="0.966313" stroke-linecap="round" stroke-linejoin="round"/>
<path d="M220.031 425.458C215.571 421.87 213.671 420.661 213.312 418.506C213.186 417.745 213.312 413.289 213.71 407.312H200.137C200.99 419.013 201.688 429.543 201.862 430.489C202.211 432.439 201.349 436.047 203.317 436.768C205.285 437.49 234.855 436.768 234.855 436.768C234.855 436.768 236.997 434.428 235.747 433.356C234.496 432.283 224.491 429.046 220.031 425.458Z" fill="white" stroke="#263238" stroke-width="0.966313" stroke-linecap="round" stroke-linejoin="round"/>
<path d="M234.874 436.774C234.874 436.774 237.017 434.434 235.766 433.361C234.516 432.289 224.491 429.052 220.031 425.464C218.315 424.079 216.977 423.055 215.969 422.188C215.862 422.461 215.746 422.763 215.62 423.163C214.844 425.483 214.272 427.609 214.272 427.609L201.504 426.673C201.669 428.798 201.785 430.183 201.843 430.495C202.192 432.445 201.329 436.053 203.298 436.774C205.266 437.496 234.874 436.774 234.874 436.774Z" fill="white" stroke="#263238" stroke-width="0.966313" stroke-linecap="round" stroke-linejoin="round"/>
<path d="M32.4189 343.095C34.1446 343.856 38.3523 343.758 38.362 343.758C38.3716 343.758 37.4506 340.989 37.3924 340.833C36.4229 338.883 33.5144 335.685 31.1682 336.007C30.7743 336.07 30.3982 336.217 30.0645 336.437C29.7308 336.657 29.4472 336.945 29.232 337.283C29.0169 337.621 28.8752 338 28.8163 338.397C28.7573 338.794 28.7824 339.199 28.8899 339.585C29.268 341.145 30.9549 342.413 32.4189 343.095Z" fill="#263238"/>
<path d="M33.8732 355.33C35.6571 355.594 39.4188 354.492 39.6903 354.404C40.3101 356.568 41.0712 358.688 41.9686 360.752C42.4922 361.961 43.0448 363.15 43.6265 364.349C43.2775 363.842 42.9672 363.374 42.9188 363.374C41.513 361.746 37.8579 359.425 35.6474 360.362C35.2837 360.528 34.9591 360.77 34.6947 361.072C34.4303 361.373 34.2322 361.727 34.1132 362.111C33.9942 362.495 33.9572 362.899 34.0043 363.299C34.0515 363.698 34.182 364.082 34.3871 364.427C35.2015 365.919 37.1599 366.651 38.7402 366.885C40.3205 367.119 43.5877 366.251 44.4215 366.007L45.0904 367.382C46.186 369.556 47.2815 371.73 48.2898 373.895C48.6485 374.656 48.9685 375.416 49.2593 376.177C48.9491 375.728 48.6873 375.358 48.6389 375.299C47.2428 373.671 43.578 371.35 41.3675 372.296C41.0052 372.463 40.6818 372.704 40.4183 373.005C40.1549 373.306 39.9573 373.659 39.8384 374.042C39.7195 374.424 39.682 374.828 39.7284 375.226C39.7747 375.624 39.9037 376.008 40.1072 376.352C40.9313 377.844 42.88 378.585 44.4603 378.819C46.0406 379.053 48.9782 378.263 49.9962 377.981C50.3064 378.78 50.6166 379.57 50.8784 380.35C51.0529 380.886 51.2468 381.393 51.3923 381.939C51.5377 382.485 51.6928 383.012 51.8382 383.548C52.0806 384.582 52.3424 385.644 52.5557 386.649C52.7108 387.351 52.8465 388.023 52.9823 388.706C52.6429 387.945 51.9255 386.463 51.8576 386.346C50.7136 384.523 47.4464 381.666 45.1195 382.271C44.7364 382.38 44.3805 382.569 44.0749 382.825C43.7694 383.082 43.5211 383.401 43.3464 383.761C43.1716 384.12 43.0743 384.513 43.0608 384.913C43.0472 385.314 43.1178 385.712 43.2678 386.083C43.8495 387.682 45.6625 388.716 47.1458 389.184C48.8328 389.7 52.5654 389.184 53.0307 389.184C53.2537 390.305 53.467 391.397 53.6415 392.431C54.039 394.722 54.3396 396.76 54.611 398.495H56.1816C55.9102 396.701 55.5514 394.595 55.0764 392.177C54.8534 391.036 54.5916 389.817 54.3202 388.579C55.4674 388.107 56.5874 387.569 57.6747 386.97C59.123 388.219 60.7344 389.262 62.464 390.071C62.0278 391.124 61.6012 392.158 61.1843 393.113C60.3117 395.131 59.4876 396.916 58.7605 398.437H60.4572C61.0873 397.033 61.7757 395.443 62.4931 393.669C62.9391 392.596 63.3851 391.446 63.831 390.247C64.2867 390.344 67.9805 391.105 69.6481 390.705C71.209 390.354 73.0995 389.466 73.8073 387.916C73.9825 387.556 74.0808 387.163 74.0957 386.763C74.1106 386.362 74.0418 385.963 73.8938 385.591C73.7458 385.219 73.5218 384.882 73.2364 384.602C72.951 384.323 72.6104 384.106 72.2367 383.967C69.9583 383.197 66.4875 385.791 65.2174 387.526C65.1399 387.633 64.4515 388.833 64.0249 389.603C64.2092 389.115 64.3837 388.628 64.5679 388.131C64.9363 387.156 65.2659 386.132 65.6246 385.059C65.7798 384.533 65.9446 383.997 66.0997 383.46C66.2548 382.924 66.3809 382.349 66.5263 381.783C66.8365 380.477 67.0886 379.141 67.3116 377.785C68.1744 378.107 71.2769 379.19 72.8766 379.073C74.4763 378.956 76.4831 378.371 77.4042 376.947C77.6313 376.617 77.7871 376.243 77.8614 375.849C77.9357 375.454 77.9269 375.049 77.8355 374.658C77.7442 374.268 77.5722 373.901 77.3309 373.581C77.0896 373.262 76.7843 372.996 76.4347 372.803C74.3017 371.692 70.4722 373.778 68.9501 375.26C68.8628 375.348 67.8933 376.567 67.3698 377.21C67.4958 376.401 67.6315 375.582 67.7285 374.753C68.029 372.364 68.252 369.927 68.4847 367.509L68.7174 365.285C69.0276 365.402 72.673 366.768 74.4763 366.641C76.0759 366.524 78.0731 365.939 79.0039 364.505C79.2324 364.177 79.3893 363.803 79.4644 363.41C79.5394 363.016 79.5309 362.61 79.4394 362.22C79.3478 361.83 79.1754 361.463 78.9332 361.145C78.6911 360.826 78.3848 360.563 78.0343 360.371C75.9014 359.26 72.0816 361.298 70.5594 362.819C70.4431 362.936 69.0567 364.681 68.7174 365.149C68.8919 363.521 69.0761 361.892 69.3282 360.274C69.6523 358.12 70.1154 355.99 70.7146 353.897C70.8503 353.946 74.6605 355.399 76.5316 355.262C78.1216 355.155 80.1285 354.56 81.0495 353.136C81.2782 352.807 81.4352 352.433 81.5104 352.038C81.5855 351.644 81.5771 351.238 81.4856 350.847C81.3941 350.456 81.2216 350.088 80.9794 349.769C80.7372 349.449 80.4307 349.185 80.08 348.993C77.9471 347.891 74.1175 349.968 72.6051 351.45C72.4791 351.567 70.986 353.448 70.7436 353.809C70.7436 353.692 70.8018 353.556 70.8406 353.439C71.4969 351.356 72.3372 349.336 73.3516 347.403C73.8945 346.331 74.4762 345.336 75.0676 344.381C75.7463 344.722 78.8778 346.253 80.5454 346.331C82.2129 346.409 84.2004 346.028 85.2766 344.712C85.5386 344.41 85.7348 344.057 85.8527 343.674C85.9705 343.292 86.0073 342.889 85.9608 342.491C85.9142 342.093 85.7852 341.71 85.5822 341.365C85.3792 341.02 85.1067 340.722 84.7821 340.49C82.7752 339.154 78.7518 340.753 77.0842 342.099C76.9873 342.177 76.1147 343.074 75.533 343.649C75.8045 343.22 76.0856 342.772 76.3474 342.372C77.3169 340.851 78.364 339.515 79.2559 338.345C79.7698 337.682 80.2254 337.097 80.7199 336.551C81.5634 336.551 84.9566 336.434 86.44 335.732C87.9233 335.03 89.5424 333.782 89.9011 332.105C89.9974 331.715 90.0109 331.31 89.9409 330.915C89.8709 330.52 89.7189 330.144 89.4948 329.812C89.2707 329.48 88.9795 329.199 88.6403 328.987C88.301 328.776 87.9213 328.639 87.5258 328.585C85.1311 328.331 82.3002 331.617 81.4276 333.587C81.3501 333.753 80.4581 336.512 80.526 336.512C80.0703 337.029 79.5565 337.585 79.0814 338.209C78.1119 339.359 77.1424 340.675 76.0662 342.177C74.9272 343.785 73.8816 345.459 72.9347 347.189C71.8699 349.125 70.9745 351.151 70.2589 353.244C70.2589 353.244 70.2589 353.292 70.2589 353.322C70.2589 352.61 70.2589 350.64 70.2589 350.484C69.9874 348.349 68.2035 344.381 65.8379 343.942C65.4448 343.88 65.0431 343.902 64.6591 344.006C64.275 344.111 63.9171 344.296 63.6088 344.549C63.3005 344.802 63.0487 345.117 62.8698 345.475C62.691 345.832 62.589 346.223 62.5707 346.623C62.4253 348.33 63.6565 350.026 64.849 351.099C66.1967 352.308 69.9293 353.478 70.2298 353.575C69.5554 355.721 69.0274 357.91 68.6495 360.128C68.4168 361.424 68.2326 362.731 68.0581 364.028C68.0581 363.423 68.0581 362.877 68.0581 362.799C67.7866 360.664 66.0027 356.695 63.6468 356.257C63.253 356.193 62.8503 356.214 62.465 356.318C62.0798 356.421 61.7207 356.606 61.4113 356.859C61.1019 357.112 60.8492 357.428 60.6697 357.787C60.4902 358.145 60.3881 358.537 60.3699 358.938C60.2342 360.635 61.4557 362.341 62.6482 363.413C63.8407 364.486 67.0304 365.559 67.8642 365.832C67.806 366.339 67.7382 366.807 67.68 367.343C67.3891 369.771 67.1177 372.218 66.7687 374.548C66.6523 375.387 66.4972 376.196 66.3518 377.015C66.3518 376.469 66.3518 376.04 66.3518 375.943C66.0803 373.807 64.2964 369.839 61.9405 369.4C61.5461 369.338 61.1432 369.36 60.7579 369.465C60.3727 369.57 60.0137 369.756 59.7045 370.01C59.3953 370.264 59.1428 370.58 58.9635 370.939C58.7841 371.298 58.6819 371.69 58.6636 372.091C58.5181 373.788 59.7494 375.484 60.9419 376.557C62.1344 377.63 65.0138 378.605 66.0124 378.926C65.8379 379.765 65.6634 380.594 65.4501 381.393C65.3047 381.939 65.1884 382.466 65.0042 383.002C64.8199 383.538 64.6648 384.065 64.5 384.591C64.1316 385.566 63.7729 386.619 63.3948 387.585C63.133 388.257 62.8809 388.891 62.6192 389.535C62.7549 388.706 62.9779 387.078 62.9779 386.941C62.949 385.043 62.4384 383.184 61.4945 381.539C61.5186 381.332 61.5186 381.123 61.4945 380.915C61.4333 380.525 61.2923 380.152 61.0802 379.819C60.8682 379.486 60.5898 379.201 60.2627 378.982C59.9356 378.763 59.5668 378.615 59.1798 378.546C58.7927 378.478 58.3957 378.491 58.014 378.585C55.6969 379.209 54.2232 383.304 54.136 385.459C54.136 385.586 54.2135 386.97 54.2717 387.838C54.1554 387.331 54.0487 386.863 53.9227 386.317C53.6803 385.284 53.4088 384.27 53.118 383.168C52.9629 382.641 52.798 382.105 52.6429 381.569C52.4878 381.032 52.2648 380.486 52.0806 379.94C51.6249 378.673 51.1111 377.415 50.5391 376.167C51.431 375.952 54.611 375.133 55.8908 374.149C57.1705 373.164 58.5084 371.565 58.4891 369.858C58.4998 369.458 58.4267 369.06 58.2744 368.689C58.1222 368.319 57.8942 367.985 57.6052 367.709C57.3163 367.434 56.973 367.222 56.5974 367.088C56.2219 366.954 55.8226 366.902 55.4254 366.933C53.0404 367.197 50.9657 371.019 50.5779 373.135C50.5779 373.261 50.4034 374.812 50.3452 375.67C50.0059 374.919 49.6665 374.168 49.2981 373.417C48.2317 371.253 47.0876 369.108 45.9533 366.953L44.9256 365.003C45.2456 364.925 49.0364 364.028 50.4712 362.936C51.7413 361.961 53.0889 360.352 53.0695 358.645C53.0803 358.245 53.0071 357.847 52.8549 357.476C52.7026 357.106 52.4746 356.772 52.1857 356.496C51.8968 356.221 51.5534 356.009 51.1779 355.875C50.8023 355.741 50.403 355.689 50.0059 355.72C47.6209 355.984 45.5461 359.806 45.1583 361.922C45.1583 362.078 44.9256 364.31 44.8966 364.847C44.15 363.394 43.4132 361.922 42.7442 360.469C41.8349 358.493 41.0513 356.461 40.398 354.385C40.5532 354.385 44.5184 353.409 45.9824 352.317C47.2525 351.342 48.6001 349.734 48.5807 348.027C48.5914 347.627 48.5183 347.228 48.366 346.858C48.2138 346.488 47.9858 346.154 47.6969 345.878C47.408 345.602 47.0646 345.391 46.689 345.257C46.3135 345.123 45.9142 345.071 45.517 345.102C43.132 345.365 41.0573 349.188 40.6695 351.303C40.6695 351.469 40.4174 353.868 40.4077 354.307C40.4077 354.18 40.3205 354.063 40.2914 353.936C39.6983 351.834 39.2896 349.684 39.0698 347.51C38.9341 346.321 38.8759 345.161 38.8468 344.039C39.603 343.942 43.0545 343.484 44.4797 342.616C45.9048 341.748 47.3882 340.334 47.5336 338.638C47.5882 338.241 47.5592 337.837 47.4484 337.452C47.3377 337.067 47.1477 336.71 46.8907 336.404C46.6338 336.098 46.3157 335.849 45.9571 335.675C45.5986 335.5 45.2075 335.403 44.8093 335.391C42.4049 335.391 39.9617 338.959 39.2734 341.017C39.2734 341.124 38.9922 342.294 38.8274 343.152C38.8274 342.645 38.8274 342.128 38.8274 341.641C38.8274 339.817 38.9438 338.14 39.0601 336.658C39.128 335.82 39.2055 335.059 39.2928 334.357C39.9908 333.87 42.7636 331.9 43.6168 330.457C44.47 329.014 45.1292 327.093 44.5087 325.514C44.3748 325.14 44.1648 324.798 43.8921 324.51C43.6194 324.223 43.29 323.996 42.9251 323.843C42.5601 323.691 42.1675 323.617 41.7724 323.626C41.3774 323.635 40.9885 323.726 40.6307 323.895C38.4978 325.007 37.9355 329.326 38.2845 331.452C38.2845 331.627 39.128 334.445 39.1571 334.377C39.0601 335.059 38.9729 335.79 38.8856 336.59C38.7402 338.072 38.585 339.739 38.5463 341.573C38.4781 343.546 38.5234 345.522 38.682 347.491C38.8485 349.698 39.2152 351.884 39.7775 354.024C39.7732 354.05 39.7732 354.076 39.7775 354.102C39.3994 353.507 38.2845 351.869 38.1875 351.752C36.7915 350.124 33.1267 347.803 30.9162 348.749C30.5539 348.916 30.2305 349.157 29.967 349.458C29.7036 349.759 29.506 350.112 29.3871 350.494C29.2682 350.877 29.2307 351.28 29.2771 351.678C29.3234 352.077 29.4524 352.46 29.6559 352.805C30.3345 354.355 32.2929 355.096 33.8732 355.33Z" fill="#263238"/>
<path d="M75.0394 343.993C75.0394 343.993 75.8054 341.175 75.8247 340.99C76.1253 338.855 75.4466 334.555 73.2846 333.502C72.9198 333.337 72.5245 333.251 72.1245 333.25C71.7245 333.249 71.3288 333.332 70.963 333.495C70.5972 333.658 70.2696 333.896 70.0015 334.195C69.7333 334.493 69.5306 334.845 69.4066 335.228C68.8346 336.827 69.5617 338.796 70.4343 340.103C71.4619 341.731 75.0297 343.993 75.0394 343.993Z" fill="#263238"/>
<path d="M70.3548 395.422H44.4883L47.0769 437.017H67.7759L70.3548 395.422Z" fill="#263238"/>
<path d="M710.018 437.016H19.6992" stroke="#263238" stroke-width="0.966313" stroke-linecap="round" stroke-linejoin="round"/>
</svg>
