<svg width="35" height="35" viewBox="0 0 35 35" fill="none" xmlns="http://www.w3.org/2000/svg">
<path fill-rule="evenodd" clip-rule="evenodd" d="M15.6595 6.14244L13.5463 6.56507C13.5463 5.17249 13.8401 3.7947 14.4075 2.52257L14.4476 2.43276C14.461 2.40277 14.4828 2.37729 14.5104 2.35942C14.5379 2.34154 14.5701 2.33203 14.6029 2.33203C14.6358 2.33203 14.6679 2.34154 14.6955 2.35942C14.7231 2.37729 14.7448 2.40277 14.7582 2.43276L14.9696 2.90822C15.4239 3.92572 15.6595 5.02774 15.6595 6.14244ZM11.4332 15.0178C11.4332 12.482 8.61525 9.73483 7.20682 8.67825L21.999 6.56507L22.054 6.58303C23.1338 6.94227 25.3949 7.69245 26.2254 11.848C26.8593 15.0178 25.1688 18.8923 24.1122 19.2441L7.20682 22.4139C8.61525 21.3573 11.4332 18.1875 11.4332 15.0178ZM3.86378 25.4357C3.61688 25.4768 3.39258 25.6041 3.23081 25.7951C3.06905 25.9861 2.98033 26.2283 2.98047 26.4786V27.6968C2.98047 28.8177 3.42574 29.8927 4.21834 30.6853C5.01093 31.4779 6.08592 31.9232 7.20682 31.9232H19.8859C26.8879 31.9232 32.5649 26.2472 32.5649 19.2441V17.1309L31.5083 15.0178C31.7886 15.0178 32.0573 14.9065 32.2554 14.7083C32.4536 14.5102 32.5649 14.2414 32.5649 13.9612C32.5649 13.681 32.4536 13.4122 32.2554 13.2141C32.0573 13.0159 31.7886 12.9046 31.5083 12.9046H31.3784C30.8342 12.9046 30.3588 13.2744 30.2267 13.8027L29.6825 15.9814C29.283 17.5788 28.4256 19.0247 27.2157 20.1415C26.0058 21.2583 24.496 21.9974 22.8718 22.2681L3.86378 25.4368V25.4357Z" fill="url(#paint0_linear_1193_23740)"/>
<defs>
<linearGradient id="paint0_linear_1193_23740" x1="32.5649" y1="2.33238" x2="2.97413" y2="31.9168" gradientUnits="userSpaceOnUse">
<stop stop-color="#6542BF"/>
<stop offset="1" stop-color="#717CE1"/>
</linearGradient>
</defs>
</svg>
