<svg width="35" height="35" viewBox="0 0 35 35" fill="none" xmlns="http://www.w3.org/2000/svg">
<path d="M22.2999 11.7242C22.2999 14.577 20.1382 16.8899 17.4703 16.8899C14.8024 16.8899 12.6406 14.576 12.6406 11.7232C12.6406 8.87146 14.8024 6.55859 17.4703 6.55859C20.1382 6.55859 22.2999 8.87146 22.2999 11.7242Z" fill="url(#paint0_linear_1193_23723)"/>
<path d="M7.80859 25.4931C7.80859 23.4116 8.97718 21.5224 10.8304 20.8832C12.8105 20.2006 15.4055 19.4727 17.469 19.4727C19.5325 19.4727 22.1285 20.2006 24.1075 20.8832C25.9608 21.5224 27.1293 23.4116 27.1293 25.4941V27.2217C27.1293 28.6481 26.0474 29.804 24.714 29.804H10.224C8.88948 29.804 7.80859 28.6481 7.80859 27.2217V25.4931Z" fill="url(#paint1_linear_1193_23723)"/>
<path fill-rule="evenodd" clip-rule="evenodd" d="M10.3537 10.2574C10.2692 10.7329 10.2248 11.2232 10.2248 11.724C10.2248 12.9021 10.471 14.0189 10.9116 15.0195C10.2756 16.1395 9.12493 16.8896 7.80948 16.8896C5.80936 16.8896 4.1875 15.1547 4.1875 13.0151C4.1875 10.8755 5.80936 9.14062 7.80948 9.14062C8.80162 9.14062 9.70077 9.56749 10.3537 10.2574Z" fill="url(#paint2_linear_1193_23723)"/>
<path d="M5.39607 27.2208V25.4922C5.39607 23.1497 6.39982 20.8834 8.16644 19.4802C8.0482 19.4741 7.92982 19.471 7.81143 19.4707C6.26353 19.4707 4.31729 20.017 2.83279 20.5283C1.44232 21.0091 0.566406 22.426 0.566406 23.9876V25.283C0.566406 26.3533 1.37787 27.2208 2.3774 27.2208H5.39607Z" fill="url(#paint3_linear_1193_23723)"/>
<path fill-rule="evenodd" clip-rule="evenodd" d="M24.5948 10.2574C24.8809 11.8649 24.6876 13.5211 24.0391 15.0195C24.673 16.1395 25.8236 16.8896 27.137 16.8896C29.136 16.8896 30.7568 15.1547 30.7568 13.0151C30.7568 10.8755 29.136 9.14062 27.137 9.14062C26.147 9.14062 25.2489 9.56749 24.5948 10.2574Z" fill="url(#paint4_linear_1193_23723)"/>
<path d="M29.5495 27.2208V25.4922C29.5495 23.1497 28.5479 20.8834 26.7812 19.4802C26.9017 19.4739 27.02 19.4707 27.1363 19.4707C28.6831 19.4707 30.6272 20.017 32.1107 20.5283C33.5001 21.008 34.3749 22.4249 34.3749 23.9866V25.2819C34.3749 26.3523 33.5645 27.2197 32.565 27.2197L29.5495 27.2208Z" fill="url(#paint5_linear_1193_23723)"/>
<defs>
<linearGradient id="paint0_linear_1193_23723" x1="34.3757" y1="6.55859" x2="12.6723" y2="38.1273" gradientUnits="userSpaceOnUse">
<stop stop-color="#6542BF"/>
<stop offset="1" stop-color="#717CE1"/>
</linearGradient>
<linearGradient id="paint1_linear_1193_23723" x1="34.3744" y1="6.55905" x2="12.671" y2="38.1278" gradientUnits="userSpaceOnUse">
<stop stop-color="#6542BF"/>
<stop offset="1" stop-color="#717CE1"/>
</linearGradient>
<linearGradient id="paint2_linear_1193_23723" x1="34.3753" y1="6.55833" x2="12.6719" y2="38.127" gradientUnits="userSpaceOnUse">
<stop stop-color="#6542BF"/>
<stop offset="1" stop-color="#717CE1"/>
</linearGradient>
<linearGradient id="paint3_linear_1193_23723" x1="34.3772" y1="6.55815" x2="12.6738" y2="38.1269" gradientUnits="userSpaceOnUse">
<stop stop-color="#6542BF"/>
<stop offset="1" stop-color="#717CE1"/>
</linearGradient>
<linearGradient id="paint4_linear_1193_23723" x1="34.3757" y1="6.55833" x2="12.6723" y2="38.127" gradientUnits="userSpaceOnUse">
<stop stop-color="#6542BF"/>
<stop offset="1" stop-color="#717CE1"/>
</linearGradient>
<linearGradient id="paint5_linear_1193_23723" x1="34.3749" y1="6.55815" x2="12.6716" y2="38.1269" gradientUnits="userSpaceOnUse">
<stop stop-color="#6542BF"/>
<stop offset="1" stop-color="#717CE1"/>
</linearGradient>
</defs>
</svg>
