<svg width="35" height="34" viewBox="0 0 35 34" fill="none" xmlns="http://www.w3.org/2000/svg">
<path d="M22.0009 27.6042C22.0009 28.7251 21.5557 29.8001 20.7631 30.5927C19.9705 31.3853 18.8955 31.8305 17.7746 31.8305C16.6537 31.8305 15.5787 31.3853 14.7861 30.5927C13.9935 29.8001 13.5482 28.7251 13.5482 27.6042H22.0009ZM17.7471 2.24609C23.6217 2.24609 28.3827 7.00813 28.3827 12.8817C28.3827 15.5126 27.4075 18.0516 25.6451 20.0052L23.0015 22.9351C22.3694 23.6363 22.0197 24.547 22.02 25.491H13.5757C13.5755 24.5163 13.2189 23.5753 12.573 22.8453L9.85336 19.7707C5.99576 15.4112 6.4036 8.74939 10.7631 4.89179C12.6902 3.18706 15.1742 2.24605 17.7471 2.24609Z" fill="url(#paint0_linear_1193_23717)"/>
<defs>
<linearGradient id="paint0_linear_1193_23717" x1="28.3827" y1="2.24609" x2="0.378941" y2="22.2917" gradientUnits="userSpaceOnUse">
<stop stop-color="#6542BF"/>
<stop offset="1" stop-color="#717CE1"/>
</linearGradient>
</defs>
</svg>
