<svg width="35" height="35" viewBox="0 0 35 35" fill="none" xmlns="http://www.w3.org/2000/svg">
<path d="M9.77749 3.01832L31.4967 24.7375C31.6948 24.9357 31.8061 25.2044 31.8061 25.4845C31.8061 25.7647 31.6948 26.0334 31.4967 26.2315L26.3585 31.3697C26.1604 31.5678 25.8917 31.6791 25.6115 31.6791C25.3313 31.6791 25.0626 31.5678 24.8645 31.3697L21.4306 27.9358L23.8956 25.4719L24.053 25.2922C24.3217 24.9371 24.4456 24.4933 24.3999 24.0503C24.3542 23.6073 24.1421 23.1982 23.8066 22.9054C23.4711 22.6126 23.037 22.458 22.5919 22.4727C22.1468 22.4874 21.7239 22.6704 21.4084 22.9847L18.9434 25.4486L16.7393 23.2446L19.2054 20.7827L19.3639 20.602C19.6326 20.2468 19.7566 19.8028 19.7107 19.3597C19.6649 18.9167 19.4527 18.5075 19.1169 18.2148C18.7811 17.922 18.3468 17.7676 17.9016 17.7826C17.4565 17.7976 17.0335 17.9809 16.7182 18.2955L14.2521 20.7574L12.0502 18.5554L14.5163 16.0925L14.6727 15.9129C14.9397 15.5577 15.0624 15.1147 15.0161 14.6727C14.9699 14.2308 14.7581 13.8227 14.4233 13.5305C14.0886 13.2383 13.6556 13.0836 13.2115 13.0975C12.7674 13.1113 12.3449 13.2928 12.0291 13.6053L9.563 16.0682L7.36108 13.8663L9.82609 11.4023L9.98353 11.2227C10.2522 10.8676 10.3761 10.4237 10.3304 9.98078C10.2846 9.53782 10.0726 9.12868 9.73708 8.83591C9.40154 8.54313 8.96745 8.3885 8.52238 8.4032C8.07731 8.4179 7.65437 8.60085 7.33889 8.91513L4.87387 11.3791L3.14529 9.65052C2.94721 9.45238 2.83594 9.18368 2.83594 8.90351C2.83594 8.62334 2.94721 8.35464 3.14529 8.1565L8.28348 3.01832C8.48162 2.82024 8.75031 2.70896 9.03048 2.70896C9.31065 2.70896 9.57935 2.82024 9.77749 3.01832ZM9.37176 20.8503L14.4539 25.9325L11.6952 28.7726C10.3449 30.123 4.83266 31.6508 3.8606 31.3887L3.76234 31.3465C3.18122 30.9312 5.40533 25.1697 6.82644 23.4865L6.98704 23.3111L9.37176 20.8503ZM31.4122 3.38707C32.0452 4.02008 32.4199 4.86611 32.4633 5.76031C32.5067 6.65451 32.2156 7.53282 31.6467 8.22412L31.4132 8.48193L25.8926 14.16L20.8019 9.07151L26.3184 3.38707C26.994 2.71153 27.9104 2.33203 28.8658 2.33203C29.8212 2.33203 30.7376 2.71153 31.4132 3.38707H31.4122Z" fill="url(#paint0_linear_1193_23734)"/>
<defs>
<linearGradient id="paint0_linear_1193_23734" x1="32.4677" y1="2.33259" x2="3.1231" y2="31.9635" gradientUnits="userSpaceOnUse">
<stop stop-color="#6542BF"/>
<stop offset="1" stop-color="#717CE1"/>
</linearGradient>
</defs>
</svg>
