<svg width="35" height="34" viewBox="0 0 35 34" fill="none" xmlns="http://www.w3.org/2000/svg">
<path d="M11.2886 2.2461C6.62063 2.2461 2.83594 6.04558 2.83594 10.7337C2.83594 18.5619 10.8903 26.9671 15.1124 30.8363C15.7954 31.4729 16.6944 31.827 17.6282 31.827C18.5619 31.827 19.4609 31.4729 20.1439 30.8363C24.366 26.9671 32.4204 18.5619 32.4204 10.7337C32.4204 6.04558 28.6357 2.2461 23.9677 2.2461C22.7672 2.24537 21.5804 2.50144 20.487 2.99712C19.3936 3.4928 18.4188 4.21662 17.6282 5.12001C16.8375 4.21662 15.8628 3.4928 14.7694 2.99712C13.6759 2.50144 12.4892 2.24537 11.2886 2.2461Z" fill="url(#paint0_linear_1193_23711)"/>
<defs>
<linearGradient id="paint0_linear_1193_23711" x1="32.4204" y1="2.24609" x2="2.84016" y2="31.8305" gradientUnits="userSpaceOnUse">
<stop stop-color="#6542BF"/>
<stop offset="1" stop-color="#717CE1"/>
</linearGradient>
</defs>
</svg>
