<svg width="25" height="25" viewBox="0 0 25 25" fill="none" xmlns="http://www.w3.org/2000/svg">
<path d="M2.53223 3.14844H20.5322" stroke="#3737B5" stroke-width="1.5" stroke-linecap="round" stroke-linejoin="round"/>
<path d="M7.03223 3.14844V16.1484" stroke="#3737B5" stroke-width="1.5" stroke-linecap="round" stroke-linejoin="round"/>
<path d="M12.0322 3.14844V16.1484" stroke="#3737B5" stroke-width="1.5" stroke-linecap="round" stroke-linejoin="round"/>
<path d="M7.03223 21.1484C8.41294 21.1484 9.53223 20.0291 9.53223 18.6484C9.53223 17.2677 8.41294 16.1484 7.03223 16.1484C5.65151 16.1484 4.53223 17.2677 4.53223 18.6484C4.53223 20.0291 5.65151 21.1484 7.03223 21.1484Z" stroke="#3737B5" stroke-width="1.5" stroke-linecap="round" stroke-linejoin="round"/>
<path d="M12.0322 21.1484C13.4129 21.1484 14.5322 20.0291 14.5322 18.6484C14.5322 17.2677 13.4129 16.1484 12.0322 16.1484C10.6515 16.1484 9.53223 17.2677 9.53223 18.6484C9.53223 20.0291 10.6515 21.1484 12.0322 21.1484Z" stroke="#3737B5" stroke-width="1.5" stroke-linecap="round" stroke-linejoin="round"/>
<path d="M20.0322 21.1484C21.4129 21.1484 22.5322 20.0291 22.5322 18.6484C22.5322 17.2677 21.4129 16.1484 20.0322 16.1484C18.6515 16.1484 17.5322 17.2677 17.5322 18.6484C17.5322 20.0291 18.6515 21.1484 20.0322 21.1484Z" stroke="#3737B5" stroke-width="1.5" stroke-linecap="round" stroke-linejoin="round"/>
<path d="M20.0322 16.1484L17.5322 3.14844" stroke="#3737B5" stroke-width="1.5" stroke-linecap="round" stroke-linejoin="round"/>
</svg>
