<svg width="25" height="25" viewBox="0 0 25 25" fill="none" xmlns="http://www.w3.org/2000/svg">
<path d="M6.32473 15.2285C5.94632 14.3779 5.73535 13.4316 5.73535 12.4344C5.73535 8.73085 8.6455 5.72852 12.2354 5.72852C15.8253 5.72852 18.7354 8.73085 18.7354 12.4344C18.7354 13.4316 18.5244 14.3779 18.146 15.2285" stroke="#3737B5" stroke-width="1.5" stroke-linecap="round"/>
<path d="M12.2354 2.22852V3.22852" stroke="#3737B5" stroke-width="1.5" stroke-linecap="round" stroke-linejoin="round"/>
<path d="M22.2354 12.2285H21.2354" stroke="#3737B5" stroke-width="1.5" stroke-linecap="round" stroke-linejoin="round"/>
<path d="M3.23535 12.2285H2.23535" stroke="#3737B5" stroke-width="1.5" stroke-linecap="round" stroke-linejoin="round"/>
<path d="M19.3057 5.15625L18.5986 5.86336" stroke="#3737B5" stroke-width="1.5" stroke-linecap="round" stroke-linejoin="round"/>
<path d="M5.87215 5.86531L5.16504 5.1582" stroke="#3737B5" stroke-width="1.5" stroke-linecap="round" stroke-linejoin="round"/>
<path d="M14.7519 19.5339C15.7623 19.2071 16.1675 18.2823 16.2815 17.3521C16.3155 17.0742 16.0869 16.8438 15.8069 16.8438L8.71172 16.844C8.42212 16.844 8.18954 17.0897 8.22412 17.3772C8.33577 18.3056 8.61757 18.9838 9.68832 19.5339M14.7519 19.5339C14.7519 19.5339 9.86458 19.5339 9.68832 19.5339M14.7519 19.5339C14.6304 21.4789 14.0687 22.2492 12.2417 22.2276C10.2875 22.2637 9.8379 21.3116 9.68832 19.5339" stroke="#3737B5" stroke-width="1.5" stroke-linecap="round" stroke-linejoin="round"/>
</svg>
