<svg width="51" height="49" viewBox="0 0 51 49" fill="none" xmlns="http://www.w3.org/2000/svg">
<g opacity="0.56">
<path d="M43.7503 33.8705C42.4062 25.9672 38.2217 20.082 34.5841 16.6253C33.5255 15.6194 32.9963 15.1165 31.8271 14.651C30.6579 14.1855 29.653 14.1855 27.6431 14.1855H23.2284C21.2186 14.1855 20.2136 14.1855 19.0445 14.651C17.8753 15.1165 17.346 15.6194 16.2875 16.6253C12.6498 20.082 8.46536 25.9672 7.12119 33.8705C6.12108 39.7507 11.6718 44.2071 17.8753 44.2071H32.9963C39.1997 44.2071 44.7505 39.7507 43.7503 33.8705Z" stroke="black" stroke-width="1.67562" stroke-linecap="round"/>
<path d="M21.596 35.2002V23.1916M25.4359 23.1916V20.1895M25.4359 38.2024V35.2002M21.596 29.1959H29.2759M29.2759 29.1959C30.5483 29.1959 31.5799 30.2041 31.5799 31.4476V32.9486C31.5799 34.1921 30.5483 35.2002 29.2759 35.2002H19.292M29.2759 29.1959C30.5483 29.1959 31.5799 28.1878 31.5799 26.9443V25.4432C31.5799 24.1997 30.5483 23.1916 29.2759 23.1916H19.292" stroke="black" stroke-width="1.67562" stroke-linecap="round" stroke-linejoin="round"/>
<path d="M15.7209 9.06894C15.2983 8.46793 14.6859 7.65217 15.951 7.46615C17.2513 7.27493 18.6015 8.14482 19.9232 8.12695C21.1188 8.11077 21.728 7.59252 22.3815 6.85257C23.0696 6.07339 24.1352 4.17969 25.4352 4.17969C26.7353 4.17969 27.8009 6.07339 28.489 6.85257C29.1425 7.59252 29.7516 8.11077 30.9472 8.12695C32.2689 8.14482 33.6192 7.27493 34.9195 7.46615C36.1845 7.65217 35.5721 8.46793 35.1496 9.06894L33.2391 11.7864C32.4219 12.9489 32.0134 13.5302 31.1581 13.8585C30.3031 14.1869 29.198 14.1869 26.988 14.1869H23.8825C21.6725 14.1869 20.5674 14.1869 19.7123 13.8585C18.8571 13.5302 18.4485 12.9489 17.6313 11.7864L15.7209 9.06894Z" stroke="black" stroke-width="1.67562"/>
</g>
</svg>
