<svg width="25" height="25" viewBox="0 0 25 25" fill="none" xmlns="http://www.w3.org/2000/svg">
<path d="M12.7705 3.00056C12.6049 2.99241 12.4382 2.98828 12.2705 2.98828C6.74766 2.98828 2.27051 7.46543 2.27051 12.9883C2.27051 18.5111 6.74766 22.9883 12.2705 22.9883C17.7933 22.9883 22.2705 18.5111 22.2705 12.9883C22.2705 12.1251 22.1611 11.2873 21.9555 10.4883" fill="#3737B5"/>
<path d="M12.7705 3.00056C12.6049 2.99241 12.4382 2.98828 12.2705 2.98828C6.74766 2.98828 2.27051 7.46543 2.27051 12.9883C2.27051 18.5111 6.74766 22.9883 12.2705 22.9883C17.7933 22.9883 22.2705 18.5111 22.2705 12.9883C22.2705 12.1251 22.1611 11.2873 21.9555 10.4883" stroke="#3737B5" stroke-width="1.5" stroke-linecap="round" stroke-linejoin="round"/>
<path d="M8.27051 15.9883C9.18263 17.2027 10.6348 17.9883 12.2705 17.9883C13.9062 17.9883 15.3584 17.2027 16.2705 15.9883" stroke="white" stroke-width="1.5" stroke-linecap="round" stroke-linejoin="round"/>
<path d="M10.2705 10.4883H8.97762C8.52486 10.4883 8.09065 10.6681 7.77051 10.9883M14.2705 10.4883H15.5634C16.0161 10.4883 16.4504 10.6681 16.7705 10.9883" stroke="white" stroke-width="1.5" stroke-linecap="round" stroke-linejoin="round"/>
<path d="M16.1586 3.31966C17.0972 2.77136 17.9164 2.99232 18.4085 3.34428C18.6103 3.4886 18.7111 3.56076 18.7705 3.56076C18.8299 3.56076 18.9307 3.4886 19.1325 3.34428C19.6246 2.99232 20.4438 2.77136 21.3824 3.31966C22.6142 4.03926 22.8929 6.41323 20.0517 8.41606C19.5105 8.79754 19.2399 8.98828 18.7705 8.98828C18.3011 8.98828 18.0305 8.79754 17.4893 8.41606C14.6481 6.41323 14.9268 4.03926 16.1586 3.31966Z" stroke="#3737B5" stroke-width="1.5" stroke-linecap="round"/>
</svg>
