<svg width="27" height="27" viewBox="0 0 27 27" fill="none" xmlns="http://www.w3.org/2000/svg">
<path d="M16.0152 13.6385C16.0152 14.8724 15.015 15.8726 13.781 15.8726C12.5471 15.8726 11.5469 14.8724 11.5469 13.6385C11.5469 12.4045 12.5471 11.4043 13.781 11.4043C15.015 11.4043 16.0152 12.4045 16.0152 13.6385Z" stroke="white" stroke-width="0.974234"/>
<path d="M17.0341 9.096L18.0887 7.1049C18.849 5.66927 19.2293 4.95146 18.9053 4.16672C18.5815 3.38198 17.9492 3.2075 16.6848 2.85856C15.7586 2.60299 14.7857 2.4668 13.7822 2.4668C12.7786 2.4668 11.8057 2.60299 10.8796 2.85856C9.61507 3.2075 8.98281 3.38198 8.65895 4.16672C8.33508 4.95146 8.71527 5.66927 9.47564 7.1049L10.5302 9.096M19.3646 13.8218H21.6723C23.3205 13.8218 24.1445 13.8218 24.6514 14.5334C25.1583 15.2449 24.9572 15.9219 24.5551 17.2761C23.9636 19.2676 22.874 21.0324 21.4375 22.4133C20.4727 23.3408 19.9903 23.8045 19.1757 23.6678C18.361 23.5311 17.9795 22.8108 17.2164 21.3702L15.8664 18.8212M11.6979 18.8212L10.3479 21.3702C9.58486 22.8108 9.20337 23.5311 8.38867 23.6678C7.57396 23.8045 7.09158 23.3408 6.12681 22.4133C4.69028 21.0324 3.60075 19.2676 3.00927 17.2761C2.60711 15.9219 2.40602 15.2449 2.91289 14.5334C3.41975 13.8218 4.24381 13.8218 5.89195 13.8218H8.19973" fill="#8888FF"/>
<path d="M17.0341 9.096L18.0887 7.1049C18.849 5.66927 19.2293 4.95146 18.9053 4.16672C18.5815 3.38198 17.9492 3.2075 16.6848 2.85856C15.7586 2.60299 14.7857 2.4668 13.7822 2.4668C12.7786 2.4668 11.8057 2.60299 10.8796 2.85856C9.61507 3.2075 8.98281 3.38198 8.65895 4.16672C8.33508 4.95146 8.71527 5.66927 9.47564 7.1049L10.5302 9.096M19.3646 13.8218H21.6723C23.3205 13.8218 24.1445 13.8218 24.6514 14.5334C25.1583 15.2449 24.9572 15.9219 24.5551 17.2761C23.9636 19.2676 22.874 21.0324 21.4375 22.4133C20.4727 23.3408 19.9903 23.8045 19.1757 23.6678C18.361 23.5311 17.9795 22.8108 17.2164 21.3702L15.8664 18.8212M11.6979 18.8212L10.3479 21.3702C9.58486 22.8108 9.20337 23.5311 8.38867 23.6678C7.57396 23.8045 7.09158 23.3408 6.12681 22.4133C4.69028 21.0324 3.60075 19.2676 3.00927 17.2761C2.60711 15.9219 2.40602 15.2449 2.91289 14.5334C3.41975 13.8218 4.24381 13.8218 5.89195 13.8218H8.19973" stroke="black" stroke-width="0.974234" stroke-linecap="round" stroke-linejoin="round"/>
</svg>
