<svg width="28" height="28" viewBox="0 0 28 28" fill="none" xmlns="http://www.w3.org/2000/svg">
<path d="M7.3248 21.9514C5.87247 21.8085 4.78449 21.3723 4.05483 20.6426C2.74609 19.334 2.74609 17.2275 2.74609 13.0147V12.4562C2.74609 8.2434 2.74609 6.13702 4.05483 4.82827C5.36359 3.51953 7.46997 3.51953 11.6828 3.51953H16.1511C20.3638 3.51953 22.4703 3.51953 23.779 4.82827C25.0877 6.13702 25.0877 8.2434 25.0877 12.4562V13.0147C25.0877 17.2275 25.0877 19.334 23.779 20.6426C22.4703 21.9514 20.3638 21.9514 16.1511 21.9514C15.525 21.9654 15.0263 22.0129 14.5365 22.1245C13.1977 22.4327 11.9581 23.1177 10.7331 23.7152C8.98756 24.5663 8.11479 24.9919 7.56708 24.5934C6.51925 23.813 7.54345 21.395 7.77296 20.2758" fill="#8888FF"/>
<path d="M7.3248 21.9514C5.87247 21.8085 4.78449 21.3723 4.05483 20.6426C2.74609 19.334 2.74609 17.2275 2.74609 13.0147V12.4562C2.74609 8.2434 2.74609 6.13702 4.05483 4.82827C5.36359 3.51953 7.46997 3.51953 11.6828 3.51953H16.1511C20.3638 3.51953 22.4703 3.51953 23.779 4.82827C25.0877 6.13702 25.0877 8.2434 25.0877 12.4562V13.0147C25.0877 17.2275 25.0877 19.334 23.779 20.6426C22.4703 21.9514 20.3638 21.9514 16.1511 21.9514C15.525 21.9654 15.0263 22.0129 14.5365 22.1245C13.1977 22.4327 11.9581 23.1177 10.7331 23.7152C8.98756 24.5663 8.11479 24.9919 7.56708 24.5934C6.51925 23.813 7.54345 21.395 7.77296 20.2758" stroke="black" stroke-width="0.974234" stroke-linecap="round"/>
<path d="M9.44824 15.8061H18.3849M9.44824 10.2207H13.9166" stroke="white" stroke-width="0.974234" stroke-linecap="round" stroke-linejoin="round"/>
</svg>
