<svg width="25" height="25" viewBox="0 0 25 25" fill="none" xmlns="http://www.w3.org/2000/svg">
<path d="M14.1221 2.25255C13.4759 2.12152 12.807 2.05273 12.1221 2.05273C6.59922 2.05273 2.12207 6.52497 2.12207 12.0418C2.12207 17.5585 6.59922 22.0308 12.1221 22.0308C17.6449 22.0308 22.1221 17.5585 22.1221 12.0418C22.1221 11.3577 22.0532 10.6895 21.9221 10.044" fill="#3737B5"/>
<path d="M14.1221 2.25255C13.4759 2.12152 12.807 2.05273 12.1221 2.05273C6.59922 2.05273 2.12207 6.52497 2.12207 12.0418C2.12207 17.5585 6.59922 22.0308 12.1221 22.0308C17.6449 22.0308 22.1221 17.5585 22.1221 12.0418C22.1221 11.3577 22.0532 10.6895 21.9221 10.044" stroke="white" stroke-width="1.5" stroke-linecap="round"/>
<path d="M12.1221 9.04578C11.0175 9.04578 10.1221 9.71662 10.1221 10.5441C10.1221 11.3716 11.0175 12.0425 12.1221 12.0425C13.2267 12.0425 14.1221 12.7134 14.1221 13.5408C14.1221 14.3683 13.2267 15.0392 12.1221 15.0392M12.1221 9.04578C12.9929 9.04578 13.7337 9.46272 14.0083 10.0447M12.1221 9.04578V8.04688M12.1221 15.0392C11.2513 15.0392 10.5105 14.6223 10.2359 14.0403M12.1221 15.0392V16.0381" stroke="white" stroke-width="1.5" stroke-linecap="round"/>
<path d="M22.1172 2.03125L17.9414 6.20487M17.1172 2.55244L17.2354 5.64053C17.2354 6.36838 17.6705 6.82187 18.463 6.87907L21.5871 7.02576" stroke="#3737B5" stroke-width="1.5" stroke-linecap="round" stroke-linejoin="round"/>
</svg>
