<svg width="25" height="25" viewBox="0 0 25 25" fill="none" xmlns="http://www.w3.org/2000/svg">
<path d="M22.3414 4.73466C22.3414 4.73466 22.5175 2.94993 22.0865 2.51899M22.0865 2.51899C21.653 2.0855 19.8711 2.26561 19.8711 2.26561M22.0865 2.51899L19.377 5.22848" stroke="#3737B5" stroke-width="1.5" stroke-linecap="round" stroke-linejoin="round"/>
<path d="M22.3414 19.7223C22.3414 19.7223 22.5175 21.507 22.0865 21.938M22.0865 21.938C21.653 22.3715 19.8711 22.1914 19.8711 22.1914M22.0865 21.938L19.377 19.2285" stroke="#3737B5" stroke-width="1.5" stroke-linecap="round" stroke-linejoin="round"/>
<path d="M2.66743 2.51898L5.37695 5.22848M2.66743 2.51898C3.10092 2.0855 4.88288 2.26561 4.88288 2.26561M2.66743 2.51898C2.23648 2.94993 2.41256 4.73465 2.41256 4.73465" stroke="#3737B5" stroke-width="1.5" stroke-linecap="round" stroke-linejoin="round"/>
<path d="M2.66743 21.938L5.37695 19.2285M2.66743 21.938C3.10092 22.3715 4.88288 22.1914 4.88288 22.1914M2.66743 21.938C2.23648 21.5071 2.41256 19.7224 2.41256 19.7224" stroke="#3737B5" stroke-width="1.5" stroke-linecap="round" stroke-linejoin="round"/>
<path d="M19.377 12.2285C19.377 16.0945 16.243 19.2285 12.377 19.2285C8.51096 19.2285 5.37695 16.0945 5.37695 12.2285C5.37695 8.36253 8.51096 5.22852 12.377 5.22852C16.243 5.22852 19.377 8.36253 19.377 12.2285Z" stroke="#3737B5" stroke-width="1.5"/>
<path d="M12.291 9.52979C11.1864 9.52979 10.377 10.1719 10.377 10.9172C10.377 11.6624 10.8989 12.1284 12.377 12.1284C14.0052 12.1284 14.377 12.8708 14.377 13.616C14.377 14.3613 13.6653 14.9499 12.291 14.9499M12.291 9.52979C13.1618 9.52979 13.6221 9.83465 13.9856 10.245M12.291 9.52979V8.68555M12.291 14.9499C11.4202 14.9499 11.0816 14.7779 10.602 14.3439M12.291 14.9499V15.7373" stroke="#3737B5" stroke-width="1.5" stroke-linecap="round"/>
</svg>
