<svg width="28" height="28" viewBox="0 0 28 28" fill="none" xmlns="http://www.w3.org/2000/svg">
<path d="M16.0093 14.6912C16.0093 15.9251 15.0091 16.9254 13.7752 16.9254C12.5413 16.9254 11.541 15.9251 11.541 14.6912C11.541 13.4573 12.5413 12.457 13.7752 12.457C15.0091 12.457 16.0093 13.4573 16.0093 14.6912Z" stroke="black" stroke-width="0.974234"/>
<path d="M17.0273 10.1487L18.0819 8.15764C18.8422 6.72201 19.2224 6.00419 18.8985 5.21945C18.5746 4.43471 17.9424 4.26024 16.6779 3.91129C15.7518 3.65573 14.7789 3.51953 13.7753 3.51953C12.7717 3.51953 11.7989 3.65573 10.8727 3.91129C9.60823 4.26024 8.97598 4.43471 8.65211 5.21945C8.32825 6.00419 8.70844 6.72201 9.4688 8.15764L10.5234 10.1487M19.3577 14.8746H21.6655C23.3136 14.8746 24.1377 14.8746 24.6445 15.5861C25.1515 16.2976 24.9504 16.9747 24.5482 18.3288C23.9567 20.3203 22.8671 22.0851 21.4307 23.466C20.4659 24.3936 19.9835 24.8573 19.1688 24.7205C18.3541 24.5838 17.9726 23.8635 17.2096 22.4229L15.8596 19.874M11.6911 19.874L10.341 22.4229C9.57803 23.8635 9.19653 24.5838 8.38183 24.7205C7.56712 24.8573 7.08474 24.3936 6.11998 23.466C4.68344 22.0851 3.59392 20.3203 3.00243 18.3288C2.60027 16.9747 2.39919 16.2976 2.90605 15.5861C3.41292 14.8746 4.23698 14.8746 5.88511 14.8746H8.19289" fill="#8888FF"/>
<path d="M17.0273 10.1487L18.0819 8.15764C18.8422 6.72201 19.2224 6.00419 18.8985 5.21945C18.5746 4.43471 17.9424 4.26024 16.6779 3.91129C15.7518 3.65573 14.7789 3.51953 13.7753 3.51953C12.7717 3.51953 11.7989 3.65573 10.8727 3.91129C9.60824 4.26024 8.97598 4.43471 8.65211 5.21945C8.32825 6.00419 8.70844 6.72201 9.4688 8.15764L10.5234 10.1487M19.3577 14.8746H21.6655C23.3136 14.8746 24.1377 14.8746 24.6445 15.5861C25.1515 16.2976 24.9504 16.9747 24.5482 18.3288C23.9567 20.3203 22.8671 22.0851 21.4307 23.466C20.4659 24.3936 19.9835 24.8573 19.1688 24.7205C18.3541 24.5838 17.9726 23.8635 17.2096 22.4229L15.8596 19.874M11.6911 19.874L10.341 22.4229C9.57803 23.8635 9.19653 24.5838 8.38183 24.7205C7.56712 24.8573 7.08474 24.3936 6.11998 23.466C4.68344 22.0851 3.59392 20.3203 3.00243 18.3288C2.60027 16.9747 2.39919 16.2976 2.90605 15.5861C3.41292 14.8746 4.23698 14.8746 5.88511 14.8746H8.19289" stroke="black" stroke-width="0.974234" stroke-linecap="round" stroke-linejoin="round"/>
</svg>
