<svg width="25" height="25" viewBox="0 0 25 25" fill="none" xmlns="http://www.w3.org/2000/svg">
<path d="M10.7783 9.40368C8.38463 8.10679 5.85888 5.86272 3.77832 2.14844M12.3938 4.56745C10.3588 3.23194 7.87574 3.79009 6.8477 5.81411C5.81966 7.83813 6.63596 10.5615 8.67095 11.897C10.5133 13.1061 14.5455 14.3563 17.7783 10.8934C14.7489 9.60332 14.4288 5.90295 12.3938 4.56745Z" stroke="#3737B5" stroke-width="1.5" stroke-linecap="round" stroke-linejoin="round"/>
<path d="M4.77832 11.1484C4.13925 11.6193 3.77832 12.1538 3.77832 12.7204C3.77832 14.6136 7.80776 16.1484 12.7783 16.1484C17.7489 16.1484 21.7783 14.6136 21.7783 12.7204C21.7783 12.1538 21.4174 11.6193 20.7783 11.1484" stroke="#3737B5" stroke-width="1.5" stroke-linecap="round"/>
<path d="M21.7783 13.1484C21.7783 16.725 19.2719 19.8631 16.5734 21.6306C16.0185 21.9941 15.3587 22.1484 14.6954 22.1484H10.8612C10.1979 22.1484 9.53808 21.9941 8.98318 21.6306C6.28472 19.8631 3.77832 16.725 3.77832 13.1484" stroke="#3737B5" stroke-width="1.5" stroke-linecap="round"/>
</svg>
