<svg width="25" height="25" viewBox="0 0 25 25" fill="none" xmlns="http://www.w3.org/2000/svg">
<path d="M15.3848 12.1758C15.3848 12.1758 12.8848 14.1758 12.8848 17.6758" stroke="#3737B5" stroke-width="1.5" stroke-linecap="round" stroke-linejoin="round"/>
<path d="M10.9478 9.73879C12.1971 8.48948 12.1971 6.46393 10.9478 5.21462C9.0627 3.32954 4.91554 3.70656 4.91554 3.70656C4.91554 3.70656 4.53852 7.85372 6.4236 9.73879C7.67291 10.9881 9.69846 10.9881 10.9478 9.73879Z" stroke="#3737B5" stroke-width="1.5" stroke-linecap="round" stroke-linejoin="round"/>
<path d="M15.6879 11.8727C16.7588 12.9435 18.495 12.9435 19.5658 11.8727C21.1816 10.2569 20.8584 6.70216 20.8584 6.70216C20.8584 6.70216 17.3037 6.379 15.6879 7.99478C14.6171 9.06563 14.6171 10.8018 15.6879 11.8727Z" stroke="#3737B5" stroke-width="1.5" stroke-linecap="round" stroke-linejoin="round"/>
<path d="M10.8848 10.1758C10.8848 10.1758 12.8848 12.6758 12.8848 17.6751" stroke="#3737B5" stroke-width="1.5" stroke-linecap="round" stroke-linejoin="round"/>
<path d="M21.8848 21.6758C19.686 19.2229 16.4689 17.6758 12.8848 17.6758C9.30069 17.6758 6.0836 19.2229 3.88477 21.6758" stroke="#3737B5" stroke-width="1.5" stroke-linecap="round" stroke-linejoin="round"/>
</svg>
