<svg width="25" height="25" viewBox="0 0 25 25" fill="none" xmlns="http://www.w3.org/2000/svg">
<path d="M12.1309 13.2285L17.1309 17.7285M12.1309 13.2285L7.13086 17.7285M12.1309 13.2285V8.22852" stroke="#3737B5" stroke-width="1.5"/>
<path d="M18.3224 16.6741C18.839 16.377 19.0973 16.2285 19.3809 16.2285C19.6645 16.2285 19.9228 16.377 20.4394 16.6741L21.0724 17.0382C21.589 17.3353 21.8473 17.4838 21.9891 17.7285C22.1309 17.9732 22.1309 18.2703 22.1309 18.8644V19.5926C22.1309 20.1867 22.1309 20.4838 21.9891 20.7285C21.8473 20.9732 21.589 21.1217 21.0724 21.4188L20.4394 21.7829C19.9228 22.08 19.6645 22.2285 19.3809 22.2285C19.0973 22.2285 18.839 22.08 18.3224 21.7829L17.6894 21.4188C17.1728 21.1217 16.9145 20.9732 16.7727 20.7285C16.6309 20.4838 16.6309 20.1867 16.6309 19.5926V18.8644C16.6309 18.2703 16.6309 17.9732 16.7727 17.7285C16.9145 17.4838 17.1728 17.3353 17.6894 17.0382L18.3224 16.6741Z" stroke="#3737B5" stroke-width="1.5"/>
<path d="M3.82238 16.6741C4.33896 16.377 4.59724 16.2285 4.88086 16.2285C5.16448 16.2285 5.42276 16.377 5.93934 16.6741L6.57238 17.0382C7.08896 17.3353 7.34724 17.4838 7.48905 17.7285C7.63086 17.9732 7.63086 18.2703 7.63086 18.8644V19.5926C7.63086 20.1867 7.63086 20.4838 7.48905 20.7285C7.34724 20.9732 7.08896 21.1217 6.57238 21.4188L5.93934 21.7829C5.42276 22.08 5.16448 22.2285 4.88086 22.2285C4.59724 22.2285 4.33896 22.08 3.82238 21.7829L3.18934 21.4188C2.67276 21.1217 2.41448 20.9732 2.27267 20.7285C2.13086 20.4838 2.13086 20.1867 2.13086 19.5926V18.8644C2.13086 18.2703 2.13086 17.9732 2.27267 17.7285C2.41448 17.4838 2.67276 17.3353 3.18934 17.0382L3.82238 16.6741Z" stroke="#3737B5" stroke-width="1.5"/>
<path d="M11.0724 2.67415C11.589 2.37706 11.8473 2.22852 12.1309 2.22852C12.4145 2.22852 12.6728 2.37706 13.1894 2.67415L13.8224 3.03822C14.339 3.33531 14.5973 3.48385 14.7391 3.72852C14.8809 3.97319 14.8809 4.27027 14.8809 4.86445V5.59259C14.8809 6.18677 14.8809 6.48385 14.7391 6.72852C14.5973 6.97319 14.339 7.12173 13.8224 7.41882L13.1894 7.78289C12.6728 8.07998 12.4145 8.22852 12.1309 8.22852C11.8473 8.22852 11.589 8.07998 11.0724 7.78289L10.4394 7.41882C9.92276 7.12173 9.66448 6.97319 9.52267 6.72852C9.38086 6.48385 9.38086 6.18677 9.38086 5.59259V4.86445C9.38086 4.27027 9.38086 3.97319 9.52267 3.72852C9.66448 3.48385 9.92276 3.33531 10.4394 3.03822L11.0724 2.67415Z" stroke="#3737B5" stroke-width="1.5"/>
</svg>
