<svg width="25" height="25" viewBox="0 0 25 25" fill="none" xmlns="http://www.w3.org/2000/svg">
<path d="M19.1221 15.0312V18.9202C19.1221 21.1451 18.3865 22.0312 16.011 22.0312H8.23318C6.00824 22.0312 5.12207 21.2957 5.12207 18.9202V15.0312C5.12207 11.1653 8.25608 8.03125 12.1221 8.03125C15.9881 8.03125 19.1221 11.1653 19.1221 15.0312Z" fill="#3737B5" stroke="#3737B5" stroke-width="1.5" stroke-linecap="round"/>
<path d="M16.1221 15.0312C16.1221 12.8221 14.3312 11.0312 12.1221 11.0312C9.91293 11.0312 8.12207 12.8221 8.12207 15.0312" stroke="white" stroke-width="1.5" stroke-linecap="round"/>
<path d="M12.1221 17.0312L13.1221 15.0312" stroke="white" stroke-width="1.5" stroke-linecap="round"/>
<path d="M16.4345 5.03125H7.80963C6.92603 5.03125 6.48423 5.03125 6.09548 4.87921C5.96635 4.82871 5.84283 4.76624 5.72673 4.69273C5.3772 4.47143 5.13214 4.12409 4.64201 3.4294C4.26002 2.888 4.06903 2.61729 4.13487 2.39595C4.15571 2.32592 4.19246 2.26102 4.24257 2.2058C4.40096 2.03125 4.74527 2.03125 5.43391 2.03125H18.8103C19.4989 2.03125 19.8432 2.03125 20.0016 2.2058C20.0517 2.26102 20.0885 2.32592 20.1093 2.39595C20.1751 2.61729 19.9841 2.888 19.6022 3.4294C19.112 4.12408 18.867 4.47144 18.5174 4.69273C18.4013 4.76624 18.2778 4.82871 18.1487 4.87921C17.7599 5.03125 17.3181 5.03125 16.4345 5.03125Z" stroke="#3737B5" stroke-width="1.5" stroke-linecap="round"/>
<path d="M14.1221 8.03125V5.03125M10.1221 8.03125V5.03125" stroke="#3737B5" stroke-width="1.5" stroke-linecap="round"/>
</svg>
