<svg width="25" height="25" viewBox="0 0 25 25" fill="none" xmlns="http://www.w3.org/2000/svg">
<path d="M14.0244 9.72852H18.0244" stroke="#3737B5" stroke-width="1.5" stroke-linecap="round"/>
<path d="M14.0244 13.2285H17.0244" stroke="#3737B5" stroke-width="1.5" stroke-linecap="round"/>
<path d="M17.0244 3.72852H7.02441C4.26299 3.72852 2.02441 5.96709 2.02441 8.72852V16.7285C2.02441 19.4899 4.26299 21.7285 7.02441 21.7285H17.0244C19.7858 21.7285 22.0244 19.4899 22.0244 16.7285V8.72852C22.0244 5.96709 19.7858 3.72852 17.0244 3.72852Z" stroke="#3737B5" stroke-width="1.5" stroke-linejoin="round"/>
<path d="M5.02441 16.7285C6.23272 14.1474 10.7366 13.9776 12.0244 16.7285" stroke="#3737B5" stroke-width="1.5" stroke-linecap="round" stroke-linejoin="round"/>
<path d="M10.5244 9.72852C10.5244 10.833 9.62898 11.7285 8.52441 11.7285C7.41984 11.7285 6.52441 10.833 6.52441 9.72852C6.52441 8.62395 7.41984 7.72852 8.52441 7.72852C9.62898 7.72852 10.5244 8.62395 10.5244 9.72852Z" stroke="#3737B5" stroke-width="1.5"/>
</svg>
