<svg width="25" height="25" viewBox="0 0 25 25" fill="none" xmlns="http://www.w3.org/2000/svg">
<path d="M18.8848 10.6113C18.8848 10.6113 12.8848 14.6113 12.8848 21.6113" stroke="#3737B5" stroke-width="1.5" stroke-linecap="round" stroke-linejoin="round"/>
<path d="M10.2336 11.7938C8.6226 13.0004 6.328 12.8713 4.86327 11.4066C2.4396 8.98297 2.92434 3.6509 2.92434 3.6509C2.92434 3.6509 8.2564 3.16617 10.6801 5.58983C11.6396 6.54936 12.026 7.86502 11.8391 9.11133" stroke="#3737B5" stroke-width="1.5" stroke-linecap="round" stroke-linejoin="round"/>
<path d="M15.8486 13.4288C14.5288 11.9945 14.5645 9.76116 15.9556 8.37C18.11 6.21563 22.8496 6.6465 22.8496 6.6465C22.8496 6.6465 23.2805 11.3861 21.1261 13.5405C20.3725 14.2941 19.3718 14.6499 18.3848 14.608" stroke="#3737B5" stroke-width="1.5" stroke-linecap="round" stroke-linejoin="round"/>
<path d="M6.88477 7.61133C6.88477 7.61133 12.8848 12.6113 12.8848 21.6113" stroke="#3737B5" stroke-width="1.5" stroke-linecap="round" stroke-linejoin="round"/>
</svg>
