<svg width="25" height="24" viewBox="0 0 25 24" fill="none" xmlns="http://www.w3.org/2000/svg">
<path d="M10.5879 9.50976L5.8632 4.48538C5.44494 4.03423 5.51192 3.70469 6.00518 3.41938C6.93243 2.88303 7.65478 2.86846 8.63217 3.40484L13.5369 6.09648C13.8861 6.28809 14.2285 6.48232 14.5879 6.58828" stroke="#3737B5" stroke-width="1.5" stroke-linecap="round" stroke-linejoin="round"/>
<path d="M13.0879 13.673L15.1982 20.4795C15.3705 21.0353 15.6739 21.1361 16.1439 20.8666C17.0275 20.3599 17.3837 19.7748 17.4076 18.7205L17.5274 13.4296C17.5434 12.7229 17.5405 12.0313 18.0879 11.5098" stroke="#3737B5" stroke-width="1.5" stroke-linecap="round" stroke-linejoin="round"/>
<path d="M8.91635 10.994L10.8033 9.61531L15.2256 6.3911L15.2295 6.38825L15.237 6.38275C15.3414 6.30635 16.8973 5.17212 17.7798 4.78555C18.8644 4.31041 19.8748 4.5313 20.9618 4.83489C21.5241 4.99192 21.8052 5.07043 22.0081 5.21691C22.3299 5.44932 22.5392 5.80702 22.5822 6.19826C22.6094 6.44484 22.5377 6.72433 22.3944 7.2833C22.1173 8.36403 21.806 9.33793 20.8467 10.0272C20.0661 10.5881 18.2924 11.3507 18.1735 11.4016L18.165 11.4052L18.1605 11.4071L13.1196 13.5742L10.9661 14.4973C10.1853 14.832 9.79489 14.9993 9.52928 15.3099C8.90722 16.0372 8.81937 17.3535 8.5872 18.2591C8.4589 18.7595 7.75537 19.6268 7.12847 19.4966C6.74144 19.4162 6.73402 18.9317 6.68585 18.6228L6.22209 15.6486C6.11119 14.9373 6.10268 14.9228 5.53388 14.4724L3.15546 12.589C2.90842 12.3933 2.48692 12.1447 2.60989 11.7738C2.80908 11.173 3.92197 11.0054 4.42536 11.146C5.33623 11.4004 6.53536 11.9835 7.48473 11.8155C7.89009 11.7438 8.23219 11.4939 8.91635 10.994Z" stroke="#3737B5" stroke-width="1.5" stroke-linecap="round" stroke-linejoin="round"/>
</svg>
