<svg width="135" height="105" viewBox="0 0 135 105" fill="none" xmlns="http://www.w3.org/2000/svg">
<g clip-path="url(#clip0_1791_9491)">
<g opacity="0.56">
<path d="M97.1614 55.9516C111.846 55.1992 123.561 50.8848 123.326 46.3151C123.092 41.7454 110.998 38.6509 96.3135 39.4033C81.6289 40.1557 69.9144 44.4701 70.1486 49.0398C70.3827 53.6095 82.4768 56.704 97.1614 55.9516Z" stroke="black" stroke-width="3.35125"/>
<path d="M124.28 64.9316C124.515 69.5014 112.8 73.8157 98.1154 74.5681C83.4305 75.3205 71.3367 72.2261 71.1025 67.6562" stroke="black" stroke-width="3.35125"/>
<path d="M123.326 46.3144L125.192 82.7208C125.449 87.7473 113.754 92.4323 99.0691 93.1847C84.3842 93.9371 72.2713 90.472 72.0138 85.4454L70.1484 49.0391" stroke="black" stroke-width="3.35125"/>
<path d="M67.0433 28.4594C81.7279 27.7071 93.4424 23.3926 93.2082 18.8229C92.9741 14.2532 80.88 11.1587 66.1954 11.9111C51.5107 12.6635 39.7963 16.9779 40.0304 21.5476C40.2645 26.1173 52.3586 29.2118 67.0433 28.4594Z" stroke="black" stroke-width="3.35125"/>
<path d="M57.8762 49.6682C50.0888 49.1124 42.852 47.0139 41.0898 42.2324M58.9361 70.3537C51.1486 69.7978 43.9118 67.6993 42.1497 62.9179" stroke="black" stroke-width="3.35125" stroke-linecap="round"/>
<path d="M59.9962 91.039C52.2088 90.4831 44.972 88.3847 43.2099 83.6032L40.0303 21.5469" stroke="black" stroke-width="3.35125" stroke-linecap="round"/>
<path d="M93.632 27.0964L93.208 18.8223" stroke="black" stroke-width="1.67562" stroke-linecap="round"/>
</g>
<g opacity="0.56">
<path d="M43.7503 80.8705C42.4062 72.9672 38.2217 67.082 34.5841 63.6253C33.5255 62.6194 32.9963 62.1165 31.8271 61.651C30.6579 61.1855 29.653 61.1855 27.6431 61.1855H23.2284C21.2186 61.1855 20.2136 61.1855 19.0445 61.651C17.8753 62.1165 17.346 62.6194 16.2875 63.6253C12.6498 67.082 8.46536 72.9672 7.12119 80.8705C6.12108 86.7507 11.6718 91.2071 17.8753 91.2071H32.9963C39.1997 91.2071 44.7505 86.7507 43.7503 80.8705Z" stroke="black" stroke-width="1.67562" stroke-linecap="round"/>
<path d="M21.596 82.2002V70.1916M25.4359 70.1916V67.1895M25.4359 85.2024V82.2002M21.596 76.1959H29.2759M29.2759 76.1959C30.5483 76.1959 31.5799 77.2041 31.5799 78.4476V79.9486C31.5799 81.1921 30.5483 82.2002 29.2759 82.2002H19.292M29.2759 76.1959C30.5483 76.1959 31.5799 75.1878 31.5799 73.9443V72.4432C31.5799 71.1997 30.5483 70.1916 29.2759 70.1916H19.292" stroke="black" stroke-width="1.67562" stroke-linecap="round" stroke-linejoin="round"/>
<path d="M15.7209 56.0689C15.2983 55.4679 14.6859 54.6522 15.951 54.4662C17.2513 54.2749 18.6015 55.1448 19.9232 55.1269C21.1188 55.1108 21.728 54.5925 22.3815 53.8526C23.0696 53.0734 24.1352 51.1797 25.4352 51.1797C26.7353 51.1797 27.8009 53.0734 28.489 53.8526C29.1425 54.5925 29.7516 55.1108 30.9472 55.1269C32.2689 55.1448 33.6192 54.2749 34.9195 54.4662C36.1845 54.6522 35.5721 55.4679 35.1496 56.0689L33.2391 58.7864C32.4219 59.9489 32.0134 60.5302 31.1581 60.8585C30.3031 61.1869 29.198 61.1869 26.988 61.1869H23.8825C21.6725 61.1869 20.5674 61.1869 19.7123 60.8585C18.8571 60.5302 18.4485 59.9489 17.6313 58.7864L15.7209 56.0689Z" stroke="black" stroke-width="1.67562"/>
</g>
</g>
<defs>
<clipPath id="clip0_1791_9491">
<rect width="133.402" height="104.32" fill="white" transform="translate(0.860352 0.388672)"/>
</clipPath>
</defs>
</svg>
