<svg width="25" height="25" viewBox="0 0 25 25" fill="none" xmlns="http://www.w3.org/2000/svg">
<path d="M2.13086 7.17578C2.13086 5.77565 2.13086 5.07558 2.40334 4.5408C2.64303 4.0704 3.02548 3.68795 3.49588 3.44826C4.03066 3.17578 4.73073 3.17578 6.13086 3.17578C7.53099 3.17578 8.23106 3.17578 8.76584 3.44826C9.23624 3.68795 9.61869 4.0704 9.85838 4.5408C10.1309 5.07558 10.1309 5.77565 10.1309 7.17578V17.1758C10.1309 18.5759 10.1309 19.276 9.85838 19.8108C9.61869 20.2812 9.23624 20.6636 8.76584 20.9033C8.23106 21.1758 7.53099 21.1758 6.13086 21.1758C4.73073 21.1758 4.03066 21.1758 3.49588 20.9033C3.02548 20.6636 2.64303 20.2812 2.40334 19.8108C2.13086 19.276 2.13086 18.5759 2.13086 17.1758V7.17578Z" stroke="#3737B5" stroke-width="1.5" stroke-linecap="round" stroke-linejoin="round"/>
<path d="M6.13086 17.1758H6.13984" stroke="#3737B5" stroke-width="2" stroke-linecap="round" stroke-linejoin="round"/>
<path d="M2.13086 7.17578H10.1309" stroke="#3737B5" stroke-width="1.5" stroke-linecap="round" stroke-linejoin="round"/>
<path d="M11.5794 8.44421C11.2245 7.11416 11.0471 6.44914 11.1693 5.87177C11.2768 5.3639 11.5416 4.90325 11.9259 4.55583C12.3627 4.16086 13.025 3.98267 14.3495 3.62628C15.674 3.2699 16.3363 3.09171 16.9112 3.21443C17.417 3.32238 17.8757 3.58834 18.2217 3.97419C18.615 4.41284 18.7925 5.07787 19.1474 6.40791L21.6822 15.9074C22.0371 17.2374 22.2145 17.9024 22.0923 18.4798C21.9848 18.9877 21.72 19.4483 21.3357 19.7958C20.8989 20.1907 20.2366 20.3689 18.9121 20.7253C17.5876 21.0817 16.9253 21.2599 16.3504 21.1372C15.8446 21.0292 15.3859 20.7632 15.0399 20.3774C14.6466 19.9387 14.4691 19.2737 14.1142 17.9437L11.5794 8.44421Z" stroke="#3737B5" stroke-width="1.5" stroke-linecap="round" stroke-linejoin="round"/>
<path d="M17.9121 16.8714L17.9208 16.8691" stroke="#3737B5" stroke-width="2" stroke-linecap="round" stroke-linejoin="round"/>
<path d="M12.1309 8.17597L18.631 6.17578" stroke="#3737B5" stroke-width="1.5" stroke-linecap="round" stroke-linejoin="round"/>
</svg>
