<svg width="25" height="25" viewBox="0 0 25 25" fill="none" xmlns="http://www.w3.org/2000/svg">
<path d="M8.48926 19.7285C8.48926 18.7629 8.81779 17.7861 9.62018 17.2489C10.5825 16.6046 11.7417 16.2285 12.9893 16.2285C14.2369 16.2285 15.3961 16.6046 16.3584 17.2489C17.1608 17.7861 17.4893 18.7629 17.4893 19.7285" stroke="#3737B5" stroke-width="1.5" stroke-linecap="round" stroke-linejoin="round"/>
<path d="M12.9893 13.7285C14.37 13.7285 15.4893 12.6092 15.4893 11.2285C15.4893 9.8478 14.37 8.72852 12.9893 8.72852C11.6085 8.72852 10.4893 9.8478 10.4893 11.2285C10.4893 12.6092 11.6085 13.7285 12.9893 13.7285Z" stroke="#3737B5" stroke-width="1.5" stroke-linecap="round" stroke-linejoin="round"/>
<path d="M18.4893 11.2285C19.5994 11.2285 20.6308 11.6054 21.4867 12.2509C22.2122 12.7981 22.4893 13.7236 22.4893 14.6323V14.7285" stroke="#3737B5" stroke-width="1.5" stroke-linecap="round" stroke-linejoin="round"/>
<path d="M18.4893 8.72852C19.5938 8.72852 20.4893 7.83309 20.4893 6.72852C20.4893 5.62395 19.5938 4.72852 18.4893 4.72852C17.3847 4.72852 16.4893 5.62395 16.4893 6.72852C16.4893 7.83309 17.3847 8.72852 18.4893 8.72852Z" stroke="#3737B5" stroke-width="1.5" stroke-linecap="round" stroke-linejoin="round"/>
<path d="M7.48926 11.2285C6.37913 11.2285 5.34772 11.6054 4.49182 12.2509C3.76632 12.7981 3.48926 13.7236 3.48926 14.6323V14.7285" stroke="#3737B5" stroke-width="1.5" stroke-linecap="round" stroke-linejoin="round"/>
<path d="M7.48926 8.72852C8.59383 8.72852 9.48926 7.83309 9.48926 6.72852C9.48926 5.62395 8.59383 4.72852 7.48926 4.72852C6.38469 4.72852 5.48926 5.62395 5.48926 6.72852C5.48926 7.83309 6.38469 8.72852 7.48926 8.72852Z" stroke="#3737B5" stroke-width="1.5" stroke-linecap="round" stroke-linejoin="round"/>
</svg>
