<svg width="25" height="25" viewBox="0 0 25 25" fill="none" xmlns="http://www.w3.org/2000/svg">
<path d="M18.9893 10.1758C18.9893 10.1758 12.9893 14.1758 12.9893 21.1758" stroke="#3737B5" stroke-width="1.5" stroke-linecap="round" stroke-linejoin="round"/>
<path d="M10.3381 11.3583C8.7271 12.5649 6.43249 12.4358 4.96776 10.9711C2.5441 8.54742 3.02883 3.21535 3.02883 3.21535C3.02883 3.21535 8.3609 2.73062 10.7846 5.15428C11.7441 6.11381 12.1305 7.42947 11.9436 8.67578" stroke="#3737B5" stroke-width="1.5" stroke-linecap="round" stroke-linejoin="round"/>
<path d="M15.953 12.9933C14.6332 11.559 14.6689 9.32561 16.06 7.93445C18.2144 5.78008 22.954 6.21095 22.954 6.21095C22.954 6.21095 23.3849 10.9506 21.2305 13.105C20.4769 13.8586 19.4762 14.2144 18.4892 14.1725" stroke="#3737B5" stroke-width="1.5" stroke-linecap="round" stroke-linejoin="round"/>
<path d="M6.98926 7.17578C6.98926 7.17578 12.9893 12.1758 12.9893 21.1758" stroke="#3737B5" stroke-width="1.5" stroke-linecap="round" stroke-linejoin="round"/>
</svg>
