<svg width="32" height="33" viewBox="0 0 32 33" fill="none" xmlns="http://www.w3.org/2000/svg">
<path d="M25.3181 25.8307H25.3307H25.3181ZM25.3181 25.8307C24.4878 26.6541 22.9831 26.449 21.9279 26.449C20.6327 26.449 20.009 26.7023 19.0846 27.6267C18.2975 28.4139 17.2423 29.8307 15.9974 29.8307C14.7525 29.8307 13.6973 28.4139 12.9102 27.6267C11.9858 26.7023 11.362 26.449 10.0668 26.449C9.01164 26.449 7.50697 26.6541 6.67672 25.8307C5.83981 25.0009 6.04577 23.4899 6.04577 22.4279C6.04577 21.0859 5.75228 20.4689 4.79657 19.5131C3.37492 18.0915 2.66409 17.3806 2.66406 16.4974C2.66408 15.6141 3.37489 14.9033 4.79653 13.4816C5.64966 12.6285 6.04577 11.7831 6.04577 10.5668C6.04577 9.5116 5.84072 8.00692 6.66406 7.17665C7.49397 6.33977 9.00486 6.54574 10.0668 6.54574C11.2831 6.54574 12.1285 6.14966 12.9816 5.29656C14.4033 3.87489 15.1141 3.16406 15.9974 3.16406C16.8807 3.16406 17.5915 3.87489 19.0131 5.29656C19.8661 6.14949 20.7114 6.54574 21.9279 6.54574C22.9831 6.54574 24.4879 6.34069 25.3182 7.16406C26.155 7.99397 25.949 9.50485 25.949 10.5668C25.949 11.9088 26.2426 12.5259 27.1982 13.4816C28.6199 14.9033 29.3307 15.6141 29.3307 16.4974C29.3307 17.3806 28.6199 18.0915 27.1982 19.5131C26.2425 20.4689 25.949 21.0859 25.949 22.4279C25.949 23.4899 26.155 25.0009 25.3181 25.8307Z" fill="#B44659"/>
<path d="M25.3181 25.8307H25.3307M25.3181 25.8307C24.4878 26.6541 22.9831 26.449 21.9279 26.449C20.6327 26.449 20.009 26.7023 19.0846 27.6267C18.2975 28.4139 17.2423 29.8307 15.9974 29.8307C14.7525 29.8307 13.6973 28.4139 12.9102 27.6267C11.9858 26.7023 11.362 26.449 10.0668 26.449C9.01164 26.449 7.50697 26.6541 6.67672 25.8307C5.83981 25.0009 6.04577 23.4899 6.04577 22.4279C6.04577 21.0859 5.75228 20.4689 4.79657 19.5131C3.37492 18.0915 2.66409 17.3806 2.66406 16.4974C2.66408 15.6141 3.37489 14.9033 4.79653 13.4816C5.64966 12.6285 6.04577 11.7831 6.04577 10.5668C6.04577 9.5116 5.84072 8.00692 6.66406 7.17665C7.49397 6.33977 9.00486 6.54574 10.0668 6.54574C11.2831 6.54574 12.1285 6.14966 12.9816 5.29656C14.4033 3.87489 15.1141 3.16406 15.9974 3.16406C16.8807 3.16406 17.5915 3.87489 19.0131 5.29656C19.8661 6.14949 20.7114 6.54574 21.9279 6.54574C22.9831 6.54574 24.4879 6.34069 25.3182 7.16406C26.155 7.99397 25.949 9.50485 25.949 10.5668C25.949 11.9088 26.2426 12.5259 27.1982 13.4816C28.6199 14.9033 29.3307 15.6141 29.3307 16.4974C29.3307 17.3806 28.6199 18.0915 27.1982 19.5131C26.2425 20.4689 25.949 21.0859 25.949 22.4279C25.949 23.4899 26.155 25.0009 25.3181 25.8307Z" stroke="#B44659" stroke-width="1.5"/>
<path d="M12 17.6879C12 17.6879 13.6 18.557 14.4 19.8307C14.4 19.8307 16.8 14.8307 20 13.1641" stroke="white" stroke-width="1.5" stroke-linecap="round" stroke-linejoin="round"/>
</svg>
