<svg width="17" height="21" viewBox="0 0 17 21" fill="none" xmlns="http://www.w3.org/2000/svg">
<path d="M4.19771 7.66957L1.77976 10.272C1.45737 10.6039 0.882014 11.4701 0.812584 12.2635C0.739564 13.0978 1.49128 14.2947 1.77976 14.7529C2.5317 15.9471 2.83447 16.6098 3.71412 17.7401C4.19183 18.3539 5.48224 19.5774 7.58286 19.7316C9.15096 19.8466 10.7119 19.8359 11.4516 19.7316C11.9595 19.6599 13.1925 19.4328 14.3531 18.2379C15.5138 17.0431 15.8039 15.0848 15.8039 14.255V6.28907C15.8039 5.7912 15.5138 4.79546 14.3531 4.79546C13.1925 4.79546 12.9024 5.7912 12.9024 6.28907V9.7742M4.19771 12.2635V4.29759C4.19771 3.79972 4.48786 2.80398 5.64848 2.80398C6.80906 2.80398 7.09926 3.79972 7.09926 4.29759M7.09926 4.29759V8.7784M7.09926 4.29759V2.30611C7.09926 1.80824 7.38936 0.8125 8.55006 0.8125C9.71066 0.8125 10.0008 1.80824 10.0008 2.30611V4.29759M10.0008 4.29759V8.7784M10.0008 4.29759C10.0008 3.79972 10.291 2.80398 11.4516 2.80398C12.6122 2.80398 12.9024 3.79972 12.9024 4.29759V6.78694" stroke="white" stroke-width="1.5" stroke-linecap="round" stroke-linejoin="round"/>
</svg>
