<svg width="246" height="232" viewBox="0 0 246 232" fill="none" xmlns="http://www.w3.org/2000/svg">
<path d="M115.096 140.941H89.9746L115.096 101.863V140.941Z" fill="#B44659"/>
<path d="M21.1807 160.225C21.1807 160.225 21.6035 160.308 22.4077 160.416" stroke="#2B2A2A" stroke-width="0.93401" stroke-miterlimit="10"/>
<path d="M24.8906 160.671C33.9983 161.371 58.7927 160.988 87.434 141.299C122.94 116.891 194.902 99.4388 237.796 104.599" stroke="#2B2A2A" stroke-width="0.93401" stroke-miterlimit="10" stroke-dasharray="2.82 2.82"/>
<path d="M239.044 104.758C239.458 104.812 239.869 104.87 240.275 104.929" stroke="#2B2A2A" stroke-width="0.93401" stroke-miterlimit="10"/>
<path d="M21.1807 177.099C21.1807 177.099 21.6077 177.028 22.3994 176.861" stroke="#2B2A2A" stroke-width="0.93401" stroke-miterlimit="10"/>
<path d="M24.8125 176.32C34.057 174.096 59.2161 166.57 79.8898 146.785" stroke="#2B2A2A" stroke-width="0.93401" stroke-miterlimit="10" stroke-dasharray="2.79 2.79"/>
<path d="M80.7803 145.918C81.0746 145.626 81.3731 145.335 81.6674 145.039" stroke="#2B2A2A" stroke-width="0.93401" stroke-miterlimit="10"/>
<path d="M21.1797 200.957C21.1797 200.957 70.9259 172.884 95.3761 131.832C108.712 110.989 134.116 51.6481 240.274 47.8203" stroke="#2B2A2A" stroke-width="0.93401" stroke-miterlimit="10"/>
<path d="M14.8984 121.943H101.345" stroke="#590D1A" stroke-width="0.93401" stroke-miterlimit="10"/>
<path d="M115.237 154.27H241.331" stroke="#590D1A" stroke-width="0.93401" stroke-miterlimit="10"/>
<path d="M87.9639 195.213H241.331" stroke="#590D1A" stroke-width="0.93401" stroke-miterlimit="10"/>
<path d="M87.9639 174.742H155.598" stroke="#590D1A" stroke-width="0.93401" stroke-miterlimit="10"/>
<path d="M14.8984 140.941H241.331" stroke="#2B2A2A" stroke-width="0.350254" stroke-miterlimit="10"/>
<path opacity="0.6" d="M199.374 52.6191V140.942" stroke="#2B2A2A" stroke-width="0.350254" stroke-miterlimit="10"/>
<path opacity="0.6" d="M198.5 52.6191V140.942" stroke="#2B2A2A" stroke-width="0.350254" stroke-miterlimit="10"/>
<path opacity="0.6" d="M155.598 67.6289V140.94" stroke="#2B2A2A" stroke-width="0.350254" stroke-miterlimit="10"/>
<g opacity="0.6">
<path d="M155.597 141.404V142.446" stroke="#2B2A2A" stroke-width="0.350254" stroke-miterlimit="10"/>
<path d="M155.597 144.5V172.198" stroke="#2B2A2A" stroke-width="0.350254" stroke-miterlimit="10" stroke-dasharray="2.3 2.3"/>
<path d="M155.597 173.223V174.264" stroke="#2B2A2A" stroke-width="0.350254" stroke-miterlimit="10"/>
</g>
<g opacity="0.6">
<path d="M87.9648 141.404V142.446" stroke="#2B2A2A" stroke-width="0.350254" stroke-miterlimit="10"/>
<path d="M87.9648 144.516V193.14" stroke="#2B2A2A" stroke-width="0.350254" stroke-miterlimit="10" stroke-dasharray="2.32 2.32"/>
<path d="M87.9648 194.172V195.213" stroke="#2B2A2A" stroke-width="0.350254" stroke-miterlimit="10"/>
</g>
<g opacity="0.6">
<path d="M101.533 123.396V124.021" stroke="#2B2A2A" stroke-width="0.350254" stroke-miterlimit="10"/>
<path d="M101.533 125.275V139.691" stroke="#2B2A2A" stroke-width="0.350254" stroke-miterlimit="10" stroke-dasharray="1.41 1.41"/>
<path d="M101.533 140.314V140.939" stroke="#2B2A2A" stroke-width="0.350254" stroke-miterlimit="10"/>
</g>
<g opacity="0.6">
<path d="M21.1807 141.404V142.446" stroke="#2B2A2A" stroke-width="0.350254" stroke-miterlimit="10"/>
<path d="M21.1807 144.574V198.851" stroke="#2B2A2A" stroke-width="0.350254" stroke-miterlimit="10" stroke-dasharray="2.39 2.39"/>
<path d="M21.1807 199.916V200.957" stroke="#2B2A2A" stroke-width="0.350254" stroke-miterlimit="10"/>
</g>
<path opacity="0.6" d="M56.1055 140.941V175.754" stroke="#2B2A2A" stroke-width="0.350254" stroke-miterlimit="10"/>
<g opacity="0.6">
<path d="M115.097 141.404V142.029" stroke="#2B2A2A" stroke-width="0.350254" stroke-miterlimit="10"/>
<path d="M115.097 143.32V153" stroke="#2B2A2A" stroke-width="0.350254" stroke-miterlimit="10" stroke-dasharray="1.45 1.45"/>
<path d="M115.097 153.646V154.271" stroke="#2B2A2A" stroke-width="0.350254" stroke-miterlimit="10"/>
</g>
<path d="M50.8209 108.037C50.8043 107.675 50.7836 107.237 50.7877 106.858H50.7753C50.6841 107.2 50.568 107.579 50.4436 107.933L50.0332 109.149H49.6435L49.2705 107.949C49.1627 107.591 49.0632 107.208 48.9886 106.858H48.9803C48.9678 107.225 48.9512 107.67 48.9305 108.054L48.8683 109.182H48.3916L48.5782 106.375H49.2497L49.6145 107.504C49.714 107.833 49.8011 108.166 49.8716 108.478H49.884C49.9586 108.174 50.054 107.829 50.1617 107.5L50.5473 106.375H51.2106L51.3722 109.182H50.8748L50.8209 108.037Z" fill="#2B2A2A"/>
<path d="M52.4251 108.387L52.1847 109.182H51.6582L52.5536 106.375H53.2045L54.1123 109.182H53.561L53.3081 108.387H52.4251ZM53.2252 107.999L53.0055 107.308C52.9516 107.137 52.906 106.946 52.8645 106.783H52.8563C52.8148 106.946 52.7692 107.141 52.7236 107.308L52.508 107.999H53.2252Z" fill="#2B2A2A"/>
<path d="M54.502 106.416C54.6968 106.379 54.9787 106.354 55.273 106.354C55.6751 106.354 55.9446 106.42 56.1353 106.578C56.2887 106.708 56.3757 106.903 56.3757 107.145C56.3757 107.507 56.1311 107.753 55.8658 107.845V107.857C56.069 107.932 56.1892 108.128 56.2555 108.399C56.3467 108.748 56.4213 109.073 56.4752 109.182H55.9529C55.9114 109.098 55.841 108.869 55.7663 108.519C55.6834 108.153 55.5549 108.036 55.2647 108.028H55.0077V109.182H54.502V106.416ZM55.0077 107.653H55.3103C55.6544 107.653 55.8658 107.47 55.8658 107.191C55.8658 106.887 55.6544 106.741 55.3228 106.741C55.1611 106.741 55.0575 106.753 55.0077 106.766V107.653Z" fill="#2B2A2A"/>
<path d="M56.8604 106.375H57.3661V107.666H57.3785C57.4449 107.558 57.5153 107.458 57.5817 107.362L58.3154 106.375H58.9414L57.9796 107.57L59.0036 109.182H58.4066L57.619 107.895L57.3661 108.195V109.182H56.8604V106.375Z" fill="#2B2A2A"/>
<path d="M60.8363 107.937H59.7833V108.762H60.9607V109.182H59.2734V106.375H60.8985V106.796H59.7833V107.52H60.8363V107.937Z" fill="#2B2A2A"/>
<path d="M61.9844 106.804H61.1885V106.375H63.2985V106.804H62.4943V109.182H61.9844V106.804Z" fill="#2B2A2A"/>
<path d="M64.1359 106.375V109.182H63.626V106.375H64.1359Z" fill="#2B2A2A"/>
<path d="M64.7168 109.182V106.375H65.3013L66.0226 107.579C66.205 107.891 66.3709 108.216 66.4994 108.52H66.5077C66.4704 108.145 66.4621 107.783 66.4621 107.354V106.375H66.9347V109.182H66.404L65.6744 107.945C65.4962 107.637 65.3138 107.295 65.1769 106.979L65.1604 106.983C65.1811 107.345 65.1894 107.716 65.1894 108.179V109.182H64.7168Z" fill="#2B2A2A"/>
<path d="M69.7616 109.053C69.5833 109.12 69.2351 109.211 68.8662 109.211C68.3936 109.211 68.0329 109.091 67.7676 108.836C67.5189 108.599 67.3779 108.228 67.3779 107.804C67.3821 106.912 68.008 106.346 68.9325 106.346C69.2766 106.346 69.546 106.417 69.6745 106.479L69.5626 106.891C69.4092 106.821 69.2227 106.771 68.9284 106.771C68.3314 106.771 67.9127 107.125 67.9127 107.779C67.9127 108.416 68.3024 108.795 68.8828 108.795C69.0693 108.795 69.202 108.77 69.2683 108.741V108.037H68.775V107.633H69.7616V109.053Z" fill="#2B2A2A"/>
<path d="M71.5108 106.804H70.7148V106.375H72.8249V106.804H72.0207V109.182H71.5108V106.804Z" fill="#2B2A2A"/>
<path d="M74.7162 107.937H73.6632V108.762H74.8405V109.182H73.1533V106.375H74.7784V106.796H73.6632V107.52H74.7162V107.937Z" fill="#2B2A2A"/>
<path d="M75.848 108.387L75.6075 109.182H75.0811L75.9765 106.375H76.6273L77.5352 109.182H76.9838L76.731 108.387H75.848ZM76.6481 107.999L76.4283 107.308C76.3745 107.137 76.3289 106.946 76.2874 106.783H76.2791C76.2377 106.946 76.1921 107.141 76.1465 107.308L75.9309 107.999H76.6481Z" fill="#2B2A2A"/>
<path d="M80.2701 108.037C80.2535 107.675 80.2328 107.237 80.2369 106.858H80.2245C80.1333 107.2 80.0172 107.579 79.8928 107.933L79.4824 109.149H79.0928L78.7197 107.949C78.6119 107.591 78.5124 107.208 78.4378 106.858H78.4295C78.417 107.225 78.4005 107.67 78.3797 108.054L78.3176 109.182H77.8408L78.0274 106.375H78.6989L79.0637 107.504C79.1632 107.833 79.2503 108.166 79.3208 108.478H79.3332C79.4078 108.174 79.5032 107.829 79.611 107.5L79.9965 106.375H80.6598L80.8214 109.182H80.324L80.2701 108.037Z" fill="#2B2A2A"/>
<path d="M130.962 99.8336C130.846 99.8877 130.597 99.9544 130.274 99.9544C129.428 99.9544 128.918 99.4254 128.918 98.609C128.918 97.7302 129.527 97.2012 130.34 97.2012C130.659 97.2012 130.883 97.2678 130.982 97.322L130.879 97.7093C130.754 97.6552 130.576 97.6052 130.361 97.6052C129.822 97.6052 129.432 97.9467 129.432 98.5882C129.432 99.1796 129.772 99.5503 130.356 99.5503C130.547 99.5503 130.754 99.5087 130.883 99.4545L130.962 99.8336Z" fill="#721121"/>
<path d="M131.857 97.2402V98.798C131.857 99.3187 132.073 99.5602 132.4 99.5602C132.753 99.5602 132.96 99.3187 132.96 98.798V97.2402H133.445V98.7647C133.445 99.5894 133.022 99.9518 132.384 99.9518C131.77 99.9518 131.372 99.6061 131.372 98.7689V97.2402H131.857Z" fill="#721121"/>
<path d="M133.992 99.3754C134.146 99.467 134.386 99.5462 134.635 99.5462C134.942 99.5462 135.116 99.4004 135.116 99.1838C135.116 98.9839 134.983 98.8631 134.647 98.7423C134.208 98.584 133.926 98.3508 133.926 97.9676C133.926 97.5261 134.291 97.2012 134.867 97.2012C135.153 97.2012 135.364 97.2637 135.501 97.3345L135.385 97.726C135.286 97.676 135.103 97.601 134.855 97.601C134.548 97.601 134.419 97.7635 134.419 97.9218C134.419 98.1258 134.573 98.2216 134.929 98.3633C135.389 98.5382 135.613 98.7714 135.613 99.1546C135.613 99.5878 135.29 99.9585 134.61 99.9585C134.328 99.9585 134.034 99.8794 133.889 99.7877L133.992 99.3754Z" fill="#721121"/>
<path d="M136.549 97.6484H135.795V97.2402H137.801V97.6484H137.039V99.9101H136.554V97.6484H136.549Z" fill="#721121"/>
<path d="M140.356 98.5473C140.356 99.4428 139.817 99.951 139.087 99.951C138.333 99.951 137.86 99.372 137.86 98.5931C137.86 97.7684 138.379 97.1895 139.125 97.1895C139.9 97.1895 140.356 97.7809 140.356 98.5473ZM138.374 98.5806C138.374 99.1263 138.648 99.5594 139.112 99.5594C139.581 99.5594 139.846 99.1179 139.846 98.5598C139.846 98.0558 139.597 97.581 139.112 97.581C138.631 97.5851 138.374 98.0308 138.374 98.5806Z" fill="#721121"/>
<path d="M143.017 98.8188C143 98.4731 142.984 98.0566 142.984 97.6984H142.971C142.884 98.0233 142.772 98.3857 142.656 98.7189L142.267 99.8768H141.898L141.541 98.7355C141.438 98.394 141.346 98.0316 141.272 97.6984H141.264C141.251 98.0483 141.234 98.469 141.218 98.8355L141.16 99.9101H140.708L140.886 97.2402H141.525L141.873 98.3149C141.968 98.6272 142.051 98.9438 142.117 99.2395H142.13C142.2 98.9521 142.292 98.6231 142.395 98.3107L142.76 97.2402H143.39L143.544 99.9101H143.071L143.017 98.8188Z" fill="#721121"/>
<path d="M145.517 98.7213H144.513V99.5044H145.633V99.9042H144.028V97.2344H145.575V97.6342H144.513V98.3215H145.517V98.7213Z" fill="#721121"/>
<path d="M146.056 97.2771C146.242 97.2396 146.508 97.2188 146.79 97.2188C147.171 97.2188 147.428 97.2812 147.61 97.4312C147.756 97.552 147.838 97.7394 147.838 97.9685C147.838 98.3142 147.606 98.5474 147.353 98.6349V98.6474C147.548 98.7182 147.66 98.9056 147.722 99.1639C147.809 99.4971 147.88 99.8053 147.93 99.9094H147.432C147.391 99.8303 147.324 99.6137 147.254 99.2805C147.175 98.9306 147.051 98.8223 146.777 98.814H146.533V99.9094H146.052V97.2771H146.056ZM146.537 98.4558H146.823C147.15 98.4558 147.349 98.2809 147.349 98.0143C147.349 97.7269 147.15 97.5853 146.831 97.5853C146.678 97.5853 146.578 97.5978 146.533 97.6103V98.4558H146.537Z" fill="#721121"/>
<path d="M92.1436 144.486H91.3477V144.057H93.4577V144.486H92.6535V146.864H92.1436V144.486Z" fill="#2B2A2A"/>
<path d="M94.2332 144.273C94.2332 144.423 94.1213 144.548 93.943 144.548C93.7731 144.548 93.6611 144.423 93.6611 144.273C93.6611 144.115 93.7772 143.994 93.9472 143.994C94.1213 143.994 94.2291 144.115 94.2332 144.273ZM93.6943 146.864V144.836H94.2042V146.864H93.6943Z" fill="#2B2A2A"/>
<path d="M94.7549 145.439C94.7549 145.206 94.7466 145.01 94.7383 144.835H95.1736L95.1984 145.135H95.2109C95.3062 144.977 95.4886 144.789 95.8327 144.789C96.098 144.789 96.3053 144.939 96.3923 145.164H96.4006C96.4711 145.051 96.554 144.968 96.6452 144.91C96.7613 144.831 96.8898 144.789 97.0598 144.789C97.3914 144.789 97.7313 145.018 97.7313 145.668V146.863H97.2339V145.743C97.2339 145.406 97.1178 145.206 96.8732 145.206C96.6991 145.206 96.5706 145.331 96.5167 145.476C96.5001 145.522 96.4918 145.589 96.4918 145.647V146.863H95.9944V145.689C95.9944 145.406 95.8824 145.206 95.6462 145.206C95.4555 145.206 95.3269 145.356 95.2772 145.493C95.2606 145.547 95.2523 145.605 95.2523 145.664V146.863H94.7549V145.439Z" fill="#2B2A2A"/>
<path d="M98.6278 145.993C98.6403 146.359 98.9222 146.518 99.2497 146.518C99.486 146.518 99.6518 146.48 99.8093 146.426L99.8839 146.776C99.7098 146.851 99.4694 146.905 99.1792 146.905C98.5242 146.905 98.1387 146.501 98.1387 145.88C98.1387 145.318 98.4786 144.789 99.1253 144.789C99.7803 144.789 99.9959 145.331 99.9959 145.776C99.9959 145.872 99.9876 145.947 99.9793 145.993H98.6278ZM99.515 145.635C99.5191 145.447 99.4362 145.139 99.0963 145.139C98.7812 145.139 98.6486 145.426 98.6278 145.635H99.515Z" fill="#2B2A2A"/>
<path d="M101.848 144.314V144.835H102.333V145.218H101.848V146.114C101.848 146.364 101.915 146.489 102.109 146.489C102.201 146.489 102.25 146.484 102.308 146.468L102.317 146.855C102.242 146.884 102.105 146.909 101.948 146.909C101.757 146.909 101.604 146.847 101.508 146.743C101.396 146.626 101.347 146.439 101.347 146.172V145.218H101.061V144.835H101.347V144.456L101.848 144.314Z" fill="#2B2A2A"/>
<path d="M104.613 145.83C104.613 146.576 104.091 146.909 103.577 146.909C103.009 146.909 102.565 146.518 102.565 145.864C102.565 145.197 103.001 144.789 103.61 144.789C104.211 144.789 104.613 145.214 104.613 145.83ZM103.092 145.851C103.092 146.243 103.287 146.538 103.594 146.538C103.884 146.538 104.087 146.255 104.087 145.843C104.087 145.526 103.946 145.16 103.598 145.16C103.237 145.16 103.092 145.514 103.092 145.851Z" fill="#2B2A2A"/>
<path d="M106.421 144.061V146.868H105.911V144.061H106.421Z" fill="#2B2A2A"/>
<path d="M107.01 145.439C107.01 145.206 107.001 145.01 106.993 144.835H107.437L107.462 145.139H107.474C107.565 144.981 107.785 144.789 108.121 144.789C108.473 144.789 108.838 145.018 108.838 145.66V146.863H108.328V145.718C108.328 145.426 108.22 145.206 107.942 145.206C107.739 145.206 107.598 145.351 107.545 145.505C107.528 145.547 107.52 145.61 107.52 145.668V146.863H107.01V145.439Z" fill="#2B2A2A"/>
<path d="M109.924 144.273C109.924 144.423 109.812 144.548 109.633 144.548C109.463 144.548 109.352 144.423 109.352 144.273C109.352 144.115 109.468 143.994 109.638 143.994C109.812 143.994 109.919 144.115 109.924 144.273ZM109.381 146.864V144.836H109.89V146.864H109.381Z" fill="#2B2A2A"/>
<path d="M111.027 144.314V144.835H111.512V145.218H111.027V146.114C111.027 146.364 111.093 146.489 111.288 146.489C111.379 146.489 111.429 146.484 111.487 146.468L111.495 146.855C111.421 146.884 111.284 146.909 111.126 146.909C110.936 146.909 110.782 146.847 110.687 146.743C110.575 146.626 110.525 146.439 110.525 146.172V145.218H110.239V144.835H110.525V144.456L111.027 144.314Z" fill="#2B2A2A"/>
<path d="M112.44 144.273C112.44 144.423 112.328 144.548 112.15 144.548C111.98 144.548 111.868 144.423 111.868 144.273C111.868 144.115 111.984 143.994 112.154 143.994C112.328 143.994 112.436 144.115 112.44 144.273ZM111.897 146.864V144.836H112.407V146.864H111.897Z" fill="#2B2A2A"/>
<path d="M114.524 146.376C114.524 146.559 114.533 146.738 114.558 146.863H114.097L114.06 146.638H114.048C113.927 146.797 113.716 146.909 113.451 146.909C113.044 146.909 112.816 146.613 112.816 146.305C112.816 145.797 113.268 145.535 114.014 145.539V145.505C114.014 145.372 113.961 145.151 113.604 145.151C113.405 145.151 113.198 145.214 113.061 145.301L112.962 144.968C113.111 144.877 113.372 144.789 113.691 144.789C114.338 144.789 114.524 145.201 114.524 145.647V146.376ZM114.027 145.872C113.666 145.868 113.322 145.943 113.322 146.251C113.322 146.451 113.451 146.543 113.612 146.543C113.82 146.543 113.965 146.409 114.014 146.264C114.027 146.226 114.027 146.189 114.027 146.151V145.872Z" fill="#2B2A2A"/>
<path d="M115.064 143.906H115.574V146.864H115.064V143.906Z" fill="#2B2A2A"/>
<path d="M117.497 146.864L116.594 144.057H117.149L117.531 145.335C117.638 145.689 117.734 146.014 117.804 146.356H117.813C117.887 146.023 117.991 145.681 118.099 145.34L118.505 144.057H119.048L118.082 146.864H117.497Z" fill="#2B2A2A"/>
<path d="M120.739 146.376C120.739 146.559 120.747 146.738 120.772 146.863H120.312L120.275 146.638H120.262C120.142 146.797 119.931 146.909 119.666 146.909C119.259 146.909 119.031 146.613 119.031 146.305C119.031 145.797 119.483 145.535 120.229 145.539V145.505C120.229 145.372 120.175 145.151 119.819 145.151C119.62 145.151 119.413 145.214 119.276 145.301L119.176 144.968C119.326 144.877 119.587 144.789 119.906 144.789C120.553 144.789 120.739 145.201 120.739 145.647V146.376ZM120.242 145.872C119.881 145.868 119.537 145.943 119.537 146.251C119.537 146.451 119.666 146.543 119.827 146.543C120.034 146.543 120.18 146.409 120.229 146.264C120.242 146.226 120.242 146.189 120.242 146.151V145.872Z" fill="#2B2A2A"/>
<path d="M121.278 143.906H121.788V146.864H121.278V143.906Z" fill="#2B2A2A"/>
<path d="M124.151 146.256C124.151 146.498 124.159 146.698 124.167 146.864H123.724L123.699 146.56H123.686C123.599 146.702 123.4 146.91 123.036 146.91C122.671 146.91 122.335 146.689 122.335 146.027V144.836H122.845V145.94C122.845 146.277 122.953 146.494 123.222 146.494C123.429 146.494 123.562 146.352 123.612 146.219C123.633 146.177 123.641 146.119 123.641 146.06V144.836H124.151V146.256Z" fill="#2B2A2A"/>
<path d="M125.063 145.993C125.076 146.359 125.358 146.518 125.685 146.518C125.922 146.518 126.087 146.48 126.245 146.426L126.319 146.776C126.145 146.851 125.905 146.905 125.615 146.905C124.96 146.905 124.574 146.501 124.574 145.88C124.574 145.318 124.914 144.789 125.561 144.789C126.216 144.789 126.431 145.331 126.431 145.776C126.431 145.872 126.423 145.947 126.415 145.993H125.063ZM125.951 145.635C125.955 145.447 125.872 145.139 125.532 145.139C125.217 145.139 125.084 145.426 125.063 145.635H125.951Z" fill="#2B2A2A"/>
<path d="M108.878 186.387C109.039 186.483 109.292 186.566 109.554 186.566C109.877 186.566 110.059 186.412 110.059 186.183C110.059 185.97 109.918 185.845 109.566 185.716C109.102 185.55 108.807 185.304 108.807 184.9C108.807 184.438 109.189 184.092 109.798 184.092C110.101 184.092 110.32 184.158 110.466 184.233L110.345 184.646C110.242 184.592 110.047 184.512 109.786 184.512C109.462 184.512 109.326 184.683 109.326 184.85C109.326 185.066 109.487 185.166 109.86 185.312C110.345 185.495 110.577 185.741 110.577 186.145C110.577 186.599 110.238 186.991 109.52 186.991C109.222 186.991 108.915 186.907 108.762 186.812L108.878 186.387Z" fill="#2B2A2A"/>
<path d="M111.597 186.148L111.357 186.944H110.83L111.726 184.137H112.376L113.284 186.944H112.733L112.48 186.148H111.597ZM112.397 185.761L112.177 185.07C112.123 184.899 112.078 184.707 112.036 184.545H112.028C111.987 184.707 111.941 184.903 111.895 185.07L111.68 185.761H112.397Z" fill="#2B2A2A"/>
<path d="M113.674 184.137H114.184V186.515H115.332V186.944H113.674V184.137Z" fill="#2B2A2A"/>
<path d="M117.281 185.699H116.228V186.523H117.405V186.944H115.718V184.137H117.343V184.557H116.228V185.282H117.281V185.699Z" fill="#2B2A2A"/>
<path d="M117.845 186.387C118.006 186.483 118.259 186.566 118.52 186.566C118.844 186.566 119.026 186.412 119.026 186.183C119.026 185.97 118.885 185.845 118.533 185.716C118.068 185.55 117.774 185.304 117.774 184.9C117.774 184.438 118.156 184.092 118.765 184.092C119.068 184.092 119.287 184.158 119.432 184.233L119.312 184.646C119.208 184.592 119.014 184.512 118.752 184.512C118.429 184.512 118.292 184.683 118.292 184.85C118.292 185.066 118.454 185.166 118.827 185.312C119.312 185.495 119.544 185.741 119.544 186.145C119.544 186.599 119.204 186.991 118.487 186.991C118.189 186.991 117.882 186.907 117.729 186.812L117.845 186.387Z" fill="#2B2A2A"/>
<path d="M121.231 184.566H120.436V184.137H122.546V184.566H121.741V186.944H121.231V184.566Z" fill="#2B2A2A"/>
<path d="M124.436 185.699H123.383V186.523H124.56V186.944H122.873V184.137H124.498V184.557H123.383V185.282H124.436V185.699Z" fill="#2B2A2A"/>
<path d="M125.568 186.148L125.327 186.944H124.801L125.696 184.137H126.347L127.255 186.944H126.704L126.451 186.148H125.568ZM126.368 185.761L126.148 185.07C126.094 184.899 126.049 184.707 126.007 184.545H125.999C125.957 184.707 125.912 184.903 125.866 185.07L125.651 185.761H126.368Z" fill="#2B2A2A"/>
<path d="M129.991 185.799C129.974 185.436 129.953 184.999 129.958 184.62H129.945C129.854 184.961 129.738 185.34 129.614 185.694L129.203 186.911H128.813L128.44 185.711C128.333 185.353 128.233 184.97 128.158 184.62H128.15C128.138 184.986 128.121 185.432 128.1 185.815L128.038 186.944H127.562L127.748 184.137H128.42L128.784 185.265C128.884 185.595 128.971 185.928 129.041 186.24H129.054C129.129 185.936 129.224 185.59 129.332 185.261L129.717 184.137H130.38L130.542 186.944H130.045L129.991 185.799Z" fill="#2B2A2A"/>
<path d="M151.863 205.951C152.05 205.918 152.303 205.893 152.643 205.893C153.016 205.893 153.285 205.972 153.463 206.122C153.629 206.259 153.737 206.48 153.737 206.742C153.737 207.009 153.654 207.225 153.501 207.375C153.293 207.579 152.978 207.679 152.618 207.679C152.522 207.679 152.44 207.675 152.369 207.659V208.721H151.863V205.951ZM152.369 207.255C152.435 207.275 152.514 207.28 152.618 207.28C152.999 207.28 153.231 207.088 153.231 206.763C153.231 206.451 153.016 206.288 152.663 206.288C152.522 206.288 152.423 206.301 152.369 206.313V207.255Z" fill="#2B2A2A"/>
<path d="M154.181 205.955C154.376 205.918 154.657 205.893 154.952 205.893C155.354 205.893 155.623 205.959 155.814 206.117C155.967 206.247 156.054 206.442 156.054 206.684C156.054 207.046 155.81 207.292 155.545 207.384V207.396C155.748 207.471 155.868 207.667 155.934 207.938C156.025 208.288 156.1 208.612 156.154 208.721H155.632C155.59 208.637 155.52 208.408 155.445 208.058C155.362 207.692 155.234 207.575 154.943 207.567H154.686V208.721H154.181V205.955ZM154.686 207.192H154.989C155.333 207.192 155.545 207.009 155.545 206.73C155.545 206.426 155.333 206.28 155.001 206.28C154.84 206.28 154.736 206.292 154.686 206.305V207.192Z" fill="#2B2A2A"/>
<path d="M159.015 207.288C159.015 208.229 158.447 208.766 157.68 208.766C156.888 208.766 156.391 208.158 156.391 207.338C156.391 206.471 156.934 205.863 157.721 205.863C158.534 205.863 159.015 206.484 159.015 207.288ZM156.934 207.325C156.934 207.9 157.22 208.354 157.709 208.354C158.202 208.354 158.48 207.892 158.48 207.304C158.48 206.775 158.219 206.276 157.709 206.276C157.203 206.276 156.934 206.746 156.934 207.325Z" fill="#2B2A2A"/>
<path d="M159.458 205.951C159.686 205.918 159.968 205.893 160.271 205.893C160.793 205.893 161.149 206.001 161.406 206.217C161.68 206.438 161.846 206.776 161.846 207.25C161.846 207.754 161.676 208.125 161.411 208.367C161.133 208.621 160.689 208.75 160.146 208.75C159.852 208.75 159.628 208.733 159.458 208.712V205.951ZM159.968 208.333C160.038 208.346 160.146 208.346 160.25 208.346C160.913 208.35 161.307 207.979 161.307 207.267C161.311 206.651 160.955 206.292 160.316 206.292C160.154 206.292 160.043 206.305 159.968 206.322V208.333Z" fill="#2B2A2A"/>
<path d="M162.795 205.914V207.551C162.795 208.101 163.023 208.355 163.367 208.355C163.736 208.355 163.956 208.101 163.956 207.551V205.914H164.466V207.518C164.466 208.384 164.022 208.767 163.351 208.767C162.704 208.767 162.285 208.405 162.285 207.522V205.914H162.795Z" fill="#2B2A2A"/>
<path d="M167.048 208.641C166.928 208.699 166.662 208.766 166.323 208.766C165.435 208.766 164.896 208.208 164.896 207.35C164.896 206.425 165.539 205.867 166.393 205.867C166.729 205.867 166.965 205.938 167.069 205.992L166.961 206.4C166.828 206.342 166.642 206.292 166.414 206.292C165.846 206.292 165.435 206.65 165.435 207.325C165.435 207.946 165.792 208.337 166.41 208.337C166.613 208.337 166.828 208.295 166.965 208.237L167.048 208.641Z" fill="#2B2A2A"/>
<path d="M168.106 206.343H167.31V205.914H169.42V206.343H168.615V208.721H168.106V206.343Z" fill="#2B2A2A"/>
<path d="M170.974 206.343H170.178V205.914H172.288V206.343H171.484V208.721H170.974V206.343Z" fill="#2B2A2A"/>
<path d="M174.179 207.476H173.126V208.301H174.303V208.721H172.616V205.914H174.241V206.335H173.126V207.059H174.179V207.476Z" fill="#2B2A2A"/>
<path d="M175.311 207.926L175.07 208.721H174.544L175.439 205.914H176.09L176.998 208.721H176.447L176.194 207.926H175.311ZM176.111 207.538L175.891 206.847C175.837 206.676 175.792 206.485 175.75 206.322H175.742C175.701 206.485 175.655 206.68 175.609 206.847L175.394 207.538H176.111Z" fill="#2B2A2A"/>
<path d="M179.729 207.576C179.713 207.214 179.692 206.776 179.696 206.397H179.683C179.592 206.739 179.476 207.118 179.352 207.472L178.941 208.688H178.552L178.179 207.489C178.071 207.13 177.971 206.747 177.897 206.397H177.888C177.876 206.764 177.859 207.209 177.839 207.593L177.777 208.721H177.3L177.486 205.914H178.158L178.523 207.043C178.622 207.372 178.709 207.705 178.78 208.017H178.792C178.867 207.713 178.962 207.368 179.07 207.039L179.455 205.914H180.119L180.28 208.721H179.783L179.729 207.576Z" fill="#2B2A2A"/>
<path d="M144.955 146.864L144.052 144.057H144.607L144.989 145.335C145.096 145.689 145.192 146.014 145.262 146.356H145.271C145.345 146.023 145.449 145.681 145.557 145.34L145.963 144.057H146.506L145.54 146.864H144.955Z" fill="#2B2A2A"/>
<path d="M148.197 146.376C148.197 146.559 148.205 146.738 148.23 146.863H147.77L147.733 146.638H147.72C147.6 146.797 147.389 146.909 147.124 146.909C146.717 146.909 146.489 146.613 146.489 146.305C146.489 145.797 146.941 145.535 147.687 145.539V145.505C147.687 145.372 147.633 145.151 147.277 145.151C147.078 145.151 146.871 145.214 146.734 145.301L146.634 144.968C146.784 144.877 147.045 144.789 147.364 144.789C148.011 144.789 148.197 145.201 148.197 145.647V146.376ZM147.7 145.872C147.339 145.868 146.995 145.943 146.995 146.251C146.995 146.451 147.124 146.543 147.285 146.543C147.492 146.543 147.638 146.409 147.687 146.264C147.7 146.226 147.7 146.189 147.7 146.151V145.872Z" fill="#2B2A2A"/>
<path d="M148.736 143.906H149.246V146.864H148.736V143.906Z" fill="#2B2A2A"/>
<path d="M151.609 146.256C151.609 146.498 151.617 146.698 151.625 146.864H151.182L151.157 146.56H151.144C151.057 146.702 150.858 146.91 150.494 146.91C150.129 146.91 149.793 146.689 149.793 146.027V144.836H150.303V145.94C150.303 146.277 150.411 146.494 150.68 146.494C150.887 146.494 151.02 146.352 151.07 146.219C151.091 146.177 151.099 146.119 151.099 146.06V144.836H151.609V146.256Z" fill="#2B2A2A"/>
<path d="M152.521 145.993C152.534 146.359 152.816 146.518 153.143 146.518C153.38 146.518 153.545 146.48 153.703 146.426L153.777 146.776C153.603 146.851 153.363 146.905 153.073 146.905C152.418 146.905 152.032 146.501 152.032 145.88C152.032 145.318 152.372 144.789 153.019 144.789C153.674 144.789 153.889 145.331 153.889 145.776C153.889 145.872 153.881 145.947 153.873 145.993H152.521ZM153.409 145.635C153.413 145.447 153.33 145.139 152.99 145.139C152.675 145.139 152.542 145.426 152.521 145.635H153.409Z" fill="#2B2A2A"/>
<path d="M155.179 144.097C155.365 144.064 155.618 144.039 155.958 144.039C156.331 144.039 156.601 144.118 156.779 144.268C156.945 144.406 157.052 144.626 157.052 144.889C157.052 145.155 156.97 145.372 156.816 145.522C156.609 145.726 156.294 145.826 155.933 145.826C155.838 145.826 155.755 145.822 155.684 145.805V146.867H155.179V144.097ZM155.684 145.397C155.751 145.418 155.83 145.422 155.933 145.422C156.315 145.422 156.547 145.23 156.547 144.905C156.547 144.593 156.331 144.431 155.979 144.431C155.838 144.431 155.738 144.443 155.684 144.456V145.397Z" fill="#2B2A2A"/>
<path d="M158.955 146.376C158.955 146.559 158.963 146.738 158.988 146.863H158.528L158.491 146.638H158.478C158.358 146.797 158.147 146.909 157.881 146.909C157.475 146.909 157.247 146.613 157.247 146.305C157.247 145.797 157.699 145.535 158.445 145.539V145.505C158.445 145.372 158.391 145.151 158.035 145.151C157.836 145.151 157.628 145.214 157.492 145.301L157.392 144.968C157.541 144.877 157.803 144.789 158.122 144.789C158.768 144.789 158.955 145.201 158.955 145.647V146.376ZM158.458 145.872C158.097 145.868 157.753 145.943 157.753 146.251C157.753 146.451 157.881 146.543 158.043 146.543C158.25 146.543 158.395 146.409 158.445 146.264C158.458 146.226 158.458 146.189 158.458 146.151V145.872Z" fill="#2B2A2A"/>
<path d="M160.053 144.314V144.835H160.538V145.218H160.053V146.114C160.053 146.364 160.12 146.489 160.314 146.489C160.406 146.489 160.455 146.484 160.513 146.468L160.522 146.855C160.447 146.884 160.31 146.909 160.153 146.909C159.962 146.909 159.809 146.847 159.713 146.743C159.601 146.626 159.552 146.439 159.552 146.172V145.218H159.266V144.835H159.552V144.456L160.053 144.314Z" fill="#2B2A2A"/>
<path d="M160.924 143.906H161.434V145.11H161.442C161.504 145.014 161.591 144.935 161.695 144.881C161.799 144.823 161.919 144.789 162.047 144.789C162.391 144.789 162.752 145.018 162.752 145.668V146.864H162.242V145.722C162.242 145.431 162.134 145.206 161.852 145.206C161.653 145.206 161.513 145.339 161.454 145.493C161.438 145.539 161.434 145.593 161.434 145.647V146.864H160.924V143.906Z" fill="#2B2A2A"/>
<path d="M163.917 147.026L164.924 144.006H165.281L164.269 147.026H163.917Z" fill="#2B2A2A"/>
<path d="M166.43 144.098C166.625 144.06 166.906 144.035 167.201 144.035C167.603 144.035 167.872 144.102 168.063 144.26C168.216 144.389 168.303 144.585 168.303 144.827C168.303 145.189 168.059 145.435 167.794 145.526V145.539C167.997 145.614 168.117 145.81 168.183 146.08C168.274 146.43 168.349 146.755 168.403 146.863H167.881C167.839 146.78 167.769 146.551 167.694 146.201C167.611 145.835 167.483 145.718 167.192 145.71H166.935V146.863H166.43V144.098ZM166.935 145.335H167.238C167.582 145.335 167.794 145.151 167.794 144.872C167.794 144.568 167.582 144.423 167.25 144.423C167.089 144.423 166.985 144.435 166.935 144.448V145.335Z" fill="#2B2A2A"/>
<path d="M169.141 145.993C169.153 146.359 169.435 146.518 169.762 146.518C169.999 146.518 170.164 146.48 170.322 146.426L170.397 146.776C170.223 146.851 169.982 146.905 169.692 146.905C169.037 146.905 168.651 146.501 168.651 145.88C168.651 145.318 168.991 144.789 169.638 144.789C170.293 144.789 170.509 145.331 170.509 145.776C170.509 145.872 170.5 145.947 170.492 145.993H169.141ZM170.028 145.635C170.032 145.447 169.949 145.139 169.609 145.139C169.294 145.139 169.161 145.426 169.141 145.635H170.028Z" fill="#2B2A2A"/>
<path d="M172.486 146.376C172.486 146.559 172.495 146.738 172.519 146.863H172.059L172.022 146.638H172.01C171.889 146.797 171.678 146.909 171.413 146.909C171.006 146.909 170.778 146.613 170.778 146.305C170.778 145.797 171.23 145.535 171.976 145.539V145.505C171.976 145.372 171.922 145.151 171.566 145.151C171.367 145.151 171.16 145.214 171.023 145.301L170.923 144.968C171.073 144.877 171.334 144.789 171.653 144.789C172.3 144.789 172.486 145.201 172.486 145.647V146.376ZM171.989 145.872C171.628 145.868 171.284 145.943 171.284 146.251C171.284 146.451 171.413 146.543 171.574 146.543C171.782 146.543 171.927 146.409 171.976 146.264C171.989 146.226 171.989 146.189 171.989 146.151V145.872Z" fill="#2B2A2A"/>
<path d="M173.025 143.906H173.535V146.864H173.025V143.906Z" fill="#2B2A2A"/>
<path d="M174.634 144.273C174.634 144.423 174.522 144.548 174.343 144.548C174.173 144.548 174.062 144.423 174.062 144.273C174.062 144.115 174.178 143.994 174.348 143.994C174.522 143.994 174.629 144.115 174.634 144.273ZM174.091 146.864V144.836H174.6V146.864H174.091Z" fill="#2B2A2A"/>
<path d="M174.961 146.569L175.72 145.594C175.823 145.469 175.91 145.369 176.014 145.252V145.244H175.036V144.836H176.636V145.148L175.898 146.102C175.798 146.223 175.703 146.34 175.599 146.448V146.456H176.661V146.864H174.961V146.569Z" fill="#2B2A2A"/>
<path d="M177.349 145.993C177.361 146.359 177.643 146.518 177.97 146.518C178.207 146.518 178.372 146.48 178.53 146.426L178.605 146.776C178.431 146.851 178.19 146.905 177.9 146.905C177.245 146.905 176.859 146.501 176.859 145.88C176.859 145.318 177.199 144.789 177.846 144.789C178.501 144.789 178.717 145.331 178.717 145.776C178.717 145.872 178.708 145.947 178.7 145.993H177.349ZM178.236 145.635C178.24 145.447 178.157 145.139 177.817 145.139C177.502 145.139 177.369 145.426 177.349 145.635H178.236Z" fill="#2B2A2A"/>
<path d="M180.989 143.906V146.293C180.989 146.501 180.997 146.726 181.005 146.864H180.554L180.529 146.543H180.52C180.4 146.768 180.156 146.909 179.865 146.909C179.38 146.909 178.999 146.497 178.999 145.872C178.995 145.193 179.418 144.789 179.903 144.789C180.181 144.789 180.38 144.902 180.471 145.052H180.479V143.906H180.989ZM180.479 145.681C180.479 145.639 180.475 145.585 180.467 145.543C180.421 145.347 180.259 145.185 180.027 145.185C179.7 145.185 179.517 145.477 179.517 145.851C179.517 146.226 179.7 146.497 180.023 146.497C180.23 146.497 180.413 146.355 180.462 146.135C180.475 146.089 180.479 146.039 180.479 145.985V145.681Z" fill="#2B2A2A"/>
<path d="M182.903 146.864L181.999 144.057H182.555L182.936 145.335C183.044 145.689 183.139 146.014 183.21 146.356H183.218C183.292 146.023 183.396 145.681 183.504 145.34L183.91 144.057H184.453L183.487 146.864H182.903Z" fill="#2B2A2A"/>
<path d="M186.145 146.376C186.145 146.559 186.154 146.738 186.179 146.863H185.718L185.681 146.638H185.669C185.548 146.797 185.337 146.909 185.072 146.909C184.666 146.909 184.438 146.613 184.438 146.305C184.438 145.797 184.889 145.535 185.636 145.539V145.505C185.636 145.372 185.582 145.151 185.225 145.151C185.026 145.151 184.819 145.214 184.682 145.301L184.583 144.968C184.732 144.877 184.993 144.789 185.312 144.789C185.959 144.789 186.145 145.201 186.145 145.647V146.376ZM185.648 145.872C185.287 145.868 184.943 145.943 184.943 146.251C184.943 146.451 185.072 146.543 185.233 146.543C185.441 146.543 185.586 146.409 185.636 146.264C185.648 146.226 185.648 146.189 185.648 146.151V145.872Z" fill="#2B2A2A"/>
<path d="M186.685 143.906H187.194V146.864H186.685V143.906Z" fill="#2B2A2A"/>
<path d="M189.557 146.256C189.557 146.498 189.565 146.698 189.574 146.864H189.13L189.105 146.56H189.093C189.006 146.702 188.807 146.91 188.442 146.91C188.077 146.91 187.741 146.689 187.741 146.027V144.836H188.251V145.94C188.251 146.277 188.359 146.494 188.628 146.494C188.836 146.494 188.968 146.352 189.018 146.219C189.039 146.177 189.047 146.119 189.047 146.06V144.836H189.557V146.256Z" fill="#2B2A2A"/>
<path d="M190.469 145.993C190.481 146.359 190.763 146.518 191.09 146.518C191.327 146.518 191.493 146.48 191.65 146.426L191.725 146.776C191.551 146.851 191.31 146.905 191.02 146.905C190.365 146.905 189.979 146.501 189.979 145.88C189.979 145.318 190.319 144.789 190.966 144.789C191.621 144.789 191.837 145.331 191.837 145.776C191.837 145.872 191.828 145.947 191.82 145.993H190.469ZM191.356 145.635C191.36 145.447 191.277 145.139 190.937 145.139C190.622 145.139 190.489 145.426 190.469 145.635H191.356Z" fill="#2B2A2A"/>
<path d="M166.832 165.931C166.716 165.985 166.467 166.052 166.144 166.052C165.302 166.052 164.788 165.523 164.788 164.707C164.788 163.828 165.397 163.299 166.21 163.299C166.529 163.299 166.753 163.365 166.853 163.42L166.749 163.807C166.625 163.753 166.446 163.703 166.231 163.703C165.692 163.703 165.302 164.044 165.302 164.686C165.302 165.277 165.642 165.648 166.227 165.648C166.417 165.648 166.625 165.606 166.753 165.552L166.832 165.931Z" fill="#2B2A2A"/>
<path d="M167.723 163.338V164.896C167.723 165.416 167.939 165.658 168.266 165.658C168.619 165.658 168.826 165.416 168.826 164.896V163.338H169.311V164.862C169.311 165.687 168.888 166.049 168.25 166.049C167.636 166.049 167.238 165.704 167.238 164.867V163.338H167.723Z" fill="#2B2A2A"/>
<path d="M169.858 165.477C170.011 165.569 170.252 165.648 170.501 165.648C170.807 165.648 170.981 165.502 170.981 165.285C170.981 165.081 170.849 164.965 170.513 164.844C170.074 164.686 169.792 164.452 169.792 164.069C169.792 163.628 170.156 163.303 170.733 163.303C171.019 163.303 171.23 163.365 171.367 163.436L171.251 163.828C171.151 163.778 170.969 163.703 170.72 163.703C170.414 163.703 170.281 163.865 170.281 164.023C170.281 164.227 170.434 164.323 170.791 164.461C171.251 164.636 171.471 164.869 171.471 165.252C171.471 165.685 171.147 166.056 170.467 166.056C170.186 166.056 169.891 165.977 169.746 165.885L169.858 165.477Z" fill="#2B2A2A"/>
<path d="M172.416 163.746H171.657V163.338H173.664V163.746H172.901V166.008H172.416V163.746Z" fill="#2B2A2A"/>
<path d="M176.226 164.645C176.226 165.54 175.687 166.049 174.958 166.049C174.203 166.049 173.73 165.47 173.73 164.691C173.73 163.866 174.249 163.287 174.995 163.287C175.766 163.291 176.226 163.879 176.226 164.645ZM174.24 164.678C174.24 165.224 174.514 165.657 174.978 165.657C175.447 165.657 175.712 165.216 175.712 164.657C175.712 164.153 175.463 163.679 174.978 163.679C174.497 163.683 174.24 164.128 174.24 164.678Z" fill="#2B2A2A"/>
<path d="M178.882 164.916C178.866 164.571 178.845 164.154 178.849 163.796H178.837C178.75 164.121 178.638 164.483 178.522 164.817L178.132 165.974H177.763L177.406 164.833C177.303 164.492 177.208 164.129 177.137 163.796H177.129C177.116 164.146 177.1 164.567 177.083 164.933L177.025 166.008H176.573L176.752 163.338H177.39L177.738 164.413C177.833 164.725 177.916 165.041 177.983 165.337H177.995C178.066 165.05 178.157 164.721 178.26 164.408L178.625 163.338H179.255L179.409 166.008H178.936L178.882 164.916Z" fill="#2B2A2A"/>
<path d="M181.383 164.825H180.38V165.608H181.499V166.008H179.895V163.338H181.441V163.738H180.38V164.425H181.383V164.825Z" fill="#2B2A2A"/>
<path d="M181.926 163.379C182.113 163.341 182.378 163.32 182.66 163.32C183.041 163.32 183.298 163.383 183.481 163.533C183.626 163.654 183.709 163.841 183.709 164.07C183.709 164.416 183.476 164.649 183.224 164.736V164.749C183.418 164.82 183.53 165.007 183.593 165.265C183.68 165.599 183.75 165.907 183.8 166.011H183.302C183.265 165.932 183.195 165.715 183.124 165.382C183.045 165.032 182.925 164.924 182.647 164.916H182.403V166.011H181.922V163.379H181.926ZM182.407 164.553H182.693C183.02 164.553 183.219 164.378 183.219 164.112C183.219 163.824 183.02 163.683 182.701 163.683C182.548 163.683 182.448 163.695 182.403 163.708V164.553H182.407Z" fill="#2B2A2A"/>
<path d="M184.972 165.477C185.126 165.569 185.366 165.648 185.615 165.648C185.922 165.648 186.096 165.502 186.096 165.285C186.096 165.081 185.963 164.965 185.627 164.844C185.188 164.686 184.906 164.452 184.906 164.069C184.906 163.628 185.271 163.303 185.847 163.303C186.133 163.303 186.344 163.365 186.481 163.436L186.365 163.828C186.266 163.778 186.083 163.703 185.835 163.703C185.528 163.703 185.395 163.865 185.395 164.023C185.395 164.227 185.549 164.323 185.905 164.461C186.365 164.636 186.585 164.869 186.585 165.252C186.585 165.685 186.262 166.056 185.582 166.056C185.3 166.056 185.005 165.977 184.86 165.885L184.972 165.477Z" fill="#2B2A2A"/>
<path d="M187.506 163.338V164.896C187.506 165.416 187.721 165.658 188.049 165.658C188.401 165.658 188.608 165.416 188.608 164.896V163.338H189.093V164.862C189.093 165.687 188.67 166.049 188.032 166.049C187.418 166.049 187.021 165.704 187.021 164.867V163.338H187.506Z" fill="#2B2A2A"/>
<path d="M191.552 165.931C191.435 165.985 191.187 166.052 190.863 166.052C190.022 166.052 189.508 165.523 189.508 164.707C189.508 163.828 190.117 163.299 190.93 163.299C191.249 163.299 191.473 163.365 191.572 163.42L191.469 163.807C191.344 163.753 191.166 163.703 190.95 163.703C190.412 163.703 190.022 164.044 190.022 164.686C190.022 165.277 190.362 165.648 190.946 165.648C191.137 165.648 191.344 165.606 191.473 165.552L191.552 165.931Z" fill="#2B2A2A"/>
<path d="M193.765 165.931C193.649 165.985 193.401 166.052 193.077 166.052C192.236 166.052 191.722 165.523 191.722 164.707C191.722 163.828 192.331 163.299 193.144 163.299C193.463 163.299 193.687 163.365 193.786 163.42L193.683 163.807C193.558 163.753 193.38 163.703 193.164 163.703C192.625 163.703 192.236 164.044 192.236 164.686C192.236 165.277 192.576 165.648 193.16 165.648C193.351 165.648 193.558 165.606 193.687 165.552L193.765 165.931Z" fill="#2B2A2A"/>
<path d="M195.664 164.825H194.661V165.608H195.78V166.008H194.176V163.338H195.722V163.738H194.661V164.425H195.664V164.825Z" fill="#2B2A2A"/>
<path d="M196.194 165.477C196.348 165.569 196.588 165.648 196.837 165.648C197.144 165.648 197.318 165.502 197.318 165.285C197.318 165.081 197.185 164.965 196.849 164.844C196.41 164.686 196.128 164.452 196.128 164.069C196.128 163.628 196.493 163.303 197.069 163.303C197.355 163.303 197.567 163.365 197.703 163.436L197.587 163.828C197.488 163.778 197.305 163.703 197.057 163.703C196.75 163.703 196.621 163.865 196.621 164.023C196.621 164.227 196.775 164.323 197.131 164.461C197.592 164.636 197.815 164.869 197.815 165.252C197.815 165.685 197.492 166.056 196.812 166.056C196.53 166.056 196.236 165.977 196.091 165.885L196.194 165.477Z" fill="#2B2A2A"/>
<path d="M198.242 165.477C198.396 165.569 198.636 165.648 198.885 165.648C199.192 165.648 199.366 165.502 199.366 165.285C199.366 165.081 199.233 164.965 198.897 164.844C198.458 164.686 198.176 164.452 198.176 164.069C198.176 163.628 198.541 163.303 199.117 163.303C199.403 163.303 199.614 163.365 199.751 163.436L199.635 163.828C199.536 163.778 199.353 163.703 199.105 163.703C198.798 163.703 198.669 163.865 198.669 164.023C198.669 164.227 198.823 164.323 199.179 164.461C199.639 164.636 199.863 164.869 199.863 165.252C199.863 165.685 199.54 166.056 198.86 166.056C198.578 166.056 198.284 165.977 198.139 165.885L198.242 165.477Z" fill="#2B2A2A"/>
<path d="M201.46 163.746H200.701V163.338H202.708V163.746H201.945V166.008H201.46V163.746Z" fill="#2B2A2A"/>
<path d="M204.503 164.825H203.5V165.608H204.619V166.008H203.015V163.338H204.561V163.738H203.5V164.425H204.503V164.825Z" fill="#2B2A2A"/>
<path d="M205.576 165.25L205.348 166.008H204.847L205.697 163.338H206.314L207.176 166.008H206.654L206.414 165.25H205.576ZM206.339 164.883L206.132 164.225C206.082 164.063 206.036 163.879 205.999 163.725H205.991C205.954 163.879 205.908 164.067 205.866 164.225L205.663 164.883H206.339Z" fill="#2B2A2A"/>
<path d="M209.78 164.916C209.763 164.571 209.742 164.154 209.747 163.796H209.734C209.647 164.121 209.535 164.483 209.419 164.817L209.029 165.974H208.66L208.304 164.833C208.2 164.492 208.105 164.129 208.034 163.796H208.026C208.014 164.146 207.997 164.567 207.981 164.933L207.923 166.008H207.471L207.649 163.338H208.287L208.636 164.413C208.731 164.725 208.814 165.041 208.88 165.337H208.893C208.963 165.05 209.054 164.721 209.158 164.408L209.523 163.338H210.153L210.306 166.008H209.834L209.78 164.916Z" fill="#2B2A2A"/>
<path d="M168.649 79.738L168.421 80.496H167.919L168.769 77.8262H169.386L170.249 80.496H169.726L169.486 79.738H168.649ZM169.407 79.3714L169.2 78.7134C169.15 78.5509 169.105 78.3676 169.067 78.2135H169.059C169.022 78.3676 168.976 78.5551 168.935 78.7134L168.731 79.3714H169.407Z" fill="#721121"/>
<path d="M172.442 80.4175C172.326 80.4717 172.077 80.5383 171.754 80.5383C170.908 80.5383 170.398 80.0094 170.398 79.193C170.398 78.3141 171.008 77.7852 171.82 77.7852C172.14 77.7852 172.363 77.8518 172.463 77.9059L172.359 78.2933C172.235 78.2392 172.057 78.1892 171.841 78.1892C171.302 78.1892 170.912 78.5307 170.912 79.1722C170.912 79.7636 171.252 80.1343 171.837 80.1343C172.032 80.1343 172.235 80.0927 172.363 80.0385L172.442 80.4175Z" fill="#721121"/>
<path d="M173.441 78.2344H172.683V77.8262H174.689V78.2344H173.926V80.496H173.441V78.2344Z" fill="#721121"/>
<path d="M175.484 77.8262V80.496H174.999V77.8262H175.484Z" fill="#721121"/>
<path d="M176.645 80.4921L175.787 77.8223H176.314L176.674 79.0385C176.778 79.3759 176.869 79.6841 176.935 80.009H176.944C177.014 79.6924 177.114 79.3675 177.217 79.0427L177.603 77.8223H178.121L177.205 80.4921H176.645Z" fill="#721121"/>
<path d="M179.891 79.3092H178.887V80.0923H180.007V80.4921H178.402V77.8223H179.949V78.2221H178.887V78.9094H179.891V79.3092Z" fill="#721121"/>
<path d="M170.021 85.1656C169.905 85.2197 169.656 85.2864 169.333 85.2864C168.492 85.2864 167.978 84.7574 167.978 83.941C167.978 83.0622 168.587 82.5332 169.399 82.5332C169.719 82.5332 169.943 82.5998 170.042 82.654L169.938 83.0414C169.814 82.9872 169.636 82.9372 169.42 82.9372C168.881 82.9372 168.492 83.2788 168.492 83.9202C168.492 84.5117 168.832 84.8824 169.416 84.8824C169.607 84.8824 169.814 84.8407 169.943 84.7866L170.021 85.1656Z" fill="#721121"/>
<path d="M170.913 82.5742V84.132C170.913 84.6526 171.128 84.8942 171.456 84.8942C171.808 84.8942 172.015 84.6526 172.015 84.132V82.5742H172.5V84.0987C172.5 84.9234 172.078 85.2857 171.439 85.2857C170.826 85.2857 170.428 84.94 170.428 84.1028V82.5742H170.913Z" fill="#721121"/>
<path d="M173.047 84.7113C173.2 84.803 173.44 84.8821 173.689 84.8821C173.996 84.8821 174.17 84.7363 174.17 84.5197C174.17 84.3198 174.037 84.199 173.701 84.0782C173.262 83.9199 172.98 83.6867 172.98 83.3035C172.98 82.862 173.345 82.5371 173.921 82.5371C174.207 82.5371 174.419 82.5996 174.555 82.6704L174.439 83.0619C174.34 83.0119 174.158 82.937 173.909 82.937C173.602 82.937 173.469 83.0994 173.469 83.2577C173.469 83.4618 173.623 83.5576 173.979 83.6992C174.439 83.8741 174.659 84.1074 174.659 84.4906C174.659 84.9238 174.336 85.2945 173.656 85.2945C173.374 85.2945 173.08 85.2153 172.935 85.1237L173.047 84.7113Z" fill="#721121"/>
<path d="M175.609 82.9824H174.851V82.5742H176.857V82.9824H176.094V85.2441H175.609V82.9824Z" fill="#721121"/>
<path d="M179.415 83.8793C179.415 84.7748 178.876 85.283 178.146 85.283C177.392 85.283 176.919 84.704 176.919 83.9251C176.919 83.1004 177.437 82.5215 178.183 82.5215C178.954 82.5256 179.415 83.1171 179.415 83.8793ZM177.429 83.9168C177.429 84.4625 177.702 84.8956 178.167 84.8956C178.635 84.8956 178.901 84.4541 178.901 83.896C178.901 83.392 178.652 82.9172 178.167 82.9172C177.686 82.9172 177.429 83.367 177.429 83.9168Z" fill="#721121"/>
<path d="M182.072 84.1528C182.055 83.8071 182.034 83.3906 182.039 83.0324H182.026C181.939 83.3573 181.827 83.7196 181.711 84.0528L181.321 85.2108H180.952L180.596 84.0695C180.492 83.728 180.397 83.3656 180.326 83.0324H180.318C180.306 83.3823 180.289 83.8029 180.273 84.1695L180.215 85.2441H179.763L179.941 82.5742H180.579L180.928 83.6488C181.023 83.9612 181.106 84.2778 181.172 84.5735H181.185C181.255 84.2861 181.346 83.9571 181.45 83.6447L181.815 82.5742H182.445L182.598 85.2441H182.126L182.072 84.1528Z" fill="#721121"/>
<path d="M184.571 84.0573H183.568V84.8403H184.687V85.2402H183.083V82.5703H184.629V82.9702H183.568V83.6574H184.571V84.0573Z" fill="#721121"/>
<path d="M185.114 82.613C185.301 82.5755 185.566 82.5547 185.848 82.5547C186.23 82.5547 186.487 82.6172 186.669 82.7671C186.814 82.8879 186.897 83.0753 186.897 83.3044C186.897 83.6501 186.665 83.8834 186.412 83.9708V83.9833C186.607 84.0541 186.719 84.2416 186.781 84.4998C186.868 84.833 186.939 85.1413 186.988 85.2454H186.491C186.453 85.1662 186.383 84.9497 186.313 84.6164C186.234 84.2666 186.114 84.1583 185.836 84.1499H185.591V85.2454H185.11V82.613H185.114ZM185.595 83.7917H185.881C186.209 83.7917 186.408 83.6168 186.408 83.3502C186.408 83.0628 186.209 82.9212 185.89 82.9212C185.736 82.9212 185.637 82.9337 185.591 82.9462V83.7917H185.595Z" fill="#721121"/>
<path d="M207.509 68.5977H207.994V70.8593H209.084V71.2675H207.509V68.5977Z" fill="#721121"/>
<path d="M211.651 69.9008C211.651 70.7963 211.112 71.3045 210.382 71.3045C209.628 71.3045 209.155 70.7255 209.155 69.9466C209.155 69.1219 209.673 68.543 210.42 68.543C211.195 68.5471 211.651 69.1386 211.651 69.9008ZM209.669 69.9383C209.669 70.4839 209.943 70.9171 210.407 70.9171C210.876 70.9171 211.141 70.4756 211.141 69.9175C211.141 69.4135 210.892 68.9387 210.407 68.9387C209.926 68.9387 209.669 69.3885 209.669 69.9383Z" fill="#721121"/>
<path d="M212.542 71.2636V70.1515L211.705 68.5938H212.261L212.576 69.2768C212.667 69.4768 212.733 69.6267 212.808 69.8058H212.816C212.878 69.635 212.953 69.4684 213.044 69.2768L213.363 68.5938H213.91L213.027 70.139V71.2636H212.542Z" fill="#721121"/>
<path d="M214.391 70.5095L214.163 71.2675H213.661L214.511 68.5977H215.129L215.991 71.2675H215.469L215.228 70.5095H214.391ZM215.154 70.1388L214.946 69.4807C214.896 69.3182 214.851 69.135 214.814 68.9808H214.805C214.768 69.135 214.722 69.3224 214.681 69.4807L214.478 70.1388H215.154Z" fill="#721121"/>
<path d="M216.363 68.5977H216.848V70.8593H217.939V71.2675H216.363V68.5977Z" fill="#721121"/>
<path d="M209.412 75.9371C209.296 75.9912 209.047 76.0579 208.724 76.0579C207.882 76.0579 207.368 75.5289 207.368 74.7125C207.368 73.8337 207.978 73.3047 208.79 73.3047C209.109 73.3047 209.333 73.3713 209.433 73.4255L209.329 73.8128C209.205 73.7587 209.026 73.7087 208.811 73.7087C208.272 73.7087 207.882 74.0503 207.882 74.6917C207.882 75.2832 208.222 75.6538 208.807 75.6538C208.997 75.6538 209.205 75.6122 209.333 75.558L209.412 75.9371Z" fill="#721121"/>
<path d="M210.303 73.3457V74.9035C210.303 75.4241 210.519 75.6657 210.846 75.6657C211.199 75.6657 211.406 75.4241 211.406 74.9035V73.3457H211.891V74.8702C211.891 75.6949 211.468 76.0572 210.83 76.0572C210.216 76.0572 209.818 75.7115 209.818 74.8743V73.3457H210.303Z" fill="#721121"/>
<path d="M212.438 75.4828C212.591 75.5744 212.832 75.6536 213.081 75.6536C213.387 75.6536 213.562 75.5078 213.562 75.2912C213.562 75.0913 213.429 74.9705 213.093 74.8497C212.654 74.6914 212.372 74.4582 212.372 74.075C212.372 73.6335 212.737 73.3086 213.313 73.3086C213.599 73.3086 213.81 73.3711 213.947 73.4419L213.831 73.8334C213.732 73.7834 213.549 73.7084 213.3 73.7084C212.994 73.7084 212.861 73.8709 212.861 74.0292C212.861 74.2333 213.014 74.3291 213.371 74.4707C213.831 74.6456 214.051 74.8789 214.051 75.2621C214.051 75.6952 213.727 76.0659 213.048 76.0659C212.766 76.0659 212.471 75.9868 212.326 75.8952L212.438 75.4828Z" fill="#721121"/>
<path d="M214.996 73.75H214.237V73.3418H216.244V73.75H215.481V76.0117H214.996V73.75Z" fill="#721121"/>
<path d="M218.806 74.6489C218.806 75.5444 218.267 76.0525 217.538 76.0525C216.783 76.0525 216.311 75.4736 216.311 74.6947C216.311 73.87 216.829 73.291 217.575 73.291C218.346 73.2952 218.806 73.8866 218.806 74.6489ZM216.82 74.6864C216.82 75.232 217.094 75.6652 217.558 75.6652C218.027 75.6652 218.292 75.2237 218.292 74.6655C218.292 74.1615 218.043 73.6867 217.558 73.6867C217.077 73.6867 216.82 74.1365 216.82 74.6864Z" fill="#721121"/>
<path d="M221.462 74.9243C221.446 74.5786 221.425 74.1621 221.429 73.8039H221.417C221.33 74.1288 221.218 74.4911 221.102 74.8243L220.712 75.9823H220.343L219.987 74.841C219.883 74.4995 219.788 74.1371 219.717 73.8039H219.709C219.696 74.1537 219.68 74.5744 219.663 74.941L219.605 76.0156H219.153L219.332 73.3457H219.97L220.318 74.4203C220.414 74.7327 220.496 75.0493 220.563 75.345H220.575C220.646 75.0576 220.737 74.7285 220.841 74.4162L221.205 73.3457H221.835L221.989 76.0156H221.516L221.462 74.9243Z" fill="#721121"/>
<path d="M223.963 74.8288H222.96V75.6118H224.079V76.0117H222.475V73.3418H224.021V73.7417H222.96V74.4289H223.963V74.8288Z" fill="#721121"/>
<path d="M224.506 73.3825C224.693 73.345 224.958 73.3242 225.24 73.3242C225.621 73.3242 225.878 73.3867 226.061 73.5366C226.206 73.6574 226.289 73.8449 226.289 74.0739C226.289 74.4197 226.057 74.6529 225.804 74.7404V74.7529C225.998 74.8237 226.11 75.0111 226.173 75.2693C226.26 75.6026 226.33 75.9108 226.38 76.0149H225.882C225.845 75.9358 225.775 75.7192 225.704 75.386C225.625 75.0361 225.505 74.9278 225.227 74.9195H224.983V76.0149H224.502V73.3825H224.506ZM224.987 74.5571H225.273C225.601 74.5571 225.8 74.3822 225.8 74.1156C225.8 73.8282 225.601 73.6866 225.281 73.6866C225.128 73.6866 225.028 73.6991 224.983 73.7116V74.5571H224.987Z" fill="#721121"/>
<path d="M48.453 133.127C48.6147 133.223 48.8675 133.306 49.1287 133.306C49.4521 133.306 49.6345 133.152 49.6345 132.923C49.6345 132.711 49.4935 132.586 49.1411 132.456C48.6768 132.29 48.3825 132.044 48.3825 131.64C48.3825 131.178 48.7639 130.832 49.3733 130.832C49.6759 130.832 49.8956 130.899 50.0407 130.974L49.9205 131.386C49.8169 131.332 49.622 131.253 49.3609 131.253C49.0375 131.253 48.9007 131.423 48.9007 131.59C48.9007 131.807 49.0624 131.907 49.4355 132.052C49.9205 132.236 50.1526 132.481 50.1526 132.885C50.1526 133.339 49.8127 133.731 49.0955 133.731C48.7971 133.731 48.4903 133.648 48.3369 133.552L48.453 133.127Z" fill="#721121"/>
<path d="M51.1232 130.879V133.686H50.6133V130.879H51.1232Z" fill="#721121"/>
<path d="M53.9452 133.557C53.7669 133.624 53.4187 133.715 53.0498 133.715C52.5772 133.715 52.2165 133.594 51.9512 133.34C51.7025 133.103 51.5615 132.732 51.5615 132.307C51.5657 131.416 52.1916 130.85 53.1161 130.85C53.4602 130.85 53.7296 130.92 53.8581 130.983L53.7462 131.395C53.5928 131.324 53.4063 131.274 53.1119 131.274C52.515 131.274 52.0963 131.628 52.0963 132.282C52.0963 132.92 52.486 133.299 53.0663 133.299C53.2529 133.299 53.3855 133.274 53.4519 133.245V132.541H52.9586V132.137H53.9452V133.557Z" fill="#721121"/>
<path d="M54.4639 133.686V130.879H55.0484L55.7697 132.083C55.9521 132.395 56.1179 132.72 56.2464 133.024H56.2547C56.2174 132.649 56.2091 132.287 56.2091 131.858V130.879H56.6817V133.686H56.1511L55.4215 132.449C55.2432 132.141 55.0608 131.799 54.924 131.483L54.9074 131.487C54.9282 131.849 54.9365 132.22 54.9365 132.682V133.686H54.4639Z" fill="#721121"/>
<path d="M58.6339 130.879V132.516C58.6339 133.066 58.8619 133.32 59.206 133.32C59.575 133.32 59.7947 133.066 59.7947 132.516V130.879H60.3046V132.482C60.3046 133.349 59.861 133.732 59.1894 133.732C58.5427 133.732 58.124 133.37 58.124 132.487V130.879H58.6339Z" fill="#721121"/>
<path d="M60.8896 130.916C61.0762 130.882 61.3291 130.857 61.669 130.857C62.0421 130.857 62.3116 130.937 62.4898 131.087C62.6556 131.224 62.7634 131.445 62.7634 131.707C62.7634 131.974 62.6805 132.19 62.5271 132.34C62.3199 132.544 62.0048 132.644 61.6441 132.644C61.5488 132.644 61.4659 132.64 61.3954 132.623V133.686H60.8896V130.916ZM61.3954 132.219C61.4617 132.24 61.5405 132.244 61.6441 132.244C62.0255 132.244 62.2577 132.053 62.2577 131.728C62.2577 131.416 62.0421 131.253 61.6897 131.253C61.5488 131.253 61.4493 131.266 61.3954 131.278V132.219Z" fill="#721121"/>
<path d="M63.8086 133.848L64.816 130.828H65.1725L64.161 133.848H63.8086Z" fill="#721121"/>
<path d="M66.6885 131.308H65.8926V130.879H68.0027V131.308H67.1984V133.686H66.6885V131.308Z" fill="#721121"/>
<path d="M68.3311 130.92C68.5259 130.882 68.8078 130.857 69.1021 130.857C69.5042 130.857 69.7737 130.924 69.9644 131.082C70.1178 131.211 70.2048 131.407 70.2048 131.649C70.2048 132.011 69.9602 132.257 69.6949 132.349V132.361C69.8981 132.436 70.0183 132.632 70.0846 132.903C70.1758 133.252 70.2504 133.577 70.3043 133.686H69.782C69.7405 133.602 69.6701 133.373 69.5954 133.023C69.5125 132.657 69.384 132.54 69.0938 132.532H68.8368V133.686H68.3311V130.92ZM68.8368 132.157H69.1394C69.4835 132.157 69.6949 131.974 69.6949 131.695C69.6949 131.391 69.4835 131.245 69.1519 131.245C68.9902 131.245 68.8866 131.257 68.8368 131.27V132.157Z" fill="#721121"/>
<path d="M71.1993 130.879V133.686H70.6895V130.879H71.1993Z" fill="#721121"/>
<path d="M72.3441 132.891L72.1036 133.686H71.5771L72.4726 130.879H73.1234L74.0313 133.686H73.4799L73.2271 132.891H72.3441ZM73.1442 132.503L72.9244 131.812C72.8705 131.641 72.825 131.45 72.7835 131.287H72.7752C72.7337 131.45 72.6881 131.645 72.6425 131.812L72.427 132.503H73.1442Z" fill="#721121"/>
<path d="M74.4209 130.879H74.9308V133.257H76.0791V133.686H74.4209V130.879Z" fill="#721121"/>
<path d="M25.5158 155.37C25.3956 155.428 25.1302 155.495 24.7903 155.495C23.9032 155.495 23.3643 154.937 23.3643 154.079C23.3643 153.154 24.0068 152.596 24.8608 152.596C25.1966 152.596 25.4329 152.667 25.5365 152.721L25.4287 153.129C25.2961 153.071 25.1095 153.021 24.8815 153.021C24.3136 153.021 23.9032 153.379 23.9032 154.054C23.9032 154.674 24.2597 155.066 24.8774 155.066C25.0805 155.066 25.2961 155.024 25.4329 154.966L25.5158 155.37Z" fill="#721121"/>
<path d="M28.3224 154.016C28.3224 154.958 27.7544 155.495 26.9875 155.495C26.1957 155.495 25.6982 154.887 25.6982 154.066C25.6982 153.2 26.2413 152.592 27.029 152.592C27.8415 152.592 28.3224 153.212 28.3224 154.016ZM26.2372 154.054C26.2372 154.629 26.5232 155.083 27.0124 155.083C27.5057 155.083 27.7834 154.62 27.7834 154.033C27.7834 153.504 27.5223 153.004 27.0124 153.004C26.5066 153.004 26.2372 153.475 26.2372 154.054Z" fill="#721121"/>
<path d="M28.7578 155.45V152.643H29.3423L30.0637 153.846C30.2461 154.159 30.4119 154.484 30.5404 154.788H30.5487C30.5114 154.413 30.5031 154.05 30.5031 153.621V152.643H30.9757V155.45H30.445L29.7154 154.213C29.5372 153.905 29.3548 153.563 29.218 153.247L29.2014 153.251C29.2221 153.613 29.2304 153.984 29.2304 154.446V155.45H28.7578Z" fill="#721121"/>
<path d="M32.0987 153.072H31.3027V152.643H33.4128V153.072H32.6086V155.45H32.0987V153.072Z" fill="#721121"/>
<path d="M35.3031 154.205H34.2501V155.029H35.4275V155.45H33.7402V152.643H35.3653V153.063H34.2501V153.788H35.3031V154.205Z" fill="#721121"/>
<path d="M35.8711 155.45V152.643H36.4556L37.1769 153.846C37.3593 154.159 37.5252 154.484 37.6537 154.788H37.662C37.6246 154.413 37.6164 154.05 37.6164 153.621V152.643H38.0889V155.45H37.5583L36.8287 154.213C36.6505 153.905 36.468 153.563 36.3312 153.247L36.3147 153.251C36.3354 153.613 36.3437 153.984 36.3437 154.446V155.45H35.8711Z" fill="#721121"/>
<path d="M39.2129 153.072H38.417V152.643H40.5271V153.072H39.7228V155.45H39.2129V153.072Z" fill="#721121"/>
<path d="M17.506 180.978C17.5641 181.099 17.6304 181.365 17.6304 181.707C17.6304 182.598 17.0749 183.14 16.2209 183.14C15.3006 183.14 14.7451 182.494 14.7451 181.636C14.7451 181.299 14.8156 181.061 14.8695 180.957L15.2757 181.065C15.2177 181.199 15.168 181.386 15.168 181.615C15.168 182.186 15.5245 182.598 16.196 182.598C16.8137 182.598 17.2034 182.24 17.2034 181.619C17.2034 181.415 17.162 181.199 17.1039 181.061L17.506 180.978Z" fill="#721121"/>
<path d="M14.7949 180.027H15.9142V178.84H14.7949V178.328H17.589V178.84H16.3578V180.027H17.589V180.54H14.7949V180.027Z" fill="#721121"/>
<path d="M16.7923 177.178L17.5841 177.419V177.948L14.79 177.049V176.395L17.5841 175.482V176.036L16.7923 176.29V177.178ZM16.4068 176.374L15.7186 176.595C15.5487 176.649 15.358 176.694 15.1963 176.736V176.744C15.358 176.786 15.5528 176.832 15.7186 176.878L16.4068 177.094V176.374Z" fill="#721121"/>
<path d="M17.5841 175.096H14.79V174.508L15.9881 173.784C16.299 173.6 16.6224 173.434 16.925 173.305V173.296C16.5519 173.334 16.1912 173.342 15.7642 173.342H14.79V172.867H17.5841V173.4L16.3529 174.133C16.0461 174.312 15.7062 174.496 15.3911 174.633L15.3953 174.65C15.7559 174.629 16.1249 174.621 16.585 174.621H17.5841V175.096Z" fill="#721121"/>
<path d="M17.5841 172.281H14.79V171.694L15.9881 170.969C16.299 170.786 16.6224 170.619 16.925 170.49V170.482C16.5519 170.519 16.1912 170.528 15.7642 170.528H14.79V170.053H17.5841V170.586L16.3529 171.319C16.0461 171.498 15.7062 171.681 15.3911 171.819L15.3953 171.835C15.7559 171.815 16.1249 171.806 16.585 171.806H17.5841V172.281Z" fill="#721121"/>
<path d="M16.3446 167.891V168.949H17.1654V167.766H17.5841V169.461H14.79V167.828H15.2087V168.949H15.9301V167.891H16.3446Z" fill="#721121"/>
<path d="M14.7949 167.315V166.802H17.162V165.648H17.589V167.315H14.7949Z" fill="#721121"/>
<path d="M17.0293 165.27C17.1246 165.108 17.2076 164.854 17.2076 164.591C17.2076 164.266 17.0542 164.083 16.8262 164.083C16.6147 164.083 16.4904 164.225 16.3619 164.579C16.196 165.045 15.9515 165.341 15.5493 165.341C15.0892 165.341 14.7451 164.958 14.7451 164.346C14.7451 164.041 14.8114 163.821 14.8861 163.675L15.2965 163.796C15.2426 163.9 15.1638 164.096 15.1638 164.358C15.1638 164.683 15.3338 164.82 15.4996 164.82C15.7152 164.82 15.8147 164.658 15.9598 164.283C16.1422 163.796 16.3867 163.562 16.7889 163.562C17.2407 163.562 17.6304 163.904 17.6304 164.625C17.6304 164.925 17.5475 165.233 17.4521 165.387L17.0293 165.27Z" fill="#721121"/>
<path d="M60.4086 147.813L59.5049 145.006H60.0604L60.4418 146.285C60.5496 146.639 60.6449 146.963 60.7154 147.305H60.7237C60.7983 146.972 60.9019 146.63 61.0097 146.289L61.416 145.006H61.959L60.9931 147.813H60.4086Z" fill="#721121"/>
<path d="M62.7716 145.006V147.813H62.2617V145.006H62.7716Z" fill="#721121"/>
<path d="M63.3475 147.256C63.5092 147.352 63.7621 147.435 64.0232 147.435C64.3466 147.435 64.529 147.281 64.529 147.052C64.529 146.839 64.388 146.714 64.0357 146.585C63.5714 146.419 63.277 146.173 63.277 145.769C63.277 145.307 63.6584 144.961 64.2678 144.961C64.5704 144.961 64.7902 145.028 64.9353 145.103L64.815 145.515C64.7114 145.461 64.5166 145.382 64.2554 145.382C63.932 145.382 63.7952 145.552 63.7952 145.719C63.7952 145.936 63.9569 146.036 64.33 146.181C64.815 146.365 65.0472 146.61 65.0472 147.014C65.0472 147.468 64.7072 147.86 63.9901 147.86C63.6916 147.86 63.3848 147.777 63.2314 147.681L63.3475 147.256Z" fill="#721121"/>
<path d="M66.0177 145.006V147.813H65.5078V145.006H66.0177Z" fill="#721121"/>
<path d="M67.1368 145.435H66.3408V145.006H68.4509V145.435H67.6467V147.813H67.1368V145.435Z" fill="#721121"/>
<path d="M68.7372 147.256C68.8988 147.352 69.1517 147.435 69.4129 147.435C69.7362 147.435 69.9186 147.281 69.9186 147.052C69.9186 146.839 69.7777 146.714 69.4253 146.585C68.961 146.419 68.6667 146.173 68.6667 145.769C68.6667 145.307 69.0481 144.961 69.6575 144.961C69.9601 144.961 70.1798 145.028 70.3249 145.103L70.2047 145.515C70.101 145.461 69.9062 145.382 69.645 145.382C69.3217 145.382 69.1849 145.552 69.1849 145.719C69.1849 145.936 69.3466 146.036 69.7197 146.181C70.2047 146.365 70.4368 146.61 70.4368 147.014C70.4368 147.468 70.0969 147.86 69.3797 147.86C69.0812 147.86 68.7745 147.777 68.6211 147.681L68.7372 147.256Z" fill="#721121"/>
<path d="M23.6592 167.92C23.8457 167.886 24.0986 167.861 24.4385 167.861C24.8116 167.861 25.0811 167.94 25.2593 168.09C25.4252 168.228 25.533 168.449 25.533 168.711C25.533 168.978 25.45 169.194 25.2967 169.344C25.0894 169.548 24.7743 169.648 24.4137 169.648C24.3183 169.648 24.2354 169.644 24.1649 169.627V170.689H23.6592V167.92ZM24.1649 169.219C24.2313 169.24 24.31 169.244 24.4137 169.244C24.7951 169.244 25.0272 169.053 25.0272 168.728C25.0272 168.415 24.8116 168.253 24.4593 168.253C24.3183 168.253 24.2188 168.265 24.1649 168.278V169.219Z" fill="#721121"/>
<path d="M26.2425 169.889L26.0021 170.684H25.4756L26.371 167.877H27.0219L27.9297 170.684H27.3784L27.1255 169.889H26.2425ZM27.0426 169.501L26.8229 168.81C26.769 168.639 26.7234 168.448 26.6819 168.285H26.6736C26.6322 168.448 26.5866 168.643 26.541 168.81L26.3254 169.501H27.0426Z" fill="#721121"/>
<path d="M28.8283 167.883V170.69H28.3184V167.883H28.8283Z" fill="#721121"/>
<path d="M29.4131 167.92C29.6411 167.886 29.923 167.861 30.2256 167.861C30.7479 167.861 31.1045 167.97 31.3615 168.186C31.6351 168.407 31.8009 168.744 31.8009 169.219C31.8009 169.723 31.6309 170.094 31.3656 170.335C31.0879 170.59 30.6443 170.719 30.1012 170.719C29.8069 170.719 29.5831 170.702 29.4131 170.681V167.92ZM29.923 170.298C29.9935 170.31 30.1012 170.31 30.2049 170.31C30.8682 170.315 31.262 169.944 31.262 169.232C31.2661 168.615 30.9096 168.257 30.2712 168.257C30.1095 168.257 29.9976 168.27 29.923 168.286V170.298Z" fill="#721121"/>
<path d="M26.1378 186.053C26.1378 186.995 25.5698 187.532 24.8029 187.532C24.0111 187.532 23.5137 186.924 23.5137 186.103C23.5137 185.237 24.0567 184.629 24.8444 184.629C25.6569 184.633 26.1378 185.25 26.1378 186.053ZM24.0526 186.091C24.0526 186.666 24.3386 187.12 24.8278 187.12C25.3211 187.12 25.5989 186.657 25.5989 186.07C25.5989 185.541 25.3377 185.041 24.8278 185.041C24.322 185.045 24.0526 185.512 24.0526 186.091Z" fill="#721121"/>
<path d="M27 185.109H26.2041V184.68H28.3142V185.109H27.5099V187.487H27V185.109Z" fill="#721121"/>
<path d="M29.1515 184.684V185.808H30.333V184.684H30.8429V187.491H30.333V186.254H29.1515V187.491H28.6416V184.684H29.1515Z" fill="#721121"/>
<path d="M32.9906 186.242H31.9376V187.066H33.115V187.487H31.4277V184.68H33.0528V185.1H31.9376V185.825H32.9906V186.242Z" fill="#721121"/>
<path d="M33.5625 184.725C33.7573 184.687 34.0392 184.662 34.3336 184.662C34.7357 184.662 35.0051 184.729 35.1958 184.887C35.3492 185.016 35.4363 185.212 35.4363 185.454C35.4363 185.816 35.1917 186.062 34.9264 186.153V186.166C35.1295 186.241 35.2497 186.436 35.3161 186.707C35.4073 187.057 35.4819 187.382 35.5358 187.49H35.0134C34.972 187.407 34.9015 187.178 34.8269 186.828C34.744 186.461 34.6155 186.345 34.3253 186.337H34.0683V187.49H33.5625V184.725ZM34.0683 185.957H34.3709C34.715 185.957 34.9264 185.774 34.9264 185.495C34.9264 185.191 34.715 185.045 34.3833 185.045C34.2216 185.045 34.118 185.058 34.0683 185.07V185.957Z" fill="#721121"/>
<path d="M35.913 186.928C36.0746 187.024 36.3275 187.107 36.5887 187.107C36.912 187.107 37.0944 186.953 37.0944 186.724C37.0944 186.511 36.9535 186.386 36.6011 186.257C36.1368 186.091 35.8425 185.845 35.8425 185.441C35.8425 184.978 36.2239 184.633 36.8333 184.633C37.1359 184.633 37.3556 184.699 37.5007 184.774L37.3805 185.187C37.2768 185.133 37.082 185.053 36.8208 185.053C36.4975 185.053 36.3607 185.224 36.3607 185.391C36.3607 185.607 36.5223 185.707 36.8954 185.853C37.3805 186.036 37.6126 186.282 37.6126 186.686C37.6126 187.14 37.2727 187.532 36.5555 187.532C36.257 187.532 35.9503 187.448 35.7969 187.353L35.913 186.928Z" fill="#721121"/>
<path d="M105.856 122.703C106.026 122.673 106.25 122.648 106.556 122.648C106.892 122.648 107.137 122.719 107.294 122.857C107.443 122.982 107.539 123.177 107.539 123.415C107.539 123.656 107.464 123.848 107.327 123.985C107.141 124.169 106.859 124.26 106.531 124.26C106.444 124.26 106.37 124.256 106.308 124.244V125.202H105.852V122.703H105.856ZM106.312 123.877C106.37 123.894 106.444 123.898 106.536 123.898C106.88 123.898 107.087 123.727 107.087 123.431C107.087 123.152 106.892 123.002 106.577 123.002C106.449 123.002 106.361 123.015 106.312 123.023V123.877Z" fill="#2B2A2A"/>
<path d="M110.056 125.601C109.703 125.505 109.392 125.397 109.073 125.276C109.019 125.255 108.965 125.243 108.907 125.239C108.327 125.21 107.805 124.776 107.805 123.956C107.805 123.173 108.286 122.623 109.007 122.623C109.736 122.623 110.168 123.185 110.168 123.902C110.168 124.51 109.886 124.918 109.517 125.068V125.085C109.732 125.143 109.977 125.197 110.18 125.235L110.056 125.601ZM109.687 123.923C109.687 123.444 109.45 122.998 108.994 122.998C108.534 122.998 108.294 123.435 108.294 123.943C108.294 124.452 108.551 124.868 108.99 124.868C109.434 124.868 109.687 124.452 109.687 123.923Z" fill="#2B2A2A"/>
<path d="M110.564 122.668H111.025V124.809H112.057V125.196H110.564V122.668Z" fill="#2B2A2A"/>
<path d="M86.2023 92.1678H28.3392C24.3844 92.1678 21.1758 88.9481 21.1758 84.9704V68.4513C21.1758 64.4777 24.3803 61.2539 28.3392 61.2539H86.1982C90.153 61.2539 93.3617 64.4777 93.3617 68.4513V84.9704C93.3617 88.944 90.1572 92.1678 86.2023 92.1678Z" fill="#B44659" stroke="white" stroke-width="0.467005" stroke-miterlimit="10"/>
<path d="M86.6957 89.4727L95.8697 109.182L75.4033 90.1807L86.6957 89.4727Z" fill="#B44659" stroke="white" stroke-width="0.467005" stroke-miterlimit="10"/>
<path d="M165.333 204.238V198.84" stroke="#590D1A" stroke-width="0.467005" stroke-miterlimit="10"/>
<path d="M165.332 198.762L164.648 199.782H166.012L165.332 198.762Z" fill="#590D1A" stroke="#590D1A" stroke-width="0.467005" stroke-miterlimit="10"/>
<path d="M189.255 161.808V156.41" stroke="#590D1A" stroke-width="0.467005" stroke-miterlimit="10"/>
<path d="M189.255 156.332L188.575 157.353H189.939L189.255 156.332Z" fill="#590D1A" stroke="#590D1A" stroke-width="0.467005" stroke-miterlimit="10"/>
<path d="M29.9071 71.0713V70.8378H29.6736H28.4728V70.5343H31.803V70.8378H30.5898H30.3563V71.0713V75.1196H29.9071V71.0713Z" fill="#231F20" stroke="white" stroke-width="0.467005"/>
<path d="M35.5756 73.1951V75.115H35.1265V73.2951C35.1265 73.0099 35.0746 72.7245 34.9261 72.5036C34.7682 72.2685 34.5181 72.1327 34.1924 72.1327C33.9907 72.1327 33.8149 72.191 33.6694 72.2846C33.7581 72.1612 33.8766 72.0567 34.013 71.9866L34.0131 71.9868L34.0201 71.9828C34.1744 71.8967 34.351 71.8458 34.5406 71.8458C34.7982 71.8458 35.0501 71.9312 35.2382 72.1267C35.4257 72.3216 35.5756 72.653 35.5756 73.1951ZM33.4503 72.4248H33.4972C33.3887 72.5347 33.3074 72.6658 33.2567 72.8003L33.2566 72.8003L33.2547 72.8059C33.2129 72.9259 33.2044 73.0524 33.2044 73.1618V75.1191H32.7552V70.2589H33.2002V72.1913V72.4248H33.4337H33.4503Z" fill="#231F20" stroke="white" stroke-width="0.467005"/>
<path d="M37.4348 73.5537H37.1938L37.2014 73.7946C37.2138 74.1898 37.3772 74.4937 37.6405 74.693C37.8961 74.8864 38.2253 74.9662 38.554 74.9662C38.8866 74.9662 39.1495 74.9279 39.3858 74.8652L39.4241 75.0468C39.1595 75.1335 38.8228 75.1948 38.4255 75.1948C37.8857 75.1948 37.4814 75.0287 37.2124 74.7593C36.9432 74.4897 36.7853 74.0923 36.7853 73.5831C36.7853 73.1216 36.9255 72.6851 37.1848 72.3686C37.4398 72.0573 37.8183 71.8507 38.3302 71.8507C38.8438 71.8507 39.1644 72.0582 39.3649 72.3403C39.5732 72.6334 39.6637 73.026 39.6637 73.3957C39.6637 73.4528 39.6617 73.5058 39.6585 73.5537H37.4348ZM39.0308 73.3751H39.2586L39.2642 73.1474C39.2691 72.9488 39.2291 72.6766 39.0847 72.4457C38.9316 72.2007 38.6681 72.0168 38.2763 72.0168C37.9102 72.0168 37.644 72.1877 37.4711 72.4134C37.3041 72.6316 37.2243 72.8987 37.2024 73.1185L37.1769 73.3751H37.4348H39.0308Z" fill="#231F20" stroke="white" stroke-width="0.467005"/>
<path d="M42.863 74.9493V76.6068H42.4139V72.9167C42.4139 72.5421 42.4038 72.2201 42.3935 71.934H42.7403L42.7685 72.2817L42.7859 72.4963H43.0012H43.0178H43.1387C43.0245 72.6301 42.9392 72.7926 42.8947 72.9733L42.8946 72.9733L42.8934 72.9787C42.8748 73.0631 42.8589 73.1645 42.8589 73.2624V73.8247V74.0582H42.8786C42.881 74.0767 42.8836 74.095 42.8863 74.1133L42.8881 74.1249L42.891 74.1364C43.0109 74.6078 43.4222 74.9579 43.9298 74.9579C44.2934 74.9579 44.5939 74.8015 44.7966 74.5306C44.994 74.2668 45.0877 73.9107 45.0877 73.5165C45.0877 73.1593 45.0011 72.8149 44.8127 72.5529C44.619 72.2834 44.3241 72.1126 43.9505 72.1126C43.6441 72.1126 43.3609 72.2497 43.1599 72.4722L43.2133 72.3905C43.4373 72.0476 43.7847 71.8507 44.2656 71.8507C44.9423 71.8507 45.5618 72.4326 45.5618 73.479C45.5618 74.0888 45.3715 74.5171 45.1085 74.7914C44.8442 75.0671 44.4918 75.2031 44.1371 75.2031C43.7428 75.2031 43.4446 75.0341 43.3098 74.8235L43.2409 74.7158H43.1131H43.0965H42.863V74.9493Z" fill="#231F20" stroke="white" stroke-width="0.467005"/>
<path d="M47.5868 72.4689C47.7305 72.0592 48.0608 71.8627 48.3476 71.8548V72.25C48.333 72.2498 48.3183 72.2498 48.3033 72.2498C48.0012 72.2498 47.7463 72.3598 47.5605 72.5437L47.5868 72.4689ZM47.2283 73.4579V75.1237H46.7791V72.879C46.7791 72.5017 46.7743 72.2015 46.7628 71.9337H47.0871L47.1125 72.4042L47.1245 72.6251H47.3457H47.3664H47.4867C47.3723 72.7657 47.2922 72.939 47.2535 73.1333C47.2323 73.2398 47.2283 73.3543 47.2283 73.4579Z" fill="#231F20" stroke="white" stroke-width="0.467005"/>
<path d="M52.3562 73.4918C52.3562 74.1035 52.1437 74.5233 51.8469 74.7921C51.5457 75.0648 51.1381 75.1992 50.7242 75.1992C50.2663 75.1992 49.8727 75.0426 49.5944 74.7674C49.3171 74.4932 49.1378 74.085 49.1378 73.5501C49.1378 73.0024 49.3156 72.5808 49.5987 72.2967C49.8821 72.0124 50.29 71.8469 50.7859 71.8468C51.2673 71.8487 51.6553 72.0196 51.9234 72.3C52.1924 72.5813 52.3562 72.9894 52.3562 73.4918ZM49.616 73.5293C49.616 73.9172 49.7127 74.2771 49.9041 74.5469C50.0993 74.8219 50.3926 74.9998 50.7532 74.9998C51.0992 74.9998 51.3883 74.8283 51.583 74.5543C51.7743 74.2851 51.8738 73.9207 51.8738 73.5126C51.8738 73.1983 51.8051 72.8462 51.6359 72.5641C51.4615 72.2734 51.1731 72.0504 50.7615 72.0504C50.3446 72.0504 50.0464 72.261 49.8632 72.555C49.6865 72.8387 49.616 73.1971 49.616 73.5293Z" fill="#231F20" stroke="white" stroke-width="0.467005"/>
<path d="M56.0075 72.0872V70.2589H56.4608V74.3238C56.4608 74.5975 56.4695 74.8855 56.479 75.1191H56.1267L56.098 74.7553L56.0811 74.5402H55.8652H55.8487H55.7601C55.8614 74.4147 55.9367 74.2626 55.9763 74.0906C56.0025 73.9845 56.0117 73.8778 56.0117 73.7657V73.2201V72.9866H55.9912C55.9888 72.9692 55.9863 72.9523 55.9837 72.9361L55.9824 72.9286L55.9807 72.9211C55.8771 72.4787 55.5054 72.0952 54.9615 72.0952C54.5881 72.0952 54.2902 72.2658 54.0933 72.5389C53.9016 72.8047 53.8118 73.1566 53.8118 73.5283C53.8118 73.9001 53.9017 74.2448 54.0955 74.5027C54.2948 74.7678 54.5921 74.9239 54.9574 74.9239C55.2169 74.9239 55.4575 74.8288 55.6428 74.6634L55.6426 74.6638C55.4723 74.983 55.1177 75.1983 54.6672 75.1983C53.9532 75.1983 53.342 74.5957 53.342 73.5658L53.342 73.5642C53.3344 72.4452 54.0154 71.85 54.7335 71.85C55.174 71.85 55.4454 72.0276 55.5592 72.2105L55.6277 72.3207H55.7575H55.774H56.0075V72.0872Z" fill="#231F20" stroke="white" stroke-width="0.467005"/>
<path d="M57.8937 73.8443V71.9327H58.3428V73.686C58.3428 74.0076 58.393 74.3089 58.537 74.5366C58.6922 74.7819 58.9394 74.915 59.2562 74.915C59.5278 74.915 59.7451 74.8125 59.9044 74.6684L59.8951 74.6834C59.7656 74.8923 59.4745 75.2019 58.9204 75.2019C58.6371 75.2019 58.3909 75.1178 58.2135 74.9285C58.0345 74.7374 57.8937 74.4052 57.8937 73.8443ZM60.0936 74.5729H59.9968C60.0756 74.4801 60.1343 74.3774 60.172 74.277C60.227 74.1593 60.2442 74.0204 60.2442 73.9026V71.9327H60.6933V74.2566V74.4901H60.699C60.7021 74.7218 60.7092 74.931 60.7166 75.1186H60.3747L60.347 74.787L60.3291 74.5729H60.1143H60.0936Z" fill="#231F20" stroke="white" stroke-width="0.467005"/>
<path d="M64.2898 74.869L64.3303 75.0906C64.1467 75.1458 63.8779 75.1946 63.5671 75.1946C63.0503 75.1946 62.6447 75.0288 62.369 74.7544C62.0934 74.4801 61.9269 74.0768 61.9269 73.5621C61.9269 73.0679 62.0944 72.6445 62.3917 72.3454C62.6881 72.0471 63.1312 71.8546 63.7164 71.8546C63.9354 71.8546 64.156 71.89 64.3276 71.938L64.2718 72.1721C64.1278 72.1331 63.9551 72.1082 63.7454 72.1082C63.3341 72.1082 62.9894 72.2616 62.7505 72.527C62.5143 72.7894 62.3964 73.1444 62.4009 73.526M62.4009 73.526C62.4009 73.5255 62.4009 73.525 62.4009 73.5246H62.6344L62.4009 73.5275C62.4009 73.527 62.4009 73.5265 62.4009 73.526Z" fill="#231F20" stroke="white" stroke-width="0.467005"/>
<path d="M65.5326 72.1526H65.2521V71.9282H65.5326H65.7661V71.6947V71.1893L66.2028 71.0686V71.6989V71.9324H66.4363H67.0775V72.1568H66.4363H66.2028V72.3903V74.0022C66.2028 74.2372 66.232 74.4642 66.3446 74.6361C66.4721 74.831 66.6739 74.9105 66.9048 74.9105C66.952 74.9105 66.9945 74.9098 67.0341 74.9082L67.0401 75.1599C66.9307 75.1813 66.7831 75.1974 66.6146 75.1974C66.3205 75.1974 66.1146 75.102 65.9939 74.9721L65.9939 74.972L65.9899 74.9679C65.8528 74.8273 65.7661 74.5693 65.7661 74.1022V72.3861V72.1526H65.5326Z" fill="#231F20" stroke="white" stroke-width="0.467005"/>
<path d="M70.2936 70.6831C70.2921 70.822 70.195 70.9419 70.0048 70.9419C69.8318 70.9419 69.7325 70.8265 69.7325 70.6798C69.7325 70.5244 69.8363 70.4093 70.0131 70.4093C70.1105 70.4093 70.1752 70.4425 70.2166 70.4848C70.2591 70.5282 70.2903 70.5949 70.2936 70.6831ZM69.7823 75.1196V71.9337H70.2314V75.1196H69.7823Z" fill="#231F20" stroke="white" stroke-width="0.467005"/>
<path d="M73.3945 71.963L73.3398 72.1522C73.165 72.0878 72.9486 72.0376 72.7214 72.0376C72.5201 72.0376 72.3364 72.0888 72.1981 72.2016C72.0555 72.318 71.9821 72.4837 71.9821 72.6626C71.9821 72.7505 71.9985 72.8387 72.0417 72.923C72.0845 73.0065 72.1465 73.0721 72.2172 73.1259C72.3497 73.2268 72.5407 73.3059 72.7693 73.3899L72.7693 73.39L72.7724 73.3911C73.0843 73.5008 73.2831 73.6259 73.4048 73.765C73.5211 73.8979 73.5827 74.0611 73.5865 74.2847C73.586 74.5523 73.4851 74.7695 73.2951 74.9246C73.0998 75.084 72.7887 75.1948 72.3442 75.1948C72.0246 75.1948 71.7352 75.1348 71.5147 75.0472L71.5733 74.8353C71.8034 74.9298 72.0896 75.0037 72.3483 75.0037C72.5779 75.0037 72.7809 74.9556 72.9316 74.8398C73.091 74.7172 73.1622 74.5417 73.1622 74.3579C73.1622 74.1737 73.1002 74.0159 72.952 73.886C72.8235 73.7734 72.6376 73.6894 72.4132 73.6059L72.4132 73.6058L72.407 73.6037C72.0775 73.4914 71.8673 73.3524 71.7411 73.2101C71.6183 73.0717 71.5662 72.9208 71.5662 72.7584C71.5662 72.5035 71.6693 72.2829 71.8554 72.1227C72.0435 71.9609 72.3293 71.8507 72.7048 71.8507C72.9767 71.8507 73.2169 71.8988 73.3945 71.963Z" fill="#231F20" stroke="white" stroke-width="0.467005"/>
<path d="M76.265 72.1526H75.9845V71.9282H76.265H76.4985V71.6947V71.1893L76.9352 71.0686V71.6989V71.9324H77.1687H77.8099V72.1568H77.1687H76.9352V72.3903V74.0022C76.9352 74.2372 76.9645 74.4642 77.077 74.6361C77.2045 74.831 77.4063 74.9105 77.6372 74.9105C77.6844 74.9105 77.7269 74.9098 77.7665 74.9082L77.7725 75.1599C77.6631 75.1813 77.5155 75.1974 77.347 75.1974C77.053 75.1974 76.847 75.102 76.7263 74.9721L76.7263 74.972L76.7224 74.9679C76.5852 74.8273 76.4985 74.5693 76.4985 74.1022V72.3861V72.1526H76.265Z" fill="#231F20" stroke="white" stroke-width="0.467005"/>
<path d="M81.7944 73.1951V75.115H81.3452V73.2951C81.3452 73.0099 81.2933 72.7245 81.1449 72.5036C80.9869 72.2685 80.7369 72.1327 80.4111 72.1327C80.2095 72.1327 80.0337 72.191 79.8882 72.2846C79.9769 72.1612 80.0953 72.0567 80.2317 71.9866L80.2318 71.9868L80.2389 71.9828C80.3931 71.8967 80.5698 71.8458 80.7593 71.8458C81.0169 71.8458 81.2689 71.9312 81.457 72.1267C81.6444 72.3216 81.7944 72.653 81.7944 73.1951ZM79.6691 72.4248H79.7159C79.6075 72.5347 79.5262 72.6658 79.4755 72.8003L79.4754 72.8003L79.4734 72.8059C79.4316 72.9259 79.4231 73.0524 79.4231 73.1618V75.1191H78.974V70.2589H79.419V72.1913V72.4248H79.6525H79.6691Z" fill="#231F20" stroke="white" stroke-width="0.467005"/>
<path d="M83.6516 73.5537H83.4106L83.4182 73.7946C83.4306 74.1898 83.594 74.4937 83.8573 74.693C84.1129 74.8864 84.4421 74.9662 84.7708 74.9662C85.1034 74.9662 85.3663 74.9279 85.6026 74.8652L85.6409 75.0468C85.3763 75.1335 85.0396 75.1948 84.6423 75.1948C84.1025 75.1948 83.6982 75.0287 83.4292 74.7593C83.16 74.4897 83.0021 74.0923 83.0021 73.5831C83.0021 73.1216 83.1423 72.6851 83.4016 72.3686C83.6566 72.0573 84.0351 71.8507 84.547 71.8507C85.0605 71.8507 85.3812 72.0582 85.5816 72.3403C85.79 72.6334 85.8805 73.026 85.8805 73.3957C85.8805 73.4528 85.8785 73.5058 85.8753 73.5537H83.6516ZM85.2476 73.3751H85.4754L85.481 73.1474C85.4859 72.9488 85.4459 72.6766 85.3015 72.4457C85.1483 72.2007 84.8849 72.0168 84.4931 72.0168C84.127 72.0168 83.8608 72.1877 83.6879 72.4134C83.5209 72.6316 83.4411 72.8987 83.4192 73.1185L83.3937 73.3751H83.6516H85.2476Z" fill="#231F20" stroke="white" stroke-width="0.467005"/>
<path d="M40.6555 81.0498H40.4145L40.4221 81.2907C40.4345 81.6859 40.5979 81.9898 40.8612 82.1891C41.1168 82.3825 41.446 82.4623 41.7747 82.4623C42.1073 82.4623 42.3702 82.424 42.6065 82.3613L42.6448 82.5429C42.3802 82.6296 42.0435 82.6909 41.6462 82.6909C41.1064 82.6909 40.7021 82.5248 40.4331 82.2554C40.1639 81.9858 40.006 81.5884 40.006 81.0792C40.006 80.6177 40.1462 80.1812 40.4055 79.8647C40.6605 79.5534 41.039 79.3468 41.5509 79.3468C42.0645 79.3468 42.3851 79.5543 42.5856 79.8364C42.7939 80.1295 42.8844 80.5221 42.8844 80.8918C42.8844 80.9489 42.8824 81.0019 42.8792 81.0498H40.6555ZM42.2556 80.8712H42.4835L42.4891 80.6435C42.4939 80.4449 42.454 80.1727 42.3096 79.9417C42.1564 79.6968 41.893 79.5129 41.5011 79.5129C41.1351 79.5129 40.8688 79.6838 40.696 79.9095C40.5289 80.1277 40.4491 80.3948 40.4272 80.6146L40.4017 80.8712H40.6596H42.2556Z" fill="#231F20" stroke="white" stroke-width="0.467005"/>
<path d="M45.7056 79.9916L46.0398 79.4308H46.4595L45.4957 80.8175L45.4059 80.9467L45.4919 81.0784L46.4957 82.6166H46.0141L45.6428 82.0007L45.6428 82.0006L45.6418 81.999C45.5263 81.811 45.426 81.6216 45.3226 81.4223L45.2573 81.2962H45.1153H45.0988H44.9541L44.8897 81.4257C44.8201 81.5657 44.7485 81.6904 44.6719 81.8237C44.6383 81.8822 44.6038 81.9423 44.5681 82.006L44.2174 82.6166H43.7769L44.7905 81.1192L44.8792 80.9882L44.7904 80.8572L43.823 79.4308H44.281L44.6432 80.0115C44.7612 80.2037 44.8629 80.3795 44.9649 80.564L45.0315 80.6845H45.1692H45.1858H45.3291L45.394 80.5567C45.4952 80.3574 45.5963 80.1746 45.7055 79.9917L45.7056 79.9916Z" fill="#231F20" stroke="white" stroke-width="0.467005"/>
<path d="M48.1648 82.4454V84.1029H47.7156V80.4128C47.7156 80.0382 47.7056 79.7162 47.6953 79.4301H48.042L48.0702 79.7778L48.0876 79.9924H48.303H48.3195H48.4446C48.3304 80.1262 48.2451 80.2887 48.2006 80.4694L48.2005 80.4694L48.1993 80.4748C48.1807 80.5592 48.1648 80.6606 48.1648 80.7585V81.3208V81.5543H48.1846C48.1869 81.5728 48.1895 81.5911 48.1922 81.6094L48.194 81.621L48.1969 81.6325C48.3168 82.1039 48.7281 82.454 49.2357 82.454C49.5993 82.454 49.8998 82.2976 50.1025 82.0267C50.2999 81.7629 50.3936 81.4067 50.3936 81.0126C50.3936 80.6554 50.307 80.311 50.1186 80.049C49.9249 79.7795 49.63 79.6087 49.2564 79.6087C48.9418 79.6087 48.6517 79.7532 48.4499 79.9862L48.515 79.8866C48.7391 79.5437 49.0865 79.3468 49.5673 79.3468C50.2441 79.3468 50.8635 79.9286 50.8635 80.9751C50.8635 81.5849 50.6732 82.0132 50.4103 82.2875C50.146 82.5632 49.7935 82.6992 49.4388 82.6992C49.0445 82.6992 48.7464 82.5302 48.6116 82.3196L48.5427 82.2119H48.4149H48.3983H48.1648V82.4454Z" fill="#231F20" stroke="white" stroke-width="0.467005"/>
<path d="M52.4992 81.0498H52.2582L52.2658 81.2907C52.2783 81.6859 52.4417 81.9898 52.705 82.1891C52.9606 82.3825 53.2897 82.4623 53.6185 82.4623C53.951 82.4623 54.2139 82.424 54.4503 82.3613L54.4886 82.5429C54.224 82.6296 53.8872 82.6909 53.49 82.6909C52.9502 82.6909 52.5458 82.5248 52.2768 82.2554C52.0076 81.9858 51.8497 81.5884 51.8497 81.0792C51.8497 80.6177 51.9899 80.1812 52.2492 79.8647C52.5042 79.5534 52.8827 79.3468 53.3946 79.3468C53.9082 79.3468 54.2288 79.5543 54.4293 79.8364C54.6377 80.1295 54.7281 80.5221 54.7281 80.8918C54.7281 80.9489 54.7261 81.0019 54.723 81.0498H52.4992ZM54.0952 80.8712H54.3231L54.3287 80.6435C54.3335 80.4449 54.2936 80.1727 54.1492 79.9417C53.996 79.6968 53.7326 79.5129 53.3407 79.5129C52.9747 79.5129 52.7084 79.6838 52.5356 79.9095C52.3685 80.1277 52.2887 80.3948 52.2669 80.6146L52.2413 80.8712H52.4992H54.0952Z" fill="#231F20" stroke="white" stroke-width="0.467005"/>
<path d="M56.7401 79.965C56.8838 79.5553 57.2141 79.3588 57.5009 79.3509V79.7461C57.4864 79.7459 57.4716 79.7459 57.4566 79.7459C57.1545 79.7459 56.8996 79.8559 56.7139 80.0398L56.7401 79.965ZM56.3816 80.954V82.6198H55.9324V80.3751C55.9324 79.9978 55.9277 79.6975 55.9161 79.4298H56.2405L56.2659 79.9003L56.2778 80.1212H56.499H56.5197H56.64C56.5256 80.2618 56.4455 80.4351 56.4068 80.6294C56.3856 80.7359 56.3816 80.8504 56.3816 80.954Z" fill="#231F20" stroke="white" stroke-width="0.467005"/>
<path d="M59.1012 78.1792C59.0997 78.3181 59.0026 78.438 58.8124 78.438C58.6394 78.438 58.5401 78.3226 58.5401 78.1759C58.5401 78.0205 58.6439 77.9054 58.8207 77.9054C58.9181 77.9054 58.9828 77.9386 59.0243 77.9809C59.0667 78.0243 59.0979 78.091 59.1012 78.1792ZM58.5899 82.6157V79.4298H59.039V82.6157H58.5899Z" fill="#231F20" stroke="white" stroke-width="0.467005"/>
<path d="M60.9142 81.0498H60.6733L60.6809 81.2907C60.6933 81.6859 60.8567 81.9898 61.12 82.1891C61.3756 82.3825 61.7048 82.4623 62.0335 82.4623C62.3661 82.4623 62.629 82.424 62.8653 82.3613L62.9036 82.5429C62.639 82.6296 62.3023 82.6909 61.905 82.6909C61.3652 82.6909 60.9609 82.5248 60.6919 82.2554C60.4227 81.9858 60.2648 81.5884 60.2648 81.0792C60.2648 80.6177 60.405 80.1812 60.6643 79.8647C60.9193 79.5534 61.2978 79.3468 61.8097 79.3468C62.3232 79.3468 62.6439 79.5543 62.8443 79.8364C63.0527 80.1295 63.1432 80.5221 63.1432 80.8918C63.1432 80.9489 63.1412 81.0019 63.138 81.0498H60.9142ZM62.5144 80.8712H62.7423L62.7478 80.6435C62.7527 80.4449 62.7128 80.1727 62.5683 79.9417C62.4152 79.6968 62.1518 79.5129 61.7599 79.5129C61.3939 79.5129 61.1276 79.6838 60.9548 79.9095C60.7877 80.1277 60.7079 80.3948 60.686 80.6146L60.6605 80.8712H60.9184H62.5144Z" fill="#231F20" stroke="white" stroke-width="0.467005"/>
<path d="M67.1771 80.6794V82.6118H66.728V80.7835C66.728 80.4984 66.6761 80.2149 66.5285 79.996C66.3714 79.7628 66.1234 79.6295 65.8022 79.6295C65.515 79.6295 65.2851 79.7504 65.1193 79.9192L65.1539 79.8602C65.285 79.6363 65.6082 79.3468 66.1172 79.3468C66.3849 79.3468 66.6438 79.4333 66.8356 79.6277C67.0262 79.8208 67.1771 80.1473 67.1771 80.6794ZM64.9524 79.9757H65.0677C64.9768 80.0824 64.9091 80.2035 64.8661 80.3233C64.8241 80.4333 64.8059 80.5752 64.8059 80.696V82.6159H64.3568V80.2837V80.0502H64.3468C64.3437 79.8246 64.3365 79.6197 64.329 79.4301H64.6712L64.6989 79.7617L64.7168 79.9757H64.9316H64.9524Z" fill="#231F20" stroke="white" stroke-width="0.467005"/>
<path d="M70.7526 82.3651L70.7932 82.5867C70.6096 82.6419 70.3408 82.6906 70.03 82.6906C69.5132 82.6906 69.1076 82.5248 68.8319 82.2505C68.5563 81.9762 68.3898 81.5729 68.3898 81.0581C68.3898 80.564 68.5573 80.1406 68.8546 79.8415C69.151 79.5432 69.5941 79.3507 70.1793 79.3507C70.3983 79.3507 70.6189 79.3861 70.7905 79.4341L70.7347 79.6681C70.5907 79.6292 70.418 79.6043 70.2083 79.6043C69.797 79.6043 69.4523 79.7577 69.2134 80.0231C68.9772 80.2855 68.8593 80.6405 68.8638 81.0221M68.8638 81.0221C68.8638 81.0216 68.8638 81.0211 68.8638 81.0207H69.0973L68.8638 81.0236C68.8638 81.0231 68.8638 81.0226 68.8638 81.0221Z" fill="#231F20" stroke="white" stroke-width="0.467005"/>
<path d="M72.3185 81.0498H72.0776L72.0852 81.2907C72.0976 81.6859 72.261 81.9898 72.5243 82.1891C72.7799 82.3825 73.1091 82.4623 73.4378 82.4623C73.7704 82.4623 74.0333 82.424 74.2696 82.3613L74.3079 82.5429C74.0433 82.6296 73.7066 82.6909 73.3093 82.6909C72.7695 82.6909 72.3652 82.5248 72.0962 82.2554C71.827 81.9858 71.669 81.5884 71.669 81.0792C71.669 80.6177 71.8093 80.1812 72.0686 79.8647C72.3235 79.5534 72.7021 79.3468 73.214 79.3468C73.7275 79.3468 74.0481 79.5543 74.2486 79.8364C74.457 80.1295 74.5475 80.5221 74.5475 80.8918C74.5475 80.9489 74.5454 81.0019 74.5423 81.0498H72.3185ZM73.9146 80.8712H74.1424L74.148 80.6435C74.1529 80.4449 74.1129 80.1727 73.9685 79.9417C73.8153 79.6968 73.5519 79.5129 73.1601 79.5129C72.794 79.5129 72.5278 79.6838 72.3549 79.9095C72.1879 80.1277 72.1081 80.3948 72.0862 80.6146L72.0606 80.8712H72.3185H73.9146Z" fill="#231F20" stroke="white" stroke-width="0.467005"/>
<path d="M48.7463 12.3249C49.3806 12.2125 50.2387 12.125 51.3953 12.125C52.6638 12.125 53.58 12.3957 54.1853 12.9039C54.749 13.3704 55.1138 14.1243 55.1138 15.0156C55.1138 15.9236 54.8319 16.6609 54.3096 17.169C53.6049 17.8646 52.5312 18.202 51.3083 18.202C50.9849 18.202 50.703 18.1895 50.4626 18.1312V21.7424H48.7422V12.3249H48.7463ZM50.4667 16.7608C50.6906 16.8316 50.96 16.8441 51.3124 16.8441C52.61 16.8441 53.3976 16.1944 53.3976 15.0864C53.3976 14.0243 52.6638 13.4703 51.4658 13.4703C50.9849 13.4703 50.6491 13.512 50.4667 13.5537V16.7608Z" fill="#590D1A"/>
<path d="M56.6272 12.3413C57.2905 12.2122 58.2481 12.1289 59.2513 12.1289C60.6193 12.1289 61.5355 12.3538 62.1822 12.8953C62.7045 13.3326 62.9989 13.9991 62.9989 14.8238C62.9989 16.0567 62.1656 16.8939 61.266 17.2021V17.2437C61.9583 17.4978 62.3646 18.1642 62.5926 19.0847C62.9035 20.276 63.1564 21.3798 63.3388 21.7463H61.5604C61.4194 21.4631 61.179 20.6842 60.9261 19.4929C60.6442 18.2475 60.2089 17.8477 59.2181 17.8227H58.3434V21.7463H56.623V12.3413H56.6272ZM58.3476 16.5482H59.3757C60.5447 16.5482 61.266 15.9234 61.266 14.9737C61.266 13.9408 60.5489 13.4451 59.4171 13.4451C58.8658 13.4451 58.5134 13.4868 58.3476 13.5284V16.5482Z" fill="#590D1A"/>
<path d="M73.0845 16.8736C73.0845 20.0767 71.1527 21.901 68.5451 21.901C65.8506 21.901 64.1592 19.8309 64.1592 17.0403C64.1592 14.0955 66.0081 12.0254 68.6861 12.0254C71.447 12.0296 73.0845 14.1413 73.0845 16.8736ZM65.9915 17.0028C65.9915 18.9562 66.9657 20.5015 68.628 20.5015C70.307 20.5015 71.2522 18.9271 71.2522 16.932C71.2522 15.1326 70.365 13.4332 68.628 13.4332C66.9077 13.4332 65.9915 15.0326 65.9915 17.0028Z" fill="#590D1A"/>
<path d="M74.5811 12.3249C75.3563 12.2125 76.3139 12.125 77.3461 12.125C79.1245 12.125 80.335 12.4915 81.2097 13.2288C82.1383 13.9785 82.7063 15.1281 82.7063 16.74C82.7063 18.4561 82.13 19.7139 81.2263 20.5386C80.2811 21.4008 78.7722 21.8423 76.9274 21.8423C75.9242 21.8423 75.1656 21.784 74.5852 21.7132V12.3249H74.5811ZM76.3139 20.4304C76.5543 20.472 76.9191 20.472 77.2715 20.472C79.5267 20.4845 80.8657 19.2266 80.8657 16.8025C80.8781 14.7074 79.6676 13.487 77.4954 13.487C76.944 13.487 76.5668 13.5287 76.3097 13.587V20.4304H76.3139Z" fill="#590D1A"/>
<path d="M85.9313 12.1995V17.7683C85.9313 19.6385 86.7065 20.5007 87.8756 20.5007C89.1316 20.5007 89.8778 19.6385 89.8778 17.7683V12.1995H91.6107V17.6517C91.6107 20.5965 90.1017 21.9002 87.8175 21.9002C85.6162 21.9002 84.1943 20.6673 84.1943 17.6642V12.1953H85.9313V12.1995Z" fill="#590D1A"/>
<path d="M100.416 21.4751C100.006 21.6751 99.1065 21.9 97.9499 21.9C94.9319 21.9 93.0996 20.0007 93.0996 17.085C93.0996 13.9403 95.2843 12.041 98.1903 12.041C99.3303 12.041 100.135 12.2826 100.487 12.4659L100.122 13.8529C99.6703 13.6529 99.036 13.4863 98.2608 13.4863C96.329 13.4863 94.9319 14.7067 94.9319 17.0017C94.9319 19.1135 96.1466 20.4463 98.2442 20.4463C98.9365 20.4463 99.6703 20.3047 100.135 20.1048L100.416 21.4751Z" fill="#590D1A"/>
<path d="M103.998 13.659H101.291V12.2012H108.467V13.659H105.731V21.7477H103.998V13.659Z" fill="#590D1A"/>
<path d="M111.808 17.3691V18.5729H108.214V17.3691H111.808Z" fill="#590D1A"/>
<path d="M113.234 12.2012H114.967V20.2899H118.872V21.7477H113.234V12.2012Z" fill="#590D1A"/>
<path d="M125.505 17.5118H121.923V20.3149H125.928V21.7477H120.19V12.2012H125.716V13.634H121.923V16.0998H125.505V17.5118Z" fill="#590D1A"/>
<path d="M127.448 12.3249C128.223 12.2125 129.181 12.125 130.213 12.125C131.992 12.125 133.202 12.4915 134.077 13.2288C135.01 13.9785 135.573 15.1281 135.573 16.74C135.573 18.4561 134.997 19.7139 134.094 20.5386C133.148 21.4008 131.639 21.8423 129.795 21.8423C128.791 21.8423 128.033 21.784 127.452 21.7132V12.3249H127.448ZM129.185 20.4304C129.426 20.472 129.79 20.472 130.143 20.472C132.398 20.4845 133.737 19.2266 133.737 16.8025C133.749 14.7074 132.539 13.487 130.367 13.487C129.815 13.487 129.438 13.5287 129.181 13.587V20.4304H129.185Z" fill="#590D1A"/>
<path d="M147.613 21.3088C147.007 21.5337 145.822 21.8461 144.566 21.8461C142.957 21.8461 141.73 21.4338 140.83 20.5716C139.985 19.7635 139.504 18.5015 139.504 17.0562C139.516 14.0239 141.647 12.0996 144.789 12.0996C145.958 12.0996 146.875 12.3412 147.314 12.5536L146.933 13.9573C146.41 13.7157 145.776 13.5449 144.777 13.5449C142.746 13.5449 141.324 14.7487 141.324 16.9729C141.324 19.1387 142.65 20.43 144.624 20.43C145.258 20.43 145.71 20.3466 145.934 20.2467V17.8517H144.255V16.4772H147.608V21.3088H147.613Z" fill="#590D1A"/>
<path d="M149.391 12.3413C150.054 12.2122 151.012 12.1289 152.015 12.1289C153.383 12.1289 154.299 12.3538 154.946 12.8953C155.468 13.3326 155.763 13.9991 155.763 14.8238C155.763 16.0567 154.929 16.8939 154.03 17.2021V17.2437C154.722 17.4978 155.128 18.1642 155.356 19.0847C155.667 20.276 155.92 21.3798 156.102 21.7463H154.324C154.183 21.4631 153.943 20.6842 153.69 19.4929C153.408 18.2475 152.973 17.8477 151.982 17.8227H151.107V21.7463H149.387V12.3413H149.391ZM151.111 16.5482H152.139C153.308 16.5482 154.03 15.9234 154.03 14.9737C154.03 13.9408 153.313 13.4451 152.181 13.4451C151.629 13.4451 151.277 13.4868 151.111 13.5284V16.5482Z" fill="#590D1A"/>
<path d="M165.849 16.8736C165.849 20.0767 163.917 21.901 161.31 21.901C158.615 21.901 156.924 19.8309 156.924 17.0403C156.924 14.0955 158.773 12.0254 161.451 12.0254C164.212 12.0296 165.849 14.1413 165.849 16.8736ZM158.756 17.0028C158.756 18.9562 159.73 20.5015 161.393 20.5015C163.072 20.5015 164.017 18.9271 164.017 16.932C164.017 15.1326 163.13 13.4332 161.393 13.4332C159.672 13.4332 158.756 15.0326 158.756 17.0028Z" fill="#590D1A"/>
<path d="M168.842 21.7461L166.517 12.1995H168.365L169.269 16.5354C169.51 17.6975 169.734 18.9137 169.891 19.8634H169.92C170.073 18.8554 170.343 17.7225 170.612 16.5188L171.64 12.1995H173.46L174.406 16.5896C174.629 17.7225 174.841 18.7846 174.982 19.8176H175.011C175.181 18.768 175.405 17.6767 175.657 16.5021L176.644 12.1953H178.406L175.84 21.7419H173.991L173.004 17.2518C172.764 16.1606 172.594 15.2525 172.47 14.2196H172.441C172.287 15.2401 172.101 16.1606 171.819 17.2518L170.72 21.7419H168.842V21.7461Z" fill="#590D1A"/>
<path d="M181.76 13.659H179.053V12.2012H186.229V13.659H183.493V21.7477H181.76V13.659Z" fill="#590D1A"/>
<path d="M189.077 12.2012V16.0248H193.094V12.2012H194.826V21.7477H193.094V17.5409H189.077V21.7477H187.344V12.2012H189.077Z" fill="#590D1A"/>
<path d="M121.1 182.543V177.145" stroke="#590D1A" stroke-width="0.467005" stroke-miterlimit="10"/>
<path d="M121.099 177.07L120.415 178.091H121.783L121.099 177.07Z" fill="#590D1A" stroke="#590D1A" stroke-width="0.467005" stroke-miterlimit="10"/>
<path d="M63.583 110.598V118.032" stroke="#590D1A" stroke-width="0.467005" stroke-miterlimit="10"/>
<path d="M63.5832 118.14L62.9033 116.732H64.2672L63.5832 118.14Z" fill="#590D1A" stroke="#590D1A" stroke-width="0.467005" stroke-miterlimit="10"/>
<path d="M80.2119 133.156L86.3183 137.355" stroke="#590D1A" stroke-width="0.467005" stroke-miterlimit="10"/>
<path d="M86.4052 137.417L84.8672 137.188L85.6383 136.055L86.4052 137.417Z" fill="#590D1A" stroke="#590D1A" stroke-width="0.467005" stroke-miterlimit="10"/>
</svg>
