<svg width="43" height="42" viewBox="0 0 43 42" fill="none" xmlns="http://www.w3.org/2000/svg">
<path d="M10.3956 24.8906H6.77421C4.04688 24.8906 1.83594 27.1016 1.83594 29.8289V36.7425C1.83594 39.4698 4.04687 41.6807 6.7742 41.6807H36.4038C39.1312 41.6807 41.3421 39.4698 41.3421 36.7425V29.8289C41.3421 27.1016 39.1312 24.8906 36.4038 24.8906H32.2886C30.7431 24.8906 29.4903 26.1435 29.4903 27.689C29.4903 29.2345 28.2374 30.4873 26.6919 30.4873H15.9923C14.4468 30.4873 13.194 29.2345 13.194 27.689C13.194 26.1435 11.9411 24.8906 10.3956 24.8906Z" fill="#D4959F"/>
<path d="M9.73438 9.08594H33.4381" stroke="#161616" stroke-width="1.97531" stroke-miterlimit="10" stroke-linecap="round" stroke-linejoin="round"/>
<path d="M9.73438 16.9844H33.4381" stroke="#161616" stroke-width="1.97531" stroke-miterlimit="10" stroke-linecap="round" stroke-linejoin="round"/>
<path d="M1.83594 24.8906H13.6878V30.8166H29.4903V24.8906H41.3421" stroke="#161616" stroke-width="1.97531" stroke-miterlimit="10" stroke-linecap="round" stroke-linejoin="round"/>
<path d="M37.3915 1.1875H5.78655C3.60469 1.1875 1.83594 2.95625 1.83594 5.13812V36.7431C1.83594 38.9249 3.60469 40.6937 5.78655 40.6937H37.3915C39.5734 40.6937 41.3421 38.9249 41.3421 36.7431V5.13812C41.3421 2.95625 39.5734 1.1875 37.3915 1.1875Z" stroke="#161616" stroke-width="1.97531" stroke-miterlimit="10" stroke-linecap="round" stroke-linejoin="round"/>
</svg>
