<svg width="46" height="42" viewBox="0 0 46 42" fill="none" xmlns="http://www.w3.org/2000/svg">
<path d="M30.619 18.4272C30.1144 17.9119 29.5002 17.5169 28.822 17.2715C28.1439 17.0261 27.4191 16.9366 26.7016 17.0097C25.9841 17.0827 25.2923 17.3165 24.6775 17.6935C24.0627 18.0706 23.5407 18.5813 23.1504 19.1877C22.7601 18.5811 22.2382 18.0703 21.6234 17.6931C21.0086 17.3159 20.3167 17.0821 19.5992 17.0091C18.8816 16.936 18.1568 17.0256 17.4786 17.2711C16.8004 17.5166 16.1862 17.9118 15.6817 18.4272C14.7714 19.3582 14.2617 20.6086 14.2617 21.9107C14.2617 23.2128 14.7714 24.4631 15.6817 25.3941L23.1504 32.9843L30.621 25.3951C31.5306 24.4635 32.0397 23.2129 32.0393 21.9108C32.0389 20.6087 31.5292 19.3584 30.619 18.4272Z" fill="#D4959F" stroke="#161616" stroke-width="1.97531" stroke-miterlimit="10" stroke-linecap="round" stroke-linejoin="round"/>
<path d="M40.928 40.6937H5.37249C4.32472 40.6937 3.31987 40.2774 2.57898 39.5366C1.8381 38.7957 1.42188 37.7908 1.42188 36.7431V1.1875H17.2243L22.1626 9.08873H44.8787V36.7431C44.8787 37.7908 44.4624 38.7957 43.7216 39.5366C42.9807 40.2774 41.9758 40.6937 40.928 40.6937Z" stroke="#161616" stroke-width="1.97531" stroke-miterlimit="10" stroke-linecap="round" stroke-linejoin="round"/>
</svg>
