<svg width="539" height="293" viewBox="0 0 539 293" fill="none" xmlns="http://www.w3.org/2000/svg">
<path d="M322.134 63.3037H319.543V61.9434H322.134C322.585 61.9434 322.95 61.8704 323.228 61.7246C323.506 61.5788 323.708 61.3783 323.836 61.123C323.968 60.8633 324.034 60.5671 324.034 60.2344C324.034 59.9199 323.968 59.626 323.836 59.3525C323.708 59.0745 323.506 58.8512 323.228 58.6826C322.95 58.514 322.585 58.4297 322.134 58.4297H320.069V67.0156H318.354V57.0625H322.134C322.904 57.0625 323.558 57.1992 324.096 57.4727C324.638 57.7415 325.05 58.1152 325.333 58.5938C325.616 59.0677 325.757 59.61 325.757 60.2207C325.757 60.8633 325.616 61.4147 325.333 61.875C325.05 62.3353 324.638 62.6885 324.096 62.9346C323.558 63.1807 322.904 63.3037 322.134 63.3037ZM331.581 65.2725V59.6191H333.235V67.0156H331.677L331.581 65.2725ZM331.813 63.7344L332.367 63.7207C332.367 64.2174 332.312 64.6755 332.203 65.0947C332.094 65.5094 331.925 65.8717 331.697 66.1816C331.469 66.487 331.178 66.7262 330.822 66.8994C330.467 67.068 330.041 67.1523 329.544 67.1523C329.184 67.1523 328.854 67.0999 328.553 66.9951C328.252 66.8903 327.992 66.7285 327.773 66.5098C327.559 66.291 327.393 66.0062 327.274 65.6553C327.156 65.3044 327.097 64.8851 327.097 64.3975V59.6191H328.744V64.4111C328.744 64.68 328.776 64.9056 328.84 65.0879C328.904 65.2656 328.99 65.4092 329.1 65.5186C329.209 65.6279 329.337 65.7054 329.482 65.751C329.628 65.7965 329.783 65.8193 329.947 65.8193C330.417 65.8193 330.786 65.7282 331.055 65.5459C331.328 65.359 331.522 65.1084 331.636 64.7939C331.754 64.4795 331.813 64.1263 331.813 63.7344ZM334.931 56.5156H336.578V65.4365L336.421 67.0156H334.931V56.5156ZM341.404 63.249V63.3926C341.404 63.9395 341.343 64.443 341.22 64.9033C341.101 65.359 340.919 65.7555 340.673 66.0928C340.431 66.43 340.131 66.6921 339.771 66.8789C339.415 67.0612 339.003 67.1523 338.533 67.1523C338.073 67.1523 337.672 67.0658 337.33 66.8926C336.988 66.7194 336.701 66.4733 336.469 66.1543C336.241 65.8353 336.056 65.4548 335.915 65.0127C335.774 64.5706 335.674 64.083 335.614 63.5498V63.0918C335.674 62.554 335.774 62.0664 335.915 61.6289C336.056 61.1868 336.241 60.8063 336.469 60.4873C336.701 60.1637 336.986 59.9154 337.323 59.7422C337.665 59.569 338.064 59.4824 338.52 59.4824C338.993 59.4824 339.41 59.5736 339.771 59.7559C340.135 59.9382 340.438 60.1979 340.68 60.5352C340.921 60.8678 341.101 61.2643 341.22 61.7246C341.343 62.1849 341.404 62.693 341.404 63.249ZM339.757 63.3926V63.249C339.757 62.9163 339.729 62.6042 339.675 62.3125C339.62 62.0163 339.529 61.7565 339.401 61.5332C339.278 61.3099 339.11 61.1344 338.896 61.0068C338.686 60.8747 338.424 60.8086 338.109 60.8086C337.818 60.8086 337.567 60.8587 337.357 60.959C337.148 61.0592 336.972 61.196 336.831 61.3691C336.69 61.5423 336.578 61.7428 336.496 61.9707C336.419 62.1986 336.366 62.4447 336.339 62.709V63.9463C336.38 64.2881 336.466 64.6025 336.599 64.8896C336.735 65.1722 336.927 65.4001 337.173 65.5732C337.419 65.7419 337.736 65.8262 338.123 65.8262C338.428 65.8262 338.686 65.7646 338.896 65.6416C339.105 65.5186 339.271 65.3477 339.395 65.1289C339.522 64.9056 339.613 64.6458 339.668 64.3496C339.727 64.0534 339.757 63.7344 339.757 63.3926ZM344.562 56.5156V67.0156H342.908V56.5156H344.562ZM348.131 59.6191V67.0156H346.477V59.6191H348.131ZM346.367 57.6777C346.367 57.4271 346.449 57.2197 346.613 57.0557C346.782 56.887 347.014 56.8027 347.311 56.8027C347.602 56.8027 347.832 56.887 348.001 57.0557C348.17 57.2197 348.254 57.4271 348.254 57.6777C348.254 57.9238 348.17 58.1289 348.001 58.293C347.832 58.457 347.602 58.5391 347.311 58.5391C347.014 58.5391 346.782 58.457 346.613 58.293C346.449 58.1289 346.367 57.9238 346.367 57.6777ZM352.957 65.8398C353.226 65.8398 353.467 65.7874 353.682 65.6826C353.9 65.5732 354.076 65.4229 354.208 65.2314C354.345 65.04 354.42 64.819 354.434 64.5684H355.985C355.976 65.0469 355.835 65.4821 355.562 65.874C355.288 66.266 354.926 66.5781 354.475 66.8105C354.023 67.0384 353.524 67.1523 352.978 67.1523C352.412 67.1523 351.92 67.0566 351.501 66.8652C351.082 66.6693 350.733 66.4004 350.455 66.0586C350.177 65.7168 349.967 65.3226 349.826 64.876C349.689 64.4294 349.621 63.9508 349.621 63.4404V63.2012C349.621 62.6908 349.689 62.2122 349.826 61.7656C349.967 61.3145 350.177 60.918 350.455 60.5762C350.733 60.2344 351.082 59.9678 351.501 59.7764C351.92 59.5804 352.41 59.4824 352.971 59.4824C353.563 59.4824 354.083 59.6009 354.529 59.8379C354.976 60.0703 355.327 60.3962 355.582 60.8154C355.842 61.2301 355.976 61.7132 355.985 62.2646H354.434C354.42 61.9912 354.352 61.7451 354.229 61.5264C354.11 61.3031 353.941 61.1253 353.723 60.9932C353.508 60.861 353.251 60.7949 352.95 60.7949C352.618 60.7949 352.342 60.8633 352.123 61C351.904 61.1322 351.733 61.3145 351.61 61.5469C351.487 61.7747 351.398 62.0322 351.344 62.3193C351.294 62.6019 351.269 62.8958 351.269 63.2012V63.4404C351.269 63.7458 351.294 64.042 351.344 64.3291C351.394 64.6162 351.48 64.8737 351.604 65.1016C351.731 65.3249 351.904 65.5049 352.123 65.6416C352.342 65.7738 352.62 65.8398 352.957 65.8398ZM364.681 63.3037H362.09V61.9434H364.681C365.132 61.9434 365.496 61.8704 365.774 61.7246C366.052 61.5788 366.255 61.3783 366.383 61.123C366.515 60.8633 366.581 60.5671 366.581 60.2344C366.581 59.9199 366.515 59.626 366.383 59.3525C366.255 59.0745 366.052 58.8512 365.774 58.6826C365.496 58.514 365.132 58.4297 364.681 58.4297H362.616V67.0156H360.9V57.0625H364.681C365.451 57.0625 366.105 57.1992 366.643 57.4727C367.185 57.7415 367.597 58.1152 367.88 58.5938C368.162 59.0677 368.304 59.61 368.304 60.2207C368.304 60.8633 368.162 61.4147 367.88 61.875C367.597 62.3353 367.185 62.6885 366.643 62.9346C366.105 63.1807 365.451 63.3037 364.681 63.3037ZM372.843 67.1523C372.296 67.1523 371.801 67.0635 371.359 66.8857C370.922 66.7035 370.548 66.4505 370.238 66.127C369.933 65.8034 369.698 65.4229 369.534 64.9854C369.37 64.5479 369.288 64.0762 369.288 63.5703V63.2969C369.288 62.7181 369.372 62.194 369.541 61.7246C369.71 61.2552 369.944 60.8542 370.245 60.5215C370.546 60.1842 370.901 59.9268 371.312 59.749C371.722 59.5713 372.166 59.4824 372.645 59.4824C373.173 59.4824 373.636 59.5713 374.032 59.749C374.429 59.9268 374.757 60.1774 375.017 60.501C375.281 60.82 375.477 61.2005 375.604 61.6426C375.737 62.0846 375.803 62.5723 375.803 63.1055V63.8096H370.088V62.627H374.176V62.4971C374.167 62.2008 374.107 61.9229 373.998 61.6631C373.893 61.4033 373.731 61.1937 373.513 61.0342C373.294 60.8747 373.002 60.7949 372.638 60.7949C372.364 60.7949 372.12 60.8542 371.906 60.9727C371.697 61.0866 371.521 61.2529 371.38 61.4717C371.239 61.6904 371.129 61.9548 371.052 62.2646C370.979 62.57 370.942 62.9141 370.942 63.2969V63.5703C370.942 63.8939 370.986 64.1947 371.072 64.4727C371.163 64.7461 371.296 64.9854 371.469 65.1904C371.642 65.3955 371.852 65.5573 372.098 65.6758C372.344 65.7897 372.624 65.8467 372.938 65.8467C373.335 65.8467 373.688 65.7669 373.998 65.6074C374.308 65.4479 374.577 65.2223 374.805 64.9307L375.673 65.7715C375.513 66.0039 375.306 66.2272 375.051 66.4414C374.796 66.651 374.483 66.8219 374.114 66.9541C373.75 67.0863 373.326 67.1523 372.843 67.1523ZM378.742 61.0273V67.0156H377.095V59.6191H378.667L378.742 61.0273ZM381.005 59.5713L380.991 61.1025C380.891 61.0843 380.782 61.0706 380.663 61.0615C380.549 61.0524 380.435 61.0479 380.321 61.0479C380.039 61.0479 379.79 61.0889 379.576 61.1709C379.362 61.2484 379.182 61.3623 379.036 61.5127C378.895 61.6585 378.785 61.8363 378.708 62.0459C378.631 62.2555 378.585 62.4902 378.571 62.75L378.195 62.7773C378.195 62.3125 378.241 61.8818 378.332 61.4854C378.423 61.0889 378.56 60.7402 378.742 60.4395C378.929 60.1387 379.161 59.904 379.439 59.7354C379.722 59.5667 380.048 59.4824 380.417 59.4824C380.517 59.4824 380.624 59.4915 380.738 59.5098C380.857 59.528 380.946 59.5485 381.005 59.5713ZM384.922 65.8398C385.191 65.8398 385.432 65.7874 385.646 65.6826C385.865 65.5732 386.041 65.4229 386.173 65.2314C386.31 65.04 386.385 64.819 386.398 64.5684H387.95C387.941 65.0469 387.8 65.4821 387.526 65.874C387.253 66.266 386.891 66.5781 386.439 66.8105C385.988 67.0384 385.489 67.1523 384.942 67.1523C384.377 67.1523 383.885 67.0566 383.466 66.8652C383.047 66.6693 382.698 66.4004 382.42 66.0586C382.142 65.7168 381.932 65.3226 381.791 64.876C381.654 64.4294 381.586 63.9508 381.586 63.4404V63.2012C381.586 62.6908 381.654 62.2122 381.791 61.7656C381.932 61.3145 382.142 60.918 382.42 60.5762C382.698 60.2344 383.047 59.9678 383.466 59.7764C383.885 59.5804 384.375 59.4824 384.936 59.4824C385.528 59.4824 386.048 59.6009 386.494 59.8379C386.941 60.0703 387.292 60.3962 387.547 60.8154C387.807 61.2301 387.941 61.7132 387.95 62.2646H386.398C386.385 61.9912 386.316 61.7451 386.193 61.5264C386.075 61.3031 385.906 61.1253 385.688 60.9932C385.473 60.861 385.216 60.7949 384.915 60.7949C384.582 60.7949 384.307 60.8633 384.088 61C383.869 61.1322 383.698 61.3145 383.575 61.5469C383.452 61.7747 383.363 62.0322 383.309 62.3193C383.258 62.6019 383.233 62.8958 383.233 63.2012V63.4404C383.233 63.7458 383.258 64.042 383.309 64.3291C383.359 64.6162 383.445 64.8737 383.568 65.1016C383.696 65.3249 383.869 65.5049 384.088 65.6416C384.307 65.7738 384.585 65.8398 384.922 65.8398ZM392.476 67.1523C391.929 67.1523 391.434 67.0635 390.992 66.8857C390.555 66.7035 390.181 66.4505 389.871 66.127C389.566 65.8034 389.331 65.4229 389.167 64.9854C389.003 64.5479 388.921 64.0762 388.921 63.5703V63.2969C388.921 62.7181 389.005 62.194 389.174 61.7246C389.342 61.2552 389.577 60.8542 389.878 60.5215C390.179 60.1842 390.534 59.9268 390.944 59.749C391.354 59.5713 391.799 59.4824 392.277 59.4824C392.806 59.4824 393.269 59.5713 393.665 59.749C394.062 59.9268 394.39 60.1774 394.649 60.501C394.914 60.82 395.11 61.2005 395.237 61.6426C395.369 62.0846 395.436 62.5723 395.436 63.1055V63.8096H389.721V62.627H393.809V62.4971C393.799 62.2008 393.74 61.9229 393.631 61.6631C393.526 61.4033 393.364 61.1937 393.146 61.0342C392.927 60.8747 392.635 60.7949 392.271 60.7949C391.997 60.7949 391.753 60.8542 391.539 60.9727C391.329 61.0866 391.154 61.2529 391.013 61.4717C390.871 61.6904 390.762 61.9548 390.685 62.2646C390.612 62.57 390.575 62.9141 390.575 63.2969V63.5703C390.575 63.8939 390.618 64.1947 390.705 64.4727C390.796 64.7461 390.928 64.9854 391.102 65.1904C391.275 65.3955 391.484 65.5573 391.73 65.6758C391.977 65.7897 392.257 65.8467 392.571 65.8467C392.968 65.8467 393.321 65.7669 393.631 65.6074C393.941 65.4479 394.21 65.2223 394.438 64.9307L395.306 65.7715C395.146 66.0039 394.939 66.2272 394.684 66.4414C394.428 66.651 394.116 66.8219 393.747 66.9541C393.382 67.0863 392.959 67.1523 392.476 67.1523ZM398.375 61.041V69.8594H396.728V59.6191H398.245L398.375 61.041ZM403.194 63.249V63.3926C403.194 63.9303 403.131 64.4294 403.003 64.8896C402.88 65.3454 402.695 65.7441 402.449 66.0859C402.208 66.4232 401.909 66.6852 401.554 66.8721C401.198 67.0589 400.788 67.1523 400.323 67.1523C399.863 67.1523 399.46 67.068 399.113 66.8994C398.771 66.7262 398.482 66.4824 398.245 66.168C398.008 65.8535 397.817 65.4844 397.671 65.0605C397.53 64.6322 397.429 64.1628 397.37 63.6523V63.0986C397.429 62.5563 397.53 62.0641 397.671 61.6221C397.817 61.18 398.008 60.7995 398.245 60.4805C398.482 60.1615 398.771 59.9154 399.113 59.7422C399.455 59.569 399.854 59.4824 400.31 59.4824C400.774 59.4824 401.187 59.5736 401.547 59.7559C401.907 59.9336 402.21 60.1888 402.456 60.5215C402.702 60.8496 402.887 61.2461 403.01 61.7109C403.133 62.1712 403.194 62.6839 403.194 63.249ZM401.547 63.3926V63.249C401.547 62.9072 401.515 62.5905 401.451 62.2988C401.387 62.0026 401.287 61.7428 401.15 61.5195C401.014 61.2962 400.838 61.123 400.624 61C400.414 60.8724 400.161 60.8086 399.865 60.8086C399.574 60.8086 399.323 60.8587 399.113 60.959C398.904 61.0547 398.728 61.1891 398.587 61.3623C398.446 61.5355 398.336 61.7383 398.259 61.9707C398.181 62.1986 398.127 62.4469 398.095 62.7158V64.042C398.149 64.3701 398.243 64.6709 398.375 64.9443C398.507 65.2178 398.694 65.4365 398.936 65.6006C399.182 65.7601 399.496 65.8398 399.879 65.8398C400.175 65.8398 400.428 65.776 400.638 65.6484C400.847 65.5208 401.018 65.3454 401.15 65.1221C401.287 64.8942 401.387 64.6322 401.451 64.3359C401.515 64.0397 401.547 63.7253 401.547 63.3926ZM407.986 59.6191V60.8223H403.816V59.6191H407.986ZM405.02 57.8076H406.667V64.9717C406.667 65.1995 406.699 65.375 406.763 65.498C406.831 65.6165 406.924 65.6963 407.043 65.7373C407.161 65.7783 407.3 65.7988 407.46 65.7988C407.574 65.7988 407.683 65.792 407.788 65.7783C407.893 65.7646 407.977 65.751 408.041 65.7373L408.048 66.9951C407.911 67.0361 407.752 67.0726 407.569 67.1045C407.392 67.1364 407.187 67.1523 406.954 67.1523C406.576 67.1523 406.241 67.0863 405.949 66.9541C405.658 66.8174 405.43 66.5964 405.266 66.291C405.102 65.9857 405.02 65.5801 405.02 65.0742V57.8076ZM411.021 59.6191V67.0156H409.367V59.6191H411.021ZM409.258 57.6777C409.258 57.4271 409.34 57.2197 409.504 57.0557C409.673 56.887 409.905 56.8027 410.201 56.8027C410.493 56.8027 410.723 56.887 410.892 57.0557C411.06 57.2197 411.145 57.4271 411.145 57.6777C411.145 57.9238 411.06 58.1289 410.892 58.293C410.723 58.457 410.493 58.5391 410.201 58.5391C409.905 58.5391 409.673 58.457 409.504 58.293C409.34 58.1289 409.258 57.9238 409.258 57.6777ZM412.512 63.3994V63.2422C412.512 62.709 412.589 62.2145 412.744 61.7588C412.899 61.2985 413.122 60.8997 413.414 60.5625C413.71 60.2207 414.07 59.9564 414.494 59.7695C414.923 59.5781 415.406 59.4824 415.943 59.4824C416.486 59.4824 416.969 59.5781 417.393 59.7695C417.821 59.9564 418.183 60.2207 418.479 60.5625C418.776 60.8997 419.001 61.2985 419.156 61.7588C419.311 62.2145 419.389 62.709 419.389 63.2422V63.3994C419.389 63.9326 419.311 64.4271 419.156 64.8828C419.001 65.3385 418.776 65.7373 418.479 66.0791C418.183 66.4163 417.823 66.6807 417.399 66.8721C416.976 67.0589 416.495 67.1523 415.957 67.1523C415.415 67.1523 414.929 67.0589 414.501 66.8721C414.077 66.6807 413.717 66.4163 413.421 66.0791C413.125 65.7373 412.899 65.3385 412.744 64.8828C412.589 64.4271 412.512 63.9326 412.512 63.3994ZM414.159 63.2422V63.3994C414.159 63.7321 414.193 64.0465 414.262 64.3428C414.33 64.639 414.437 64.8988 414.583 65.1221C414.729 65.3454 414.916 65.5208 415.144 65.6484C415.371 65.776 415.643 65.8398 415.957 65.8398C416.262 65.8398 416.527 65.776 416.75 65.6484C416.978 65.5208 417.165 65.3454 417.311 65.1221C417.456 64.8988 417.563 64.639 417.632 64.3428C417.705 64.0465 417.741 63.7321 417.741 63.3994V63.2422C417.741 62.9141 417.705 62.6042 417.632 62.3125C417.563 62.0163 417.454 61.7542 417.304 61.5264C417.158 61.2985 416.971 61.1208 416.743 60.9932C416.52 60.861 416.253 60.7949 415.943 60.7949C415.633 60.7949 415.365 60.861 415.137 60.9932C414.913 61.1208 414.729 61.2985 414.583 61.5264C414.437 61.7542 414.33 62.0163 414.262 62.3125C414.193 62.6042 414.159 62.9141 414.159 63.2422ZM422.403 61.1982V67.0156H420.756V59.6191H422.308L422.403 61.1982ZM422.109 63.0439L421.576 63.0371C421.581 62.513 421.654 62.0322 421.795 61.5947C421.941 61.1572 422.141 60.7812 422.396 60.4668C422.656 60.1523 422.966 59.9108 423.326 59.7422C423.686 59.569 424.087 59.4824 424.529 59.4824C424.885 59.4824 425.206 59.5326 425.493 59.6328C425.785 59.7285 426.033 59.8857 426.238 60.1045C426.448 60.3232 426.607 60.6081 426.717 60.959C426.826 61.3053 426.881 61.7314 426.881 62.2373V67.0156H425.227V62.2305C425.227 61.875 425.174 61.5947 425.069 61.3896C424.969 61.18 424.821 61.0319 424.625 60.9453C424.434 60.8542 424.194 60.8086 423.907 60.8086C423.625 60.8086 423.372 60.8678 423.148 60.9863C422.925 61.1048 422.736 61.2666 422.581 61.4717C422.431 61.6768 422.314 61.9137 422.232 62.1826C422.15 62.4515 422.109 62.7386 422.109 63.0439Z" fill="black"/>
<path d="M326.249 119.117V129.07H324.533L320.069 121.94V129.07H318.354V119.117H320.069L324.547 126.261V119.117H326.249ZM332.299 127.587V124.06C332.299 123.795 332.251 123.567 332.155 123.376C332.06 123.185 331.914 123.036 331.718 122.932C331.526 122.827 331.285 122.774 330.993 122.774C330.724 122.774 330.492 122.82 330.296 122.911C330.1 123.002 329.947 123.125 329.838 123.28C329.729 123.435 329.674 123.611 329.674 123.807H328.033C328.033 123.515 328.104 123.232 328.245 122.959C328.386 122.686 328.591 122.442 328.86 122.228C329.129 122.013 329.451 121.845 329.824 121.722C330.198 121.599 330.617 121.537 331.082 121.537C331.638 121.537 332.13 121.631 332.559 121.817C332.992 122.004 333.331 122.287 333.577 122.665C333.828 123.039 333.953 123.508 333.953 124.073V127.361C333.953 127.699 333.976 128.002 334.021 128.271C334.072 128.535 334.142 128.765 334.233 128.961V129.07H332.545C332.467 128.893 332.406 128.667 332.36 128.394C332.319 128.116 332.299 127.847 332.299 127.587ZM332.538 124.572L332.552 125.591H331.369C331.064 125.591 330.795 125.62 330.562 125.68C330.33 125.734 330.136 125.816 329.981 125.926C329.826 126.035 329.71 126.167 329.633 126.322C329.555 126.477 329.517 126.653 329.517 126.849C329.517 127.045 329.562 127.225 329.653 127.389C329.744 127.548 329.877 127.674 330.05 127.765C330.228 127.856 330.442 127.901 330.692 127.901C331.03 127.901 331.324 127.833 331.574 127.696C331.829 127.555 332.03 127.384 332.176 127.184C332.322 126.979 332.399 126.785 332.408 126.603L332.941 127.334C332.887 127.521 332.793 127.721 332.661 127.936C332.529 128.15 332.356 128.355 332.142 128.551C331.932 128.742 331.679 128.899 331.383 129.022C331.091 129.146 330.754 129.207 330.371 129.207C329.888 129.207 329.457 129.111 329.079 128.92C328.701 128.724 328.405 128.462 328.19 128.134C327.976 127.801 327.869 127.425 327.869 127.006C327.869 126.614 327.942 126.268 328.088 125.967C328.238 125.661 328.457 125.406 328.744 125.201C329.036 124.996 329.391 124.841 329.811 124.736C330.23 124.627 330.708 124.572 331.246 124.572H332.538ZM337.33 123.082V129.07H335.683V121.674H337.255L337.33 123.082ZM339.593 121.626L339.579 123.157C339.479 123.139 339.369 123.125 339.251 123.116C339.137 123.107 339.023 123.103 338.909 123.103C338.627 123.103 338.378 123.144 338.164 123.226C337.95 123.303 337.77 123.417 337.624 123.567C337.483 123.713 337.373 123.891 337.296 124.101C337.218 124.31 337.173 124.545 337.159 124.805L336.783 124.832C336.783 124.367 336.829 123.937 336.92 123.54C337.011 123.144 337.148 122.795 337.33 122.494C337.517 122.193 337.749 121.959 338.027 121.79C338.31 121.621 338.636 121.537 339.005 121.537C339.105 121.537 339.212 121.546 339.326 121.564C339.445 121.583 339.534 121.603 339.593 121.626ZM342.279 123.082V129.07H340.632V121.674H342.204L342.279 123.082ZM344.542 121.626L344.528 123.157C344.428 123.139 344.319 123.125 344.2 123.116C344.086 123.107 343.972 123.103 343.858 123.103C343.576 123.103 343.327 123.144 343.113 123.226C342.899 123.303 342.719 123.417 342.573 123.567C342.432 123.713 342.323 123.891 342.245 124.101C342.168 124.31 342.122 124.545 342.108 124.805L341.732 124.832C341.732 124.367 341.778 123.937 341.869 123.54C341.96 123.144 342.097 122.795 342.279 122.494C342.466 122.193 342.699 121.959 342.977 121.79C343.259 121.621 343.585 121.537 343.954 121.537C344.054 121.537 344.161 121.546 344.275 121.564C344.394 121.583 344.483 121.603 344.542 121.626ZM349.498 127.587V124.06C349.498 123.795 349.45 123.567 349.354 123.376C349.259 123.185 349.113 123.036 348.917 122.932C348.726 122.827 348.484 122.774 348.192 122.774C347.924 122.774 347.691 122.82 347.495 122.911C347.299 123.002 347.146 123.125 347.037 123.28C346.928 123.435 346.873 123.611 346.873 123.807H345.232C345.232 123.515 345.303 123.232 345.444 122.959C345.586 122.686 345.791 122.442 346.06 122.228C346.328 122.013 346.65 121.845 347.023 121.722C347.397 121.599 347.816 121.537 348.281 121.537C348.837 121.537 349.329 121.631 349.758 121.817C350.191 122.004 350.53 122.287 350.776 122.665C351.027 123.039 351.152 123.508 351.152 124.073V127.361C351.152 127.699 351.175 128.002 351.221 128.271C351.271 128.535 351.341 128.765 351.433 128.961V129.07H349.744C349.667 128.893 349.605 128.667 349.56 128.394C349.519 128.116 349.498 127.847 349.498 127.587ZM349.737 124.572L349.751 125.591H348.568C348.263 125.591 347.994 125.62 347.762 125.68C347.529 125.734 347.336 125.816 347.181 125.926C347.026 126.035 346.91 126.167 346.832 126.322C346.755 126.477 346.716 126.653 346.716 126.849C346.716 127.045 346.761 127.225 346.853 127.389C346.944 127.548 347.076 127.674 347.249 127.765C347.427 127.856 347.641 127.901 347.892 127.901C348.229 127.901 348.523 127.833 348.773 127.696C349.029 127.555 349.229 127.384 349.375 127.184C349.521 126.979 349.598 126.785 349.607 126.603L350.141 127.334C350.086 127.521 349.993 127.721 349.86 127.936C349.728 128.15 349.555 128.355 349.341 128.551C349.131 128.742 348.878 128.899 348.582 129.022C348.29 129.146 347.953 129.207 347.57 129.207C347.087 129.207 346.657 129.111 346.278 128.92C345.9 128.724 345.604 128.462 345.39 128.134C345.175 127.801 345.068 127.425 345.068 127.006C345.068 126.614 345.141 126.268 345.287 125.967C345.438 125.661 345.656 125.406 345.943 125.201C346.235 124.996 346.59 124.841 347.01 124.736C347.429 124.627 347.908 124.572 348.445 124.572H349.737ZM356.266 121.674V122.877H352.096V121.674H356.266ZM353.299 119.862H354.946V127.026C354.946 127.254 354.978 127.43 355.042 127.553C355.11 127.671 355.204 127.751 355.322 127.792C355.441 127.833 355.58 127.854 355.739 127.854C355.853 127.854 355.963 127.847 356.067 127.833C356.172 127.819 356.257 127.806 356.32 127.792L356.327 129.05C356.19 129.091 356.031 129.127 355.849 129.159C355.671 129.191 355.466 129.207 355.233 129.207C354.855 129.207 354.52 129.141 354.229 129.009C353.937 128.872 353.709 128.651 353.545 128.346C353.381 128.04 353.299 127.635 353.299 127.129V119.862ZM359.301 121.674V129.07H357.646V121.674H359.301ZM357.537 119.732C357.537 119.482 357.619 119.274 357.783 119.11C357.952 118.942 358.184 118.857 358.48 118.857C358.772 118.857 359.002 118.942 359.171 119.11C359.34 119.274 359.424 119.482 359.424 119.732C359.424 119.979 359.34 120.184 359.171 120.348C359.002 120.512 358.772 120.594 358.48 120.594C358.184 120.594 357.952 120.512 357.783 120.348C357.619 120.184 357.537 119.979 357.537 119.732ZM363.512 127.765L365.323 121.674H367.032L364.462 129.07H363.396L363.512 127.765ZM362.124 121.674L363.97 127.792L364.059 129.07H362.992L360.408 121.674H362.124ZM371.216 129.207C370.669 129.207 370.174 129.118 369.732 128.94C369.295 128.758 368.921 128.505 368.611 128.182C368.306 127.858 368.071 127.478 367.907 127.04C367.743 126.603 367.661 126.131 367.661 125.625V125.352C367.661 124.773 367.745 124.249 367.914 123.779C368.083 123.31 368.317 122.909 368.618 122.576C368.919 122.239 369.274 121.981 369.685 121.804C370.095 121.626 370.539 121.537 371.018 121.537C371.546 121.537 372.009 121.626 372.405 121.804C372.802 121.981 373.13 122.232 373.39 122.556C373.654 122.875 373.85 123.255 373.978 123.697C374.11 124.139 374.176 124.627 374.176 125.16V125.864H368.461V124.682H372.549V124.552C372.54 124.256 372.48 123.978 372.371 123.718C372.266 123.458 372.104 123.248 371.886 123.089C371.667 122.929 371.375 122.85 371.011 122.85C370.737 122.85 370.493 122.909 370.279 123.027C370.07 123.141 369.894 123.308 369.753 123.526C369.612 123.745 369.502 124.009 369.425 124.319C369.352 124.625 369.315 124.969 369.315 125.352V125.625C369.315 125.949 369.359 126.249 369.445 126.527C369.536 126.801 369.669 127.04 369.842 127.245C370.015 127.45 370.225 127.612 370.471 127.73C370.717 127.844 370.997 127.901 371.312 127.901C371.708 127.901 372.061 127.822 372.371 127.662C372.681 127.503 372.95 127.277 373.178 126.985L374.046 127.826C373.886 128.059 373.679 128.282 373.424 128.496C373.169 128.706 372.856 128.877 372.487 129.009C372.123 129.141 371.699 129.207 371.216 129.207ZM384.99 125.83H386.699C386.645 126.482 386.462 127.063 386.152 127.573C385.842 128.079 385.407 128.478 384.847 128.77C384.286 129.061 383.605 129.207 382.803 129.207C382.188 129.207 381.634 129.098 381.142 128.879C380.649 128.656 380.228 128.341 379.877 127.936C379.526 127.525 379.257 127.031 379.07 126.452C378.888 125.873 378.797 125.226 378.797 124.511V123.684C378.797 122.968 378.89 122.321 379.077 121.742C379.269 121.163 379.542 120.669 379.897 120.259C380.253 119.844 380.679 119.527 381.176 119.309C381.677 119.09 382.24 118.98 382.864 118.98C383.657 118.98 384.327 119.126 384.874 119.418C385.421 119.71 385.845 120.113 386.146 120.628C386.451 121.143 386.638 121.733 386.706 122.398H384.997C384.951 121.97 384.851 121.603 384.696 121.298C384.546 120.993 384.323 120.76 384.026 120.601C383.73 120.437 383.343 120.354 382.864 120.354C382.472 120.354 382.131 120.427 381.839 120.573C381.547 120.719 381.303 120.933 381.107 121.216C380.911 121.498 380.763 121.847 380.663 122.262C380.567 122.672 380.52 123.141 380.52 123.67V124.511C380.52 125.012 380.563 125.468 380.649 125.878C380.741 126.284 380.877 126.632 381.06 126.924C381.246 127.215 381.483 127.441 381.771 127.601C382.058 127.76 382.402 127.84 382.803 127.84C383.29 127.84 383.685 127.762 383.985 127.607C384.291 127.452 384.521 127.227 384.676 126.931C384.835 126.63 384.94 126.263 384.99 125.83ZM387.779 125.454V125.297C387.779 124.764 387.857 124.269 388.012 123.813C388.167 123.353 388.39 122.954 388.682 122.617C388.978 122.275 389.338 122.011 389.762 121.824C390.19 121.633 390.673 121.537 391.211 121.537C391.753 121.537 392.236 121.633 392.66 121.824C393.089 122.011 393.451 122.275 393.747 122.617C394.043 122.954 394.269 123.353 394.424 123.813C394.579 124.269 394.656 124.764 394.656 125.297V125.454C394.656 125.987 394.579 126.482 394.424 126.938C394.269 127.393 394.043 127.792 393.747 128.134C393.451 128.471 393.091 128.735 392.667 128.927C392.243 129.114 391.762 129.207 391.225 129.207C390.682 129.207 390.197 129.114 389.769 128.927C389.345 128.735 388.985 128.471 388.688 128.134C388.392 127.792 388.167 127.393 388.012 126.938C387.857 126.482 387.779 125.987 387.779 125.454ZM389.427 125.297V125.454C389.427 125.787 389.461 126.101 389.529 126.397C389.598 126.694 389.705 126.953 389.851 127.177C389.996 127.4 390.183 127.576 390.411 127.703C390.639 127.831 390.91 127.895 391.225 127.895C391.53 127.895 391.794 127.831 392.018 127.703C392.245 127.576 392.432 127.4 392.578 127.177C392.724 126.953 392.831 126.694 392.899 126.397C392.972 126.101 393.009 125.787 393.009 125.454V125.297C393.009 124.969 392.972 124.659 392.899 124.367C392.831 124.071 392.722 123.809 392.571 123.581C392.425 123.353 392.239 123.175 392.011 123.048C391.787 122.916 391.521 122.85 391.211 122.85C390.901 122.85 390.632 122.916 390.404 123.048C390.181 123.175 389.996 123.353 389.851 123.581C389.705 123.809 389.598 124.071 389.529 124.367C389.461 124.659 389.427 124.969 389.427 125.297ZM397.671 123.253V129.07H396.023V121.674H397.575L397.671 123.253ZM397.377 125.099L396.844 125.092C396.848 124.568 396.921 124.087 397.062 123.649C397.208 123.212 397.409 122.836 397.664 122.521C397.924 122.207 398.234 121.965 398.594 121.797C398.954 121.624 399.355 121.537 399.797 121.537C400.152 121.537 400.474 121.587 400.761 121.688C401.052 121.783 401.301 121.94 401.506 122.159C401.715 122.378 401.875 122.663 401.984 123.014C402.094 123.36 402.148 123.786 402.148 124.292V129.07H400.494V124.285C400.494 123.93 400.442 123.649 400.337 123.444C400.237 123.235 400.089 123.087 399.893 123C399.701 122.909 399.462 122.863 399.175 122.863C398.892 122.863 398.639 122.923 398.416 123.041C398.193 123.16 398.004 123.321 397.849 123.526C397.698 123.731 397.582 123.968 397.5 124.237C397.418 124.506 397.377 124.793 397.377 125.099ZM407.221 121.674V122.877H403.051V121.674H407.221ZM404.254 119.862H405.901V127.026C405.901 127.254 405.933 127.43 405.997 127.553C406.065 127.671 406.159 127.751 406.277 127.792C406.396 127.833 406.535 127.854 406.694 127.854C406.808 127.854 406.918 127.847 407.022 127.833C407.127 127.819 407.212 127.806 407.275 127.792L407.282 129.05C407.146 129.091 406.986 129.127 406.804 129.159C406.626 129.191 406.421 129.207 406.188 129.207C405.81 129.207 405.475 129.141 405.184 129.009C404.892 128.872 404.664 128.651 404.5 128.346C404.336 128.04 404.254 127.635 404.254 127.129V119.862ZM410.146 123.082V129.07H408.499V121.674H410.071L410.146 123.082ZM412.409 121.626L412.396 123.157C412.295 123.139 412.186 123.125 412.067 123.116C411.953 123.107 411.84 123.103 411.726 123.103C411.443 123.103 411.195 123.144 410.98 123.226C410.766 123.303 410.586 123.417 410.44 123.567C410.299 123.713 410.19 123.891 410.112 124.101C410.035 124.31 409.989 124.545 409.976 124.805L409.6 124.832C409.6 124.367 409.645 123.937 409.736 123.54C409.827 123.144 409.964 122.795 410.146 122.494C410.333 122.193 410.566 121.959 410.844 121.79C411.126 121.621 411.452 121.537 411.821 121.537C411.922 121.537 412.029 121.546 412.143 121.564C412.261 121.583 412.35 121.603 412.409 121.626ZM412.949 125.454V125.297C412.949 124.764 413.027 124.269 413.182 123.813C413.337 123.353 413.56 122.954 413.852 122.617C414.148 122.275 414.508 122.011 414.932 121.824C415.36 121.633 415.843 121.537 416.381 121.537C416.923 121.537 417.406 121.633 417.83 121.824C418.258 122.011 418.621 122.275 418.917 122.617C419.213 122.954 419.439 123.353 419.594 123.813C419.749 124.269 419.826 124.764 419.826 125.297V125.454C419.826 125.987 419.749 126.482 419.594 126.938C419.439 127.393 419.213 127.792 418.917 128.134C418.621 128.471 418.261 128.735 417.837 128.927C417.413 129.114 416.932 129.207 416.395 129.207C415.852 129.207 415.367 129.114 414.938 128.927C414.515 128.735 414.155 128.471 413.858 128.134C413.562 127.792 413.337 127.393 413.182 126.938C413.027 126.482 412.949 125.987 412.949 125.454ZM414.597 125.297V125.454C414.597 125.787 414.631 126.101 414.699 126.397C414.768 126.694 414.875 126.953 415.021 127.177C415.166 127.4 415.353 127.576 415.581 127.703C415.809 127.831 416.08 127.895 416.395 127.895C416.7 127.895 416.964 127.831 417.188 127.703C417.415 127.576 417.602 127.4 417.748 127.177C417.894 126.953 418.001 126.694 418.069 126.397C418.142 126.101 418.179 125.787 418.179 125.454V125.297C418.179 124.969 418.142 124.659 418.069 124.367C418.001 124.071 417.892 123.809 417.741 123.581C417.595 123.353 417.409 123.175 417.181 123.048C416.957 122.916 416.691 122.85 416.381 122.85C416.071 122.85 415.802 122.916 415.574 123.048C415.351 123.175 415.166 123.353 415.021 123.581C414.875 123.809 414.768 124.071 414.699 124.367C414.631 124.659 414.597 124.969 414.597 125.297ZM422.971 118.57V129.07H421.316V118.57H422.971Z" fill="black"/>
<path d="M46.1709 150.148H47.7979L50.5186 157.641L53.2324 150.148H54.8662L51.168 160.102H49.8623L46.1709 150.148ZM45.3506 150.148H46.9434L47.2305 157.032V160.102H45.3506V150.148ZM54.0869 150.148H55.6865V160.102H53.8066V157.032L54.0869 150.148ZM60.7861 160.238C60.2256 160.238 59.722 160.147 59.2754 159.965C58.8288 159.783 58.4482 159.53 58.1338 159.206C57.8239 158.878 57.5846 158.497 57.416 158.064C57.252 157.627 57.1699 157.158 57.1699 156.656V156.383C57.1699 155.813 57.252 155.296 57.416 154.831C57.5801 154.362 57.8125 153.958 58.1133 153.621C58.4141 153.284 58.7741 153.024 59.1934 152.842C59.6126 152.66 60.0752 152.568 60.5811 152.568C61.1051 152.568 61.5677 152.657 61.9688 152.835C62.3698 153.008 62.7048 153.254 62.9736 153.573C63.2425 153.892 63.4453 154.275 63.582 154.722C63.7188 155.164 63.7871 155.654 63.7871 156.191V156.95H57.9902V155.706H62.0098V155.569C62.0007 155.282 61.946 155.02 61.8457 154.783C61.7454 154.542 61.5905 154.35 61.3809 154.209C61.1712 154.063 60.9001 153.99 60.5674 153.99C60.2985 153.99 60.0638 154.049 59.8633 154.168C59.6673 154.282 59.5033 154.446 59.3711 154.66C59.2435 154.87 59.1478 155.12 59.084 155.412C59.0202 155.704 58.9883 156.027 58.9883 156.383V156.656C58.9883 156.966 59.0293 157.253 59.1113 157.518C59.1979 157.782 59.3232 158.012 59.4873 158.208C59.6559 158.399 59.8564 158.55 60.0889 158.659C60.3258 158.764 60.5947 158.816 60.8955 158.816C61.2738 158.816 61.6156 158.743 61.9209 158.598C62.2308 158.447 62.4997 158.226 62.7275 157.935L63.6367 158.878C63.4818 159.106 63.2721 159.325 63.0078 159.534C62.748 159.744 62.4336 159.915 62.0645 160.047C61.6953 160.174 61.2692 160.238 60.7861 160.238ZM69.4336 158.529V149.602H71.252V160.102H69.6113L69.4336 158.529ZM64.6826 156.492V156.349C64.6826 155.784 64.7464 155.271 64.874 154.811C65.0062 154.346 65.1976 153.947 65.4482 153.614C65.6989 153.282 66.002 153.024 66.3574 152.842C66.7174 152.66 67.1253 152.568 67.5811 152.568C68.0231 152.568 68.4082 152.657 68.7363 152.835C69.069 153.013 69.3516 153.266 69.584 153.594C69.821 153.922 70.0101 154.312 70.1514 154.763C70.2926 155.209 70.3952 155.701 70.459 156.239V156.629C70.3952 157.153 70.2926 157.634 70.1514 158.071C70.0101 158.509 69.821 158.892 69.584 159.22C69.3516 159.543 69.069 159.794 68.7363 159.972C68.4036 160.149 68.014 160.238 67.5674 160.238C67.1162 160.238 66.7106 160.145 66.3506 159.958C65.9951 159.771 65.6921 159.509 65.4414 159.172C65.1953 158.835 65.0062 158.438 64.874 157.982C64.7464 157.527 64.6826 157.03 64.6826 156.492ZM66.4941 156.349V156.492C66.4941 156.811 66.5215 157.11 66.5762 157.388C66.6309 157.666 66.7197 157.912 66.8428 158.126C66.9658 158.336 67.123 158.5 67.3145 158.618C67.5104 158.737 67.7474 158.796 68.0254 158.796C68.3809 158.796 68.6725 158.718 68.9004 158.563C69.1328 158.404 69.3128 158.188 69.4404 157.914C69.568 157.636 69.6501 157.324 69.6865 156.978V155.904C69.6683 155.631 69.6204 155.378 69.543 155.146C69.4701 154.913 69.3652 154.713 69.2285 154.544C69.0964 154.375 68.9323 154.243 68.7363 154.147C68.5404 154.052 68.3079 154.004 68.0391 154.004C67.7611 154.004 67.5241 154.065 67.3281 154.188C67.1322 154.307 66.9727 154.473 66.8496 154.688C66.7266 154.902 66.6354 155.15 66.5762 155.433C66.5215 155.715 66.4941 156.021 66.4941 156.349ZM74.7998 152.705V160.102H72.9883V152.705H74.7998ZM72.8652 150.771C72.8652 150.502 72.9564 150.278 73.1387 150.101C73.3255 149.923 73.5762 149.834 73.8906 149.834C74.2051 149.834 74.4535 149.923 74.6357 150.101C74.8226 150.278 74.916 150.502 74.916 150.771C74.916 151.035 74.8226 151.256 74.6357 151.434C74.4535 151.611 74.2051 151.7 73.8906 151.7C73.5762 151.7 73.3255 151.611 73.1387 151.434C72.9564 151.256 72.8652 151.035 72.8652 150.771ZM80.5967 158.529V155.118C80.5967 154.868 80.5534 154.651 80.4668 154.469C80.3802 154.286 80.248 154.145 80.0703 154.045C79.8926 153.945 79.667 153.895 79.3936 153.895C79.152 153.895 78.9401 153.936 78.7578 154.018C78.5801 154.1 78.4434 154.216 78.3477 154.366C78.252 154.512 78.2041 154.681 78.2041 154.872H76.3926C76.3926 154.567 76.4655 154.277 76.6113 154.004C76.7572 153.726 76.9645 153.48 77.2334 153.266C77.5068 153.047 77.8327 152.876 78.2109 152.753C78.5938 152.63 79.0221 152.568 79.4961 152.568C80.0566 152.568 80.5557 152.664 80.9932 152.855C81.4352 153.042 81.7816 153.325 82.0322 153.703C82.2874 154.081 82.415 154.558 82.415 155.132V158.358C82.415 158.728 82.4378 159.044 82.4834 159.309C82.5335 159.568 82.6064 159.794 82.7021 159.985V160.102H80.8633C80.7767 159.915 80.7106 159.678 80.665 159.391C80.6195 159.099 80.5967 158.812 80.5967 158.529ZM80.8496 155.597L80.8633 156.67H79.7217C79.4391 156.67 79.1908 156.7 78.9766 156.759C78.7624 156.813 78.5869 156.896 78.4502 157.005C78.3135 157.11 78.2109 157.237 78.1426 157.388C78.0742 157.534 78.04 157.7 78.04 157.887C78.04 158.069 78.0811 158.233 78.1631 158.379C78.2497 158.525 78.3727 158.641 78.5322 158.728C78.6963 158.81 78.8877 158.851 79.1064 158.851C79.4255 158.851 79.7035 158.787 79.9404 158.659C80.1774 158.527 80.362 158.368 80.4941 158.181C80.6263 157.994 80.6969 157.816 80.7061 157.647L81.2256 158.427C81.1618 158.614 81.0661 158.812 80.9385 159.021C80.8109 159.231 80.6468 159.427 80.4463 159.609C80.2458 159.792 80.0042 159.942 79.7217 160.061C79.4391 160.179 79.111 160.238 78.7373 160.238C78.2588 160.238 77.8304 160.143 77.4521 159.951C77.0739 159.76 76.7754 159.498 76.5566 159.165C76.3379 158.832 76.2285 158.454 76.2285 158.03C76.2285 157.638 76.3014 157.292 76.4473 156.991C76.5931 156.69 76.8096 156.438 77.0967 156.232C77.3838 156.023 77.7393 155.866 78.1631 155.761C78.5915 155.651 79.0814 155.597 79.6328 155.597H80.8496ZM89.668 150.148V160.102H87.7881V150.148H89.668ZM93.332 154.284V160.102H91.5273V152.705H93.2227L93.332 154.284ZM93.0449 156.137H92.5117C92.5163 155.599 92.5892 155.111 92.7305 154.674C92.8717 154.236 93.07 153.86 93.3252 153.546C93.585 153.231 93.8926 152.99 94.248 152.821C94.6035 152.653 95 152.568 95.4375 152.568C95.793 152.568 96.1143 152.618 96.4014 152.719C96.6885 152.819 96.9346 152.979 97.1396 153.197C97.3493 153.416 97.5088 153.703 97.6182 154.059C97.7321 154.41 97.7891 154.842 97.7891 155.357V160.102H95.9707V155.344C95.9707 155.007 95.9206 154.74 95.8203 154.544C95.7246 154.348 95.5833 154.209 95.3965 154.127C95.2142 154.045 94.9886 154.004 94.7197 154.004C94.4417 154.004 94.1979 154.061 93.9883 154.175C93.7832 154.284 93.61 154.437 93.4688 154.633C93.332 154.829 93.2272 155.054 93.1543 155.31C93.0814 155.565 93.0449 155.84 93.0449 156.137ZM101.747 160.102H99.9287V152.09C99.9287 151.52 100.043 151.042 100.271 150.654C100.503 150.262 100.838 149.966 101.275 149.766C101.713 149.561 102.242 149.458 102.861 149.458C103.117 149.458 103.433 149.472 103.812 149.499C104.194 149.526 104.586 149.561 104.987 149.602C105.393 149.643 105.757 149.686 106.081 149.731L105.315 151.14C104.896 151.067 104.5 151.01 104.126 150.969C103.757 150.923 103.413 150.9 103.094 150.9C102.802 150.9 102.556 150.946 102.355 151.037C102.155 151.128 102.002 151.263 101.897 151.44C101.797 151.614 101.747 151.83 101.747 152.09V160.102ZM104.27 160.102V149.731H106.081V160.102H104.27ZM103.244 152.705V154.004H98.8145V152.705H103.244ZM112.22 158.345V152.705H114.038V160.102H112.329L112.22 158.345ZM112.452 156.813L113.013 156.8C113.013 157.297 112.958 157.755 112.849 158.174C112.739 158.593 112.568 158.958 112.336 159.268C112.108 159.573 111.819 159.812 111.468 159.985C111.117 160.154 110.702 160.238 110.224 160.238C109.859 160.238 109.526 160.188 109.226 160.088C108.925 159.983 108.665 159.821 108.446 159.603C108.232 159.379 108.066 159.094 107.947 158.748C107.829 158.397 107.77 157.976 107.77 157.483V152.705H109.574V157.497C109.574 157.743 109.602 157.948 109.656 158.112C109.715 158.276 109.795 158.411 109.896 158.516C110 158.616 110.121 158.689 110.258 158.734C110.399 158.775 110.549 158.796 110.709 158.796C111.146 158.796 111.491 158.709 111.741 158.536C111.996 158.358 112.179 158.121 112.288 157.825C112.397 157.524 112.452 157.187 112.452 156.813ZM118.96 160.238C118.399 160.238 117.896 160.147 117.449 159.965C117.003 159.783 116.622 159.53 116.308 159.206C115.998 158.878 115.758 158.497 115.59 158.064C115.426 157.627 115.344 157.158 115.344 156.656V156.383C115.344 155.813 115.426 155.296 115.59 154.831C115.754 154.362 115.986 153.958 116.287 153.621C116.588 153.284 116.948 153.024 117.367 152.842C117.786 152.66 118.249 152.568 118.755 152.568C119.279 152.568 119.742 152.657 120.143 152.835C120.544 153.008 120.879 153.254 121.147 153.573C121.416 153.892 121.619 154.275 121.756 154.722C121.893 155.164 121.961 155.654 121.961 156.191V156.95H116.164V155.706H120.184V155.569C120.174 155.282 120.12 155.02 120.02 154.783C119.919 154.542 119.764 154.35 119.555 154.209C119.345 154.063 119.074 153.99 118.741 153.99C118.472 153.99 118.238 154.049 118.037 154.168C117.841 154.282 117.677 154.446 117.545 154.66C117.417 154.87 117.322 155.12 117.258 155.412C117.194 155.704 117.162 156.027 117.162 156.383V156.656C117.162 156.966 117.203 157.253 117.285 157.518C117.372 157.782 117.497 158.012 117.661 158.208C117.83 158.399 118.03 158.55 118.263 158.659C118.5 158.764 118.769 158.816 119.069 158.816C119.448 158.816 119.789 158.743 120.095 158.598C120.405 158.447 120.674 158.226 120.901 157.935L121.811 158.878C121.656 159.106 121.446 159.325 121.182 159.534C120.922 159.744 120.607 159.915 120.238 160.047C119.869 160.174 119.443 160.238 118.96 160.238ZM124.941 154.284V160.102H123.137V152.705H124.832L124.941 154.284ZM124.654 156.137H124.121C124.126 155.599 124.199 155.111 124.34 154.674C124.481 154.236 124.679 153.86 124.935 153.546C125.194 153.231 125.502 152.99 125.857 152.821C126.213 152.653 126.609 152.568 127.047 152.568C127.402 152.568 127.724 152.618 128.011 152.719C128.298 152.819 128.544 152.979 128.749 153.197C128.959 153.416 129.118 153.703 129.228 154.059C129.341 154.41 129.398 154.842 129.398 155.357V160.102H127.58V155.344C127.58 155.007 127.53 154.74 127.43 154.544C127.334 154.348 127.193 154.209 127.006 154.127C126.824 154.045 126.598 154.004 126.329 154.004C126.051 154.004 125.807 154.061 125.598 154.175C125.393 154.284 125.219 154.437 125.078 154.633C124.941 154.829 124.837 155.054 124.764 155.31C124.691 155.565 124.654 155.84 124.654 156.137ZM134.026 158.816C134.282 158.816 134.509 158.766 134.71 158.666C134.91 158.566 135.07 158.424 135.188 158.242C135.312 158.06 135.378 157.848 135.387 157.606H137.089C137.08 158.108 136.938 158.557 136.665 158.953C136.392 159.35 136.027 159.664 135.571 159.896C135.12 160.124 134.614 160.238 134.054 160.238C133.484 160.238 132.987 160.143 132.563 159.951C132.14 159.76 131.786 159.493 131.504 159.151C131.226 158.81 131.016 158.413 130.875 157.962C130.738 157.511 130.67 157.028 130.67 156.513V156.294C130.67 155.779 130.738 155.296 130.875 154.845C131.016 154.394 131.226 153.997 131.504 153.655C131.786 153.313 132.14 153.047 132.563 152.855C132.987 152.664 133.482 152.568 134.047 152.568C134.644 152.568 135.168 152.685 135.619 152.917C136.075 153.149 136.43 153.478 136.686 153.901C136.945 154.325 137.08 154.824 137.089 155.398H135.387C135.378 155.134 135.318 154.897 135.209 154.688C135.1 154.478 134.945 154.309 134.744 154.182C134.544 154.054 134.3 153.99 134.013 153.99C133.707 153.99 133.452 154.054 133.247 154.182C133.047 154.309 132.889 154.485 132.775 154.708C132.666 154.927 132.589 155.173 132.543 155.446C132.502 155.715 132.481 155.998 132.481 156.294V156.513C132.481 156.813 132.502 157.101 132.543 157.374C132.589 157.647 132.666 157.894 132.775 158.112C132.889 158.326 133.047 158.497 133.247 158.625C133.452 158.753 133.712 158.816 134.026 158.816ZM141.614 160.238C141.054 160.238 140.55 160.147 140.104 159.965C139.657 159.783 139.276 159.53 138.962 159.206C138.652 158.878 138.413 158.497 138.244 158.064C138.08 157.627 137.998 157.158 137.998 156.656V156.383C137.998 155.813 138.08 155.296 138.244 154.831C138.408 154.362 138.641 153.958 138.941 153.621C139.242 153.284 139.602 153.024 140.021 152.842C140.441 152.66 140.903 152.568 141.409 152.568C141.933 152.568 142.396 152.657 142.797 152.835C143.198 153.008 143.533 153.254 143.802 153.573C144.071 153.892 144.273 154.275 144.41 154.722C144.547 155.164 144.615 155.654 144.615 156.191V156.95H138.818V155.706H142.838V155.569C142.829 155.282 142.774 155.02 142.674 154.783C142.574 154.542 142.419 154.35 142.209 154.209C141.999 154.063 141.728 153.99 141.396 153.99C141.127 153.99 140.892 154.049 140.691 154.168C140.495 154.282 140.331 154.446 140.199 154.66C140.072 154.87 139.976 155.12 139.912 155.412C139.848 155.704 139.816 156.027 139.816 156.383V156.656C139.816 156.966 139.857 157.253 139.939 157.518C140.026 157.782 140.151 158.012 140.315 158.208C140.484 158.399 140.685 158.55 140.917 158.659C141.154 158.764 141.423 158.816 141.724 158.816C142.102 158.816 142.444 158.743 142.749 158.598C143.059 158.447 143.328 158.226 143.556 157.935L144.465 158.878C144.31 159.106 144.1 159.325 143.836 159.534C143.576 159.744 143.262 159.915 142.893 160.047C142.523 160.174 142.097 160.238 141.614 160.238Z" fill="#2B2A2A"/>
<path d="M322.229 182.51L319.256 191.137H317.458L321.204 181.184H322.353L322.229 182.51ZM324.718 191.137L321.737 182.51L321.607 181.184H322.763L326.522 191.137H324.718ZM324.574 187.445V188.806H319.16V187.445H324.574ZM331.841 189.394V183.74H333.495V191.137H331.937L331.841 189.394ZM332.073 187.855L332.627 187.842C332.627 188.339 332.572 188.797 332.463 189.216C332.354 189.631 332.185 189.993 331.957 190.303C331.729 190.608 331.438 190.847 331.082 191.021C330.727 191.189 330.3 191.273 329.804 191.273C329.444 191.273 329.113 191.221 328.812 191.116C328.512 191.011 328.252 190.85 328.033 190.631C327.819 190.412 327.653 190.127 327.534 189.776C327.416 189.425 327.356 189.006 327.356 188.519V183.74H329.004V188.532C329.004 188.801 329.036 189.027 329.1 189.209C329.163 189.387 329.25 189.53 329.359 189.64C329.469 189.749 329.596 189.826 329.742 189.872C329.888 189.918 330.043 189.94 330.207 189.94C330.676 189.94 331.046 189.849 331.314 189.667C331.588 189.48 331.782 189.229 331.896 188.915C332.014 188.601 332.073 188.247 332.073 187.855ZM339.695 189.605V180.637H341.35V191.137H339.853L339.695 189.605ZM334.883 187.521V187.377C334.883 186.816 334.949 186.306 335.081 185.846C335.213 185.381 335.405 184.982 335.655 184.649C335.906 184.312 336.211 184.055 336.571 183.877C336.931 183.695 337.337 183.604 337.788 183.604C338.235 183.604 338.627 183.69 338.964 183.863C339.301 184.036 339.588 184.285 339.825 184.608C340.062 184.927 340.251 185.31 340.393 185.757C340.534 186.199 340.634 186.691 340.693 187.233V187.691C340.634 188.22 340.534 188.703 340.393 189.141C340.251 189.578 340.062 189.956 339.825 190.275C339.588 190.594 339.299 190.84 338.957 191.014C338.62 191.187 338.226 191.273 337.774 191.273C337.328 191.273 336.924 191.18 336.564 190.993C336.209 190.806 335.906 190.544 335.655 190.207C335.405 189.87 335.213 189.473 335.081 189.018C334.949 188.557 334.883 188.058 334.883 187.521ZM336.53 187.377V187.521C336.53 187.858 336.56 188.172 336.619 188.464C336.683 188.756 336.781 189.013 336.913 189.236C337.045 189.455 337.216 189.628 337.426 189.756C337.64 189.879 337.895 189.94 338.191 189.94C338.565 189.94 338.873 189.858 339.114 189.694C339.356 189.53 339.545 189.309 339.682 189.031C339.823 188.749 339.919 188.434 339.969 188.088V186.851C339.941 186.582 339.884 186.331 339.798 186.099C339.716 185.866 339.604 185.663 339.463 185.49C339.322 185.312 339.146 185.176 338.937 185.08C338.731 184.98 338.488 184.93 338.205 184.93C337.904 184.93 337.649 184.993 337.439 185.121C337.23 185.249 337.057 185.424 336.92 185.647C336.788 185.871 336.69 186.131 336.626 186.427C336.562 186.723 336.53 187.04 336.53 187.377ZM344.836 183.74V191.137H343.182V183.74H344.836ZM343.072 181.799C343.072 181.548 343.154 181.341 343.318 181.177C343.487 181.008 343.719 180.924 344.016 180.924C344.307 180.924 344.537 181.008 344.706 181.177C344.875 181.341 344.959 181.548 344.959 181.799C344.959 182.045 344.875 182.25 344.706 182.414C344.537 182.578 344.307 182.66 344.016 182.66C343.719 182.66 343.487 182.578 343.318 182.414C343.154 182.25 343.072 182.045 343.072 181.799ZM349.901 191.273C349.354 191.273 348.86 191.185 348.418 191.007C347.98 190.825 347.607 190.572 347.297 190.248C346.992 189.924 346.757 189.544 346.593 189.106C346.429 188.669 346.347 188.197 346.347 187.691V187.418C346.347 186.839 346.431 186.315 346.6 185.846C346.768 185.376 347.003 184.975 347.304 184.643C347.604 184.305 347.96 184.048 348.37 183.87C348.78 183.692 349.225 183.604 349.703 183.604C350.232 183.604 350.694 183.692 351.091 183.87C351.487 184.048 351.815 184.299 352.075 184.622C352.34 184.941 352.535 185.322 352.663 185.764C352.795 186.206 352.861 186.693 352.861 187.227V187.931H347.146V186.748H351.234V186.618C351.225 186.322 351.166 186.044 351.057 185.784C350.952 185.524 350.79 185.315 350.571 185.155C350.353 184.996 350.061 184.916 349.696 184.916C349.423 184.916 349.179 184.975 348.965 185.094C348.755 185.208 348.58 185.374 348.438 185.593C348.297 185.812 348.188 186.076 348.11 186.386C348.037 186.691 348.001 187.035 348.001 187.418V187.691C348.001 188.015 348.044 188.316 348.131 188.594C348.222 188.867 348.354 189.106 348.527 189.312C348.701 189.517 348.91 189.678 349.156 189.797C349.402 189.911 349.683 189.968 349.997 189.968C350.394 189.968 350.747 189.888 351.057 189.729C351.367 189.569 351.635 189.343 351.863 189.052L352.731 189.893C352.572 190.125 352.365 190.348 352.109 190.562C351.854 190.772 351.542 190.943 351.173 191.075C350.808 191.207 350.384 191.273 349.901 191.273ZM355.78 185.319V191.137H354.133V183.74H355.685L355.78 185.319ZM355.486 187.165L354.953 187.158C354.958 186.634 355.031 186.153 355.172 185.716C355.318 185.278 355.518 184.902 355.773 184.588C356.033 184.273 356.343 184.032 356.703 183.863C357.063 183.69 357.464 183.604 357.906 183.604C358.262 183.604 358.583 183.654 358.87 183.754C359.162 183.85 359.41 184.007 359.615 184.226C359.825 184.444 359.984 184.729 360.094 185.08C360.203 185.426 360.258 185.853 360.258 186.358V191.137H358.604V186.352C358.604 185.996 358.551 185.716 358.446 185.511C358.346 185.301 358.198 185.153 358.002 185.066C357.811 184.975 357.571 184.93 357.284 184.93C357.002 184.93 356.749 184.989 356.525 185.107C356.302 185.226 356.113 185.388 355.958 185.593C355.808 185.798 355.691 186.035 355.609 186.304C355.527 186.573 355.486 186.86 355.486 187.165ZM364.961 189.961C365.23 189.961 365.471 189.909 365.686 189.804C365.904 189.694 366.08 189.544 366.212 189.353C366.349 189.161 366.424 188.94 366.438 188.689H367.989C367.98 189.168 367.839 189.603 367.565 189.995C367.292 190.387 366.93 190.699 366.479 190.932C366.027 191.16 365.528 191.273 364.981 191.273C364.416 191.273 363.924 191.178 363.505 190.986C363.086 190.79 362.737 190.521 362.459 190.18C362.181 189.838 361.971 189.444 361.83 188.997C361.693 188.55 361.625 188.072 361.625 187.562V187.322C361.625 186.812 361.693 186.333 361.83 185.887C361.971 185.436 362.181 185.039 362.459 184.697C362.737 184.355 363.086 184.089 363.505 183.897C363.924 183.701 364.414 183.604 364.975 183.604C365.567 183.604 366.087 183.722 366.533 183.959C366.98 184.191 367.331 184.517 367.586 184.937C367.846 185.351 367.98 185.834 367.989 186.386H366.438C366.424 186.112 366.355 185.866 366.232 185.647C366.114 185.424 365.945 185.246 365.727 185.114C365.512 184.982 365.255 184.916 364.954 184.916C364.621 184.916 364.346 184.984 364.127 185.121C363.908 185.253 363.737 185.436 363.614 185.668C363.491 185.896 363.402 186.153 363.348 186.44C363.298 186.723 363.272 187.017 363.272 187.322V187.562C363.272 187.867 363.298 188.163 363.348 188.45C363.398 188.737 363.484 188.995 363.607 189.223C363.735 189.446 363.908 189.626 364.127 189.763C364.346 189.895 364.624 189.961 364.961 189.961ZM372.515 191.273C371.968 191.273 371.473 191.185 371.031 191.007C370.594 190.825 370.22 190.572 369.91 190.248C369.605 189.924 369.37 189.544 369.206 189.106C369.042 188.669 368.96 188.197 368.96 187.691V187.418C368.96 186.839 369.044 186.315 369.213 185.846C369.382 185.376 369.616 184.975 369.917 184.643C370.218 184.305 370.573 184.048 370.983 183.87C371.394 183.692 371.838 183.604 372.316 183.604C372.845 183.604 373.308 183.692 373.704 183.87C374.101 184.048 374.429 184.299 374.688 184.622C374.953 184.941 375.149 185.322 375.276 185.764C375.409 186.206 375.475 186.693 375.475 187.227V187.931H369.76V186.748H373.848V186.618C373.839 186.322 373.779 186.044 373.67 185.784C373.565 185.524 373.403 185.315 373.185 185.155C372.966 184.996 372.674 184.916 372.31 184.916C372.036 184.916 371.792 184.975 371.578 185.094C371.368 185.208 371.193 185.374 371.052 185.593C370.91 185.812 370.801 186.076 370.724 186.386C370.651 186.691 370.614 187.035 370.614 187.418V187.691C370.614 188.015 370.658 188.316 370.744 188.594C370.835 188.867 370.967 189.106 371.141 189.312C371.314 189.517 371.523 189.678 371.77 189.797C372.016 189.911 372.296 189.968 372.61 189.968C373.007 189.968 373.36 189.888 373.67 189.729C373.98 189.569 374.249 189.343 374.477 189.052L375.345 189.893C375.185 190.125 374.978 190.348 374.723 190.562C374.467 190.772 374.155 190.943 373.786 191.075C373.422 191.207 372.998 191.273 372.515 191.273ZM382.126 181.184V191.137H380.41V181.184H382.126ZM386.187 185.538V186.898H381.688V185.538H386.187ZM386.754 181.184V182.551H381.688V181.184H386.754ZM387.492 187.521V187.363C387.492 186.83 387.57 186.336 387.725 185.88C387.88 185.42 388.103 185.021 388.395 184.684C388.691 184.342 389.051 184.077 389.475 183.891C389.903 183.699 390.386 183.604 390.924 183.604C391.466 183.604 391.949 183.699 392.373 183.891C392.801 184.077 393.164 184.342 393.46 184.684C393.756 185.021 393.982 185.42 394.137 185.88C394.292 186.336 394.369 186.83 394.369 187.363V187.521C394.369 188.054 394.292 188.548 394.137 189.004C393.982 189.46 393.756 189.858 393.46 190.2C393.164 190.537 392.804 190.802 392.38 190.993C391.956 191.18 391.475 191.273 390.938 191.273C390.395 191.273 389.91 191.18 389.481 190.993C389.058 190.802 388.698 190.537 388.401 190.2C388.105 189.858 387.88 189.46 387.725 189.004C387.57 188.548 387.492 188.054 387.492 187.521ZM389.14 187.363V187.521C389.14 187.853 389.174 188.168 389.242 188.464C389.311 188.76 389.418 189.02 389.563 189.243C389.709 189.466 389.896 189.642 390.124 189.77C390.352 189.897 390.623 189.961 390.938 189.961C391.243 189.961 391.507 189.897 391.73 189.77C391.958 189.642 392.145 189.466 392.291 189.243C392.437 189.02 392.544 188.76 392.612 188.464C392.685 188.168 392.722 187.853 392.722 187.521V187.363C392.722 187.035 392.685 186.725 392.612 186.434C392.544 186.137 392.435 185.875 392.284 185.647C392.138 185.42 391.951 185.242 391.724 185.114C391.5 184.982 391.234 184.916 390.924 184.916C390.614 184.916 390.345 184.982 390.117 185.114C389.894 185.242 389.709 185.42 389.563 185.647C389.418 185.875 389.311 186.137 389.242 186.434C389.174 186.725 389.14 187.035 389.14 187.363ZM398.771 189.961C399.04 189.961 399.282 189.909 399.496 189.804C399.715 189.694 399.89 189.544 400.022 189.353C400.159 189.161 400.234 188.94 400.248 188.689H401.8C401.791 189.168 401.649 189.603 401.376 189.995C401.103 190.387 400.74 190.699 400.289 190.932C399.838 191.16 399.339 191.273 398.792 191.273C398.227 191.273 397.735 191.178 397.315 190.986C396.896 190.79 396.548 190.521 396.27 190.18C395.992 189.838 395.782 189.444 395.641 188.997C395.504 188.55 395.436 188.072 395.436 187.562V187.322C395.436 186.812 395.504 186.333 395.641 185.887C395.782 185.436 395.992 185.039 396.27 184.697C396.548 184.355 396.896 184.089 397.315 183.897C397.735 183.701 398.225 183.604 398.785 183.604C399.378 183.604 399.897 183.722 400.344 183.959C400.79 184.191 401.141 184.517 401.396 184.937C401.656 185.351 401.791 185.834 401.8 186.386H400.248C400.234 186.112 400.166 185.866 400.043 185.647C399.924 185.424 399.756 185.246 399.537 185.114C399.323 184.982 399.065 184.916 398.765 184.916C398.432 184.916 398.156 184.984 397.938 185.121C397.719 185.253 397.548 185.436 397.425 185.668C397.302 185.896 397.213 186.153 397.158 186.44C397.108 186.723 397.083 187.017 397.083 187.322V187.562C397.083 187.867 397.108 188.163 397.158 188.45C397.208 188.737 397.295 188.995 397.418 189.223C397.546 189.446 397.719 189.626 397.938 189.763C398.156 189.895 398.434 189.961 398.771 189.961ZM407.515 189.394V183.74H409.169V191.137H407.61L407.515 189.394ZM407.747 187.855L408.301 187.842C408.301 188.339 408.246 188.797 408.137 189.216C408.027 189.631 407.859 189.993 407.631 190.303C407.403 190.608 407.111 190.847 406.756 191.021C406.4 191.189 405.974 191.273 405.478 191.273C405.118 191.273 404.787 191.221 404.486 191.116C404.186 191.011 403.926 190.85 403.707 190.631C403.493 190.412 403.326 190.127 403.208 189.776C403.09 189.425 403.03 189.006 403.03 188.519V183.74H404.678V188.532C404.678 188.801 404.71 189.027 404.773 189.209C404.837 189.387 404.924 189.53 405.033 189.64C405.143 189.749 405.27 189.826 405.416 189.872C405.562 189.918 405.717 189.94 405.881 189.94C406.35 189.94 406.719 189.849 406.988 189.667C407.262 189.48 407.455 189.229 407.569 188.915C407.688 188.601 407.747 188.247 407.747 187.855ZM415.007 189.134C415.007 188.97 414.966 188.822 414.884 188.689C414.802 188.553 414.645 188.43 414.412 188.32C414.184 188.211 413.847 188.111 413.4 188.02C413.008 187.933 412.648 187.83 412.32 187.712C411.997 187.589 411.719 187.441 411.486 187.268C411.254 187.094 411.074 186.889 410.946 186.652C410.819 186.415 410.755 186.142 410.755 185.832C410.755 185.531 410.821 185.246 410.953 184.978C411.085 184.709 411.274 184.472 411.521 184.267C411.767 184.062 412.065 183.9 412.416 183.781C412.771 183.663 413.168 183.604 413.605 183.604C414.225 183.604 414.756 183.708 415.198 183.918C415.645 184.123 415.987 184.403 416.224 184.759C416.461 185.11 416.579 185.506 416.579 185.948H414.932C414.932 185.752 414.882 185.57 414.781 185.401C414.686 185.228 414.54 185.089 414.344 184.984C414.148 184.875 413.902 184.82 413.605 184.82C413.323 184.82 413.088 184.866 412.901 184.957C412.719 185.044 412.582 185.158 412.491 185.299C412.405 185.44 412.361 185.595 412.361 185.764C412.361 185.887 412.384 185.998 412.43 186.099C412.48 186.194 412.562 186.283 412.676 186.365C412.79 186.443 412.945 186.516 413.141 186.584C413.341 186.652 413.592 186.718 413.893 186.782C414.458 186.901 414.943 187.053 415.349 187.24C415.759 187.423 416.073 187.66 416.292 187.951C416.511 188.238 416.62 188.603 416.62 189.045C416.62 189.373 416.549 189.674 416.408 189.947C416.271 190.216 416.071 190.451 415.807 190.651C415.542 190.847 415.226 191 414.856 191.109C414.492 191.219 414.082 191.273 413.626 191.273C412.956 191.273 412.389 191.155 411.924 190.918C411.459 190.676 411.106 190.369 410.864 189.995C410.627 189.617 410.509 189.225 410.509 188.819H412.102C412.12 189.125 412.204 189.368 412.354 189.551C412.509 189.729 412.701 189.858 412.929 189.94C413.161 190.018 413.4 190.057 413.646 190.057C413.943 190.057 414.191 190.018 414.392 189.94C414.592 189.858 414.745 189.749 414.85 189.612C414.954 189.471 415.007 189.312 415.007 189.134Z" fill="black"/>
<path d="M322.086 248.709H319.55L319.536 247.458H321.751C322.125 247.458 322.441 247.403 322.701 247.294C322.965 247.18 323.166 247.018 323.303 246.809C323.439 246.594 323.508 246.337 323.508 246.036C323.508 245.703 323.444 245.432 323.316 245.223C323.189 245.013 322.993 244.86 322.729 244.765C322.469 244.669 322.136 244.621 321.73 244.621H320.069V253.207H318.354V243.254H321.73C322.277 243.254 322.765 243.306 323.193 243.411C323.626 243.516 323.993 243.68 324.294 243.903C324.599 244.122 324.829 244.4 324.984 244.737C325.144 245.075 325.224 245.476 325.224 245.94C325.224 246.351 325.126 246.727 324.93 247.068C324.734 247.406 324.444 247.681 324.062 247.896C323.679 248.11 323.202 248.237 322.633 248.278L322.086 248.709ZM322.011 253.207H319.01L319.782 251.847H322.011C322.398 251.847 322.722 251.783 322.981 251.655C323.241 251.523 323.435 251.343 323.562 251.115C323.695 250.883 323.761 250.612 323.761 250.302C323.761 249.978 323.704 249.698 323.59 249.461C323.476 249.219 323.296 249.035 323.05 248.907C322.804 248.775 322.482 248.709 322.086 248.709H320.158L320.172 247.458H322.681L323.07 247.93C323.617 247.948 324.066 248.069 324.417 248.292C324.772 248.515 325.037 248.805 325.21 249.16C325.383 249.516 325.47 249.898 325.47 250.309C325.47 250.942 325.331 251.473 325.053 251.901C324.779 252.33 324.385 252.656 323.87 252.879C323.355 253.098 322.735 253.207 322.011 253.207ZM331.485 251.464V245.811H333.14V253.207H331.581L331.485 251.464ZM331.718 249.926L332.271 249.912C332.271 250.409 332.217 250.867 332.107 251.286C331.998 251.701 331.829 252.063 331.602 252.373C331.374 252.678 331.082 252.918 330.727 253.091C330.371 253.259 329.945 253.344 329.448 253.344C329.088 253.344 328.758 253.291 328.457 253.187C328.156 253.082 327.896 252.92 327.678 252.701C327.464 252.482 327.297 252.198 327.179 251.847C327.06 251.496 327.001 251.076 327.001 250.589V245.811H328.648V250.603C328.648 250.871 328.68 251.097 328.744 251.279C328.808 251.457 328.895 251.601 329.004 251.71C329.113 251.819 329.241 251.897 329.387 251.942C329.533 251.988 329.688 252.011 329.852 252.011C330.321 252.011 330.69 251.92 330.959 251.737C331.232 251.55 331.426 251.3 331.54 250.985C331.659 250.671 331.718 250.318 331.718 249.926ZM338.978 251.204C338.978 251.04 338.937 250.892 338.854 250.76C338.772 250.623 338.615 250.5 338.383 250.391C338.155 250.281 337.818 250.181 337.371 250.09C336.979 250.003 336.619 249.901 336.291 249.782C335.967 249.659 335.689 249.511 335.457 249.338C335.225 249.165 335.045 248.96 334.917 248.723C334.789 248.486 334.726 248.212 334.726 247.902C334.726 247.602 334.792 247.317 334.924 247.048C335.056 246.779 335.245 246.542 335.491 246.337C335.737 246.132 336.036 245.97 336.387 245.852C336.742 245.733 337.139 245.674 337.576 245.674C338.196 245.674 338.727 245.779 339.169 245.988C339.616 246.193 339.957 246.474 340.194 246.829C340.431 247.18 340.55 247.576 340.55 248.019H338.902C338.902 247.823 338.852 247.64 338.752 247.472C338.656 247.299 338.51 247.16 338.314 247.055C338.118 246.945 337.872 246.891 337.576 246.891C337.294 246.891 337.059 246.936 336.872 247.027C336.69 247.114 336.553 247.228 336.462 247.369C336.375 247.51 336.332 247.665 336.332 247.834C336.332 247.957 336.355 248.069 336.4 248.169C336.451 248.265 336.533 248.354 336.646 248.436C336.76 248.513 336.915 248.586 337.111 248.654C337.312 248.723 337.562 248.789 337.863 248.853C338.428 248.971 338.914 249.124 339.319 249.311C339.729 249.493 340.044 249.73 340.263 250.021C340.481 250.309 340.591 250.673 340.591 251.115C340.591 251.443 340.52 251.744 340.379 252.018C340.242 252.286 340.042 252.521 339.777 252.722C339.513 252.918 339.196 253.07 338.827 253.18C338.463 253.289 338.052 253.344 337.597 253.344C336.927 253.344 336.359 253.225 335.895 252.988C335.43 252.747 335.076 252.439 334.835 252.065C334.598 251.687 334.479 251.295 334.479 250.89H336.072C336.09 251.195 336.175 251.439 336.325 251.621C336.48 251.799 336.672 251.929 336.899 252.011C337.132 252.088 337.371 252.127 337.617 252.127C337.913 252.127 338.162 252.088 338.362 252.011C338.563 251.929 338.715 251.819 338.82 251.683C338.925 251.541 338.978 251.382 338.978 251.204ZM343.797 245.811V253.207H342.143V245.811H343.797ZM342.033 243.869C342.033 243.618 342.115 243.411 342.279 243.247C342.448 243.078 342.68 242.994 342.977 242.994C343.268 242.994 343.498 243.078 343.667 243.247C343.836 243.411 343.92 243.618 343.92 243.869C343.92 244.115 343.836 244.32 343.667 244.484C343.498 244.648 343.268 244.73 342.977 244.73C342.68 244.73 342.448 244.648 342.279 244.484C342.115 244.32 342.033 244.115 342.033 243.869ZM347.235 247.39V253.207H345.588V245.811H347.14L347.235 247.39ZM346.941 249.235L346.408 249.229C346.413 248.704 346.486 248.224 346.627 247.786C346.773 247.349 346.973 246.973 347.229 246.658C347.488 246.344 347.798 246.102 348.158 245.934C348.518 245.76 348.919 245.674 349.361 245.674C349.717 245.674 350.038 245.724 350.325 245.824C350.617 245.92 350.865 246.077 351.07 246.296C351.28 246.515 351.439 246.799 351.549 247.15C351.658 247.497 351.713 247.923 351.713 248.429V253.207H350.059V248.422C350.059 248.066 350.006 247.786 349.901 247.581C349.801 247.371 349.653 247.223 349.457 247.137C349.266 247.046 349.026 247 348.739 247C348.457 247 348.204 247.059 347.98 247.178C347.757 247.296 347.568 247.458 347.413 247.663C347.263 247.868 347.146 248.105 347.064 248.374C346.982 248.643 346.941 248.93 346.941 249.235ZM356.655 253.344C356.108 253.344 355.614 253.255 355.172 253.077C354.734 252.895 354.361 252.642 354.051 252.318C353.745 251.995 353.511 251.614 353.347 251.177C353.183 250.739 353.101 250.268 353.101 249.762V249.488C353.101 248.91 353.185 248.385 353.354 247.916C353.522 247.447 353.757 247.046 354.058 246.713C354.358 246.376 354.714 246.118 355.124 245.94C355.534 245.763 355.979 245.674 356.457 245.674C356.986 245.674 357.448 245.763 357.845 245.94C358.241 246.118 358.569 246.369 358.829 246.692C359.093 247.011 359.289 247.392 359.417 247.834C359.549 248.276 359.615 248.764 359.615 249.297V250.001H353.9V248.818H357.988V248.688C357.979 248.392 357.92 248.114 357.811 247.854C357.706 247.595 357.544 247.385 357.325 247.226C357.106 247.066 356.815 246.986 356.45 246.986C356.177 246.986 355.933 247.046 355.719 247.164C355.509 247.278 355.334 247.444 355.192 247.663C355.051 247.882 354.942 248.146 354.864 248.456C354.791 248.761 354.755 249.105 354.755 249.488V249.762C354.755 250.085 354.798 250.386 354.885 250.664C354.976 250.938 355.108 251.177 355.281 251.382C355.454 251.587 355.664 251.749 355.91 251.867C356.156 251.981 356.437 252.038 356.751 252.038C357.147 252.038 357.501 251.958 357.811 251.799C358.12 251.639 358.389 251.414 358.617 251.122L359.485 251.963C359.326 252.195 359.118 252.419 358.863 252.633C358.608 252.842 358.296 253.013 357.927 253.146C357.562 253.278 357.138 253.344 356.655 253.344ZM365.05 251.204C365.05 251.04 365.009 250.892 364.927 250.76C364.845 250.623 364.688 250.5 364.455 250.391C364.227 250.281 363.89 250.181 363.443 250.09C363.051 250.003 362.691 249.901 362.363 249.782C362.04 249.659 361.762 249.511 361.529 249.338C361.297 249.165 361.117 248.96 360.989 248.723C360.862 248.486 360.798 248.212 360.798 247.902C360.798 247.602 360.864 247.317 360.996 247.048C361.128 246.779 361.317 246.542 361.563 246.337C361.81 246.132 362.108 245.97 362.459 245.852C362.814 245.733 363.211 245.674 363.648 245.674C364.268 245.674 364.799 245.779 365.241 245.988C365.688 246.193 366.03 246.474 366.267 246.829C366.504 247.18 366.622 247.576 366.622 248.019H364.975C364.975 247.823 364.924 247.64 364.824 247.472C364.729 247.299 364.583 247.16 364.387 247.055C364.191 246.945 363.945 246.891 363.648 246.891C363.366 246.891 363.131 246.936 362.944 247.027C362.762 247.114 362.625 247.228 362.534 247.369C362.448 247.51 362.404 247.665 362.404 247.834C362.404 247.957 362.427 248.069 362.473 248.169C362.523 248.265 362.605 248.354 362.719 248.436C362.833 248.513 362.988 248.586 363.184 248.654C363.384 248.723 363.635 248.789 363.936 248.853C364.501 248.971 364.986 249.124 365.392 249.311C365.802 249.493 366.116 249.73 366.335 250.021C366.554 250.309 366.663 250.673 366.663 251.115C366.663 251.443 366.592 251.744 366.451 252.018C366.314 252.286 366.114 252.521 365.85 252.722C365.585 252.918 365.269 253.07 364.899 253.18C364.535 253.289 364.125 253.344 363.669 253.344C362.999 253.344 362.432 253.225 361.967 252.988C361.502 252.747 361.149 252.439 360.907 252.065C360.67 251.687 360.552 251.295 360.552 250.89H362.145C362.163 251.195 362.247 251.439 362.397 251.621C362.552 251.799 362.744 251.929 362.972 252.011C363.204 252.088 363.443 252.127 363.689 252.127C363.986 252.127 364.234 252.088 364.435 252.011C364.635 251.929 364.788 251.819 364.893 251.683C364.997 251.541 365.05 251.382 365.05 251.204ZM372.255 251.204C372.255 251.04 372.214 250.892 372.132 250.76C372.05 250.623 371.893 250.5 371.66 250.391C371.432 250.281 371.095 250.181 370.648 250.09C370.257 250.003 369.896 249.901 369.568 249.782C369.245 249.659 368.967 249.511 368.734 249.338C368.502 249.165 368.322 248.96 368.194 248.723C368.067 248.486 368.003 248.212 368.003 247.902C368.003 247.602 368.069 247.317 368.201 247.048C368.333 246.779 368.522 246.542 368.769 246.337C369.015 246.132 369.313 245.97 369.664 245.852C370.02 245.733 370.416 245.674 370.854 245.674C371.473 245.674 372.004 245.779 372.446 245.988C372.893 246.193 373.235 246.474 373.472 246.829C373.709 247.18 373.827 247.576 373.827 248.019H372.18C372.18 247.823 372.13 247.64 372.029 247.472C371.934 247.299 371.788 247.16 371.592 247.055C371.396 246.945 371.15 246.891 370.854 246.891C370.571 246.891 370.336 246.936 370.149 247.027C369.967 247.114 369.83 247.228 369.739 247.369C369.653 247.51 369.609 247.665 369.609 247.834C369.609 247.957 369.632 248.069 369.678 248.169C369.728 248.265 369.81 248.354 369.924 248.436C370.038 248.513 370.193 248.586 370.389 248.654C370.589 248.723 370.84 248.789 371.141 248.853C371.706 248.971 372.191 249.124 372.597 249.311C373.007 249.493 373.321 249.73 373.54 250.021C373.759 250.309 373.868 250.673 373.868 251.115C373.868 251.443 373.798 251.744 373.656 252.018C373.52 252.286 373.319 252.521 373.055 252.722C372.79 252.918 372.474 253.07 372.104 253.18C371.74 253.289 371.33 253.344 370.874 253.344C370.204 253.344 369.637 253.225 369.172 252.988C368.707 252.747 368.354 252.439 368.112 252.065C367.875 251.687 367.757 251.295 367.757 250.89H369.35C369.368 251.195 369.452 251.439 369.603 251.621C369.757 251.799 369.949 251.929 370.177 252.011C370.409 252.088 370.648 252.127 370.895 252.127C371.191 252.127 371.439 252.088 371.64 252.011C371.84 251.929 371.993 251.819 372.098 251.683C372.202 251.541 372.255 251.382 372.255 251.204ZM384.197 250.644C384.197 250.438 384.165 250.256 384.102 250.097C384.042 249.937 383.935 249.791 383.78 249.659C383.625 249.527 383.407 249.399 383.124 249.276C382.846 249.149 382.491 249.019 382.058 248.887C381.584 248.741 381.146 248.579 380.745 248.401C380.349 248.219 380.002 248.009 379.706 247.772C379.41 247.531 379.18 247.255 379.016 246.945C378.852 246.631 378.77 246.269 378.77 245.858C378.77 245.453 378.854 245.084 379.022 244.751C379.196 244.418 379.439 244.131 379.754 243.89C380.073 243.644 380.449 243.454 380.882 243.322C381.315 243.186 381.793 243.117 382.317 243.117C383.056 243.117 383.691 243.254 384.225 243.527C384.762 243.801 385.175 244.168 385.462 244.628C385.754 245.088 385.899 245.596 385.899 246.152H384.197C384.197 245.824 384.127 245.535 383.985 245.284C383.849 245.029 383.639 244.828 383.356 244.683C383.078 244.537 382.725 244.464 382.297 244.464C381.891 244.464 381.554 244.525 381.285 244.648C381.016 244.771 380.816 244.938 380.684 245.147C380.551 245.357 380.485 245.594 380.485 245.858C380.485 246.045 380.529 246.216 380.615 246.371C380.702 246.521 380.834 246.663 381.012 246.795C381.189 246.923 381.413 247.043 381.682 247.157C381.951 247.271 382.267 247.381 382.632 247.485C383.183 247.649 383.664 247.832 384.074 248.032C384.484 248.228 384.826 248.451 385.1 248.702C385.373 248.953 385.578 249.238 385.715 249.557C385.852 249.871 385.92 250.229 385.92 250.63C385.92 251.049 385.836 251.427 385.667 251.765C385.498 252.097 385.257 252.382 384.942 252.619C384.632 252.852 384.259 253.032 383.821 253.159C383.388 253.282 382.905 253.344 382.372 253.344C381.894 253.344 381.422 253.28 380.957 253.152C380.497 253.025 380.077 252.831 379.699 252.571C379.321 252.307 379.02 251.979 378.797 251.587C378.574 251.19 378.462 250.728 378.462 250.199H380.178C380.178 250.523 380.232 250.799 380.342 251.026C380.456 251.254 380.613 251.441 380.813 251.587C381.014 251.728 381.246 251.833 381.511 251.901C381.78 251.97 382.067 252.004 382.372 252.004C382.773 252.004 383.108 251.947 383.377 251.833C383.65 251.719 383.855 251.56 383.992 251.354C384.129 251.149 384.197 250.912 384.197 250.644ZM390.664 245.811V247.014H386.494V245.811H390.664ZM387.697 243.999H389.345V251.163C389.345 251.391 389.377 251.566 389.44 251.689C389.509 251.808 389.602 251.888 389.721 251.929C389.839 251.97 389.978 251.99 390.138 251.99C390.252 251.99 390.361 251.983 390.466 251.97C390.571 251.956 390.655 251.942 390.719 251.929L390.726 253.187C390.589 253.228 390.429 253.264 390.247 253.296C390.069 253.328 389.864 253.344 389.632 253.344C389.254 253.344 388.919 253.278 388.627 253.146C388.335 253.009 388.107 252.788 387.943 252.482C387.779 252.177 387.697 251.771 387.697 251.266V243.999ZM393.59 247.219V253.207H391.942V245.811H393.515L393.59 247.219ZM395.853 245.763L395.839 247.294C395.739 247.276 395.629 247.262 395.511 247.253C395.397 247.244 395.283 247.239 395.169 247.239C394.886 247.239 394.638 247.28 394.424 247.362C394.21 247.44 394.03 247.554 393.884 247.704C393.743 247.85 393.633 248.028 393.556 248.237C393.478 248.447 393.433 248.682 393.419 248.941L393.043 248.969C393.043 248.504 393.089 248.073 393.18 247.677C393.271 247.28 393.408 246.932 393.59 246.631C393.777 246.33 394.009 246.095 394.287 245.927C394.57 245.758 394.896 245.674 395.265 245.674C395.365 245.674 395.472 245.683 395.586 245.701C395.704 245.719 395.793 245.74 395.853 245.763ZM400.809 251.724V248.196C400.809 247.932 400.761 247.704 400.665 247.513C400.569 247.321 400.424 247.173 400.228 247.068C400.036 246.964 399.795 246.911 399.503 246.911C399.234 246.911 399.002 246.957 398.806 247.048C398.61 247.139 398.457 247.262 398.348 247.417C398.238 247.572 398.184 247.747 398.184 247.943H396.543C396.543 247.652 396.614 247.369 396.755 247.096C396.896 246.822 397.101 246.578 397.37 246.364C397.639 246.15 397.96 245.981 398.334 245.858C398.708 245.735 399.127 245.674 399.592 245.674C400.148 245.674 400.64 245.767 401.068 245.954C401.501 246.141 401.841 246.424 402.087 246.802C402.338 247.175 402.463 247.645 402.463 248.21V251.498C402.463 251.835 402.486 252.138 402.531 252.407C402.581 252.672 402.652 252.902 402.743 253.098V253.207H401.055C400.977 253.029 400.916 252.804 400.87 252.53C400.829 252.252 400.809 251.983 400.809 251.724ZM401.048 248.709L401.062 249.728H399.879C399.574 249.728 399.305 249.757 399.072 249.816C398.84 249.871 398.646 249.953 398.491 250.062C398.336 250.172 398.22 250.304 398.143 250.459C398.065 250.614 398.026 250.789 398.026 250.985C398.026 251.181 398.072 251.361 398.163 251.525C398.254 251.685 398.386 251.81 398.56 251.901C398.737 251.993 398.951 252.038 399.202 252.038C399.539 252.038 399.833 251.97 400.084 251.833C400.339 251.692 400.54 251.521 400.686 251.32C400.831 251.115 400.909 250.922 400.918 250.739L401.451 251.471C401.396 251.658 401.303 251.858 401.171 252.072C401.039 252.286 400.866 252.492 400.651 252.688C400.442 252.879 400.189 253.036 399.893 253.159C399.601 253.282 399.264 253.344 398.881 253.344C398.398 253.344 397.967 253.248 397.589 253.057C397.211 252.861 396.914 252.599 396.7 252.271C396.486 251.938 396.379 251.562 396.379 251.143C396.379 250.751 396.452 250.404 396.598 250.104C396.748 249.798 396.967 249.543 397.254 249.338C397.546 249.133 397.901 248.978 398.32 248.873C398.74 248.764 399.218 248.709 399.756 248.709H401.048ZM407.576 245.811V247.014H403.406V245.811H407.576ZM404.609 243.999H406.257V251.163C406.257 251.391 406.289 251.566 406.353 251.689C406.421 251.808 406.514 251.888 406.633 251.929C406.751 251.97 406.89 251.99 407.05 251.99C407.164 251.99 407.273 251.983 407.378 251.97C407.483 251.956 407.567 251.942 407.631 251.929L407.638 253.187C407.501 253.228 407.341 253.264 407.159 253.296C406.981 253.328 406.776 253.344 406.544 253.344C406.166 253.344 405.831 253.278 405.539 253.146C405.247 253.009 405.02 252.788 404.855 252.482C404.691 252.177 404.609 251.771 404.609 251.266V243.999ZM412.108 253.344C411.562 253.344 411.067 253.255 410.625 253.077C410.188 252.895 409.814 252.642 409.504 252.318C409.199 251.995 408.964 251.614 408.8 251.177C408.636 250.739 408.554 250.268 408.554 249.762V249.488C408.554 248.91 408.638 248.385 408.807 247.916C408.975 247.447 409.21 247.046 409.511 246.713C409.812 246.376 410.167 246.118 410.577 245.94C410.987 245.763 411.432 245.674 411.91 245.674C412.439 245.674 412.901 245.763 413.298 245.94C413.694 246.118 414.022 246.369 414.282 246.692C414.547 247.011 414.743 247.392 414.87 247.834C415.002 248.276 415.068 248.764 415.068 249.297V250.001H409.354V248.818H413.441V248.688C413.432 248.392 413.373 248.114 413.264 247.854C413.159 247.595 412.997 247.385 412.778 247.226C412.56 247.066 412.268 246.986 411.903 246.986C411.63 246.986 411.386 247.046 411.172 247.164C410.962 247.278 410.787 247.444 410.646 247.663C410.504 247.882 410.395 248.146 410.317 248.456C410.244 248.761 410.208 249.105 410.208 249.488V249.762C410.208 250.085 410.251 250.386 410.338 250.664C410.429 250.938 410.561 251.177 410.734 251.382C410.908 251.587 411.117 251.749 411.363 251.867C411.609 251.981 411.89 252.038 412.204 252.038C412.601 252.038 412.954 251.958 413.264 251.799C413.574 251.639 413.842 251.414 414.07 251.122L414.938 251.963C414.779 252.195 414.572 252.419 414.316 252.633C414.061 252.842 413.749 253.013 413.38 253.146C413.015 253.278 412.591 253.344 412.108 253.344ZM421.091 245.811H422.588V253.002C422.588 253.667 422.447 254.232 422.164 254.697C421.882 255.162 421.487 255.515 420.981 255.757C420.476 256.003 419.89 256.126 419.225 256.126C418.942 256.126 418.628 256.085 418.281 256.003C417.939 255.921 417.607 255.789 417.283 255.606C416.964 255.429 416.698 255.194 416.483 254.902L417.256 253.932C417.52 254.246 417.812 254.476 418.131 254.622C418.45 254.768 418.785 254.841 419.136 254.841C419.514 254.841 419.835 254.77 420.1 254.629C420.368 254.492 420.576 254.289 420.722 254.021C420.868 253.752 420.94 253.424 420.94 253.036V247.485L421.091 245.811ZM416.066 249.591V249.447C416.066 248.887 416.135 248.376 416.271 247.916C416.408 247.451 416.604 247.052 416.859 246.72C417.115 246.382 417.424 246.125 417.789 245.947C418.154 245.765 418.566 245.674 419.026 245.674C419.505 245.674 419.913 245.76 420.25 245.934C420.592 246.107 420.877 246.355 421.104 246.679C421.332 246.998 421.51 247.381 421.638 247.827C421.77 248.269 421.868 248.761 421.932 249.304V249.762C421.872 250.29 421.772 250.773 421.631 251.211C421.49 251.648 421.303 252.027 421.07 252.346C420.838 252.665 420.551 252.911 420.209 253.084C419.872 253.257 419.473 253.344 419.013 253.344C418.562 253.344 418.154 253.25 417.789 253.063C417.429 252.877 417.119 252.615 416.859 252.277C416.604 251.94 416.408 251.544 416.271 251.088C416.135 250.628 416.066 250.129 416.066 249.591ZM417.714 249.447V249.591C417.714 249.928 417.746 250.243 417.81 250.534C417.878 250.826 417.98 251.083 418.117 251.307C418.258 251.525 418.436 251.699 418.65 251.826C418.869 251.949 419.127 252.011 419.423 252.011C419.81 252.011 420.127 251.929 420.373 251.765C420.624 251.601 420.815 251.38 420.947 251.102C421.084 250.819 421.18 250.505 421.234 250.158V248.921C421.207 248.652 421.15 248.401 421.063 248.169C420.981 247.937 420.87 247.734 420.729 247.561C420.587 247.383 420.41 247.246 420.195 247.15C419.981 247.05 419.728 247 419.437 247C419.14 247 418.883 247.064 418.664 247.191C418.445 247.319 418.265 247.494 418.124 247.718C417.987 247.941 417.885 248.201 417.816 248.497C417.748 248.793 417.714 249.11 417.714 249.447ZM426.443 252.4L428.453 245.811H430.217L427.25 254.335C427.182 254.517 427.093 254.715 426.983 254.93C426.874 255.144 426.73 255.347 426.553 255.538C426.38 255.734 426.163 255.891 425.903 256.01C425.644 256.133 425.329 256.194 424.96 256.194C424.814 256.194 424.673 256.181 424.536 256.153C424.404 256.131 424.279 256.105 424.16 256.078L424.153 254.82C424.199 254.825 424.254 254.829 424.317 254.834C424.386 254.839 424.44 254.841 424.481 254.841C424.755 254.841 424.983 254.807 425.165 254.738C425.347 254.674 425.495 254.57 425.609 254.424C425.728 254.278 425.828 254.082 425.91 253.836L426.443 252.4ZM425.309 245.811L427.065 251.348L427.359 253.084L426.218 253.378L423.531 245.811H425.309Z" fill="black"/>
<path fill-rule="evenodd" clip-rule="evenodd" d="M168.636 152.285C168.636 195.134 133.9 229.871 91.0506 229.871C48.2012 229.871 13.4648 195.134 13.4648 152.285C13.4648 109.436 48.2012 74.6992 91.0506 74.6992C133.9 74.6992 168.636 109.436 168.636 152.285Z" stroke="#808080" stroke-width="1.2931" stroke-linecap="round" stroke-linejoin="round"/>
<path fill-rule="evenodd" clip-rule="evenodd" d="M525.531 214.351H253.981L165.085 175.559C162.422 184.037 158.343 191.888 153.125 198.834L253.981 276.42H525.531V214.351Z" stroke="#AA9907" stroke-width="1.2931" stroke-linecap="round" stroke-linejoin="round"/>
<path fill-rule="evenodd" clip-rule="evenodd" d="M525.534 152.277H253.984H168.64C168.64 160.387 167.396 168.205 165.088 175.553L253.984 214.346H525.534V152.277Z" stroke="#92BD39" stroke-width="1.2931" stroke-linecap="round" stroke-linejoin="round"/>
<path fill-rule="evenodd" clip-rule="evenodd" d="M525.534 90.2109H253.984L165.088 129.004C167.396 136.352 168.64 144.17 168.64 152.28H253.984H525.534V90.2109Z" stroke="#3CC583" stroke-width="1.2931" stroke-linecap="round" stroke-linejoin="round"/>
<path fill-rule="evenodd" clip-rule="evenodd" d="M525.531 28.1406H253.981L153.125 105.726C158.343 112.673 162.422 120.524 165.085 129.002L253.981 90.2092H525.531V28.1406Z" stroke="#1A6D89" stroke-width="1.2931" stroke-linecap="round" stroke-linejoin="round"/>
<path d="M289.544 74.0537C288.866 71.3938 286.47 69.5324 283.725 69.5324C280.98 69.5324 278.585 71.3938 277.906 74.0537M296.01 74.0537C296.688 71.3938 299.083 69.5324 301.829 69.5324C304.574 69.5324 306.969 71.3938 307.647 74.0537M297.839 71.0705C296.756 69.3145 294.84 68.2453 292.777 68.2453C290.714 68.2453 288.798 69.3145 287.714 71.0705M286.958 44.3125L285.018 46.2521M285.018 44.3125L286.958 46.2521M299.889 45.6056L297.949 47.5452M297.949 45.6056L299.889 47.5452M306.354 50.778L304.415 52.7176M304.415 50.778L306.354 52.7176M281.139 48.8383L279.199 50.778M279.199 48.8383L281.139 50.778M297.096 57.9262C298.134 55.3322 300.087 53.2092 302.586 51.9599M288.898 46.2521L289.407 46.5108C292.319 47.9661 294.312 50.7804 294.717 54.0107M283.725 50.1314C287.74 50.9341 291.045 53.7732 292.445 57.621L292.777 58.5366M280.816 65.3253C280.816 66.9322 282.118 68.2348 283.725 68.2348C285.332 68.2348 286.635 66.9322 286.635 65.3253C286.635 63.7185 285.332 62.4158 283.725 62.4158C282.118 62.4158 280.816 63.7185 280.816 65.3253ZM298.919 65.3253C298.919 66.9322 300.222 68.2348 301.829 68.2348C303.435 68.2348 304.738 66.9322 304.738 65.3253C304.738 63.7185 303.435 62.4158 301.829 62.4158C300.222 62.4158 298.919 63.7185 298.919 65.3253ZM289.867 64.0322C289.867 65.6391 291.17 66.9417 292.777 66.9417C294.384 66.9417 295.686 65.6391 295.686 64.0322C295.686 62.4254 294.384 61.1228 292.777 61.1228C291.17 61.1228 289.867 62.4254 289.867 64.0322Z" stroke="#1690B9" stroke-width="1.2931" stroke-linecap="round" stroke-linejoin="round"/>
<path d="M290.837 129.737L277.906 129.744V128.444C277.905 124.346 280.657 120.759 284.615 119.698C288.573 118.638 292.75 120.369 294.798 123.918M285.395 114.857C285.785 114.395 286.36 114.13 286.965 114.131C287.569 114.133 288.142 114.402 288.53 114.866M286.962 124.567V129.744M286.962 124.567L282.795 120.402M286.962 124.567L291.129 120.402M306.848 125.366L297.119 135.094C297.028 135.183 296.914 135.245 296.789 135.271L293.082 136.012C292.732 136.082 292.391 135.854 292.322 135.504C292.304 135.419 292.304 135.331 292.322 135.245L293.063 131.541C293.088 131.416 293.15 131.301 293.24 131.211L302.969 121.483C304.037 120.415 305.769 120.415 306.837 121.483L306.848 121.493C307.917 122.563 307.917 124.296 306.848 125.366ZM281.464 111.957C281.464 114.992 283.924 117.452 286.959 117.452C289.994 117.452 292.455 114.992 292.455 111.957C292.455 108.921 289.994 106.461 286.959 106.461C283.924 106.461 281.464 108.921 281.464 111.957Z" stroke="#199C5D" stroke-width="1.2931" stroke-linecap="round" stroke-linejoin="round"/>
<path d="M282.171 175.486H295.884M291.937 180.658L299.437 170.831C299.695 170.443 299.825 169.926 299.566 169.538C299.308 169.15 298.919 168.762 298.402 168.762H279.652C279.135 168.762 278.747 169.02 278.489 169.538C278.23 170.055 278.359 170.443 278.618 170.831L286.118 180.658L286.118 189.839L291.937 186.477L291.937 180.658ZM307.195 192.684C307.195 192.684 304.609 197.856 299.437 197.856C294.264 197.856 291.678 192.684 291.678 192.684C291.678 192.684 294.264 187.512 299.437 187.512C304.609 187.512 307.195 192.684 307.195 192.684ZM299.437 194.861C300.639 194.861 301.613 193.886 301.613 192.684C301.613 191.482 300.639 190.507 299.437 190.507C298.235 190.507 297.26 191.482 297.26 192.684C297.26 193.886 298.235 194.861 299.437 194.861Z" stroke="#84C400" stroke-width="1.2931" stroke-linecap="round" stroke-linejoin="round"/>
<path d="M281.786 256.378L284.63 252.391C284.731 252.249 284.885 252.155 285.057 252.128C285.229 252.101 285.404 252.145 285.543 252.249L287.087 253.403C287.373 253.618 287.778 253.56 287.992 253.274L291.484 248.619M300.213 234.5L299.242 238.921L303.735 238.371M298.596 251.205H301.182M298.596 253.791H299.889M284.372 236.981H286.958M284.372 239.567H285.665M294.717 238.921C294.717 241.42 296.743 243.447 299.242 243.447C301.742 243.447 303.768 241.42 303.768 238.921C303.768 236.421 301.742 234.395 299.242 234.395C296.743 234.395 294.717 236.421 294.717 238.921ZM296.656 247.326H303.122C303.122 247.326 303.768 247.326 303.768 247.972V255.731C303.768 255.731 303.768 256.378 303.122 256.378H296.656C296.656 256.378 296.01 256.378 296.01 255.731V247.972C296.01 247.972 296.01 247.326 296.656 247.326ZM282.432 234.395H288.898C288.898 234.395 289.544 234.395 289.544 235.041V242.8C289.544 242.8 289.544 243.447 288.898 243.447H282.432C282.432 243.447 281.786 243.447 281.786 242.8V235.041C281.786 235.041 281.786 234.395 282.432 234.395ZM279.199 230.516H306.354C306.354 230.516 307.647 230.516 307.647 231.809V258.964C307.647 258.964 307.647 260.257 306.354 260.257H279.199C279.199 260.257 277.906 260.257 277.906 258.964V231.809C277.906 231.809 277.906 230.516 279.199 230.516Z" stroke="#A7991E" stroke-width="1.2931" stroke-linecap="round" stroke-linejoin="round"/>
</svg>
