<svg width="529" height="259" viewBox="0 0 529 259" fill="none" xmlns="http://www.w3.org/2000/svg">
<g clip-path="url(#clip0_2220_11667)">
<path d="M198.442 20.696V32.2695H196.908V20.696H198.442ZM202.48 25.505V32.2695H201.009V23.6688H202.4L202.48 25.505ZM202.13 27.6433L201.518 27.6194C201.523 27.0312 201.611 26.488 201.78 25.9899C201.95 25.4865 202.188 25.0493 202.496 24.6783C202.803 24.3074 203.169 24.0212 203.593 23.8199C204.022 23.6132 204.496 23.5099 205.016 23.5099C205.44 23.5099 205.821 23.5681 206.16 23.6847C206.499 23.796 206.788 23.9762 207.027 24.2253C207.27 24.4743 207.456 24.7976 207.583 25.195C207.71 25.5872 207.774 26.0667 207.774 26.6338V32.2695H206.295V26.6179C206.295 26.1674 206.229 25.8071 206.097 25.5368C205.964 25.2613 205.771 25.0625 205.516 24.9407C205.262 24.8135 204.949 24.7499 204.578 24.7499C204.213 24.7499 203.879 24.8267 203.577 24.9804C203.28 25.1341 203.023 25.3461 202.806 25.6163C202.594 25.8866 202.427 26.1966 202.305 26.5463C202.188 26.8908 202.13 27.2564 202.13 27.6433ZM211.478 25.505V32.2695H210.008V23.6688H211.399L211.478 25.505ZM211.128 27.6433L210.516 27.6194C210.522 27.0312 210.609 26.488 210.779 25.9899C210.948 25.4865 211.187 25.0493 211.494 24.6783C211.801 24.3074 212.167 24.0212 212.591 23.8199C213.02 23.6132 213.494 23.5099 214.014 23.5099C214.438 23.5099 214.819 23.5681 215.158 23.6847C215.498 23.796 215.786 23.9762 216.025 24.2253C216.269 24.4743 216.454 24.7976 216.581 25.195C216.708 25.5872 216.772 26.0667 216.772 26.6338V32.2695H215.294V26.6179C215.294 26.1674 215.227 25.8071 215.095 25.5368C214.962 25.2613 214.769 25.0625 214.515 24.9407C214.26 24.8135 213.948 24.7499 213.577 24.7499C213.211 24.7499 212.877 24.8267 212.575 24.9804C212.278 25.1341 212.021 25.3461 211.804 25.6163C211.592 25.8866 211.425 26.1966 211.303 26.5463C211.187 26.8908 211.128 27.2564 211.128 27.6433ZM218.616 28.0646V27.8817C218.616 27.2617 218.706 26.6868 218.886 26.1568C219.067 25.6216 219.326 25.1579 219.665 24.7658C220.005 24.3683 220.415 24.061 220.898 23.8437C221.38 23.6211 221.92 23.5099 222.519 23.5099C223.123 23.5099 223.666 23.6211 224.149 23.8437C224.636 24.061 225.049 24.3683 225.389 24.7658C225.733 25.1579 225.995 25.6216 226.176 26.1568C226.356 26.6868 226.446 27.2617 226.446 27.8817V28.0646C226.446 28.6846 226.356 29.2596 226.176 29.7895C225.995 30.3194 225.733 30.7831 225.389 31.1805C225.049 31.5727 224.639 31.88 224.157 32.1026C223.68 32.3199 223.139 32.4285 222.535 32.4285C221.931 32.4285 221.388 32.3199 220.905 32.1026C220.423 31.88 220.01 31.5727 219.665 31.1805C219.326 30.7831 219.067 30.3194 218.886 29.7895C218.706 29.2596 218.616 28.6846 218.616 28.0646ZM220.087 27.8817V28.0646C220.087 28.4938 220.137 28.8992 220.238 29.2807C220.338 29.657 220.489 29.9909 220.691 30.2823C220.898 30.5738 221.155 30.8043 221.462 30.9739C221.769 31.1381 222.127 31.2203 222.535 31.2203C222.938 31.2203 223.29 31.1381 223.592 30.9739C223.9 30.8043 224.154 30.5738 224.355 30.2823C224.557 29.9909 224.708 29.657 224.808 29.2807C224.914 28.8992 224.967 28.4938 224.967 28.0646V27.8817C224.967 27.4578 224.914 27.0577 224.808 26.6815C224.708 26.2999 224.554 25.9634 224.347 25.672C224.146 25.3752 223.892 25.142 223.584 24.9725C223.282 24.8029 222.927 24.7181 222.519 24.7181C222.116 24.7181 221.761 24.8029 221.454 24.9725C221.152 25.142 220.898 25.3752 220.691 25.672C220.489 25.9634 220.338 26.2999 220.238 26.6815C220.137 27.0577 220.087 27.4578 220.087 27.8817ZM230.778 30.9421L233.131 23.6688H234.633L231.541 32.2695H230.555L230.778 30.9421ZM228.815 23.6688L231.239 30.9818L231.406 32.2695H230.42L227.304 23.6688H228.815ZM240.992 30.799V26.3715C240.992 26.0323 240.923 25.7382 240.786 25.4891C240.653 25.2348 240.452 25.0387 240.182 24.9009C239.911 24.7631 239.577 24.6942 239.18 24.6942C238.809 24.6942 238.483 24.7578 238.202 24.885C237.927 25.0122 237.709 25.1791 237.55 25.3858C237.397 25.5925 237.32 25.815 237.32 26.0535H235.849C235.849 25.7461 235.929 25.4414 236.088 25.1394C236.247 24.8373 236.475 24.5644 236.771 24.3206C237.073 24.0716 237.434 23.8755 237.852 23.7324C238.276 23.584 238.748 23.5099 239.267 23.5099C239.893 23.5099 240.444 23.6158 240.921 23.8278C241.403 24.0398 241.779 24.3604 242.05 24.7896C242.325 25.2136 242.463 25.7461 242.463 26.3874V30.3936C242.463 30.6798 242.487 30.9845 242.534 31.3077C242.587 31.631 242.664 31.9092 242.765 32.1423V32.2695H241.231C241.157 32.1 241.098 31.8747 241.056 31.5939C241.013 31.3077 240.992 31.0428 240.992 30.799ZM241.247 27.0551L241.263 28.0884H239.776C239.357 28.0884 238.984 28.1229 238.655 28.1918C238.327 28.2553 238.051 28.3534 237.829 28.4859C237.606 28.6183 237.436 28.7853 237.32 28.9866C237.203 29.1827 237.145 29.4132 237.145 29.6782C237.145 29.9485 237.206 30.1949 237.328 30.4174C237.45 30.64 237.633 30.8175 237.876 30.95C238.125 31.0772 238.43 31.1408 238.79 31.1408C239.241 31.1408 239.638 31.0454 239.983 30.8546C240.327 30.6639 240.6 30.4307 240.802 30.1551C241.008 29.8796 241.119 29.612 241.135 29.3523L241.763 30.0597C241.726 30.2823 241.626 30.5287 241.461 30.799C241.297 31.0692 241.077 31.3289 240.802 31.578C240.531 31.8217 240.208 32.0258 239.832 32.19C239.461 32.349 239.042 32.4285 238.576 32.4285C237.993 32.4285 237.482 32.3146 237.042 32.0867C236.607 31.8588 236.268 31.5541 236.024 31.1726C235.786 30.7857 235.667 30.3538 235.667 29.8769C235.667 29.4159 235.757 29.0105 235.937 28.6607C236.117 28.3057 236.377 28.0116 236.716 27.7784C237.055 27.5399 237.463 27.3598 237.94 27.2379C238.417 27.116 238.949 27.0551 239.538 27.0551H241.247ZM248.377 23.6688V24.7976H243.727V23.6688H248.377ZM245.301 21.5783H246.771V30.1392C246.771 30.4307 246.816 30.6506 246.906 30.799C246.996 30.9474 247.113 31.0454 247.256 31.0931C247.399 31.1408 247.553 31.1646 247.717 31.1646C247.839 31.1646 247.966 31.154 248.099 31.1328C248.236 31.1063 248.34 31.0851 248.409 31.0692L248.417 32.2695C248.3 32.3066 248.146 32.3411 247.956 32.3729C247.77 32.41 247.545 32.4285 247.28 32.4285C246.92 32.4285 246.588 32.357 246.286 32.2139C245.984 32.0708 245.743 31.8323 245.563 31.4985C245.388 31.1593 245.301 30.7036 245.301 30.1313V21.5783ZM251.699 23.6688V32.2695H250.221V23.6688H251.699ZM250.11 21.3875C250.11 21.149 250.181 20.9477 250.324 20.7834C250.473 20.6191 250.69 20.537 250.976 20.537C251.257 20.537 251.472 20.6191 251.62 20.7834C251.774 20.9477 251.85 21.149 251.85 21.3875C251.85 21.6154 251.774 21.8114 251.62 21.9757C251.472 22.1347 251.257 22.2142 250.976 22.2142C250.69 22.2142 250.473 22.1347 250.324 21.9757C250.181 21.8114 250.11 21.6154 250.11 21.3875ZM256.675 30.9421L259.028 23.6688H260.531L257.439 32.2695H256.453L256.675 30.9421ZM254.712 23.6688L257.136 30.9818L257.303 32.2695H256.318L253.202 23.6688H254.712ZM265.403 32.4285C264.805 32.4285 264.261 32.3278 263.774 32.1265C263.292 31.9198 262.876 31.631 262.526 31.26C262.181 30.8891 261.916 30.4492 261.731 29.9405C261.545 29.4318 261.453 28.8754 261.453 28.2712V27.9374C261.453 27.2379 261.556 26.6152 261.763 26.0694C261.969 25.5183 262.25 25.0519 262.605 24.6704C262.96 24.2888 263.363 24 263.814 23.804C264.264 23.6079 264.73 23.5099 265.213 23.5099C265.827 23.5099 266.357 23.6158 266.802 23.8278C267.253 24.0398 267.621 24.3365 267.907 24.7181C268.193 25.0943 268.405 25.5395 268.543 26.0535C268.681 26.5622 268.75 27.1187 268.75 27.7228V28.3825H262.327V27.1822H267.279V27.071C267.258 26.6894 267.179 26.3185 267.041 25.9581C266.908 25.5978 266.696 25.301 266.405 25.0678C266.113 24.8347 265.716 24.7181 265.213 24.7181C264.879 24.7181 264.571 24.7896 264.29 24.9327C264.01 25.0705 263.769 25.2772 263.567 25.5527C263.366 25.8283 263.209 26.1648 263.098 26.5622C262.987 26.9597 262.931 27.4181 262.931 27.9374V28.2712C262.931 28.6793 262.987 29.0635 263.098 29.4238C263.215 29.7789 263.382 30.0915 263.599 30.3618C263.822 30.6321 264.089 30.844 264.402 30.9977C264.72 31.1514 265.08 31.2282 265.483 31.2282C266.002 31.2282 266.442 31.1222 266.802 30.9103C267.163 30.6983 267.478 30.4148 267.748 30.0597L268.639 30.7672C268.453 31.0481 268.217 31.3157 267.931 31.57C267.645 31.8244 267.293 32.0311 266.874 32.19C266.461 32.349 265.97 32.4285 265.403 32.4285ZM277.859 32.2695H275.443L275.459 31.0216H277.859C278.686 31.0216 279.375 30.8493 279.926 30.5049C280.477 30.1551 280.89 29.6676 281.166 29.0423C281.447 28.4117 281.587 27.6751 281.587 26.8325V26.125C281.587 25.4626 281.508 24.8744 281.349 24.3604C281.19 23.8411 280.957 23.4039 280.649 23.0488C280.342 22.6885 279.966 22.4156 279.521 22.2301C279.081 22.0446 278.575 21.9519 278.002 21.9519H275.395V20.696H278.002C278.76 20.696 279.452 20.8231 280.077 21.0775C280.702 21.3266 281.24 21.6896 281.691 22.1665C282.146 22.6381 282.496 23.2104 282.74 23.8835C282.984 24.5512 283.106 25.3037 283.106 26.1409V26.8325C283.106 27.6698 282.984 28.4249 282.74 29.0979C282.496 29.7656 282.144 30.3353 281.683 30.8069C281.227 31.2786 280.676 31.6416 280.029 31.8959C279.388 32.145 278.665 32.2695 277.859 32.2695ZM276.262 20.696V32.2695H274.727V20.696H276.262ZM288.757 32.4285C288.158 32.4285 287.615 32.3278 287.128 32.1265C286.645 31.9198 286.229 31.631 285.88 31.26C285.535 30.8891 285.27 30.4492 285.085 29.9405C284.899 29.4318 284.807 28.8754 284.807 28.2712V27.9374C284.807 27.2379 284.91 26.6152 285.117 26.0694C285.323 25.5183 285.604 25.0519 285.959 24.6704C286.314 24.2888 286.717 24 287.167 23.804C287.618 23.6079 288.084 23.5099 288.566 23.5099C289.181 23.5099 289.711 23.6158 290.156 23.8278C290.607 24.0398 290.975 24.3365 291.261 24.7181C291.547 25.0943 291.759 25.5395 291.897 26.0535C292.035 26.5622 292.104 27.1187 292.104 27.7228V28.3825H285.681V27.1822H290.633V27.071C290.612 26.6894 290.532 26.3185 290.395 25.9581C290.262 25.5978 290.05 25.301 289.759 25.0678C289.467 24.8347 289.07 24.7181 288.566 24.7181C288.233 24.7181 287.925 24.7896 287.644 24.9327C287.363 25.0705 287.122 25.2772 286.921 25.5527C286.72 25.8283 286.563 26.1648 286.452 26.5622C286.341 26.9597 286.285 27.4181 286.285 27.9374V28.2712C286.285 28.6793 286.341 29.0635 286.452 29.4238C286.569 29.7789 286.735 30.0915 286.953 30.3618C287.175 30.6321 287.443 30.844 287.756 30.9977C288.074 31.1514 288.434 31.2282 288.837 31.2282C289.356 31.2282 289.796 31.1222 290.156 30.9103C290.517 30.6983 290.832 30.4148 291.102 30.0597L291.992 30.7672C291.807 31.0481 291.571 31.3157 291.285 31.57C290.999 31.8244 290.646 32.0311 290.228 32.19C289.814 32.349 289.324 32.4285 288.757 32.4285ZM295.283 25.3778V32.2695H293.805V23.6688H295.204L295.283 25.3778ZM294.981 27.6433L294.298 27.6194C294.303 27.0312 294.38 26.488 294.528 25.9899C294.676 25.4865 294.896 25.0493 295.188 24.6783C295.479 24.3074 295.842 24.0212 296.277 23.8199C296.711 23.6132 297.215 23.5099 297.787 23.5099C298.19 23.5099 298.561 23.5681 298.9 23.6847C299.239 23.796 299.533 23.9735 299.782 24.2173C300.031 24.4611 300.225 24.7737 300.363 25.1553C300.5 25.5368 300.569 25.9979 300.569 26.5384V32.2695H299.099V26.6099C299.099 26.1595 299.022 25.7991 298.868 25.5289C298.72 25.2586 298.508 25.0625 298.232 24.9407C297.957 24.8135 297.633 24.7499 297.262 24.7499C296.828 24.7499 296.465 24.8267 296.173 24.9804C295.882 25.1341 295.649 25.3461 295.474 25.6163C295.299 25.8866 295.172 26.1966 295.092 26.5463C295.018 26.8908 294.981 27.2564 294.981 27.6433ZM300.553 26.8325L299.568 27.1345C299.573 26.6629 299.65 26.2098 299.798 25.7753C299.952 25.3408 300.172 24.9539 300.458 24.6148C300.749 24.2756 301.107 24.008 301.531 23.8119C301.955 23.6105 302.44 23.5099 302.986 23.5099C303.447 23.5099 303.855 23.5708 304.21 23.6927C304.57 23.8146 304.872 24.0027 305.116 24.2571C305.365 24.5061 305.553 24.8267 305.68 25.2189C305.808 25.611 305.871 26.0773 305.871 26.6179V32.2695H304.393V26.602C304.393 26.1197 304.316 25.7461 304.162 25.4812C304.014 25.2109 303.802 25.0228 303.526 24.9168C303.256 24.8055 302.933 24.7499 302.556 24.7499C302.233 24.7499 301.947 24.8055 301.698 24.9168C301.449 25.0281 301.24 25.1818 301.07 25.3778C300.9 25.5686 300.771 25.7885 300.68 26.0376C300.596 26.2867 300.553 26.5516 300.553 26.8325ZM313.168 30.799V26.3715C313.168 26.0323 313.099 25.7382 312.962 25.4891C312.829 25.2348 312.628 25.0387 312.357 24.9009C312.087 24.7631 311.753 24.6942 311.356 24.6942C310.985 24.6942 310.659 24.7578 310.378 24.885C310.103 25.0122 309.885 25.1791 309.726 25.3858C309.573 25.5925 309.496 25.815 309.496 26.0535H308.025C308.025 25.7461 308.105 25.4414 308.264 25.1394C308.423 24.8373 308.651 24.5644 308.947 24.3206C309.249 24.0716 309.61 23.8755 310.028 23.7324C310.452 23.584 310.924 23.5099 311.443 23.5099C312.069 23.5099 312.62 23.6158 313.097 23.8278C313.579 24.0398 313.955 24.3604 314.225 24.7896C314.501 25.2136 314.639 25.7461 314.639 26.3874V30.3936C314.639 30.6798 314.663 30.9845 314.71 31.3077C314.763 31.631 314.84 31.9092 314.941 32.1423V32.2695H313.407C313.332 32.1 313.274 31.8747 313.232 31.5939C313.189 31.3077 313.168 31.0428 313.168 30.799ZM313.423 27.0551L313.438 28.0884H311.952C311.533 28.0884 311.16 28.1229 310.831 28.1918C310.503 28.2553 310.227 28.3534 310.005 28.4859C309.782 28.6183 309.612 28.7853 309.496 28.9866C309.379 29.1827 309.321 29.4132 309.321 29.6782C309.321 29.9485 309.382 30.1949 309.504 30.4174C309.626 30.64 309.808 30.8175 310.052 30.95C310.301 31.0772 310.606 31.1408 310.966 31.1408C311.417 31.1408 311.814 31.0454 312.159 30.8546C312.503 30.6639 312.776 30.4307 312.977 30.1551C313.184 29.8796 313.295 29.612 313.311 29.3523L313.939 30.0597C313.902 30.2823 313.801 30.5287 313.637 30.799C313.473 31.0692 313.253 31.3289 312.977 31.578C312.707 31.8217 312.384 32.0258 312.008 32.19C311.637 32.349 311.218 32.4285 310.752 32.4285C310.169 32.4285 309.657 32.3146 309.218 32.0867C308.783 31.8588 308.444 31.5541 308.2 31.1726C307.962 30.7857 307.842 30.3538 307.842 29.8769C307.842 29.4159 307.933 29.0105 308.113 28.6607C308.293 28.3057 308.553 28.0116 308.892 27.7784C309.231 27.5399 309.639 27.3598 310.116 27.2379C310.593 27.116 311.125 27.0551 311.714 27.0551H313.423ZM318.422 25.505V32.2695H316.952V23.6688H318.343L318.422 25.505ZM318.073 27.6433L317.461 27.6194C317.466 27.0312 317.553 26.488 317.723 25.9899C317.892 25.4865 318.131 25.0493 318.438 24.6783C318.746 24.3074 319.111 24.0212 319.535 23.8199C319.964 23.6132 320.439 23.5099 320.958 23.5099C321.382 23.5099 321.764 23.5681 322.103 23.6847C322.442 23.796 322.731 23.9762 322.969 24.2253C323.213 24.4743 323.398 24.7976 323.526 25.195C323.653 25.5872 323.716 26.0667 323.716 26.6338V32.2695H322.238V26.6179C322.238 26.1674 322.172 25.8071 322.039 25.5368C321.907 25.2613 321.713 25.0625 321.459 24.9407C321.205 24.8135 320.892 24.7499 320.521 24.7499C320.155 24.7499 319.821 24.8267 319.519 24.9804C319.223 25.1341 318.966 25.3461 318.748 25.6163C318.536 25.8866 318.369 26.1966 318.248 26.5463C318.131 26.8908 318.073 27.2564 318.073 27.6433ZM331.371 30.6003V20.06H332.85V32.2695H331.498L331.371 30.6003ZM325.584 28.0646V27.8976C325.584 27.2405 325.664 26.6444 325.823 26.1091C325.987 25.5686 326.218 25.1049 326.514 24.7181C326.816 24.3312 327.174 24.0345 327.587 23.8278C328.006 23.6158 328.472 23.5099 328.986 23.5099C329.527 23.5099 329.999 23.6052 330.401 23.796C330.809 23.9815 331.154 24.2544 331.435 24.6148C331.721 24.9698 331.946 25.399 332.11 25.9025C332.275 26.4059 332.389 26.9756 332.452 27.6115V28.3428C332.394 28.9734 332.28 29.5404 332.11 30.0438C331.946 30.5473 331.721 30.9765 331.435 31.3316C331.154 31.6866 330.809 31.9595 330.401 32.1503C329.993 32.3358 329.516 32.4285 328.971 32.4285C328.467 32.4285 328.006 32.3199 327.587 32.1026C327.174 31.8853 326.816 31.5806 326.514 31.1885C326.218 30.7963 325.987 30.3353 325.823 29.8054C325.664 29.2702 325.584 28.6899 325.584 28.0646ZM327.063 27.8976V28.0646C327.063 28.4938 327.105 28.8966 327.19 29.2728C327.28 29.649 327.418 29.9803 327.603 30.2664C327.789 30.5526 328.025 30.7778 328.311 30.9421C328.597 31.101 328.939 31.1805 329.336 31.1805C329.824 31.1805 330.224 31.0772 330.537 30.8705C330.854 30.6639 331.109 30.3909 331.3 30.0518C331.49 29.7126 331.639 29.3443 331.745 28.9469V27.0312C331.681 26.7398 331.588 26.4589 331.467 26.1886C331.35 25.9131 331.196 25.6693 331.006 25.4573C330.82 25.2401 330.59 25.0678 330.314 24.9407C330.044 24.8135 329.723 24.7499 329.352 24.7499C328.949 24.7499 328.602 24.8347 328.311 25.0042C328.025 25.1685 327.789 25.3964 327.603 25.6879C327.418 25.974 327.28 26.3079 327.19 26.6894C327.105 27.0657 327.063 27.4684 327.063 27.8976Z" fill="#484848"/>
<path d="M242.543 48.1244H244.07C243.99 48.8557 243.781 49.5101 243.442 50.0877C243.102 50.6653 242.623 51.1237 242.003 51.4629C241.383 51.7967 240.609 51.9637 239.682 51.9637C239.003 51.9637 238.386 51.8365 237.83 51.5821C237.279 51.3278 236.804 50.9674 236.407 50.5011C236.009 50.0294 235.702 49.4651 235.485 48.808C235.273 48.1455 235.167 47.409 235.167 46.5982V45.4456C235.167 44.6348 235.273 43.9008 235.485 43.2437C235.702 42.5813 236.012 42.0143 236.415 41.5427C236.823 41.071 237.313 40.708 237.885 40.4537C238.458 40.1993 239.101 40.0721 239.817 40.0721C240.691 40.0721 241.43 40.2364 242.035 40.565C242.639 40.8935 243.108 41.3493 243.442 41.9322C243.781 42.5098 243.99 43.1801 244.07 43.9432H242.543C242.469 43.4027 242.331 42.939 242.13 42.5522C241.929 42.16 241.642 41.858 241.272 41.646C240.901 41.434 240.416 41.3281 239.817 41.3281C239.303 41.3281 238.85 41.4261 238.458 41.6222C238.071 41.8182 237.745 42.0964 237.48 42.4568C237.22 42.8171 237.024 43.249 236.892 43.7525C236.759 44.2559 236.693 44.815 236.693 45.4297V46.5982C236.693 47.1652 236.751 47.6978 236.868 48.1959C236.99 48.694 237.173 49.1312 237.416 49.5075C237.66 49.8837 237.97 50.1805 238.346 50.3977C238.723 50.6097 239.168 50.7157 239.682 50.7157C240.334 50.7157 240.853 50.6124 241.24 50.4057C241.627 50.199 241.918 49.9023 242.114 49.5154C242.315 49.1286 242.459 48.6649 242.543 48.1244ZM247.408 44.5553V51.8047H245.937V43.204H247.368L247.408 44.5553ZM250.095 43.1563L250.087 44.5235C249.965 44.497 249.848 44.4811 249.737 44.4758C249.631 44.4652 249.509 44.4599 249.371 44.4599C249.032 44.4599 248.733 44.5129 248.473 44.6189C248.214 44.7249 247.994 44.8733 247.813 45.064C247.633 45.2548 247.49 45.4827 247.384 45.7476C247.284 46.0073 247.217 46.2935 247.185 46.6061L246.772 46.8446C246.772 46.3253 246.822 45.8377 246.923 45.382C247.029 44.9263 247.191 44.5235 247.408 44.1738C247.625 43.8187 247.901 43.5431 248.235 43.3471C248.574 43.1457 248.977 43.045 249.443 43.045C249.549 43.045 249.671 43.0583 249.809 43.0848C249.946 43.106 250.042 43.1298 250.095 43.1563ZM254.864 51.9637C254.265 51.9637 253.722 51.863 253.235 51.6616C252.752 51.4549 252.336 51.1661 251.987 50.7952C251.642 50.4242 251.377 49.9844 251.192 49.4757C251.006 48.9669 250.914 48.4105 250.914 47.8064V47.4725C250.914 46.773 251.017 46.1504 251.224 45.6046C251.43 45.0534 251.711 44.5871 252.066 44.2056C252.421 43.824 252.824 43.5352 253.274 43.3391C253.725 43.143 254.191 43.045 254.673 43.045C255.288 43.045 255.818 43.151 256.263 43.363C256.714 43.5749 257.082 43.8717 257.368 44.2532C257.654 44.6295 257.866 45.0746 258.004 45.5887C258.142 46.0974 258.211 46.6538 258.211 47.2579V47.9177H251.788V46.7174H256.74V46.6061C256.719 46.2246 256.639 45.8536 256.502 45.4933C256.369 45.1329 256.157 44.8362 255.866 44.603C255.574 44.3698 255.177 44.2532 254.673 44.2532C254.339 44.2532 254.032 44.3248 253.751 44.4679C253.47 44.6056 253.229 44.8123 253.028 45.0879C252.827 45.3634 252.67 45.6999 252.559 46.0974C252.448 46.4948 252.392 46.9532 252.392 47.4725V47.8064C252.392 48.2144 252.448 48.5986 252.559 48.959C252.676 49.314 252.842 49.6267 253.06 49.897C253.282 50.1672 253.55 50.3792 253.863 50.5329C254.18 50.6865 254.541 50.7634 254.944 50.7634C255.463 50.7634 255.903 50.6574 256.263 50.4454C256.623 50.2335 256.939 49.9499 257.209 49.5949L258.099 50.3023C257.914 50.5832 257.678 50.8508 257.392 51.1052C257.106 51.3595 256.753 51.5662 256.335 51.7252C255.921 51.8842 255.431 51.9637 254.864 51.9637ZM264.999 50.3341V45.9066C264.999 45.5675 264.93 45.2734 264.792 45.0243C264.66 44.7699 264.458 44.5738 264.188 44.4361C263.918 44.2983 263.584 44.2294 263.187 44.2294C262.816 44.2294 262.49 44.293 262.209 44.4202C261.933 44.5474 261.716 44.7143 261.557 44.921C261.403 45.1276 261.327 45.3502 261.327 45.5887H259.856C259.856 45.2813 259.935 44.9766 260.094 44.6745C260.253 44.3725 260.481 44.0996 260.778 43.8558C261.08 43.6067 261.44 43.4107 261.859 43.2676C262.283 43.1192 262.755 43.045 263.274 43.045C263.899 43.045 264.45 43.151 264.927 43.363C265.41 43.5749 265.786 43.8955 266.056 44.3248C266.332 44.7487 266.469 45.2813 266.469 45.9225V49.9288C266.469 50.2149 266.493 50.5196 266.541 50.8429C266.594 51.1661 266.671 51.4443 266.772 51.6775V51.8047H265.237C265.163 51.6351 265.105 51.4099 265.063 51.129C265.02 50.8429 264.999 50.5779 264.999 50.3341ZM265.253 46.5902L265.269 47.6236H263.783C263.364 47.6236 262.991 47.658 262.662 47.7269C262.333 47.7905 262.058 47.8885 261.835 48.021C261.613 48.1535 261.443 48.3204 261.327 48.5218C261.21 48.7179 261.152 48.9484 261.152 49.2134C261.152 49.4836 261.213 49.73 261.334 49.9526C261.456 50.1752 261.639 50.3527 261.883 50.4852C262.132 50.6124 262.437 50.6759 262.797 50.6759C263.248 50.6759 263.645 50.5806 263.989 50.3898C264.334 50.199 264.607 49.9658 264.808 49.6903C265.015 49.4147 265.126 49.1471 265.142 48.8874L265.77 49.5949C265.733 49.8175 265.632 50.0639 265.468 50.3341C265.304 50.6044 265.084 50.8641 264.808 51.1131C264.538 51.3569 264.215 51.5609 263.838 51.7252C263.467 51.8842 263.049 51.9637 262.582 51.9637C262 51.9637 261.488 51.8497 261.048 51.6219C260.614 51.394 260.275 51.0893 260.031 50.7077C259.792 50.3209 259.673 49.889 259.673 49.4121C259.673 48.951 259.763 48.5456 259.943 48.1959C260.124 47.8408 260.383 47.5467 260.722 47.3136C261.062 47.0751 261.47 46.8949 261.947 46.773C262.423 46.6512 262.956 46.5902 263.544 46.5902H265.253ZM272.383 43.204V44.3327H267.733V43.204H272.383ZM269.307 41.1134H270.778V49.6744C270.778 49.9658 270.823 50.1858 270.913 50.3341C271.003 50.4825 271.12 50.5806 271.263 50.6283C271.406 50.6759 271.559 50.6998 271.724 50.6998C271.846 50.6998 271.973 50.6892 272.105 50.668C272.243 50.6415 272.346 50.6203 272.415 50.6044L272.423 51.8047C272.307 51.8418 272.153 51.8762 271.962 51.908C271.777 51.9451 271.551 51.9637 271.287 51.9637C270.926 51.9637 270.595 51.8921 270.293 51.749C269.991 51.606 269.75 51.3675 269.57 51.0336C269.395 50.6945 269.307 50.2388 269.307 49.6664V41.1134ZM275.706 43.204V51.8047H274.228V43.204H275.706ZM274.116 40.9227C274.116 40.6842 274.188 40.4828 274.331 40.3185C274.479 40.1543 274.697 40.0721 274.983 40.0721C275.264 40.0721 275.478 40.1543 275.627 40.3185C275.78 40.4828 275.857 40.6842 275.857 40.9227C275.857 41.1505 275.78 41.3466 275.627 41.5109C275.478 41.6699 275.264 41.7493 274.983 41.7493C274.697 41.7493 274.479 41.6699 274.331 41.5109C274.188 41.3466 274.116 41.1505 274.116 40.9227ZM277.677 47.5997V47.4169C277.677 46.7969 277.767 46.2219 277.948 45.692C278.128 45.1568 278.388 44.6931 278.727 44.3009C279.066 43.9035 279.477 43.5961 279.959 43.3789C280.441 43.1563 280.981 43.045 281.58 43.045C282.184 43.045 282.728 43.1563 283.21 43.3789C283.697 43.5961 284.111 43.9035 284.45 44.3009C284.794 44.6931 285.057 45.1568 285.237 45.692C285.417 46.2219 285.507 46.7969 285.507 47.4169V47.5997C285.507 48.2197 285.417 48.7947 285.237 49.3246C285.057 49.8546 284.794 50.3182 284.45 50.7157C284.111 51.1078 283.7 51.4152 283.218 51.6378C282.741 51.855 282.2 51.9637 281.596 51.9637C280.992 51.9637 280.449 51.855 279.967 51.6378C279.484 51.4152 279.071 51.1078 278.727 50.7157C278.388 50.3182 278.128 49.8546 277.948 49.3246C277.767 48.7947 277.677 48.2197 277.677 47.5997ZM279.148 47.4169V47.5997C279.148 48.029 279.198 48.4344 279.299 48.8159C279.4 49.1922 279.551 49.526 279.752 49.8175C279.959 50.1089 280.216 50.3394 280.523 50.509C280.83 50.6733 281.188 50.7554 281.596 50.7554C281.999 50.7554 282.351 50.6733 282.653 50.509C282.961 50.3394 283.215 50.1089 283.417 49.8175C283.618 49.526 283.769 49.1922 283.87 48.8159C283.976 48.4344 284.029 48.029 284.029 47.5997V47.4169C284.029 46.993 283.976 46.5929 283.87 46.2166C283.769 45.8351 283.615 45.4986 283.409 45.2071C283.207 44.9104 282.953 44.6772 282.645 44.5076C282.343 44.338 281.988 44.2532 281.58 44.2532C281.178 44.2532 280.823 44.338 280.515 44.5076C280.213 44.6772 279.959 44.9104 279.752 45.2071C279.551 45.4986 279.4 45.8351 279.299 46.2166C279.198 46.5929 279.148 46.993 279.148 47.4169ZM288.822 45.0402V51.8047H287.351V43.204H288.742L288.822 45.0402ZM288.472 47.1784L287.86 47.1546C287.865 46.5664 287.953 46.0232 288.122 45.5251C288.292 45.0216 288.53 44.5844 288.838 44.2135C289.145 43.8426 289.511 43.5564 289.935 43.355C290.364 43.1483 290.838 43.045 291.357 43.045C291.781 43.045 292.163 43.1033 292.502 43.2199C292.841 43.3312 293.13 43.5113 293.369 43.7604C293.612 44.0095 293.798 44.3327 293.925 44.7302C294.052 45.1223 294.116 45.6019 294.116 46.1689V51.8047H292.637V46.153C292.637 45.7026 292.571 45.3422 292.438 45.072C292.306 44.7964 292.113 44.5977 291.858 44.4758C291.604 44.3486 291.291 44.285 290.92 44.285C290.555 44.285 290.221 44.3619 289.919 44.5156C289.622 44.6692 289.365 44.8812 289.148 45.1515C288.936 45.4217 288.769 45.7317 288.647 46.0815C288.53 46.4259 288.472 46.7916 288.472 47.1784Z" fill="#484848"/>
<path d="M46.5316 145.804H48.0578C47.9783 146.535 47.769 147.19 47.4298 147.767C47.0907 148.345 46.6111 148.803 45.9911 149.143C45.3711 149.476 44.5974 149.643 43.67 149.643C42.9917 149.643 42.3743 149.516 41.8179 149.262C41.2668 149.007 40.7925 148.647 40.3951 148.181C39.9976 147.709 39.6903 147.145 39.473 146.488C39.261 145.825 39.155 145.089 39.155 144.278V143.125C39.155 142.314 39.261 141.581 39.473 140.923C39.6903 140.261 40.0003 139.694 40.403 139.222C40.8111 138.751 41.3012 138.388 41.8736 138.133C42.4459 137.879 43.0897 137.752 43.8051 137.752C44.6795 137.752 45.4188 137.916 46.0229 138.245C46.627 138.573 47.096 139.029 47.4298 139.612C47.769 140.189 47.9783 140.86 48.0578 141.623H46.5316C46.4574 141.082 46.3196 140.619 46.1183 140.232C45.9169 139.84 45.6307 139.538 45.2598 139.326C44.8888 139.114 44.404 139.008 43.8051 139.008C43.2911 139.008 42.838 139.106 42.4459 139.302C42.059 139.498 41.7331 139.776 41.4682 140.136C41.2085 140.497 41.0124 140.929 40.8799 141.432C40.7475 141.936 40.6812 142.495 40.6812 143.109V144.278C40.6812 144.845 40.7395 145.377 40.8561 145.876C40.978 146.374 41.1608 146.811 41.4046 147.187C41.6483 147.563 41.9583 147.86 42.3346 148.077C42.7108 148.289 43.156 148.395 43.67 148.395C44.3218 148.395 44.8411 148.292 45.228 148.085C45.6148 147.879 45.9063 147.582 46.1024 147.195C46.3037 146.808 46.4468 146.345 46.5316 145.804ZM51.3963 142.235V149.484H49.9258V140.884H51.3566L51.3963 142.235ZM54.083 140.836L54.0751 142.203C53.9532 142.177 53.8366 142.161 53.7253 142.156C53.6194 142.145 53.4975 142.14 53.3597 142.14C53.0205 142.14 52.7211 142.193 52.4615 142.299C52.2018 142.405 51.9819 142.553 51.8017 142.744C51.6215 142.934 51.4785 143.162 51.3725 143.427C51.2718 143.687 51.2056 143.973 51.1738 144.286L50.7604 144.524C50.7604 144.005 50.8108 143.517 50.9114 143.062C51.0174 142.606 51.1791 142.203 51.3963 141.853C51.6136 141.498 51.8892 141.223 52.223 141.027C52.5622 140.825 52.9649 140.725 53.4312 140.725C53.5372 140.725 53.6591 140.738 53.7969 140.764C53.9347 140.786 54.0301 140.809 54.083 140.836ZM58.8524 149.643C58.2536 149.643 57.7104 149.543 57.2229 149.341C56.7406 149.135 56.3246 148.846 55.9749 148.475C55.6304 148.104 55.3655 147.664 55.18 147.155C54.9945 146.647 54.9018 146.09 54.9018 145.486V145.152C54.9018 144.453 55.0051 143.83 55.2118 143.284C55.4185 142.733 55.6993 142.267 56.0544 141.885C56.4094 141.504 56.8122 141.215 57.2626 141.019C57.713 140.823 58.1794 140.725 58.6616 140.725C59.2763 140.725 59.8062 140.831 60.2514 141.043C60.7018 141.255 61.0701 141.551 61.3563 141.933C61.6424 142.309 61.8544 142.754 61.9922 143.268C62.13 143.777 62.1989 144.333 62.1989 144.938V145.597H55.7762V144.397H60.7283V144.286C60.7071 143.904 60.6276 143.533 60.4899 143.173C60.3574 142.813 60.1454 142.516 59.8539 142.283C59.5625 142.05 59.165 141.933 58.6616 141.933C58.3278 141.933 58.0204 142.004 57.7395 142.148C57.4587 142.285 57.2176 142.492 57.0162 142.768C56.8148 143.043 56.6585 143.38 56.5472 143.777C56.4359 144.175 56.3803 144.633 56.3803 145.152V145.486C56.3803 145.894 56.4359 146.278 56.5472 146.639C56.6638 146.994 56.8307 147.306 57.048 147.577C57.2706 147.847 57.5382 148.059 57.8508 148.213C58.1688 148.366 58.5291 148.443 58.9319 148.443C59.4512 148.443 59.891 148.337 60.2514 148.125C60.6117 147.913 60.927 147.63 61.1973 147.275L62.0876 147.982C61.9021 148.263 61.6663 148.531 61.3801 148.785C61.094 149.039 60.7416 149.246 60.3229 149.405C59.9096 149.564 59.4194 149.643 58.8524 149.643ZM68.9872 148.014V143.586C68.9872 143.247 68.9183 142.953 68.7805 142.704C68.6481 142.45 68.4467 142.254 68.1764 142.116C67.9062 141.978 67.5723 141.909 67.1749 141.909C66.8039 141.909 66.478 141.973 66.1972 142.1C65.9216 142.227 65.7043 142.394 65.5453 142.601C65.3917 142.807 65.3148 143.03 65.3148 143.268H63.8443C63.8443 142.961 63.9238 142.656 64.0828 142.354C64.2417 142.052 64.4696 141.779 64.7664 141.535C65.0684 141.286 65.4288 141.09 65.8474 140.947C66.2713 140.799 66.743 140.725 67.2623 140.725C67.8876 140.725 68.4387 140.831 68.9157 141.043C69.3979 141.255 69.7742 141.575 70.0444 142.004C70.32 142.428 70.4578 142.961 70.4578 143.602V147.608C70.4578 147.895 70.4816 148.199 70.5293 148.523C70.5823 148.846 70.6591 149.124 70.7598 149.357V149.484H69.2257C69.1515 149.315 69.0932 149.09 69.0508 148.809C69.0084 148.523 68.9872 148.258 68.9872 148.014ZM69.2416 144.27L69.2575 145.303H67.771C67.3524 145.303 66.9788 145.338 66.6502 145.407C66.3217 145.47 66.0461 145.568 65.8236 145.701C65.601 145.833 65.4314 146 65.3148 146.201C65.1982 146.398 65.14 146.628 65.14 146.893C65.14 147.163 65.2009 147.41 65.3228 147.632C65.4447 147.855 65.6275 148.032 65.8713 148.165C66.1203 148.292 66.425 148.356 66.7854 148.356C67.2358 148.356 67.6333 148.26 67.9777 148.069C68.3222 147.879 68.5951 147.646 68.7964 147.37C69.0031 147.094 69.1144 146.827 69.1303 146.567L69.7583 147.275C69.7212 147.497 69.6205 147.744 69.4562 148.014C69.2919 148.284 69.072 148.544 68.7964 148.793C68.5262 149.037 68.2029 149.241 67.8267 149.405C67.4557 149.564 67.0371 149.643 66.5708 149.643C65.9878 149.643 65.4765 149.529 65.0366 149.302C64.6021 149.074 64.2629 148.769 64.0192 148.387C63.7807 148.001 63.6615 147.569 63.6615 147.092C63.6615 146.631 63.7515 146.225 63.9317 145.876C64.1119 145.521 64.3716 145.226 64.7107 144.993C65.0499 144.755 65.4579 144.575 65.9348 144.453C66.4118 144.331 66.9443 144.27 67.5326 144.27H69.2416ZM76.3717 140.884V142.012H71.7216V140.884H76.3717ZM73.2955 138.793H74.7661V147.354C74.7661 147.646 74.8111 147.865 74.9012 148.014C74.9913 148.162 75.1079 148.26 75.2509 148.308C75.394 148.356 75.5477 148.379 75.712 148.379C75.8339 148.379 75.961 148.369 76.0935 148.348C76.2313 148.321 76.3346 148.3 76.4035 148.284L76.4115 149.484C76.2949 149.521 76.1412 149.556 75.9504 149.588C75.765 149.625 75.5397 149.643 75.2748 149.643C74.9144 149.643 74.5832 149.572 74.2812 149.429C73.9791 149.286 73.738 149.047 73.5578 148.713C73.3829 148.374 73.2955 147.918 73.2955 147.346V138.793ZM79.6944 140.884V149.484H78.2159V140.884H79.6944ZM78.1046 138.602C78.1046 138.364 78.1761 138.163 78.3192 137.998C78.4676 137.834 78.6849 137.752 78.971 137.752C79.2519 137.752 79.4665 137.834 79.6149 137.998C79.7686 138.163 79.8454 138.364 79.8454 138.602C79.8454 138.83 79.7686 139.026 79.6149 139.191C79.4665 139.35 79.2519 139.429 78.971 139.429C78.6849 139.429 78.4676 139.35 78.3192 139.191C78.1761 139.026 78.1046 138.83 78.1046 138.602ZM83.5257 142.72V149.484H82.0552V140.884H83.4462L83.5257 142.72ZM83.176 144.858L82.5639 144.834C82.5692 144.246 82.6566 143.703 82.8262 143.205C82.9958 142.701 83.2343 142.264 83.5416 141.893C83.849 141.522 84.2146 141.236 84.6386 141.035C85.0678 140.828 85.5421 140.725 86.0614 140.725C86.4854 140.725 86.8669 140.783 87.2061 140.9C87.5452 141.011 87.834 141.191 88.0725 141.44C88.3163 141.689 88.5017 142.012 88.6289 142.41C88.7561 142.802 88.8197 143.282 88.8197 143.849V149.484H87.3412V143.833C87.3412 143.382 87.275 143.022 87.1425 142.752C87.01 142.476 86.8166 142.277 86.5622 142.156C86.3078 142.028 85.9952 141.965 85.6242 141.965C85.2586 141.965 84.9247 142.042 84.6227 142.195C84.3259 142.349 84.0689 142.561 83.8516 142.831C83.6397 143.101 83.4727 143.411 83.3509 143.761C83.2343 144.106 83.176 144.471 83.176 144.858ZM96.6255 140.884H97.9609V149.302C97.9609 150.059 97.8072 150.706 97.4999 151.241C97.1925 151.776 96.7633 152.182 96.2122 152.457C95.6663 152.738 95.0357 152.879 94.3203 152.879C94.0236 152.879 93.6738 152.831 93.2711 152.735C92.8736 152.645 92.4815 152.489 92.0946 152.266C91.7131 152.049 91.3925 151.755 91.1328 151.384L91.9039 150.51C92.2642 150.944 92.6405 151.246 93.0326 151.416C93.43 151.586 93.8222 151.67 94.209 151.67C94.6754 151.67 95.0781 151.583 95.4173 151.408C95.7564 151.233 96.0187 150.973 96.2042 150.629C96.395 150.29 96.4904 149.871 96.4904 149.373V142.776L96.6255 140.884ZM90.7036 145.279V145.112C90.7036 144.455 90.7804 143.859 90.9341 143.324C91.0931 142.783 91.3183 142.32 91.6097 141.933C91.9065 141.546 92.2642 141.249 92.6828 141.043C93.1015 140.831 93.5731 140.725 94.0978 140.725C94.6383 140.725 95.1099 140.82 95.5127 141.011C95.9207 141.196 96.2651 141.469 96.546 141.83C96.8322 142.185 97.0574 142.614 97.2217 143.117C97.3859 143.621 97.4999 144.19 97.5635 144.826V145.558C97.5052 146.188 97.3912 146.755 97.2217 147.259C97.0574 147.762 96.8322 148.191 96.546 148.546C96.2651 148.901 95.9207 149.174 95.5127 149.365C95.1046 149.551 94.6277 149.643 94.0819 149.643C93.5678 149.643 93.1015 149.535 92.6828 149.317C92.2695 149.1 91.9145 148.795 91.6177 148.403C91.3209 148.011 91.0931 147.55 90.9341 147.02C90.7804 146.485 90.7036 145.905 90.7036 145.279ZM92.1741 145.112V145.279C92.1741 145.709 92.2165 146.111 92.3013 146.488C92.3914 146.864 92.5265 147.195 92.7067 147.481C92.8922 147.767 93.128 147.993 93.4141 148.157C93.7003 148.316 94.0421 148.395 94.4396 148.395C94.9271 148.395 95.3298 148.292 95.6478 148.085C95.9657 147.879 96.2175 147.606 96.4029 147.267C96.5937 146.927 96.7421 146.559 96.8481 146.162V144.246C96.7898 143.955 96.6997 143.674 96.5778 143.403C96.4612 143.128 96.3075 142.884 96.1168 142.672C95.9313 142.455 95.7008 142.283 95.4252 142.156C95.1497 142.028 94.8264 141.965 94.4555 141.965C94.0527 141.965 93.7056 142.05 93.4141 142.219C93.128 142.383 92.8922 142.611 92.7067 142.903C92.5265 143.189 92.3914 143.523 92.3013 143.904C92.2165 144.281 92.1741 144.683 92.1741 145.112Z" fill="#484848"/>
<path d="M15.1874 157.446H16.7136V165.276C16.7136 166.145 16.5202 166.868 16.1334 167.446C15.7465 168.023 15.2325 168.458 14.5913 168.749C13.9554 169.035 13.2638 169.179 12.5166 169.179C11.7323 169.179 11.0222 169.035 10.3863 168.749C9.7557 168.458 9.25492 168.023 8.88397 167.446C8.51832 166.868 8.3355 166.145 8.3355 165.276V157.446H9.85374V165.276C9.85374 165.88 9.96502 166.378 10.1876 166.77C10.4102 167.162 10.7202 167.454 11.1176 167.644C11.5204 167.835 11.9867 167.931 12.5166 167.931C13.0518 167.931 13.5182 167.835 13.9156 167.644C14.3184 167.454 14.631 167.162 14.8536 166.77C15.0762 166.378 15.1874 165.88 15.1874 165.276V157.446ZM20.3701 162.255V169.02H18.8996V160.419H20.2906L20.3701 162.255ZM20.0204 164.393L19.4083 164.369C19.4136 163.781 19.501 163.238 19.6706 162.74C19.8402 162.236 20.0787 161.799 20.386 161.428C20.6934 161.057 21.059 160.771 21.483 160.57C21.9122 160.363 22.3865 160.26 22.9058 160.26C23.3298 160.26 23.7113 160.318 24.0505 160.435C24.3896 160.546 24.6784 160.726 24.9169 160.975C25.1606 161.224 25.3461 161.548 25.4733 161.945C25.6005 162.337 25.6641 162.817 25.6641 163.384V169.02H24.1856V163.368C24.1856 162.917 24.1193 162.557 23.9869 162.287C23.8544 162.011 23.661 161.813 23.4066 161.691C23.1522 161.563 22.8396 161.5 22.4686 161.5C22.103 161.5 21.7691 161.577 21.4671 161.73C21.1703 161.884 20.9133 162.096 20.696 162.366C20.4841 162.637 20.3171 162.947 20.1952 163.296C20.0787 163.641 20.0204 164.006 20.0204 164.393ZM31.3396 167.97C31.6893 167.97 32.0126 167.899 32.3093 167.756C32.6061 167.613 32.8499 167.417 33.0406 167.167C33.2314 166.913 33.3401 166.624 33.3665 166.301H34.7656C34.7391 166.81 34.5668 167.284 34.2489 167.724C33.9362 168.158 33.5255 168.511 33.0168 168.781C32.5081 169.046 31.949 169.179 31.3396 169.179C30.6931 169.179 30.1287 169.065 29.6465 168.837C29.1695 168.609 28.7721 168.296 28.4541 167.899C28.1415 167.501 27.9057 167.046 27.7467 166.532C27.593 166.012 27.5162 165.464 27.5162 164.886V164.552C27.5162 163.975 27.593 163.429 27.7467 162.915C27.9057 162.395 28.1415 161.937 28.4541 161.54C28.7721 161.142 29.1695 160.83 29.6465 160.602C30.1287 160.374 30.6931 160.26 31.3396 160.26C32.0126 160.26 32.6008 160.398 33.1042 160.673C33.6077 160.943 34.0025 161.314 34.2886 161.786C34.5801 162.252 34.7391 162.782 34.7656 163.376H33.3665C33.3401 163.021 33.2394 162.7 33.0645 162.414C32.8949 162.128 32.6617 161.9 32.365 161.73C32.0735 161.556 31.7317 161.468 31.3396 161.468C30.8891 161.468 30.5102 161.558 30.2029 161.738C29.9008 161.913 29.6597 162.152 29.4795 162.454C29.3047 162.751 29.1775 163.082 29.098 163.447C29.0238 163.808 28.9867 164.176 28.9867 164.552V164.886C28.9867 165.262 29.0238 165.633 29.098 165.999C29.1722 166.365 29.2967 166.696 29.4716 166.993C29.6518 167.289 29.8929 167.528 30.1949 167.708C30.5023 167.883 30.8838 167.97 31.3396 167.97ZM36.0294 164.815V164.632C36.0294 164.012 36.1195 163.437 36.2997 162.907C36.4799 162.372 36.7395 161.908 37.0787 161.516C37.4178 161.118 37.8285 160.811 38.3108 160.594C38.793 160.371 39.3335 160.26 39.9323 160.26C40.5364 160.26 41.0796 160.371 41.5618 160.594C42.0494 160.811 42.4627 161.118 42.8019 161.516C43.1463 161.908 43.4086 162.372 43.5888 162.907C43.769 163.437 43.8591 164.012 43.8591 164.632V164.815C43.8591 165.435 43.769 166.01 43.5888 166.539C43.4086 167.069 43.1463 167.533 42.8019 167.931C42.4627 168.323 42.052 168.63 41.5698 168.853C41.0929 169.07 40.5523 169.179 39.9482 169.179C39.3441 169.179 38.8009 169.07 38.3187 168.853C37.8365 168.63 37.4231 168.323 37.0787 167.931C36.7395 167.533 36.4799 167.069 36.2997 166.539C36.1195 166.01 36.0294 165.435 36.0294 164.815ZM37.5 164.632V164.815C37.5 165.244 37.5503 165.649 37.651 166.031C37.7517 166.407 37.9027 166.741 38.1041 167.032C38.3108 167.324 38.5678 167.554 38.8751 167.724C39.1825 167.888 39.5402 167.97 39.9482 167.97C40.351 167.97 40.7034 167.888 41.0054 167.724C41.3128 167.554 41.5671 167.324 41.7685 167.032C41.9699 166.741 42.1209 166.407 42.2216 166.031C42.3276 165.649 42.3806 165.244 42.3806 164.815V164.632C42.3806 164.208 42.3276 163.808 42.2216 163.431C42.1209 163.05 41.9672 162.713 41.7606 162.422C41.5592 162.125 41.3048 161.892 40.9975 161.722C40.6954 161.553 40.3404 161.468 39.9323 161.468C39.5296 161.468 39.1745 161.553 38.8672 161.722C38.5651 161.892 38.3108 162.125 38.1041 162.422C37.9027 162.713 37.7517 163.05 37.651 163.431C37.5503 163.808 37.5 164.208 37.5 164.632ZM47.1738 162.255V169.02H45.7032V160.419H47.0943L47.1738 162.255ZM46.824 164.393L46.2119 164.369C46.2172 163.781 46.3047 163.238 46.4743 162.74C46.6438 162.236 46.8823 161.799 47.1897 161.428C47.497 161.057 47.8627 160.771 48.2866 160.57C48.7158 160.363 49.1901 160.26 49.7095 160.26C50.1334 160.26 50.5149 160.318 50.8541 160.435C51.1933 160.546 51.4821 160.726 51.7205 160.975C51.9643 161.224 52.1498 161.548 52.277 161.945C52.4041 162.337 52.4677 162.817 52.4677 163.384V169.02H50.9892V163.368C50.9892 162.917 50.923 162.557 50.7905 162.287C50.658 162.011 50.4646 161.813 50.2102 161.691C49.9559 161.563 49.6432 161.5 49.2723 161.5C48.9066 161.5 48.5728 161.577 48.2707 161.73C47.974 161.884 47.7169 162.096 47.4997 162.366C47.2877 162.637 47.1208 162.947 46.9989 163.296C46.8823 163.641 46.824 164.006 46.824 164.393ZM58.3022 160.419V161.548H53.6521V160.419H58.3022ZM55.226 158.328H56.6965V166.889C56.6965 167.181 56.7416 167.401 56.8317 167.549C56.9217 167.697 57.0383 167.795 57.1814 167.843C57.3245 167.891 57.4782 167.915 57.6424 167.915C57.7643 167.915 57.8915 167.904 58.024 167.883C58.1618 167.856 58.2651 167.835 58.334 167.819L58.342 169.02C58.2254 169.057 58.0717 169.091 57.8809 169.123C57.6954 169.16 57.4702 169.179 57.2053 169.179C56.8449 169.179 56.5137 169.107 56.2116 168.964C55.9096 168.821 55.6685 168.582 55.4883 168.248C55.3134 167.909 55.226 167.454 55.226 166.881V158.328ZM63.5962 169.179C62.9973 169.179 62.4542 169.078 61.9666 168.876C61.4844 168.67 61.0684 168.381 60.7187 168.01C60.3742 167.639 60.1093 167.199 59.9238 166.691C59.7383 166.182 59.6456 165.625 59.6456 165.021V164.687C59.6456 163.988 59.7489 163.365 59.9556 162.819C60.1622 162.268 60.4431 161.802 60.7982 161.42C61.1532 161.039 61.556 160.75 62.0064 160.554C62.4568 160.358 62.9232 160.26 63.4054 160.26C64.0201 160.26 64.55 160.366 64.9952 160.578C65.4456 160.79 65.8139 161.087 66.1001 161.468C66.3862 161.844 66.5982 162.289 66.736 162.804C66.8738 163.312 66.9426 163.869 66.9426 164.473V165.133H60.5199V163.932H65.4721V163.821C65.4509 163.439 65.3714 163.068 65.2336 162.708C65.1012 162.348 64.8892 162.051 64.5977 161.818C64.3063 161.585 63.9088 161.468 63.4054 161.468C63.0715 161.468 62.7642 161.54 62.4833 161.683C62.2025 161.82 61.9613 162.027 61.76 162.303C61.5586 162.578 61.4023 162.915 61.291 163.312C61.1797 163.71 61.1241 164.168 61.1241 164.687V165.021C61.1241 165.429 61.1797 165.813 61.291 166.174C61.4076 166.529 61.5745 166.842 61.7918 167.112C62.0143 167.382 62.282 167.594 62.5946 167.748C62.9126 167.901 63.2729 167.978 63.6757 167.978C64.195 167.978 64.6348 167.872 64.9952 167.66C65.3555 167.448 65.6708 167.165 65.9411 166.81L66.8314 167.517C66.6459 167.798 66.4101 168.066 66.1239 168.32C65.8378 168.574 65.4854 168.781 65.0667 168.94C64.6534 169.099 64.1632 169.179 63.5962 169.179ZM73.6674 166.738C73.6674 166.526 73.6197 166.33 73.5243 166.15C73.4342 165.965 73.2461 165.798 72.96 165.649C72.6791 165.496 72.2552 165.363 71.6881 165.252C71.2112 165.151 70.7793 165.032 70.3925 164.894C70.0109 164.756 69.685 164.589 69.4148 164.393C69.1498 164.197 68.9458 163.967 68.8027 163.702C68.6596 163.437 68.5881 163.127 68.5881 162.772C68.5881 162.433 68.6623 162.112 68.8106 161.81C68.9643 161.508 69.1789 161.24 69.4545 161.007C69.7354 160.774 70.0719 160.591 70.464 160.459C70.8562 160.326 71.2933 160.26 71.7756 160.26C72.4645 160.26 73.0527 160.382 73.5402 160.626C74.0278 160.869 74.4014 161.195 74.661 161.603C74.9207 162.006 75.0505 162.454 75.0505 162.947H73.58C73.58 162.708 73.5084 162.478 73.3653 162.255C73.2276 162.027 73.0235 161.839 72.7533 161.691C72.4883 161.542 72.1624 161.468 71.7756 161.468C71.3675 161.468 71.0363 161.532 70.782 161.659C70.5329 161.781 70.3501 161.937 70.2335 162.128C70.1222 162.319 70.0666 162.52 70.0666 162.732C70.0666 162.891 70.0931 163.034 70.146 163.161C70.2043 163.283 70.305 163.397 70.4481 163.503C70.5912 163.604 70.7926 163.699 71.0522 163.789C71.3119 163.879 71.6431 163.969 72.0458 164.059C72.7506 164.218 73.3309 164.409 73.7866 164.632C74.2424 164.854 74.5815 165.127 74.8041 165.45C75.0267 165.774 75.138 166.166 75.138 166.627C75.138 167.003 75.0585 167.348 74.8995 167.66C74.7458 167.973 74.5206 168.243 74.2238 168.471C73.9324 168.694 73.5826 168.869 73.1746 168.996C72.7718 169.118 72.3187 169.179 71.8153 169.179C71.0575 169.179 70.4163 169.043 69.8917 168.773C69.3671 168.503 68.9696 168.153 68.6994 167.724C68.4291 167.295 68.294 166.842 68.294 166.365H69.7725C69.7936 166.767 69.9102 167.088 70.1222 167.326C70.3342 167.56 70.5938 167.727 70.9012 167.827C71.2086 167.923 71.5133 167.97 71.8153 167.97C72.2181 167.97 72.5546 167.917 72.8248 167.811C73.1004 167.705 73.3097 167.56 73.4528 167.374C73.5959 167.189 73.6674 166.977 73.6674 166.738ZM80.6704 160.419V161.548H76.0203V160.419H80.6704ZM77.5942 158.328H79.0647V166.889C79.0647 167.181 79.1097 167.401 79.1998 167.549C79.2899 167.697 79.4065 167.795 79.5496 167.843C79.6927 167.891 79.8463 167.915 80.0106 167.915C80.1325 167.915 80.2597 167.904 80.3922 167.883C80.5299 167.856 80.6333 167.835 80.7022 167.819L80.7101 169.02C80.5935 169.057 80.4399 169.091 80.2491 169.123C80.0636 169.16 79.8384 169.179 79.5734 169.179C79.2131 169.179 78.8819 169.107 78.5798 168.964C78.2778 168.821 78.0366 168.582 77.8565 168.248C77.6816 167.909 77.5942 167.454 77.5942 166.881V158.328ZM85.9643 169.179C85.3655 169.179 84.8223 169.078 84.3348 168.876C83.8526 168.67 83.4366 168.381 83.0868 168.01C82.7424 167.639 82.4774 167.199 82.2919 166.691C82.1065 166.182 82.0137 165.625 82.0137 165.021V164.687C82.0137 163.988 82.1171 163.365 82.3237 162.819C82.5304 162.268 82.8113 161.802 83.1663 161.42C83.5214 161.039 83.9241 160.75 84.3746 160.554C84.825 160.358 85.2913 160.26 85.7736 160.26C86.3883 160.26 86.9182 160.366 87.3633 160.578C87.8138 160.79 88.1821 161.087 88.4682 161.468C88.7544 161.844 88.9664 162.289 89.1041 162.804C89.2419 163.312 89.3108 163.869 89.3108 164.473V165.133H82.8881V163.932H87.8403V163.821C87.8191 163.439 87.7396 163.068 87.6018 162.708C87.4693 162.348 87.2574 162.051 86.9659 161.818C86.6744 161.585 86.277 161.468 85.7736 161.468C85.4397 161.468 85.1324 161.54 84.8515 161.683C84.5706 161.82 84.3295 162.027 84.1281 162.303C83.9268 162.578 83.7704 162.915 83.6592 163.312C83.5479 163.71 83.4922 164.168 83.4922 164.687V165.021C83.4922 165.429 83.5479 165.813 83.6592 166.174C83.7757 166.529 83.9427 166.842 84.1599 167.112C84.3825 167.382 84.6501 167.594 84.9628 167.748C85.2807 167.901 85.6411 167.978 86.0438 167.978C86.5632 167.978 87.003 167.872 87.3633 167.66C87.7237 167.448 88.039 167.165 88.3093 166.81L89.1995 167.517C89.0141 167.798 88.7782 168.066 88.4921 168.32C88.2059 168.574 87.8535 168.781 87.4349 168.94C87.0215 169.099 86.5314 169.179 85.9643 169.179ZM96.4489 167.35V156.81H97.9274V169.02H96.5761L96.4489 167.35ZM90.6621 164.815V164.648C90.6621 163.991 90.7416 163.394 90.9006 162.859C91.0649 162.319 91.2954 161.855 91.5921 161.468C91.8942 161.081 92.2519 160.784 92.6652 160.578C93.0839 160.366 93.5502 160.26 94.0643 160.26C94.6048 160.26 95.0764 160.355 95.4792 160.546C95.8872 160.731 96.2316 161.004 96.5125 161.365C96.7987 161.72 97.0239 162.149 97.1882 162.652C97.3524 163.156 97.4664 163.726 97.53 164.361V165.093C97.4717 165.723 97.3577 166.29 97.1882 166.794C97.0239 167.297 96.7987 167.727 96.5125 168.082C96.2316 168.437 95.8872 168.71 95.4792 168.9C95.0711 169.086 94.5942 169.179 94.0484 169.179C93.5449 169.179 93.0839 169.07 92.6652 168.853C92.2519 168.635 91.8942 168.331 91.5921 167.938C91.2954 167.546 91.0649 167.085 90.9006 166.555C90.7416 166.02 90.6621 165.44 90.6621 164.815ZM92.1406 164.648V164.815C92.1406 165.244 92.183 165.647 92.2678 166.023C92.3579 166.399 92.4957 166.73 92.6811 167.016C92.8666 167.303 93.1024 167.528 93.3886 167.692C93.6748 167.851 94.0166 167.931 94.414 167.931C94.9015 167.931 95.3016 167.827 95.6143 167.621C95.9322 167.414 96.1866 167.141 96.3774 166.802C96.5682 166.463 96.7165 166.094 96.8225 165.697V163.781C96.7589 163.49 96.6662 163.209 96.5443 162.939C96.4277 162.663 96.274 162.419 96.0833 162.207C95.8978 161.99 95.6673 161.818 95.3917 161.691C95.1215 161.563 94.8008 161.5 94.4299 161.5C94.0272 161.5 93.6801 161.585 93.3886 161.754C93.1024 161.919 92.8666 162.146 92.6811 162.438C92.4957 162.724 92.3579 163.058 92.2678 163.439C92.183 163.816 92.1406 164.218 92.1406 164.648Z" fill="#484848"/>
<path d="M1.40637 176.981H2.89281L6.68443 186.416L10.4681 176.981H11.9625L7.25675 188.555H6.09621L1.40637 176.981ZM0.921487 176.981H2.23305L2.44767 184.04V188.555H0.921487V176.981ZM11.1279 176.981H12.4394V188.555H10.9132V184.04L11.1279 176.981ZM19.9829 187.084V182.657C19.9829 182.317 19.914 182.023 19.7762 181.774C19.6438 181.52 19.4424 181.324 19.1721 181.186C18.9019 181.048 18.568 180.979 18.1706 180.979C17.7996 180.979 17.4737 181.043 17.1929 181.17C16.9173 181.297 16.7 181.464 16.5411 181.671C16.3874 181.878 16.3105 182.1 16.3105 182.339H14.84C14.84 182.031 14.9195 181.727 15.0785 181.425C15.2374 181.122 15.4653 180.85 15.7621 180.606C16.0641 180.357 16.4245 180.161 16.8431 180.018C17.267 179.869 17.7387 179.795 18.258 179.795C18.8833 179.795 19.4344 179.901 19.9114 180.113C20.3936 180.325 20.7699 180.646 21.0401 181.075C21.3157 181.499 21.4535 182.031 21.4535 182.673V186.679C21.4535 186.965 21.4773 187.27 21.525 187.593C21.578 187.916 21.6548 188.194 21.7555 188.428V188.555H20.2214C20.1472 188.385 20.0889 188.16 20.0465 187.879C20.0041 187.593 19.9829 187.328 19.9829 187.084ZM20.2373 183.34L20.2532 184.374H18.7667C18.3481 184.374 17.9745 184.408 17.6459 184.477C17.3174 184.54 17.0418 184.639 16.8193 184.771C16.5967 184.903 16.4271 185.07 16.3105 185.272C16.1939 185.468 16.1357 185.698 16.1357 185.963C16.1357 186.234 16.1966 186.48 16.3185 186.703C16.4404 186.925 16.6232 187.103 16.867 187.235C17.116 187.362 17.4207 187.426 17.7811 187.426C18.2315 187.426 18.629 187.331 18.9734 187.14C19.3179 186.949 19.5908 186.716 19.7921 186.44C19.9988 186.165 20.1101 185.897 20.126 185.637L20.754 186.345C20.7169 186.567 20.6162 186.814 20.4519 187.084C20.2876 187.354 20.0677 187.614 19.7921 187.863C19.5219 188.107 19.1986 188.311 18.8224 188.475C18.4514 188.634 18.0328 188.714 17.5665 188.714C16.9835 188.714 16.4722 188.6 16.0323 188.372C15.5978 188.144 15.2586 187.839 15.0149 187.458C14.7764 187.071 14.6572 186.639 14.6572 186.162C14.6572 185.701 14.7473 185.296 14.9274 184.946C15.1076 184.591 15.3673 184.297 15.7064 184.064C16.0456 183.825 16.4536 183.645 16.9305 183.523C17.4075 183.401 17.9401 183.34 18.5283 183.34H20.2373ZM25.2371 181.305V188.555H23.7666V179.954H25.1974L25.2371 181.305ZM27.9239 179.906L27.9159 181.274C27.794 181.247 27.6774 181.231 27.5662 181.226C27.4602 181.215 27.3383 181.21 27.2005 181.21C26.8614 181.21 26.5619 181.263 26.3023 181.369C26.0426 181.475 25.8227 181.623 25.6425 181.814C25.4624 182.005 25.3193 182.233 25.2133 182.498C25.1126 182.757 25.0464 183.043 25.0146 183.356L24.6012 183.595C24.6012 183.075 24.6516 182.588 24.7523 182.132C24.8582 181.676 25.0199 181.274 25.2371 180.924C25.4544 180.569 25.73 180.293 26.0638 180.097C26.403 179.896 26.8057 179.795 27.2721 179.795C27.378 179.795 27.4999 179.808 27.6377 179.835C27.7755 179.856 27.8709 179.88 27.9239 179.906ZM30.7616 176.345V188.555H29.2831V176.345H30.7616ZM36.0158 179.954L32.264 183.968L30.1654 186.146L30.0462 184.58L31.5486 182.784L34.2194 179.954H36.0158ZM34.6725 188.555L31.6042 184.453L32.3673 183.141L36.4053 188.555H34.6725ZM40.9441 188.714C40.3453 188.714 39.8021 188.613 39.3146 188.412C38.8324 188.205 38.4164 187.916 38.0666 187.545C37.7222 187.174 37.4572 186.734 37.2717 186.226C37.0863 185.717 36.9935 185.161 36.9935 184.556V184.223C36.9935 183.523 37.0969 182.9 37.3035 182.355C37.5102 181.803 37.7911 181.337 38.1461 180.956C38.5012 180.574 38.9039 180.285 39.3544 180.089C39.8048 179.893 40.2711 179.795 40.7534 179.795C41.3681 179.795 41.898 179.901 42.3431 180.113C42.7936 180.325 43.1619 180.622 43.448 181.003C43.7342 181.379 43.9462 181.825 44.0839 182.339C44.2217 182.847 44.2906 183.404 44.2906 184.008V184.668H37.8679V183.467H42.8201V183.356C42.7989 182.975 42.7194 182.604 42.5816 182.243C42.4491 181.883 42.2372 181.586 41.9457 181.353C41.6542 181.12 41.2568 181.003 40.7534 181.003C40.4195 181.003 40.1122 181.075 39.8313 181.218C39.5504 181.356 39.3093 181.562 39.1079 181.838C38.9066 182.113 38.7502 182.45 38.639 182.847C38.5277 183.245 38.472 183.703 38.472 184.223V184.556C38.472 184.964 38.5277 185.349 38.639 185.709C38.7555 186.064 38.9225 186.377 39.1397 186.647C39.3623 186.917 39.6299 187.129 39.9426 187.283C40.2605 187.437 40.6209 187.513 41.0236 187.513C41.543 187.513 41.9828 187.407 42.3431 187.195C42.7035 186.983 43.0188 186.7 43.2891 186.345L44.1793 187.052C43.9939 187.333 43.758 187.601 43.4719 187.855C43.1857 188.11 42.8333 188.316 42.4147 188.475C42.0013 188.634 41.5112 188.714 40.9441 188.714ZM49.6084 179.954V181.083H44.9583V179.954H49.6084ZM46.5322 177.863H48.0027V186.424C48.0027 186.716 48.0478 186.936 48.1379 187.084C48.228 187.233 48.3445 187.331 48.4876 187.378C48.6307 187.426 48.7844 187.45 48.9487 187.45C49.0705 187.45 49.1977 187.439 49.3302 187.418C49.468 187.392 49.5713 187.37 49.6402 187.354L49.6482 188.555C49.5316 188.592 49.3779 188.626 49.1871 188.658C49.0017 188.695 48.7764 188.714 48.5115 188.714C48.1511 188.714 47.8199 188.642 47.5179 188.499C47.2158 188.356 46.9747 188.117 46.7945 187.784C46.6196 187.444 46.5322 186.989 46.5322 186.416V177.863ZM61.7623 185.629C61.7623 185.359 61.7199 185.121 61.6351 184.914C61.5556 184.702 61.4125 184.511 61.2058 184.342C61.0045 184.172 60.7236 184.011 60.3633 183.857C60.0082 183.703 59.5578 183.547 59.012 183.388C58.4396 183.218 57.923 183.03 57.4619 182.824C57.0009 182.612 56.6061 182.37 56.2775 182.1C55.949 181.83 55.6973 181.52 55.5224 181.17C55.3475 180.82 55.2601 180.42 55.2601 179.97C55.2601 179.519 55.3528 179.103 55.5383 178.722C55.7238 178.34 55.9887 178.009 56.3332 177.728C56.6829 177.442 57.0989 177.22 57.5812 177.061C58.0634 176.902 58.6013 176.822 59.1948 176.822C60.0639 176.822 60.8005 176.989 61.4046 177.323C62.014 177.651 62.4777 178.083 62.7956 178.619C63.1136 179.149 63.2726 179.716 63.2726 180.32H61.7464C61.7464 179.885 61.6536 179.501 61.4682 179.167C61.2827 178.828 61.0018 178.563 60.6256 178.372C60.2493 178.176 59.7724 178.078 59.1948 178.078C58.649 178.078 58.1985 178.16 57.8435 178.324C57.4884 178.489 57.2235 178.711 57.0486 178.992C56.879 179.273 56.7942 179.594 56.7942 179.954C56.7942 180.198 56.8446 180.42 56.9452 180.622C57.0512 180.818 57.2129 181.001 57.4301 181.17C57.6527 181.34 57.9336 181.496 58.2727 181.639C58.6172 181.782 59.0279 181.92 59.5048 182.052C60.1619 182.238 60.7289 182.445 61.2058 182.673C61.6828 182.9 62.0749 183.157 62.3823 183.444C62.6949 183.724 62.9255 184.045 63.0738 184.405C63.2275 184.76 63.3044 185.163 63.3044 185.614C63.3044 186.085 63.209 186.512 63.0182 186.893C62.8274 187.275 62.5545 187.601 62.1995 187.871C61.8444 188.141 61.4178 188.351 60.9197 188.499C60.4269 188.642 59.8757 188.714 59.2663 188.714C58.7311 188.714 58.2038 188.639 57.6845 188.491C57.1705 188.343 56.7015 188.12 56.2775 187.823C55.8589 187.527 55.5224 187.161 55.268 186.726C55.019 186.287 54.8944 185.778 54.8944 185.2H56.4206C56.4206 185.598 56.4975 185.94 56.6511 186.226C56.8048 186.507 57.0141 186.74 57.2791 186.925C57.5494 187.111 57.8541 187.248 58.1932 187.339C58.5377 187.423 58.8954 187.466 59.2663 187.466C59.8015 187.466 60.2546 187.392 60.6256 187.243C60.9965 187.095 61.2774 186.883 61.4682 186.607C61.6642 186.332 61.7623 186.006 61.7623 185.629ZM66.5078 181.607V191.861H65.0293V179.954H66.3806L66.5078 181.607ZM72.3025 184.183V184.35C72.3025 184.975 72.2283 185.555 72.0799 186.091C71.9315 186.62 71.7143 187.081 71.4281 187.474C71.1473 187.866 70.8002 188.17 70.3868 188.388C69.9735 188.605 69.4992 188.714 68.964 188.714C68.4181 188.714 67.9359 188.624 67.5173 188.443C67.0986 188.263 66.7436 188.001 66.4521 187.656C66.1607 187.312 65.9275 186.899 65.7526 186.416C65.583 185.934 65.4665 185.391 65.4029 184.787V183.897C65.4665 183.261 65.5857 182.691 65.7606 182.188C65.9354 181.684 66.166 181.255 66.4521 180.9C66.7436 180.54 67.096 180.267 67.5093 180.081C67.9227 179.89 68.3996 179.795 68.9401 179.795C69.4806 179.795 69.9602 179.901 70.3789 180.113C70.7975 180.32 71.1499 180.616 71.4361 181.003C71.7222 181.39 71.9368 181.854 72.0799 182.394C72.2283 182.93 72.3025 183.526 72.3025 184.183ZM70.824 184.35V184.183C70.824 183.754 70.779 183.351 70.6889 182.975C70.5988 182.593 70.4584 182.259 70.2676 181.973C70.0821 181.682 69.8436 181.454 69.5522 181.289C69.2607 181.12 68.9136 181.035 68.5109 181.035C68.1399 181.035 67.8167 181.099 67.5411 181.226C67.2709 181.353 67.0403 181.525 66.8496 181.742C66.6588 181.954 66.5025 182.198 66.3806 182.474C66.264 182.744 66.1766 183.025 66.1183 183.316V185.375C66.2242 185.746 66.3726 186.096 66.5634 186.424C66.7542 186.748 67.0085 187.01 67.3265 187.211C67.6444 187.407 68.0445 187.505 68.5268 187.505C68.9242 187.505 69.266 187.423 69.5522 187.259C69.8436 187.089 70.0821 186.859 70.2676 186.567C70.4584 186.276 70.5988 185.942 70.6889 185.566C70.779 185.184 70.824 184.779 70.824 184.35ZM79.2498 187.084V182.657C79.2498 182.317 79.1809 182.023 79.0432 181.774C78.9107 181.52 78.7093 181.324 78.439 181.186C78.1688 181.048 77.8349 180.979 77.4375 180.979C77.0665 180.979 76.7406 181.043 76.4598 181.17C76.1842 181.297 75.9669 181.464 75.808 181.671C75.6543 181.878 75.5774 182.1 75.5774 182.339H74.1069C74.1069 182.031 74.1864 181.727 74.3454 181.425C74.5043 181.122 74.7322 180.85 75.029 180.606C75.331 180.357 75.6914 180.161 76.11 180.018C76.534 179.869 77.0056 179.795 77.5249 179.795C78.1502 179.795 78.7014 179.901 79.1783 180.113C79.6605 180.325 80.0368 180.646 80.307 181.075C80.5826 181.499 80.7204 182.031 80.7204 182.673V186.679C80.7204 186.965 80.7442 187.27 80.7919 187.593C80.8449 187.916 80.9217 188.194 81.0224 188.428V188.555H79.4883C79.4141 188.385 79.3558 188.16 79.3134 187.879C79.271 187.593 79.2498 187.328 79.2498 187.084ZM79.5042 183.34L79.5201 184.374H78.0336C77.615 184.374 77.2414 184.408 76.9129 184.477C76.5843 184.54 76.3087 184.639 76.0862 184.771C75.8636 184.903 75.694 185.07 75.5774 185.272C75.4609 185.468 75.4026 185.698 75.4026 185.963C75.4026 186.234 75.4635 186.48 75.5854 186.703C75.7073 186.925 75.8901 187.103 76.1339 187.235C76.3829 187.362 76.6876 187.426 77.048 187.426C77.4984 187.426 77.8959 187.331 78.2403 187.14C78.5848 186.949 78.8577 186.716 79.0591 186.44C79.2657 186.165 79.377 185.897 79.3929 185.637L80.0209 186.345C79.9838 186.567 79.8831 186.814 79.7188 187.084C79.5545 187.354 79.3346 187.614 79.0591 187.863C78.7888 188.107 78.4655 188.311 78.0893 188.475C77.7183 188.634 77.2997 188.714 76.8334 188.714C76.2504 188.714 75.7391 188.6 75.2992 188.372C74.8647 188.144 74.5255 187.839 74.2818 187.458C74.0433 187.071 73.9241 186.639 73.9241 186.162C73.9241 185.701 74.0142 185.296 74.1943 184.946C74.3745 184.591 74.6342 184.297 74.9733 184.064C75.3125 183.825 75.7205 183.645 76.1975 183.523C76.6744 183.401 77.207 183.34 77.7952 183.34H79.5042ZM86.4754 187.505C86.8251 187.505 87.1484 187.434 87.4451 187.291C87.7419 187.148 87.9857 186.952 88.1764 186.703C88.3672 186.448 88.4758 186.159 88.5023 185.836H89.9013C89.8748 186.345 89.7026 186.819 89.3847 187.259C89.072 187.694 88.6613 188.046 88.1526 188.316C87.6439 188.581 87.0848 188.714 86.4754 188.714C85.8289 188.714 85.2645 188.6 84.7823 188.372C84.3053 188.144 83.9079 187.831 83.5899 187.434C83.2773 187.036 83.0414 186.581 82.8825 186.067C82.7288 185.547 82.652 184.999 82.652 184.421V184.087C82.652 183.51 82.7288 182.964 82.8825 182.45C83.0414 181.931 83.2773 181.472 83.5899 181.075C83.9079 180.677 84.3053 180.365 84.7823 180.137C85.2645 179.909 85.8289 179.795 86.4754 179.795C87.1484 179.795 87.7366 179.933 88.24 180.208C88.7434 180.479 89.1382 180.85 89.4244 181.321C89.7159 181.788 89.8748 182.317 89.9013 182.911H88.5023C88.4758 182.556 88.3752 182.235 88.2003 181.949C88.0307 181.663 87.7975 181.435 87.5008 181.266C87.2093 181.091 86.8675 181.003 86.4754 181.003C86.0249 181.003 85.646 181.093 85.3387 181.274C85.0366 181.448 84.7955 181.687 84.6153 181.989C84.4405 182.286 84.3133 182.617 84.2338 182.983C84.1596 183.343 84.1225 183.711 84.1225 184.087V184.421C84.1225 184.798 84.1596 185.168 84.2338 185.534C84.308 185.9 84.4325 186.231 84.6074 186.528C84.7876 186.824 85.0287 187.063 85.3307 187.243C85.6381 187.418 86.0196 187.505 86.4754 187.505ZM95.1238 188.714C94.5249 188.714 93.9818 188.613 93.4942 188.412C93.012 188.205 92.596 187.916 92.2463 187.545C91.9018 187.174 91.6368 186.734 91.4514 186.226C91.2659 185.717 91.1732 185.161 91.1732 184.556V184.223C91.1732 183.523 91.2765 182.9 91.4832 182.355C91.6898 181.803 91.9707 181.337 92.3257 180.956C92.6808 180.574 93.0835 180.285 93.534 180.089C93.9844 179.893 94.4508 179.795 94.933 179.795C95.5477 179.795 96.0776 179.901 96.5228 180.113C96.9732 180.325 97.3415 180.622 97.6277 181.003C97.9138 181.379 98.1258 181.825 98.2636 182.339C98.4013 182.847 98.4702 183.404 98.4702 184.008V184.668H92.0475V183.467H96.9997V183.356C96.9785 182.975 96.899 182.604 96.7612 182.243C96.6287 181.883 96.4168 181.586 96.1253 181.353C95.8339 181.12 95.4364 181.003 94.933 181.003C94.5991 181.003 94.2918 181.075 94.0109 181.218C93.7301 181.356 93.4889 181.562 93.2876 181.838C93.0862 182.113 92.9299 182.45 92.8186 182.847C92.7073 183.245 92.6517 183.703 92.6517 184.223V184.556C92.6517 184.964 92.7073 185.349 92.8186 185.709C92.9352 186.064 93.1021 186.377 93.3194 186.647C93.5419 186.917 93.8095 187.129 94.1222 187.283C94.4402 187.437 94.8005 187.513 95.2032 187.513C95.7226 187.513 96.1624 187.407 96.5228 187.195C96.8831 186.983 97.1984 186.7 97.4687 186.345L98.359 187.052C98.1735 187.333 97.9377 187.601 97.6515 187.855C97.3653 188.11 97.0129 188.316 96.5943 188.475C96.181 188.634 95.6908 188.714 95.1238 188.714Z" fill="#484848"/>
<path d="M438.899 159.242H436.483L436.498 157.994H438.899C439.726 157.994 440.415 157.822 440.966 157.478C441.517 157.128 441.93 156.64 442.206 156.015C442.487 155.384 442.627 154.648 442.627 153.805V153.098C442.627 152.435 442.548 151.847 442.389 151.333C442.23 150.814 441.996 150.377 441.689 150.021C441.382 149.661 441.006 149.388 440.56 149.203C440.121 149.017 439.614 148.925 439.042 148.925H436.435V147.669H439.042C439.8 147.669 440.491 147.796 441.117 148.05C441.742 148.299 442.28 148.662 442.73 149.139C443.186 149.611 443.536 150.183 443.78 150.856C444.023 151.524 444.145 152.276 444.145 153.114V153.805C444.145 154.642 444.023 155.398 443.78 156.071C443.536 156.738 443.184 157.308 442.722 157.78C442.267 158.251 441.716 158.614 441.069 158.869C440.428 159.118 439.705 159.242 438.899 159.242ZM437.301 147.669V159.242H435.767V147.669H437.301ZM449.797 159.401C449.198 159.401 448.655 159.3 448.167 159.099C447.685 158.892 447.269 158.604 446.919 158.233C446.575 157.862 446.31 157.422 446.125 156.913C445.939 156.404 445.846 155.848 445.846 155.244V154.91C445.846 154.211 445.95 153.588 446.156 153.042C446.363 152.491 446.644 152.025 446.999 151.643C447.354 151.262 447.757 150.973 448.207 150.777C448.658 150.581 449.124 150.483 449.606 150.483C450.221 150.483 450.751 150.588 451.196 150.8C451.646 151.012 452.015 151.309 452.301 151.691C452.587 152.067 452.799 152.512 452.937 153.026C453.075 153.535 453.143 154.091 453.143 154.695V155.355H446.721V154.155H451.673V154.044C451.652 153.662 451.572 153.291 451.434 152.931C451.302 152.57 451.09 152.274 450.799 152.04C450.507 151.807 450.11 151.691 449.606 151.691C449.272 151.691 448.965 151.762 448.684 151.905C448.403 152.043 448.162 152.25 447.961 152.525C447.759 152.801 447.603 153.137 447.492 153.535C447.381 153.932 447.325 154.391 447.325 154.91V155.244C447.325 155.652 447.381 156.036 447.492 156.396C447.608 156.752 447.775 157.064 447.993 157.334C448.215 157.605 448.483 157.817 448.795 157.97C449.113 158.124 449.474 158.201 449.876 158.201C450.396 158.201 450.836 158.095 451.196 157.883C451.556 157.671 451.872 157.387 452.142 157.032L453.032 157.74C452.847 158.021 452.611 158.288 452.325 158.543C452.039 158.797 451.686 159.004 451.268 159.163C450.854 159.322 450.364 159.401 449.797 159.401ZM456.458 147.033V159.242H454.98V147.033H456.458ZM460.417 150.641V159.242H458.938V150.641H460.417ZM458.827 148.36C458.827 148.122 458.898 147.92 459.042 147.756C459.19 147.592 459.407 147.51 459.693 147.51C459.974 147.51 460.189 147.592 460.337 147.756C460.491 147.92 460.568 148.122 460.568 148.36C460.568 148.588 460.491 148.784 460.337 148.948C460.189 149.107 459.974 149.187 459.693 149.187C459.407 149.187 459.19 149.107 459.042 148.948C458.898 148.784 458.827 148.588 458.827 148.36ZM465.393 157.915L467.746 150.641H469.248L466.156 159.242H465.17L465.393 157.915ZM463.429 150.641L465.854 157.954L466.021 159.242H465.035L461.919 150.641H463.429ZM474.121 159.401C473.522 159.401 472.979 159.3 472.491 159.099C472.009 158.892 471.593 158.604 471.243 158.233C470.899 157.862 470.634 157.422 470.448 156.913C470.263 156.404 470.17 155.848 470.17 155.244V154.91C470.17 154.211 470.273 153.588 470.48 153.042C470.687 152.491 470.968 152.025 471.323 151.643C471.678 151.262 472.08 150.973 472.531 150.777C472.981 150.581 473.448 150.483 473.93 150.483C474.545 150.483 475.074 150.588 475.52 150.8C475.97 151.012 476.338 151.309 476.624 151.691C476.911 152.067 477.123 152.512 477.26 153.026C477.398 153.535 477.467 154.091 477.467 154.695V155.355H471.044V154.155H475.997V154.044C475.975 153.662 475.896 153.291 475.758 152.931C475.626 152.57 475.414 152.274 475.122 152.04C474.831 151.807 474.433 151.691 473.93 151.691C473.596 151.691 473.289 151.762 473.008 151.905C472.727 152.043 472.486 152.25 472.284 152.525C472.083 152.801 471.927 153.137 471.815 153.535C471.704 153.932 471.648 154.391 471.648 154.91V155.244C471.648 155.652 471.704 156.036 471.815 156.396C471.932 156.752 472.099 157.064 472.316 157.334C472.539 157.605 472.806 157.817 473.119 157.97C473.437 158.124 473.797 158.201 474.2 158.201C474.719 158.201 475.159 158.095 475.52 157.883C475.88 157.671 476.195 157.387 476.465 157.032L477.356 157.74C477.17 158.021 476.934 158.288 476.648 158.543C476.362 158.797 476.01 159.004 475.591 159.163C475.178 159.322 474.688 159.401 474.121 159.401ZM480.655 151.993V159.242H479.184V150.641H480.615L480.655 151.993ZM483.341 150.594L483.333 151.961C483.211 151.935 483.095 151.919 482.984 151.913C482.878 151.903 482.756 151.897 482.618 151.897C482.279 151.897 481.979 151.95 481.72 152.056C481.46 152.162 481.24 152.311 481.06 152.502C480.88 152.692 480.737 152.92 480.631 153.185C480.53 153.445 480.464 153.731 480.432 154.044L480.019 154.282C480.019 153.763 480.069 153.275 480.17 152.819C480.276 152.364 480.437 151.961 480.655 151.611C480.872 151.256 481.147 150.981 481.481 150.785C481.82 150.583 482.223 150.483 482.689 150.483C482.795 150.483 482.917 150.496 483.055 150.522C483.193 150.543 483.288 150.567 483.341 150.594ZM486.298 150.641V159.242H484.82V150.641H486.298ZM484.708 148.36C484.708 148.122 484.78 147.92 484.923 147.756C485.071 147.592 485.289 147.51 485.575 147.51C485.856 147.51 486.07 147.592 486.219 147.756C486.372 147.92 486.449 148.122 486.449 148.36C486.449 148.588 486.372 148.784 486.219 148.948C486.07 149.107 485.856 149.187 485.575 149.187C485.289 149.187 485.071 149.107 484.923 148.948C484.78 148.784 484.708 148.588 484.708 148.36ZM490.13 152.478V159.242H488.659V150.641H490.05L490.13 152.478ZM489.78 154.616L489.168 154.592C489.173 154.004 489.261 153.461 489.43 152.963C489.6 152.459 489.838 152.022 490.146 151.651C490.453 151.28 490.819 150.994 491.242 150.793C491.672 150.586 492.146 150.483 492.665 150.483C493.089 150.483 493.471 150.541 493.81 150.657C494.149 150.769 494.438 150.949 494.676 151.198C494.92 151.447 495.106 151.77 495.233 152.168C495.36 152.56 495.424 153.039 495.424 153.606V159.242H493.945V153.591C493.945 153.14 493.879 152.78 493.746 152.509C493.614 152.234 493.42 152.035 493.166 151.913C492.912 151.786 492.599 151.723 492.228 151.723C491.862 151.723 491.529 151.799 491.227 151.953C490.93 152.107 490.673 152.319 490.456 152.589C490.244 152.859 490.077 153.169 489.955 153.519C489.838 153.863 489.78 154.229 489.78 154.616ZM503.229 150.641H504.565V159.059C504.565 159.817 504.411 160.464 504.104 160.999C503.796 161.534 503.367 161.94 502.816 162.215C502.27 162.496 501.64 162.636 500.924 162.636C500.627 162.636 500.278 162.589 499.875 162.493C499.478 162.403 499.085 162.247 498.699 162.024C498.317 161.807 497.996 161.513 497.737 161.142L498.508 160.268C498.868 160.702 499.244 161.004 499.637 161.174C500.034 161.343 500.426 161.428 500.813 161.428C501.279 161.428 501.682 161.341 502.021 161.166C502.36 160.991 502.623 160.731 502.808 160.387C502.999 160.048 503.094 159.629 503.094 159.131V152.533L503.229 150.641ZM497.307 155.037V154.87C497.307 154.213 497.384 153.617 497.538 153.082C497.697 152.541 497.922 152.078 498.214 151.691C498.51 151.304 498.868 151.007 499.287 150.8C499.705 150.588 500.177 150.483 500.702 150.483C501.242 150.483 501.714 150.578 502.117 150.769C502.525 150.954 502.869 151.227 503.15 151.587C503.436 151.942 503.661 152.372 503.826 152.875C503.99 153.379 504.104 153.948 504.167 154.584V155.315C504.109 155.946 503.995 156.513 503.826 157.016C503.661 157.52 503.436 157.949 503.15 158.304C502.869 158.659 502.525 158.932 502.117 159.123C501.709 159.308 501.232 159.401 500.686 159.401C500.172 159.401 499.705 159.293 499.287 159.075C498.873 158.858 498.518 158.553 498.222 158.161C497.925 157.769 497.697 157.308 497.538 156.778C497.384 156.243 497.307 155.663 497.307 155.037ZM498.778 154.87V155.037C498.778 155.466 498.82 155.869 498.905 156.245C498.995 156.622 499.13 156.953 499.311 157.239C499.496 157.525 499.732 157.75 500.018 157.915C500.304 158.074 500.646 158.153 501.043 158.153C501.531 158.153 501.934 158.05 502.252 157.843C502.57 157.637 502.821 157.364 503.007 157.024C503.198 156.685 503.346 156.317 503.452 155.92V154.004C503.394 153.712 503.304 153.432 503.182 153.161C503.065 152.886 502.911 152.642 502.721 152.43C502.535 152.213 502.305 152.04 502.029 151.913C501.754 151.786 501.43 151.723 501.059 151.723C500.657 151.723 500.31 151.807 500.018 151.977C499.732 152.141 499.496 152.369 499.311 152.661C499.13 152.947 498.995 153.281 498.905 153.662C498.82 154.038 498.778 154.441 498.778 154.87Z" fill="#484848"/>
<path d="M442.389 167.204H443.915V175.033C443.915 175.902 443.721 176.626 443.335 177.203C442.948 177.781 442.434 178.216 441.792 178.507C441.157 178.793 440.465 178.936 439.718 178.936C438.933 178.936 438.223 178.793 437.587 178.507C436.957 178.216 436.456 177.781 436.085 177.203C435.719 176.626 435.537 175.902 435.537 175.033V167.204H437.055V175.033C437.055 175.638 437.166 176.136 437.389 176.528C437.611 176.92 437.921 177.211 438.319 177.402C438.722 177.593 439.188 177.688 439.718 177.688C440.253 177.688 440.719 177.593 441.117 177.402C441.52 177.211 441.832 176.92 442.055 176.528C442.277 176.136 442.389 175.638 442.389 175.033V167.204ZM447.571 172.013V178.777H446.101V170.177H447.492L447.571 172.013ZM447.222 174.151L446.609 174.127C446.615 173.539 446.702 172.996 446.872 172.498C447.041 171.994 447.28 171.557 447.587 171.186C447.895 170.815 448.26 170.529 448.684 170.328C449.113 170.121 449.588 170.018 450.107 170.018C450.531 170.018 450.912 170.076 451.252 170.193C451.591 170.304 451.88 170.484 452.118 170.733C452.362 170.982 452.547 171.305 452.674 171.703C452.802 172.095 452.865 172.575 452.865 173.142V178.777H451.387V173.126C451.387 172.675 451.321 172.315 451.188 172.045C451.056 171.769 450.862 171.57 450.608 171.448C450.353 171.321 450.041 171.258 449.67 171.258C449.304 171.258 448.97 171.335 448.668 171.488C448.371 171.642 448.114 171.854 447.897 172.124C447.685 172.394 447.518 172.704 447.396 173.054C447.28 173.399 447.222 173.764 447.222 174.151ZM456.697 170.177V178.777H455.218V170.177H456.697ZM455.107 167.895C455.107 167.657 455.178 167.455 455.321 167.291C455.47 167.127 455.687 167.045 455.973 167.045C456.254 167.045 456.469 167.127 456.617 167.291C456.771 167.455 456.848 167.657 456.848 167.895C456.848 168.123 456.771 168.319 456.617 168.484C456.469 168.643 456.254 168.722 455.973 168.722C455.687 168.722 455.47 168.643 455.321 168.484C455.178 168.319 455.107 168.123 455.107 167.895ZM464.471 182.084V171.83L464.598 170.177H465.949V182.084H464.471ZM458.692 174.572V174.405C458.692 173.748 458.769 173.152 458.922 172.617C459.076 172.076 459.301 171.613 459.598 171.226C459.895 170.839 460.252 170.542 460.671 170.336C461.095 170.124 461.577 170.018 462.118 170.018C462.658 170.018 463.133 170.113 463.541 170.304C463.954 170.489 464.304 170.762 464.59 171.123C464.881 171.478 465.112 171.907 465.281 172.41C465.451 172.914 465.568 173.483 465.631 174.119V174.851C465.573 175.481 465.459 176.048 465.289 176.552C465.12 177.055 464.889 177.484 464.598 177.839C464.312 178.194 463.959 178.467 463.541 178.658C463.127 178.844 462.648 178.936 462.102 178.936C461.572 178.936 461.095 178.828 460.671 178.61C460.252 178.393 459.895 178.088 459.598 177.696C459.306 177.304 459.081 176.843 458.922 176.313C458.769 175.778 458.692 175.198 458.692 174.572ZM460.17 174.405V174.572C460.17 175.002 460.215 175.407 460.305 175.789C460.395 176.165 460.533 176.499 460.719 176.79C460.91 177.082 461.148 177.312 461.434 177.482C461.726 177.646 462.07 177.728 462.468 177.728C462.955 177.728 463.36 177.622 463.684 177.41C464.012 177.198 464.275 176.92 464.471 176.576C464.667 176.226 464.818 175.852 464.924 175.455V173.539C464.865 173.248 464.773 172.964 464.645 172.688C464.524 172.413 464.365 172.167 464.169 171.949C463.972 171.727 463.734 171.552 463.453 171.425C463.178 171.292 462.854 171.226 462.483 171.226C462.081 171.226 461.734 171.311 461.442 171.48C461.151 171.65 460.91 171.883 460.719 172.18C460.533 172.471 460.395 172.808 460.305 173.189C460.215 173.571 460.17 173.976 460.17 174.405ZM473.572 176.79V170.177H475.051V178.777H473.644L473.572 176.79ZM473.85 174.978L474.462 174.962C474.462 175.534 474.401 176.064 474.28 176.552C474.163 177.034 473.972 177.453 473.707 177.808C473.442 178.163 473.095 178.441 472.666 178.642C472.237 178.838 471.715 178.936 471.1 178.936C470.681 178.936 470.297 178.875 469.947 178.753C469.603 178.632 469.306 178.443 469.057 178.189C468.808 177.935 468.615 177.604 468.477 177.196C468.344 176.787 468.278 176.297 468.278 175.725V170.177H469.749V175.741C469.749 176.128 469.791 176.448 469.876 176.703C469.966 176.952 470.085 177.15 470.234 177.299C470.387 177.442 470.557 177.543 470.742 177.601C470.933 177.659 471.129 177.688 471.331 177.688C471.956 177.688 472.451 177.569 472.817 177.331C473.183 177.087 473.445 176.761 473.604 176.353C473.768 175.94 473.85 175.481 473.85 174.978ZM480.861 178.936C480.262 178.936 479.719 178.836 479.232 178.634C478.749 178.428 478.333 178.139 477.984 177.768C477.639 177.397 477.374 176.957 477.189 176.448C477.003 175.94 476.911 175.383 476.911 174.779V174.445C476.911 173.746 477.014 173.123 477.221 172.577C477.427 172.026 477.708 171.56 478.063 171.178C478.418 170.797 478.821 170.508 479.271 170.312C479.722 170.116 480.188 170.018 480.67 170.018C481.285 170.018 481.815 170.124 482.26 170.336C482.711 170.548 483.079 170.844 483.365 171.226C483.651 171.602 483.863 172.047 484.001 172.561C484.139 173.07 484.208 173.626 484.208 174.231V174.89H477.785V173.69H482.737V173.579C482.716 173.197 482.636 172.826 482.499 172.466C482.366 172.106 482.154 171.809 481.863 171.576C481.571 171.342 481.174 171.226 480.67 171.226C480.337 171.226 480.029 171.297 479.748 171.441C479.468 171.578 479.226 171.785 479.025 172.061C478.824 172.336 478.667 172.673 478.556 173.07C478.445 173.467 478.389 173.926 478.389 174.445V174.779C478.389 175.187 478.445 175.571 478.556 175.932C478.673 176.287 478.84 176.599 479.057 176.87C479.279 177.14 479.547 177.352 479.86 177.506C480.178 177.659 480.538 177.736 480.941 177.736C481.46 177.736 481.9 177.63 482.26 177.418C482.621 177.206 482.936 176.923 483.206 176.568L484.096 177.275C483.911 177.556 483.675 177.823 483.389 178.078C483.103 178.332 482.75 178.539 482.332 178.698C481.918 178.857 481.428 178.936 480.861 178.936ZM493.921 177.021L497.331 167.204H498.993L494.708 178.777H493.524L493.921 177.021ZM490.734 167.204L494.112 177.021L494.533 178.777H493.349L489.072 167.204H490.734ZM505.034 177.307V172.879C505.034 172.54 504.965 172.246 504.827 171.997C504.695 171.743 504.493 171.547 504.223 171.409C503.953 171.271 503.619 171.202 503.221 171.202C502.851 171.202 502.525 171.266 502.244 171.393C501.968 171.52 501.751 171.687 501.592 171.894C501.438 172.1 501.361 172.323 501.361 172.561H499.891C499.891 172.254 499.97 171.949 500.129 171.647C500.288 171.345 500.516 171.072 500.813 170.828C501.115 170.579 501.475 170.383 501.894 170.24C502.318 170.092 502.79 170.018 503.309 170.018C503.934 170.018 504.485 170.124 504.962 170.336C505.444 170.548 505.821 170.868 506.091 171.297C506.367 171.721 506.504 172.254 506.504 172.895V176.901C506.504 177.188 506.528 177.492 506.576 177.816C506.629 178.139 506.706 178.417 506.806 178.65V178.777H505.272C505.198 178.608 505.14 178.383 505.097 178.102C505.055 177.816 505.034 177.551 505.034 177.307ZM505.288 173.563L505.304 174.596H503.818C503.399 174.596 503.025 174.631 502.697 174.7C502.368 174.763 502.093 174.861 501.87 174.994C501.648 175.126 501.478 175.293 501.361 175.494C501.245 175.691 501.187 175.921 501.187 176.186C501.187 176.456 501.247 176.703 501.369 176.925C501.491 177.148 501.674 177.325 501.918 177.458C502.167 177.585 502.472 177.649 502.832 177.649C503.282 177.649 503.68 177.553 504.024 177.362C504.369 177.172 504.642 176.939 504.843 176.663C505.05 176.387 505.161 176.12 505.177 175.86L505.805 176.568C505.768 176.79 505.667 177.037 505.503 177.307C505.339 177.577 505.119 177.837 504.843 178.086C504.573 178.33 504.25 178.534 503.873 178.698C503.502 178.857 503.084 178.936 502.617 178.936C502.034 178.936 501.523 178.822 501.083 178.595C500.649 178.367 500.31 178.062 500.066 177.68C499.827 177.294 499.708 176.862 499.708 176.385C499.708 175.924 499.798 175.518 499.978 175.169C500.158 174.813 500.418 174.519 500.757 174.286C501.096 174.048 501.504 173.868 501.981 173.746C502.458 173.624 502.991 173.563 503.579 173.563H505.288ZM510.415 166.568V178.777H508.937V166.568H510.415ZM518.038 176.79V170.177H519.517V178.777H518.11L518.038 176.79ZM518.316 174.978L518.928 174.962C518.928 175.534 518.868 176.064 518.746 176.552C518.629 177.034 518.438 177.453 518.173 177.808C517.908 178.163 517.561 178.441 517.132 178.642C516.703 178.838 516.181 178.936 515.566 178.936C515.147 178.936 514.763 178.875 514.413 178.753C514.069 178.632 513.772 178.443 513.523 178.189C513.274 177.935 513.081 177.604 512.943 177.196C512.81 176.787 512.744 176.297 512.744 175.725V170.177H514.215V175.741C514.215 176.128 514.257 176.448 514.342 176.703C514.432 176.952 514.551 177.15 514.7 177.299C514.853 177.442 515.023 177.543 515.208 177.601C515.399 177.659 515.595 177.688 515.797 177.688C516.422 177.688 516.917 177.569 517.283 177.331C517.649 177.087 517.911 176.761 518.07 176.353C518.234 175.94 518.316 175.481 518.316 174.978ZM525.327 178.936C524.728 178.936 524.185 178.836 523.698 178.634C523.216 178.428 522.8 178.139 522.45 177.768C522.105 177.397 521.84 176.957 521.655 176.448C521.469 175.94 521.377 175.383 521.377 174.779V174.445C521.377 173.746 521.48 173.123 521.687 172.577C521.893 172.026 522.174 171.56 522.529 171.178C522.884 170.797 523.287 170.508 523.738 170.312C524.188 170.116 524.654 170.018 525.137 170.018C525.751 170.018 526.281 170.124 526.726 170.336C527.177 170.548 527.545 170.844 527.831 171.226C528.117 171.602 528.329 172.047 528.467 172.561C528.605 173.07 528.674 173.626 528.674 174.231V174.89H522.251V173.69H527.203V173.579C527.182 173.197 527.103 172.826 526.965 172.466C526.832 172.106 526.62 171.809 526.329 171.576C526.037 171.342 525.64 171.226 525.137 171.226C524.803 171.226 524.495 171.297 524.214 171.441C523.934 171.578 523.692 171.785 523.491 172.061C523.29 172.336 523.133 172.673 523.022 173.07C522.911 173.467 522.855 173.926 522.855 174.445V174.779C522.855 175.187 522.911 175.571 523.022 175.932C523.139 176.287 523.306 176.599 523.523 176.87C523.745 177.14 524.013 177.352 524.326 177.506C524.644 177.659 525.004 177.736 525.407 177.736C525.926 177.736 526.366 177.63 526.726 177.418C527.087 177.206 527.402 176.923 527.672 176.568L528.562 177.275C528.377 177.556 528.141 177.823 527.855 178.078C527.569 178.332 527.216 178.539 526.798 178.698C526.385 178.857 525.894 178.936 525.327 178.936Z" fill="#484848"/>
<path fill-rule="evenodd" clip-rule="evenodd" d="M266.742 238.664C290.467 220.844 305.813 192.472 305.813 160.516C305.813 128.559 290.467 100.188 266.742 82.3677C283.067 70.1061 303.358 62.8398 325.348 62.8398C379.293 62.8398 423.024 106.571 423.024 160.516C423.024 214.461 379.293 258.192 325.348 258.192C303.358 258.192 283.067 250.925 266.742 238.664Z" stroke="#717070" stroke-width="1.25" stroke-linecap="round" stroke-linejoin="round"/>
<path fill-rule="evenodd" clip-rule="evenodd" d="M266.746 82.3677C243.022 100.188 227.676 128.559 227.676 160.516C227.676 192.472 243.022 220.844 266.746 238.664C250.421 250.925 230.13 258.192 208.141 258.192C154.196 258.192 110.465 214.461 110.465 160.516C110.465 106.571 154.196 62.8398 208.141 62.8398C230.13 62.8398 250.421 70.1061 266.746 82.3677Z" stroke="#717070" stroke-width="1.25" stroke-linecap="round" stroke-linejoin="round"/>
<path fill-rule="evenodd" clip-rule="evenodd" d="M266.748 238.671C290.473 220.851 305.818 192.479 305.818 160.523C305.818 128.567 290.473 100.195 266.748 82.375C243.023 100.195 227.678 128.567 227.678 160.523C227.678 192.479 243.023 220.851 266.748 238.671Z" stroke="#BA5DE5" stroke-width="1.62793" stroke-linecap="round" stroke-linejoin="round"/>
<path d="M189.804 161.989H183.41M174.274 161.989H167.879M183.844 153.371C183.511 150.863 181.372 148.989 178.842 148.989C176.311 148.989 174.172 150.863 173.839 153.371M172.12 149.671C170.666 148.855 168.904 148.811 167.411 149.551C165.918 150.291 164.886 151.72 164.654 153.371M185.563 149.671C187.017 148.855 188.779 148.811 190.273 149.551C191.766 150.291 192.797 151.72 193.029 153.371M183.41 156.599V167.928C183.409 170.45 181.364 172.495 178.842 172.495C176.319 172.495 174.274 170.45 174.274 167.928V156.599H167.879V168.292C167.881 174.346 172.788 179.252 178.842 179.252C184.895 179.252 189.803 174.346 189.804 168.292V156.599H183.41ZM166.769 144.7C166.769 146.295 168.062 147.588 169.657 147.588C171.252 147.588 172.545 146.295 172.545 144.7C172.545 143.105 171.252 141.812 169.657 141.812C168.062 141.812 166.769 143.105 166.769 144.7ZM175.954 144.7C175.954 146.295 177.247 147.588 178.842 147.588C180.437 147.588 181.73 146.295 181.73 144.7C181.73 143.105 180.437 141.812 178.842 141.812C177.247 141.812 175.954 143.105 175.954 144.7ZM185.139 144.7C185.139 146.295 186.432 147.588 188.027 147.588C189.621 147.588 190.914 146.295 190.914 144.7C190.914 143.105 189.621 141.812 188.027 141.812C186.432 141.812 185.139 143.105 185.139 144.7Z" stroke="#188FB7" stroke-width="1.62793" stroke-linecap="round" stroke-linejoin="round"/>
<path d="M271.635 169.056V173.477C271.635 175.799 269.681 176.733 266.751 176.733M266.751 176.733C263.821 176.733 261.867 175.799 261.867 173.477V169.056M266.751 176.733V179.175M268.379 169.407V159.64C268.379 158.741 269.108 158.012 270.007 158.012C270.906 158.012 271.635 158.741 271.635 159.64C271.635 160.539 270.906 161.268 270.007 161.268H263.495C262.596 161.268 261.867 160.539 261.867 159.64C261.867 158.741 262.596 158.012 263.495 158.012C263.934 157.988 264.361 158.153 264.672 158.463C264.982 158.773 265.146 159.201 265.123 159.64V169.407M261.867 172.663H271.635M266.751 141.879V144.988M248.844 158.012H252.573M253.062 145.949L256.169 149.058M284.658 158.012H280.929M280.44 145.949L277.333 149.058M270.821 169.407C274.813 167.825 277.407 163.934 277.333 159.64C277.229 153.839 272.552 149.161 266.751 149.058C260.95 149.161 256.273 153.839 256.169 159.64C256.095 163.934 258.689 167.825 262.681 169.407H270.821Z" stroke="#8E3FB3" stroke-width="1.62793" stroke-linecap="round" stroke-linejoin="round"/>
<path d="M335.934 179.255V162.976M352.213 171.115C352.213 168.418 350.026 166.231 347.329 166.231H335.934V175.999H366.864C366.864 173.302 364.678 171.115 361.981 171.115H352.213ZM352.213 171.115H347.329M366.864 154.836V166.231M366.864 154.836L363.608 151.58M366.864 154.836L370.12 151.58M360.353 161.348H373.376M365.236 148.324H353.678C352.845 148.325 352.147 148.953 352.06 149.781L350.774 161.991C350.725 162.451 350.875 162.911 351.186 163.254C351.496 163.597 351.939 163.792 352.402 163.79H360.353M361.981 148.324V145.068C361.981 143.27 360.523 141.812 358.725 141.812C356.926 141.812 355.469 143.27 355.469 145.068V148.324M361.981 154.836H371.748C371.748 154.836 373.376 154.836 373.376 156.464V164.604C373.376 164.604 373.376 166.231 371.748 166.231H361.981C361.981 166.231 360.353 166.231 360.353 164.604V156.464C360.353 156.464 360.353 154.836 361.981 154.836Z" stroke="#BF0A78" stroke-width="1.62793" stroke-linecap="round" stroke-linejoin="round"/>
</g>
<defs>
<clipPath id="clip0_2220_11667">
<rect width="529" height="258" fill="white" transform="translate(0 0.0664062)"/>
</clipPath>
</defs>
</svg>
