<svg width="677" height="521" viewBox="0 0 677 521" fill="none" xmlns="http://www.w3.org/2000/svg">
<g clip-path="url(#clip0_1189_8970)">
<path d="M581.05 131L595.728 138.718L598.506 134.859C598.908 134.314 599.482 133.874 600.163 133.59C600.844 133.306 601.605 133.189 602.361 133.251C603.22 133.289 604.082 133.289 604.941 133.251C605.7 133.233 606.45 133.393 607.109 133.713C607.768 134.033 608.31 134.501 608.675 135.065L611.165 139.014L626.343 132.093L623.839 128.157C623.485 127.588 623.323 126.946 623.371 126.304C623.42 125.662 623.676 125.043 624.112 124.516C624.61 123.918 625.066 123.295 625.478 122.651C625.84 122.087 626.379 121.618 627.035 121.295C627.691 120.973 628.439 120.81 629.197 120.825L634.479 120.966L635.026 106.34L629.713 106.211C628.954 106.183 628.218 105.977 627.588 105.616C626.959 105.255 626.459 104.753 626.146 104.166C625.964 103.845 625.782 103.523 625.569 103.214C625.357 102.906 625.159 102.584 624.947 102.275C624.549 101.728 624.339 101.098 624.339 100.455C624.339 99.8123 624.549 99.1821 624.947 98.6348L627.755 94.7757L613.077 87.0574L610.284 90.9166C609.88 91.461 609.306 91.9004 608.625 92.1864C607.945 92.4723 607.185 92.5938 606.429 92.5374C605.571 92.4731 604.71 92.4474 603.848 92.4602C603.091 92.4786 602.343 92.3189 601.687 91.9987C601.03 91.6785 600.491 91.2104 600.13 90.6464L597.64 86.6973L582.462 93.6179L584.966 97.5671C585.32 98.1349 585.48 98.7749 585.429 99.4155C585.378 100.056 585.118 100.672 584.678 101.195C584.187 101.79 583.736 102.408 583.327 103.047C582.969 103.616 582.432 104.089 581.775 104.414C581.119 104.739 580.368 104.902 579.608 104.887L574.311 104.745L573.779 119.371L579.077 119.5C579.855 119.532 580.606 119.749 581.245 120.127C581.884 120.505 582.385 121.027 582.689 121.635C582.871 121.957 583.054 122.278 583.266 122.6C583.479 122.921 583.676 123.23 583.888 123.539C584.286 124.086 584.496 124.716 584.496 125.359C584.496 126.002 584.286 126.632 583.888 127.179L581.05 131ZM591.948 118.612C590.632 116.523 590.076 114.151 590.35 111.794C590.625 109.438 591.717 107.203 593.49 105.373C595.262 103.542 597.635 102.198 600.309 101.511C602.982 100.823 605.836 100.822 608.51 101.509C611.184 102.195 613.558 103.538 615.332 105.368C617.106 107.197 618.2 109.431 618.476 111.788C618.752 114.144 618.197 116.517 616.882 118.606C615.567 120.695 613.551 122.407 611.089 123.526C609.452 124.271 607.658 124.735 605.809 124.892C603.96 125.048 602.093 124.894 600.315 124.437C598.536 123.981 596.882 123.231 595.446 122.231C594.01 121.232 592.822 120.002 591.948 118.612Z" fill="#EBEBEB"/>
<path d="M624.126 209.313L630.198 218.202L633.416 216.62C633.882 216.395 634.413 216.285 634.949 216.301C635.485 216.317 636.005 216.458 636.452 216.71C636.941 216.99 637.447 217.248 637.97 217.482C638.431 217.69 638.816 218.002 639.084 218.383C639.351 218.764 639.491 219.2 639.487 219.643V222.743H651.63V219.604C651.634 219.154 651.785 218.714 652.066 218.332C652.348 217.951 652.749 217.643 653.224 217.443C653.746 217.21 654.253 216.952 654.742 216.671C655.189 216.421 655.709 216.28 656.245 216.265C656.781 216.249 657.311 216.358 657.778 216.581L660.98 218.163L667.052 209.275L663.834 207.705C663.376 207.478 663.001 207.147 662.752 206.749C662.503 206.352 662.389 205.903 662.422 205.454C662.422 205.197 662.422 204.952 662.422 204.695C662.422 204.438 662.422 204.193 662.422 203.936C662.386 203.488 662.497 203.04 662.743 202.643C662.99 202.245 663.362 201.913 663.819 201.685L667.052 200.103L660.98 191.227L657.763 192.796C657.298 193.025 656.767 193.138 656.229 193.122C655.692 193.106 655.172 192.962 654.727 192.706C654.226 192.436 653.71 192.179 653.209 191.947C652.734 191.746 652.335 191.438 652.053 191.057C651.772 190.675 651.621 190.236 651.615 189.786V186.725H639.472V189.863C639.474 190.306 639.334 190.741 639.066 191.122C638.799 191.503 638.415 191.815 637.954 192.024C637.423 192.256 636.907 192.513 636.436 192.783C635.992 193.039 635.471 193.183 634.934 193.199C634.397 193.215 633.865 193.102 633.401 192.873L630.183 191.304L624.111 200.18L627.329 201.762C627.788 201.988 628.163 202.319 628.41 202.718C628.657 203.116 628.766 203.565 628.726 204.013C628.726 204.258 628.726 204.515 628.726 204.772C628.726 205.03 628.726 205.274 628.726 205.531C628.764 205.98 628.654 206.428 628.407 206.826C628.16 207.224 627.787 207.555 627.329 207.782L624.126 209.313ZM635.693 204.734C635.693 203.072 636.274 201.447 637.364 200.066C638.454 198.684 640.003 197.607 641.815 196.972C643.627 196.337 645.621 196.171 647.544 196.496C649.467 196.821 651.233 197.623 652.618 198.799C654.004 199.975 654.947 201.473 655.328 203.103C655.708 204.733 655.51 206.423 654.757 207.957C654.005 209.492 652.732 210.803 651.1 211.724C649.468 212.646 647.55 213.136 645.589 213.134C644.288 213.134 643 212.916 641.799 212.494C640.597 212.072 639.505 211.453 638.586 210.673C637.667 209.892 636.938 208.966 636.442 207.947C635.945 206.928 635.691 205.836 635.693 204.734Z" fill="#EBEBEB"/>
<path d="M0.44682 370.149L6.51832 379.025L9.72104 377.455C10.1854 377.228 10.7156 377.114 11.2519 377.128C11.7882 377.141 12.3093 377.282 12.7568 377.532C13.2457 377.813 13.7524 378.071 14.2747 378.304C14.7361 378.513 15.1214 378.825 15.3889 379.206C15.6565 379.586 15.796 380.022 15.7925 380.465V383.604H27.9356V380.465C27.9392 380.015 28.0902 379.575 28.3715 379.194C28.6529 378.812 29.0537 378.504 29.5293 378.304C30.0516 378.071 30.5583 377.813 31.0472 377.532C31.4933 377.279 32.0149 377.137 32.552 377.123C33.089 377.11 33.6197 377.225 34.0829 377.455L37.3008 379.025L43.3723 370.149L40.1544 368.566C39.6927 368.342 39.3152 368.012 39.0654 367.613C38.8156 367.215 38.7038 366.765 38.7428 366.315C38.7428 366.058 38.7428 365.814 38.7428 365.556C38.7428 365.299 38.7428 365.055 38.7428 364.797C38.7059 364.349 38.817 363.901 39.0637 363.504C39.3103 363.106 39.6828 362.775 40.1393 362.546L43.3723 360.977L37.3008 352.088L34.0829 353.67C33.6161 353.893 33.0857 354.003 32.5501 353.987C32.0146 353.971 31.4945 353.83 31.0472 353.58C30.5585 353.299 30.0518 353.042 29.5293 352.808C29.0537 352.608 28.6529 352.301 28.3715 351.919C28.0902 351.538 27.9392 351.097 27.9356 350.647V347.521H15.7925V350.66C15.796 351.103 15.6565 351.539 15.3889 351.92C15.1214 352.301 14.7361 352.613 14.2747 352.821C13.7522 353.054 13.2454 353.312 12.7568 353.593C12.3095 353.843 11.7894 353.984 11.2539 354C10.7183 354.016 10.1879 353.906 9.72104 353.683L6.50315 352.101L0.431641 360.99L3.64954 362.559C4.10604 362.787 4.47848 363.119 4.72513 363.517C4.97178 363.914 5.08288 364.362 5.04598 364.81C5.04598 365.068 5.04598 365.312 5.04598 365.569C5.04598 365.826 5.04598 366.071 5.04598 366.328C5.08227 366.778 4.97103 367.228 4.72458 367.627C4.47812 368.027 4.10606 368.361 3.64954 368.592L0.44682 370.149ZM11.9675 365.531C11.9675 363.869 12.5492 362.244 13.639 360.863C14.7288 359.481 16.2777 358.404 18.0897 357.769C19.9017 357.133 21.8954 356.968 23.8185 357.293C25.7416 357.618 27.5077 358.419 28.8932 359.596C30.2788 360.772 31.2216 362.27 31.6024 363.9C31.9831 365.53 31.7846 367.219 31.0321 368.754C30.2796 370.289 29.0068 371.6 27.3748 372.521C25.7429 373.443 23.825 373.933 21.864 373.931C20.5631 373.931 19.275 373.713 18.0733 373.291C16.8716 372.869 15.7799 372.25 14.8608 371.47C13.9416 370.689 13.2129 369.763 12.7165 368.744C12.22 367.725 11.9655 366.633 11.9675 365.531Z" fill="#EBEBEB"/>
<path d="M71.5003 -53.8262H69.9824V53.9329H71.5003V-53.8262Z" fill="#C7C7C7"/>
<path d="M114.896 90.0028L111.344 96.6147H30.1378L26.5859 90.0028L61.1632 69.7168H80.3187L114.896 90.0028Z" fill="#EBEBEB"/>
<path d="M82.7157 50.1758L80.3175 69.7157H61.1619L58.7637 50.1758H82.7157Z" fill="#DBDBDB"/>
<path d="M114.896 90.002L111.344 96.6139H30.1226L26.5859 90.002H114.896Z" fill="#DBDBDB"/>
<path d="M178.28 -53.8262H176.762V32.592H178.28V-53.8262Z" fill="#C7C7C7"/>
<path d="M221.675 68.6482L218.123 75.273H136.902L133.365 68.6482L167.942 48.375H187.098L221.675 68.6482Z" fill="#EBEBEB"/>
<path d="M189.499 28.8359L187.101 48.3759H167.945L165.547 28.8359H189.499Z" fill="#DBDBDB"/>
<path d="M221.66 68.6621L218.108 75.274H136.902L133.365 68.6621H221.66Z" fill="#DBDBDB"/>
<path d="M505.383 298.215H444.684V347.65H505.383V298.215Z" fill="#EBEBEB"/>
<path d="M528.458 298.215H505.387V347.65H528.458V298.215Z" fill="#C7C7C7"/>
<path d="M444.684 322.938H505.383L457.98 324.211L444.684 322.938Z" fill="#C7C7C7"/>
<path d="M505.383 341.68H444.684L492.087 342.953L505.383 341.68Z" fill="#C7C7C7"/>
<path d="M444.684 309.123H483.131L448.949 310.165L444.684 309.123Z" fill="#C7C7C7"/>
<path d="M505.381 334.412H466.934L501.116 335.441L505.381 334.412Z" fill="#C7C7C7"/>
<path d="M459.242 303.617H502.623L495.383 304.247L459.242 303.617Z" fill="#C7C7C7"/>
<path d="M450.586 328.238H493.952L486.727 328.856L450.586 328.238Z" fill="#C7C7C7"/>
<path d="M477.258 313.83H505.384L510.408 315.49L477.258 313.83Z" fill="#EBEBEB"/>
<path d="M436.928 313.83H465.069L470.093 315.49L436.928 313.83Z" fill="#EBEBEB"/>
<path d="M473.037 336.047H444.895L439.871 337.706L473.037 336.047Z" fill="#EBEBEB"/>
<path d="M505.387 330.398H527.973L533.012 332.071L505.387 330.398Z" fill="#C7C7C7"/>
<path d="M513.273 322.938H530.79L528.452 321.574L513.273 322.938Z" fill="#C7C7C7"/>
<path d="M415.024 444.14H594.422L600.189 347.662H409.256L415.024 444.14Z" fill="#EBEBEB"/>
<path d="M581.321 391.874H423.219L421.033 358.287H583.871L581.321 391.874ZM424.661 390.588H579.894L582.247 359.573H422.642L424.661 390.588Z" fill="#DBDBDB"/>
<path d="M579.186 430.415H427.762L425.986 400.082H581.417L579.186 430.415ZM429.204 429.128H577.759L579.808 401.368H427.58L429.204 429.128Z" fill="#DBDBDB"/>
<path d="M520.457 378.767H486.897L485.652 370.586H521.732L520.457 378.767ZM488.202 377.481H519.137L519.987 371.872H487.352L488.202 377.481Z" fill="#DBDBDB"/>
<path d="M520.457 419.325H486.897L485.652 411.156H521.732L520.457 419.325ZM488.202 418.038H519.137L519.987 412.443H487.352L488.202 418.038Z" fill="#DBDBDB"/>
<path d="M439.9 444.141L438.155 454.65L434.648 475.76H427.803V444.141H439.9Z" fill="#EBEBEB"/>
<path d="M439.9 444.141L438.155 454.65H427.803V444.141H439.9Z" fill="#DBDBDB"/>
<path d="M569.543 444.141L571.273 454.65L574.78 475.76H581.64V444.141H569.543Z" fill="#EBEBEB"/>
<path d="M569.543 444.141L571.273 454.65H581.64V444.141H569.543Z" fill="#DBDBDB"/>
<path d="M333.752 551.087C503.927 551.087 641.881 537.801 641.881 521.411C641.881 505.021 503.927 491.734 333.752 491.734C163.577 491.734 25.623 505.021 25.623 521.411C25.623 537.801 163.577 551.087 333.752 551.087Z" fill="#3F2471"/>
<path d="M9.64258 476.774L90.6668 476.465L171.691 476.35L333.755 476.131L495.818 476.35L576.842 476.452L657.867 476.774L576.842 477.083L495.818 477.199L333.755 477.417L171.691 477.199L90.6668 477.083L9.64258 476.774Z" fill="#263238"/>
<path d="M188.991 342.813C187.836 349.599 188.248 356.511 190.206 363.163C191.131 366.247 192.359 369.259 193.879 372.168C195.791 375.886 197.795 379.526 197.309 383.591C196.854 383.861 198.432 383.822 198.493 383.424C211.334 377.223 227.819 376.091 237.7 365.955C242.375 361.157 244.743 355.072 245.866 348.988C247.08 342.363 247.384 335.03 245.396 328.496C243.695 322.977 239.886 317.652 233.769 314.95C227.652 312.249 219.167 312.378 212.518 314.14C198.159 317.935 191.071 331.043 188.991 342.813Z" fill="#C8C8FF"/>
<path d="M182.404 423.417C184.144 418.46 185.91 413.512 187.701 408.572C191.222 398.899 194.896 389.277 198.948 379.732C201.377 374.037 203.942 368.386 206.644 362.777C206.348 359.25 205.841 355.738 205.126 352.255C204.064 348.036 202.5 343.958 201.043 339.829C200.952 339.571 201.438 339.443 201.559 339.687C204.443 345.373 208.207 352.654 208.314 359.394C211.44 353.065 214.805 346.822 218.408 340.665C218.814 335.46 218.621 330.234 217.831 325.061C217.831 324.83 218.225 324.752 218.271 325.061C219.367 329.587 219.791 334.211 219.531 338.825C222.293 334.207 225.192 329.64 228.289 325.151C228.577 324.739 229.23 325.151 228.987 325.563C224.16 333.435 219.683 341.475 215.478 349.631C221.394 345.284 228.229 341.927 235.62 339.739C235.939 339.648 236.182 340.034 235.863 340.15C227.795 343.089 220.413 347.227 214.066 352.371C211.031 358.374 208.157 364.377 205.445 370.38C213.474 363.704 224.479 359.317 235.119 356.963C235.484 356.873 235.575 357.349 235.226 357.439C222.916 360.578 213.353 366.443 203.988 373.596C202.895 376.048 201.827 378.505 200.785 380.967C196.808 390.293 193.059 399.696 189.446 409.125C187.716 413.653 186.016 418.181 184.346 422.709C182.555 427.597 181.144 432.756 178.806 437.464C178.578 437.914 177.637 437.811 177.759 437.271C179.023 432.588 180.573 427.963 182.404 423.417Z" fill="#263238"/>
<path d="M203.7 333.294C205.986 336.258 207.559 339.576 208.329 343.057C208.329 343.078 208.319 343.097 208.302 343.112C208.285 343.126 208.262 343.134 208.238 343.134C208.214 343.134 208.191 343.126 208.174 343.112C208.157 343.097 208.147 343.078 208.147 343.057C206.715 339.777 205.042 336.576 203.138 333.474C202.941 333.204 203.487 333.011 203.7 333.294Z" fill="#263238"/>
<path d="M226.624 355.972C230.192 354.29 234.09 353.17 238.129 352.666C238.236 352.666 238.296 352.782 238.129 352.82C236.277 353.476 234.319 353.927 232.452 354.544C230.585 355.162 228.734 355.83 226.821 356.461C226.757 356.456 226.696 356.435 226.645 356.401C226.594 356.368 226.556 356.322 226.536 356.271C226.515 356.219 226.512 356.163 226.528 356.11C226.543 356.057 226.577 356.009 226.624 355.972Z" fill="#263238"/>
<path d="M233.089 328.689C234.244 327.938 235.485 327.287 236.793 326.746C236.834 326.734 236.879 326.733 236.921 326.745C236.963 326.756 236.999 326.78 237.024 326.811C237.048 326.842 237.06 326.879 237.056 326.916C237.053 326.954 237.035 326.989 237.005 327.016C235.869 327.788 234.643 328.461 233.347 329.023C233.119 329.152 232.846 328.817 233.089 328.689Z" fill="#263238"/>
<path d="M145.689 379.796C154.932 382.124 164.237 384.272 173.496 386.575C174.285 386.781 189.935 361.375 184.288 348.292C181.591 342.362 177.37 337.015 171.929 332.641C166.489 328.266 159.967 324.974 152.838 323.002C146.235 321.099 138.099 319.504 131.132 320.816C124.924 321.973 120.507 326.283 118.519 331.222C115.771 337.95 116.697 345.964 118.185 352.82C119.377 359.266 122.514 365.341 127.292 370.457C132.21 375.409 138.479 377.982 145.689 379.796Z" fill="#C8C8FF"/>
<path d="M132.267 355.65C138.14 358.075 144.231 360.101 150.482 361.709C154.648 362.649 158.711 363.893 162.625 365.427C158.724 358.043 154.428 350.813 149.875 343.648C143.909 342.182 137.625 339.892 133.178 336.316C133.139 336.284 133.114 336.243 133.105 336.198C133.095 336.153 133.103 336.106 133.126 336.065C133.15 336.024 133.188 335.99 133.235 335.968C133.283 335.946 133.337 335.937 133.39 335.943C138.324 338.902 143.758 340.664 149.207 342.671C147.982 340.741 146.738 338.816 145.473 336.895C145.124 336.355 145.989 335.827 146.414 336.342C151.274 342.33 155.665 348.583 159.559 355.058C160.548 349.384 160.863 343.639 160.5 337.911C160.5 337.88 160.514 337.851 160.54 337.829C160.565 337.808 160.6 337.795 160.636 337.795C160.673 337.795 160.707 337.808 160.733 337.829C160.759 337.851 160.773 337.88 160.773 337.911C161.935 344.156 161.858 350.521 160.545 356.744C163.794 362.236 166.753 367.858 169.41 373.556C170.457 370.135 171.838 366.764 172.749 363.266C174.149 358.329 174.595 353.234 174.07 348.176C174.07 348.146 174.084 348.116 174.11 348.095C174.135 348.073 174.17 348.061 174.206 348.061C174.242 348.061 174.277 348.073 174.303 348.095C174.328 348.116 174.343 348.146 174.343 348.176C175.976 357.541 174.635 367.105 170.457 375.885C171.975 379.319 173.493 382.754 174.828 386.176C181.802 403.756 185.933 422.056 187.108 440.576C187.09 440.652 187.042 440.72 186.971 440.769C186.901 440.819 186.812 440.845 186.721 440.845C186.63 440.845 186.541 440.819 186.471 440.769C186.4 440.72 186.352 440.652 186.334 440.576C183.908 422.303 179.29 404.286 172.552 386.806C169.865 379.975 166.769 373.338 163.444 366.829C157.98 365.452 152.531 363.6 147.173 362.018C141.802 360.659 136.735 358.555 132.176 355.792C131.873 355.805 132.085 355.573 132.267 355.65Z" fill="#263238"/>
<path d="M123.647 348.28C129.309 349.978 134.667 352.37 140.344 354.094C140.617 354.184 140.465 354.532 140.192 354.493C134.211 353.438 128.277 351.92 123.495 348.55C123.252 348.421 123.45 348.215 123.647 348.28Z" fill="#263238"/>
<path d="M169.821 337.925C169.745 337.681 170.186 337.527 170.277 337.797C171.794 342.209 172.903 346.904 171.4 351.419C171.388 351.457 171.361 351.491 171.324 351.515C171.287 351.539 171.241 351.552 171.195 351.552C171.148 351.552 171.103 351.539 171.066 351.515C171.029 351.491 171.002 351.457 170.99 351.419C170.747 346.853 171.051 342.376 169.821 337.925Z" fill="#263238"/>
<path d="M146.462 327.724C148.272 329.916 149.14 332.568 148.921 335.236C148.921 335.404 148.602 335.506 148.542 335.301C147.859 332.728 146.705 330.464 145.794 328.02C145.761 327.946 145.761 327.865 145.794 327.791C145.827 327.718 145.891 327.657 145.973 327.621C146.056 327.584 146.151 327.574 146.241 327.594C146.331 327.613 146.41 327.659 146.462 327.724Z" fill="#263238"/>
<path d="M255.735 391C253.033 398.294 246.627 408.379 236.366 408.456C229.764 408.456 223.1 407.852 216.467 407.762C209.363 407.672 202.245 407.684 195.217 408.045C194.64 408.045 196.067 390.036 213.128 381.224C217.924 378.767 223.753 377.982 229.187 376.992C235.4 375.743 241.777 375.181 248.16 375.319C252.076 375.448 255.34 376.156 256.736 379.552C258.133 382.948 257.04 387.527 255.735 391Z" fill="#C8C8FF"/>
<path d="M248.387 381.867C244.243 382.767 240.053 383.809 235.894 384.928C236.978 383.926 238.129 382.977 239.34 382.085C241.116 380.799 243.089 379.821 245.002 378.715C245.169 378.625 245.078 378.368 244.865 378.432C240.831 379.853 237.346 382.201 234.802 385.211C229.61 386.639 224.48 388.208 219.532 389.919C216.11 391.108 212.832 392.573 209.741 394.293C210.738 392.468 211.921 390.72 213.278 389.07C215.555 386.588 218.621 385.211 221.581 383.436C221.641 383.407 221.686 383.359 221.704 383.302C221.723 383.246 221.714 383.185 221.68 383.134C221.645 383.083 221.589 383.045 221.522 383.029C221.455 383.014 221.383 383.021 221.323 383.05C218.219 384.19 215.43 385.867 213.135 387.974C210.84 390.08 209.089 392.57 207.996 395.284C204.444 397.441 201.2 399.941 198.327 402.732C187.019 413.601 178.124 428.073 178.094 442.828C178.094 443.175 178.762 443.278 178.838 442.918C181.745 428.45 189.184 414.909 200.376 403.709C201.196 402.912 202.015 402.14 202.865 401.407C205.96 401.053 209.078 400.859 212.2 400.828C215.828 400.828 219.441 401.278 223.053 401.522C229.018 401.934 235.606 401.998 240.979 399.451C241.222 399.336 241.055 398.988 240.797 399.078C228.806 402.77 216.238 398.088 204.232 400.287C209.359 396.137 215.37 392.85 221.945 390.601L223.038 390.228C230.734 391.013 238.854 392.711 246.337 390.588C246.378 390.574 246.411 390.548 246.431 390.514C246.45 390.481 246.455 390.443 246.444 390.407C246.433 390.371 246.407 390.339 246.37 390.318C246.334 390.297 246.29 390.288 246.246 390.292C239.006 391.823 232.069 389.894 224.996 389.585C232.783 387.012 240.706 384.98 248.508 382.433C249.085 382.253 249.1 381.712 248.387 381.867Z" fill="#263238"/>
<path d="M251.788 388.285C248.072 388.692 244.333 388.933 240.586 389.006C240.51 389.006 240.48 389.121 240.586 389.134C244.353 389.722 248.233 389.51 251.879 388.517C252.046 388.478 251.97 388.26 251.788 388.285Z" fill="#263238"/>
<path d="M226.499 382.021C224.434 382.817 222.557 383.924 220.959 385.288C220.761 385.443 221.035 385.739 221.247 385.597C222.188 385.018 223.144 384.478 224.131 383.938C225.057 383.5 225.954 383.019 226.818 382.497C226.87 382.453 226.905 382.396 226.915 382.334C226.925 382.272 226.911 382.209 226.875 382.155C226.838 382.101 226.782 382.058 226.714 382.034C226.646 382.01 226.57 382.005 226.499 382.021Z" fill="#263238"/>
<path d="M166.225 405.51C166.362 405.755 165.952 405.986 165.785 405.729C165.755 405.766 165.717 405.798 165.673 405.822C165.629 405.846 165.579 405.863 165.527 405.87C158.657 407.263 151.692 408.294 144.671 408.958C139.025 409.382 132.528 409.652 127.58 406.874C120.886 403.105 116.485 393.045 120.097 386.665C124.377 379.075 137.279 383.192 143.761 385.893C153.723 390.007 161.671 396.948 166.225 405.51Z" fill="#C8C8FF"/>
<path d="M171.237 409.022C167.478 405.937 163.3 403.242 158.79 400.995C155.55 396.635 151.243 392.915 146.161 390.086C145.919 389.945 145.706 390.266 145.934 390.421C149.965 393.159 153.539 396.348 156.559 399.901C151.549 397.56 146.344 395.53 140.985 393.83C139.063 390.814 136.147 388.337 132.592 386.703C132.592 386.703 132.425 386.703 132.5 386.793C135.435 388.685 137.997 390.96 140.09 393.534C136.918 392.53 133.715 391.604 130.512 390.704C130.224 390.614 130.117 390.987 130.391 391.077C136.083 392.968 141.926 394.936 147.573 397.264C140.679 398.19 133.657 398.19 126.763 397.264C126.726 397.257 126.687 397.262 126.654 397.278C126.621 397.294 126.597 397.32 126.585 397.351C126.574 397.382 126.576 397.415 126.592 397.444C126.608 397.473 126.637 397.496 126.672 397.509C133.864 399.314 141.503 399.412 148.757 397.792C152.358 399.274 155.856 400.931 159.23 402.757C156.393 402.565 153.537 402.765 150.776 403.349C145.894 404.311 140.897 404.791 135.885 404.777C135.703 404.777 135.658 405.034 135.885 405.06C144.522 406.346 152.688 402.989 161.234 403.863C164.41 405.694 167.391 407.755 170.144 410.025C175.478 414.546 179.871 419.8 183.137 425.564C186.734 431.777 188.692 438.351 191.607 444.77C191.616 444.799 191.631 444.827 191.653 444.852C191.675 444.876 191.702 444.896 191.733 444.912C191.764 444.928 191.798 444.938 191.834 444.942C191.869 444.946 191.906 444.945 191.94 444.937C191.975 444.929 192.008 444.916 192.037 444.898C192.066 444.879 192.09 444.856 192.108 444.83C192.127 444.804 192.139 444.775 192.144 444.745C192.149 444.714 192.147 444.684 192.138 444.654C189.557 431.996 182.12 418.039 171.237 409.022Z" fill="#263238"/>
<path d="M145.2 391.669C144.631 390.81 143.886 390.043 143 389.405C142.275 388.735 141.411 388.186 140.449 387.784C140.433 387.782 140.415 387.784 140.4 387.79C140.384 387.796 140.371 387.806 140.361 387.818C140.351 387.83 140.346 387.844 140.346 387.858C140.345 387.873 140.35 387.887 140.358 387.9C141.072 388.582 142.058 389.083 142.817 389.739C143.576 390.395 144.229 391.154 145.003 391.797C145.013 391.808 145.026 391.818 145.04 391.825C145.054 391.831 145.069 391.836 145.086 391.838C145.102 391.84 145.118 391.839 145.134 391.835C145.15 391.831 145.165 391.825 145.178 391.817C145.191 391.808 145.202 391.798 145.21 391.786C145.218 391.774 145.223 391.761 145.225 391.747C145.227 391.733 145.226 391.719 145.222 391.706C145.218 391.692 145.21 391.68 145.2 391.669Z" fill="#263238"/>
<path d="M130.968 395.592C129.693 395.322 128.342 395.347 127.037 395.116C125.745 394.859 124.473 394.537 123.227 394.151C123.189 394.137 123.146 394.137 123.107 394.15C123.069 394.164 123.038 394.189 123.022 394.222C123.006 394.254 123.006 394.291 123.021 394.323C123.037 394.356 123.067 394.382 123.106 394.395C125.457 395.625 128.219 396.167 130.968 395.939C131.013 395.929 131.053 395.906 131.081 395.875C131.109 395.843 131.124 395.805 131.124 395.765C131.124 395.726 131.109 395.688 131.081 395.656C131.053 395.625 131.013 395.602 130.968 395.592Z" fill="#263238"/>
<path d="M206.8 429.064L205.661 439.96L201.821 476.776H167.805L162.994 439.96L161.582 429.064H206.8Z" fill="#455A64"/>
<path d="M206.8 429.064L205.661 439.96H162.994L161.582 429.064H206.8Z" fill="#263238"/>
<path d="M210.168 426.08H158.211V434.93H210.168V426.08Z" fill="#455A64"/>
<path d="M224.919 506.67H214.734L286.075 264.434H311.438L224.919 506.67Z" fill="#455A64"/>
<path d="M286.076 264.447H311.44L291.677 319.774H269.789L286.076 264.447Z" fill="#263238"/>
<path d="M323.658 493.806H313.488L321.078 264.434H346.426L323.658 493.806Z" fill="#455A64"/>
<path d="M321.079 264.447H346.427L340.933 319.774H319.242L321.079 264.447Z" fill="#263238"/>
<path d="M422.848 506.67H433.033L376.871 264.434H351.508L422.848 506.67Z" fill="#455A64"/>
<path d="M389.698 319.774H367.795L351.508 264.447H376.872L389.698 319.774Z" fill="#263238"/>
<path d="M401.976 402.898H253.953V407.632H401.976V402.898Z" fill="#455A64"/>
<path d="M535.355 27.2793H132.131V279.433H535.355V27.2793Z" fill="#EBEBEB"/>
<path d="M550.138 17.2324H117.377V35.9233H550.138V17.2324Z" fill="#37474F"/>
<path d="M410.615 67.5938H256.885V70.4752H410.615V67.5938Z" fill="#C7C7C7"/>
<path d="M384.327 73.6133H283.176V76.4947H384.327V73.6133Z" fill="#C7C7C7"/>
<path d="M207.631 98.4931L340.217 98.1973C384.403 98.3002 415.686 98.1973 459.871 98.4931C415.686 98.7504 384.403 98.6861 340.217 98.8019L207.631 98.4931Z" fill="#C7C7C7"/>
<path d="M207.631 107.665L340.217 107.369C384.403 107.472 415.686 107.369 459.871 107.665C415.686 107.922 384.403 107.858 340.217 107.961L207.631 107.665Z" fill="#C7C7C7"/>
<path d="M207.631 116.823L340.217 116.527C384.403 116.63 415.686 116.527 459.871 116.823C415.686 117.08 384.403 117.016 340.217 117.119L207.631 116.823Z" fill="#C7C7C7"/>
<path d="M207.631 125.994L340.217 125.686C384.403 125.801 415.686 125.686 459.871 125.994C415.686 126.252 384.403 126.187 340.217 126.29L207.631 125.994Z" fill="#C7C7C7"/>
<path d="M207.631 135.153L340.217 134.857C384.403 134.96 415.686 134.857 459.871 135.153C415.686 135.411 384.403 135.346 340.217 135.449L207.631 135.153Z" fill="#C7C7C7"/>
<path d="M207.631 144.274L340.217 143.979C384.403 144.081 415.686 143.979 459.871 144.274C415.686 144.532 384.403 144.467 340.217 144.583L207.631 144.274Z" fill="#C7C7C7"/>
<path d="M207.631 153.485L340.217 153.189C384.403 153.292 415.686 153.189 459.871 153.485C415.686 153.743 384.403 153.678 340.217 153.781L207.631 153.485Z" fill="#C7C7C7"/>
<path d="M207.631 162.644L340.217 162.348C384.403 162.451 415.686 162.348 459.871 162.644C415.686 162.901 384.403 162.836 340.217 162.939L207.631 162.644Z" fill="#C7C7C7"/>
<path d="M207.631 171.815L340.217 171.506C384.403 171.622 415.686 171.506 459.871 171.815C415.686 172.072 384.403 171.995 340.217 172.11L207.631 171.815Z" fill="#C7C7C7"/>
<path d="M207.631 180.974L340.217 180.678C384.403 180.781 415.686 180.678 459.871 180.974C415.686 181.231 384.403 181.167 340.217 181.269L207.631 180.974Z" fill="#C7C7C7"/>
<path d="M207.631 190.134L340.217 189.838C384.403 189.941 415.686 189.838 459.871 190.134C415.686 190.391 384.403 190.327 340.217 190.43L207.631 190.134Z" fill="#C7C7C7"/>
<path d="M207.631 199.306L340.217 199.01C384.403 199.113 415.686 199.01 459.871 199.306C415.686 199.563 384.403 199.499 340.217 199.601L207.631 199.306Z" fill="#C7C7C7"/>
<path d="M207.631 208.464L340.217 208.168C384.403 208.271 415.686 208.168 459.871 208.464C415.686 208.721 384.403 208.657 340.217 208.76L207.631 208.464Z" fill="#C7C7C7"/>
<path d="M207.631 217.597L340.217 217.301C384.403 217.404 415.686 217.301 459.871 217.597C415.686 217.867 384.403 217.79 340.217 217.905L207.631 217.597Z" fill="#C7C7C7"/>
<path d="M207.631 226.794L340.217 226.498C384.403 226.601 415.686 226.498 459.871 226.794C415.686 227.051 384.403 226.987 340.217 227.09L207.631 226.794Z" fill="#C7C7C7"/>
<path d="M255.776 203.473H235.664V237.471H255.776V203.473Z" fill="#C8C8FF"/>
<path d="M293.086 177.758H272.975V237.484H293.086V177.758Z" fill="#C8C8FF"/>
<path d="M330.379 172.059H310.268V237.47H330.379V172.059Z" fill="#C8C8FF"/>
<path d="M367.69 155.184H347.578V237.473H367.69V155.184Z" fill="#C8C8FF"/>
<path d="M404.985 119.229H384.873V237.471H404.985V119.229Z" fill="#C8C8FF"/>
<path d="M442.295 104.641H422.184V237.471H442.295V104.641Z" fill="#C8C8FF"/>
<path d="M214.824 92.0605L215.371 128.413L215.75 164.766C216.008 189.001 216.084 213.236 216.13 237.472L214.824 236.365H279.319L343.814 236.494L408.308 236.854L459.916 237.51L408.308 238.166L343.814 238.539L279.319 238.668H214.824H213.504V237.562C213.504 213.326 213.625 189.091 213.883 164.856L214.263 128.503L214.824 92.0605Z" fill="#C7C7C7"/>
<path d="M255.776 245.164H235.664V246.708H255.776V245.164Z" fill="#C7C7C7"/>
<path d="M293.086 245.164H272.975V246.708H293.086V245.164Z" fill="#C7C7C7"/>
<path d="M330.379 245.164H310.268V246.708H330.379V245.164Z" fill="#C7C7C7"/>
<path d="M367.69 245.164H347.578V246.708H367.69V245.164Z" fill="#C7C7C7"/>
<path d="M404.985 245.164H384.873V246.708H404.985V245.164Z" fill="#C7C7C7"/>
<path d="M442.295 245.164H422.184V246.708H442.295V245.164Z" fill="#C7C7C7"/>
<path d="M235.786 202.715L235.543 201.428C236.636 201.274 346.348 184.95 433.155 101.092L434.294 101.941C347.092 186.172 236.894 202.56 235.786 202.715Z" fill="#263238"/>
<path d="M435.796 104.256L437.284 97.9785L430.119 100.024L435.796 104.256Z" fill="#263238"/>
<path d="M526.064 78.1035H476.156V128.22H526.064V78.1035Z" fill="white"/>
<path d="M502.902 81.5121C502.905 81.8159 502.801 82.1137 502.603 82.3674C502.406 82.6211 502.124 82.8193 501.794 82.9367C501.463 83.0542 501.098 83.0856 500.747 83.0269C500.395 82.9682 500.072 82.8222 499.818 82.6073C499.565 82.3925 499.392 82.1186 499.323 81.8204C499.254 81.5223 499.291 81.2134 499.429 80.9332C499.568 80.653 499.802 80.414 500.101 80.2468C500.401 80.0796 500.752 79.9917 501.11 79.9942C501.585 79.9942 502.041 80.1541 502.377 80.4388C502.713 80.7234 502.902 81.1095 502.902 81.5121Z" fill="#455A64"/>
<path d="M485.641 88.136C490.695 87.8145 495.734 87.7887 500.819 87.7373C505.904 87.6858 510.913 87.7373 515.998 88.136C510.959 88.4705 505.904 88.4962 500.819 88.5348C495.734 88.5734 490.695 88.4705 485.641 88.136Z" fill="#EBEBEB"/>
<path d="M485.641 92.1C491.112 91.5682 496.638 91.5682 502.11 92.1C496.638 92.6317 491.112 92.6317 485.641 92.1Z" fill="#EBEBEB"/>
<path d="M485.641 96.0619C489.147 95.7532 492.653 95.676 496.159 95.6632C499.666 95.6503 503.172 95.7532 506.678 96.0619C503.172 96.3707 499.666 96.4479 496.159 96.4607C492.653 96.4736 489.147 96.3707 485.641 96.0619Z" fill="#EBEBEB"/>
<path d="M485.641 100.023C490.027 99.7141 494.414 99.637 498.801 99.6241C503.187 99.6112 507.574 99.7141 511.961 100.023C507.574 100.332 503.187 100.409 498.801 100.422C494.414 100.435 490.088 100.332 485.641 100.023Z" fill="#EBEBEB"/>
<path d="M485.641 103.986C489.45 103.677 493.23 103.6 497.07 103.587C500.91 103.574 504.66 103.664 508.5 103.986C504.69 104.295 500.91 104.372 497.07 104.385C493.23 104.398 489.45 104.295 485.641 103.986Z" fill="#EBEBEB"/>
<path d="M485.641 107.948C490.528 107.613 495.401 107.587 500.273 107.549C505.145 107.51 510.033 107.549 514.905 107.948C510.033 108.269 505.145 108.295 500.273 108.333C495.401 108.372 490.528 108.256 485.641 107.948Z" fill="#EBEBEB"/>
<path d="M485.641 111.896C491.925 111.381 498.254 111.381 504.538 111.896C498.255 112.427 491.924 112.427 485.641 111.896Z" fill="#EBEBEB"/>
<path d="M485.641 115.859C490.695 115.537 495.734 115.512 500.819 115.46C505.904 115.409 510.913 115.537 515.998 115.859C510.959 116.193 505.904 116.219 500.819 116.258C495.734 116.296 490.695 116.193 485.641 115.859Z" fill="#EBEBEB"/>
<path d="M485.641 119.833C490.695 119.512 495.734 119.486 500.819 119.435C505.904 119.383 510.913 119.435 515.998 119.833C510.959 120.168 505.904 120.193 500.819 120.232C495.734 120.271 490.695 120.155 485.641 119.833Z" fill="#EBEBEB"/>
<path d="M203.729 134.691H144.684V193.993H203.729V134.691Z" fill="white"/>
<path d="M175.994 142.692C175.994 142.992 175.889 143.285 175.692 143.535C175.496 143.785 175.216 143.979 174.889 144.094C174.561 144.209 174.201 144.239 173.854 144.18C173.506 144.122 173.187 143.977 172.937 143.765C172.686 143.553 172.516 143.282 172.447 142.988C172.377 142.693 172.413 142.388 172.548 142.111C172.684 141.834 172.914 141.596 173.208 141.43C173.503 141.263 173.849 141.174 174.203 141.174C174.438 141.174 174.671 141.213 174.889 141.289C175.106 141.366 175.303 141.477 175.47 141.618C175.636 141.759 175.768 141.927 175.858 142.111C175.948 142.295 175.994 142.492 175.994 142.692Z" fill="#455A64"/>
<path d="M152.941 149.485C157.285 148.953 161.697 148.953 166.041 149.485C161.697 150.016 157.285 150.016 152.941 149.485Z" fill="#EBEBEB"/>
<path d="M152.941 153.948C158.582 153.434 164.271 153.434 169.911 153.948C164.272 154.48 158.581 154.48 152.941 153.948Z" fill="#EBEBEB"/>
<path d="M152.941 158.424C158.159 157.892 163.434 157.892 168.651 158.424C163.434 158.956 158.159 158.956 152.941 158.424Z" fill="#EBEBEB"/>
<path d="M152.941 162.901C155.549 162.621 158.176 162.488 160.804 162.502C163.428 162.481 166.05 162.614 168.651 162.901C163.434 163.433 158.159 163.433 152.941 162.901Z" fill="#EBEBEB"/>
<path d="M152.941 167.428C157.473 166.896 162.07 166.896 166.602 167.428C162.07 167.96 157.473 167.96 152.941 167.428Z" fill="#EBEBEB"/>
<path d="M152.941 171.84C158.748 171.308 164.605 171.308 170.412 171.84C167.515 172.121 164.6 172.254 161.684 172.239C158.763 172.247 155.844 172.114 152.941 171.84Z" fill="#EBEBEB"/>
<path d="M152.941 176.304C155.331 176.031 157.74 175.898 160.151 175.905C162.563 175.89 164.972 176.024 167.361 176.304C164.973 176.591 162.563 176.724 160.151 176.703C157.74 176.717 155.33 176.584 152.941 176.304Z" fill="#EBEBEB"/>
<path d="M152.941 180.782C158.951 180.25 165.01 180.25 171.019 180.782C165.01 181.313 158.951 181.313 152.941 180.782Z" fill="#EBEBEB"/>
<path d="M152.941 185.245C158.952 184.731 165.009 184.731 171.019 185.245C165.01 185.777 158.951 185.777 152.941 185.245Z" fill="#EBEBEB"/>
<path d="M178.744 149.485C184.449 148.953 190.206 148.953 195.911 149.485C190.206 150.016 184.449 150.016 178.744 149.485Z" fill="#EBEBEB"/>
<path d="M178.744 153.948C182.484 153.434 186.297 153.434 190.037 153.948C186.299 154.48 182.482 154.48 178.744 153.948Z" fill="#EBEBEB"/>
<path d="M178.744 158.424C184.109 157.892 189.529 157.892 194.894 158.424C189.529 158.956 184.109 158.956 178.744 158.424Z" fill="#EBEBEB"/>
<path d="M178.744 162.901C181.352 162.621 183.978 162.488 186.607 162.502C189.23 162.481 191.852 162.614 194.454 162.901C189.236 163.433 183.962 163.433 178.744 162.901Z" fill="#EBEBEB"/>
<path d="M178.744 167.428C184.449 166.896 190.206 166.896 195.911 167.428C190.206 167.96 184.449 167.96 178.744 167.428Z" fill="#EBEBEB"/>
<path d="M178.744 171.84C183.276 171.308 187.873 171.308 192.405 171.84C190.143 172.12 187.86 172.253 185.575 172.239C183.289 172.247 181.006 172.114 178.744 171.84Z" fill="#EBEBEB"/>
<path d="M178.744 176.304C181.424 176.031 184.12 175.898 186.819 175.905C189.518 175.89 192.216 176.024 194.894 176.304C192.216 176.591 189.518 176.724 186.819 176.703C184.12 176.717 181.423 176.584 178.744 176.304Z" fill="#EBEBEB"/>
<path d="M178.744 180.782C182.885 180.25 187.096 180.25 191.236 180.782C187.096 181.313 182.885 181.313 178.744 180.782Z" fill="#EBEBEB"/>
<path d="M178.744 185.245C182.718 184.731 186.761 184.731 190.735 185.245C186.763 185.777 182.717 185.777 178.744 185.245Z" fill="#EBEBEB"/>
<path d="M485.645 55.9141H455.621V81.3584H485.645V55.9141Z" fill="#C8C8FF"/>
<path d="M472.42 58.4984C472.42 58.7986 472.315 59.0921 472.118 59.3417C471.921 59.5913 471.642 59.7859 471.314 59.9008C470.987 60.0156 470.627 60.0457 470.28 59.9871C469.932 59.9286 469.613 59.784 469.362 59.5717C469.112 59.3594 468.941 59.089 468.872 58.7945C468.803 58.5001 468.839 58.1949 468.974 57.9175C469.11 57.6401 469.339 57.4031 469.634 57.2363C469.928 57.0695 470.275 56.9805 470.629 56.9805C471.104 56.9805 471.56 57.1404 471.895 57.4251C472.231 57.7097 472.42 58.0958 472.42 58.4984Z" fill="#455A64"/>
<path d="M485.087 518.852C488.123 519.675 573.61 518.736 576.843 516.948C578.087 516.279 578.649 505.718 578.892 492.932V492.52C578.892 489.948 578.998 487.182 578.998 484.429C578.998 484.043 578.998 483.67 578.998 483.297C579.12 464.838 578.786 445.684 578.786 445.684L521.562 446.172L523.292 483.477V484.956L523.641 492.675V493.472C523.641 493.472 491.098 506.233 487.789 508.523C484.48 510.812 482.082 518.042 485.087 518.852Z" fill="#EB9481"/>
<path d="M510.787 498.36C511.015 498.36 511.121 498.245 511.136 498.193L510.787 498.36Z" fill="#C8C8FF"/>
<path d="M485.091 518.852C488.127 519.675 573.613 518.736 576.846 516.948C577.954 516.357 578.516 507.944 578.804 497.1C563.14 499.865 502.395 510.285 500.74 505.873C500.087 504.149 505.294 501.152 508.557 499.441C499.587 503.068 489.644 507.223 487.899 508.445C484.62 510.735 482.085 518.042 485.091 518.852Z" fill="#455A64"/>
<path d="M538.807 518.736C558.053 518.35 575.418 517.733 576.845 516.948C577.953 516.357 578.514 507.944 578.803 497.1C576.587 497.486 573.445 498.039 569.695 498.669L538.807 518.736Z" fill="#263238"/>
<path d="M596.35 236.893C596.35 236.893 583.509 359.368 581.414 368.72C580.929 370.855 580.625 382.432 580.428 397.303C579.988 429.771 580.261 488.326 580.261 488.326H519.971C519.971 488.326 521.747 386.87 524.418 368.205C527.09 349.54 544.15 236.893 544.15 236.893H596.35Z" fill="#37474F"/>
<path d="M522.685 479.426C532.096 479.258 529.394 479.194 538.805 479.117C543.359 479.117 573.716 478.86 577.966 479.464C578.058 479.464 578.058 479.619 577.966 479.631C573.656 480.236 543.404 480.004 538.805 479.966C529.394 479.889 532.096 479.824 522.685 479.657C522.667 479.657 522.65 479.654 522.633 479.648C522.617 479.643 522.602 479.634 522.589 479.623C522.576 479.612 522.566 479.6 522.559 479.586C522.552 479.572 522.549 479.557 522.549 479.541C522.549 479.526 522.552 479.511 522.559 479.497C522.566 479.483 522.576 479.47 522.589 479.46C522.602 479.449 522.617 479.44 522.633 479.434C522.65 479.429 522.667 479.426 522.685 479.426Z" fill="#263238"/>
<path d="M568.797 421.436C568.858 414.018 568.924 406.604 568.994 399.195C568.994 392.017 568.994 384.839 569.45 377.661C570.254 363.151 573.73 348.872 576.204 334.516C578.678 320.16 580.758 305.74 582.61 291.307C584.704 275.124 586.556 258.903 588.514 242.708C588.514 242.605 588.742 242.605 588.727 242.708C585.888 271.638 582.655 300.595 577.995 329.306C576.811 336.459 575.526 343.598 574.14 350.724C572.728 357.928 571.332 365.145 570.664 372.438C569.996 379.732 569.89 386.73 569.814 393.895L569.541 416.11C569.359 432.563 569.176 457.879 568.979 474.331C568.979 474.396 568.949 474.458 568.895 474.504C568.841 474.55 568.767 474.576 568.691 474.576C568.614 474.576 568.541 474.55 568.487 474.504C568.433 474.458 568.402 474.396 568.402 474.331C568.539 459.641 568.66 436.101 568.797 421.436Z" fill="#263238"/>
<path d="M609.056 236.893C609.056 236.893 583.51 359.368 581.415 368.72C580.93 370.855 580.626 382.432 580.429 397.303L551.695 236.893H609.056Z" fill="#263238"/>
<path d="M555.095 523.174C558.131 523.818 643.39 517.746 646.471 515.765C647.64 515.032 647.321 504.458 646.471 491.684V491.285C646.32 488.648 646.122 485.934 645.91 483.194L645.819 482.062C644.407 463.641 642.464 444.564 642.464 444.564L585.422 448.488L590.265 485.535L590.447 487.002L591.433 494.72L591.54 495.505C591.54 495.505 560.135 510.195 557.023 512.678C553.911 515.16 552.044 522.544 555.095 523.174Z" fill="#EB9481"/>
<path d="M555.107 523.175C558.143 523.818 643.387 517.747 646.468 515.766C647.47 515.135 647.394 507.327 646.832 497.113C633.627 499.969 569.997 513.527 568.054 509.076C567.645 508.125 568.996 506.735 570.832 505.372C566.072 507.57 561.46 509.992 557.02 512.627C553.953 515.11 552.041 522.545 555.107 523.175Z" fill="#455A64"/>
<path d="M588.97 491.093L649.214 488.932C649.214 488.932 632.76 376.915 632.518 370.033C632.077 359.742 626.279 317.549 621.422 283.345C621.422 283.345 630.635 264.821 613.377 236.855H544.162C544.162 236.855 548.792 263.47 556.745 280.348C562.053 281.936 567.179 283.929 572.061 286.303C572.061 286.303 578.952 362.559 579.21 372.078C579.726 390.885 588.97 491.093 588.97 491.093Z" fill="#37474F"/>
<path d="M590.58 481.74C599.976 481.238 597.259 481.264 606.654 480.853C611.208 480.647 641.475 479.335 645.8 479.785C645.82 479.792 645.837 479.803 645.849 479.818C645.861 479.833 645.867 479.85 645.867 479.868C645.867 479.886 645.861 479.904 645.849 479.919C645.837 479.934 645.82 479.945 645.8 479.952C641.535 480.711 611.284 481.573 606.685 481.702C597.289 481.959 599.976 481.792 590.58 481.972C590.413 481.972 590.398 481.74 590.58 481.74Z" fill="#263238"/>
<path d="M554.058 279.19C560.287 281.121 566.31 283.501 572.06 286.303C572.098 286.328 572.126 286.362 572.139 286.402C572.151 286.441 572.147 286.483 572.128 286.521C572.108 286.558 572.074 286.589 572.032 286.608C571.989 286.627 571.94 286.633 571.893 286.625C565.821 284.412 559.643 282.29 553.678 279.807C553.63 279.786 553.588 279.757 553.553 279.722C553.518 279.687 553.492 279.647 553.476 279.603C553.46 279.559 553.454 279.514 553.459 279.468C553.463 279.423 553.479 279.378 553.503 279.338C553.528 279.297 553.562 279.261 553.604 279.232C553.645 279.202 553.693 279.18 553.744 279.166C553.796 279.153 553.85 279.148 553.904 279.152C553.957 279.156 554.01 279.169 554.058 279.19Z" fill="#263238"/>
<path d="M552.117 243.904C552.117 243.724 552.512 243.685 552.512 243.904C552.506 249.643 552.846 255.379 553.529 261.09C553.802 263.74 556.322 278.378 561.741 277.311C562.651 277.131 563.107 276.372 563.259 275.214C563.233 273.698 562.988 272.19 562.53 270.725C561.938 267.663 561.452 264.589 561.133 261.488C560.503 255.721 560.58 249.915 561.361 244.161C561.372 244.129 561.395 244.101 561.427 244.081C561.458 244.062 561.496 244.051 561.536 244.051C561.575 244.051 561.613 244.062 561.645 244.081C561.676 244.101 561.699 244.129 561.71 244.161C561.555 252.152 562.108 260.141 563.365 268.062C564.033 271.921 566.309 277.607 561.604 278.198C556.899 278.79 553.726 269.194 553.134 266.557C551.643 259.075 551.301 251.46 552.117 243.904Z" fill="#263238"/>
<path d="M561.604 277.671C562.084 278.66 562.489 279.674 562.819 280.707C563.164 281.506 563.334 282.351 563.32 283.202C563.32 283.369 563.047 283.382 562.955 283.279C562.392 282.528 561.967 281.708 561.696 280.848C561.271 279.909 560.846 278.97 560.466 278.031C560.41 277.903 560.416 277.761 560.483 277.637C560.549 277.513 560.672 277.416 560.823 277.368C560.974 277.321 561.141 277.326 561.288 277.382C561.434 277.439 561.548 277.543 561.604 277.671Z" fill="#263238"/>
<path d="M526.072 182.261C526.051 182.394 526.087 182.53 526.173 182.643C526.259 182.756 526.391 182.839 526.543 182.878L529.123 183.071C531.704 177.655 534.421 173.359 533.677 175.044C532.561 177.692 531.882 180.458 531.658 183.264L536.758 183.598C539.232 174.002 542.162 166.876 541.889 169.114C540.811 177.99 541.251 180.859 541.782 183.92C554.077 184.679 570.212 185.515 581.9 185.901C583.509 180.601 584.936 174.864 585.163 175.276C586.465 178.752 586.98 182.405 586.681 186.043C590.4 186.133 593.39 186.145 595.196 186.043C595.196 186.043 596.289 181.579 596.487 180.112C596.995 176.356 596.738 172.553 595.728 168.87C594.513 165.24 592.87 161.724 590.825 158.373C590.831 158.347 590.831 158.321 590.825 158.296C589.586 156.056 588.654 153.704 588.047 151.285C587.638 149.521 587.399 147.731 587.334 145.934C587.121 139.347 583.311 133.584 576.572 131.706C564.247 120.476 551.117 124.837 546.822 133.186C546.412 133.996 546.002 134.935 545.592 135.951C544.074 139.72 542.678 144.622 541.403 148.416C540.927 149.899 540.345 151.355 539.657 152.777C535.969 159.711 528.349 163.403 526.072 182.261Z" fill="#263238"/>
<path d="M579.394 133.547C581.561 134.551 583.384 136.013 584.685 137.792C585.986 139.571 586.72 141.605 586.817 143.696C586.89 146.47 587.359 149.226 588.213 151.903C589.392 154.517 591.008 156.973 593.01 159.197C596.143 162.624 597.989 166.769 598.307 171.096C598.692 176.126 597.924 181.171 596.045 185.954C597.657 180.903 598.116 175.637 597.396 170.44C596.668 165.217 593.571 161.873 590.445 157.847C587.913 154.658 586.406 150.964 586.073 147.131C586.101 144.737 585.764 142.351 585.071 140.03C583.828 137.575 581.752 135.488 579.106 134.036C578.727 133.817 579.06 133.38 579.394 133.547Z" fill="#263238"/>
<path d="M531.701 160.058C535.04 156.392 538.471 153.292 540.55 148.7C542.432 144.519 543.586 140.094 545.529 135.913C545.529 135.849 545.68 135.913 545.65 135.913C542.614 143.336 541.764 150.861 536.133 157.036C533.097 160.393 530.062 163.467 527.936 167.558C525.786 171.824 524.547 176.38 524.278 181.013C524.278 181.168 524.036 181.155 524.02 181.013C523.603 173.481 526.321 166.064 531.701 160.058Z" fill="#263238"/>
<path d="M566.248 187.239C553.285 212.709 534.069 238.693 523.944 243.003C516.841 246.051 502.785 245.858 498.14 238.899C488.107 223.72 484.586 199.395 487.045 186.814C487.925 182.338 515.884 180.485 518.04 184.987C523.034 195.523 524.643 206.444 526.221 206.444C527.572 206.444 534.903 197.941 551.403 183.071C568.646 167.557 570.786 178.324 566.248 187.239Z" fill="#EB9481"/>
<path d="M486.725 190.842C486.725 190.842 487.21 177.579 492.796 168.742C496.652 162.632 506.776 150.141 531.138 149.254C536.921 149.048 545.33 152.225 536.04 155.467C529.438 157.782 524.429 157.551 520.862 159.48C520.862 159.48 531.001 164.626 531.016 169.514C531.028 173.817 530.683 178.116 529.984 182.378C529.034 182.427 528.081 182.427 527.13 182.378C527.13 182.378 526.979 186.983 520.922 191.755L486.725 190.842Z" fill="#EB9481"/>
<path d="M497.549 163.416C501.556 162.129 510.086 159.556 517.949 159.441C526.692 159.351 543.54 161.19 543.54 166.657C543.54 170.658 537.044 170.439 537.044 170.439C537.044 170.439 543.814 172.446 542.888 176.061C542.038 179.366 537.014 178.942 537.014 178.942C537.014 178.942 540.884 180.756 539.336 183.792C537.499 187.458 529.697 183.058 524.036 185.387C522.776 185.914 497.549 163.416 497.549 163.416Z" fill="#EB9481"/>
<path d="M516.519 167.274C523.535 166.499 530.663 167.559 536.95 170.31C537.102 170.387 537.117 170.516 536.95 170.477C530.309 168.734 523.444 167.68 516.504 167.338C516.504 167.338 516.474 167.287 516.519 167.274Z" fill="#263238"/>
<path d="M516.871 174.748C523.908 174.532 530.884 175.932 537.059 178.8C537.211 178.878 537.211 179.019 537.059 178.98C530.539 176.943 523.766 175.545 516.871 174.813V174.748Z" fill="#263238"/>
<path d="M534.524 237.28L525.766 203.731C534.604 195.445 543.978 187.582 553.846 180.178C568.084 169.745 574.869 170.864 566.338 189.44C557.808 208.015 545.24 229.523 534.524 237.28Z" fill="#C8C8FF"/>
<path d="M534.524 237.28L525.766 203.731C534.604 195.445 543.978 187.582 553.846 180.178C568.084 169.745 574.869 170.864 566.338 189.44C557.808 208.015 545.24 229.523 534.524 237.28Z" fill="#C8C8FF"/>
<path d="M530.715 203.01C532.233 207.59 533.548 212.203 534.661 216.851C535.228 219.193 535.759 221.542 536.255 223.901C536.756 226.293 537.06 228.712 537.485 231.117C537.485 231.246 537.302 231.259 537.272 231.117C536.255 226.409 535.026 221.727 533.902 217.044C532.779 212.362 531.641 207.692 530.533 203.023C530.502 202.959 530.684 202.92 530.715 203.01Z" fill="#263238"/>
<path d="M563.378 195.627C563.074 196.232 562.771 196.824 562.498 197.428C562.49 197.295 562.49 197.162 562.498 197.029C562.633 196.233 562.888 195.455 563.257 194.714C563.334 195.014 563.375 195.32 563.378 195.627ZM538.986 194.958C538.849 195.747 538.849 196.549 538.986 197.338C539.714 195.86 539.981 194.247 539.76 192.656C539.37 193.387 539.109 194.163 538.986 194.958ZM546.955 218.975C546.818 219.768 546.818 220.574 546.955 221.367C547.346 220.638 547.602 219.861 547.714 219.065C547.85 218.272 547.85 217.466 547.714 216.672C547.331 217.405 547.075 218.18 546.955 218.975ZM537.544 208.581C536.608 208.465 535.657 208.465 534.72 208.581C535.582 208.912 536.498 209.129 537.437 209.224C538.374 209.34 539.325 209.34 540.261 209.224C539.396 208.904 538.481 208.692 537.544 208.594V208.581ZM566.49 177.181C565.554 177.065 564.602 177.065 563.666 177.181C564.528 177.512 565.444 177.729 566.383 177.824C567.32 177.94 568.271 177.94 569.207 177.824C568.342 177.499 567.427 177.283 566.49 177.181ZM556.198 208.877C556.198 208.877 556.198 208.98 556.198 209.018C556.212 208.972 556.212 208.923 556.198 208.877ZM533.719 222.95C534.273 223.596 534.938 224.168 535.692 224.648C535.345 223.905 534.875 223.207 534.295 222.577C533.741 221.927 533.076 221.35 532.322 220.866C532.673 221.611 533.142 222.313 533.719 222.95ZM549.414 202.059C550.177 201.586 550.857 201.023 551.432 200.387C549.678 200.989 548.14 201.969 546.97 203.23C547.846 202.94 548.669 202.546 549.414 202.059ZM553.709 187.587C554.268 188.234 554.932 188.81 555.682 189.298C555.341 188.556 554.875 187.858 554.301 187.227C553.737 186.58 553.068 186.004 552.313 185.516C552.66 186.259 553.13 186.957 553.709 187.587Z" fill="white"/>
<path d="M566.307 189.44C557.777 208.002 545.239 229.523 534.523 237.28L530.91 223.464L569.373 174.582C570.83 176.576 570.026 181.348 566.307 189.44Z" fill="#263238"/>
<path d="M541.705 245.447C541.705 245.447 569.027 250.94 620.908 247.145C620.908 247.145 600.629 192.32 584.312 177.54C576.874 170.812 569.619 171.841 563.471 176.164C561.954 177.244 542.889 197.723 541.28 204.85C539.853 211.153 545.91 218.163 545.91 218.163L541.705 245.447Z" fill="#C8C8FF"/>
<path d="M563.29 194.714C563.426 195.507 563.426 196.313 563.29 197.107C563.178 197.903 562.922 198.679 562.531 199.409C562.394 198.616 562.394 197.81 562.531 197.017C562.653 196.222 562.909 195.447 563.29 194.714ZM561.301 236.354C561.164 237.147 561.164 237.953 561.301 238.746C561.692 238.016 561.948 237.24 562.06 236.444C562.197 235.655 562.197 234.853 562.06 234.064C561.678 234.792 561.422 235.563 561.301 236.354ZM547.868 243.454C547.731 244.248 547.731 245.054 547.868 245.847C548.611 244.372 548.883 242.757 548.657 241.165C548.271 241.894 548.006 242.664 547.868 243.454ZM591.386 210.974C591.249 211.767 591.249 212.573 591.386 213.366C591.763 212.632 592.018 211.857 592.144 211.064C592.274 210.27 592.274 209.465 592.144 208.671C591.772 209.407 591.517 210.181 591.386 210.974ZM546.957 218.975C546.82 219.768 546.82 220.574 546.957 221.367C547.348 220.638 547.604 219.861 547.716 219.065C547.853 218.272 547.853 217.466 547.716 216.672C547.333 217.405 547.078 218.18 546.957 218.975ZM577.042 201.557C576.111 201.441 575.165 201.441 574.233 201.557C575.973 202.189 577.88 202.42 579.759 202.226C578.894 201.898 577.979 201.672 577.042 201.557ZM593.177 224.776C592.24 224.66 591.289 224.66 590.353 224.776C591.215 225.108 592.131 225.325 593.07 225.42C594.006 225.535 594.957 225.535 595.894 225.42C595.029 225.095 594.114 224.878 593.177 224.776ZM566.31 222.86C565.374 222.744 564.423 222.744 563.487 222.86C564.353 223.179 565.268 223.396 566.204 223.503C567.141 223.612 568.091 223.612 569.027 223.503C568.161 223.183 567.247 222.967 566.31 222.86ZM615.049 244.188C614.113 244.072 613.162 244.072 612.226 244.188C613.092 244.507 614.007 244.724 614.943 244.831C615.88 244.94 616.83 244.94 617.766 244.831C616.899 244.513 615.985 244.296 615.049 244.188ZM566.477 177.181C565.541 177.065 564.59 177.065 563.654 177.181C564.515 177.512 565.432 177.729 566.371 177.824C567.307 177.94 568.258 177.94 569.194 177.824C568.335 177.501 567.425 177.284 566.492 177.181H566.477ZM579.652 184.153C580.215 184.797 580.879 185.373 581.626 185.864C581.287 185.116 580.822 184.414 580.244 183.78C579.686 183.133 579.021 182.557 578.271 182.069C578.616 182.814 579.081 183.515 579.652 184.153ZM604.09 213.739C604.645 214.385 605.31 214.958 606.063 215.437C605.716 214.694 605.246 213.997 604.667 213.366C604.113 212.716 603.448 212.14 602.694 211.655C603.063 212.404 603.553 213.105 604.151 213.739H604.09ZM557.522 210.974C558.084 211.618 558.748 212.193 559.495 212.684C559.154 211.935 558.683 211.233 558.098 210.601C557.546 209.954 556.886 209.378 556.14 208.89C556.502 209.635 556.988 210.332 557.582 210.961L557.522 210.974ZM580.867 233.035C581.416 233.68 582.076 234.253 582.825 234.733C582.489 233.988 582.023 233.29 581.443 232.662C580.885 232.015 580.221 231.439 579.47 230.951C579.82 231.697 580.29 232.398 580.867 233.035ZM553.332 187.111C553.469 187.266 553.59 187.42 553.727 187.562C554.275 188.215 554.935 188.796 555.685 189.285C555.344 188.536 554.873 187.834 554.289 187.202L553.742 186.623L553.332 187.111ZM549.416 202.046C550.18 201.573 550.859 201.01 551.435 200.374C549.681 200.977 548.143 201.956 546.972 203.217C547.848 202.931 548.671 202.541 549.416 202.059V202.046ZM608.613 229.562C609.377 229.089 610.057 228.525 610.632 227.889C608.874 228.498 607.331 229.482 606.154 230.745C607.051 230.458 607.894 230.064 608.659 229.574L608.613 229.562ZM548.081 230.423C548.851 229.962 549.532 229.402 550.099 228.764C548.345 229.367 546.807 230.347 545.637 231.607C546.53 231.333 547.369 230.947 548.126 230.462L548.081 230.423ZM589.883 196.155C590.65 195.685 591.33 195.121 591.902 194.482C591.022 194.772 590.198 195.17 589.458 195.666C588.695 196.134 588.015 196.693 587.439 197.325C588.33 197.043 589.169 196.653 589.928 196.168L589.883 196.155ZM572.7 245.294C573.467 244.824 574.148 244.261 574.719 243.622C572.961 244.23 571.418 245.214 570.241 246.477C571.138 246.191 571.982 245.796 572.746 245.307L572.7 245.294ZM577.816 215.077C578.578 214.612 579.253 214.052 579.819 213.418C578.075 214.041 576.553 215.038 575.402 216.312C576.288 216.008 577.116 215.597 577.861 215.09L577.816 215.077ZM597.244 239.351C598.011 238.881 598.692 238.318 599.263 237.679C597.509 238.281 595.971 239.261 594.801 240.521C595.692 240.239 596.53 239.849 597.29 239.364L597.244 239.351Z" fill="white"/>
<path d="M551.19 189.76C549.527 191.681 547.982 193.673 546.561 195.729C547.153 194.584 547.699 193.426 548.185 192.23C548.185 192.23 548.185 192.153 548.079 192.23C547.578 193.066 547.077 193.902 546.652 194.803C546.227 195.703 545.923 196.372 545.574 197.17C543.752 199.504 542.307 202.035 541.279 204.695C540.595 207.129 540.658 209.671 541.461 212.079C541.877 213.318 542.447 214.517 543.161 215.655C543.724 216.685 544.471 217.636 545.377 218.472C544.861 221.045 544.512 223.617 544.117 226.113C543.64 228.591 543.336 231.091 543.206 233.6C543.217 233.628 543.238 233.654 543.267 233.672C543.296 233.689 543.33 233.699 543.366 233.699C543.401 233.699 543.436 233.689 543.465 233.672C543.493 233.654 543.515 233.628 543.525 233.6C543.525 233.432 543.647 233.252 543.723 233.072C543.798 232.892 543.723 233.008 543.723 232.982C544.36 230.693 544.633 228.287 545.013 225.972C545.392 223.656 546.121 218.498 546.121 218.472C546.121 218.446 544.77 216.362 544.223 215.398C543.59 214.225 543.082 213.007 542.706 211.757C541.879 209.396 541.817 206.891 542.523 204.502C543.527 201.951 544.877 199.508 546.546 197.221C548.155 194.777 549.824 192.346 551.479 189.928C551.449 189.786 551.266 189.67 551.19 189.76Z" fill="#263238"/>
<path d="M577.573 175.778C577.27 176.961 570.713 184.705 564.322 184.512C562.243 184.448 562.167 174.813 562.167 174.813L561.97 174.106L559.207 164.162L572.868 156.534L574.856 155.518C574.856 155.518 575.388 158.27 576.025 161.718L576.116 162.207C576.116 162.4 576.207 162.58 576.238 162.773C576.344 163.287 576.435 163.802 576.526 164.329C576.617 164.857 576.663 165.114 576.723 165.538C576.784 165.963 576.845 166.375 576.921 166.825C577.376 169.793 577.594 172.784 577.573 175.778Z" fill="#EB9481"/>
<path d="M576.071 161.718C574.923 164.527 573.067 167.09 570.631 169.229C568.196 171.368 565.24 173.032 561.97 174.106L559.207 164.162L572.868 156.534L574.856 155.518C574.856 155.518 575.433 158.27 576.071 161.718Z" fill="#263238"/>
<path d="M541.794 145.767C535.722 162.94 547.228 167.944 551.599 169.038C555.561 170.028 569.222 173 577.312 156.444C585.402 139.888 577.889 132.093 568.949 129.43C560.008 126.768 547.774 128.594 541.794 145.767Z" fill="#EB9481"/>
<path d="M545.701 143.528C546.186 143.592 546.657 143.528 547.219 143.605C547.733 143.69 548.265 143.631 548.736 143.438C548.87 143.352 548.967 143.231 549.011 143.094C549.055 142.956 549.044 142.81 548.979 142.679C548.807 142.44 548.564 142.243 548.273 142.11C547.982 141.977 547.655 141.911 547.325 141.92C546.651 141.84 545.966 141.983 545.412 142.319C545.29 142.396 545.196 142.501 545.141 142.622C545.087 142.743 545.074 142.874 545.104 143.001C545.134 143.128 545.206 143.245 545.312 143.338C545.418 143.431 545.552 143.497 545.701 143.528Z" fill="#263238"/>
<path d="M559.69 146.732C559.243 146.564 558.807 146.375 558.384 146.166C557.896 146.018 557.48 145.738 557.2 145.368C557.135 145.239 557.123 145.094 557.167 144.959C557.211 144.823 557.309 144.704 557.443 144.622C557.729 144.481 558.054 144.406 558.384 144.406C558.715 144.406 559.04 144.481 559.326 144.622C559.954 144.854 560.457 145.276 560.737 145.805C560.811 145.931 560.837 146.073 560.812 146.212C560.787 146.35 560.712 146.479 560.597 146.58C560.483 146.682 560.334 146.751 560.172 146.778C560.009 146.805 559.841 146.789 559.69 146.732Z" fill="#263238"/>
<path d="M555.09 150.217C555.09 150.217 555.181 150.307 555.09 150.358C554.635 151.503 554.346 152.931 555.454 153.6C555.454 153.6 555.454 153.69 555.454 153.664C554.027 153.098 554.437 151.259 555.09 150.217Z" fill="#263238"/>
<path d="M556.748 149.317C559.025 149.728 557.872 153.549 555.762 153.176C553.652 152.803 554.851 148.957 556.748 149.317Z" fill="#263238"/>
<path d="M557.567 149.704C557.901 150.013 558.174 150.476 558.629 150.617C559.084 150.759 559.707 150.476 560.147 150.167C559.934 150.9 559.388 151.582 558.432 151.454C557.475 151.325 557.142 150.592 557.157 149.807C557.248 149.756 557.445 149.588 557.567 149.704Z" fill="#263238"/>
<path d="M547.408 148.289C547.408 148.289 547.287 148.289 547.271 148.366C546.968 149.563 546.391 150.939 545.01 151.016C546.604 151.222 547.347 149.421 547.408 148.289Z" fill="#263238"/>
<path d="M546.529 146.847C544.329 146.23 543.023 150.012 545.012 150.591C547 151.169 548.381 147.31 546.529 146.847Z" fill="#263238"/>
<path d="M545.515 146.848C545.09 146.963 544.619 147.234 544.194 147.156C543.769 147.079 543.481 146.565 543.298 146.102C543.298 146.102 543.298 146.102 543.207 146.102C543.019 146.417 542.969 146.779 543.066 147.123C543.163 147.467 543.402 147.771 543.739 147.98C544.437 148.288 545.256 147.8 545.651 147.131C545.742 146.989 545.681 146.758 545.515 146.848Z" fill="#263238"/>
<path d="M552.329 159.956C551.953 160.247 551.471 160.42 550.963 160.445C550.441 160.345 549.949 160.152 549.521 159.879C549.521 159.879 549.43 159.879 549.445 159.879C549.591 160.15 549.82 160.382 550.109 160.552C550.397 160.721 550.734 160.822 551.084 160.844C551.388 160.832 551.68 160.744 551.923 160.59C552.167 160.437 552.351 160.225 552.45 159.982C552.466 159.969 552.329 159.93 552.329 159.956Z" fill="#263238"/>
<path d="M547.547 156.804C547.866 157.613 548.431 158.336 549.186 158.901C549.612 159.208 550.145 159.389 550.704 159.415C551.903 159.492 552.222 158.643 552.359 157.859C552.42 157.431 552.42 156.999 552.359 156.572C550.827 157.09 549.138 157.172 547.547 156.804Z" fill="#263238"/>
<path d="M549.184 158.901C549.61 159.209 550.143 159.389 550.701 159.416C551.901 159.493 552.219 158.644 552.356 157.859C551.766 157.701 551.13 157.718 550.554 157.908C549.977 158.097 549.493 158.448 549.184 158.901Z" fill="#FF98B9"/>
<path d="M547.852 154.373C547.852 154.373 547.002 156.071 546.744 156.946C546.744 157.023 546.941 157.113 547.275 157.203C548.075 157.525 548.964 157.655 549.844 157.578C550.725 157.501 551.564 157.22 552.269 156.766C552.289 156.752 552.304 156.733 552.309 156.712C552.314 156.69 552.309 156.668 552.296 156.649C552.283 156.63 552.262 156.615 552.238 156.609C552.213 156.602 552.186 156.603 552.163 156.611C550.693 157.051 549.095 157.074 547.609 156.676C547.609 156.431 549.127 153.82 549.021 153.768C548.244 153.656 547.453 153.631 546.668 153.691C548.307 150.115 550.614 146.796 552.178 143.22C552.189 143.193 552.189 143.164 552.177 143.138C552.164 143.111 552.141 143.089 552.111 143.077C552.081 143.064 552.046 143.061 552.014 143.069C551.981 143.076 551.953 143.093 551.935 143.117C549.343 146.609 547.167 150.311 545.438 154.167C545.196 154.566 547.412 154.424 547.852 154.373Z" fill="#263238"/>
<path d="M575.25 156.623C571.91 156.07 573.079 150.076 573.079 150.076C573.079 150.076 566.431 148.519 566.901 139.914C566.295 142.384 566.553 144.95 567.645 147.297C567.645 147.297 556.276 143.438 554.075 133.996C554.075 133.996 554.652 138.691 556.003 140.634C553.28 139.168 551.229 136.958 550.189 134.369C550.189 134.369 546.562 138.679 544.543 139.618C544.543 139.618 550.751 122.367 569.133 128.709C569.133 128.709 580.805 132.195 582.444 141.187C584.084 150.179 575.25 156.623 575.25 156.623Z" fill="#263238"/>
<path d="M575.098 162.786C574.76 162.823 574.418 162.823 574.081 162.786C573.75 162.782 573.423 162.734 573.109 162.644C572.689 162.544 572.304 162.359 571.986 162.104C571.732 161.919 571.512 161.702 571.334 161.461C571.071 161.12 570.886 160.74 570.787 160.342L573.064 155.852C573.064 155.852 578.923 151.157 581.519 153.035C584.114 154.913 578.832 162.284 575.098 162.786Z" fill="#EB9481"/>
<path d="M575.097 162.001C575.022 162.154 574.895 162.285 574.732 162.376C574.57 162.468 574.379 162.516 574.184 162.516C573.989 162.516 573.798 162.466 573.636 162.374C573.474 162.282 573.348 162.151 573.274 161.998C573.199 161.845 573.18 161.677 573.219 161.515C573.257 161.353 573.351 161.204 573.49 161.087C573.628 160.971 573.804 160.891 573.995 160.859C574.187 160.828 574.385 160.844 574.565 160.908C574.807 160.993 574.999 161.156 575.098 161.362C575.198 161.567 575.197 161.797 575.097 162.001Z" fill="white"/>
<path d="M577.281 161.114C577.228 161.222 577.137 161.315 577.021 161.379C576.906 161.444 576.77 161.477 576.631 161.476C576.493 161.475 576.358 161.439 576.244 161.373C576.129 161.307 576.041 161.213 575.989 161.104C575.938 160.995 575.926 160.876 575.955 160.761C575.984 160.646 576.052 160.542 576.152 160.46C576.251 160.378 576.377 160.323 576.513 160.302C576.65 160.282 576.79 160.295 576.917 160.342C577.085 160.405 577.218 160.52 577.286 160.665C577.354 160.809 577.352 160.971 577.281 161.114Z" fill="white"/>
<path d="M588.608 181.284C602.148 196.798 627.982 233.536 619.315 241.627C605.062 254.929 570.743 266.184 560.118 268.641C555.564 269.696 540.067 241.126 544.453 238.9C549.705 236.225 586.438 226.706 586.347 224.056C586.347 222.551 582.461 209.906 579.304 193.787C575.63 175.045 582.157 173.862 588.608 181.284Z" fill="#EB9481"/>
<path d="M561.149 237.293C561.149 237.293 547.306 233.537 538.123 231.44C532.993 230.269 523.992 228.867 519.772 229.523C513.443 230.424 487.669 237.601 489.582 242.927C491.327 247.764 512.547 239.209 512.547 239.209C512.547 239.209 490.234 246.233 493.589 251.726C496.943 257.219 519.393 244.844 519.393 244.844C519.393 244.844 496.625 252.498 501.178 257.707C504.578 261.631 525.677 251.404 525.677 251.404C525.677 251.404 506.187 258.093 509.481 262.261C513.139 266.866 533.296 258.402 533.296 258.402C543.8 267.793 553.332 268.693 560.193 268.539C561.863 268.564 561.149 237.293 561.149 237.293Z" fill="#EB9481"/>
<path d="M520.077 236.365C517.421 237.111 514.734 237.845 512.154 238.784C509.573 239.723 507.054 240.752 504.564 241.884C501.307 243.325 498.252 245.072 495.457 247.094C500.809 244.081 506.48 241.497 512.397 239.375C514.962 238.436 517.466 237.381 519.986 236.442L520.077 236.365Z" fill="#263238"/>
<path d="M524.264 244.162C520.91 245.242 517.555 246.207 514.261 247.404C510.967 248.6 508.008 249.976 504.835 251.353C504.592 251.456 504.744 251.533 505.002 251.443C508.22 250.156 511.332 249.192 514.565 247.957C517.798 246.722 521.016 245.384 524.294 244.226C524.34 244.213 524.31 244.149 524.264 244.162Z" fill="#263238"/>
<path d="M529.272 250.31C524.094 251.851 519.119 253.843 514.427 256.253C514.199 256.369 514.427 256.446 514.639 256.343C519.527 254.285 523.352 252.651 529.332 250.464C529.423 250.426 529.378 250.284 529.272 250.31Z" fill="#263238"/>
<path d="M532.701 230.332C531.229 229.828 529.704 229.441 528.148 229.174C526.685 228.878 525.199 228.676 523.7 228.57C520.462 228.345 517.202 228.682 514.123 229.56C507.934 231.255 501.995 233.547 496.424 236.391C496.303 236.391 496.424 236.622 496.515 236.584C502.187 234.339 508.011 232.381 513.956 230.718C516.977 229.817 520.164 229.381 523.366 229.432C525.021 229.509 526.66 229.715 528.3 229.921C529.749 230.182 531.213 230.38 532.686 230.512C532.777 230.577 532.823 230.371 532.701 230.332Z" fill="#263238"/>
<path d="M622.666 236.353L585.099 223.412C582.064 212.553 579.748 201.559 578.162 190.481C576.113 174.62 581.046 170.529 594.236 187.02C607.427 203.512 621.209 224.48 622.666 236.353Z" fill="#C8C8FF"/>
<path d="M592.312 184.68L592.813 185.271C592.707 185.638 592.56 185.996 592.373 186.339C592.277 185.79 592.256 185.233 592.312 184.68ZM591.386 210.973C591.249 211.766 591.249 212.572 591.386 213.366C591.763 212.632 592.019 211.857 592.145 211.063C592.274 210.269 592.274 209.464 592.145 208.67C591.772 209.406 591.517 210.18 591.386 210.973ZM593.177 224.776C592.241 224.66 591.29 224.66 590.354 224.776C591.215 225.107 592.131 225.324 593.071 225.419C594.007 225.535 594.958 225.535 595.894 225.419C595.03 225.095 594.115 224.878 593.177 224.776ZM601.313 199.885C602.169 200.214 603.081 200.431 604.015 200.528H604.44L603.984 199.872C603.098 199.767 602.198 199.771 601.313 199.885ZM579.653 184.152C580.215 184.796 580.879 185.372 581.626 185.863C581.288 185.115 580.822 184.413 580.245 183.779C579.686 183.132 579.022 182.556 578.271 182.068C578.617 182.814 579.081 183.515 579.653 184.152ZM604.091 213.739C604.645 214.385 605.31 214.957 606.064 215.437C605.717 214.694 605.247 213.996 604.667 213.366C604.113 212.716 603.448 212.139 602.694 211.655C603.063 212.403 603.554 213.105 604.151 213.739H604.091ZM608.644 229.587C609.408 229.114 610.087 228.551 610.663 227.915C608.905 228.523 607.362 229.507 606.185 230.77C607.073 230.473 607.906 230.071 608.659 229.574L608.644 229.587ZM589.914 196.141C590.68 195.672 591.361 195.108 591.932 194.469C591.053 194.758 590.229 195.157 589.489 195.652C588.726 196.121 588.046 196.68 587.47 197.312C588.35 197.031 589.178 196.646 589.929 196.167L589.914 196.141Z" fill="white"/>
<path d="M578.514 200.308C579.078 201.22 579.536 202.177 579.88 203.164L580.275 204.155C579.941 202.315 579.637 200.476 579.334 198.636C579.334 198.507 579.531 198.456 579.561 198.636C580.502 202.804 584.874 222.318 585.071 223.334C585.177 223.334 586.346 223.9 586.422 223.9C586.498 223.9 586.422 224.106 586.331 224.055C586.24 224.003 584.813 223.489 584.813 223.476C584.327 222.588 580.882 207.692 580.563 205.878C580.505 205.802 580.459 205.72 580.427 205.634L580.077 204.862C579.865 204.386 579.683 203.897 579.485 203.421C579.025 202.44 578.66 201.429 578.393 200.398C578.393 200.283 578.484 200.244 578.514 200.308Z" fill="#263238"/>
<path d="M585.797 219.835C587.292 220.121 588.762 220.491 590.199 220.941C591.717 221.327 593.128 221.688 594.57 222.099C597.379 222.871 600.141 223.72 602.904 224.582C608.473 226.279 613.94 228.211 619.281 230.371C619.308 230.381 619.328 230.399 619.338 230.422C619.348 230.445 619.347 230.471 619.335 230.493C619.323 230.515 619.301 230.532 619.274 230.541C619.246 230.549 619.217 230.548 619.19 230.538C613.529 228.865 607.958 226.962 602.342 225.186L594.054 222.614C592.673 222.176 591.292 221.713 589.911 221.327C588.495 220.958 587.102 220.529 585.736 220.041C585.721 219.912 585.721 219.822 585.797 219.835Z" fill="#263238"/>
<path d="M574.777 131.295C574.929 133.276 586.1 137.997 594.054 132.878C602.008 127.758 598.608 117.699 587.694 118.728C580.788 119.409 574.458 127.076 574.777 131.295Z" fill="#263238"/>
<path d="M598.031 123.873C596.823 121.448 594.684 119.44 591.96 118.174C590.697 117.558 589.266 117.234 587.808 117.234C586.351 117.234 584.92 117.558 583.657 118.174C581.087 119.537 578.991 121.455 577.586 123.731C576.831 124.884 576.206 126.094 575.719 127.346C575.149 128.576 574.856 129.884 574.853 131.205C574.505 129.858 574.505 128.462 574.853 127.115C575.177 125.753 575.686 124.427 576.371 123.165C577.688 120.536 579.944 118.323 582.822 116.836C584.339 116.096 586.066 115.723 587.816 115.756C589.541 115.814 591.216 116.258 592.673 117.042C594.071 117.809 595.268 118.811 596.19 119.986C597.112 121.161 597.739 122.484 598.031 123.873Z" fill="#263238"/>
<path d="M197.525 523.483C194.398 524.332 105.39 523.354 102.036 521.502C100.745 520.807 100.153 509.809 99.8953 496.495V496.083C99.8953 493.343 99.7891 490.513 99.7891 487.658C99.7891 487.259 99.7891 486.86 99.7891 486.474L104.115 447.33L163.661 447.845L157.787 486.603L157.711 488.147L157.362 496.173V496.997C157.362 496.997 191.241 510.285 194.687 512.665C198.132 515.045 200.652 522.647 197.525 523.483Z" fill="#D3766A"/>
<path d="M197.525 523.483C194.398 524.332 105.39 523.355 102.036 521.502C100.745 520.808 100.153 509.809 99.8953 496.495V496.084C99.8953 493.344 99.7891 490.514 99.7891 487.658C99.7891 487.259 99.7891 486.861 99.7891 486.475L157.787 486.603L157.711 488.147L157.362 496.174V496.997C157.362 496.997 191.241 510.285 194.687 512.665C198.132 515.045 200.652 522.647 197.525 523.483Z" fill="#EBEBEB"/>
<path d="M197.542 523.484C195.933 523.921 171.738 523.87 148.105 523.484L134.125 523.201C117.261 522.815 103.342 522.223 102.037 521.503C100.732 520.782 100.17 510.131 99.9121 497.062C99.9121 496.882 99.9121 496.701 99.9121 496.509V496.084L157.288 496.174V497.01C157.288 497.01 191.167 510.286 194.597 512.665C198.028 515.045 200.654 522.635 197.542 523.484Z" fill="#C8C8FF"/>
<path d="M196.573 520.55C181.561 520.074 121.013 519.341 106.138 519.842C106.017 519.842 106.017 519.919 106.138 519.919C120.998 520.666 181.561 520.974 196.558 520.756C196.877 520.756 196.877 520.563 196.573 520.55Z" fill="#263238"/>
<path d="M163.755 496.38C157.865 495.377 150.625 496.072 146.056 499.583C145.874 499.725 146.056 499.931 146.299 499.879C151.98 498.396 157.832 497.434 163.755 497.011C163.841 496.996 163.918 496.956 163.973 496.899C164.029 496.842 164.059 496.77 164.059 496.695C164.059 496.621 164.029 496.549 163.973 496.492C163.918 496.435 163.841 496.395 163.755 496.38Z" fill="#263238"/>
<path d="M167.941 498.605C162.051 497.602 154.826 498.296 150.258 501.808C150.075 501.949 150.258 502.155 150.5 502.104C156.166 500.622 162.003 499.66 167.91 499.235C167.997 499.224 168.077 499.187 168.135 499.131C168.193 499.076 168.227 499.005 168.231 498.931C168.234 498.856 168.208 498.783 168.155 498.724C168.102 498.664 168.026 498.622 167.941 498.605Z" fill="#263238"/>
<path d="M172.174 500.83C166.284 499.826 159.044 500.508 154.475 504.033C154.308 504.161 154.475 504.38 154.733 504.329C160.398 502.845 166.235 501.883 172.143 501.46C172.23 501.448 172.309 501.412 172.368 501.356C172.426 501.301 172.46 501.23 172.464 501.155C172.467 501.081 172.44 501.008 172.387 500.948C172.335 500.889 172.259 500.847 172.174 500.83Z" fill="#263238"/>
<path d="M148.105 523.47L134.125 523.187C117.261 522.801 103.342 522.209 102.037 521.489C100.732 520.769 100.17 510.117 99.9121 497.048C99.9121 496.868 99.9121 496.688 99.9121 496.495V496.07C107.82 500.74 135.506 516.369 148.105 523.47Z" fill="#263238"/>
<path d="M161.233 496.341H97.1184C97.1184 496.341 110.035 369.441 109.535 367.228C108.897 364.385 105.102 351.547 100.063 334.773C98.5452 329.512 96.7844 323.891 95.0085 318.05C90.2424 302.267 84.9602 285.004 80.3762 269.992C73.4851 247.506 68.127 230.037 68.127 230.037H122.452C122.452 230.037 128.781 247.043 136.765 269.181C149.773 305.2 167.123 354.648 168.853 366.688C171.616 386.112 161.233 496.341 161.233 496.341Z" fill="#37474F"/>
<path d="M158.391 487.067C148.601 486.899 151.409 486.822 141.695 486.745C136.898 486.745 105.418 486.475 100.94 487.105C100.92 487.112 100.903 487.123 100.891 487.138C100.879 487.153 100.873 487.171 100.873 487.189C100.873 487.207 100.879 487.224 100.891 487.239C100.903 487.254 100.92 487.266 100.94 487.272C105.493 487.903 136.898 487.671 141.695 487.633C151.485 487.555 148.677 487.478 158.391 487.311C158.422 487.303 158.448 487.286 158.467 487.264C158.486 487.242 158.496 487.216 158.496 487.189C158.496 487.162 158.486 487.135 158.467 487.113C158.448 487.091 158.422 487.075 158.391 487.067Z" fill="#263238"/>
<path d="M121.589 359.472C119.494 351.625 116.352 343.92 113.62 336.214C108.064 320.546 102.499 304.891 96.9231 289.249C94.11 281.428 91.2918 273.607 88.4686 265.786C87.0266 261.837 85.5998 257.887 84.1426 253.951C82.6855 250.015 81.1069 246.233 79.8015 242.374C79.2854 240.792 78.997 241.654 79.6649 243.66C81.0158 247.712 82.3515 251.777 83.748 255.816C86.5105 263.818 89.2882 271.819 92.0811 279.82C97.6365 295.737 103.243 311.641 108.899 327.531C111.722 335.507 114.551 343.478 117.384 351.445C118.815 355.242 119.976 359.108 120.86 363.022C121.609 367.115 121.797 371.268 121.422 375.397C120.799 383.707 119.676 392.004 118.765 400.301L116.033 425.231C114.181 441.757 112.38 458.304 110.63 474.872C110.397 476.965 110.184 479.061 109.992 481.162C109.992 481.87 111.191 481.818 111.267 481.162C113.377 464.813 115.001 448.399 116.807 432.023C118.614 415.648 120.42 399.427 122.211 383.141C122.666 379.05 123.182 374.947 123.182 370.843C123.16 367.014 122.625 363.199 121.589 359.472Z" fill="#263238"/>
<path d="M116.274 230.037C112.494 254.761 105.315 301.135 100.063 334.773C87.8593 294.008 68.127 230.037 68.127 230.037H116.274Z" fill="#263238"/>
<path d="M129.617 524.216C126.49 525.078 37.4823 524.371 34.1126 522.518C32.8224 521.837 32.1849 510.838 31.8661 497.524V497.113C31.8661 494.373 31.7295 491.543 31.7143 488.687C31.7143 488.288 31.7143 487.889 31.7143 487.504C31.5018 468.298 33.1411 448.359 33.1411 448.359L91.3213 448.681L89.682 487.465V488.996L89.3784 497.023V497.846C89.3784 497.846 123.303 511.031 126.749 513.398C130.194 515.765 132.729 523.355 129.617 524.216Z" fill="#D3766A"/>
<path d="M129.616 524.217C126.489 525.079 37.4808 524.371 34.1111 522.519C32.8209 521.837 32.1834 510.839 31.8647 497.525V497.113C31.8647 494.373 31.7281 491.543 31.7129 488.687C31.7129 488.289 31.7129 487.89 31.7129 487.504H89.6957V489.035L89.377 497.023V497.846C89.377 497.846 123.302 511.032 126.747 513.399C130.193 515.765 132.728 523.355 129.616 524.217Z" fill="#EBEBEB"/>
<path d="M129.613 524.217C126.486 525.079 37.4775 524.372 34.1078 522.519C32.8176 521.837 32.1801 510.839 31.8613 497.525V497.113L89.3736 497.023V497.847C89.3736 497.847 123.298 511.032 126.744 513.399C130.189 515.766 132.724 523.355 129.613 524.217Z" fill="#C8C8FF"/>
<path d="M128.645 521.283C113.633 520.846 53.0854 520.305 38.2102 520.846C38.0888 520.846 38.0888 520.923 38.2102 520.923C53.0702 521.63 113.633 521.759 128.645 521.489C128.949 521.476 128.964 521.283 128.645 521.283Z" fill="#263238"/>
<path d="M95.6917 497.215C89.7872 496.225 82.5621 496.945 78.0085 500.47C77.8415 500.611 78.0084 500.817 78.2665 500.766C83.9242 499.266 89.7561 498.287 95.6613 497.846C95.7481 497.834 95.8274 497.797 95.8859 497.742C95.9443 497.686 95.9782 497.615 95.9818 497.541C95.9853 497.467 95.9584 497.394 95.9055 497.334C95.8526 497.275 95.7771 497.233 95.6917 497.215Z" fill="#263238"/>
<path d="M100 499.415C94.1109 498.437 86.8707 499.144 82.317 502.682C82.1501 502.811 82.317 503.029 82.5751 502.978C88.2345 501.481 94.0655 500.498 99.9699 500.045C100.057 500.033 100.136 499.997 100.194 499.941C100.253 499.886 100.287 499.815 100.29 499.74C100.294 499.666 100.267 499.593 100.214 499.533C100.161 499.474 100.086 499.432 100 499.415Z" fill="#263238"/>
<path d="M104.156 501.627C98.2668 500.65 91.0417 501.357 86.4881 504.895C86.3059 505.023 86.4881 505.242 86.7309 505.191C92.3884 503.688 98.2202 502.704 104.126 502.258C104.213 502.246 104.292 502.21 104.35 502.154C104.409 502.099 104.443 502.028 104.446 501.953C104.45 501.879 104.423 501.806 104.37 501.746C104.317 501.687 104.241 501.645 104.156 501.627Z" fill="#263238"/>
<path d="M120.676 230.037C120.676 230.037 119.431 252.06 113.481 269.516C112.995 270.956 112.479 272.371 111.963 273.735C106.507 275.597 101.263 277.879 96.2984 280.553C96.2984 280.553 95.6761 298.279 95.0386 318.05C94.3556 340.15 93.627 364.797 93.7788 370.02C94.3252 389.585 90.8948 497.139 90.8948 497.139L26.7949 497.357C26.7949 497.357 38.3915 377.249 38.3004 370.084C38.179 358.507 41.4121 307.657 43.9014 270.532C45.4193 247.66 46.6791 230.037 46.6791 230.037H120.676Z" fill="#37474F"/>
<path d="M88.6625 487.466C78.8722 487.337 81.6802 487.26 71.9658 487.209C67.1694 487.209 35.6886 487.067 31.2109 487.71C31.1198 487.71 31.1198 487.877 31.2109 487.89C35.6886 488.495 67.1845 488.148 71.9658 488.096C81.7713 487.98 78.9481 487.916 88.6625 487.71C88.6928 487.702 88.7193 487.685 88.738 487.663C88.7568 487.641 88.7669 487.615 88.7669 487.588C88.7669 487.561 88.7568 487.535 88.738 487.513C88.7193 487.491 88.6928 487.474 88.6625 487.466Z" fill="#263238"/>
<path d="M52.0371 237.909C50.8531 268.203 49.6085 298.51 47.9995 328.804C46.3906 359.098 44.2352 389.584 41.2298 419.904C39.5601 436.846 37.9816 460.669 35.8262 477.572C35.8262 477.688 36.0083 477.726 36.0235 477.572C40.6985 447.51 43.2941 410.346 45.6013 380.091C47.9085 349.836 49.4415 319.542 50.6558 289.261C51.354 272.126 51.8701 254.979 52.4773 237.806C52.4925 237.639 52.0371 237.664 52.0371 237.909Z" fill="#263238"/>
<path d="M114.59 272.422C108.218 274.679 102.088 277.399 96.2695 280.552C96.2192 280.574 96.1813 280.612 96.1642 280.658C96.1471 280.704 96.1523 280.754 96.1784 280.796C96.2046 280.839 96.2497 280.871 96.3038 280.886C96.3578 280.9 96.4165 280.896 96.4668 280.874C102.645 278.301 108.959 275.883 114.97 273.04C115.018 273.019 115.06 272.99 115.095 272.955C115.129 272.92 115.156 272.879 115.172 272.835C115.188 272.792 115.194 272.746 115.189 272.7C115.184 272.655 115.169 272.611 115.144 272.57C115.119 272.53 115.085 272.494 115.044 272.464C115.003 272.435 114.955 272.413 114.903 272.399C114.852 272.385 114.798 272.38 114.744 272.384C114.69 272.388 114.638 272.401 114.59 272.422Z" fill="#263238"/>
<path d="M114.95 253.731C114.525 255.661 113.979 257.59 113.432 259.494C112.886 261.398 112.628 263.135 112.066 264.91C111.589 266.639 110.535 268.215 109.03 269.451C108.196 270.107 107.285 270.737 106.389 271.29C105.919 271.612 105.403 271.921 104.871 272.255C104.871 271.998 104.978 271.741 105.038 271.47C105.19 270.737 105.342 270.004 105.479 269.284C105.797 267.65 106.116 266.029 106.404 264.395C106.981 261.192 107.513 257.964 108.302 254.786C108.302 254.658 108.104 254.606 108.074 254.786C107.133 257.925 106.086 261.038 105.266 264.202C104.871 265.759 103.429 273.439 103.369 273.979C103.308 274.519 103.247 275.098 103.217 275.664C103.133 276.236 103.133 276.815 103.217 277.388C103.23 277.412 103.252 277.433 103.279 277.448C103.305 277.462 103.337 277.47 103.369 277.47C103.401 277.47 103.432 277.462 103.459 277.448C103.486 277.433 103.507 277.412 103.521 277.388C103.797 276.854 103.991 276.292 104.097 275.715C104.264 275.175 104.416 274.622 104.522 274.056C104.522 273.863 104.522 273.657 104.629 273.451C105.524 272.988 106.359 272.384 107.194 271.869C108.029 271.355 109 270.776 109.85 270.171C111.43 269.05 112.569 267.546 113.113 265.862C113.658 264.057 114.013 262.214 114.176 260.356C114.464 258.169 114.677 255.982 115.026 253.809C115.178 253.616 114.98 253.616 114.95 253.731Z" fill="#263238"/>
<path d="M91.9887 177.477C101.931 194.199 127.097 228.108 140.075 228.327C156.301 228.584 188.647 208.542 196.737 200.721C200.244 197.312 172.345 173.798 168.216 177.129C162.691 181.593 143.93 195.138 143.263 195.37C141.881 195.833 117.96 179.046 103.57 168.215C87.4502 156.084 84.4752 164.857 91.9887 177.477Z" fill="#D3766A"/>
<path d="M189.023 206.111C189.023 206.111 201.166 197.711 208.892 191.961C213.173 188.719 219.927 182.609 221.779 179.02C224.557 173.63 232.131 149.614 225.301 147.929C219.123 146.411 215.708 167.739 215.708 167.739C215.708 167.739 221.4 146.475 213.552 145.793C205.705 145.111 205.629 169.668 205.629 169.668C205.629 169.668 210.896 147.697 202.684 148.096C196.461 148.392 194.928 170.62 194.928 170.62C194.928 170.62 199.299 151.711 192.894 151.775C185.821 151.852 182.876 172.292 182.876 172.292C166.635 174.865 160.244 181.297 156.298 186.571C155.327 187.793 189.023 206.111 189.023 206.111Z" fill="#D3766A"/>
<path d="M214.297 175.147C215.071 172.664 215.815 170.156 216.391 167.635C216.968 165.113 217.302 162.553 217.545 160.006C217.913 156.665 217.841 153.3 217.332 149.973C217.742 155.929 216.073 165.01 215.557 167.532C215.04 170.053 214.691 172.6 214.175 175.134C214.16 175.147 214.266 175.147 214.297 175.147Z" fill="#263238"/>
<path d="M203.489 173.745C204.309 170.542 205.28 167.39 205.933 164.149C206.586 160.907 206.889 157.833 207.284 154.591C207.284 154.334 207.147 154.411 207.102 154.591C206.555 157.82 205.751 160.778 205.159 164.007C204.567 167.236 204.127 170.439 203.398 173.668C203.383 173.784 203.474 173.784 203.489 173.745Z" fill="#263238"/>
<path d="M193.96 173.952C195.367 169.069 196.181 164.078 196.389 159.055C196.389 158.798 196.191 158.914 196.161 159.158C195.463 164.124 194.962 168.034 193.763 173.9C193.747 174.003 193.93 174.055 193.96 173.952Z" fill="#263238"/>
<path d="M155.057 185.838L178.538 218.242C178.538 218.242 149.577 231.401 138.588 228.996C127.598 226.59 100.231 196.746 90.8962 177.618C81.5613 158.49 93.2337 159.956 102.341 166.465C111.448 172.974 142.808 194.495 143.324 194.444C143.84 194.392 155.057 185.838 155.057 185.838Z" fill="#C8C8FF"/>
<path d="M159.364 205.854C157.846 203.5 156.237 201.197 154.659 198.882C153.885 197.762 153.141 196.643 152.321 195.563C151.502 194.482 150.682 193.119 149.711 192C149.696 191.987 149.677 191.979 149.657 191.977C149.637 191.975 149.616 191.979 149.599 191.988C149.581 191.996 149.568 192.01 149.561 192.026C149.553 192.042 149.553 192.06 149.559 192.077C150.166 193.363 151.077 194.649 151.729 195.833C152.382 197.016 153.126 198.123 153.824 199.255C155.342 201.622 156.784 203.989 158.378 206.33C161.413 211.025 164.707 215.617 168.016 220.197C168.036 220.211 168.06 220.22 168.086 220.222C168.112 220.223 168.137 220.218 168.159 220.207C168.181 220.195 168.199 220.178 168.208 220.158C168.218 220.137 168.22 220.115 168.214 220.094C165.269 215.296 162.43 210.549 159.364 205.854Z" fill="#263238"/>
<path d="M143.049 194.443C140.362 196.113 137.826 197.949 135.459 199.936C134.169 201.004 132.909 202.11 131.695 203.242C130.481 204.374 129.312 205.673 128.082 206.857C128.068 206.876 128.062 206.899 128.065 206.922C128.069 206.945 128.081 206.967 128.1 206.983C128.119 206.999 128.145 207.01 128.172 207.012C128.199 207.015 128.226 207.01 128.249 206.998C129.524 205.905 130.921 204.901 132.241 203.846C133.562 202.792 134.867 201.737 136.157 200.669C138.753 198.534 140.863 196.964 143.352 194.752C143.504 194.533 143.261 194.25 143.049 194.443Z" fill="#263238"/>
<path d="M149.045 228.417C145.656 229.28 142.08 229.478 138.587 228.995C127.582 226.603 100.23 196.746 90.8952 177.618C89.4018 174.735 88.3166 171.712 87.6621 168.613L149.045 228.417Z" fill="#263238"/>
<path d="M39.0012 260.833C39.2289 261.026 133.109 257.99 133.929 257.115C135.037 255.893 106.607 172.215 95.9822 162.104C93.7206 159.956 80.3937 157.563 73.457 163.326C51.0228 182.03 38.1664 260.125 39.0012 260.833Z" fill="#C8C8FF"/>
<path d="M109.232 185.876C109.232 185.735 109.445 185.658 109.506 185.786C111.024 189.054 112.541 192.36 113.892 195.691C113.892 195.202 113.771 194.726 113.725 194.251C113.604 192.964 113.619 191.678 113.482 190.469C113.482 190.353 113.71 190.353 113.71 190.469C113.71 191.755 114.074 193.041 114.302 194.328C114.53 195.614 114.682 196.643 114.924 197.801C114.924 198.007 114.924 198.213 115.031 198.405C117.308 203.937 125.853 229.356 129.071 239.415C130.877 245.088 132.471 250.799 133.974 256.536C133.965 256.556 133.95 256.573 133.929 256.585C133.909 256.597 133.885 256.604 133.86 256.604C133.835 256.604 133.811 256.597 133.791 256.585C133.77 256.573 133.755 256.556 133.746 256.536C130.27 246.58 126.9 236.598 123.44 226.641C120.252 217.598 111.19 191.472 109.232 185.876Z" fill="#263238"/>
<path d="M98.485 165.629C99.0467 169.231 100.003 177.579 93.3243 177.464C90.6067 177.223 88.0265 176.331 85.8867 174.891C83.6794 173.563 81.6443 172.041 79.8152 170.35C77.6901 168.505 75.7506 166.513 74.0169 164.394C74.0169 164.304 73.7892 164.394 73.8651 164.51C75.6258 166.62 77.1437 168.832 79.1473 170.813C81.0508 172.732 83.2514 174.423 85.6894 175.843C87.9559 177.361 90.7143 178.259 93.5975 178.416C94.8428 178.391 96.0397 178.002 96.9857 177.315C97.9316 176.628 98.5685 175.686 98.7886 174.646C99.4842 171.659 99.3805 168.578 98.485 165.629Z" fill="#263238"/>
<path d="M93.2455 173.605C88.4793 174.287 79.873 167.173 77.0801 162.028C77.4231 159.268 77.9297 156.524 78.598 153.808C79.0989 151.171 79.5846 148.238 79.7971 145.523L99.5295 150.772C98.1221 154.094 97.1995 157.55 96.7821 161.063C96.7429 161.435 96.7429 161.81 96.7821 162.182C96.7821 162.182 96.7821 162.298 96.7821 162.375C97.116 164.562 97.8598 172.949 93.2455 173.605Z" fill="#D3766A"/>
<path d="M96.8591 162.284C96.8591 162.284 96.8591 162.4 96.8591 162.477C96.1673 162.527 95.4715 162.527 94.7796 162.477C83.0009 161.422 80.7848 150.038 80.375 145.754L99.5458 150.899C98.1401 154.223 97.2126 157.678 96.7832 161.19C96.771 161.556 96.7964 161.922 96.8591 162.284Z" fill="#263238"/>
<path d="M74.0336 127.732C72.8193 133.971 79.2702 150.887 84.9016 154.142C93.0829 158.914 105.089 158.091 109.537 150.038C113.832 142.23 104.983 120.349 98.7901 117.48C89.7132 113.248 75.8247 118.548 74.0336 127.732Z" fill="#D3766A"/>
<path d="M96.3569 135.836C96.3569 135.836 96.2658 135.926 96.3569 135.965C96.7971 137.097 97.1007 138.46 96.0078 139.155C97.4043 138.653 96.9641 136.852 96.3569 135.836Z" fill="#263238"/>
<path d="M94.7191 134.962C92.503 135.374 93.6566 139.117 95.7209 138.718C97.7853 138.319 96.5861 134.602 94.7191 134.962Z" fill="#263238"/>
<path d="M104.012 134.125C104.012 134.125 104.148 134.125 104.148 134.202C104.467 135.373 105.059 136.659 106.41 136.775C106.41 136.775 106.41 136.839 106.41 136.852C104.862 136.994 104.103 135.27 104.012 134.125Z" fill="#263238"/>
<path d="M104.863 132.697C107.018 132.067 108.339 135.759 106.381 136.338C104.423 136.916 103.042 133.173 104.863 132.697Z" fill="#263238"/>
<path d="M92.4116 133.636C92.938 133.366 93.4449 133.069 93.9294 132.748C94.5214 132.401 95.0375 132.182 95.3107 131.59C95.3633 131.415 95.3473 131.23 95.2652 131.063C95.1831 130.896 95.0393 130.756 94.8554 130.664C94.4606 130.532 94.0311 130.492 93.6119 130.548C93.1926 130.605 92.799 130.756 92.4723 130.986C91.7458 131.371 91.207 131.964 90.9544 132.658C90.9122 132.819 90.9242 132.986 90.9891 133.141C91.054 133.296 91.1691 133.432 91.3212 133.534C91.4733 133.636 91.6563 133.7 91.8491 133.718C92.042 133.736 92.2369 133.707 92.4116 133.636Z" fill="#263238"/>
<path d="M105.984 130.383C105.346 130.383 104.754 130.383 104.117 130.383C103.457 130.461 102.785 130.352 102.204 130.074C102.043 129.956 101.932 129.797 101.888 129.62C101.844 129.444 101.87 129.26 101.962 129.097C102.203 128.801 102.532 128.564 102.916 128.411C103.3 128.257 103.724 128.192 104.147 128.222C105.019 128.171 105.881 128.4 106.561 128.865C106.715 128.975 106.827 129.122 106.882 129.286C106.938 129.451 106.935 129.625 106.873 129.788C106.811 129.951 106.694 130.094 106.535 130.2C106.377 130.306 106.185 130.37 105.984 130.383Z" fill="#263238"/>
<path d="M98.1646 146.668C98.5401 146.942 99.0196 147.093 99.5155 147.092C100.024 146.975 100.496 146.764 100.897 146.475C100.772 146.742 100.566 146.977 100.299 147.156C100.033 147.334 99.7151 147.45 99.3789 147.491C99.0809 147.491 98.7896 147.416 98.5413 147.277C98.293 147.137 98.0986 146.939 97.9824 146.706C98.0128 146.693 98.1039 146.642 98.1646 146.668Z" fill="#263238"/>
<path d="M98.4844 142.885C98.9725 143.266 99.5478 143.557 100.175 143.741C100.801 143.924 101.466 143.997 102.127 143.953C102.704 143.92 103.271 143.816 103.812 143.644L104.131 143.541L104.419 143.438C104.489 143.411 104.544 143.364 104.578 143.305C104.611 143.246 104.619 143.18 104.601 143.117V143.001V142.898C104.359 141.998 103.842 140.673 103.842 140.673C104.267 140.75 106.468 141.059 106.286 140.608C104.931 136.601 103.095 132.721 100.807 129.031C100.807 128.915 100.503 129.031 100.564 129.121C101.793 132.813 103.782 136.286 105.117 139.978C104.336 139.858 103.539 139.832 102.75 139.901C102.613 139.978 103.812 142.474 103.873 142.872C103.035 143.142 102.141 143.264 101.246 143.231C100.351 143.198 99.4732 143.01 98.6665 142.679C98.4844 142.718 98.4844 142.821 98.4844 142.885Z" fill="#263238"/>
<path d="M103.039 143.335C102.663 144.102 102.056 144.772 101.278 145.278C100.836 145.546 100.305 145.69 99.7603 145.689C98.5916 145.689 98.2424 144.84 98.2424 144.069C98.2381 143.662 98.2891 143.256 98.3942 142.859C99.8417 143.437 101.471 143.604 103.039 143.335Z" fill="#263238"/>
<path d="M101.338 145.278C100.896 145.547 100.365 145.691 99.8206 145.69C98.6518 145.69 98.3027 144.841 98.3027 144.069C98.8957 143.941 99.5225 143.992 100.076 144.213C100.63 144.433 101.076 144.81 101.338 145.278Z" fill="#FF98B9"/>
<path d="M78.0224 141.303C83.0921 140.326 81.9992 132.299 81.9992 132.299C81.9992 132.299 90.3779 129.43 90.1806 123.642C90.1806 123.642 99.6217 126.536 105.587 123.307C111.552 120.078 108.532 114.122 107.469 112.926C106.407 111.73 103.447 114.881 103.447 114.881C103.447 114.881 102.111 111.447 100.897 111.292C99.6825 111.138 99.0601 113.505 99.0601 113.505C93.5269 113.081 87.9499 113.363 82.5153 114.341C74.9259 115.975 72.9375 123.166 72.9375 123.166C72.9375 123.166 69.0669 124.671 68.3839 127.333C67.7008 129.996 74.8045 141.934 78.0224 141.303Z" fill="#263238"/>
<path d="M89.8005 122.65C90.0505 123.79 90.0505 124.958 89.8005 126.098C89.5511 127.203 88.9531 128.23 88.0702 129.069C87.131 129.882 86.0185 130.537 84.7916 130.999C84.1844 131.218 83.5317 131.411 82.879 131.604C82.2264 131.796 81.5585 131.899 80.8906 132.079C81.5737 132.079 82.2719 131.938 82.9701 131.874C83.6683 131.809 84.321 131.591 84.9889 131.398C86.3412 130.989 87.5662 130.324 88.5711 129.455C89.538 128.537 90.1428 127.386 90.3014 126.162C90.4808 124.974 90.3087 123.768 89.8005 122.65Z" fill="#263238"/>
<path d="M73.1209 124.105C73.1226 122.209 73.7086 120.347 74.8209 118.702C75.9521 117.099 77.6598 115.846 79.6933 115.126C80.1877 114.935 80.6945 114.767 81.2111 114.624L82.8201 114.29C83.913 114.123 85.021 114.071 86.1291 113.981C87.2371 113.891 88.3755 113.981 89.4836 113.981C90.5916 113.981 91.73 114.161 92.8532 114.225C91.7452 114.033 90.6371 113.878 89.5139 113.698C88.3907 113.518 87.2523 113.569 86.1139 113.505C83.8161 113.48 81.5355 113.843 79.4049 114.573C77.2608 115.342 75.4854 116.702 74.3655 118.432C73.2812 120.172 72.8471 122.151 73.1209 124.105Z" fill="#263238"/>
<path d="M94.4927 142.874C93.2755 143.02 92.034 142.876 90.9088 142.456C89.7836 142.036 88.8195 141.357 88.1257 140.497C87.4319 139.637 87.0359 138.629 86.9827 137.588C86.9295 136.547 87.2211 135.514 87.8246 134.606C88.4281 133.699 89.3193 132.952 90.3974 132.451C91.4756 131.95 92.6976 131.715 93.9253 131.772C95.153 131.829 96.3373 132.176 97.3442 132.774C98.3512 133.372 99.1406 134.197 99.6232 135.155C100.026 135.943 100.209 136.798 100.156 137.655C100.104 138.512 99.8178 139.347 99.3208 140.095C98.8239 140.842 98.1293 141.482 97.2917 141.965C96.454 142.447 95.496 142.758 94.4927 142.874ZM92.7168 132.583C92.2487 132.646 91.7904 132.754 91.3507 132.904C90.0107 133.378 88.9342 134.268 88.3407 135.391C87.7472 136.514 87.6812 137.787 88.1562 138.95C88.6311 140.113 89.6114 141.078 90.8972 141.65C92.183 142.222 93.6778 142.357 95.077 142.028C96.4761 141.699 97.6746 140.93 98.4281 139.878C99.1817 138.826 99.4337 137.57 99.1329 136.366C98.832 135.162 98.0009 134.1 96.8089 133.397C95.6168 132.694 94.1534 132.403 92.7168 132.583Z" fill="#C8C8FF"/>
<path d="M109.107 139.489C106.602 139.798 103.961 137.92 103.035 135.103C102.58 133.763 102.633 132.337 103.187 131.025C103.382 130.449 103.749 129.925 104.253 129.505C104.758 129.084 105.381 128.782 106.064 128.627C106.747 128.471 107.466 128.468 108.151 128.618C108.836 128.768 109.463 129.065 109.972 129.481C111.225 130.38 112.112 131.591 112.507 132.941C113.448 135.926 112.097 138.82 109.471 139.373L109.107 139.489ZM106.663 129.288L106.344 129.352C105.806 129.492 105.316 129.74 104.916 130.077C104.517 130.413 104.22 130.827 104.052 131.282C103.561 132.45 103.519 133.72 103.931 134.91C104.735 137.482 107.149 139.193 109.289 138.691C111.429 138.19 112.522 135.72 111.702 133.134C111.351 131.939 110.571 130.865 109.471 130.06C109.09 129.771 108.642 129.554 108.156 129.421C107.67 129.288 107.156 129.243 106.648 129.288H106.663Z" fill="#C8C8FF"/>
<path d="M99.6079 135.874L98.8945 135.45C99.6383 134.537 101.581 133.109 103.585 134.163L103.114 134.794C101.323 133.855 99.6838 135.797 99.6079 135.874Z" fill="#C8C8FF"/>
<path d="M73.0039 143.618L72.1387 143.464C72.2297 143.117 73.0494 140.119 74.8709 139.425C76.6923 138.73 87.0139 137.187 87.454 137.109L87.5906 137.843C83.4271 138.409 79.3026 139.164 75.2351 140.107C74.036 140.57 73.2164 142.795 73.0039 143.618Z" fill="#C8C8FF"/>
<path d="M80.6151 141.341C80.6151 141.341 74.999 136.363 72.2516 138.151C69.5043 139.939 74.4525 147.567 78.1562 148.211C78.6297 148.33 79.1271 148.366 79.6177 148.317C80.1083 148.267 80.5817 148.132 81.0085 147.921C81.4353 147.71 81.8065 147.427 82.0991 147.09C82.3917 146.752 82.5996 146.368 82.7098 145.96L80.6151 141.341Z" fill="#D3766A"/>
<path d="M96.9675 162.13L92.0647 172.125L77.5083 159.262L73.2734 163.301C73.2734 163.301 87.42 183.638 87.5263 182.725L92.5201 174.106L99.4872 180.204L99.1229 165.076L96.9675 162.13Z" fill="#EBEBEB"/>
<path d="M99.7881 172.729C99.6363 170.233 99.5604 167.712 99.2569 165.229C99.2569 165.139 99.0899 165.101 99.0595 165.229C98.4372 167.635 99.0595 177.18 99.0595 179.457C98.7711 179.199 92.5934 174.093 92.5327 174.17C91.455 175.533 87.7817 181.811 87.5389 182.377C85.2924 179.148 76.7164 167.403 74.0601 164.368C74.0568 164.353 74.0494 164.34 74.0385 164.328C74.0276 164.317 74.0136 164.308 73.9977 164.302C73.9818 164.296 73.9645 164.294 73.9473 164.295C73.9301 164.296 73.9134 164.301 73.8988 164.309C73.8842 164.317 73.8721 164.328 73.8636 164.34C73.855 164.353 73.8502 164.367 73.8497 164.382C73.8491 164.397 73.8528 164.411 73.8604 164.424C73.8679 164.438 73.8792 164.449 73.8932 164.458C75.8512 167.867 87.2049 183.676 87.3719 183.637C89.3056 180.682 91.0536 177.642 92.6086 174.53C93.6559 175.636 99.8792 181.386 99.9095 180.962C100.037 178.218 99.9966 175.47 99.7881 172.729Z" fill="#263238"/>
<path d="M63.7226 186.88C65.2404 207.372 71.4637 245.963 85.7014 254.183C100.88 262.904 144.215 264.113 156.222 264.01C161.307 264.01 158.377 231.993 153.08 230.938C147.783 229.883 110.579 228.558 106.815 227.156C103.051 225.754 91.0747 198.02 81.7853 181.863C71.0084 162.863 62.5234 170.221 63.7226 186.88Z" fill="#D3766A"/>
<path d="M178.082 233.343C175.593 232.686 175.988 231.58 180.298 230.191C184.609 228.802 203.067 226.409 201.549 221.019C200.031 215.629 174.014 219.321 167.032 222.1C160.05 224.878 149.926 231.452 149.926 231.452C155.162 231.593 167.822 232.957 178.082 233.343Z" fill="#D3766A"/>
<path d="M172.707 254.053L224.057 255.597L236.321 194.301L184.971 192.758L172.707 254.053Z" fill="#263238"/>
<path d="M175.227 254.131L226.576 255.675L238.856 194.367L187.506 192.836L175.227 254.131Z" fill="#455A64"/>
<path d="M213.843 221.765C213.658 222.906 212.985 223.95 211.953 224.699C210.921 225.448 209.601 225.85 208.242 225.83C207.603 225.815 206.976 225.686 206.4 225.452C205.824 225.218 205.312 224.884 204.898 224.472C204.485 224.059 204.178 223.578 203.998 223.058C203.819 222.539 203.77 221.993 203.855 221.456C204.044 220.314 204.72 219.271 205.754 218.522C206.789 217.773 208.111 217.371 209.471 217.391C210.109 217.408 210.735 217.538 211.309 217.773C211.883 218.008 212.393 218.342 212.805 218.754C213.217 219.167 213.522 219.648 213.701 220.166C213.88 220.685 213.928 221.23 213.843 221.765Z" fill="white"/>
<path d="M152.944 264.023C167.698 263.959 186.064 264.64 200.378 257.424C201.992 256.657 203.254 255.452 203.96 254.002C210.441 250.863 210.638 247.326 210.638 247.326C215.617 242.836 215.192 239.209 215.192 239.209C215.192 239.209 222.781 235.453 220.839 231.195C218.698 226.435 208.498 232.636 200.438 233.137C181.935 234.308 155.266 231.568 149.908 231.452L152.944 264.023Z" fill="#D3766A"/>
<path d="M182.089 245.897C187.504 245.618 192.891 245.02 198.209 244.109C203.957 242.81 209.584 241.15 215.042 239.144C215.209 239.079 215.315 239.272 215.163 239.362C205.084 244.13 193.654 246.462 182.119 246.103C181.846 246.103 181.816 245.897 182.089 245.897Z" fill="#263238"/>
<path d="M181.299 255.456C186.551 254.787 195.795 253.565 210.549 247.197C210.549 247.197 210.655 247.197 210.549 247.262C201.903 252.32 191.763 255.234 181.269 255.674C180.996 255.687 180.95 255.507 181.299 255.456Z" fill="#263238"/>
<path d="M180.981 260.6C189.876 259.172 195.264 257.32 203.901 253.988C203.901 253.988 204.007 253.988 203.901 254.065C194.551 258.722 190.528 259.52 180.935 260.87C180.662 260.922 180.632 260.665 180.981 260.6Z" fill="#263238"/>
<path d="M137.616 229.407L140.303 266.378C140.303 266.378 92.414 264.345 80.271 252.137C68.128 239.93 61.8591 200.078 62.6484 183.561C63.4377 167.044 73.4405 165.372 81.9406 180.603C90.4407 195.833 105.999 224.661 106.773 225.458C107.547 226.256 137.616 229.407 137.616 229.407Z" fill="#C8C8FF"/>
<path d="M132.863 247.455C132.756 244.78 132.589 242.104 132.422 239.428C132.331 238.142 132.271 236.856 132.134 235.569C131.997 234.283 131.982 232.765 131.724 231.401C131.724 231.381 131.715 231.361 131.698 231.347C131.68 231.332 131.657 231.324 131.633 231.324C131.609 231.324 131.586 231.332 131.569 231.347C131.552 231.361 131.542 231.381 131.542 231.401C131.39 232.778 131.542 234.193 131.542 235.582C131.542 236.971 131.542 238.155 131.542 239.441C131.542 242.117 131.618 244.792 131.739 247.468C131.952 252.832 132.362 258.171 132.847 263.522C132.847 263.549 132.86 263.575 132.883 263.595C132.906 263.614 132.937 263.625 132.969 263.625C133.001 263.625 133.032 263.614 133.055 263.595C133.078 263.575 133.09 263.549 133.09 263.522C133.075 258.171 133.06 252.819 132.863 247.455Z" fill="#263238"/>
<path d="M93.8079 259.018C89.1758 258.013 84.969 255.927 81.6649 252.998C78.1468 249.743 75.5877 245.829 74.197 241.575C70.5854 232.298 67.8497 222.791 66.0156 213.146C64.9835 207.666 64.1183 202.135 63.6022 196.591C63.6022 196.57 63.5926 196.551 63.5755 196.536C63.5585 196.522 63.5353 196.514 63.5111 196.514C63.487 196.514 63.4638 196.522 63.4467 196.536C63.4297 196.551 63.4201 196.57 63.4201 196.591C63.5111 200.544 63.7844 204.468 64.2397 208.361C64.1487 208.104 64.0576 207.834 63.9817 207.564C63.5263 205.93 63.0102 204.309 62.4638 202.675C62.4638 202.444 62.0084 202.56 62.054 202.778C62.3521 204.451 62.7574 206.108 63.2683 207.744C63.6629 208.94 64.0272 210.226 64.5585 211.423C65.2538 216.55 66.2672 221.642 67.5942 226.679C68.9148 231.632 70.4782 236.558 72.3604 241.395C74.0452 245.692 76.0336 249.846 79.8435 253.127C83.6392 256.272 88.4523 258.39 93.6713 259.211C93.7015 259.227 93.7377 259.231 93.7718 259.224C93.806 259.217 93.8354 259.198 93.8535 259.173C93.8716 259.147 93.877 259.116 93.8684 259.087C93.8599 259.059 93.8381 259.034 93.8079 259.018Z" fill="#263238"/>
<path d="M123.65 227.799C119.81 227.053 115.924 226.513 112.038 225.921L109.261 225.535C108.213 225.393 107.318 225.355 106.802 224.467C105.891 222.924 105.117 221.303 104.282 219.72C101.246 213.906 98.0738 208.143 94.8255 202.329C94.0059 200.232 93.2166 198.11 92.4728 196C92.4728 195.976 92.4616 195.953 92.4417 195.936C92.4218 195.919 92.3947 195.91 92.3666 195.91C92.3384 195.91 92.3114 195.919 92.2914 195.936C92.2715 195.953 92.2603 195.976 92.2603 196C92.6094 197.351 93.0496 198.676 93.5201 199.988C91.9213 197.183 90.282 194.396 88.6022 191.626C88.5112 191.498 88.2531 191.626 88.3138 191.729C91.3496 198.161 94.7041 204.516 98.1193 210.832C99.8497 214.022 101.565 217.264 103.326 220.389C104.16 221.894 104.935 223.451 105.83 224.93C106.726 226.41 108.441 226.307 110.111 226.525C114.664 227.091 119.096 227.657 123.62 227.992C123.787 228.056 123.802 227.889 123.65 227.799Z" fill="#263238"/>
</g>
<defs>
<clipPath id="clip0_1189_8970">
<rect width="676" height="589" fill="white" transform="translate(0.572266 0.357422)"/>
</clipPath>
</defs>
</svg>
