<svg width="275" height="201" viewBox="0 0 275 201" fill="none" xmlns="http://www.w3.org/2000/svg">
<g clip-path="url(#clip0_1200_25226)">
<path d="M252.429 56.5591L258.791 59.9006L259.994 58.2299C260.169 57.9938 260.418 57.8036 260.713 57.6807C261.008 57.5577 261.338 57.5068 261.666 57.5337C262.038 57.5504 262.411 57.5504 262.784 57.5337C263.113 57.526 263.438 57.5952 263.724 57.7337C264.009 57.8722 264.244 58.0748 264.402 58.319L265.481 60.0287L272.06 57.0325L270.975 55.3283C270.821 55.0818 270.751 54.8043 270.772 54.5262C270.793 54.2481 270.904 53.9803 271.093 53.7523C271.309 53.4931 271.507 53.2235 271.685 52.9447C271.842 52.7003 272.076 52.4972 272.36 52.3578C272.644 52.2183 272.969 52.1477 273.297 52.1539L275.587 52.2152L275.823 45.883L273.521 45.8273C273.192 45.8151 272.873 45.7259 272.6 45.5695C272.327 45.4132 272.111 45.196 271.975 44.9418C271.896 44.8026 271.817 44.6634 271.725 44.5297C271.633 44.3961 271.547 44.2568 271.455 44.1232C271.283 43.8862 271.192 43.6134 271.192 43.3351C271.192 43.0569 271.283 42.7841 271.455 42.5471L272.672 40.8763L266.31 37.5348L265.1 39.2056C264.924 39.4413 264.676 39.6315 264.381 39.7553C264.086 39.8791 263.757 39.9317 263.429 39.9073C263.057 39.8795 262.684 39.8683 262.31 39.8739C261.982 39.8819 261.658 39.8127 261.373 39.6741C261.089 39.5355 260.855 39.3328 260.698 39.0886L259.619 37.3789L253.041 40.3751L254.126 42.0849C254.279 42.3307 254.349 42.6078 254.327 42.8851C254.305 43.1625 254.192 43.4292 254.001 43.6554C253.788 43.9131 253.593 44.1809 253.416 44.4573C253.261 44.7036 253.028 44.9085 252.743 45.0491C252.458 45.1898 252.133 45.2606 251.804 45.2537L249.508 45.1924L249.277 51.5246L251.573 51.5803C251.911 51.5942 252.236 51.6883 252.513 51.8518C252.79 52.0154 253.007 52.2416 253.139 52.5048C253.218 52.644 253.297 52.7832 253.389 52.9224C253.481 53.0617 253.567 53.1953 253.659 53.329C253.831 53.566 253.922 53.8388 253.922 54.117C253.922 54.3953 253.831 54.6681 253.659 54.9051L252.429 56.5591ZM257.152 51.196C256.582 50.2917 256.341 49.2646 256.46 48.2444C256.579 47.2242 257.052 46.2567 257.82 45.4643C258.589 44.6718 259.617 44.0899 260.776 43.7921C261.935 43.4943 263.172 43.494 264.331 43.7913C265.49 44.0885 266.519 44.6699 267.288 45.462C268.056 46.2541 268.531 47.2213 268.65 48.2414C268.77 49.2616 268.529 50.2888 267.96 51.1934C267.39 52.0979 266.516 52.8392 265.448 53.3234C264.739 53.6461 263.961 53.847 263.16 53.9147C262.359 53.9824 261.549 53.9155 260.779 53.7179C260.008 53.5202 259.291 53.1957 258.668 52.763C258.046 52.3302 257.531 51.7977 257.152 51.196Z" fill="#EBEBEB"/>
<path d="M271.098 90.463L273.73 94.3113L275.125 93.6263C275.327 93.5292 275.557 93.4814 275.789 93.4883C276.021 93.4952 276.247 93.5564 276.44 93.6653C276.652 93.7868 276.872 93.8984 277.098 93.9995C277.298 94.0898 277.465 94.2248 277.581 94.3897C277.697 94.5546 277.758 94.7432 277.756 94.9351V96.2773H283.019V94.9184C283.021 94.7236 283.086 94.533 283.208 94.3678C283.33 94.2026 283.504 94.0693 283.71 93.9828C283.937 93.8817 284.156 93.7701 284.368 93.6486C284.562 93.5403 284.787 93.4794 285.02 93.4725C285.252 93.4656 285.482 93.5131 285.684 93.6096L287.072 94.2946L289.704 90.4463L288.309 89.7669C288.11 89.6683 287.948 89.525 287.84 89.3529C287.732 89.1809 287.682 88.9868 287.697 88.7923C287.697 88.6809 287.697 88.5751 287.697 88.4637C287.697 88.3523 287.697 88.2465 287.697 88.1351C287.681 87.9411 287.729 87.7472 287.836 87.575C287.943 87.4029 288.104 87.2594 288.302 87.1605L289.704 86.4755L287.072 82.6328L285.677 83.3122C285.476 83.4113 285.246 83.4602 285.013 83.4533C284.78 83.4464 284.554 83.384 284.362 83.2733C284.144 83.1563 283.921 83.0449 283.704 82.9447C283.498 82.8576 283.325 82.7242 283.203 82.5591C283.081 82.394 283.015 82.2037 283.013 82.0091V80.6836H277.75V82.0425C277.75 82.2343 277.69 82.4226 277.574 82.5874C277.458 82.7522 277.291 82.8872 277.092 82.9781C276.862 83.0783 276.638 83.1897 276.434 83.3067C276.241 83.4174 276.015 83.4798 275.783 83.4867C275.55 83.4936 275.32 83.4447 275.118 83.3457L273.723 82.6662L271.092 86.5089L272.487 87.1939C272.685 87.2918 272.848 87.4351 272.955 87.6075C273.062 87.7799 273.109 87.9744 273.092 88.1686C273.092 88.2744 273.092 88.3857 273.092 88.4971C273.092 88.6085 273.092 88.7143 273.092 88.8257C273.109 89.0198 273.061 89.214 272.954 89.3863C272.847 89.5585 272.685 89.702 272.487 89.8003L271.098 90.463ZM276.112 88.4804C276.112 87.7609 276.364 87.0576 276.836 86.4594C277.308 85.8613 277.98 85.3951 278.765 85.1201C279.55 84.845 280.415 84.7733 281.248 84.914C282.082 85.0548 282.847 85.4017 283.448 85.9109C284.048 86.42 284.457 87.0686 284.622 87.7744C284.787 88.4802 284.701 89.2116 284.375 89.876C284.049 90.5404 283.497 91.108 282.79 91.5069C282.082 91.9058 281.251 92.1182 280.401 92.1171C279.837 92.1171 279.279 92.023 278.758 91.8402C278.237 91.6573 277.764 91.3894 277.366 91.0516C276.967 90.7138 276.651 90.3129 276.436 89.8717C276.221 89.4305 276.111 88.9577 276.112 88.4804Z" fill="#EBEBEB"/>
<path d="M0.77611 160.095L3.40769 163.938L4.79585 163.258C4.99714 163.16 5.22692 163.111 5.45937 163.116C5.69181 163.122 5.91771 163.183 6.11165 163.292C6.32355 163.413 6.54318 163.525 6.76954 163.626C6.96954 163.716 7.13655 163.851 7.25251 164.016C7.36846 164.181 7.42895 164.37 7.42744 164.561V165.92H12.6906V164.561C12.6922 164.367 12.7576 164.176 12.8796 164.011C13.0015 163.846 13.1753 163.712 13.3814 163.626C13.6078 163.525 13.8274 163.413 14.0393 163.292C14.2327 163.182 14.4587 163.12 14.6915 163.115C14.9243 163.109 15.1543 163.158 15.3551 163.258L16.7498 163.938L19.3814 160.095L17.9867 159.41C17.7865 159.313 17.6229 159.17 17.5146 158.997C17.4064 158.825 17.3579 158.63 17.3748 158.435C17.3748 158.324 17.3748 158.218 17.3748 158.107C17.3748 157.995 17.3748 157.89 17.3748 157.778C17.3588 157.584 17.407 157.39 17.5139 157.218C17.6208 157.046 17.7822 156.902 17.9801 156.804L19.3814 156.124L16.7498 152.276L15.3551 152.961C15.1527 153.057 14.9228 153.105 14.6907 153.098C14.4586 153.091 14.2332 153.03 14.0393 152.922C13.8275 152.8 13.6079 152.689 13.3814 152.588C13.1753 152.501 13.0015 152.368 12.8796 152.203C12.7576 152.038 12.6922 151.847 12.6906 151.652V150.299H7.42744V151.658C7.42895 151.85 7.36846 152.038 7.25251 152.203C7.13655 152.368 6.96954 152.503 6.76954 152.593C6.54308 152.694 6.32344 152.806 6.11165 152.927C5.91776 153.036 5.69236 153.097 5.46023 153.104C5.22809 153.11 4.99821 153.063 4.79585 152.966L3.40112 152.281L0.769531 156.13L2.16427 156.809C2.36213 156.908 2.52356 157.052 2.63047 157.224C2.73737 157.396 2.78553 157.59 2.76953 157.784C2.76953 157.895 2.76953 158.001 2.76953 158.112C2.76953 158.224 2.76953 158.33 2.76953 158.441C2.78526 158.636 2.73705 158.83 2.63023 159.003C2.52341 159.176 2.36214 159.321 2.16427 159.421L0.77611 160.095ZM5.76954 158.096C5.76954 157.376 6.02167 156.673 6.49402 156.075C6.96636 155.476 7.63771 155.01 8.42309 154.735C9.20848 154.46 10.0726 154.389 10.9061 154.529C11.7397 154.67 12.5051 155.017 13.1057 155.526C13.7063 156.035 14.1149 156.684 14.2799 157.39C14.4449 158.095 14.3589 158.827 14.0328 159.491C13.7066 160.156 13.1549 160.723 12.4476 161.122C11.7402 161.521 10.909 161.733 10.059 161.732C9.49516 161.732 8.93684 161.638 8.41599 161.455C7.89513 161.273 7.42197 161.005 7.02357 160.667C6.62517 160.329 6.30935 159.928 6.09417 159.487C5.87899 159.046 5.76868 158.573 5.76954 158.096Z" fill="#EBEBEB"/>
<path d="M31.572 -23.459H30.9141V23.1939H31.572V-23.459Z" fill="#C7C7C7"/>
<path d="M50.3818 38.8099L48.8424 41.6725H13.6449L12.1055 38.8099L27.0923 30.0273H35.395L50.3818 38.8099Z" fill="#EBEBEB"/>
<path d="M36.4343 21.5684L35.3949 30.0279H27.0922L26.0527 21.5684H36.4343Z" fill="#DBDBDB"/>
<path d="M50.3818 38.8105L48.8424 41.6731H13.6384L12.1055 38.8105H50.3818Z" fill="#DBDBDB"/>
<path d="M77.8552 -23.459H77.1973V13.9547H77.8552V-23.459Z" fill="#C7C7C7"/>
<path d="M96.6631 29.5641L95.1236 32.4322H59.9196L58.3867 29.5641L73.3736 20.7871H81.6762L96.6631 29.5641Z" fill="#EBEBEB"/>
<path d="M82.7175 12.3281L81.6781 20.7877H73.3754L72.3359 12.3281H82.7175Z" fill="#DBDBDB"/>
<path d="M96.6565 29.5703L95.117 32.4329H59.9196L58.3867 29.5703H96.6565Z" fill="#DBDBDB"/>
<path d="M219.632 128.953H193.322V150.355H219.632V128.953Z" fill="#EBEBEB"/>
<path d="M229.633 128.953H219.633V150.355H229.633V128.953Z" fill="#C7C7C7"/>
<path d="M193.322 139.656H219.632L199.085 140.208L193.322 139.656Z" fill="#C7C7C7"/>
<path d="M219.632 147.771H193.322L213.868 148.323L219.632 147.771Z" fill="#C7C7C7"/>
<path d="M193.322 133.676H209.987L195.171 134.127L193.322 133.676Z" fill="#C7C7C7"/>
<path d="M219.631 144.623H202.967L217.783 145.069L219.631 144.623Z" fill="#C7C7C7"/>
<path d="M199.633 131.291H218.435L215.297 131.564L199.633 131.291Z" fill="#C7C7C7"/>
<path d="M195.881 141.951H214.677L211.545 142.218L195.881 141.951Z" fill="#C7C7C7"/>
<path d="M207.441 135.713H219.632L221.81 136.431L207.441 135.713Z" fill="#EBEBEB"/>
<path d="M189.961 135.713H202.158L204.336 136.431L189.961 135.713Z" fill="#EBEBEB"/>
<path d="M205.611 145.332H193.414L191.236 146.05L205.611 145.332Z" fill="#EBEBEB"/>
<path d="M219.633 142.887H229.422L231.607 143.611L219.633 142.887Z" fill="#C7C7C7"/>
<path d="M223.051 139.657H230.643L229.63 139.066L223.051 139.657Z" fill="#C7C7C7"/>
<path d="M180.467 192.128H258.224L260.724 150.359H177.967L180.467 192.128Z" fill="#EBEBEB"/>
<path d="M252.546 169.502H184.02L183.072 154.961H253.651L252.546 169.502ZM184.645 168.945H251.928L252.947 155.518H183.77L184.645 168.945Z" fill="#DBDBDB"/>
<path d="M251.62 186.187H185.988L185.219 173.055H252.587L251.62 186.187ZM186.613 185.63H251.002L251.89 173.612H185.91L186.613 185.63Z" fill="#DBDBDB"/>
<path d="M226.166 163.827H211.62L211.08 160.285H226.718L226.166 163.827ZM212.185 163.27H225.593L225.962 160.842H211.817L212.185 163.27Z" fill="#DBDBDB"/>
<path d="M226.166 181.386H211.62L211.08 177.85H226.718L226.166 181.386ZM212.185 180.829H225.593L225.962 178.407H211.817L212.185 180.829Z" fill="#DBDBDB"/>
<path d="M191.249 192.129L190.493 196.679L188.973 205.818H186.006V192.129H191.249Z" fill="#EBEBEB"/>
<path d="M191.249 192.129L190.493 196.679H186.006V192.129H191.249Z" fill="#DBDBDB"/>
<path d="M247.441 192.129L248.191 196.679L249.711 205.818H252.685V192.129H247.441Z" fill="#EBEBEB"/>
<path d="M247.441 192.129L248.191 196.679H252.685V192.129H247.441Z" fill="#DBDBDB"/>
<path d="M82.496 148.262C81.9953 151.2 82.174 154.192 83.0223 157.073C83.4233 158.407 83.9559 159.711 84.6144 160.971C85.4434 162.58 86.3118 164.157 86.1013 165.916C85.9039 166.033 86.5881 166.017 86.6144 165.844C92.1802 163.16 99.325 162.67 103.608 158.281C105.634 156.204 106.661 153.57 107.147 150.935C107.674 148.067 107.805 144.893 106.943 142.064C106.207 139.674 104.555 137.369 101.904 136.199C99.2526 135.03 95.575 135.085 92.6934 135.848C86.4697 137.491 83.3973 143.166 82.496 148.262Z" fill="#C8C8FF"/>
<path d="M79.6409 183.158C80.3953 181.012 81.1606 178.87 81.9369 176.731C83.4633 172.543 85.0554 168.378 86.8119 164.245C87.8646 161.78 88.9764 159.333 90.1475 156.905C90.019 155.378 89.7994 153.858 89.4896 152.35C89.029 150.523 88.3514 148.758 87.7198 146.97C87.6804 146.858 87.8909 146.803 87.9435 146.909C89.1935 149.37 90.8251 152.522 90.8712 155.441C92.2264 152.701 93.6848 149.998 95.2462 147.332C95.4224 145.079 95.3387 142.816 94.9962 140.576C94.9962 140.476 95.1672 140.443 95.187 140.576C95.6622 142.536 95.8457 144.538 95.733 146.535C96.9304 144.536 98.187 142.559 99.5291 140.615C99.6541 140.437 99.937 140.615 99.8317 140.794C97.7396 144.202 95.7988 147.683 93.9764 151.214C96.5406 149.332 99.503 147.879 102.707 146.931C102.845 146.892 102.95 147.059 102.812 147.109C99.3151 148.381 96.1155 150.173 93.3646 152.4C92.0488 154.999 90.8032 157.598 89.6277 160.197C93.108 157.306 97.8777 155.407 102.49 154.388C102.647 154.349 102.687 154.555 102.536 154.594C97.2001 155.953 93.0554 158.492 88.9962 161.589C88.5225 162.651 88.0597 163.714 87.608 164.78C85.8843 168.818 84.2593 172.889 82.6935 176.971C81.9435 178.931 81.2067 180.892 80.483 182.852C79.7067 184.968 79.0948 187.201 78.0817 189.24C77.983 189.435 77.5751 189.39 77.6277 189.156C78.1755 187.129 78.8474 185.127 79.6409 183.158Z" fill="#263238"/>
<path d="M88.8711 144.14C89.8622 145.424 90.5441 146.86 90.8777 148.367C90.8777 148.376 90.8735 148.385 90.8661 148.391C90.8587 148.397 90.8487 148.401 90.8382 148.401C90.8277 148.401 90.8177 148.397 90.8103 148.391C90.8029 148.385 90.7987 148.376 90.7987 148.367C90.1781 146.947 89.453 145.562 88.6277 144.218C88.5422 144.101 88.779 144.018 88.8711 144.14Z" fill="#263238"/>
<path d="M98.8078 153.959C100.354 153.23 102.044 152.745 103.795 152.527C103.841 152.527 103.867 152.577 103.795 152.594C102.992 152.878 102.143 153.073 101.334 153.34C100.525 153.608 99.7222 153.897 98.8933 154.17C98.8655 154.168 98.839 154.159 98.817 154.145C98.795 154.13 98.7786 154.11 98.7695 154.088C98.7605 154.066 98.7593 154.041 98.7661 154.018C98.7728 153.996 98.7873 153.975 98.8078 153.959Z" fill="#263238"/>
<path d="M101.61 142.148C102.11 141.823 102.648 141.541 103.215 141.307C103.233 141.302 103.252 141.301 103.271 141.306C103.289 141.311 103.304 141.322 103.315 141.335C103.326 141.348 103.33 141.365 103.329 141.381C103.328 141.397 103.32 141.412 103.307 141.424C102.814 141.758 102.283 142.049 101.721 142.293C101.623 142.348 101.504 142.204 101.61 142.148Z" fill="#263238"/>
<path d="M63.7278 164.274C67.7344 165.282 71.7673 166.212 75.7805 167.209C76.1226 167.298 82.9055 156.299 80.4581 150.635C79.2893 148.067 77.4594 145.752 75.1014 143.858C72.7435 141.965 69.9167 140.539 66.8265 139.686C63.9647 138.861 60.4384 138.171 57.4186 138.739C54.7278 139.24 52.8133 141.106 51.9515 143.244C50.7607 146.157 51.162 149.627 51.8068 152.595C52.3237 155.385 53.6834 158.016 55.7541 160.23C57.8857 162.374 60.6028 163.488 63.7278 164.274Z" fill="#C8C8FF"/>
<path d="M57.9104 153.82C60.4557 154.87 63.0956 155.747 65.8051 156.443C67.6111 156.85 69.372 157.388 71.0683 158.052C69.3775 154.856 67.5156 151.726 65.5419 148.624C62.9564 147.989 60.2327 146.998 58.3051 145.449C58.2884 145.435 58.2773 145.418 58.2733 145.398C58.2693 145.379 58.2726 145.358 58.2827 145.341C58.2929 145.323 58.3094 145.308 58.3299 145.299C58.3505 145.289 58.374 145.285 58.3972 145.288C60.5354 146.569 62.8906 147.332 65.2525 148.201C64.7218 147.365 64.1823 146.532 63.634 145.7C63.4827 145.466 63.8577 145.238 64.0419 145.46C66.1484 148.053 68.0516 150.76 69.7393 153.564C70.1682 151.107 70.3048 148.62 70.1472 146.14C70.1472 146.127 70.1535 146.114 70.1646 146.104C70.1757 146.095 70.1907 146.09 70.2064 146.09C70.2221 146.09 70.2372 146.095 70.2483 146.104C70.2594 146.114 70.2656 146.127 70.2656 146.14C70.7691 148.843 70.7358 151.599 70.167 154.293C71.5749 156.671 72.8577 159.105 74.0091 161.572C74.463 160.091 75.0617 158.632 75.4564 157.117C76.0634 154.98 76.2567 152.774 76.0288 150.584C76.0288 150.571 76.035 150.558 76.0461 150.549C76.0573 150.539 76.0723 150.534 76.088 150.534C76.1037 150.534 76.1188 150.539 76.1299 150.549C76.141 150.558 76.1472 150.571 76.1472 150.584C76.8553 154.638 76.2739 158.779 74.463 162.58C75.1209 164.067 75.7788 165.554 76.3578 167.035C79.3803 174.647 81.1707 182.569 81.6801 190.587C81.6724 190.62 81.6515 190.65 81.6209 190.671C81.5903 190.692 81.5519 190.704 81.5124 190.704C81.4728 190.704 81.4344 190.692 81.4039 190.671C81.3733 190.65 81.3523 190.62 81.3446 190.587C80.293 182.676 78.2914 174.876 75.3709 167.308C74.2064 164.351 72.8643 161.477 71.4235 158.659C69.0551 158.063 66.6933 157.262 64.3709 156.577C62.0431 155.988 59.8466 155.078 57.8709 153.881C57.7393 153.887 57.8314 153.786 57.9104 153.82Z" fill="#263238"/>
<path d="M54.1751 150.628C56.629 151.363 58.9514 152.399 61.4119 153.146C61.5303 153.185 61.4646 153.335 61.3461 153.318C58.754 152.862 56.1817 152.204 54.1093 150.745C54.004 150.69 54.0895 150.6 54.1751 150.628Z" fill="#263238"/>
<path d="M74.1874 146.147C74.1545 146.041 74.3453 145.974 74.3848 146.091C75.0427 148.001 75.5229 150.034 74.8716 151.989C74.8662 152.005 74.8547 152.02 74.8386 152.03C74.8226 152.04 74.803 152.046 74.7828 152.046C74.7626 152.046 74.743 152.04 74.7269 152.03C74.7109 152.02 74.6993 152.005 74.694 151.989C74.5887 150.012 74.7203 148.074 74.1874 146.147Z" fill="#263238"/>
<path d="M64.0639 141.729C64.8482 142.678 65.2244 143.826 65.1297 144.981C65.1297 145.053 64.9915 145.098 64.9652 145.009C64.6691 143.895 64.1691 142.915 63.7744 141.857C63.7601 141.825 63.7601 141.79 63.7744 141.758C63.7887 141.726 63.8163 141.7 63.852 141.684C63.8876 141.668 63.9289 141.664 63.9679 141.672C64.007 141.68 64.0411 141.7 64.0639 141.729Z" fill="#263238"/>
<path d="M111.426 169.124C110.255 172.282 107.478 176.648 103.031 176.681C100.169 176.681 97.2811 176.42 94.4061 176.381C91.3271 176.342 88.2416 176.347 85.1955 176.503C84.9455 176.503 85.564 168.706 92.9587 164.891C95.0377 163.828 97.564 163.488 99.9192 163.059C102.612 162.518 105.376 162.275 108.143 162.335C109.84 162.391 111.255 162.697 111.86 164.167C112.465 165.638 111.992 167.62 111.426 169.124Z" fill="#C8C8FF"/>
<path d="M108.241 165.169C106.445 165.559 104.629 166.01 102.826 166.495C103.296 166.061 103.795 165.65 104.32 165.264C105.089 164.707 105.945 164.284 106.773 163.805C106.846 163.766 106.806 163.654 106.714 163.682C104.966 164.297 103.455 165.314 102.352 166.617C100.102 167.235 97.8787 167.915 95.734 168.655C94.2511 169.17 92.8301 169.804 91.4906 170.549C91.9223 169.759 92.4353 169.002 93.0235 168.288C94.0103 167.213 95.3393 166.617 96.6222 165.849C96.6483 165.836 96.6675 165.815 96.6756 165.791C96.6836 165.766 96.6797 165.74 96.6649 165.718C96.6501 165.696 96.6255 165.679 96.5965 165.672C96.5675 165.666 96.5365 165.669 96.5103 165.681C95.1648 166.175 93.956 166.901 92.9612 167.813C91.9665 168.725 91.2079 169.803 90.734 170.978C89.1945 171.912 87.7882 172.994 86.5432 174.202C81.6419 178.908 77.7866 185.174 77.7734 191.561C77.7734 191.712 78.0629 191.756 78.0958 191.6C79.356 185.337 82.5801 179.474 87.4314 174.626C87.7866 174.28 88.1419 173.946 88.5103 173.629C89.8517 173.475 91.2029 173.392 92.5564 173.378C94.1287 173.378 95.6945 173.573 97.2603 173.679C99.8458 173.857 102.701 173.885 105.03 172.782C105.135 172.732 105.063 172.582 104.951 172.621C99.7537 174.219 94.3064 172.192 89.1024 173.144C91.3248 171.347 93.9302 169.924 96.78 168.951L97.2537 168.789C100.589 169.129 104.109 169.864 107.352 168.945C107.37 168.939 107.384 168.927 107.393 168.913C107.401 168.899 107.403 168.882 107.399 168.866C107.394 168.851 107.382 168.837 107.367 168.828C107.351 168.819 107.332 168.815 107.313 168.817C104.175 169.48 101.168 168.644 98.1024 168.511C101.477 167.397 104.912 166.517 108.293 165.414C108.543 165.336 108.55 165.102 108.241 165.169Z" fill="#263238"/>
<path d="M109.715 167.948C108.104 168.124 106.484 168.229 104.86 168.26C104.827 168.26 104.814 168.31 104.86 168.316C106.492 168.57 108.174 168.479 109.755 168.048C109.827 168.032 109.794 167.937 109.715 167.948Z" fill="#263238"/>
<path d="M98.7531 165.236C97.8582 165.581 97.0446 166.061 96.3518 166.651C96.2663 166.718 96.3847 166.846 96.4768 166.785C96.8847 166.534 97.2992 166.3 97.7268 166.066C98.1283 165.877 98.517 165.669 98.8913 165.443C98.9141 165.424 98.9289 165.399 98.9334 165.372C98.9379 165.345 98.9317 165.318 98.916 165.294C98.9002 165.271 98.8757 165.252 98.8462 165.242C98.8167 165.232 98.784 165.23 98.7531 165.236Z" fill="#263238"/>
<path d="M72.6295 175.405C72.6887 175.511 72.5111 175.611 72.4387 175.5C72.4259 175.516 72.4094 175.53 72.3901 175.54C72.3709 175.551 72.3494 175.558 72.3269 175.561C69.3492 176.164 66.3302 176.611 63.2874 176.898C60.84 177.082 58.0242 177.199 55.8795 175.996C52.9782 174.364 51.0703 170.009 52.6361 167.246C54.4913 163.961 60.0835 165.743 62.8927 166.912C67.2107 168.694 70.6556 171.698 72.6295 175.405Z" fill="#C8C8FF"/>
<path d="M74.8017 176.926C73.1727 175.591 71.3617 174.424 69.407 173.451C68.0025 171.563 66.1359 169.953 63.9333 168.728C63.8281 168.667 63.7359 168.806 63.8346 168.873C65.5819 170.059 67.1312 171.439 68.4399 172.978C66.2683 171.964 64.0123 171.085 61.6899 170.349C60.8568 169.043 59.5926 167.971 58.0517 167.264C58.0517 167.264 57.9794 167.264 58.0123 167.303C59.2844 168.122 60.3947 169.107 61.3017 170.221C59.9267 169.787 58.5386 169.386 57.1504 168.996C57.0254 168.957 56.9794 169.118 57.0978 169.157C59.5649 169.976 62.0978 170.828 64.5452 171.836C61.5572 172.237 58.5133 172.237 55.5254 171.836C55.5093 171.833 55.4925 171.835 55.4782 171.842C55.464 171.849 55.4533 171.86 55.4484 171.874C55.4434 171.887 55.4445 171.901 55.4515 171.914C55.4584 171.926 55.4707 171.936 55.4859 171.942C58.6033 172.723 61.9144 172.766 65.0583 172.064C66.6193 172.706 68.1351 173.424 69.5978 174.214C68.368 174.131 67.1303 174.217 65.9333 174.47C63.8175 174.887 61.6517 175.094 59.4794 175.088C59.4004 175.088 59.3807 175.2 59.4794 175.211C63.2228 175.768 66.7623 174.314 70.4662 174.693C71.8427 175.485 73.1348 176.378 74.3281 177.361C76.6402 179.318 78.5443 181.593 79.9597 184.088C81.5189 186.778 82.3676 189.624 83.6307 192.403C83.6346 192.416 83.6414 192.428 83.6508 192.438C83.6602 192.449 83.6719 192.458 83.6854 192.464C83.6988 192.471 83.7137 192.476 83.7291 192.477C83.7446 192.479 83.7603 192.479 83.7755 192.475C83.7906 192.472 83.8048 192.466 83.8173 192.458C83.8297 192.45 83.8402 192.44 83.8482 192.429C83.8561 192.418 83.8613 192.405 83.8635 192.392C83.8657 192.379 83.8649 192.366 83.861 192.353C82.7425 186.873 79.5189 180.83 74.8017 176.926Z" fill="#263238"/>
<path d="M63.5163 169.415C63.2694 169.043 62.9464 168.711 62.5624 168.434C62.2485 168.145 61.8737 167.907 61.4571 167.733C61.4497 167.732 61.4422 167.733 61.4354 167.735C61.4287 167.738 61.4229 167.742 61.4187 167.747C61.4146 167.753 61.4123 167.759 61.4121 167.765C61.4119 167.771 61.4138 167.777 61.4176 167.783C61.7268 168.078 62.1545 168.295 62.4834 168.579C62.8124 168.863 63.0953 169.192 63.4308 169.47C63.4351 169.475 63.4405 169.479 63.4466 169.482C63.4528 169.485 63.4595 169.487 63.4666 169.488C63.4736 169.489 63.4807 169.488 63.4876 169.487C63.4944 169.485 63.5008 169.482 63.5064 169.479C63.5121 169.475 63.5168 169.47 63.5203 169.465C63.5238 169.46 63.5261 169.454 63.527 169.448C63.528 169.442 63.5275 169.436 63.5256 169.431C63.5238 169.425 63.5206 169.419 63.5163 169.415Z" fill="#263238"/>
<path d="M57.3478 171.113C56.7952 170.996 56.2097 171.007 55.6439 170.907C55.0841 170.795 54.5327 170.656 53.9926 170.489C53.976 170.483 53.9573 170.483 53.9407 170.489C53.924 170.494 53.9107 170.505 53.9038 170.519C53.8968 170.534 53.8967 170.549 53.9035 170.563C53.9102 170.578 53.9234 170.589 53.9399 170.595C54.959 171.127 56.1561 171.362 57.3478 171.263C57.3673 171.258 57.3845 171.249 57.3967 171.235C57.4089 171.221 57.4155 171.205 57.4155 171.188C57.4155 171.171 57.4089 171.154 57.3967 171.141C57.3845 171.127 57.3673 171.117 57.3478 171.113Z" fill="#263238"/>
<path d="M90.2159 185.604L89.7225 190.321L88.058 206.26H73.3146L71.229 190.321L70.6172 185.604H90.2159Z" fill="#455A64"/>
<path d="M90.2159 185.604L89.7225 190.321H71.229L70.6172 185.604H90.2159Z" fill="#263238"/>
<path d="M91.676 184.311H69.1562V188.142H91.676V184.311Z" fill="#455A64"/>
<path d="M98.0688 219.203H93.6543L124.575 114.33H135.569L98.0688 219.203Z" fill="#455A64"/>
<path d="M124.577 114.334H135.57L127.004 138.287H117.518L124.577 114.334Z" fill="#263238"/>
<path d="M140.865 213.634H136.457L139.747 114.33H150.733L140.865 213.634Z" fill="#455A64"/>
<path d="M139.747 114.334H150.734L148.352 138.287H138.951L139.747 114.334Z" fill="#263238"/>
<path d="M183.859 219.203H188.273L163.931 114.33H152.938L183.859 219.203Z" fill="#455A64"/>
<path d="M169.49 138.287H159.997L152.938 114.334H163.931L169.49 138.287Z" fill="#263238"/>
<path d="M174.812 174.275H110.654V176.325H174.812V174.275Z" fill="#455A64"/>
<path d="M232.622 11.6562H57.8516V120.823H232.622V11.6562Z" fill="#EBEBEB"/>
<path d="M239.03 7.30664H51.457V15.3986H239.03V7.30664Z" fill="#37474F"/>
<path d="M178.556 29.1094H111.924V30.3569H178.556V29.1094Z" fill="#C7C7C7"/>
<path d="M167.162 31.7168H123.32V32.9643H167.162V31.7168Z" fill="#C7C7C7"/>
<path d="M90.5762 42.4875L148.043 42.3594C167.195 42.4039 180.754 42.3594 199.905 42.4875C180.754 42.5989 167.195 42.571 148.043 42.6211L90.5762 42.4875Z" fill="#C7C7C7"/>
<path d="M90.5762 46.4582L148.043 46.3301C167.195 46.3746 180.754 46.3301 199.905 46.4582C180.754 46.5696 167.195 46.5417 148.043 46.5863L90.5762 46.4582Z" fill="#C7C7C7"/>
<path d="M90.5762 50.423L148.043 50.2949C167.195 50.3395 180.754 50.2949 199.905 50.423C180.754 50.5344 167.195 50.5066 148.043 50.5511L90.5762 50.423Z" fill="#C7C7C7"/>
<path d="M90.5762 54.3934L148.043 54.2598C167.195 54.3099 180.754 54.2598 199.905 54.3934C180.754 54.5048 167.195 54.477 148.043 54.5215L90.5762 54.3934Z" fill="#C7C7C7"/>
<path d="M90.5762 58.3586L148.043 58.2305C167.195 58.275 180.754 58.2305 199.905 58.3586C180.754 58.4699 167.195 58.4421 148.043 58.4867L90.5762 58.3586Z" fill="#C7C7C7"/>
<path d="M90.5762 62.3078L148.043 62.1797C167.195 62.2242 180.754 62.1797 199.905 62.3078C180.754 62.4192 167.195 62.3913 148.043 62.4414L90.5762 62.3078Z" fill="#C7C7C7"/>
<path d="M90.5762 66.2961L148.043 66.168C167.195 66.2125 180.754 66.168 199.905 66.2961C180.754 66.4074 167.195 66.3796 148.043 66.4242L90.5762 66.2961Z" fill="#C7C7C7"/>
<path d="M90.5762 70.2609L148.043 70.1328C167.195 70.1774 180.754 70.1328 199.905 70.2609C180.754 70.3723 167.195 70.3444 148.043 70.389L90.5762 70.2609Z" fill="#C7C7C7"/>
<path d="M90.5762 74.2313L148.043 74.0977C167.195 74.1478 180.754 74.0977 199.905 74.2313C180.754 74.3427 167.195 74.3093 148.043 74.3594L90.5762 74.2313Z" fill="#C7C7C7"/>
<path d="M90.5762 78.1964L148.043 78.0684C167.195 78.1129 180.754 78.0684 199.905 78.1964C180.754 78.3078 167.195 78.28 148.043 78.3245L90.5762 78.1964Z" fill="#C7C7C7"/>
<path d="M90.5762 82.1613L148.043 82.0332C167.195 82.0778 180.754 82.0332 199.905 82.1613C180.754 82.2727 167.195 82.2448 148.043 82.2894L90.5762 82.1613Z" fill="#C7C7C7"/>
<path d="M90.5762 86.132L148.043 86.0039C167.195 86.0485 180.754 86.0039 199.905 86.132C180.754 86.2434 167.195 86.2155 148.043 86.2601L90.5762 86.132Z" fill="#C7C7C7"/>
<path d="M90.5762 90.0988L148.043 89.9707C167.195 90.0153 180.754 89.9707 199.905 90.0988C180.754 90.2102 167.195 90.1823 148.043 90.2269L90.5762 90.0988Z" fill="#C7C7C7"/>
<path d="M90.5762 94.0519L148.043 93.9238C167.195 93.9684 180.754 93.9238 199.905 94.0519C180.754 94.1689 167.195 94.1355 148.043 94.1856L90.5762 94.0519Z" fill="#C7C7C7"/>
<path d="M90.5762 98.0343L148.043 97.9062C167.195 97.9508 180.754 97.9062 199.905 98.0343C180.754 98.1457 167.195 98.1179 148.043 98.1624L90.5762 98.0343Z" fill="#C7C7C7"/>
<path d="M111.444 87.9375H102.727V102.657H111.444V87.9375Z" fill="#C8C8FF"/>
<path d="M127.616 76.8047H118.898V102.662H127.616V76.8047Z" fill="#C8C8FF"/>
<path d="M143.78 74.3379H135.062V102.657H143.78V74.3379Z" fill="#C8C8FF"/>
<path d="M159.951 67.0312H151.234V102.657H159.951V67.0312Z" fill="#C8C8FF"/>
<path d="M176.116 51.4648H167.398V102.657H176.116V51.4648Z" fill="#C8C8FF"/>
<path d="M192.287 45.1484H183.57V102.656H192.287V45.1484Z" fill="#C8C8FF"/>
<path d="M93.6935 39.7031L93.9303 55.4416L94.0948 71.18C94.2066 81.6723 94.2395 92.1647 94.2593 102.657L93.6935 102.178H121.647L149.601 102.234L177.555 102.39L199.924 102.674L177.555 102.958L149.601 103.119L121.647 103.175H93.6935H93.1211V102.696C93.1211 92.2036 93.1737 81.7113 93.2856 71.219L93.45 55.4806L93.6935 39.7031Z" fill="#C7C7C7"/>
<path d="M111.444 105.986H102.727V106.655H111.444V105.986Z" fill="#C7C7C7"/>
<path d="M127.616 105.986H118.898V106.655H127.616V105.986Z" fill="#C7C7C7"/>
<path d="M143.78 105.986H135.062V106.655H143.78V105.986Z" fill="#C7C7C7"/>
<path d="M159.951 105.986H151.234V106.655H159.951V105.986Z" fill="#C7C7C7"/>
<path d="M176.116 105.986H167.398V106.655H176.116V105.986Z" fill="#C7C7C7"/>
<path d="M192.287 105.986H183.57V106.655H192.287V105.986Z" fill="#C7C7C7"/>
<path d="M102.779 87.6077L102.674 87.0508C103.148 86.984 150.7 79.9167 188.325 43.6113L188.819 43.9789C151.023 80.4458 103.259 87.5409 102.779 87.6077Z" fill="#263238"/>
<path d="M189.47 44.9814L190.115 42.2637L187.01 43.1492L189.47 44.9814Z" fill="#263238"/>
<path d="M228.595 33.6602H206.963V55.3576H228.595V33.6602Z" fill="white"/>
<path d="M218.556 35.1357C218.557 35.2672 218.512 35.3961 218.427 35.506C218.341 35.6158 218.219 35.7016 218.076 35.7525C217.932 35.8033 217.774 35.8169 217.622 35.7915C217.47 35.7661 217.329 35.7029 217.22 35.6099C217.11 35.5169 217.035 35.3983 217.005 35.2692C216.975 35.1401 216.991 35.0064 217.051 34.8851C217.111 34.7637 217.213 34.6603 217.342 34.5879C217.472 34.5155 217.624 34.4774 217.78 34.4785C217.986 34.4785 218.183 34.5478 218.329 34.671C218.474 34.7943 218.556 34.9614 218.556 35.1357Z" fill="#455A64"/>
<path d="M211.074 38.004C213.265 37.8648 215.449 37.8537 217.653 37.8314C219.857 37.8091 222.028 37.8314 224.232 38.004C222.048 38.1488 219.857 38.16 217.653 38.1767C215.449 38.1934 213.265 38.1488 211.074 38.004Z" fill="#EBEBEB"/>
<path d="M211.074 39.7195C213.446 39.4893 215.841 39.4893 218.212 39.7195C215.841 39.9497 213.446 39.9497 211.074 39.7195Z" fill="#EBEBEB"/>
<path d="M211.074 41.4348C212.594 41.3012 214.114 41.2677 215.633 41.2622C217.153 41.2566 218.673 41.3012 220.193 41.4348C218.673 41.5685 217.153 41.6019 215.633 41.6075C214.114 41.613 212.594 41.5685 211.074 41.4348Z" fill="#EBEBEB"/>
<path d="M211.074 43.1497C212.976 43.016 214.877 42.9826 216.778 42.977C218.679 42.9715 220.581 43.016 222.482 43.1497C220.581 43.2833 218.679 43.3167 216.778 43.3223C214.877 43.3279 213.002 43.2833 211.074 43.1497Z" fill="#EBEBEB"/>
<path d="M211.074 44.8646C212.726 44.7309 214.364 44.6975 216.028 44.6919C217.693 44.6863 219.318 44.7253 220.982 44.8646C219.331 44.9982 217.693 45.0316 216.028 45.0372C214.364 45.0428 212.726 44.9982 211.074 44.8646Z" fill="#EBEBEB"/>
<path d="M211.074 46.5801C213.193 46.4353 215.304 46.4241 217.416 46.4074C219.528 46.3907 221.647 46.4074 223.758 46.5801C221.647 46.7193 219.528 46.7304 217.416 46.7471C215.304 46.7638 213.193 46.7137 211.074 46.5801Z" fill="#EBEBEB"/>
<path d="M211.074 48.2901C213.798 48.0674 216.541 48.0674 219.265 48.2901C216.542 48.5203 213.798 48.5203 211.074 48.2901Z" fill="#EBEBEB"/>
<path d="M211.074 50.0055C213.265 49.8663 215.449 49.8552 217.653 49.8329C219.857 49.8106 222.028 49.8663 224.232 50.0055C222.048 50.1503 219.857 50.1615 217.653 50.1782C215.449 50.1949 213.265 50.1503 211.074 50.0055Z" fill="#EBEBEB"/>
<path d="M211.074 51.7267C213.265 51.5875 215.449 51.5763 217.653 51.554C219.857 51.5318 222.028 51.554 224.232 51.7267C222.048 51.8715 219.857 51.8826 217.653 51.8993C215.449 51.916 213.265 51.8659 211.074 51.7267Z" fill="#EBEBEB"/>
<path d="M88.8851 58.1582H63.293V83.832H88.8851V58.1582Z" fill="white"/>
<path d="M76.8632 61.622C76.8632 61.752 76.8177 61.879 76.7324 61.9871C76.6471 62.0952 76.5258 62.1794 76.384 62.2291C76.2421 62.2789 76.086 62.2919 75.9354 62.2665C75.7848 62.2412 75.6465 62.1786 75.5379 62.0867C75.4294 61.9948 75.3554 61.8777 75.3255 61.7502C75.2955 61.6227 75.3109 61.4906 75.3696 61.3705C75.4284 61.2504 75.5279 61.1478 75.6556 61.0756C75.7832 61.0034 75.9333 60.9648 76.0869 60.9648C76.1888 60.9648 76.2898 60.9818 76.384 61.0149C76.4781 61.0479 76.5637 61.0963 76.6358 61.1573C76.7079 61.2183 76.7651 61.2908 76.8041 61.3705C76.8431 61.4503 76.8632 61.5357 76.8632 61.622Z" fill="#455A64"/>
<path d="M66.8711 64.5632C68.7539 64.3331 70.6659 64.3331 72.5487 64.5632C70.6659 64.7934 68.7539 64.7934 66.8711 64.5632Z" fill="#EBEBEB"/>
<path d="M66.8711 66.4952C69.3158 66.2724 71.7817 66.2724 74.2264 66.4952C71.7821 66.7254 69.3153 66.7254 66.8711 66.4952Z" fill="#EBEBEB"/>
<path d="M66.8711 68.4344C69.1327 68.2042 71.4187 68.2042 73.6803 68.4344C71.4187 68.6646 69.1327 68.6646 66.8711 68.4344Z" fill="#EBEBEB"/>
<path d="M66.8711 70.3728C68.0013 70.2515 69.1398 70.1938 70.279 70.2002C71.4161 70.191 72.5526 70.2487 73.6803 70.3728C71.4187 70.603 69.1327 70.603 66.8711 70.3728Z" fill="#EBEBEB"/>
<path d="M66.8711 72.3328C68.8354 72.1026 70.8278 72.1026 72.7922 72.3328C70.8278 72.5629 68.8354 72.5629 66.8711 72.3328Z" fill="#EBEBEB"/>
<path d="M66.8711 74.243C69.3879 74.0128 71.9267 74.0128 74.4435 74.243C73.1877 74.3643 71.9245 74.422 70.6606 74.4156C69.3946 74.4192 68.1293 74.3616 66.8711 74.243Z" fill="#EBEBEB"/>
<path d="M66.8711 76.1751C67.9068 76.0568 68.951 75.9991 69.9961 76.0024C71.0413 75.996 72.0857 76.0537 73.1211 76.1751C72.0861 76.2993 71.0414 76.357 69.9961 76.3477C68.9509 76.3539 67.9065 76.2962 66.8711 76.1751Z" fill="#EBEBEB"/>
<path d="M66.8711 78.1121C69.4759 77.8819 72.1019 77.8819 74.7066 78.1121C72.1019 78.3423 69.4759 78.3423 66.8711 78.1121Z" fill="#EBEBEB"/>
<path d="M66.8711 80.046C69.4763 79.8232 72.1014 79.8232 74.7066 80.046C72.1019 80.2762 69.4759 80.2762 66.8711 80.046Z" fill="#EBEBEB"/>
<path d="M78.0547 64.5633C80.5275 64.3331 83.0227 64.3331 85.4955 64.5633C83.0227 64.7935 80.5275 64.7935 78.0547 64.5633Z" fill="#EBEBEB"/>
<path d="M78.0547 66.4952C79.6757 66.2724 81.3285 66.2724 82.9494 66.4952C81.3292 66.7255 79.6749 66.7255 78.0547 66.4952Z" fill="#EBEBEB"/>
<path d="M78.0547 68.4344C80.3801 68.2042 82.7293 68.2042 85.0547 68.4344C82.7293 68.6646 80.3801 68.6646 78.0547 68.4344Z" fill="#EBEBEB"/>
<path d="M78.0547 70.3728C79.1849 70.2515 80.3234 70.1938 81.4626 70.2002C82.5997 70.191 83.7362 70.2487 84.8639 70.3728C82.6023 70.603 80.3163 70.603 78.0547 70.3728Z" fill="#EBEBEB"/>
<path d="M78.0547 72.3328C80.5275 72.1026 83.0227 72.1026 85.4955 72.3328C83.0227 72.563 80.5275 72.563 78.0547 72.3328Z" fill="#EBEBEB"/>
<path d="M78.0547 74.2429C80.019 74.0128 82.0114 74.0128 83.9757 74.2429C82.9955 74.3641 82.0058 74.4219 81.0152 74.4156C80.0247 74.4191 79.0353 74.3614 78.0547 74.2429Z" fill="#EBEBEB"/>
<path d="M78.0547 76.1751C79.2161 76.0567 80.3849 75.9991 81.5547 76.0024C82.7245 75.9959 83.8937 76.0536 85.0547 76.1751C83.894 76.2993 82.7246 76.357 81.5547 76.3477C80.3848 76.3539 79.2158 76.2963 78.0547 76.1751Z" fill="#EBEBEB"/>
<path d="M78.0547 78.1121C79.8493 77.8819 81.6746 77.8819 83.4692 78.1121C81.6746 78.3422 79.8493 78.3422 78.0547 78.1121Z" fill="#EBEBEB"/>
<path d="M78.0547 80.046C79.7771 79.8232 81.5296 79.8232 83.2521 80.046C81.5303 80.2762 79.7765 80.2762 78.0547 80.046Z" fill="#EBEBEB"/>
<path d="M211.076 24.0527H198.062V35.0685H211.076V24.0527Z" fill="#C8C8FF"/>
<path d="M205.344 25.1728C205.344 25.3028 205.298 25.4298 205.213 25.5379C205.128 25.646 205.006 25.7302 204.864 25.7799C204.723 25.8297 204.566 25.8427 204.416 25.8173C204.265 25.792 204.127 25.7294 204.018 25.6375C203.91 25.5456 203.836 25.4285 203.806 25.301C203.776 25.1735 203.791 25.0414 203.85 24.9213C203.909 24.8012 204.008 24.6986 204.136 24.6264C204.264 24.5542 204.414 24.5156 204.567 24.5156C204.773 24.5156 204.971 24.5849 205.116 24.7081C205.262 24.8313 205.344 24.9985 205.344 25.1728Z" fill="#455A64"/>
<path d="M210.835 224.474C212.151 224.831 249.204 224.424 250.605 223.65C251.144 223.36 251.388 218.788 251.493 213.252V213.074C251.493 211.96 251.539 210.763 251.539 209.571C251.539 209.404 251.539 209.243 251.539 209.081C251.592 201.089 251.447 192.797 251.447 192.797L226.644 193.009L227.394 209.159V209.8L227.546 213.141V213.486C227.546 213.486 213.44 219.011 212.006 220.002C210.572 220.994 209.532 224.123 210.835 224.474Z" fill="#EB9481"/>
<path d="M259.06 102.404C259.06 102.404 253.495 155.428 252.587 159.477C252.376 160.402 252.245 165.414 252.159 171.852C251.968 185.908 252.087 211.259 252.087 211.259H225.955C225.955 211.259 226.725 167.335 227.883 159.254C229.041 151.173 236.435 102.404 236.435 102.404H259.06Z" fill="#37474F"/>
<path d="M247.118 182.3C247.145 179.089 247.173 175.879 247.204 172.671C247.204 169.563 247.204 166.456 247.401 163.348C247.75 157.066 249.256 150.884 250.329 144.669C251.401 138.454 252.303 132.211 253.105 125.962C254.013 118.956 254.816 111.934 255.664 104.922C255.664 104.878 255.763 104.878 255.756 104.922C254.526 117.447 253.125 129.983 251.105 142.414C250.592 145.51 250.035 148.601 249.434 151.686C248.822 154.805 248.217 157.929 247.928 161.087C247.638 164.245 247.592 167.274 247.559 170.376L247.441 179.994C247.362 187.117 247.283 198.078 247.197 205.2C247.197 205.229 247.184 205.255 247.161 205.275C247.137 205.295 247.105 205.306 247.072 205.306C247.039 205.306 247.007 205.295 246.984 205.275C246.96 205.255 246.947 205.229 246.947 205.2C247.006 198.84 247.059 188.649 247.118 182.3Z" fill="#263238"/>
<path d="M264.567 102.404C264.567 102.404 253.495 155.428 252.587 159.477C252.376 160.402 252.245 165.414 252.159 171.852L239.705 102.404H264.567Z" fill="#263238"/>
<path d="M241.18 226.346C242.495 226.624 279.449 223.995 280.785 223.138C281.291 222.82 281.153 218.243 280.785 212.712V212.54C280.719 211.398 280.634 210.223 280.541 209.037L280.502 208.547C279.89 200.572 279.048 192.312 279.048 192.312L254.324 194.011L256.423 210.05L256.502 210.685L256.93 214.027L256.976 214.366C256.976 214.366 243.364 220.726 242.015 221.801C240.666 222.876 239.857 226.073 241.18 226.346Z" fill="#EB9481"/>
<path d="M255.861 212.458L281.972 211.522C281.972 211.522 274.841 163.026 274.736 160.046C274.545 155.591 272.032 137.324 269.926 122.516C269.926 122.516 273.92 114.496 266.44 102.389H236.439C236.439 102.389 238.446 113.911 241.893 121.218C244.194 121.906 246.416 122.769 248.532 123.797C248.532 123.797 251.518 156.811 251.63 160.932C251.854 169.074 255.861 212.458 255.861 212.458Z" fill="#37474F"/>
<path d="M240.729 120.716C243.429 121.552 246.039 122.583 248.532 123.796C248.548 123.807 248.561 123.822 248.566 123.839C248.571 123.856 248.57 123.874 248.561 123.89C248.553 123.906 248.538 123.92 248.52 123.928C248.501 123.936 248.48 123.939 248.459 123.935C245.828 122.977 243.15 122.058 240.565 120.984C240.544 120.974 240.525 120.962 240.51 120.947C240.495 120.932 240.484 120.914 240.477 120.895C240.47 120.876 240.467 120.856 240.469 120.837C240.471 120.817 240.478 120.798 240.489 120.78C240.5 120.763 240.514 120.747 240.532 120.734C240.55 120.722 240.571 120.712 240.593 120.706C240.616 120.7 240.639 120.698 240.662 120.7C240.686 120.702 240.708 120.707 240.729 120.716Z" fill="#263238"/>
<path d="M239.888 105.44C239.888 105.362 240.059 105.345 240.059 105.44C240.057 107.925 240.204 110.408 240.5 112.88C240.619 114.028 241.711 120.365 244.059 119.903C244.454 119.825 244.651 119.496 244.717 118.995C244.706 118.339 244.6 117.686 244.401 117.052C244.145 115.726 243.934 114.395 243.796 113.053C243.523 110.556 243.556 108.042 243.895 105.551C243.9 105.537 243.91 105.525 243.923 105.517C243.937 105.508 243.954 105.504 243.971 105.504C243.988 105.504 244.004 105.508 244.018 105.517C244.031 105.525 244.041 105.537 244.046 105.551C243.979 109.011 244.219 112.47 244.763 115.899C245.053 117.57 246.04 120.031 244 120.287C241.961 120.543 240.586 116.389 240.329 115.247C239.683 112.008 239.535 108.711 239.888 105.44Z" fill="#263238"/>
<path d="M244 120.059C244.208 120.487 244.384 120.926 244.527 121.373C244.676 121.719 244.75 122.085 244.744 122.454C244.744 122.526 244.625 122.532 244.586 122.487C244.342 122.162 244.157 121.807 244.04 121.435C243.856 121.028 243.671 120.622 243.507 120.215C243.482 120.16 243.485 120.098 243.514 120.044C243.543 119.991 243.596 119.949 243.661 119.928C243.727 119.907 243.799 119.91 243.863 119.934C243.926 119.959 243.976 120.004 244 120.059Z" fill="#263238"/>
<path d="M228.6 78.7514C228.591 78.8093 228.607 78.8679 228.644 78.9169C228.681 78.9659 228.738 79.002 228.804 79.0188L229.923 79.1023C231.041 76.7577 232.219 74.8976 231.896 75.6271C231.413 76.7737 231.118 77.9712 231.021 79.1858L233.232 79.3306C234.304 75.176 235.574 72.0907 235.455 73.0598C234.988 76.9025 235.179 78.1444 235.409 79.4699C240.738 79.7985 247.732 80.1604 252.798 80.3275C253.495 78.033 254.113 75.5492 254.212 75.7274C254.776 77.2322 255 78.8138 254.87 80.3888C256.482 80.4278 257.778 80.4333 258.561 80.3888C258.561 80.3888 259.034 78.4563 259.12 77.8214C259.34 76.1949 259.229 74.5485 258.791 72.9539C258.265 71.3826 257.553 69.8602 256.666 68.4095C256.669 68.3985 256.669 68.3871 256.666 68.3761C256.129 67.4066 255.725 66.3882 255.462 65.3409C255.285 64.577 255.181 63.8022 255.153 63.0241C255.061 60.1727 253.409 57.6777 250.488 56.8646C245.146 52.0027 239.455 53.8907 237.594 57.5051C237.416 57.8559 237.238 58.2625 237.061 58.7024C236.403 60.3342 235.798 62.4561 235.245 64.099C235.039 64.7409 234.786 65.3714 234.488 65.9869C232.89 68.9887 229.587 70.587 228.6 78.7514Z" fill="#263238"/>
<path d="M251.712 57.6626C252.651 58.0971 253.441 58.7304 254.005 59.5005C254.569 60.2706 254.887 61.1513 254.929 62.0567C254.96 63.2574 255.164 64.4505 255.534 65.6098C256.045 66.7411 256.745 67.8045 257.613 68.7675C258.971 70.251 259.771 72.0458 259.909 73.919C260.076 76.0966 259.743 78.2809 258.929 80.3514C259.627 78.1646 259.826 75.8849 259.514 73.635C259.199 71.3739 257.856 69.9259 256.501 68.1828C255.404 66.8022 254.751 65.2032 254.606 63.5437C254.619 62.5074 254.473 61.4741 254.172 60.4695C253.634 59.4065 252.734 58.5031 251.587 57.8742C251.422 57.7796 251.567 57.5902 251.712 57.6626Z" fill="#263238"/>
<path d="M231.039 69.1395C232.486 67.5523 233.973 66.2101 234.874 64.222C235.69 62.412 236.19 60.4962 237.032 58.6862C237.032 58.6584 237.098 58.6862 237.085 58.6862C235.769 61.8996 235.4 65.1576 232.96 67.8308C231.644 69.2843 230.328 70.6154 229.407 72.3864C228.475 74.2333 227.938 76.2057 227.821 78.2117C227.821 78.2785 227.716 78.273 227.71 78.2117C227.528 74.9508 228.707 71.7397 231.039 69.1395Z" fill="#263238"/>
<path d="M246.013 80.907C240.395 91.9339 232.066 103.184 227.678 105.049C224.599 106.369 218.506 106.286 216.493 103.273C212.145 96.7011 210.618 86.1698 211.684 80.7232C212.066 78.7851 224.184 77.9832 225.118 79.9324C227.283 84.4935 227.98 89.2217 228.664 89.2217C229.25 89.2217 232.428 85.5405 239.579 79.1026C247.053 72.3861 247.98 77.0475 246.013 80.907Z" fill="#EB9481"/>
<path d="M211.545 82.4662C211.545 82.4662 211.755 76.7244 214.177 72.8984C215.848 70.2531 220.236 64.8454 230.795 64.4611C233.302 64.372 236.946 65.7476 232.92 67.151C230.058 68.1535 227.887 68.0533 226.341 68.8886C226.341 68.8886 230.736 71.1163 230.742 73.2326C230.748 75.0955 230.598 76.9565 230.295 78.8017C229.883 78.8229 229.47 78.8229 229.058 78.8017C229.058 78.8017 228.992 80.7955 226.367 82.8617L211.545 82.4662Z" fill="#EB9481"/>
<path d="M216.236 70.5933C217.973 70.0364 221.671 68.9226 225.078 68.8724C228.868 68.8335 236.171 69.6299 236.171 71.9968C236.171 73.7288 233.355 73.6341 233.355 73.6341C233.355 73.6341 236.289 74.5029 235.888 76.0678C235.519 77.4991 233.342 77.3153 233.342 77.3153C233.342 77.3153 235.019 78.1006 234.348 79.4149C233.552 81.0021 230.171 79.0974 227.717 80.1055C227.171 80.3338 216.236 70.5933 216.236 70.5933Z" fill="#EB9481"/>
<path d="M224.458 72.265C227.499 71.9297 230.589 72.3882 233.313 73.5794C233.379 73.6128 233.386 73.6685 233.313 73.6518C230.435 72.897 227.46 72.4407 224.452 72.2929C224.452 72.2929 224.438 72.2706 224.458 72.265Z" fill="#263238"/>
<path d="M224.611 75.4997C227.661 75.406 230.685 76.0121 233.361 77.2539C233.427 77.2874 233.427 77.3486 233.361 77.3319C230.536 76.4498 227.6 75.8444 224.611 75.5275V75.4997Z" fill="#263238"/>
<path d="M232.263 102.571L228.467 88.0465C232.298 84.4592 236.361 81.0549 240.638 77.8494C246.809 73.3328 249.75 73.8173 246.052 81.8592C242.355 89.9011 236.908 99.2127 232.263 102.571Z" fill="#C8C8FF"/>
<path d="M232.263 102.571L228.467 88.0465C232.298 84.4592 236.361 81.0549 240.638 77.8494C246.809 73.3328 249.75 73.8173 246.052 81.8592C242.355 89.9011 236.908 99.2127 232.263 102.571Z" fill="#C8C8FF"/>
<path d="M230.612 87.7358C231.27 89.7185 231.84 91.7159 232.322 93.7283C232.568 94.7418 232.798 95.7591 233.013 96.7802C233.23 97.816 233.362 98.863 233.546 99.9045C233.546 99.9602 233.467 99.9657 233.454 99.9045C233.013 97.8661 232.48 95.839 231.993 93.8118C231.506 91.7846 231.013 89.763 230.533 87.7414C230.52 87.7136 230.599 87.6969 230.612 87.7358Z" fill="#263238"/>
<path d="M244.769 84.5395C244.638 84.8012 244.506 85.0574 244.388 85.3191C244.384 85.2616 244.384 85.204 244.388 85.1465C244.446 84.8018 244.557 84.4649 244.717 84.1441C244.75 84.274 244.768 84.4065 244.769 84.5395ZM234.197 84.2499C234.137 84.5915 234.137 84.9386 234.197 85.2802C234.512 84.64 234.628 83.9419 234.532 83.253C234.363 83.5696 234.25 83.9054 234.197 84.2499ZM237.651 94.6475C237.591 94.991 237.591 95.3399 237.651 95.6834C237.82 95.3674 237.931 95.0311 237.98 94.6865C238.039 94.343 238.039 93.9941 237.98 93.6506C237.814 93.9677 237.703 94.3035 237.651 94.6475ZM233.572 90.1476C233.166 90.0974 232.754 90.0974 232.348 90.1476C232.721 90.2911 233.119 90.3851 233.526 90.4261C233.931 90.4763 234.344 90.4763 234.749 90.4261C234.374 90.2875 233.978 90.1956 233.572 90.1532V90.1476ZM246.118 76.5533C245.712 76.5031 245.3 76.5031 244.894 76.5533C245.267 76.6968 245.665 76.7907 246.072 76.8317C246.478 76.8819 246.89 76.8819 247.295 76.8317C246.921 76.6913 246.524 76.5975 246.118 76.5533ZM241.657 90.2757C241.657 90.2757 241.657 90.3203 241.657 90.337C241.663 90.3168 241.663 90.2958 241.657 90.2757ZM231.914 96.3684C232.154 96.648 232.442 96.8958 232.769 97.1035C232.619 96.7818 232.415 96.4799 232.164 96.2069C231.924 95.9254 231.635 95.6758 231.309 95.4662C231.46 95.789 231.664 96.0926 231.914 96.3684ZM238.716 87.324C239.047 87.1192 239.342 86.8754 239.592 86.6C238.831 86.861 238.165 87.2852 237.657 87.8308C238.037 87.7054 238.394 87.5348 238.716 87.324ZM240.578 81.0587C240.82 81.3388 241.108 81.5882 241.434 81.7994C241.285 81.478 241.084 81.176 240.835 80.9028C240.591 80.6226 240.3 80.3732 239.973 80.1621C240.123 80.4838 240.327 80.7857 240.578 81.0587Z" fill="white"/>
<path d="M246.037 81.8601C242.34 89.8964 236.906 99.2136 232.261 102.572L230.695 96.5906L247.366 75.4277C247.998 76.291 247.649 78.3571 246.037 81.8601Z" fill="#263238"/>
<path d="M235.374 106.107C235.374 106.107 247.216 108.485 269.703 106.842C269.703 106.842 260.914 83.1066 253.841 76.7076C250.618 73.7949 247.473 74.2405 244.808 76.1117C244.151 76.5795 235.887 85.4456 235.19 88.5309C234.572 91.2598 237.197 94.295 237.197 94.295L235.374 106.107Z" fill="#C8C8FF"/>
<path d="M244.731 84.1441C244.791 84.4875 244.791 84.8365 244.731 85.1799C244.683 85.5246 244.572 85.8608 244.402 86.1768C244.343 85.8333 244.343 85.4844 244.402 85.1409C244.456 84.7971 244.566 84.4614 244.731 84.1441ZM243.87 102.171C243.81 102.515 243.81 102.864 243.87 103.207C244.039 102.891 244.15 102.555 244.199 102.21C244.258 101.869 244.258 101.522 244.199 101.18C244.033 101.495 243.922 101.829 243.87 102.171ZM238.047 105.246C237.988 105.589 237.988 105.938 238.047 106.281C238.369 105.643 238.487 104.944 238.389 104.254C238.222 104.57 238.107 104.903 238.047 105.246ZM256.909 91.1835C256.85 91.5269 256.85 91.8759 256.909 92.2193C257.073 91.9015 257.183 91.566 257.238 91.2225C257.294 90.8788 257.294 90.5303 257.238 90.1866C257.077 90.505 256.966 90.8403 256.909 91.1835ZM237.652 94.6475C237.593 94.991 237.593 95.3399 237.652 95.6834C237.822 95.3674 237.933 95.0311 237.981 94.6865C238.041 94.343 238.041 93.9941 237.981 93.6506C237.815 93.9677 237.705 94.3035 237.652 94.6475ZM250.692 87.1068C250.288 87.0566 249.878 87.0566 249.475 87.1068C250.229 87.3805 251.055 87.4804 251.87 87.3964C251.495 87.2541 251.098 87.1567 250.692 87.1068ZM257.685 97.1592C257.28 97.109 256.867 97.109 256.462 97.1592C256.835 97.3027 257.232 97.3966 257.639 97.4376C258.045 97.4879 258.457 97.4879 258.863 97.4376C258.488 97.2972 258.092 97.2034 257.685 97.1592ZM246.041 96.3294C245.635 96.2792 245.223 96.2792 244.817 96.3294C245.192 96.4679 245.589 96.5616 245.995 96.6078C246.401 96.6553 246.812 96.6553 247.218 96.6078C246.843 96.4694 246.446 96.3757 246.041 96.3294ZM267.166 105.563C266.76 105.513 266.348 105.513 265.942 105.563C266.317 105.702 266.714 105.795 267.12 105.842C267.526 105.889 267.937 105.889 268.343 105.842C267.968 105.704 267.571 105.61 267.166 105.563ZM246.113 76.5533C245.707 76.5031 245.295 76.5031 244.889 76.5533C245.263 76.6968 245.66 76.7907 246.067 76.8317C246.473 76.8819 246.885 76.8819 247.291 76.8317C246.918 76.6918 246.524 76.598 246.12 76.5533H246.113ZM251.824 79.5718C252.067 79.8506 252.355 80.0998 252.679 80.3125C252.532 79.9887 252.33 79.6847 252.08 79.4103C251.838 79.1302 251.55 78.8808 251.225 78.6696C251.374 78.9922 251.576 79.2958 251.824 79.5718ZM262.416 92.3808C262.656 92.6605 262.944 92.9083 263.271 93.116C263.12 92.7943 262.917 92.4924 262.666 92.2193C262.426 91.9379 262.137 91.6883 261.81 91.4786C261.97 91.8028 262.183 92.1064 262.442 92.3808H262.416ZM242.231 91.1835C242.475 91.4623 242.763 91.7115 243.087 91.9242C242.939 91.5997 242.735 91.2956 242.481 91.022C242.242 90.742 241.956 90.4925 241.633 90.2813C241.79 90.6038 242 90.9058 242.258 91.1779L242.231 91.1835ZM252.35 100.735C252.588 101.014 252.874 101.262 253.199 101.47C253.053 101.147 252.851 100.845 252.6 100.573C252.358 100.293 252.07 100.044 251.745 99.8324C251.896 100.155 252.1 100.459 252.35 100.735ZM240.416 80.8527C240.475 80.9195 240.527 80.9863 240.587 81.0476C240.824 81.3306 241.11 81.5821 241.435 81.7939C241.288 81.4694 241.084 81.1653 240.83 80.8917L240.593 80.641L240.416 80.8527ZM238.718 87.3185C239.049 87.1136 239.344 86.8698 239.593 86.5945C238.833 86.8554 238.166 87.2796 237.659 87.8253C238.038 87.7016 238.395 87.5328 238.718 87.324V87.3185ZM264.376 99.2309C264.707 99.0261 265.002 98.7823 265.251 98.5069C264.489 98.7704 263.82 99.1963 263.31 99.7433C263.699 99.6192 264.065 99.4485 264.396 99.2365L264.376 99.2309ZM238.139 99.6041C238.473 99.4044 238.768 99.162 239.014 98.8856C238.254 99.1465 237.587 99.5708 237.08 100.116C237.467 99.9979 237.831 99.8308 238.159 99.6208L238.139 99.6041ZM256.258 84.7678C256.59 84.5644 256.885 84.3204 257.133 84.0438C256.752 84.169 256.394 84.3417 256.074 84.5562C255.743 84.759 255.448 85.001 255.199 85.2746C255.585 85.1524 255.948 84.9835 256.277 84.7734L256.258 84.7678ZM248.81 106.042C249.143 105.839 249.438 105.595 249.685 105.318C248.923 105.581 248.255 106.007 247.745 106.554C248.133 106.43 248.499 106.26 248.83 106.048L248.81 106.042ZM251.027 92.96C251.358 92.7586 251.65 92.5164 251.896 92.2416C251.14 92.5113 250.48 92.9432 249.981 93.4947C250.365 93.3631 250.724 93.1849 251.047 92.9656L251.027 92.96ZM259.449 103.469C259.781 103.266 260.076 103.022 260.324 102.745C259.563 103.006 258.897 103.43 258.389 103.976C258.776 103.854 259.139 103.685 259.468 103.475L259.449 103.469Z" fill="white"/>
<path d="M239.486 82.0001C238.765 82.8316 238.095 83.6941 237.48 84.5842C237.736 84.0885 237.973 83.5873 238.184 83.0694C238.184 83.0694 238.184 83.0359 238.137 83.0694C237.92 83.4314 237.703 83.7934 237.519 84.1832C237.335 84.573 237.203 84.8626 237.052 85.2079C236.262 86.2185 235.636 87.3143 235.19 88.4659C234.894 89.5197 234.921 90.6202 235.269 91.6626C235.449 92.1992 235.696 92.7182 236.006 93.2108C236.25 93.6569 236.574 94.0683 236.966 94.4305C236.743 95.5443 236.591 96.6581 236.42 97.7385C236.213 98.8114 236.082 99.8937 236.026 100.98C236.03 100.992 236.039 101.003 236.052 101.011C236.064 101.019 236.079 101.023 236.095 101.023C236.11 101.023 236.125 101.019 236.138 101.011C236.15 101.003 236.159 100.992 236.164 100.98C236.164 100.907 236.216 100.829 236.249 100.751C236.282 100.673 236.249 100.724 236.249 100.712C236.526 99.7212 236.644 98.6797 236.809 97.6773C236.973 96.6748 237.289 94.4416 237.289 94.4305C237.289 94.4193 236.703 93.5171 236.466 93.0994C236.192 92.5917 235.972 92.0643 235.809 91.5234C235.45 90.5012 235.423 89.4164 235.73 88.3823C236.165 87.278 236.75 86.2202 237.473 85.2302C238.17 84.1721 238.894 83.1195 239.611 82.0725C239.598 82.0112 239.519 81.9611 239.486 82.0001Z" fill="#263238"/>
<path d="M250.921 75.9453C250.79 76.4576 247.948 79.8103 245.178 79.7267C244.277 79.6989 244.244 75.5276 244.244 75.5276L244.158 75.2213L242.961 70.9163L248.882 67.6138L249.744 67.1738C249.744 67.1738 249.974 68.3656 250.25 69.8582L250.29 70.0698C250.29 70.1533 250.329 70.2313 250.343 70.3148C250.389 70.5376 250.428 70.7604 250.468 70.9887C250.507 71.217 250.527 71.3284 250.553 71.5122C250.579 71.696 250.606 71.8742 250.639 72.0691C250.836 73.3543 250.93 74.6493 250.921 75.9453Z" fill="#EB9481"/>
<path d="M250.27 69.8582C249.773 71.0742 248.968 72.1839 247.913 73.1101C246.857 74.0362 245.576 74.7567 244.158 75.2213L242.961 70.9163L248.882 67.6138L249.744 67.1738C249.744 67.1738 249.994 68.3656 250.27 69.8582Z" fill="#263238"/>
<path d="M235.413 62.9519C232.781 70.3867 237.768 72.5531 239.663 73.0265C241.38 73.4553 247.301 74.7418 250.807 67.5743C254.314 60.4068 251.057 57.0319 247.182 55.879C243.307 54.7262 238.005 55.517 235.413 62.9519Z" fill="#EB9481"/>
<path d="M237.107 61.9828C237.318 62.0107 237.522 61.9828 237.765 62.0162C237.988 62.0528 238.219 62.0274 238.423 61.9439C238.481 61.9067 238.523 61.8542 238.542 61.7948C238.561 61.7353 238.556 61.6722 238.528 61.6153C238.454 61.5117 238.348 61.4267 238.222 61.3689C238.096 61.3112 237.955 61.2828 237.811 61.2867C237.519 61.2522 237.222 61.314 236.982 61.4593C236.929 61.4928 236.889 61.5383 236.865 61.5906C236.841 61.6428 236.836 61.6998 236.849 61.7546C236.862 61.8095 236.893 61.8601 236.939 61.9005C236.985 61.941 237.043 61.9695 237.107 61.9828Z" fill="#263238"/>
<path d="M243.169 63.37C242.976 63.2973 242.787 63.2155 242.604 63.125C242.392 63.0612 242.212 62.9397 242.09 62.7797C242.062 62.7238 242.057 62.6612 242.076 62.6025C242.095 62.5437 242.137 62.4923 242.196 62.4567C242.319 62.3955 242.46 62.3633 242.604 62.3633C242.747 62.3633 242.888 62.3955 243.011 62.4567C243.284 62.5569 243.502 62.7396 243.623 62.969C243.655 63.0234 243.667 63.0848 243.656 63.1449C243.645 63.2049 243.612 63.2607 243.563 63.3045C243.513 63.3484 243.449 63.3782 243.378 63.3899C243.308 63.4016 243.235 63.3947 243.169 63.37Z" fill="#263238"/>
<path d="M241.177 64.8789C241.177 64.8789 241.217 64.9179 241.177 64.9402C240.98 65.4358 240.855 66.054 241.335 66.3436C241.335 66.3436 241.335 66.3826 241.335 66.3714C240.717 66.1264 240.894 65.33 241.177 64.8789Z" fill="#263238"/>
<path d="M241.895 64.4908C242.882 64.669 242.382 66.323 241.468 66.1615C240.553 66 241.073 64.3348 241.895 64.4908Z" fill="#263238"/>
<path d="M242.25 64.656C242.395 64.7896 242.513 64.9901 242.711 65.0514C242.908 65.1127 243.178 64.9901 243.369 64.8565C243.276 65.1739 243.04 65.4691 242.625 65.4134C242.211 65.3577 242.066 65.0403 242.072 64.7005C242.112 64.6783 242.197 64.6059 242.25 64.656Z" fill="#263238"/>
<path d="M237.846 64.0449C237.846 64.0449 237.793 64.0449 237.787 64.0783C237.655 64.5963 237.405 65.1922 236.807 65.2256C237.497 65.3147 237.82 64.535 237.846 64.0449Z" fill="#263238"/>
<path d="M237.466 63.42C236.512 63.1527 235.946 64.79 236.808 65.0406C237.67 65.2913 238.268 63.6205 237.466 63.42Z" fill="#263238"/>
<path d="M237.026 63.4207C236.841 63.4708 236.637 63.5877 236.453 63.5543C236.269 63.5209 236.144 63.2981 236.065 63.0977C236.065 63.0977 236.065 63.0977 236.026 63.0977C235.944 63.2343 235.922 63.3911 235.964 63.54C236.007 63.6889 236.11 63.8203 236.256 63.9108C236.559 64.0444 236.914 63.8328 237.085 63.5432C237.124 63.4819 237.098 63.3817 237.026 63.4207Z" fill="#263238"/>
<path d="M239.979 69.0959C239.816 69.2219 239.607 69.2967 239.387 69.3075C239.161 69.2641 238.948 69.1806 238.762 69.0625C238.762 69.0625 238.723 69.0625 238.729 69.0625C238.793 69.1797 238.892 69.2802 239.017 69.3537C239.142 69.4272 239.288 69.4709 239.44 69.4802C239.571 69.4753 239.698 69.4371 239.803 69.3705C239.909 69.304 239.989 69.2122 240.032 69.1071C240.038 69.1015 239.979 69.0848 239.979 69.0959Z" fill="#263238"/>
<path d="M237.906 67.7311C238.044 68.0814 238.289 68.3946 238.617 68.6389C238.801 68.7719 239.033 68.8501 239.275 68.8616C239.794 68.8951 239.933 68.5275 239.992 68.1878C240.018 68.0028 240.018 67.8158 239.992 67.6309C239.328 67.8552 238.596 67.8904 237.906 67.7311Z" fill="#263238"/>
<path d="M238.617 68.6383C238.802 68.7713 239.033 68.8495 239.275 68.8611C239.795 68.8945 239.933 68.5269 239.992 68.1872C239.737 68.1186 239.461 68.126 239.211 68.208C238.961 68.29 238.751 68.4418 238.617 68.6383Z" fill="#FF98B9"/>
<path d="M238.038 66.6791C238.038 66.6791 237.67 67.4142 237.558 67.7929C237.558 67.8263 237.644 67.8653 237.788 67.9043C238.135 68.0438 238.52 68.1 238.902 68.0666C239.284 68.0332 239.647 67.9115 239.953 67.715C239.962 67.7092 239.968 67.7009 239.97 67.6915C239.972 67.6822 239.97 67.6725 239.965 67.6643C239.959 67.6561 239.95 67.6499 239.939 67.647C239.929 67.644 239.917 67.6444 239.907 67.6481C239.27 67.8385 238.577 67.8482 237.933 67.676C237.933 67.5701 238.591 66.4396 238.545 66.4173C238.208 66.3689 237.865 66.3577 237.525 66.3839C238.236 64.8357 239.236 63.3988 239.913 61.8506C239.918 61.839 239.918 61.8263 239.913 61.8149C239.908 61.8034 239.897 61.794 239.884 61.7885C239.871 61.783 239.856 61.7817 239.842 61.785C239.828 61.7882 239.816 61.7957 239.808 61.8061C238.685 63.3179 237.742 64.9204 236.992 66.59C236.887 66.7626 237.848 66.7014 238.038 66.6791Z" fill="#263238"/>
<path d="M249.915 67.6524C248.467 67.4129 248.974 64.8177 248.974 64.8177C248.974 64.8177 246.092 64.1438 246.296 60.4181C246.033 61.4875 246.145 62.5986 246.619 63.6148C246.619 63.6148 241.691 61.944 240.737 57.8563C240.737 57.8563 240.987 59.889 241.573 60.7299C240.392 60.0952 239.503 59.1384 239.053 58.0178C239.053 58.0178 237.48 59.8834 236.605 60.29C236.605 60.29 239.296 52.8217 247.263 55.5673C247.263 55.5673 252.323 57.0766 253.033 60.9694C253.744 64.8623 249.915 67.6524 249.915 67.6524Z" fill="#263238"/>
<path d="M249.849 70.3216C249.703 70.3378 249.554 70.3378 249.408 70.3216C249.265 70.3199 249.123 70.2992 248.987 70.2604C248.805 70.2168 248.638 70.1366 248.5 70.0264C248.39 69.9462 248.295 69.8523 248.217 69.748C248.104 69.6003 248.023 69.436 247.98 69.2635L248.967 67.3198C248.967 67.3198 251.507 65.2871 252.632 66.1002C253.757 66.9133 251.467 70.1044 249.849 70.3216Z" fill="#EB9481"/>
<path d="M249.848 69.9817C249.815 70.0478 249.76 70.1042 249.69 70.1439C249.619 70.1835 249.537 70.2046 249.452 70.2045C249.368 70.2043 249.285 70.1829 249.215 70.143C249.144 70.1031 249.09 70.0465 249.058 69.9803C249.025 69.9141 249.017 69.8413 249.034 69.7711C249.05 69.7009 249.091 69.6365 249.151 69.586C249.211 69.5354 249.287 69.5011 249.37 69.4873C249.453 69.4735 249.539 69.4808 249.617 69.5083C249.722 69.5452 249.805 69.6159 249.848 69.7046C249.892 69.7934 249.891 69.8931 249.848 69.9817Z" fill="white"/>
<path d="M250.794 69.5977C250.771 69.6446 250.732 69.6845 250.682 69.7124C250.632 69.7403 250.573 69.755 250.513 69.7545C250.453 69.7541 250.394 69.7385 250.345 69.7099C250.295 69.6812 250.257 69.6407 250.235 69.5935C250.212 69.5463 250.207 69.4946 250.22 69.4449C250.232 69.3952 250.262 69.3498 250.305 69.3144C250.348 69.2791 250.403 69.2553 250.462 69.2463C250.521 69.2372 250.582 69.2432 250.637 69.2636C250.71 69.2905 250.767 69.3407 250.797 69.4032C250.826 69.4658 250.825 69.5356 250.794 69.5977Z" fill="white"/>
<path d="M255.704 78.3295C261.572 85.0459 272.77 100.951 269.013 104.454C262.836 110.213 247.961 115.086 243.355 116.15C241.382 116.606 234.664 104.237 236.566 103.274C238.842 102.115 254.763 97.9942 254.724 96.8469C254.724 96.1953 253.039 90.7208 251.671 83.7427C250.079 75.6284 252.908 75.116 255.704 78.3295Z" fill="#EB9481"/>
<path d="M243.802 102.577C243.802 102.577 237.802 100.951 233.822 100.043C231.598 99.5362 227.697 98.9292 225.868 99.2132C223.124 99.603 211.953 102.711 212.782 105.016C213.539 107.11 222.736 103.407 222.736 103.407C222.736 103.407 213.065 106.448 214.519 108.826C215.973 111.204 225.703 105.846 225.703 105.846C225.703 105.846 215.835 109.16 217.808 111.415C219.282 113.114 228.427 108.686 228.427 108.686C228.427 108.686 219.979 111.582 221.407 113.387C222.993 115.38 231.729 111.716 231.729 111.716C236.282 115.781 240.414 116.171 243.387 116.104C244.111 116.116 243.802 102.577 243.802 102.577Z" fill="#EB9481"/>
<path d="M226.001 102.176C224.85 102.499 223.685 102.816 222.567 103.223C221.449 103.629 220.356 104.075 219.277 104.565C217.866 105.189 216.542 105.945 215.33 106.82C217.65 105.516 220.108 104.398 222.672 103.479C223.784 103.072 224.87 102.616 225.962 102.209L226.001 102.176Z" fill="#263238"/>
<path d="M227.816 105.552C226.362 106.019 224.908 106.437 223.48 106.955C222.053 107.473 220.77 108.069 219.395 108.665C219.29 108.709 219.355 108.743 219.467 108.704C220.862 108.147 222.211 107.729 223.612 107.194C225.013 106.66 226.408 106.081 227.829 105.579C227.849 105.574 227.836 105.546 227.816 105.552Z" fill="#263238"/>
<path d="M229.985 108.214C227.741 108.881 225.585 109.744 223.551 110.787C223.452 110.837 223.551 110.871 223.643 110.826C225.761 109.935 227.419 109.228 230.011 108.281C230.051 108.264 230.031 108.203 229.985 108.214Z" fill="#263238"/>
<path d="M231.472 99.5638C230.834 99.3457 230.173 99.1779 229.499 99.0626C228.865 98.9343 228.221 98.8468 227.571 98.8009C226.167 98.7033 224.755 98.8492 223.42 99.2297C220.737 99.9634 218.163 100.956 215.749 102.187C215.696 102.187 215.749 102.287 215.788 102.27C218.247 101.299 220.771 100.451 223.347 99.7309C224.657 99.3407 226.038 99.1521 227.426 99.174C228.143 99.2074 228.854 99.2965 229.565 99.3856C230.193 99.499 230.827 99.5845 231.466 99.6418C231.505 99.6697 231.525 99.5805 231.472 99.5638Z" fill="#263238"/>
<path d="M270.466 102.17L254.183 96.5676C252.868 91.8664 251.864 87.1066 251.176 82.3105C250.288 75.4438 252.426 73.6728 258.143 80.8124C263.86 87.9521 269.834 97.0299 270.466 102.17Z" fill="#C8C8FF"/>
<path d="M257.31 79.7985L257.527 80.0547C257.481 80.2136 257.418 80.3684 257.336 80.5169C257.295 80.2791 257.286 80.038 257.31 79.7985ZM256.909 91.1819C256.85 91.5253 256.85 91.8743 256.909 92.2177C257.072 91.8999 257.183 91.5644 257.238 91.2209C257.294 90.8772 257.294 90.5287 257.238 90.185C257.076 90.5034 256.966 90.8387 256.909 91.1819ZM257.685 97.1576C257.279 97.1074 256.867 97.1074 256.461 97.1576C256.835 97.3011 257.232 97.395 257.639 97.4361C258.045 97.4863 258.457 97.4863 258.863 97.4361C258.488 97.2956 258.092 97.2018 257.685 97.1576ZM261.211 86.3813C261.583 86.5241 261.978 86.618 262.383 86.6597H262.567L262.369 86.3757C261.985 86.3302 261.595 86.332 261.211 86.3813ZM251.823 79.5702C252.067 79.849 252.355 80.0982 252.679 80.3109C252.532 79.9871 252.33 79.6831 252.08 79.4087C251.838 79.1286 251.55 78.8792 251.225 78.668C251.374 78.9906 251.576 79.2942 251.823 79.5702ZM262.415 92.3792C262.656 92.6589 262.944 92.9067 263.271 93.1144C263.12 92.7927 262.916 92.4908 262.665 92.2177C262.425 91.9363 262.137 91.6867 261.81 91.477C261.97 91.8012 262.183 92.1048 262.442 92.3792H262.415ZM264.389 99.2405C264.72 99.0357 265.015 98.7919 265.264 98.5165C264.502 98.7799 263.833 99.2058 263.323 99.7528C263.708 99.6243 264.069 99.4499 264.396 99.2349L264.389 99.2405ZM256.271 84.7606C256.603 84.5573 256.898 84.3133 257.146 84.0366C256.764 84.1618 256.407 84.3345 256.086 84.549C255.756 84.7519 255.461 84.9938 255.211 85.2674C255.593 85.146 255.952 84.9791 256.277 84.7718L256.271 84.7606Z" fill="white"/>
<path d="M251.33 86.5655C251.574 86.9603 251.773 87.3744 251.922 87.8018L252.093 88.2307C251.948 87.4343 251.817 86.6379 251.685 85.8415C251.685 85.7858 251.771 85.7635 251.784 85.8415C252.192 87.6459 254.087 96.0943 254.172 96.5343C254.218 96.5343 254.725 96.7793 254.758 96.7793C254.79 96.7793 254.758 96.8684 254.718 96.8462C254.679 96.8239 254.06 96.6011 254.06 96.5955C253.85 96.2113 252.356 89.7622 252.218 88.9769C252.193 88.944 252.173 88.9084 252.159 88.8711L252.008 88.537C251.915 88.3309 251.837 88.1193 251.751 87.9132C251.552 87.4885 251.393 87.0508 251.277 86.6045C251.277 86.5543 251.317 86.5376 251.33 86.5655Z" fill="#263238"/>
<path d="M254.487 95.0201C255.134 95.144 255.772 95.304 256.395 95.499C257.053 95.6661 257.664 95.822 258.289 96.0002C259.507 96.3344 260.704 96.7019 261.901 97.0751C264.315 97.8097 266.685 98.6461 269 99.5812C269.011 99.5856 269.02 99.5937 269.024 99.6036C269.029 99.6135 269.028 99.6245 269.023 99.6341C269.018 99.6437 269.008 99.6512 268.997 99.6548C268.985 99.6585 268.972 99.658 268.96 99.6536C266.507 98.9296 264.092 98.1054 261.658 97.3368L258.066 96.223C257.467 96.0336 256.868 95.8332 256.27 95.6661C255.656 95.5062 255.052 95.3203 254.46 95.1092C254.454 95.0535 254.454 95.0145 254.487 95.0201Z" fill="#263238"/>
<path d="M249.71 56.6877C249.776 57.5453 254.618 59.5892 258.065 57.3727C261.513 55.1561 260.039 50.8011 255.309 51.2466C252.315 51.5418 249.572 54.861 249.71 56.6877Z" fill="#263238"/>
<path d="M259.788 53.474C259.265 52.4241 258.337 51.5547 257.157 51.0069C256.609 50.74 255.989 50.5996 255.357 50.5996C254.726 50.5996 254.105 50.74 253.558 51.0069C252.444 51.5967 251.536 52.4271 250.927 53.4128C250.6 53.9118 250.329 54.4358 250.117 54.9777C249.871 55.51 249.743 56.0766 249.742 56.6484C249.591 56.065 249.591 55.4608 249.742 54.8774C249.882 54.2878 250.103 53.714 250.4 53.1677C250.971 52.0294 251.949 51.0711 253.196 50.4277C253.854 50.1073 254.602 49.9455 255.361 49.9599C256.108 49.9852 256.834 50.1773 257.466 50.5168C258.072 50.8486 258.591 51.2823 258.99 51.7911C259.39 52.2998 259.661 52.8726 259.788 53.474Z" fill="#263238"/>
<path d="M86.1959 226.479C84.8406 226.847 46.2616 226.424 44.8077 225.622C44.2485 225.321 43.9919 220.559 43.88 214.795V214.617C43.88 213.431 43.834 212.205 43.834 210.969C43.834 210.796 43.834 210.624 43.834 210.457L45.709 193.51L71.5182 193.733L68.9722 210.512L68.9393 211.181L68.788 214.656V215.012C68.788 215.012 83.4722 220.765 84.9656 221.796C86.4591 222.826 87.5512 226.117 86.1959 226.479Z" fill="#D3766A"/>
<path d="M70.4647 214.728H42.6752C42.6752 214.728 48.2739 159.789 48.0568 158.831C47.7805 157.6 46.1357 152.042 43.9515 144.78C43.2936 142.502 42.5304 140.068 41.7607 137.54C39.6949 130.706 37.4054 123.233 35.4186 116.733C32.4317 106.998 30.1094 99.4355 30.1094 99.4355H53.6555C53.6555 99.4355 56.3989 106.798 59.8594 116.383C65.4976 131.976 73.0173 153.384 73.7673 158.597C74.9647 167.006 70.4647 214.728 70.4647 214.728Z" fill="#37474F"/>
<path d="M53.2813 155.473C52.3734 152.075 51.0116 148.74 49.8274 145.404C47.4195 138.62 45.0072 131.843 42.5905 125.071C41.3712 121.685 40.1497 118.298 38.926 114.912C38.301 113.203 37.6826 111.493 37.051 109.789C36.4194 108.085 35.7352 106.447 35.1694 104.777C34.9458 104.092 34.8207 104.465 35.1102 105.333C35.6958 107.088 36.2747 108.848 36.88 110.596C38.0773 114.06 39.2813 117.524 40.4918 120.988C42.8997 127.879 45.3295 134.765 47.7813 141.644C49.005 145.097 50.2309 148.548 51.4589 151.997C52.0792 153.641 52.5823 155.315 52.9655 157.01C53.29 158.782 53.3716 160.579 53.2089 162.367C52.9392 165.965 52.4524 169.557 52.0576 173.149L50.8734 183.942C50.0708 191.097 49.2901 198.261 48.5313 205.434C48.4304 206.34 48.3383 207.247 48.255 208.157C48.255 208.463 48.7747 208.441 48.8076 208.157C49.7221 201.079 50.426 193.972 51.2089 186.883C51.9918 179.793 52.7747 172.77 53.551 165.72C53.7484 163.949 53.9721 162.172 53.9721 160.396C53.9623 158.738 53.7305 157.086 53.2813 155.473Z" fill="#263238"/>
<path d="M50.9778 99.4355C49.3397 110.139 46.2278 130.216 43.9515 144.78C38.662 127.131 30.1094 99.4355 30.1094 99.4355H50.9778Z" fill="#263238"/>
<path d="M56.7609 226.796C55.4056 227.17 16.8266 226.863 15.3661 226.061C14.8069 225.766 14.5305 221.004 14.3924 215.24V215.062C14.3924 213.876 14.3332 212.651 14.3266 211.414C14.3266 211.242 14.3266 211.069 14.3266 210.902C14.2345 202.587 14.945 193.955 14.945 193.955L40.1622 194.094L39.4516 210.885V211.548L39.3201 215.023V215.38C39.3201 215.38 54.024 221.088 55.5175 222.113C57.0109 223.138 58.1096 226.423 56.7609 226.796Z" fill="#D3766A"/>
<path d="M52.8862 99.4355C52.8862 99.4355 52.3467 108.97 49.7677 116.527C49.5572 117.151 49.3335 117.764 49.1098 118.354C46.7449 119.16 44.4722 120.148 42.3204 121.306C42.3204 121.306 42.0506 128.98 41.7743 137.54C41.4783 147.108 41.1625 157.778 41.2283 160.039C41.4651 168.51 39.9783 215.074 39.9783 215.074L12.1953 215.168C12.1953 215.168 17.2216 163.169 17.1822 160.067C17.1295 155.055 18.5308 133.04 19.6098 116.967C20.2677 107.065 20.8137 99.4355 20.8137 99.4355H52.8862Z" fill="#37474F"/>
<path d="M23.1357 102.845C22.6225 115.96 22.0831 129.081 21.3857 142.196C20.6883 155.312 19.7541 168.511 18.4515 181.637C17.7278 188.972 17.0436 199.286 16.1094 206.604C16.1094 206.654 16.1883 206.671 16.1949 206.604C18.2212 193.589 19.3462 177.499 20.3462 164.401C21.3462 151.302 22.0107 138.187 22.537 125.077C22.8397 117.659 23.0633 110.235 23.3265 102.8C23.3331 102.728 23.1357 102.739 23.1357 102.845Z" fill="#263238"/>
<path d="M50.2485 117.787C47.4865 118.763 44.8296 119.941 42.3077 121.306C42.2859 121.316 42.2695 121.332 42.2621 121.352C42.2547 121.372 42.2569 121.394 42.2683 121.412C42.2796 121.431 42.2992 121.444 42.3226 121.451C42.346 121.457 42.3715 121.455 42.3933 121.446C45.0709 120.332 47.8077 119.285 50.413 118.054C50.4337 118.045 50.4522 118.032 50.4672 118.017C50.4822 118.002 50.4936 117.984 50.5006 117.966C50.5076 117.947 50.5102 117.927 50.5081 117.907C50.5061 117.887 50.4995 117.868 50.4887 117.851C50.4779 117.833 50.4631 117.817 50.4452 117.805C50.4273 117.792 50.4066 117.782 50.3843 117.776C50.362 117.771 50.3385 117.768 50.3152 117.77C50.2919 117.772 50.2693 117.777 50.2485 117.787Z" fill="#263238"/>
<path d="M50.4037 109.694C50.2195 110.53 49.9826 111.365 49.7458 112.189C49.509 113.014 49.3971 113.765 49.1537 114.534C48.9468 115.282 48.49 115.965 47.8379 116.5C47.4761 116.784 47.0813 117.057 46.6932 117.296C46.4892 117.436 46.2655 117.569 46.0353 117.714C46.0353 117.603 46.0813 117.491 46.1076 117.374C46.1734 117.057 46.2392 116.739 46.2984 116.427C46.4366 115.72 46.5747 115.018 46.6997 114.311C46.9497 112.924 47.18 111.527 47.5221 110.151C47.5221 110.095 47.4366 110.073 47.4234 110.151C47.0155 111.51 46.5616 112.858 46.2063 114.228C46.0353 114.902 45.4103 118.226 45.384 118.46C45.3576 118.694 45.3313 118.945 45.3182 119.19C45.282 119.438 45.282 119.688 45.3182 119.936C45.3239 119.947 45.3332 119.956 45.3449 119.962C45.3565 119.968 45.3701 119.972 45.384 119.972C45.3978 119.972 45.4114 119.968 45.423 119.962C45.4347 119.956 45.444 119.947 45.4497 119.936C45.5696 119.705 45.6536 119.462 45.6997 119.212C45.7721 118.978 45.8379 118.739 45.884 118.494C45.884 118.41 45.884 118.321 45.93 118.232C46.3182 118.031 46.68 117.77 47.0418 117.547C47.4037 117.324 47.8247 117.074 48.1932 116.812C48.878 116.326 49.3715 115.675 49.6076 114.946C49.8436 114.165 49.9977 113.367 50.0682 112.562C50.1932 111.616 50.2853 110.669 50.4366 109.728C50.5024 109.644 50.4169 109.644 50.4037 109.694Z" fill="#263238"/>
<path d="M40.452 76.6807C44.7612 83.9206 55.6691 98.6009 61.2941 98.6956C68.327 98.807 82.3468 90.1302 85.8534 86.7442C87.3731 85.2683 75.281 75.0879 73.4915 76.5303C71.0968 78.4628 62.9652 84.3271 62.6757 84.4274C62.077 84.6279 51.7086 77.3601 45.4717 72.6709C38.4849 67.4192 37.1954 71.2173 40.452 76.6807Z" fill="#D3766A"/>
<path d="M82.5096 89.0769C82.5096 89.0769 87.7727 85.4402 91.1214 82.9508C92.9767 81.5474 95.9043 78.902 96.707 77.3482C97.9109 75.0147 101.194 64.6171 98.2333 63.8875C95.5556 63.2304 94.0754 72.4641 94.0754 72.4641C94.0754 72.4641 96.5425 63.2582 93.1412 62.9631C89.7398 62.6679 89.7069 73.2994 89.7069 73.2994C89.7069 73.2994 91.9898 63.7873 88.4306 63.96C85.7333 64.088 85.0688 73.7116 85.0688 73.7116C85.0688 73.7116 86.9635 65.5249 84.1872 65.5527C81.1214 65.5861 79.8451 74.4355 79.8451 74.4355C72.8056 75.5494 70.0359 78.334 68.3253 80.6173C67.9043 81.1464 82.5096 89.0769 82.5096 89.0769Z" fill="#D3766A"/>
<path d="M93.4654 75.6723C93.8009 74.5974 94.1233 73.5115 94.3733 72.4199C94.6233 71.3284 94.768 70.2201 94.8733 69.1174C95.0326 67.671 95.0017 66.2141 94.7812 64.7734C94.9588 67.352 94.2351 71.2838 94.0114 72.3754C93.7878 73.4669 93.6364 74.5696 93.4127 75.6667C93.4062 75.6723 93.4522 75.6723 93.4654 75.6723Z" fill="#263238"/>
<path d="M88.7804 75.0652C89.1357 73.6785 89.5568 72.314 89.8397 70.9106C90.1226 69.5072 90.2541 68.1762 90.4252 66.7727C90.4252 66.6613 90.366 66.6948 90.3462 66.7727C90.1094 68.1706 89.7607 69.4515 89.5041 70.8493C89.2476 72.2472 89.0568 73.6339 88.741 75.0318C88.7344 75.0819 88.7739 75.0819 88.7804 75.0652Z" fill="#263238"/>
<path d="M84.6504 75.1546C85.2602 73.0409 85.6129 70.88 85.703 68.7055C85.703 68.5941 85.6175 68.6442 85.6043 68.75C85.3017 70.8997 85.0846 72.5928 84.5648 75.1323C84.5583 75.1769 84.6372 75.1991 84.6504 75.1546Z" fill="#263238"/>
<path d="M67.7884 80.2997L77.9661 94.3284C77.9661 94.3284 65.4134 100.026 60.6503 98.9843C55.8871 97.9428 44.0252 85.0224 39.9792 76.741C35.9331 68.4597 40.9923 69.0946 44.9397 71.9126C48.8871 74.7306 62.4792 84.0478 62.7029 84.0255C62.9266 84.0032 67.7884 80.2997 67.7884 80.2997Z" fill="#C8C8FF"/>
<path d="M69.6541 88.965C68.9963 87.9458 68.2989 86.9489 67.6147 85.9465C67.2791 85.462 66.9568 84.9775 66.6015 84.5096C66.2462 84.0418 65.891 83.4515 65.4699 82.967C65.4637 82.9617 65.4556 82.9582 65.4468 82.9573C65.438 82.9564 65.4291 82.9579 65.4215 82.9618C65.4139 82.9657 65.4081 82.9716 65.4049 82.9786C65.4018 82.9856 65.4015 82.9933 65.4041 83.0004C65.6673 83.5573 66.062 84.1142 66.3449 84.6266C66.6278 85.139 66.9502 85.6179 67.2528 86.108C67.9107 87.1327 68.5357 88.1575 69.2265 89.171C70.5423 91.2038 71.9699 93.192 73.4042 95.1746C73.4126 95.1808 73.4232 95.1846 73.4344 95.1854C73.4455 95.1861 73.4567 95.1839 73.4662 95.1789C73.4758 95.1739 73.4832 95.1665 73.4874 95.1577C73.4916 95.1489 73.4924 95.1392 73.4897 95.13C72.2134 93.0527 70.9831 90.9977 69.6541 88.965Z" fill="#263238"/>
<path d="M62.5825 84.0258C61.4182 84.7487 60.3187 85.5436 59.293 86.4039C58.7338 86.8661 58.1877 87.3451 57.6614 87.8351C57.1351 88.3252 56.6285 88.8877 56.0956 89.4001C56.0895 89.4086 56.0869 89.4187 56.0883 89.4286C56.0896 89.4385 56.0949 89.4478 56.1033 89.4548C56.1117 89.4619 56.1226 89.4664 56.1343 89.4676C56.1461 89.4688 56.1579 89.4666 56.168 89.4613C56.7206 88.988 57.3259 88.5536 57.8983 88.0969C58.4706 87.6402 59.0364 87.1836 59.5956 86.7213C60.7206 85.7968 61.6351 85.1174 62.7141 84.1595C62.7799 84.0648 62.6746 83.9423 62.5825 84.0258Z" fill="#263238"/>
<path d="M65.1815 98.7328C63.7126 99.1067 62.1624 99.1924 60.6486 98.9835C55.8788 97.9476 44.0235 85.0216 39.9775 76.7402C39.3302 75.4921 38.8598 74.1835 38.5762 72.8418L65.1815 98.7328Z" fill="#263238"/>
<path d="M17.4853 112.768C17.584 112.852 58.2749 111.537 58.6301 111.159C59.1104 110.63 46.788 74.4021 42.1828 70.0248C41.2025 69.0947 35.4262 68.0588 32.4196 70.5538C22.6959 78.6514 17.1235 112.462 17.4853 112.768Z" fill="#C8C8FF"/>
<path d="M47.9258 80.3173C47.9258 80.2561 48.0179 80.2227 48.0442 80.2784C48.7021 81.6929 49.36 83.1242 49.9455 84.5666C49.9455 84.355 49.8929 84.1489 49.8732 83.9429C49.8205 83.386 49.8271 82.829 49.7679 82.3055C49.7679 82.2554 49.8666 82.2554 49.8666 82.3055C49.8666 82.8625 50.0245 83.4194 50.1232 83.9763C50.2218 84.5332 50.2876 84.9787 50.3929 85.48C50.3929 85.5691 50.3929 85.6582 50.4389 85.7417C51.4258 88.1365 55.1297 99.1411 56.5245 103.496C57.3074 105.952 57.9982 108.425 58.6495 110.909C58.6457 110.917 58.639 110.925 58.6302 110.93C58.6214 110.935 58.6109 110.938 58.6001 110.938C58.5894 110.938 58.5789 110.935 58.5701 110.93C58.5613 110.925 58.5545 110.917 58.5508 110.909C57.0442 106.598 55.5837 102.277 54.0837 97.966C52.7021 94.0509 48.7745 82.7399 47.9258 80.3173Z" fill="#263238"/>
<path d="M43.2676 71.5505C43.511 73.1099 43.9255 76.7243 41.0308 76.6742C39.8529 76.5701 38.7346 76.1837 37.8071 75.5603C36.8504 74.9855 35.9683 74.3265 35.1755 73.5944C34.2545 72.7956 33.4138 71.9331 32.6623 71.0159C32.6623 70.9769 32.5637 71.0159 32.5966 71.066C33.3597 71.9793 34.0176 72.9372 34.886 73.7949C35.7111 74.6255 36.6649 75.358 37.7216 75.9724C38.7039 76.6298 39.8995 77.0183 41.1492 77.0863C41.689 77.0755 42.2077 76.9072 42.6177 76.6098C43.0278 76.3125 43.3038 75.9043 43.3992 75.4545C43.7007 74.1612 43.6557 72.8272 43.2676 71.5505Z" fill="#263238"/>
<path d="M40.9968 75.0032C38.931 75.2984 35.2008 72.2186 33.9902 69.9909C34.1389 68.7961 34.3585 67.6084 34.6481 66.4322C34.8652 65.2906 35.0758 64.0208 35.1679 62.8457L43.7205 65.1179C43.1105 66.5564 42.7106 68.0526 42.5297 69.5733C42.5127 69.7344 42.5127 69.8966 42.5297 70.0578C42.5297 70.0578 42.5297 70.1079 42.5297 70.1413C42.6745 71.0881 42.9968 74.7192 40.9968 75.0032Z" fill="#D3766A"/>
<path d="M42.5627 70.1036C42.5627 70.1036 42.5627 70.1538 42.5627 70.1872C42.2628 70.2092 41.9613 70.2092 41.6614 70.1872C36.5561 69.7305 35.5956 64.8018 35.418 62.9473L43.7272 65.1749C43.1179 66.6139 42.7159 68.1098 42.5298 69.6303C42.5245 69.7886 42.5355 69.947 42.5627 70.1036Z" fill="#263238"/>
<path d="M32.67 55.143C32.1436 57.8441 34.9397 65.1675 37.3805 66.5765C40.9266 68.6427 46.1305 68.2862 48.0581 64.7999C49.92 61.4195 46.0845 51.9463 43.4002 50.7044C39.466 48.8721 33.4463 51.1666 32.67 55.143Z" fill="#D3766A"/>
<path d="M42.3466 58.6523C42.3466 58.6523 42.3072 58.6913 42.3466 58.708C42.5374 59.1981 42.669 59.7885 42.1953 60.0892C42.8006 59.872 42.6098 59.0923 42.3466 58.6523Z" fill="#263238"/>
<path d="M41.636 58.2743C40.6755 58.4525 41.1755 60.0731 42.0702 59.9005C42.965 59.7278 42.4452 58.1184 41.636 58.2743Z" fill="#263238"/>
<path d="M45.6641 57.9121C45.6641 57.9121 45.7233 57.9121 45.7233 57.9455C45.8614 58.4523 46.118 59.0092 46.7035 59.0594C46.7035 59.0594 46.7035 59.0872 46.7035 59.0928C46.0325 59.154 45.7035 58.4078 45.6641 57.9121Z" fill="#263238"/>
<path d="M46.033 57.2929C46.9673 57.0201 47.5396 58.6184 46.6909 58.869C45.8422 59.1196 45.2436 57.499 46.033 57.2929Z" fill="#263238"/>
<path d="M40.6364 57.7009C40.8646 57.5841 41.0843 57.4558 41.2943 57.3166C41.5509 57.1663 41.7746 57.0716 41.893 56.8154C41.9158 56.7395 41.9089 56.6594 41.8733 56.5871C41.8377 56.5148 41.7754 56.4542 41.6957 56.4144C41.5245 56.3571 41.3384 56.3398 41.1567 56.3643C40.975 56.3888 40.8044 56.4542 40.6628 56.5537C40.3479 56.7203 40.1143 56.9773 40.0049 57.2777C39.9866 57.3472 39.9918 57.4196 40.0199 57.4867C40.048 57.5538 40.0979 57.6128 40.1638 57.657C40.2298 57.7012 40.3091 57.7287 40.3927 57.7365C40.4763 57.7443 40.5607 57.7319 40.6364 57.7009Z" fill="#263238"/>
<path d="M46.5187 56.2903C46.2424 56.2903 45.9858 56.2903 45.7095 56.2903C45.4233 56.3239 45.132 56.277 44.8806 56.1566C44.8106 56.1056 44.7624 56.0365 44.7434 55.96C44.7244 55.8835 44.7356 55.8039 44.7753 55.7333C44.8799 55.6053 45.0226 55.5028 45.1889 55.4364C45.3553 55.3699 45.5394 55.3417 45.7227 55.3546C46.1004 55.3324 46.474 55.4318 46.7687 55.6331C46.8355 55.6808 46.8841 55.7443 46.9082 55.8154C46.9322 55.8866 46.9308 55.9622 46.904 56.0326C46.8772 56.1031 46.8263 56.1652 46.7577 56.2111C46.689 56.2569 46.6059 56.2845 46.5187 56.2903Z" fill="#263238"/>
<path d="M43.1297 63.3413C43.2925 63.4601 43.5003 63.5254 43.7153 63.5251C43.9357 63.4746 44.1402 63.3833 44.3139 63.2578C44.2598 63.3737 44.1704 63.4754 44.0549 63.5527C43.9394 63.63 43.8018 63.68 43.656 63.6978C43.5269 63.6977 43.4007 63.6654 43.293 63.605C43.1854 63.5446 43.1011 63.4587 43.0508 63.3581C43.0639 63.3525 43.1034 63.3302 43.1297 63.3413Z" fill="#263238"/>
<path d="M43.2676 61.7046C43.4791 61.8693 43.7285 61.9954 44.0002 62.0749C44.2718 62.1544 44.5599 62.1857 44.8465 62.1668C45.0963 62.1524 45.3423 62.1073 45.5768 62.0332L45.715 61.9886L45.84 61.9441C45.87 61.9321 45.8942 61.9117 45.9086 61.8863C45.923 61.861 45.9266 61.8322 45.9189 61.8048V61.7547V61.7102C45.8136 61.3203 45.5899 60.7467 45.5899 60.7467C45.7742 60.7801 46.7281 60.9138 46.6492 60.7188C46.0618 58.9838 45.266 57.3043 44.2742 55.7066C44.2742 55.6565 44.1426 55.7066 44.1689 55.7456C44.7018 57.3439 45.5636 58.8476 46.1426 60.446C45.804 60.394 45.4585 60.3828 45.1163 60.4125C45.0571 60.446 45.5768 61.5264 45.6031 61.699C45.24 61.8157 44.8526 61.8685 44.4646 61.8542C44.0766 61.8398 43.6962 61.7586 43.3465 61.6155C43.2676 61.6322 43.2676 61.6767 43.2676 61.7046Z" fill="#263238"/>
<path d="M45.2412 61.8994C45.0781 62.2314 44.8149 62.5214 44.478 62.7404C44.2862 62.8567 44.0561 62.9191 43.8201 62.9186C43.3135 62.9186 43.1622 62.551 43.1622 62.2169C43.1603 62.0408 43.1824 61.8651 43.228 61.6934C43.8554 61.9436 44.5614 62.0158 45.2412 61.8994Z" fill="#263238"/>
<path d="M44.5052 62.7408C44.3134 62.8571 44.0833 62.9195 43.8473 62.919C43.3408 62.919 43.1895 62.5515 43.1895 62.2173C43.4465 62.1621 43.7182 62.1841 43.9581 62.2795C44.1981 62.375 44.3915 62.5381 44.5052 62.7408Z" fill="#FF98B9"/>
<path d="M34.3987 61.0194C36.5961 60.5962 36.1224 57.121 36.1224 57.121C36.1224 57.121 39.754 55.8791 39.6685 53.373C39.6685 53.373 43.7606 54.626 46.3461 53.2282C48.9317 51.8303 47.6224 49.2518 47.1619 48.7339C46.7014 48.2159 45.4185 49.5804 45.4185 49.5804C45.4185 49.5804 44.8395 48.0934 44.3132 48.0266C43.7869 47.9597 43.5172 48.9845 43.5172 48.9845C41.1189 48.8009 38.7016 48.9229 36.3461 49.3465C33.0566 50.0537 32.1948 53.1669 32.1948 53.1669C32.1948 53.1669 30.5172 53.8185 30.2211 54.9713C29.925 56.1241 33.004 61.2923 34.3987 61.0194Z" fill="#263238"/>
<path d="M39.5044 52.9434C39.6128 53.4366 39.6128 53.9426 39.5044 54.4359C39.3963 54.9142 39.1371 55.3588 38.7544 55.7224C38.3473 56.0743 37.8651 56.3578 37.3334 56.5577C37.0702 56.6524 36.7873 56.736 36.5044 56.8195C36.2215 56.903 35.9321 56.9476 35.6426 57.0256C35.9386 57.0256 36.2413 56.9643 36.5439 56.9365C36.8465 56.9086 37.1294 56.8139 37.4189 56.7304C38.005 56.5533 38.536 56.2658 38.9715 55.8894C39.3906 55.4918 39.6528 54.9934 39.7215 54.4637C39.7993 53.9495 39.7247 53.4271 39.5044 52.9434Z" fill="#263238"/>
<path d="M32.2748 53.5739C32.2756 52.7532 32.5296 51.9469 33.0117 51.2348C33.502 50.5409 34.2421 49.9983 35.1235 49.6866C35.3379 49.6038 35.5575 49.5313 35.7814 49.4694L36.4788 49.3246C36.9525 49.2522 37.4327 49.2299 37.913 49.1909C38.3933 49.152 38.8867 49.1909 39.367 49.1909C39.8472 49.1909 40.3406 49.2689 40.8275 49.2968C40.3472 49.2132 39.867 49.1464 39.3801 49.0684C38.8933 48.9905 38.3998 49.0127 37.9064 48.9849C36.9105 48.9741 35.922 49.1313 34.9985 49.4471C34.0692 49.7803 33.2997 50.3689 32.8143 51.1179C32.3443 51.8713 32.1562 52.7278 32.2748 53.5739Z" fill="#263238"/>
<path d="M41.537 61.6986C41.0095 61.7622 40.4714 61.6995 39.9837 61.5177C39.496 61.3358 39.0781 61.0421 38.7774 60.6696C38.4766 60.2972 38.305 59.861 38.282 59.4103C38.2589 58.9596 38.3853 58.5124 38.6469 58.1194C38.9084 57.7263 39.2947 57.4031 39.762 57.1863C40.2293 56.9694 40.759 56.8676 41.2911 56.8923C41.8232 56.917 42.3365 57.0673 42.773 57.3262C43.2094 57.5851 43.5516 57.9422 43.7607 58.3571C43.9354 58.6979 44.0145 59.0683 43.9918 59.4393C43.969 59.8103 43.8451 60.1719 43.6297 60.4955C43.4143 60.8192 43.1133 61.0963 42.7502 61.305C42.3871 61.5137 41.9719 61.6484 41.537 61.6986ZM40.7673 57.2432C40.5644 57.2707 40.3658 57.3174 40.1752 57.3825C39.5944 57.5877 39.1278 57.9727 38.8706 58.459C38.6133 58.9453 38.5847 59.4963 38.7906 59.9998C38.9964 60.5033 39.4213 60.9214 39.9786 61.169C40.5359 61.4166 41.1838 61.4751 41.7903 61.3325C42.3967 61.1899 42.9161 60.8569 43.2428 60.4015C43.5694 59.946 43.6786 59.4023 43.5482 58.881C43.4178 58.3598 43.0576 57.9002 42.5409 57.5959C42.0243 57.2916 41.39 57.1655 40.7673 57.2432Z" fill="#C8C8FF"/>
<path d="M47.872 60.2346C46.7865 60.3683 45.6417 59.5552 45.2404 58.3356C45.0429 57.7558 45.0659 57.1382 45.3062 56.5701C45.3906 56.3207 45.5498 56.094 45.7683 55.9121C45.9869 55.7301 46.2573 55.5992 46.5533 55.5319C46.8493 55.4646 47.1609 55.4633 47.4577 55.5282C47.7545 55.593 48.0264 55.7217 48.247 55.9018C48.79 56.2911 49.1744 56.8153 49.3457 57.3999C49.7536 58.692 49.1681 59.9451 48.0299 60.1845L47.872 60.2346ZM46.8128 55.8183L46.6746 55.8461C46.4413 55.9065 46.2288 56.0141 46.0557 56.1597C45.8826 56.3052 45.754 56.4844 45.6812 56.6815C45.4684 57.1872 45.45 57.7369 45.6286 58.252C45.9773 59.3659 47.0233 60.1066 47.951 59.8894C48.8786 59.6722 49.3523 58.6029 48.997 57.4835C48.8446 56.9659 48.5068 56.501 48.0299 56.1524C47.8648 56.0275 47.6706 55.9332 47.4599 55.8757C47.2491 55.8181 47.0264 55.7986 46.8062 55.8183H46.8128Z" fill="#C8C8FF"/>
<path d="M43.7545 58.6695L43.4453 58.4857C43.7677 58.0903 44.6098 57.4722 45.4782 57.9288L45.2743 58.2017C44.498 57.7952 43.7874 58.6361 43.7545 58.6695Z" fill="#C8C8FF"/>
<path d="M32.2246 62.0211L31.8496 61.9543C31.8891 61.8039 32.2443 60.5063 33.0338 60.2056C33.8233 59.9048 38.297 59.2365 38.4878 59.2031L38.547 59.5206C36.7424 59.7656 34.9547 60.0928 33.1917 60.5007C32.672 60.7012 32.3167 61.6647 32.2246 62.0211Z" fill="#C8C8FF"/>
<path d="M35.523 61.0353C35.523 61.0353 33.0888 58.88 31.898 59.6541C30.7072 60.4283 32.8519 63.7308 34.4572 64.0092C34.6624 64.061 34.878 64.0766 35.0907 64.0551C35.3033 64.0335 35.5085 63.9753 35.6935 63.8839C35.8785 63.7926 36.0394 63.6701 36.1662 63.524C36.293 63.3779 36.3831 63.2113 36.4309 63.0346L35.523 61.0353Z" fill="#D3766A"/>
<path d="M42.6096 70.0369L40.4846 74.3641L34.1754 68.7949L32.3398 70.5436C32.3398 70.5436 38.4714 79.3485 38.5175 78.9531L40.682 75.2217L43.7017 77.8615L43.5438 71.3122L42.6096 70.0369Z" fill="#EBEBEB"/>
<path d="M43.8324 74.6241C43.7666 73.5437 43.7337 72.4521 43.6022 71.3773C43.6022 71.3383 43.5298 71.3216 43.5166 71.3773C43.2469 72.4187 43.5166 76.551 43.5166 77.5368C43.3916 77.4254 40.714 75.2144 40.6877 75.2478C40.2206 75.8382 38.6285 78.5559 38.5232 78.801C37.5495 77.4031 33.8324 72.3184 32.6811 71.0041C32.6796 70.9979 32.6764 70.9921 32.6717 70.9871C32.667 70.9822 32.6609 70.9783 32.654 70.9758C32.6472 70.9733 32.6397 70.9723 32.6322 70.9728C32.6247 70.9733 32.6175 70.9753 32.6112 70.9787C32.6049 70.9822 32.5996 70.9868 32.5959 70.9923C32.5922 70.9978 32.5901 71.004 32.5899 71.0104C32.5896 71.0167 32.5912 71.023 32.5945 71.0287C32.5978 71.0344 32.6027 71.0394 32.6087 71.0431C33.4574 72.5189 38.3785 79.3634 38.4508 79.3467C39.289 78.0672 40.0466 76.751 40.7206 75.4038C41.1745 75.8827 43.8719 78.3721 43.8851 78.1884C43.9403 77.0003 43.9228 75.8106 43.8324 74.6241Z" fill="#263238"/>
<path d="M28.2014 80.7519C28.8593 89.6236 31.5567 106.331 37.7277 109.89C44.3067 113.666 63.0896 114.189 68.2936 114.145C70.4975 114.145 69.2278 100.283 66.9317 99.8263C64.6357 99.3696 48.5106 98.796 46.8791 98.189C45.2475 97.5819 40.0567 85.5748 36.0304 78.58C31.3593 70.3543 27.6817 73.5399 28.2014 80.7519Z" fill="#D3766A"/>
<path d="M77.7684 100.866C76.6895 100.582 76.8605 100.103 78.7289 99.5014C80.5974 98.8999 88.5974 97.8641 87.9395 95.5306C87.2816 93.1971 76.0053 94.7954 72.9789 95.9984C69.9526 97.2013 65.5645 100.047 65.5645 100.047C67.8342 100.108 73.321 100.699 77.7684 100.866Z" fill="#D3766A"/>
<path d="M75.4375 109.834L97.6941 110.502L103.01 83.9652L80.7533 83.2969L75.4375 109.834Z" fill="#263238"/>
<path d="M76.5312 109.867L98.7879 110.535L104.11 83.9928L81.8536 83.3301L76.5312 109.867Z" fill="#455A64"/>
<path d="M93.2686 95.8548C93.1882 96.3487 92.8968 96.8005 92.4494 97.1248C92.0021 97.4491 91.4298 97.6234 90.8409 97.6146C90.5641 97.6081 90.2921 97.5524 90.0424 97.4511C89.7927 97.3498 89.571 97.2052 89.3917 97.0266C89.2124 96.848 89.0795 96.6395 89.0016 96.4146C88.9237 96.1897 88.9026 95.9534 88.9396 95.7211C89.0215 95.2267 89.3142 94.7748 89.7627 94.4506C90.2111 94.1264 90.7842 93.9524 91.3738 93.9613C91.65 93.9685 91.9213 94.0248 92.1702 94.1264C92.4191 94.2281 92.64 94.3728 92.8186 94.5513C92.9972 94.7298 93.1296 94.9381 93.2071 95.1626C93.2846 95.3872 93.3055 95.623 93.2686 95.8548Z" fill="white"/>
<path d="M66.8724 114.15C73.2672 114.122 81.2277 114.417 87.4317 111.293C88.1313 110.961 88.6783 110.439 88.9843 109.812C91.7935 108.453 91.879 106.921 91.879 106.921C94.0369 104.978 93.8527 103.407 93.8527 103.407C93.8527 103.407 97.1422 101.781 96.3001 99.9375C95.3725 97.8769 90.9514 100.561 87.458 100.778C79.4382 101.285 67.879 100.099 65.5566 100.049L66.8724 114.15Z" fill="#D3766A"/>
<path d="M79.5044 106.302C81.8517 106.181 84.1862 105.923 86.4912 105.528C88.9828 104.966 91.4216 104.247 93.7873 103.379C93.8597 103.351 93.9057 103.434 93.8399 103.473C89.4713 105.537 84.5172 106.547 79.5175 106.392C79.3991 106.392 79.386 106.302 79.5044 106.302Z" fill="#263238"/>
<path d="M79.1624 110.441C81.4388 110.151 85.4453 109.622 91.8401 106.865C91.8401 106.865 91.8861 106.865 91.8401 106.893C88.0927 109.083 83.6975 110.345 79.1493 110.535C79.0309 110.541 79.0111 110.463 79.1624 110.441Z" fill="#263238"/>
<path d="M79.0251 112.667C82.8804 112.049 85.2159 111.247 88.9593 109.805C88.9593 109.805 89.0054 109.805 88.9593 109.838C84.9067 111.854 83.1633 112.199 79.0054 112.784C78.8869 112.806 78.8738 112.695 79.0251 112.667Z" fill="#263238"/>
<path d="M60.2293 99.1628L61.3938 115.169C61.3938 115.169 40.6371 114.289 35.374 109.004C30.1108 103.718 27.3937 86.4651 27.7358 79.3143C28.0779 72.1635 32.4135 71.4395 36.0977 78.0334C39.7819 84.6273 46.5253 97.1078 46.8608 97.4531C47.1964 97.7983 60.2293 99.1628 60.2293 99.1628Z" fill="#C8C8FF"/>
<path d="M58.168 106.976C58.122 105.818 58.0496 104.659 57.9772 103.501C57.9378 102.944 57.9114 102.387 57.8522 101.83C57.793 101.273 57.7864 100.616 57.6746 100.026C57.6746 100.017 57.6704 100.008 57.663 100.002C57.6556 99.9957 57.6456 99.9922 57.6351 99.9922C57.6246 99.9922 57.6146 99.9957 57.6072 100.002C57.5998 100.008 57.5956 100.017 57.5956 100.026C57.5299 100.622 57.5956 101.234 57.5956 101.836C57.5956 102.437 57.5956 102.949 57.5956 103.506C57.5956 104.665 57.6285 105.823 57.6812 106.981C57.7733 109.304 57.9509 111.615 58.1614 113.932C58.1614 113.944 58.167 113.955 58.1769 113.963C58.1867 113.972 58.2001 113.976 58.2141 113.976C58.228 113.976 58.2414 113.972 58.2513 113.963C58.2612 113.955 58.2667 113.944 58.2667 113.932C58.2601 111.615 58.2535 109.298 58.168 106.976Z" fill="#263238"/>
<path d="M41.2411 111.982C39.2334 111.547 37.41 110.644 35.978 109.376C34.4531 107.967 33.3439 106.272 32.7411 104.431C31.1757 100.414 29.99 96.2985 29.1951 92.1228C28.7477 89.7503 28.3727 87.3556 28.149 84.9553C28.149 84.9464 28.1448 84.9379 28.1374 84.9317C28.13 84.9254 28.12 84.9219 28.1095 84.9219C28.0991 84.9219 28.089 84.9254 28.0816 84.9317C28.0742 84.9379 28.0701 84.9464 28.0701 84.9553C28.1095 86.6669 28.228 88.3655 28.4253 90.0511C28.3858 89.9397 28.3464 89.8227 28.3135 89.7058C28.1161 88.9985 27.8924 88.2968 27.6556 87.5895C27.6556 87.4893 27.4582 87.5394 27.4779 87.6341C27.6071 88.3582 27.7828 89.0758 28.0043 89.7838C28.1753 90.3017 28.3332 90.8586 28.5635 91.3765C28.8649 93.5962 29.3041 95.801 29.8793 97.9816C30.4516 100.126 31.1293 102.259 31.9451 104.353C32.6753 106.213 33.5372 108.012 35.1885 109.432C36.8337 110.793 38.9198 111.71 41.1819 112.066C41.195 112.073 41.2107 112.075 41.2255 112.071C41.2403 112.068 41.253 112.06 41.2609 112.049C41.2687 112.038 41.271 112.025 41.2673 112.012C41.2636 112 41.2542 111.989 41.2411 111.982Z" fill="#263238"/>
<path d="M54.1752 98.4671C52.5108 98.144 50.8266 97.9101 49.1423 97.654L47.9384 97.4869C47.4844 97.4256 47.0963 97.4089 46.8726 97.0246C46.4779 96.3563 46.1423 95.6546 45.7805 94.9696C44.4647 92.4524 43.0897 89.9574 41.6818 87.4401C41.3265 86.5323 40.9844 85.6134 40.6621 84.7001C40.6621 84.6897 40.6572 84.6798 40.6486 84.6725C40.6399 84.6652 40.6282 84.6611 40.616 84.6611C40.6038 84.6611 40.5921 84.6652 40.5834 84.6725C40.5748 84.6798 40.57 84.6897 40.57 84.7001C40.7213 85.2848 40.9121 85.8585 41.116 86.4265C40.423 85.2124 39.7125 84.0058 38.9844 82.8066C38.945 82.7509 38.8331 82.8066 38.8594 82.8511C40.1752 85.6357 41.6292 88.3869 43.1094 91.1213C43.8594 92.5025 44.6029 93.9059 45.366 95.2592C45.7279 95.9108 46.0634 96.5847 46.4515 97.2251C46.8397 97.8656 47.5831 97.821 48.3068 97.9157C50.2805 98.1608 52.2016 98.4058 54.1621 98.5506C54.2345 98.5784 54.241 98.506 54.1752 98.4671Z" fill="#263238"/>
</g>
<defs>
<clipPath id="clip0_1200_25226">
<rect width="293" height="255" fill="white" transform="translate(0.830078)"/>
</clipPath>
</defs>
</svg>
