<svg width="354" height="155" viewBox="0 0 354 155" fill="none" xmlns="http://www.w3.org/2000/svg">
<g filter="url(#filter0_d_2240_18160)">
<rect x="19.5322" y="14.9883" width="315.808" height="154.643" rx="18.6317" fill="#F5F5F5"/>
<rect x="19.998" y="15.4541" width="314.876" height="153.712" rx="18.1659" stroke="#D2D2D2" stroke-width="0.931587"/>
<path d="M43.6035 57.7854C44.6952 57.7854 45.5958 57.9218 46.3054 58.1947C47.0211 58.4616 47.5548 58.871 47.9066 59.4229C48.2584 59.9748 48.4342 60.6784 48.4342 61.5335C48.4342 62.2371 48.3069 62.8254 48.0521 63.2985C47.7974 63.7655 47.4638 64.1445 47.0514 64.4356C46.639 64.7268 46.1993 64.9512 45.7323 65.1089L49.3804 71.0859H47.5791L44.3222 65.5364H41.5565V71.0859H40.0099V57.7854H43.6035ZM43.5125 59.1227H41.5565V64.2264H43.6671C44.7528 64.2264 45.5503 64.005 46.0598 63.5623C46.5753 63.1195 46.8331 62.4675 46.8331 61.6063C46.8331 60.7026 46.5602 60.0628 46.0143 59.6867C45.4745 59.3107 44.6406 59.1227 43.5125 59.1227ZM58.8473 60.9331C59.6964 60.9331 60.4242 61.1211 61.0307 61.4971C61.6372 61.8732 62.1011 62.4008 62.4226 63.0801C62.744 63.7533 62.9048 64.5418 62.9048 65.4455V66.3825H56.0179C56.0361 67.5531 56.3273 68.4446 56.8913 69.0572C57.4553 69.6698 58.2499 69.976 59.2749 69.976C59.9056 69.976 60.4636 69.9184 60.9488 69.8032C61.434 69.688 61.9374 69.5181 62.459 69.2937V70.622C61.9556 70.8464 61.4552 71.0101 60.9579 71.1132C60.4666 71.2163 59.8844 71.2679 59.2112 71.2679C58.2529 71.2679 57.4159 71.0738 56.7003 70.6856C55.9906 70.2914 55.4387 69.7152 55.0445 68.9571C54.6503 68.199 54.4532 67.271 54.4532 66.1733C54.4532 65.0998 54.6321 64.1718 54.9899 63.3894C55.3538 62.601 55.8633 61.9945 56.5183 61.5699C57.1794 61.1454 57.9557 60.9331 58.8473 60.9331ZM58.8291 62.1704C58.0224 62.1704 57.3795 62.4342 56.9004 62.9618C56.4213 63.4895 56.1362 64.2264 56.0452 65.1725H61.3218C61.3157 64.5782 61.2217 64.0566 61.0398 63.6078C60.8639 63.1529 60.594 62.8011 60.2301 62.5525C59.8662 62.2977 59.3992 62.1704 58.8291 62.1704ZM71.3891 71.0859L67.6045 61.1151H69.2239L71.4164 67.1467C71.568 67.5591 71.7227 68.014 71.8804 68.5113C72.0381 69.0087 72.1472 69.409 72.2079 69.7122H72.2716C72.3444 69.409 72.4657 69.0087 72.6355 68.5113C72.8053 68.0079 72.96 67.5531 73.0995 67.1467L75.292 61.1151H76.9113L73.1176 71.0859H71.3891ZM86.078 60.9331C86.9271 60.9331 87.6549 61.1211 88.2614 61.4971C88.8679 61.8732 89.3319 62.4008 89.6533 63.0801C89.9747 63.7533 90.1355 64.5418 90.1355 65.4455V66.3825H83.2486C83.2668 67.5531 83.558 68.4446 84.122 69.0572C84.6861 69.6698 85.4806 69.976 86.5056 69.976C87.1363 69.976 87.6943 69.9184 88.1795 69.8032C88.6647 69.688 89.1681 69.5181 89.6897 69.2937V70.622C89.1863 70.8464 88.6859 71.0101 88.1886 71.1132C87.6973 71.2163 87.1151 71.2679 86.4419 71.2679C85.4836 71.2679 84.6466 71.0738 83.931 70.6856C83.2214 70.2914 82.6694 69.7152 82.2752 68.9571C81.881 68.199 81.6839 67.271 81.6839 66.1733C81.6839 65.0998 81.8628 64.1718 82.2206 63.3894C82.5845 62.601 83.094 61.9945 83.749 61.5699C84.4101 61.1454 85.1864 60.9331 86.078 60.9331ZM86.0598 62.1704C85.2531 62.1704 84.6102 62.4342 84.1311 62.9618C83.652 63.4895 83.3669 64.2264 83.2759 65.1725H88.5525C88.5464 64.5782 88.4524 64.0566 88.2705 63.6078C88.0946 63.1529 87.8247 62.8011 87.4608 62.5525C87.0969 62.2977 86.6299 62.1704 86.0598 62.1704ZM101.149 60.9331C102.332 60.9331 103.226 61.2242 103.833 61.8065C104.439 62.3826 104.742 63.3106 104.742 64.5903V71.0859H103.25V64.6904C103.25 63.8595 103.059 63.2378 102.677 62.8254C102.301 62.413 101.722 62.2068 100.94 62.2068C99.8359 62.2068 99.0595 62.5191 98.6107 63.1438C98.1619 63.7685 97.9375 64.6752 97.9375 65.864V71.0859H96.4273V61.1151H97.6464L97.8738 62.5525H97.9557C98.168 62.2007 98.4379 61.9065 98.7654 61.67C99.0929 61.4274 99.4598 61.2454 99.8662 61.1241C100.273 60.9968 100.7 60.9331 101.149 60.9331ZM119.813 61.1151V71.0859H118.576L118.358 69.6849H118.276C118.07 70.0306 117.803 70.3217 117.475 70.5583C117.148 70.7948 116.778 70.9707 116.365 71.0859C115.959 71.2072 115.525 71.2679 115.065 71.2679C114.276 71.2679 113.615 71.1405 113.081 70.8858C112.548 70.6311 112.144 70.2368 111.871 69.7031C111.604 69.1694 111.471 68.484 111.471 67.6471V61.1151H112.999V67.5379C112.999 68.3688 113.187 68.9905 113.563 69.4029C113.939 69.8093 114.513 70.0124 115.283 70.0124C116.023 70.0124 116.611 69.8729 117.048 69.5939C117.491 69.315 117.809 68.9056 118.003 68.3658C118.197 67.8199 118.294 67.1528 118.294 66.3643V61.1151H119.813ZM130.572 60.9331C131.421 60.9331 132.149 61.1211 132.756 61.4971C133.362 61.8732 133.826 62.4008 134.147 63.0801C134.469 63.7533 134.63 64.5418 134.63 65.4455V66.3825H127.743C127.761 67.5531 128.052 68.4446 128.616 69.0572C129.18 69.6698 129.975 69.976 131 69.976C131.63 69.976 132.188 69.9184 132.674 69.8032C133.159 69.688 133.662 69.5181 134.184 69.2937V70.622C133.68 70.8464 133.18 71.0101 132.683 71.1132C132.192 71.2163 131.609 71.2679 130.936 71.2679C129.978 71.2679 129.141 71.0738 128.425 70.6856C127.716 70.2914 127.164 69.7152 126.769 68.9571C126.375 68.199 126.178 67.271 126.178 66.1733C126.178 65.0998 126.357 64.1718 126.715 63.3894C127.079 62.601 127.588 61.9945 128.243 61.5699C128.904 61.1454 129.681 60.9331 130.572 60.9331ZM130.554 62.1704C129.747 62.1704 129.104 62.4342 128.625 62.9618C128.146 63.4895 127.861 64.2264 127.77 65.1725H133.047C133.041 64.5782 132.947 64.0566 132.765 63.6078C132.589 63.1529 132.319 62.8011 131.955 62.5525C131.591 62.2977 131.124 62.1704 130.554 62.1704ZM148.964 71.0859H140.248V69.8214L143.805 66.2097C144.466 65.5425 145.021 64.9481 145.47 64.4265C145.925 63.905 146.271 63.3925 146.507 62.8891C146.744 62.3796 146.862 61.8216 146.862 61.2151C146.862 60.4631 146.638 59.8899 146.189 59.4957C145.746 59.0954 145.161 58.8953 144.433 58.8953C143.796 58.8953 143.232 59.0044 142.741 59.2228C142.25 59.4411 141.746 59.7504 141.231 60.1507L140.421 59.1318C140.773 58.8346 141.155 58.5708 141.567 58.3403C141.986 58.1098 142.432 57.9279 142.905 57.7945C143.384 57.661 143.893 57.5943 144.433 57.5943C145.252 57.5943 145.958 57.7368 146.553 58.0219C147.147 58.3069 147.605 58.7133 147.927 59.241C148.254 59.7686 148.418 60.3963 148.418 61.1241C148.418 61.8277 148.278 62.4827 147.999 63.0892C147.72 63.6897 147.329 64.2871 146.826 64.8814C146.322 65.4697 145.734 66.0944 145.061 66.7555L142.168 69.6394V69.7031H148.964V71.0859ZM163.425 64.4175C163.425 65.497 163.343 66.4614 163.179 67.3105C163.016 68.1596 162.758 68.8783 162.406 69.4666C162.054 70.0549 161.6 70.5037 161.042 70.813C160.484 71.1163 159.813 71.2679 159.031 71.2679C158.042 71.2679 157.224 70.998 156.575 70.4582C155.932 69.9184 155.45 69.1391 155.128 68.1201C154.813 67.0952 154.655 65.8609 154.655 64.4175C154.655 62.9982 154.798 61.7792 155.083 60.7602C155.374 59.7353 155.841 58.9498 156.484 58.404C157.127 57.8521 157.976 57.5761 159.031 57.5761C160.032 57.5761 160.857 57.849 161.506 58.3949C162.155 58.9347 162.637 59.7171 162.952 60.7421C163.267 61.761 163.425 62.9861 163.425 64.4175ZM156.174 64.4175C156.174 65.6547 156.268 66.6858 156.456 67.5106C156.644 68.3355 156.948 68.9541 157.366 69.3665C157.791 69.7729 158.346 69.976 159.031 69.976C159.716 69.976 160.268 69.7729 160.687 69.3665C161.111 68.9601 161.418 68.3446 161.606 67.5197C161.8 66.6949 161.897 65.6608 161.897 64.4175C161.897 63.1984 161.803 62.1795 161.615 61.3607C161.427 60.5358 161.123 59.9172 160.705 59.5048C160.286 59.0863 159.729 58.8771 159.031 58.8771C158.334 58.8771 157.776 59.0863 157.357 59.5048C156.939 59.9172 156.635 60.5358 156.447 61.3607C156.265 62.1795 156.174 63.1984 156.174 64.4175ZM171.737 57.5943C172.646 57.5943 173.335 57.9582 173.802 58.686C174.275 59.4077 174.511 60.4297 174.511 61.7519C174.511 63.0741 174.284 64.1051 173.829 64.845C173.374 65.5789 172.677 65.9458 171.737 65.9458C170.863 65.9458 170.193 65.5789 169.726 64.845C169.265 64.1051 169.035 63.0741 169.035 61.7519C169.035 60.4297 169.256 59.4077 169.699 58.686C170.142 57.9582 170.821 57.5943 171.737 57.5943ZM171.737 58.6769C171.245 58.6769 170.884 58.9347 170.654 59.4502C170.424 59.9597 170.308 60.7269 170.308 61.7519C170.308 62.7769 170.424 63.5502 170.654 64.0717C170.884 64.5933 171.245 64.8541 171.737 64.8541C172.246 64.8541 172.625 64.5933 172.874 64.0717C173.122 63.5502 173.247 62.7769 173.247 61.7519C173.247 60.733 173.122 59.9657 172.874 59.4502C172.631 58.9347 172.252 58.6769 171.737 58.6769ZM180.161 57.7854L172.783 71.0859H171.455L178.833 57.7854H180.161ZM179.806 62.9255C180.71 62.9255 181.398 63.2894 181.871 64.0172C182.344 64.7389 182.581 65.7609 182.581 67.083C182.581 68.3991 182.353 69.4272 181.899 70.1671C181.444 70.901 180.746 71.2679 179.806 71.2679C178.927 71.2679 178.257 70.901 177.796 70.1671C177.335 69.4272 177.104 68.3991 177.104 67.083C177.104 65.7609 177.323 64.7389 177.759 64.0172C178.202 63.2894 178.884 62.9255 179.806 62.9255ZM179.806 64.0172C179.315 64.0172 178.954 64.2719 178.724 64.7814C178.493 65.2908 178.378 66.058 178.378 67.083C178.378 68.108 178.493 68.8813 178.724 69.4029C178.954 69.9184 179.315 70.1762 179.806 70.1762C180.316 70.1762 180.695 69.9215 180.943 69.412C181.192 68.8965 181.316 68.1201 181.316 67.083C181.316 66.0641 181.192 65.2999 180.943 64.7905C180.701 64.2749 180.322 64.0172 179.806 64.0172ZM43.2305 92.2803C42.7998 92.0862 42.4359 91.9528 42.1388 91.88C41.8416 91.8011 41.5504 91.7617 41.2654 91.7617C40.9197 91.7617 40.5528 91.8648 40.1646 92.071C39.7825 92.2772 39.4368 92.538 39.1275 92.8534V91.4979C39.4307 91.1764 39.7673 90.9338 40.1373 90.7701C40.5133 90.6063 40.9227 90.5244 41.3655 90.5244C41.7415 90.5244 42.1054 90.5669 42.4572 90.6518C42.815 90.7307 43.2608 90.8853 43.7945 91.1158C44.2373 91.3038 44.6042 91.4372 44.8953 91.5161C45.1864 91.5949 45.4684 91.6343 45.7414 91.6343C46.0992 91.6343 46.4692 91.5312 46.8513 91.325C47.2334 91.1188 47.576 90.858 47.8793 90.5426V91.88C47.5882 92.1954 47.2576 92.441 46.8877 92.6169C46.5177 92.7867 46.1083 92.8716 45.6595 92.8716C45.2956 92.8716 44.9347 92.8322 44.5769 92.7533C44.2191 92.6745 43.7702 92.5168 43.2305 92.2803ZM43.2305 95.8738C42.7998 95.6797 42.4359 95.5463 42.1388 95.4735C41.8416 95.3946 41.5504 95.3552 41.2654 95.3552C40.9197 95.3552 40.5528 95.4583 40.1646 95.6645C39.7825 95.8708 39.4368 96.1315 39.1275 96.4469V95.0914C39.4307 94.77 39.7673 94.5274 40.1373 94.3636C40.5133 94.1998 40.9227 94.118 41.3655 94.118C41.7415 94.118 42.1054 94.1604 42.4572 94.2453C42.815 94.3242 43.2608 94.4788 43.7945 94.7093C44.2373 94.8973 44.6042 95.0307 44.8953 95.1096C45.1864 95.1884 45.4684 95.2279 45.7414 95.2279C46.0992 95.2279 46.4692 95.1248 46.8513 94.9185C47.2334 94.7123 47.576 94.4515 47.8793 94.1362V95.4735C47.5882 95.7889 47.2576 96.0345 46.8877 96.2104C46.5177 96.3802 46.1083 96.4651 45.6595 96.4651C45.2956 96.4651 44.9347 96.4257 44.5769 96.3469C44.2191 96.268 43.7702 96.1103 43.2305 95.8738ZM57.892 86.5943C58.6623 86.5943 59.3446 86.7156 59.939 86.9582C60.5333 87.2008 60.9973 87.5586 61.3309 88.0317C61.6705 88.4987 61.8404 89.0749 61.8404 89.7602C61.8404 90.3 61.7221 90.7731 61.4855 91.1795C61.2551 91.5798 60.9427 91.9315 60.5485 92.2348C60.1543 92.532 59.7176 92.7988 59.2385 93.0354C59.8086 93.2962 60.3211 93.5903 60.7759 93.9178C61.2369 94.2453 61.6008 94.6305 61.8676 95.0732C62.1345 95.5159 62.2679 96.0406 62.2679 96.6471C62.2679 97.3931 62.086 98.039 61.7221 98.5848C61.3642 99.1246 60.8609 99.5401 60.2119 99.8312C59.5629 100.122 58.8018 100.268 57.9284 100.268C56.9883 100.268 56.1878 100.128 55.5267 99.8494C54.8716 99.5643 54.3713 99.158 54.0256 98.6303C53.6859 98.0966 53.5161 97.4568 53.5161 96.7108C53.5161 96.0982 53.6465 95.5675 53.9073 95.1187C54.1681 94.6638 54.5138 94.2726 54.9444 93.9451C55.375 93.6176 55.8451 93.3416 56.3545 93.1172C55.9118 92.8746 55.5054 92.5987 55.1355 92.2894C54.7716 91.98 54.4805 91.6192 54.2621 91.2068C54.0498 90.7883 53.9437 90.3031 53.9437 89.7512C53.9437 89.0779 54.1135 88.5078 54.4532 88.0408C54.7989 87.5677 55.2689 87.2099 55.8633 86.9673C56.4637 86.7186 57.14 86.5943 57.892 86.5943ZM54.999 96.7199C54.999 97.3991 55.2386 97.9601 55.7177 98.4029C56.1969 98.8396 56.9216 99.0579 57.892 99.0579C58.8139 99.0579 59.5265 98.8396 60.0299 98.4029C60.5333 97.9601 60.785 97.3809 60.785 96.6653C60.785 96.2225 60.6698 95.8344 60.4393 95.5008C60.2089 95.1611 59.8814 94.8579 59.4568 94.591C59.0323 94.3242 58.5319 94.0816 57.9557 93.8632L57.6282 93.745C57.0702 93.9754 56.5941 94.2332 56.1999 94.5183C55.8117 94.7972 55.5145 95.1157 55.3083 95.4735C55.1021 95.8313 54.999 96.2468 54.999 96.7199ZM57.8738 87.8316C57.1582 87.8316 56.5729 88.0044 56.118 88.3501C55.6631 88.6898 55.4357 89.181 55.4357 89.8239C55.4357 90.2849 55.5449 90.6761 55.7632 90.9975C55.9876 91.3129 56.2909 91.5858 56.673 91.8163C57.0551 92.0407 57.4826 92.2499 57.9557 92.444C58.4167 92.2499 58.826 92.0377 59.1839 91.8072C59.5417 91.5707 59.8237 91.2917 60.0299 90.9702C60.2362 90.6488 60.3393 90.2636 60.3393 89.8148C60.3393 89.1719 60.1118 88.6807 59.6569 88.341C59.2081 88.0014 58.6138 87.8316 57.8738 87.8316ZM76.6748 93.4175C76.6748 94.497 76.5929 95.4614 76.4291 96.3105C76.2654 97.1596 76.0076 97.8783 75.6559 98.4666C75.3041 99.0549 74.8492 99.5037 74.2912 99.813C73.7332 100.116 73.0631 100.268 72.2807 100.268C71.2921 100.268 70.4733 99.998 69.8243 99.4582C69.1814 98.9184 68.6993 98.1391 68.3778 97.1201C68.0625 96.0952 67.9048 94.8609 67.9048 93.4175C67.9048 91.9982 68.0473 90.7792 68.3323 89.7602C68.6235 88.7353 69.0905 87.9498 69.7334 87.404C70.3763 86.8521 71.2254 86.5761 72.2807 86.5761C73.2814 86.5761 74.1062 86.849 74.7552 87.3949C75.4042 87.9347 75.8863 88.7171 76.2017 89.7421C76.5171 90.761 76.6748 91.9861 76.6748 93.4175ZM69.424 93.4175C69.424 94.6547 69.5181 95.6858 69.7061 96.5106C69.8941 97.3355 70.1973 97.9541 70.6158 98.3665C71.0404 98.7729 71.5953 98.976 72.2807 98.976C72.966 98.976 73.5179 98.7729 73.9364 98.3665C74.361 97.9601 74.6673 97.3446 74.8553 96.5197C75.0494 95.6949 75.1464 94.6608 75.1464 93.4175C75.1464 92.1984 75.0524 91.1795 74.8644 90.3607C74.6764 89.5358 74.3731 88.9172 73.9546 88.5048C73.5361 88.0863 72.9781 87.8771 72.2807 87.8771C71.5832 87.8771 71.0252 88.0863 70.6067 88.5048C70.1882 88.9172 69.885 89.5358 69.697 90.3607C69.515 91.1795 69.424 92.1984 69.424 93.4175ZM84.9863 86.5943C85.896 86.5943 86.5844 86.9582 87.0514 87.686C87.5245 88.4077 87.761 89.4297 87.761 90.7519C87.761 92.0741 87.5336 93.1051 87.0787 93.845C86.6238 94.5789 85.9264 94.9458 84.9863 94.9458C84.1129 94.9458 83.4427 94.5789 82.9757 93.845C82.5148 93.1051 82.2843 92.0741 82.2843 90.7519C82.2843 89.4297 82.5057 88.4077 82.9484 87.686C83.3912 86.9582 84.0705 86.5943 84.9863 86.5943ZM84.9863 87.6769C84.495 87.6769 84.1341 87.9347 83.9037 88.4502C83.6732 88.9597 83.558 89.7269 83.558 90.7519C83.558 91.7769 83.6732 92.5502 83.9037 93.0717C84.1341 93.5933 84.495 93.8541 84.9863 93.8541C85.4957 93.8541 85.8748 93.5933 86.1235 93.0717C86.3721 92.5502 86.4965 91.7769 86.4965 90.7519C86.4965 89.733 86.3721 88.9657 86.1235 88.4502C85.8809 87.9347 85.5018 87.6769 84.9863 87.6769ZM93.4106 86.7854L86.0325 100.086H84.7043L92.0823 86.7854H93.4106ZM93.0558 91.9255C93.9595 91.9255 94.6478 92.2894 95.1209 93.0172C95.594 93.7389 95.8305 94.7609 95.8305 96.083C95.8305 97.3991 95.6031 98.4272 95.1482 99.1671C94.6933 99.901 93.9959 100.268 93.0558 100.268C92.1763 100.268 91.5062 99.901 91.0452 99.1671C90.5843 98.4272 90.3538 97.3991 90.3538 96.083C90.3538 94.7609 90.5722 93.7389 91.0088 93.0172C91.4516 92.2894 92.1339 91.9255 93.0558 91.9255ZM93.0558 93.0172C92.5645 93.0172 92.2036 93.2719 91.9732 93.7814C91.7427 94.2908 91.6275 95.058 91.6275 96.083C91.6275 97.108 91.7427 97.8813 91.9732 98.4029C92.2036 98.9184 92.5645 99.1762 93.0558 99.1762C93.5652 99.1762 93.9443 98.9215 94.193 98.412C94.4416 97.8965 94.566 97.1201 94.566 96.083C94.566 95.0641 94.4416 94.2999 94.193 93.7905C93.9504 93.2749 93.5713 93.0172 93.0558 93.0172ZM109.046 89.4054L109.901 90.2879L106.68 93.5084L109.892 96.729L109.027 97.6114L105.789 94.4091L102.614 97.6114L101.713 96.729L104.924 93.5084L101.704 90.3061L102.605 89.4054L105.807 92.6442L109.046 89.4054ZM120.787 100.086H119.231V88.15H115.046V86.7854H124.954V88.15H120.787V100.086ZM139.06 95.0823C139.06 95.9011 138.954 96.6319 138.742 97.2748C138.529 97.9177 138.223 98.4605 137.823 98.9033C137.423 99.346 136.937 99.6856 136.367 99.9222C135.803 100.153 135.163 100.268 134.448 100.268C133.781 100.268 133.168 100.153 132.61 99.9222C132.058 99.6856 131.579 99.346 131.173 98.9033C130.772 98.4605 130.46 97.9177 130.236 97.2748C130.017 96.6319 129.908 95.9011 129.908 95.0823C129.908 93.9906 130.093 93.0626 130.463 92.2985C130.833 91.5282 131.361 90.9429 132.046 90.5426C132.737 90.1363 133.559 89.9331 134.511 89.9331C135.421 89.9331 136.216 90.1363 136.895 90.5426C137.58 90.949 138.111 91.5373 138.487 92.3076C138.869 93.0717 139.06 93.9967 139.06 95.0823ZM131.473 95.0823C131.473 95.8829 131.579 96.5773 131.791 97.1656C132.003 97.7539 132.331 98.2088 132.774 98.5303C133.216 98.8517 133.787 99.0124 134.484 99.0124C135.175 99.0124 135.743 98.8517 136.185 98.5303C136.634 98.2088 136.965 97.7539 137.177 97.1656C137.389 96.5773 137.495 95.8829 137.495 95.0823C137.495 94.2878 137.389 93.6024 137.177 93.0263C136.965 92.444 136.637 91.9952 136.194 91.6798C135.752 91.3644 135.179 91.2068 134.475 91.2068C133.438 91.2068 132.677 91.5494 132.192 92.2348C131.712 92.9201 131.473 93.8693 131.473 95.0823ZM148.618 99.0306C148.867 99.0306 149.121 99.0094 149.382 98.9669C149.643 98.9245 149.855 98.8729 150.019 98.8123V99.9859C149.843 100.065 149.597 100.131 149.282 100.186C148.973 100.241 148.67 100.268 148.372 100.268C147.845 100.268 147.366 100.177 146.935 99.995C146.504 99.8069 146.159 99.4916 145.898 99.0488C145.643 98.6061 145.516 97.9935 145.516 97.2111V91.2977H144.097V90.5608L145.525 89.9695L146.125 87.8043H147.035V90.1151H149.955V91.2977H147.035V97.1656C147.035 97.7903 147.178 98.2573 147.463 98.5667C147.754 98.876 148.139 99.0306 148.618 99.0306ZM159.495 89.9513C160.684 89.9513 161.566 90.2182 162.142 90.7519C162.719 91.2856 163.007 92.1377 163.007 93.3083V100.086H161.906L161.615 98.6121H161.542C161.263 98.976 160.972 99.2823 160.669 99.531C160.365 99.7736 160.014 99.9586 159.613 100.086C159.219 100.207 158.734 100.268 158.158 100.268C157.551 100.268 157.011 100.162 156.538 99.9495C156.071 99.7372 155.701 99.4158 155.428 98.9851C155.162 98.5545 155.028 98.0087 155.028 97.3476C155.028 96.3529 155.422 95.5887 156.211 95.055C156.999 94.5213 158.2 94.2302 159.813 94.1816L161.533 94.1089V93.4993C161.533 92.6381 161.348 92.0346 160.978 91.6889C160.608 91.3432 160.086 91.1704 159.413 91.1704C158.892 91.1704 158.394 91.2462 157.921 91.3978C157.448 91.5494 156.999 91.7283 156.575 91.9346L156.111 90.7883C156.56 90.5578 157.075 90.3607 157.657 90.1969C158.24 90.0332 158.852 89.9513 159.495 89.9513ZM161.515 95.1733L159.995 95.237C158.752 95.2855 157.876 95.4887 157.366 95.8465C156.857 96.2043 156.602 96.7108 156.602 97.3658C156.602 97.9359 156.775 98.3574 157.121 98.6303C157.466 98.9033 157.924 99.0397 158.494 99.0397C159.38 99.0397 160.105 98.7941 160.669 98.3028C161.233 97.8116 161.515 97.0747 161.515 96.0921V95.1733ZM171.364 100.086H169.844V85.9302H171.364V100.086ZM190.67 86.7854C191.762 86.7854 192.663 86.9218 193.372 87.1947C194.088 87.4616 194.622 87.871 194.974 88.4229C195.325 88.9748 195.501 89.6784 195.501 90.5335C195.501 91.2371 195.374 91.8254 195.119 92.2985C194.864 92.7655 194.531 93.1445 194.118 93.4356C193.706 93.7268 193.266 93.9512 192.799 94.1089L196.447 100.086H194.646L191.389 94.5364H188.623V100.086H187.077V86.7854H190.67ZM190.579 88.1227H188.623V93.2264H190.734C191.82 93.2264 192.617 93.005 193.127 92.5623C193.642 92.1195 193.9 91.4675 193.9 90.6063C193.9 89.7026 193.627 89.0628 193.081 88.6867C192.541 88.3107 191.708 88.1227 190.579 88.1227ZM205.914 89.9331C206.763 89.9331 207.491 90.1211 208.098 90.4971C208.704 90.8732 209.168 91.4008 209.49 92.0801C209.811 92.7533 209.972 93.5418 209.972 94.4455V95.3825H203.085C203.103 96.5531 203.394 97.4446 203.958 98.0572C204.522 98.6698 205.317 98.976 206.342 98.976C206.973 98.976 207.531 98.9184 208.016 98.8032C208.501 98.688 209.004 98.5181 209.526 98.2937V99.622C209.023 99.8464 208.522 100.01 208.025 100.113C207.534 100.216 206.951 100.268 206.278 100.268C205.32 100.268 204.483 100.074 203.767 99.6856C203.058 99.2914 202.506 98.7152 202.111 97.9571C201.717 97.199 201.52 96.271 201.52 95.1733C201.52 94.0998 201.699 93.1718 202.057 92.3894C202.421 91.601 202.93 90.9945 203.585 90.5699C204.246 90.1454 205.023 89.9331 205.914 89.9331ZM205.896 91.1704C205.089 91.1704 204.446 91.4342 203.967 91.9618C203.488 92.4895 203.203 93.2264 203.112 94.1725H208.389C208.383 93.5782 208.289 93.0566 208.107 92.6078C207.931 92.1529 207.661 91.8011 207.297 91.5525C206.933 91.2977 206.466 91.1704 205.896 91.1704ZM218.456 100.086L214.671 90.1151H216.291L218.483 96.1467C218.635 96.5591 218.79 97.014 218.947 97.5113C219.105 98.0087 219.214 98.409 219.275 98.7122H219.339C219.411 98.409 219.533 98.0087 219.702 97.5113C219.872 97.0079 220.027 96.5531 220.166 96.1467L222.359 90.1151H223.978L220.185 100.086H218.456ZM233.145 89.9331C233.994 89.9331 234.722 90.1211 235.328 90.4971C235.935 90.8732 236.399 91.4008 236.72 92.0801C237.042 92.7533 237.202 93.5418 237.202 94.4455V95.3825H230.316C230.334 96.5531 230.625 97.4446 231.189 98.0572C231.753 98.6698 232.548 98.976 233.572 98.976C234.203 98.976 234.761 98.9184 235.246 98.8032C235.732 98.688 236.235 98.5181 236.757 98.2937V99.622C236.253 99.8464 235.753 100.01 235.256 100.113C234.764 100.216 234.182 100.268 233.509 100.268C232.551 100.268 231.714 100.074 230.998 99.6856C230.288 99.2914 229.736 98.7152 229.342 97.9571C228.948 97.199 228.751 96.271 228.751 95.1733C228.751 94.0998 228.93 93.1718 229.288 92.3894C229.651 91.601 230.161 90.9945 230.816 90.5699C231.477 90.1454 232.253 89.9331 233.145 89.9331ZM233.127 91.1704C232.32 91.1704 231.677 91.4342 231.198 91.9618C230.719 92.4895 230.434 93.2264 230.343 94.1725H235.619C235.613 93.5782 235.519 93.0566 235.337 92.6078C235.162 92.1529 234.892 91.8011 234.528 91.5525C234.164 91.2977 233.697 91.1704 233.127 91.1704ZM248.216 89.9331C249.399 89.9331 250.293 90.2242 250.9 90.8065C251.506 91.3826 251.809 92.3106 251.809 93.5903V100.086H250.317V93.6904C250.317 92.8595 250.126 92.2378 249.744 91.8254C249.368 91.413 248.789 91.2068 248.007 91.2068C246.903 91.2068 246.126 91.5191 245.678 92.1438C245.229 92.7685 245.004 93.6752 245.004 94.864V100.086H243.494V90.1151H244.713L244.941 91.5525H245.023C245.235 91.2007 245.505 90.9065 245.832 90.67C246.16 90.4274 246.527 90.2454 246.933 90.1241C247.339 89.9968 247.767 89.9331 248.216 89.9331ZM266.88 90.1151V100.086H265.643L265.425 98.6849H265.343C265.137 99.0306 264.87 99.3217 264.542 99.5583C264.215 99.7948 263.845 99.9707 263.432 100.086C263.026 100.207 262.592 100.268 262.131 100.268C261.343 100.268 260.682 100.141 260.148 99.8858C259.614 99.6311 259.211 99.2368 258.938 98.7031C258.671 98.1694 258.538 97.484 258.538 96.6471V90.1151H260.066V96.5379C260.066 97.3688 260.254 97.9905 260.63 98.4029C261.006 98.8093 261.58 99.0124 262.35 99.0124C263.09 99.0124 263.678 98.8729 264.115 98.5939C264.557 98.315 264.876 97.9056 265.07 97.3658C265.264 96.8199 265.361 96.1528 265.361 95.3643V90.1151H266.88ZM277.639 89.9331C278.488 89.9331 279.216 90.1211 279.822 90.4971C280.429 90.8732 280.893 91.4008 281.214 92.0801C281.536 92.7533 281.697 93.5418 281.697 94.4455V95.3825H274.81C274.828 96.5531 275.119 97.4446 275.683 98.0572C276.247 98.6698 277.042 98.976 278.067 98.976C278.697 98.976 279.255 98.9184 279.741 98.8032C280.226 98.688 280.729 98.5181 281.251 98.2937V99.622C280.747 99.8464 280.247 100.01 279.75 100.113C279.258 100.216 278.676 100.268 278.003 100.268C277.045 100.268 276.208 100.074 275.492 99.6856C274.782 99.2914 274.231 98.7152 273.836 97.9571C273.442 97.199 273.245 96.271 273.245 95.1733C273.245 94.0998 273.424 93.1718 273.782 92.3894C274.146 91.601 274.655 90.9945 275.31 90.5699C275.971 90.1454 276.748 89.9331 277.639 89.9331ZM277.621 91.1704C276.814 91.1704 276.171 91.4342 275.692 91.9618C275.213 92.4895 274.928 93.2264 274.837 94.1725H280.114C280.108 93.5782 280.014 93.0566 279.832 92.6078C279.656 92.1529 279.386 91.8011 279.022 91.5525C278.658 91.2977 278.191 91.1704 277.621 91.1704Z" fill="#2B2A2A"/>
</g>
<defs>
<filter id="filter0_d_2240_18160" x="0.900497" y="0.0828981" width="353.071" height="191.908" filterUnits="userSpaceOnUse" color-interpolation-filters="sRGB">
<feFlood flood-opacity="0" result="BackgroundImageFix"/>
<feColorMatrix in="SourceAlpha" type="matrix" values="0 0 0 0 0 0 0 0 0 0 0 0 0 0 0 0 0 0 127 0" result="hardAlpha"/>
<feOffset dy="3.72635"/>
<feGaussianBlur stdDeviation="9.31586"/>
<feComposite in2="hardAlpha" operator="out"/>
<feColorMatrix type="matrix" values="0 0 0 0 0 0 0 0 0 0 0 0 0 0 0 0 0 0 0.06 0"/>
<feBlend mode="normal" in2="BackgroundImageFix" result="effect1_dropShadow_2240_18160"/>
<feBlend mode="normal" in="SourceGraphic" in2="effect1_dropShadow_2240_18160" result="shape"/>
</filter>
</defs>
</svg>
