<svg width="29" height="29" viewBox="0 0 29 29" fill="none" xmlns="http://www.w3.org/2000/svg">
<g clip-path="url(#clip0_1191_10656)">
<path d="M14.8555 12.0138C13.6061 12.0138 12.4789 12.7666 12.0015 13.9221C11.5228 15.0763 11.7866 16.4055 12.6706 17.2897C13.5546 18.1724 14.8838 18.4375 16.0381 17.9588C17.1924 17.4801 17.9451 16.3542 17.9451 15.1047C17.9439 13.3984 16.5618 12.0164 14.8555 12.0138ZM14.8555 17.6408C13.83 17.6408 12.9048 17.0231 12.5123 16.0748C12.1199 15.1264 12.336 14.0365 13.0618 13.3108C13.7875 12.5851 14.8787 12.3676 15.8257 12.7601C16.7741 13.1538 17.3917 14.0777 17.3917 15.1046C17.3904 16.5046 16.2555 17.6382 14.8555 17.6408ZM26.5368 8.93445C27.2973 8.93188 27.9136 8.31424 27.9136 7.55376V4.06924C27.9136 3.30747 27.2973 2.68983 26.5368 2.68854H25.0673V1.23966C25.0699 1.19205 25.0596 1.14572 25.0377 1.10454C25.0622 1.06337 25.0763 1.01705 25.0776 0.969433C25.0776 0.896086 25.048 0.825315 24.9966 0.773845C24.9438 0.723662 24.873 0.694065 24.801 0.695353H6.63061C6.47877 0.695353 6.35524 0.817594 6.35395 0.969433V2.38617C4.0146 2.43249 1.74219 3.04499 1.74219 4.17477V24.8144C1.74219 25.948 4.01849 26.5567 6.35395 26.603V28.0197C6.35524 28.1716 6.47877 28.2938 6.63061 28.2938H24.7908C24.8641 28.2951 24.9349 28.2655 24.9863 28.2153C25.0378 28.1639 25.0674 28.0931 25.0674 28.0197V26.3006H26.5369C27.2974 26.2993 27.9137 25.6817 27.9137 24.9199V21.4354C27.9137 20.6749 27.2974 20.0573 26.5369 20.0547H25.0674V17.6176H26.5369C27.2974 17.615 27.9137 16.9986 27.9137 16.2369V12.7524C27.9137 11.9906 27.2974 11.3742 26.5369 11.3717H25.0674V8.93454L26.5368 8.93445ZM27.3642 4.06904L27.3629 7.55356C27.3629 8.01035 26.9936 8.38223 26.5368 8.38351H23.0612C22.6044 8.38222 22.2338 8.01035 22.2338 7.55356V4.06904C22.2338 3.849 22.3213 3.63926 22.477 3.48358C22.6314 3.32916 22.8424 3.24166 23.0612 3.24166H26.5368C26.7555 3.24166 26.9666 3.32916 27.121 3.48358C27.2767 3.63928 27.3629 3.84903 27.3629 4.06904H27.3642ZM6.63067 2.93155C9.2827 2.93155 10.9723 3.6663 10.9723 4.17327C10.9723 4.68026 9.2828 5.41241 6.63067 5.41241C3.97864 5.41241 2.28902 4.67766 2.28902 4.17455C2.28902 3.67016 3.98111 2.93155 6.63067 2.93155ZM19.0093 15.3939C19.0042 15.4608 19.0247 15.5277 19.0659 15.5817L20.2883 17.1464H20.2871C20.4157 17.3021 20.4325 17.5234 20.3269 17.6959L19.8367 18.549C19.7337 18.7201 19.5356 18.8102 19.3387 18.7768L17.3622 18.5001C17.2953 18.4911 17.2258 18.5065 17.1679 18.5426C17.0084 18.6532 16.8411 18.751 16.6674 18.8359C16.6069 18.8643 16.558 18.9157 16.5323 18.9775L15.8143 20.8317C15.7409 21.0209 15.5582 21.1431 15.3562 21.1393H14.3679C14.1659 21.1431 13.9832 21.0209 13.9099 20.8317L13.179 18.9904C13.1519 18.9286 13.1043 18.8771 13.0439 18.8463C12.8624 18.7626 12.6874 18.6661 12.5202 18.5554C12.4635 18.5194 12.3953 18.504 12.3297 18.513L11.5319 18.6288V14.5306V14.4945V11.5787L12.349 11.6945C12.4159 11.7035 12.4828 11.6881 12.5395 11.6521C12.699 11.5427 12.8676 11.4462 13.04 11.3613C13.1018 11.3317 13.1507 11.2802 13.1751 11.2171L13.9163 9.3758C13.9896 9.18793 14.1724 9.06569 14.3744 9.06955H15.3626C15.5646 9.06569 15.7474 9.18793 15.8207 9.3758L16.5619 11.2171C16.5889 11.2802 16.6365 11.3304 16.697 11.3613C16.872 11.4449 17.0393 11.5414 17.1975 11.6521C17.2554 11.6894 17.3249 11.7048 17.3918 11.6945L19.3683 11.4179C19.569 11.3857 19.7685 11.4835 19.8663 11.6611L20.3269 12.5181C20.4324 12.6918 20.4157 12.9118 20.287 13.0688L19.0659 14.6258C19.0247 14.6799 19.0041 14.7468 19.0093 14.8137C19.0221 15.0067 19.0222 15.2009 19.0093 15.3939ZM2.28902 5.04308C3.14859 5.64913 4.89474 5.96184 6.63067 5.96184C8.36651 5.96184 10.1063 5.63243 10.9697 5.04568L10.9684 9.359C10.9156 9.86339 9.2261 10.575 6.6307 10.575C4.0353 10.575 2.28905 9.84024 2.28905 9.33327L2.28902 5.04308ZM2.28902 10.2017C3.14859 10.8116 4.89474 11.1243 6.63067 11.1243C8.36651 11.1243 10.1063 10.7949 10.9697 10.2055L10.9684 14.5175C10.9156 15.0219 9.23898 15.7335 6.62938 15.7335C4.0211 15.7335 2.28905 14.9988 2.28905 14.4944L2.28902 10.2017ZM2.28902 15.3642C3.14859 15.9703 4.89474 16.2868 6.63067 16.2868C8.36651 16.2868 10.1063 15.9741 10.9697 15.3681L10.9684 19.6787C10.9156 20.1831 9.23898 20.8947 6.62938 20.8947C4.0211 20.8947 2.28905 20.16 2.28905 19.6569L2.28902 15.3642ZM2.28902 24.8154V20.533C3.14859 21.1391 4.89474 21.4556 6.63067 21.4556C8.36651 21.4556 10.1063 21.1262 10.9697 20.5369L10.9684 24.841C10.9156 25.3454 9.2261 26.0569 6.6307 26.0569C4.03401 26.0569 2.28905 25.3222 2.28905 24.8139L2.28902 24.8154ZM27.3629 21.4349V24.9195C27.3629 25.3762 26.9936 25.7468 26.5368 25.7468H23.0611C22.6043 25.7468 22.2338 25.3762 22.2338 24.9195V21.4349C22.2338 20.9781 22.6043 20.6063 23.0611 20.605H26.5368C26.9936 20.6063 27.3629 20.9781 27.3629 21.4349ZM27.3629 12.752V16.2365C27.3629 16.6946 26.9936 17.0652 26.5368 17.0664H23.0611C22.6043 17.0652 22.2338 16.6946 22.2338 16.2365V12.752C22.2338 12.2939 22.6043 11.9233 23.0611 11.922H26.5368C26.9936 11.9233 27.3629 12.2939 27.3629 12.752ZM24.5165 11.3713H23.0612C22.2994 11.3738 21.6831 11.9902 21.6805 12.752V16.2365C21.6831 16.9983 22.2994 17.6146 23.0612 17.6172H24.5307V20.0543H23.0612C22.2994 20.0569 21.6831 20.6732 21.6805 21.435V24.9195C21.6831 25.6813 22.2994 26.2989 23.0612 26.3002H24.5307V27.7427H6.91999V26.6039C9.20657 26.5614 11.4326 25.9708 11.5318 24.8874V24.8513V24.8153V19.6926V19.6566V19.1844L12.3218 19.0724C12.4453 19.1535 12.5727 19.2268 12.704 19.2937L13.4053 21.036H13.4066C13.5597 21.4375 13.9457 21.7 14.3742 21.6948H15.3625C15.7922 21.7 16.1783 21.4375 16.3314 21.036L17.0365 19.2937C17.1652 19.2281 17.2939 19.1522 17.4187 19.0724L19.2794 19.3362C19.7027 19.4005 20.1209 19.1959 20.3306 18.8228L20.8209 17.9735V17.9722C21.0384 17.6004 20.9985 17.1307 20.7218 16.8L19.565 15.3176V14.8763L20.7218 13.3978C20.9908 13.0632 21.0229 12.5987 20.8042 12.2307L20.3139 11.3776C20.1029 11.007 19.6847 10.8049 19.2626 10.8706L17.402 11.1344C17.2772 11.0559 17.1485 10.9799 17.0198 10.913L16.3147 9.17074C16.1615 8.77057 15.7755 8.50677 15.3457 8.51191H14.3575C13.929 8.50677 13.543 8.77055 13.3898 9.17074L12.6886 10.913C12.556 10.9799 12.4286 11.0533 12.3064 11.1344L11.5317 11.0224V9.37535V9.33932V4.24233V4.17284C11.5317 3.0392 9.25158 2.43055 6.91997 2.38424V1.24546H24.5178V2.68792H23.0612C22.2994 2.68921 21.6831 3.30685 21.6805 4.06862V7.55313C21.6831 8.3149 22.2994 8.93126 23.0612 8.93383H24.5307L24.5165 11.3713ZM7.15424 8.68967H6.10295V7.77736H7.15424V8.68967ZM7.15424 13.9036L6.10295 13.9049V12.9926H7.15424V13.9036ZM7.15424 19.1175L6.10295 19.1188V18.2039H7.15424V19.1175ZM7.15424 24.3288L6.10295 24.3301V23.4178H7.15424V24.3288ZM23.3906 4.49329H26.1739C26.3141 4.50873 26.4209 4.62711 26.4209 4.76866C26.4209 4.90892 26.3141 5.0273 26.1739 5.04274H23.3906C23.3121 5.05175 23.2349 5.0273 23.1757 4.97454C23.1178 4.92178 23.0844 4.84715 23.0844 4.76866C23.0844 4.68888 23.1178 4.61425 23.1757 4.56149C23.2349 4.51002 23.3121 4.48428 23.3906 4.49329ZM26.448 6.8558V6.85451C26.448 7.00635 26.3257 7.12988 26.1739 7.13116H23.3906C23.2606 7.10672 23.1654 6.99219 23.1654 6.85966C23.1654 6.72712 23.2606 6.6126 23.3906 6.58815H26.1739C26.3257 6.58429 26.4518 6.70396 26.457 6.85451L26.448 6.8558ZM23.3906 13.1765H26.1739C26.3141 13.192 26.4209 13.3104 26.4209 13.4519C26.4209 13.5922 26.3141 13.7118 26.1739 13.7273H23.3906C23.3121 13.735 23.2349 13.7106 23.1757 13.6578C23.1178 13.605 23.0844 13.5304 23.0844 13.4519C23.0844 13.3734 23.1178 13.2975 23.1757 13.246C23.2349 13.1933 23.3121 13.1675 23.3906 13.1765ZM26.448 15.5391C26.448 15.6111 26.4184 15.6806 26.3669 15.7321C26.3167 15.7835 26.2472 15.8119 26.1739 15.8119H23.3906C23.3121 15.8209 23.2349 15.7951 23.1757 15.7424C23.1178 15.6909 23.0844 15.615 23.0844 15.5365C23.0844 15.458 23.1178 15.3834 23.1757 15.3306C23.2349 15.2778 23.3121 15.2534 23.3906 15.2611H26.1739C26.2485 15.2585 26.3218 15.2869 26.3746 15.3396C26.4286 15.3911 26.4582 15.4631 26.457 15.5391H26.448ZM23.3906 21.8572H26.1739C26.327 21.8572 26.4505 21.9807 26.4505 22.1338C26.4505 22.2857 26.327 22.4105 26.1739 22.4105H23.3906C23.2375 22.4105 23.114 22.2857 23.114 22.1338C23.114 21.9807 23.2375 21.8572 23.3906 21.8572ZM26.448 24.2223C26.448 24.2943 26.4184 24.3638 26.3669 24.4153C26.3167 24.4667 26.2472 24.495 26.1739 24.495H23.3906C23.3121 24.5041 23.2349 24.4783 23.1757 24.4269C23.1178 24.3741 23.0844 24.2995 23.0844 24.2197C23.0844 24.1412 23.1178 24.0666 23.1757 24.0138C23.2349 23.961 23.3121 23.9366 23.3906 23.9456H26.1739C26.2485 23.943 26.3218 23.9701 26.3746 24.0228C26.4286 24.0756 26.4582 24.1476 26.457 24.2223L26.448 24.2223Z" fill="#2B2A2A"/>
</g>
<defs>
<clipPath id="clip0_1191_10656">
<rect width="28" height="28.9882" fill="white" transform="translate(0.660156)"/>
</clipPath>
</defs>
</svg>
