<svg width="29" height="29" viewBox="0 0 29 29" fill="none" xmlns="http://www.w3.org/2000/svg">
<g clip-path="url(#clip0_1191_10648)">
<path d="M27.7468 8.67798C27.3729 8.32753 26.8841 8.14338 26.3685 8.16013C25.8528 8.17687 25.3763 8.39115 25.0258 8.76504L23.6653 10.2148V4.85195C23.6653 3.22807 22.3439 1.90653 20.7199 1.90653L17.2656 1.90764V1.75251C17.2656 1.12082 16.7522 0.607422 16.1205 0.607422H9.25769C8.62601 0.607422 8.11261 1.12082 8.11261 1.75251V1.90764H4.65832C3.03443 1.90764 1.71289 3.22907 1.71289 4.85307V24.4491C1.71289 26.073 3.03432 27.3945 4.65832 27.3945H20.7197C22.3436 27.3945 23.6652 26.0731 23.6652 24.4491V15.8431L25.2388 14.1656L25.6484 14.5507L23.9074 16.4067C23.7757 16.5473 23.7835 16.7672 23.923 16.8989C24.0636 17.0306 24.2835 17.0228 24.4152 16.8833L26.3929 14.775L26.3951 14.7728L27.6183 13.4692C27.75 13.3286 27.7422 13.1087 27.6027 12.977L26.9386 12.3542L27.8337 11.4C28.5603 10.6244 28.5213 9.40453 27.7468 8.67798ZM8.80823 2.25598V1.75264C8.80823 1.50487 9.00913 1.30398 9.25689 1.30398H16.1197C16.3675 1.30398 16.5684 1.50599 16.5684 1.75264V2.75933C16.5684 3.00709 16.3664 3.20798 16.1197 3.20798H9.25689C9.00912 3.20798 8.80823 3.00597 8.80823 2.75933V2.25598ZM22.9688 24.448C22.9688 25.6879 21.9599 26.6969 20.7199 26.6969L4.65849 26.698C3.41855 26.698 2.4096 25.6891 2.4096 24.4491V4.85196C2.4096 3.61201 3.41852 2.60307 4.65849 2.60307H8.11278V2.7582C8.11278 3.38989 8.62618 3.90329 9.25786 3.90329H16.1207C16.7524 3.90329 17.2658 3.38989 17.2658 2.7582V2.60307H20.7201C21.96 2.60307 22.969 3.61198 22.969 4.85196V10.9557L16.9824 17.3397L16.9779 17.3453C16.9623 17.362 16.9467 17.3798 16.9344 17.3999C16.9221 17.42 16.911 17.4401 16.9032 17.4613L15.1744 21.6065C15.1186 21.7404 15.152 21.8944 15.257 21.9938C15.3228 22.0551 15.4087 22.0875 15.4947 22.0875C15.5471 22.0875 15.5996 22.0752 15.6487 22.0518L19.6821 20.0574C19.6821 20.0574 19.6832 20.0574 19.6832 20.0562H19.6844H19.6855H19.6866H19.6877C19.7268 20.0362 19.7602 20.0094 19.7881 19.9792L22.9713 16.5864L22.9702 24.4481L22.9688 24.448ZM17.3539 18.1846L18.9231 19.6566L16.172 21.0171L17.3539 18.1846ZM19.5113 19.2549L17.7178 17.573L22.9378 12.0081L24.7313 13.69L19.5113 19.2549ZM26.125 14.0429L23.4141 11.5005L24.1619 10.7025L26.2087 12.6232L26.8717 13.2449L26.125 14.0429ZM27.3259 10.9234L26.4308 11.8777L24.6373 10.1958L25.5324 9.24153C25.7556 9.00269 26.0603 8.86653 26.3907 8.85535C26.7199 8.84531 27.0324 8.9625 27.2712 9.1857C27.7645 9.64887 27.7902 10.429 27.3259 10.9234ZM5.00563 7.30744C4.86501 7.17686 4.85608 6.95698 4.98666 6.81524C5.11724 6.67461 5.33712 6.66569 5.47886 6.79627L5.81926 7.11101L6.586 6.0273C6.69649 5.86993 6.91412 5.8331 7.07037 5.94471C7.22774 6.0552 7.26457 6.27282 7.15296 6.42908L6.15631 7.83645C6.09827 7.91792 6.00787 7.9715 5.90854 7.98154C5.89626 7.98265 5.88398 7.98377 5.87282 7.98377C5.78577 7.98377 5.70095 7.95141 5.63622 7.89114L5.00563 7.30744ZM7.90735 4.73267H4.20306C4.0111 4.73267 3.85483 4.8878 3.85483 5.0809V8.78518C3.85483 8.97715 4.00997 9.13341 4.20306 9.13341H7.90735C8.09931 9.13341 8.25558 8.97828 8.25558 8.78518V5.07975C8.25558 4.88779 8.09933 4.73267 7.90735 4.73267ZM7.55912 8.43695H4.55141V5.4281H7.55912V8.43695ZM9.34261 5.68138C9.34261 5.48942 9.49774 5.33315 9.69083 5.33315H21.1751C21.3671 5.33315 21.5233 5.48829 21.5233 5.68138C21.5233 5.87335 21.3682 6.02961 21.1751 6.02961H9.68969C9.49773 6.02961 9.34261 5.87336 9.34261 5.68138ZM9.34261 8.1825C9.34261 7.99053 9.49774 7.83427 9.69083 7.83427H17.018C17.2099 7.83427 17.3662 7.9894 17.3662 8.1825C17.3662 8.37446 17.2111 8.53073 17.018 8.53073H9.68998C9.49801 8.53073 9.34261 8.37559 9.34261 8.1825ZM5.00546 12.8868C4.86484 12.7562 4.85591 12.5363 4.98649 12.3946C5.11707 12.254 5.33695 12.245 5.47869 12.3756L5.81798 12.6904L6.58583 11.6066C6.69632 11.4493 6.91395 11.4124 7.0702 11.5241C7.22757 11.6345 7.2644 11.8522 7.15279 12.0084L6.15613 13.4158C6.0981 13.4973 6.0077 13.5508 5.90837 13.5609C5.89609 13.562 5.88381 13.5631 5.87265 13.5631C5.7856 13.5631 5.70078 13.5307 5.63605 13.4705L5.00546 12.8868ZM7.90718 10.3109H4.20289C4.01093 10.3109 3.85466 10.466 3.85466 10.6591V14.3634C3.85466 14.5554 4.0098 14.7116 4.20289 14.7116H7.90718C8.09914 14.7116 8.2554 14.5565 8.2554 14.3634V10.6591C8.2554 10.4672 8.09915 10.3109 7.90718 10.3109ZM7.55895 14.0152H4.55123V11.0075H7.55895V14.0152ZM9.34243 11.2607C9.34243 11.0688 9.49757 10.9125 9.69066 10.9125H21.1749C21.3669 10.9125 21.5232 11.0676 21.5232 11.2607C21.5232 11.4527 21.368 11.609 21.1749 11.609H9.68952C9.49755 11.609 9.34243 11.4527 9.34243 11.2607ZM9.34243 13.7618C9.34243 13.5699 9.49757 13.4136 9.69066 13.4136H17.0178C17.2098 13.4136 17.366 13.5687 17.366 13.7618C17.366 13.9538 17.2109 14.1101 17.0178 14.1101H9.68981C9.49784 14.1101 9.34243 13.9538 9.34243 13.7618ZM5.00529 18.465C4.86466 18.3344 4.85574 18.1145 4.98632 17.9728C5.1169 17.8322 5.33677 17.8232 5.47852 17.9538L5.81892 18.2686L6.58566 17.1848C6.69615 17.0275 6.91377 16.9906 7.07003 17.1023C7.2274 17.2127 7.26423 17.4304 7.15262 17.5866L6.15596 18.994C6.09793 19.0755 6.00753 19.129 5.90819 19.1391C5.89592 19.1402 5.88364 19.1413 5.87248 19.1413C5.78543 19.1413 5.70061 19.1089 5.63587 19.0487L5.00529 18.465ZM7.907 15.8902H4.20272C4.01075 15.8902 3.85449 16.0453 3.85449 16.2384V19.9427C3.85449 20.1347 4.00962 20.291 4.20272 20.291H7.907C8.09897 20.291 8.25523 20.1358 8.25523 19.9427V16.2384C8.25523 16.0465 8.09898 15.8902 7.907 15.8902ZM7.55878 19.5945H4.55106V16.5868H7.55878V19.5945ZM9.34226 16.8389C9.34226 16.647 9.4974 16.4907 9.69049 16.4907L15.3042 16.4918C15.4962 16.4918 15.6524 16.6469 15.6524 16.84C15.6524 17.032 15.4973 17.1883 15.3042 17.1883L9.68935 17.1872C9.49738 17.1872 9.34226 17.032 9.34226 16.8389ZM9.34226 19.3412C9.34226 19.1492 9.4974 18.9929 9.69049 18.9929H15.3042C15.4962 18.9929 15.6524 19.1481 15.6524 19.3412C15.6524 19.5331 15.4973 19.6894 15.3042 19.6894H9.68935C9.49738 19.6894 9.34226 19.5331 9.34226 19.3412ZM7.907 21.4695H4.20272C4.01075 21.4695 3.85449 21.6246 3.85449 21.8177V25.522C3.85449 25.714 4.00962 25.8702 4.20272 25.8702H7.907C8.09897 25.8702 8.25523 25.7151 8.25523 25.522V21.8166C8.25523 21.6246 8.09898 21.4695 7.907 21.4695ZM7.55878 25.1726H4.55106V22.1649H7.55878V25.1726ZM9.34226 22.4182C9.34226 22.2262 9.4974 22.07 9.69049 22.07H14.1636C14.3556 22.07 14.5119 22.2251 14.5119 22.4182C14.5119 22.6101 14.3567 22.7664 14.1636 22.7664H9.68935C9.49738 22.7664 9.34226 22.6102 9.34226 22.4182ZM9.68935 24.5722H21.1736C21.3656 24.5722 21.5219 24.7273 21.5219 24.9204C21.5219 25.1124 21.3667 25.2687 21.1736 25.2687L9.68935 25.2676C9.49738 25.2676 9.34112 25.1124 9.34112 24.9193C9.34224 24.7274 9.49737 24.5722 9.68935 24.5722Z" fill="#2B2A2A"/>
</g>
<defs>
<clipPath id="clip0_1191_10648">
<rect width="28" height="28.5714" fill="white" transform="translate(0.748047)"/>
</clipPath>
</defs>
</svg>
