<svg width="434" height="434" viewBox="0 0 434 434" fill="none" xmlns="http://www.w3.org/2000/svg">
<path d="M108.19 267.396H27.21V340.473H108.19V267.396Z" fill="#F5F5F5"/>
<path d="M91.1123 298.531H44.2964C40.6949 298.531 37.7754 301.458 37.7754 305.067V314.346C37.7754 317.956 40.6949 320.882 44.2964 320.882H91.1123C94.7138 320.882 97.6333 317.956 97.6333 314.346V305.067C97.6333 301.458 94.7138 298.531 91.1123 298.531Z" fill="#E0E0E0"/>
<path d="M107.739 281.233C107.739 281.354 89.8911 281.45 67.9034 281.45C45.9156 281.45 28.0674 281.354 28.0674 281.233C28.0674 281.111 45.9156 281.016 67.9034 281.016C89.8911 281.016 107.739 281.146 107.739 281.233Z" fill="#E0E0E0"/>
<path d="M36.2507 275.824C36.2507 276.223 36.1328 276.612 35.9121 276.943C35.6913 277.274 35.3775 277.532 35.0104 277.685C34.6433 277.837 34.2393 277.877 33.8496 277.799C33.4599 277.722 33.1019 277.53 32.8209 277.248C32.5399 276.967 32.3485 276.608 32.271 276.217C32.1935 275.827 32.2333 275.422 32.3854 275.054C32.5374 274.686 32.7949 274.371 33.1253 274.15C33.4557 273.929 33.8442 273.811 34.2415 273.811C34.7744 273.811 35.2854 274.023 35.6622 274.4C36.039 274.778 36.2507 275.29 36.2507 275.824Z" fill="#E0E0E0"/>
<path d="M42.1833 275.824C42.1833 276.223 42.0652 276.613 41.8441 276.944C41.6229 277.275 41.3086 277.533 40.941 277.686C40.5734 277.838 40.169 277.877 39.779 277.799C39.389 277.72 39.0311 277.528 38.7504 277.245C38.4698 276.963 38.2791 276.603 38.2026 276.212C38.1261 275.821 38.1671 275.415 38.3205 275.048C38.4739 274.68 38.7327 274.366 39.0643 274.146C39.3958 273.925 39.7851 273.809 40.1828 273.811C40.4463 273.811 40.7071 273.863 40.9504 273.964C41.1936 274.065 41.4146 274.214 41.6004 274.401C41.7863 274.588 41.9335 274.81 42.0335 275.054C42.1335 275.299 42.1844 275.56 42.1833 275.824Z" fill="#E0E0E0"/>
<path d="M48.1237 275.824C48.1237 276.223 48.0059 276.612 47.7851 276.943C47.5643 277.274 47.2506 277.532 46.8834 277.685C46.5163 277.837 46.1124 277.877 45.7226 277.799C45.3329 277.722 44.9749 277.53 44.6939 277.248C44.4129 276.967 44.2216 276.608 44.1441 276.217C44.0666 275.827 44.1063 275.422 44.2584 275.054C44.4105 274.686 44.668 274.371 44.9984 274.15C45.3288 273.929 45.7172 273.811 46.1146 273.811C46.6474 273.811 47.1585 274.023 47.5353 274.4C47.912 274.778 48.1237 275.29 48.1237 275.824Z" fill="#E0E0E0"/>
<path d="M53.38 310.319V311.3C53.38 311.76 53.1975 312.202 52.8727 312.527C52.5479 312.853 52.1074 313.036 51.648 313.036C51.1887 313.036 50.7481 312.853 50.4233 312.527C50.0985 312.202 49.916 311.76 49.916 311.3V307.437C49.916 306.977 50.0985 306.535 50.4233 306.21C50.7481 305.884 51.1887 305.701 51.648 305.701C52.1074 305.701 52.5479 305.884 52.8727 306.21C53.1975 306.535 53.38 306.977 53.38 307.437V308.14H52.2456V307.342C52.2456 306.812 52.0117 306.613 51.648 306.613C51.2843 306.613 51.0418 306.812 51.0418 307.342V311.361C51.0418 311.89 51.2756 312.081 51.648 312.081C52.0204 312.081 52.2456 311.89 52.2456 311.361V310.302L53.38 310.319Z" fill="white"/>
<path d="M54.0645 305.658H55.2249V312.021H57.1387V313.088H54.0645V305.658Z" fill="white"/>
<path d="M57.6494 305.658H58.8185V313.088H57.6494V305.658Z" fill="white"/>
<path d="M63.0451 310.319V311.3C63.0823 311.543 63.0643 311.791 62.9925 312.025C62.9207 312.26 62.797 312.476 62.6305 312.656C62.464 312.836 62.259 312.977 62.0309 313.066C61.8028 313.156 61.5574 313.193 61.3131 313.175C60.1699 313.175 59.5811 312.489 59.5811 311.3V307.437C59.5811 306.248 60.1699 305.571 61.3131 305.571C61.5566 305.553 61.8011 305.59 62.0285 305.679C62.2558 305.768 62.4602 305.908 62.6266 306.087C62.7929 306.266 62.9169 306.48 62.9893 306.714C63.0618 306.948 63.0808 307.195 63.0451 307.437V308.14H61.9366V307.342C61.9366 306.812 61.7114 306.613 61.339 306.613C60.9667 306.613 60.7328 306.812 60.7328 307.342V311.36C60.7328 311.89 60.9667 312.081 61.339 312.081C61.7114 312.081 61.9366 311.89 61.9366 311.36V310.302L63.0451 310.319Z" fill="white"/>
<path d="M65.2793 310.128L64.9156 310.805V313.088H63.7725V305.658H64.9329V308.896L66.4571 305.658H67.6262L65.9894 309.009L67.6088 313.132H66.4138L65.2793 310.128Z" fill="white"/>
<path d="M70.9427 313.088H69.7822V305.658H70.9427V308.844H72.2676V305.658H73.4541V313.088H72.2676V309.877H70.9427V313.088Z" fill="white"/>
<path d="M75.4632 308.782H77.0653V309.876H75.4632V312.046H77.481V313.114H74.3027V305.684H77.481V306.743H75.4632V308.782Z" fill="white"/>
<path d="M80.6337 313.088C80.5403 312.794 80.505 312.485 80.5297 312.177V311.005C80.5297 310.319 80.2959 310.059 79.7677 310.059H79.3606V313.088H78.2002V305.658H79.9322C81.1359 305.658 81.6642 306.214 81.6642 307.394V307.984C81.7046 308.284 81.6534 308.589 81.5173 308.858C81.3812 309.128 81.1667 309.35 80.9021 309.495C81.491 309.738 81.6815 310.293 81.6815 311.075V312.22C81.6656 312.515 81.7068 312.81 81.8028 313.088H80.6337ZM79.3606 306.717V309.009H79.8196C80.2526 309.009 80.5211 308.818 80.5211 308.219V307.49C80.5211 306.96 80.3392 306.726 79.9235 306.726L79.3606 306.717Z" fill="white"/>
<path d="M83.6214 308.782H85.2235V309.876H83.6214V312.046H85.6392V313.114H82.4609V305.684H85.6392V306.743H83.6214V308.782Z" fill="white"/>
<path d="M131.295 55.6465H47.0417C40.9867 55.6465 36.0781 60.5664 36.0781 66.6354V84.3078C36.0781 90.3768 40.9867 95.2967 47.0417 95.2967H131.295C137.35 95.2967 142.258 90.3768 142.258 84.3078V66.6354C142.258 60.5664 137.35 55.6465 131.295 55.6465Z" fill="#E0E0E0"/>
<path d="M63.7118 76.558V78.294C63.7118 80.4033 62.6553 81.6098 60.6289 81.6098C58.6024 81.6098 57.5459 80.4033 57.5459 78.294V71.4369C57.5459 69.3276 58.5938 68.1211 60.6289 68.1211C62.664 68.1211 63.7118 69.3276 63.7118 71.4369V72.7128H61.7547V71.324C61.7547 70.3779 61.339 70.022 60.6808 70.022C60.0227 70.022 59.6156 70.3779 59.6156 71.324V78.4416C59.6156 79.3791 60.0227 79.7176 60.6808 79.7176C61.339 79.7176 61.7547 79.3791 61.7547 78.4416V76.558H63.7118Z" fill="white"/>
<path d="M64.9678 68.2852H67.0375V79.5692H70.4322V81.4527H64.9678V68.2852Z" fill="white"/>
<path d="M71.3418 68.2852H73.4029V81.4701H71.3418V68.2852Z" fill="white"/>
<path d="M80.9022 76.558V78.294C80.9022 80.4033 79.8544 81.6098 77.8193 81.6098C75.7842 81.6098 74.7363 80.4033 74.7363 78.294V71.4369C74.7363 69.3276 75.7928 68.1211 77.8193 68.1211C79.8457 68.1211 80.9022 69.3276 80.9022 71.4369V72.7128H78.9451V71.324C78.9451 70.3779 78.5381 70.022 77.8799 70.022C77.2217 70.022 76.8061 70.3779 76.8061 71.324V78.4416C76.8061 79.3791 77.2217 79.7176 77.8799 79.7176C78.5381 79.7176 78.9451 79.3791 78.9451 78.4416V76.558H80.9022Z" fill="white"/>
<path d="M84.8678 76.2187L84.227 77.4252V81.4701H82.1572V68.2852H84.227V74.0313L86.9375 68.2852H88.9986L86.1235 74.1615L88.9986 81.4701H86.8769L84.8678 76.2187Z" fill="white"/>
<path d="M94.9486 81.4701H92.8789V68.2852H94.9486V73.9358H97.2955V68.2852H99.3999V81.4701H97.2955V75.8194H94.9486V81.4701Z" fill="white"/>
<path d="M102.942 73.8404H105.782V75.7239H102.942V79.5865H106.519V81.4701H100.881V68.2852H106.519V70.1687H102.942V73.8404Z" fill="white"/>
<path d="M112.112 81.4701C111.94 80.9505 111.875 80.4011 111.922 79.8556V77.7811C111.922 76.5572 111.515 76.1058 110.571 76.1058H109.861V81.4701H107.791V68.2852H110.909C113.056 68.2852 113.974 69.2834 113.974 71.3232V72.3561C113.974 73.7102 113.541 74.5955 112.623 75.0295C113.654 75.4635 113.992 76.4617 113.992 77.8332V79.8556C113.953 80.3979 114.03 80.9422 114.217 81.4527L112.112 81.4701ZM109.861 70.1861V74.2396H110.666C111.437 74.2396 111.905 73.9011 111.905 72.8422V71.5228C111.905 70.5854 111.584 70.1687 110.857 70.1687L109.861 70.1861Z" fill="white"/>
<path d="M117.413 73.8404H120.253V75.7239H117.413V79.5865H120.98V81.4701H115.343V68.2852H120.98V70.1687H117.413V73.8404Z" fill="white"/>
<path d="M297.515 55.4824V138.828V155.554L313.596 138.828H389.865V55.4824H297.515Z" fill="#F5F5F5"/>
<path d="M389.389 71.3064C389.389 71.4453 369.029 71.5581 343.924 71.5581C318.819 71.5581 298.459 71.4453 298.459 71.3064C298.459 71.1675 318.81 71.0547 343.924 71.0547C369.038 71.0547 389.389 71.1762 389.389 71.3064Z" fill="#E0E0E0"/>
<path d="M307.82 65.1001C307.822 65.5554 307.689 66.001 307.438 66.3804C307.187 66.7598 306.829 67.056 306.41 67.2314C305.99 67.4068 305.529 67.4536 305.083 67.3659C304.637 67.2781 304.228 67.0597 303.906 66.7384C303.584 66.417 303.364 66.0072 303.275 65.5607C303.186 65.1143 303.231 64.6514 303.404 64.2306C303.578 63.8098 303.872 63.45 304.249 63.1969C304.627 62.9437 305.071 62.8086 305.525 62.8086C306.133 62.8086 306.715 63.0497 307.145 63.4792C307.575 63.9087 307.818 64.4916 307.82 65.1001Z" fill="#E0E0E0"/>
<path d="M314.592 65.0991C314.592 65.5548 314.457 66.0002 314.204 66.3788C313.951 66.7574 313.591 67.0522 313.171 67.2258C312.751 67.3994 312.288 67.4439 311.843 67.3537C311.397 67.2636 310.988 67.0428 310.668 66.7193C310.348 66.3959 310.131 65.9844 310.044 65.5371C309.957 65.0898 310.005 64.6267 310.182 64.2068C310.358 63.7868 310.655 63.4287 311.035 63.1781C311.414 62.9274 311.86 62.7955 312.314 62.7989C312.92 62.8035 313.499 63.0478 313.926 63.4787C314.352 63.9096 314.592 64.492 314.592 65.0991Z" fill="#E0E0E0"/>
<path d="M321.356 65.1001C321.356 65.5533 321.222 65.9964 320.97 66.3732C320.719 66.7501 320.362 67.0438 319.944 67.2172C319.527 67.3906 319.067 67.436 318.623 67.3476C318.18 67.2592 317.773 67.0409 317.453 66.7205C317.133 66.4 316.915 65.9917 316.827 65.5472C316.739 65.1027 316.784 64.6419 316.957 64.2232C317.13 63.8045 317.423 63.4466 317.799 63.1948C318.175 62.943 318.617 62.8086 319.069 62.8086C319.675 62.8109 320.255 63.053 320.684 63.4823C321.112 63.9115 321.353 64.4931 321.356 65.1001Z" fill="#E0E0E0"/>
<path d="M330.899 107.867H324.776L323.642 110.679H319.468L325.85 96.1836H329.886L336.294 110.679H332.033L330.899 107.867ZM329.695 104.838L327.833 100.202L325.98 104.838H329.695Z" fill="#E0E0E0"/>
<path d="M337.429 96.1836H344.27C349.068 96.1836 352.35 98.9786 352.35 103.431C352.35 107.884 349.068 110.679 344.27 110.679H337.429V96.1836ZM344.106 107.407C346.565 107.407 348.219 105.94 348.219 103.431C348.219 100.923 346.565 99.456 344.106 99.456H341.508V107.407H344.106Z" fill="#E0E0E0"/>
<path d="M353.501 109.367L354.843 106.338C356.273 107.251 357.928 107.747 359.624 107.77C361.312 107.77 361.979 107.293 361.979 106.59C361.979 104.289 353.752 105.973 353.752 100.583C353.752 97.979 355.856 95.8784 360.161 95.8784C361.989 95.8483 363.795 96.2844 365.408 97.1457L364.144 100.192C362.92 99.493 361.543 99.1083 360.135 99.0726C358.403 99.0726 357.805 99.6542 357.805 100.375C357.805 102.597 366.006 100.939 366.006 106.277C366.006 108.803 363.902 110.964 359.598 110.964C357.456 111.017 355.343 110.463 353.501 109.367Z" fill="#E0E0E0"/>
<path d="M390.497 329.119C388.709 332.736 385.89 335.74 382.397 337.751C378.904 339.761 374.895 340.688 370.877 340.413C366.859 340.138 363.012 338.674 359.824 336.207C356.636 333.74 354.251 330.38 352.969 326.553C351.687 322.726 351.567 318.604 352.625 314.708C353.682 310.813 355.868 307.32 358.907 304.671C361.946 302.021 365.701 300.336 369.697 299.827C373.692 299.318 377.749 300.009 381.352 301.812C386.177 304.218 389.851 308.447 391.565 313.568C393.28 318.688 392.896 324.282 390.497 329.119Z" fill="#F5F5F5"/>
<path d="M386.167 326.958C384.798 329.711 382.645 331.995 379.98 333.521C377.315 335.047 374.258 335.746 371.196 335.53C368.135 335.314 365.206 334.192 362.781 332.306C360.355 330.421 358.543 327.857 357.572 324.939C356.602 322.02 356.517 318.879 357.328 315.912C358.14 312.945 359.811 310.286 362.131 308.272C364.451 306.258 367.315 304.979 370.36 304.597C373.406 304.215 376.496 304.747 379.239 306.126C382.914 307.968 385.708 311.198 387.007 315.104C388.307 319.011 388.004 323.275 386.167 326.958Z" fill="#EBEBEB"/>
<path d="M386.375 326.515C386.469 325.884 386.626 325.265 386.843 324.666C387.587 321.874 387.569 318.933 386.791 316.151C386.418 314.866 385.883 313.635 385.197 312.488C384.449 311.221 383.515 310.074 382.426 309.085C381.857 308.556 381.246 308.074 380.599 307.644C379.934 307.201 379.236 306.809 378.512 306.472C377.787 306.127 377.037 305.837 376.269 305.604C375.522 305.397 374.761 305.246 373.991 305.153C373.248 305.059 372.498 305.024 371.748 305.049C371.028 305.065 370.31 305.134 369.601 305.257C368.286 305.485 367.006 305.879 365.79 306.429C363.175 307.64 360.937 309.539 359.313 311.923C358.62 312.922 358.291 313.521 358.204 313.486C358.31 312.84 358.552 312.225 358.914 311.68C359.772 310.116 360.912 308.724 362.274 307.575C364.32 305.85 366.775 304.681 369.402 304.181C370.161 304.033 370.932 303.943 371.705 303.912C372.511 303.873 373.319 303.899 374.121 303.99C374.953 304.082 375.775 304.242 376.581 304.467C377.409 304.697 378.219 304.987 379.005 305.335C379.789 305.7 380.541 306.127 381.257 306.611C381.952 307.079 382.61 307.602 383.223 308.174C383.813 308.725 384.357 309.323 384.851 309.962C385.332 310.568 385.764 311.213 386.141 311.889C386.85 313.129 387.386 314.461 387.735 315.847C388.038 317.05 388.195 318.286 388.202 319.527C388.22 321.305 387.909 323.071 387.284 324.735C386.834 325.976 386.444 326.549 386.375 326.515Z" fill="#E0E0E0"/>
<path d="M369.73 329.093L368.552 331.576L366.387 330.525L367.522 328.147C365.621 327.159 364.037 325.655 362.949 323.807L365.417 321.724C366.244 323.196 367.438 324.428 368.881 325.3L370.613 321.663C368.483 319.927 366.171 317.809 367.669 314.719C368.777 312.41 371.401 311.247 375.021 312.497L376.19 310.084L378.364 311.126L377.264 313.434C378.778 314.277 380.072 315.467 381.04 316.906L378.667 319.068C377.93 317.976 376.982 317.043 375.879 316.325L374.103 320.031C376.242 321.767 378.511 323.842 377.039 326.915C375.931 329.163 373.341 330.326 369.73 329.093ZM372.172 318.417L373.662 315.327C372.38 315.032 371.627 315.448 371.28 316.195C370.934 316.941 371.367 317.688 372.172 318.417ZM373.393 325.474C373.757 324.71 373.333 323.989 372.527 323.217L371.081 326.22C372.311 326.507 373.055 326.168 373.393 325.5V325.474Z" fill="#E0E0E0"/>
<path d="M404.769 407.577C404.769 407.699 320.724 407.803 217.064 407.803C113.403 407.803 29.3408 407.699 29.3408 407.577C29.3408 407.456 113.343 407.352 217.064 407.352C320.784 407.352 404.769 407.447 404.769 407.577Z" fill="#263238"/>
<path d="M250.733 180.893L248.768 260.853C248.438 274.455 245.174 294.358 223.749 292.848C205.26 290.139 200.982 272.337 201.311 259.647C201.467 253.631 201.579 248.614 201.553 247.989C201.553 247.989 181.289 245.576 180.319 225.421C179.851 215.665 180.509 195.501 181.323 177.256C181.751 167.809 185.71 158.87 192.414 152.216C199.118 145.562 208.076 141.682 217.505 141.347L219.445 141.277C240.437 141.72 251.781 159.861 250.733 180.893Z" fill="#FFBE9D"/>
<path d="M201.553 247.989C201.553 247.989 214.274 248.284 227.533 239.309C227.533 239.309 221.661 254.29 201.492 253.197L201.553 247.989Z" fill="#EB996E"/>
<path d="M215.322 186.751C215.703 187.176 218.093 185.388 221.462 185.423C224.831 185.457 227.273 187.159 227.645 186.786C227.827 186.595 227.438 185.839 226.372 185.05C224.93 184.006 223.197 183.444 221.419 183.444C219.663 183.427 217.949 183.981 216.535 185.024C215.504 185.805 215.149 186.56 215.322 186.751Z" fill="#263238"/>
<path d="M214.682 194.433C214.7 195.143 214.994 195.819 215.502 196.315C216.01 196.811 216.692 197.089 217.401 197.089C217.749 197.105 218.096 197.051 218.422 196.93C218.749 196.81 219.048 196.624 219.301 196.385C219.555 196.147 219.758 195.859 219.899 195.54C220.039 195.221 220.115 194.877 220.12 194.528C220.102 193.817 219.808 193.142 219.3 192.646C218.792 192.149 218.11 191.872 217.401 191.872C217.053 191.856 216.706 191.91 216.379 192.03C216.053 192.151 215.754 192.336 215.5 192.575C215.247 192.814 215.044 193.102 214.903 193.421C214.762 193.74 214.687 194.084 214.682 194.433Z" fill="#263238"/>
<path d="M206.047 209.883C206.047 209.709 204.116 209.449 200.99 209.153C200.193 209.101 199.44 208.971 199.258 208.442C199.166 207.624 199.323 206.798 199.708 206.072C200.384 204.128 201.085 202.088 201.83 199.996C204.766 191.316 206.861 184.138 206.515 184.025C206.168 183.912 203.493 190.873 200.557 199.579C199.847 201.72 199.171 203.772 198.53 205.733C198.271 206.645 197.786 207.686 198.236 208.858C198.362 209.133 198.548 209.375 198.78 209.568C199.013 209.76 199.285 209.897 199.578 209.969C200.021 210.075 200.475 210.121 200.929 210.108C204.064 210.117 206.039 210.056 206.047 209.883Z" fill="#263238"/>
<path d="M217.237 174.13C217.531 174.894 220.251 174.425 223.463 174.711C226.676 174.998 229.309 175.805 229.707 175.102C229.889 174.764 229.413 174.06 228.339 173.366C226.929 172.491 225.326 171.975 223.671 171.864C222.022 171.716 220.362 171.979 218.839 172.628C217.679 173.14 217.107 173.765 217.237 174.13Z" fill="#263238"/>
<path d="M184.623 174.8C184.952 175.425 187.602 174.843 190.788 174.86C193.975 174.878 196.591 175.39 196.954 174.765C197.11 174.47 196.608 173.897 195.517 173.376C194.046 172.722 192.45 172.396 190.84 172.421C189.216 172.412 187.608 172.746 186.121 173.402C185.012 173.932 184.475 174.47 184.623 174.8Z" fill="#263238"/>
<path d="M249.616 195.908C249.963 195.743 263.316 191.307 263.368 205.126C263.42 218.945 249.573 216.15 249.512 215.75C249.452 215.351 249.616 195.908 249.616 195.908Z" fill="#FFBE9D"/>
<path d="M253.739 210.499C253.799 210.499 253.981 210.664 254.379 210.855C254.958 211.087 255.603 211.087 256.181 210.855C257.636 210.317 258.848 207.991 258.909 205.5C258.943 204.306 258.709 203.119 258.225 202.028C258.092 201.597 257.857 201.204 257.541 200.884C257.224 200.563 256.835 200.325 256.406 200.188C256.13 200.116 255.837 200.144 255.58 200.266C255.322 200.388 255.115 200.597 254.994 200.856C254.812 201.238 254.899 201.516 254.83 201.542C254.761 201.568 254.527 201.307 254.639 200.743C254.711 200.4 254.901 200.092 255.176 199.875C255.362 199.73 255.575 199.622 255.802 199.56C256.03 199.497 256.267 199.481 256.501 199.511C257.068 199.622 257.597 199.876 258.038 200.25C258.479 200.623 258.818 201.104 259.021 201.646C259.621 202.84 259.918 204.163 259.887 205.5C259.809 208.286 258.398 210.89 256.423 211.48C256.053 211.588 255.664 211.612 255.283 211.551C254.903 211.489 254.541 211.344 254.224 211.124C253.765 210.838 253.687 210.525 253.739 210.499Z" fill="#EB996E"/>
<path d="M268.755 174.243C266.062 169.27 265.611 163.437 264.243 157.951C262.875 152.465 258.856 145.495 253.617 143.403C248.984 140.53 242.766 140.669 238.731 143.846C238.021 136.633 233.309 132.388 226.399 130.288C219.488 128.187 208.213 128.873 201.441 131.329C196.184 133.222 191.049 137.318 184.701 143.386C182.033 145.938 179.577 148.705 177.357 151.658L170.594 170.224L175.435 180.276C175.72 180.962 176.015 181.639 176.379 182.316L180.302 203.26C180.813 197.61 181.168 177.889 181.627 172.238C185.881 172.273 190.099 171.445 194.026 169.804C197.954 168.163 201.51 165.743 204.48 162.69C207.693 159.374 210.274 155.173 214.483 153.272C219.904 150.833 226.174 152.995 231.716 155.156L231.482 154.93C234.359 156.397 236.929 158.404 239.051 160.841C237.379 171.99 238.117 183.369 241.216 194.207C241.684 195.83 243 199.198 244.55 199.867C247.598 201.177 248.542 198.052 250.465 196.447C251.885 195.257 253.929 195.179 256.146 195.266C257.575 191.872 259.134 186.117 260.476 181.083C262.324 181.736 264.301 181.941 266.243 181.682C265.701 180.241 265.161 178.794 264.624 177.342C265.339 177.913 266.165 178.327 267.049 178.557C267.495 178.664 267.963 178.631 268.39 178.463C268.817 178.296 269.183 178.001 269.439 177.62C269.985 176.526 269.318 175.285 268.755 174.243Z" fill="#263238"/>
<path d="M233.673 147.561C234.374 148.148 235.026 148.793 235.621 149.488C237.142 151.467 238.121 153.809 238.462 156.284C238.738 157.979 238.845 159.697 238.782 161.414C238.722 163.271 238.496 165.25 238.28 167.334C238.014 169.522 237.884 171.726 237.89 173.93C237.905 175.094 238.013 176.255 238.211 177.402C238.341 178.637 238.786 179.817 239.501 180.831C239.836 181.235 240.269 181.546 240.76 181.731C241.25 181.917 241.78 181.972 242.298 181.89C243.289 181.742 244.203 181.269 244.896 180.545C246.247 179.078 246.628 177.177 247.018 175.493L246.594 175.536C247.146 177.084 247.916 178.546 248.88 179.876C249.818 181.097 251.188 181.911 252.708 182.15C253.416 182.251 254.139 182.151 254.795 181.864C255.404 181.578 255.912 181.111 256.249 180.527C256.564 180.002 256.734 179.403 256.743 178.791C256.739 178.209 256.53 177.647 256.154 177.203L255.938 177.385C257.078 178.804 258.507 179.964 260.129 180.788C260.556 181.004 260.996 181.196 261.445 181.36C261.6 181.42 261.759 181.467 261.922 181.499C261.785 181.409 261.636 181.339 261.48 181.291C261.186 181.152 260.744 180.961 260.207 180.657C258.641 179.782 257.266 178.602 256.163 177.185L255.938 177.368C256.245 177.806 256.41 178.329 256.41 178.865C256.41 179.401 256.245 179.924 255.938 180.362C255.625 180.877 255.167 181.288 254.621 181.543C254.026 181.796 253.372 181.877 252.734 181.777C251.316 181.543 250.044 180.768 249.183 179.616C248.253 178.325 247.512 176.907 246.983 175.406L246.715 174.746L246.559 175.441C246.178 177.116 245.762 178.913 244.532 180.267C243.91 180.915 243.091 181.339 242.203 181.473C241.766 181.543 241.319 181.5 240.904 181.348C240.489 181.196 240.119 180.94 239.83 180.605C239.166 179.654 238.755 178.549 238.635 177.394C238.443 176.263 238.336 175.12 238.315 173.974C238.301 171.787 238.423 169.601 238.678 167.429C238.886 165.346 239.094 163.358 239.137 161.475C239.188 159.73 239.057 157.984 238.748 156.267C238.371 153.751 237.327 151.383 235.725 149.409C235.151 148.68 234.457 148.055 233.673 147.561Z" fill="#455A64"/>
<path d="M184.632 186.882C185.013 187.307 187.403 185.519 190.771 185.554C194.14 185.588 196.582 187.29 196.955 186.916C197.137 186.725 196.747 185.97 195.682 185.18C194.243 184.137 192.513 183.575 190.737 183.574C188.979 183.561 187.263 184.115 185.844 185.154C184.805 185.935 184.441 186.699 184.632 186.882Z" fill="#263238"/>
<path d="M186.649 193.417C186.67 194.128 186.966 194.804 187.475 195.3C187.985 195.796 188.667 196.073 189.377 196.073C189.724 196.088 190.071 196.033 190.396 195.912C190.722 195.791 191.019 195.605 191.272 195.366C191.525 195.128 191.727 194.841 191.867 194.522C192.007 194.204 192.082 193.86 192.088 193.512C192.07 192.802 191.775 192.126 191.267 191.63C190.759 191.134 190.078 190.856 189.369 190.856C189.021 190.84 188.674 190.894 188.347 191.015C188.021 191.136 187.722 191.321 187.468 191.56C187.215 191.799 187.011 192.086 186.871 192.405C186.73 192.724 186.655 193.068 186.649 193.417Z" fill="#263238"/>
<path d="M179.132 149.4C177.4 151.622 174.681 153.619 171.875 153.246C170.863 153.001 169.87 152.682 168.905 152.291C167.9 152.864 168.039 156.24 168.706 157.195C169.329 157.998 170.019 158.747 170.767 159.434C167.415 161.127 164.436 160.181 160.946 158.801C161.219 161.821 162.278 164.716 164.018 167.196C165.759 169.676 168.119 171.654 170.862 172.932C172.594 173.722 174.759 174.182 176.404 173.175C177.851 172.307 178.474 170.571 178.942 168.896C180.672 162.892 181.655 156.696 181.869 150.451L179.132 149.4Z" fill="#263238"/>
<path d="M208.966 216.663C209.202 216.228 209.549 215.863 209.973 215.606C210.396 215.35 210.879 215.212 211.374 215.205C212.309 215.205 213.106 215.118 213.79 215.769C214.439 216.396 214.88 217.208 215.052 218.095C215.224 218.982 215.119 219.901 214.751 220.725C214.342 221.532 213.648 222.157 212.804 222.478C211.96 222.799 211.027 222.793 210.187 222.462C208.551 221.706 207.901 217.479 209.036 216.073" fill="#EB996E"/>
<path d="M208.395 219.675C208.53 219.931 208.648 220.195 208.75 220.465C208.915 220.812 209.148 221.123 209.435 221.378C209.722 221.633 210.057 221.827 210.421 221.949C210.964 222.108 211.532 222.155 212.093 222.088C212.654 222.021 213.196 221.841 213.686 221.559C214.234 221.148 214.646 220.581 214.868 219.932C215.09 219.283 215.113 218.583 214.932 217.921C214.752 217.259 214.378 216.667 213.857 216.221C213.337 215.776 212.695 215.497 212.015 215.422C211.455 215.359 210.89 215.438 210.369 215.652C209.848 215.866 209.39 216.208 209.036 216.646C208.567 217.263 208.322 218.023 208.343 218.799C208.343 219.354 208.438 219.667 208.395 219.667C208.351 219.667 208.351 219.597 208.299 219.45C208.232 219.238 208.189 219.02 208.17 218.799C208.076 217.965 208.295 217.127 208.784 216.446C209.159 215.943 209.658 215.545 210.231 215.293C210.805 215.04 211.435 214.941 212.058 215.005C212.83 215.078 213.562 215.386 214.155 215.888C214.748 216.39 215.173 217.062 215.374 217.813C215.574 218.564 215.541 219.359 215.278 220.091C215.015 220.822 214.535 221.456 213.903 221.906C213.36 222.21 212.76 222.397 212.141 222.455C211.522 222.514 210.898 222.442 210.309 222.245C209.913 222.095 209.554 221.863 209.256 221.564C208.957 221.264 208.726 220.905 208.577 220.509C208.486 220.304 208.425 220.088 208.395 219.866C208.395 219.753 208.395 219.675 208.395 219.675Z" fill="#263238"/>
<path d="M233.829 147.465C233.263 146.511 232.576 145.636 231.785 144.861C229.554 142.825 226.705 141.602 223.696 141.389C221.634 141.242 219.563 141.487 217.591 142.109C215.328 142.831 213.181 143.877 211.217 145.217C207.017 148.003 203.302 152.161 199.241 156.371C197.272 158.437 195.14 160.341 192.867 162.065C190.74 163.681 188.373 164.953 185.852 165.832C181.525 167.218 176.886 167.294 172.516 166.049C169.581 165.24 166.839 163.846 164.453 161.952L163.362 161.032C163.05 160.763 162.825 160.494 162.626 160.294L162.184 159.825C162.089 159.721 162.037 159.66 162.046 159.652L162.219 159.79L162.687 160.224C162.895 160.415 163.137 160.676 163.449 160.936L164.54 161.804C166.941 163.62 169.67 164.952 172.576 165.728C176.886 166.909 181.446 166.804 185.696 165.424C188.185 164.553 190.523 163.296 192.624 161.7C194.87 159.982 196.981 158.092 198.937 156.049C202.982 151.883 206.731 147.673 211.01 144.861C213.009 143.507 215.198 142.457 217.504 141.745C219.524 141.123 221.643 140.891 223.748 141.059C226.813 141.307 229.699 142.603 231.923 144.731C232.51 145.312 233.025 145.962 233.456 146.666C233.577 146.901 233.681 147.083 233.759 147.23C233.837 147.378 233.837 147.456 233.829 147.465Z" fill="#455A64"/>
<path d="M193.828 254.68L201.466 253.161L248.715 250.236L258.787 252.988L257.462 277.57L234.695 292.126L212.612 291.683L198.721 279.011L195.647 266.433L193.828 254.68Z" fill="#FFBE9D"/>
<path d="M322.706 293.385C320.022 287.779 316.991 282.346 313.63 277.119C308.208 268.78 299.918 262.728 290.335 260.115L253.963 250.229C253.963 250.229 252.075 286.685 227.039 286.685C202.003 286.685 197.127 252.511 197.127 252.511L154.997 269.359C153.55 269.923 143.782 273.309 132.411 297.743C121.586 321.014 116.823 332.914 116.823 332.914L160.175 345.465L162.886 384.586L161.968 406.929L293.678 406.633L292.942 381.097L293.496 341.941L295.141 344.606L338.978 326.986C338.978 326.986 333.332 315.389 322.706 293.385Z" fill="#FF725E"/>
<path d="M294.128 317.029C294.328 317.029 294.206 331.178 293.869 348.625C293.531 366.071 293.133 380.185 292.942 380.185C292.751 380.185 292.864 366.037 293.202 348.59C293.54 331.143 293.973 317.029 294.128 317.029Z" fill="#263238"/>
<path d="M153.611 309.01C153.832 309.471 153.995 309.958 154.096 310.459C154.356 311.405 154.711 312.786 155.127 314.487C155.95 317.907 156.971 322.646 157.924 327.923C158.877 333.201 159.552 338.01 159.968 341.49C160.176 343.226 160.331 344.65 160.409 345.631C160.484 346.136 160.501 346.649 160.461 347.158C160.289 346.677 160.179 346.175 160.132 345.665C159.959 344.546 159.743 343.174 159.483 341.56C158.946 338.088 158.175 333.314 157.231 328.045C156.287 322.776 155.343 318.037 154.633 314.6C154.313 312.994 154.044 311.631 153.819 310.52C153.694 310.026 153.624 309.519 153.611 309.01Z" fill="#263238"/>
<path d="M120.53 334.016L102.881 369.526C100.912 373.491 99.9911 377.896 100.205 382.32C100.528 388.958 103.385 395.218 108.186 399.802C112.987 404.386 119.364 406.944 125.995 406.945L176.604 404.002L178.821 380.862L140.31 371.548L154.902 343.893L120.53 334.016Z" fill="#FFBE9D"/>
<path d="M140.309 371.548C140.309 371.713 138.577 371.418 135.763 371.435C132.127 371.506 128.525 372.145 125.085 373.327C121.649 374.479 118.429 376.198 115.559 378.414C113.377 380.15 112.338 381.564 112.216 381.478C112.095 381.391 112.398 381.061 112.857 380.41C113.542 379.511 114.313 378.683 115.161 377.936C118.008 375.514 121.295 373.665 124.843 372.494C128.366 371.274 132.08 370.706 135.806 370.819C136.929 370.86 138.047 370.994 139.149 371.218C139.551 371.263 139.943 371.374 140.309 371.548Z" fill="#EB996E"/>
<path d="M155.516 343.616C155.362 344.559 155.07 345.475 154.65 346.333C153.822 348.456 152.853 350.52 151.749 352.513C150.654 354.513 149.424 356.435 148.069 358.268C147.56 359.07 146.935 359.792 146.216 360.412C146.051 360.29 148.597 356.81 151.143 352.175C153.689 347.54 155.326 343.547 155.516 343.616Z" fill="#EB996E"/>
<path d="M337.178 406.824H277.753V384.343L312.168 369.769L299.403 342.956L333.852 329.068L350.67 366.566C354.576 377.459 358.568 382.633 355.165 392.545C353.398 397.692 346.089 406.824 337.178 406.824Z" fill="#FFBE9D"/>
<path d="M168.913 379.517H178.82C178.82 379.517 201.172 371.418 205.77 372.191C209.91 372.885 225.073 382.98 228.044 384.976C228.372 385.201 228.623 385.523 228.763 385.896C229.052 386.687 229.026 387.56 228.689 388.331C228.351 389.103 227.729 389.714 226.953 390.037L226.641 390.167L226.771 390.618C226.95 391.206 227.029 391.819 227.005 392.432C226.971 392.898 226.79 393.342 226.487 393.697C226.184 394.052 225.776 394.301 225.322 394.407C224.868 394.512 224.392 394.47 223.964 394.285C223.536 394.1 223.178 393.782 222.943 393.379L223.515 394.394C223.746 394.809 223.854 395.282 223.826 395.757L223.774 396.686C223.745 397.19 223.564 397.673 223.255 398.071C222.945 398.469 222.523 398.764 222.042 398.916C221.589 399.064 221.104 399.077 220.643 398.956C220.182 398.834 219.766 398.582 219.444 398.231C217.522 396.113 213.382 391.868 210.559 391.399C207.517 391.027 204.453 390.87 201.388 390.931C200.762 390.935 200.152 391.127 199.636 391.483C199.12 391.839 198.723 392.342 198.496 392.927C200.167 393.049 211.78 399.116 215.894 401.286C216.531 401.605 217.08 402.075 217.497 402.654C217.913 403.233 218.183 403.904 218.284 404.61C218.431 405.895 217.782 407.214 215.236 406.65C209.78 405.374 199.951 400.843 199.951 400.843C199.951 400.843 194.876 399.394 191.594 401.711C186.969 404.984 184.856 406.181 180.89 404.862C178.467 404.058 176.143 402.981 173.962 401.651L166.168 400.869C166.168 400.869 158.807 382.355 168.913 379.517Z" fill="#FFBE9D"/>
<path d="M198.436 383.301C198.436 383.388 200.02 382.884 202.636 382.711C206.042 382.481 209.454 383.062 212.594 384.406C215.733 385.75 218.511 387.819 220.7 390.445C221.588 391.558 222.418 392.717 223.186 393.917C223.065 393.55 222.899 393.201 222.692 392.875C222.187 391.961 221.608 391.09 220.96 390.271C218.788 387.552 215.977 385.415 212.78 384.052C209.582 382.688 206.096 382.141 202.636 382.459C201.595 382.545 200.563 382.722 199.553 382.988C199.169 383.048 198.794 383.153 198.436 383.301Z" fill="#EB996E"/>
<path d="M200.799 377.858C202.221 377.429 203.69 377.172 205.173 377.094C208.759 377.078 212.277 378.077 215.322 379.976C218.347 381.918 221.101 384.253 223.515 386.92L225.766 389.307C226.026 389.623 226.316 389.914 226.632 390.175C226.413 389.837 226.166 389.518 225.896 389.22C225.402 388.621 224.675 387.762 223.748 386.729C221.369 383.978 218.607 381.583 215.547 379.62C212.437 377.673 208.821 376.692 205.155 376.799C204.051 376.851 202.959 377.053 201.908 377.398C201.613 377.487 201.324 377.594 201.042 377.719C200.886 377.789 200.791 377.841 200.799 377.858Z" fill="#EB996E"/>
<path d="M292.266 380.185H282.35C282.35 380.185 259.999 372.086 255.401 372.859C251.261 373.553 236.097 383.648 233.127 385.644C232.799 385.869 232.548 386.191 232.408 386.564C232.121 387.355 232.148 388.227 232.485 388.998C232.822 389.769 233.443 390.38 234.218 390.705L234.53 390.835L234.4 391.286C234.22 391.873 234.141 392.487 234.166 393.1C234.2 393.566 234.381 394.009 234.684 394.365C234.987 394.72 235.395 394.969 235.849 395.074C236.303 395.18 236.779 395.138 237.207 394.953C237.635 394.768 237.993 394.45 238.228 394.046L237.656 395.062C237.43 395.479 237.323 395.951 237.344 396.425L237.396 397.345C237.422 397.85 237.602 398.335 237.912 398.734C238.222 399.133 238.646 399.427 239.128 399.576C239.58 399.726 240.066 399.742 240.527 399.622C240.988 399.502 241.405 399.251 241.726 398.899C243.649 396.772 247.788 392.527 250.612 392.059C253.657 391.693 256.724 391.539 259.791 391.599C260.416 391.605 261.024 391.798 261.538 392.154C262.052 392.51 262.448 393.012 262.675 393.595C261.004 393.708 249.391 399.784 245.277 401.954C244.641 402.272 244.091 402.74 243.675 403.317C243.259 403.895 242.988 404.565 242.887 405.27C242.74 406.563 243.389 407.917 245.935 407.318C251.391 406.042 261.22 401.511 261.22 401.511C261.22 401.511 266.295 400.053 269.577 402.379C274.201 405.652 276.314 406.849 280.281 405.53C282.705 404.729 285.03 403.651 287.209 402.319L295.003 401.537C295.003 401.537 302.372 383.049 292.266 380.185Z" fill="#FFBE9D"/>
<path d="M262.736 383.995C262.736 384.081 261.151 383.578 258.536 383.413C255.124 383.178 251.705 383.756 248.559 385.1C245.413 386.444 242.63 388.516 240.437 391.147C238.705 393.152 238.02 394.619 237.951 394.619C238.076 394.257 238.241 393.91 238.445 393.586C238.95 392.672 239.529 391.801 240.177 390.982C242.349 388.263 245.16 386.126 248.357 384.763C251.555 383.399 255.041 382.852 258.501 383.17C259.542 383.258 260.573 383.432 261.584 383.691C261.978 383.75 262.364 383.852 262.736 383.995Z" fill="#EB996E"/>
<path d="M260.355 378.553C258.947 378.128 257.493 377.871 256.025 377.79C252.432 377.778 248.909 378.779 245.858 380.68C242.835 382.625 240.081 384.959 237.665 387.624L235.414 390.02C235.154 390.336 234.864 390.627 234.548 390.888C234.766 390.546 235.012 390.224 235.284 389.924C235.778 389.334 236.505 388.475 237.44 387.442C239.814 384.688 242.574 382.294 245.633 380.333C248.743 378.386 252.359 377.405 256.025 377.512C257.126 377.565 258.216 377.766 259.263 378.111C259.56 378.196 259.849 378.303 260.129 378.432C260.21 378.461 260.286 378.502 260.355 378.553Z" fill="#EB996E"/>
<path d="M338.711 371.331C338.659 371.409 337.368 370.463 335.03 369.378C334.45 369.118 333.809 368.831 333.09 368.588C332.372 368.345 331.618 368.102 330.804 367.868C327.243 366.924 323.529 366.709 319.884 367.234C319.018 367.382 318.256 367.495 317.528 367.694C316.846 367.845 316.172 368.033 315.511 368.258C313.068 369.057 311.674 369.847 311.631 369.769C311.93 369.536 312.255 369.341 312.601 369.187C312.981 368.963 313.377 368.768 313.787 368.606C314.315 368.36 314.855 368.142 315.407 367.955C316.073 367.708 316.752 367.5 317.442 367.33C318.227 367.121 319.021 366.953 319.823 366.826C323.521 366.242 327.301 366.458 330.908 367.46C331.731 367.72 332.519 367.937 333.22 368.241C333.886 368.492 334.537 368.782 335.169 369.109C335.766 369.378 336.26 369.691 336.71 369.977C337.095 370.193 337.465 370.434 337.819 370.698C338.138 370.875 338.437 371.088 338.711 371.331Z" fill="#EB996E"/>
<path d="M288.3 409.696H164.549C162.856 409.696 161.23 409.04 160.008 407.866C158.787 406.691 158.065 405.09 157.993 403.395L154.278 318.027C154.238 317.139 154.378 316.252 154.69 315.42C155.001 314.588 155.478 313.828 156.09 313.186C156.703 312.543 157.439 312.032 158.254 311.682C159.07 311.333 159.947 311.153 160.834 311.152H291.773C292.658 311.153 293.535 311.333 294.349 311.681C295.164 312.029 295.9 312.539 296.513 313.179C297.126 313.82 297.603 314.578 297.917 315.408C298.23 316.238 298.373 317.123 298.337 318.01L294.873 403.377C294.806 405.078 294.084 406.687 292.858 407.865C291.632 409.044 289.999 409.7 288.3 409.696Z" fill="#E0E0E0"/>
<path d="M288.301 409.697C288.701 409.671 289.1 409.625 289.496 409.558C290.654 409.338 291.729 408.804 292.605 408.013C293.318 407.378 293.885 406.595 294.266 405.718C294.648 404.841 294.834 403.892 294.813 402.936C294.9 400.661 295.001 398.043 295.116 395.08C295.584 383.258 296.251 366.158 297.082 345.023C297.29 339.734 297.509 334.205 297.74 328.435C297.853 325.553 297.974 322.611 298.086 319.616C298.086 318.87 298.173 318.097 298.147 317.368C298.102 316.629 297.929 315.904 297.636 315.224C297.048 313.833 295.982 312.7 294.631 312.03C293.953 311.689 293.22 311.468 292.466 311.379C291.721 311.318 290.916 311.379 290.128 311.379H255.211H164.437H161.423C160.448 311.324 159.472 311.472 158.557 311.813C157.654 312.163 156.844 312.715 156.186 313.426C155.529 314.138 155.042 314.99 154.763 315.919C154.629 316.38 154.542 316.854 154.504 317.333C154.504 317.811 154.504 318.297 154.504 318.8C154.547 319.79 154.582 320.779 154.625 321.769L154.885 327.68C155.22 335.538 155.554 343.269 155.889 350.873C156.547 366.08 157.18 380.741 157.786 394.716C157.864 396.452 157.933 398.188 158.011 399.924C158.011 400.792 158.08 401.66 158.124 402.528C158.111 403.366 158.216 404.201 158.435 405.01C158.923 406.597 160.007 407.932 161.458 408.734C162.168 409.125 162.947 409.376 163.753 409.472C164.541 409.558 165.389 409.515 166.212 409.524H185.446H219.965L269.941 409.593L283.529 409.637H269.941L219.965 409.706H185.446H166.247C165.381 409.706 164.601 409.706 163.735 409.654C162.437 409.495 161.212 408.963 160.209 408.122C159.206 407.281 158.466 406.167 158.08 404.915C157.85 404.066 157.739 403.19 157.751 402.311C157.708 401.443 157.673 400.575 157.63 399.707C157.561 397.971 157.486 396.235 157.405 394.499C156.79 380.524 156.149 365.855 155.482 350.656C155.153 343.052 154.815 335.321 154.469 327.463C154.382 325.501 154.304 323.531 154.218 321.552L154.088 318.583C154.062 318.08 154.062 317.576 154.088 317.073C154.125 316.559 154.215 316.05 154.356 315.554C154.655 314.56 155.176 313.648 155.88 312.887C156.584 312.126 157.452 311.536 158.418 311.162C159.386 310.801 160.417 310.641 161.449 310.693H164.463H255.237H290.154C290.951 310.693 291.721 310.693 292.535 310.737C293.332 310.828 294.106 311.06 294.822 311.422C296.253 312.134 297.382 313.339 298 314.816C298.306 315.535 298.488 316.301 298.537 317.082C298.537 317.872 298.537 318.601 298.476 319.356C298.355 322.359 298.234 325.302 298.112 328.183C297.87 333.97 297.639 339.499 297.42 344.771C296.554 365.898 295.818 382.963 295.315 394.82C295.188 397.777 295.076 400.381 294.978 402.632C294.99 403.603 294.792 404.566 294.398 405.453C294.003 406.34 293.421 407.131 292.691 407.77C291.797 408.56 290.704 409.089 289.53 409.298C289.244 409.347 288.955 409.376 288.664 409.385L288.301 409.697Z" fill="#263238"/>
<path d="M233.075 361.957C233.075 363.301 232.678 364.615 231.932 365.732C231.187 366.85 230.128 367.721 228.889 368.236C227.65 368.75 226.287 368.885 224.972 368.622C223.656 368.36 222.448 367.713 221.5 366.762C220.551 365.812 219.906 364.601 219.644 363.283C219.382 361.964 219.517 360.598 220.03 359.356C220.543 358.114 221.412 357.052 222.527 356.306C223.642 355.559 224.953 355.16 226.294 355.16C228.092 355.162 229.816 355.879 231.087 357.153C232.358 358.427 233.073 360.155 233.075 361.957Z" fill="white"/>
<path d="M409.22 174.121H283.667L284.308 262.284H298.025V282.664L316.601 262.284H409.861L409.22 174.121Z" fill="white"/>
<path d="M409.22 174.13C409.22 174.13 409.22 174.651 409.22 175.684C409.22 176.717 409.22 178.288 409.272 180.284C409.272 184.338 409.367 190.292 409.445 197.931C409.575 213.251 409.765 235.307 410.008 262.276V262.458H409.826L316.644 262.501L316.8 262.432L298.233 282.821L297.843 283.246V262.284L298.069 262.51H284.083V262.284C283.866 230.533 283.658 200.604 283.468 174.13V173.922H283.667L374.528 174.026L400.153 174.078H406.916H408.648H409.22H406.873H400.066L374.398 174.13L283.667 174.234L283.875 174.026C284.074 200.5 284.299 230.446 284.533 262.18L284.308 261.963H298.25V282.569L297.861 282.422L316.436 262.137L316.497 262.067H316.644H409.904L409.731 262.25C409.575 235.342 409.445 213.303 409.358 198.018C409.315 190.362 409.289 184.39 409.272 180.328C409.272 178.297 409.272 176.752 409.272 175.693C409.272 174.634 409.22 174.13 409.22 174.13Z" fill="#263238"/>
<path d="M408.579 186.559C408.579 186.663 380.763 186.759 346.452 186.759C312.141 186.759 284.308 186.663 284.308 186.559C284.308 186.455 312.124 186.359 346.452 186.359C380.78 186.359 408.579 186.446 408.579 186.559Z" fill="#263238"/>
<path d="M289.461 183.444C290.379 183.444 291.123 182.628 291.123 181.622C291.123 180.615 290.379 179.799 289.461 179.799C288.542 179.799 287.798 180.615 287.798 181.622C287.798 182.628 288.542 183.444 289.461 183.444Z" fill="#E0E0E0"/>
<path d="M294.38 183.444C295.298 183.444 296.042 182.628 296.042 181.622C296.042 180.615 295.298 179.799 294.38 179.799C293.461 179.799 292.717 180.615 292.717 181.622C292.717 182.628 293.461 183.444 294.38 183.444Z" fill="#E0E0E0"/>
<path d="M299.29 183.444C300.208 183.444 300.952 182.628 300.952 181.622C300.952 180.615 300.208 179.799 299.29 179.799C298.371 179.799 297.627 180.615 297.627 181.622C297.627 182.628 298.371 183.444 299.29 183.444Z" fill="#E0E0E0"/>
<path d="M348.176 235.923C357.956 235.923 365.885 227.976 365.885 218.172C365.885 208.369 357.956 200.422 348.176 200.422C338.395 200.422 330.466 208.369 330.466 218.172C330.466 227.976 338.395 235.923 348.176 235.923Z" fill="#FF725E"/>
<path d="M343.906 223.363V212.895C343.906 212.778 343.936 212.663 343.994 212.562C344.053 212.461 344.136 212.376 344.237 212.317C344.338 212.259 344.452 212.227 344.569 212.227C344.686 212.226 344.8 212.256 344.902 212.314L354.237 217.591C354.34 217.649 354.425 217.734 354.485 217.836C354.544 217.938 354.575 218.054 354.575 218.173C354.575 218.291 354.544 218.407 354.485 218.509C354.425 218.611 354.34 218.696 354.237 218.754L344.893 223.962C344.791 224.021 344.675 224.052 344.557 224.051C344.439 224.05 344.324 224.017 344.223 223.956C344.122 223.894 344.039 223.807 343.983 223.703C343.928 223.599 343.901 223.481 343.906 223.363Z" fill="white"/>
<path d="M400.395 251.088H291.98V251.626H400.395V251.088Z" fill="#263238"/>
<path d="M325.771 250.496H291.894V251.937H325.771V250.496Z" fill="#FF725E"/>
<path d="M325.218 253.162C326.126 253.162 326.863 252.353 326.863 251.356C326.863 250.359 326.126 249.551 325.218 249.551C324.309 249.551 323.572 250.359 323.572 251.356C323.572 252.353 324.309 253.162 325.218 253.162Z" fill="#FF725E"/>
<path d="M408.267 189.945C414.867 189.945 420.218 184.582 420.218 177.967C420.218 171.351 414.867 165.988 408.267 165.988C401.667 165.988 396.316 171.351 396.316 177.967C396.316 184.582 401.667 189.945 408.267 189.945Z" fill="#FF725E"/>
<path d="M412.925 175.005L411.223 173.299L403.605 180.934L405.307 182.64L412.925 175.005Z" fill="white"/>
<path d="M405.304 173.28L403.602 174.986L411.219 182.622L412.922 180.915L405.304 173.28Z" fill="white"/>
<path d="M172.36 31.666V117.867H250.907L267.88 131.026V117.867V114.491V31.666H172.36Z" fill="white"/>
<path d="M172.36 31.6651H174.092H179.185L198.574 31.6131L267.854 31.5176H268.045V31.7085C268.045 59.3543 268.045 91.9564 268.045 126.729V131.529L267.681 131.251L250.768 118.049L250.907 118.092H172.36H172.17V117.901C172.213 91.8609 172.239 70.3345 172.265 55.2574C172.265 47.7405 172.265 41.8468 172.317 37.8279C172.317 35.8315 172.317 34.2952 172.317 33.2536C172.317 32.212 172.317 31.6999 172.317 31.6999C172.317 31.6999 172.317 32.2554 172.317 33.297C172.317 34.3386 172.317 35.901 172.317 37.9061C172.317 41.9336 172.317 47.8447 172.36 55.3702C172.36 70.4213 172.421 91.9477 172.456 117.866L172.274 117.684H250.82H250.898L250.959 117.727L267.932 130.878L267.568 131.06V126.72C267.568 91.9477 267.568 59.3457 267.568 31.6999L267.768 31.8995L198.592 31.7953L179.159 31.7519H174.023H172.698L172.36 31.6651Z" fill="#263238"/>
<path d="M267.352 48.0358C267.352 48.1747 246.291 48.2962 220.328 48.2962C194.366 48.2962 173.305 48.1747 173.305 48.0358C173.305 47.8969 194.357 47.7754 220.328 47.7754C246.3 47.7754 267.352 47.8882 267.352 48.0358Z" fill="#263238"/>
<path d="M183.021 41.6129C183.021 42.0848 182.881 42.546 182.619 42.9378C182.356 43.3296 181.984 43.6344 181.548 43.8134C181.112 43.9923 180.634 44.0373 180.172 43.9427C179.711 43.8481 179.289 43.6181 178.958 43.282C178.628 42.9459 178.404 42.5189 178.317 42.0553C178.229 41.5917 178.281 41.1124 178.466 40.6785C178.651 40.2446 178.961 39.8756 179.355 39.6185C179.75 39.3613 180.212 39.2277 180.683 39.2346C181.306 39.2437 181.901 39.4983 182.338 39.9434C182.776 40.3884 183.021 40.9881 183.021 41.6129Z" fill="#E0E0E0"/>
<path d="M190.018 41.6127C190.018 42.0835 189.879 42.5436 189.618 42.9349C189.357 43.3262 188.985 43.6311 188.551 43.8108C188.117 43.9906 187.64 44.0372 187.179 43.9447C186.719 43.8522 186.296 43.6248 185.964 43.2913C185.633 42.9579 185.408 42.5333 185.317 42.0714C185.226 41.6094 185.275 41.131 185.456 40.6965C185.636 40.2621 185.942 39.8913 186.333 39.631C186.725 39.3707 187.184 39.2327 187.654 39.2344C187.965 39.2344 188.273 39.296 188.561 39.4156C188.848 39.5352 189.109 39.7105 189.329 39.9315C189.548 40.1525 189.722 40.4147 189.841 40.7032C189.959 40.9917 190.019 41.3008 190.018 41.6127Z" fill="#E0E0E0"/>
<path d="M197.024 41.6127C197.024 42.0831 196.885 42.5429 196.624 42.934C196.363 43.3251 195.993 43.63 195.559 43.81C195.126 43.99 194.649 44.0371 194.188 43.9453C193.728 43.8535 193.305 43.627 192.973 43.2944C192.641 42.9618 192.415 42.538 192.324 42.0767C192.232 41.6153 192.279 41.1371 192.459 40.7026C192.639 40.268 192.943 39.8965 193.333 39.6352C193.723 39.3739 194.182 39.2344 194.651 39.2344C195.28 39.2344 195.884 39.4849 196.329 39.931C196.774 40.377 197.024 40.9819 197.024 41.6127Z" fill="#E0E0E0"/>
<path d="M250.258 79.3453C250.395 84.6196 248.968 89.8161 246.158 94.2772C243.347 98.7384 239.279 102.264 234.469 104.407C229.659 106.55 224.323 107.214 219.136 106.317C213.949 105.419 209.144 102.999 205.329 99.3627C201.515 95.7267 198.863 91.0383 197.708 85.8908C196.553 80.7433 196.947 75.368 198.842 70.4454C200.736 65.5227 204.044 61.274 208.349 58.2368C212.653 55.1996 217.76 53.5106 223.022 53.3834C230.068 53.2062 236.896 55.8419 242.004 60.7107C247.112 65.5795 250.081 72.2825 250.258 79.3453Z" fill="#FF725E"/>
<path d="M243.9 79.5008C244.005 83.521 242.918 87.482 240.777 90.8828C238.635 94.2836 235.535 96.9713 231.87 98.606C228.204 100.241 224.137 100.749 220.183 100.066C216.228 99.3834 212.565 97.5406 209.656 94.7708C206.748 92.0009 204.724 88.4286 203.841 84.5056C202.958 80.5827 203.256 76.4854 204.697 72.7322C206.138 68.9789 208.657 65.7383 211.936 63.4204C215.214 61.1025 219.105 59.8114 223.116 59.7104C225.778 59.6388 228.428 60.0943 230.914 61.0507C233.4 62.0071 235.674 63.4456 237.604 65.2839C239.535 67.1223 241.085 69.3243 242.165 71.7638C243.246 74.2034 243.835 76.8325 243.9 79.5008Z" fill="#FF725E"/>
<g opacity="0.3">
<path d="M243.9 78.8582C243.616 78.0715 243.416 77.2568 243.303 76.4278C242.795 74.255 241.957 72.1735 240.817 70.2563C240.032 68.9496 239.102 67.7354 238.046 66.6367C236.837 65.376 235.469 64.2788 233.976 63.373C233.176 62.8814 232.339 62.4519 231.473 62.0884C230.574 61.6952 229.644 61.3759 228.693 61.1336C227.716 60.8752 226.72 60.6924 225.714 60.5868C224.675 60.4896 223.631 60.4664 222.588 60.5173C221.543 60.5807 220.504 60.7199 219.479 60.934C217.526 61.3554 215.648 62.0724 213.911 63.0606C213.092 63.5216 212.308 64.0409 211.564 64.6143C210.184 65.6833 208.947 66.9261 207.883 68.312C206.959 69.5243 206.169 70.834 205.528 72.218C204.602 74.2501 203.998 76.4141 203.735 78.6325C203.715 79.466 203.607 80.2951 203.415 81.1063C203.147 80.296 203.053 79.4383 203.138 78.5891C203.17 76.2545 203.637 73.9466 204.515 71.784C205.123 70.2827 205.905 68.8581 206.844 67.5394C207.938 66.0258 209.228 64.6655 210.681 63.4946C211.465 62.8508 212.299 62.2704 213.175 61.7586C214.084 61.2215 215.033 60.7572 216.015 60.3698C217.033 59.9667 218.082 59.6446 219.15 59.4063C220.254 59.1687 221.374 59.0149 222.502 58.9462C223.625 58.8923 224.751 58.9213 225.87 59.033C226.958 59.1493 228.036 59.3525 229.092 59.6406C230.113 59.9348 231.109 60.3092 232.071 60.7604C232.997 61.1645 233.889 61.6434 234.738 62.1926C237.694 64.0668 240.121 66.6698 241.787 69.7528C242.889 71.7943 243.605 74.0218 243.9 76.3236C244.08 77.1588 244.08 78.0229 243.9 78.8582Z" fill="black"/>
</g>
<g opacity="0.3">
<path d="M226.243 92.0513L226.373 95.584L223.221 95.7056L223.091 92.2336C220.287 92.2525 217.535 91.4794 215.15 90.0028L216.735 86.0881C218.594 87.2825 220.73 87.9733 222.935 88.0932L222.736 82.8158C219.203 82.104 215.245 81.0798 215.072 76.5662C214.951 73.2157 217.263 70.2471 222.216 69.492L222.087 66.02L225.239 65.8984L225.369 69.3704C227.627 69.4113 229.844 69.9884 231.838 71.0544L230.417 75.0038C228.902 74.1966 227.242 73.7008 225.533 73.5455L225.732 78.9098C229.266 79.5955 233.154 80.6458 233.327 85.0726C233.448 88.3276 231.162 91.2614 226.243 92.0513ZM222.554 78.1633L222.381 73.6844C220.727 74.1271 220.103 75.0645 220.138 76.1061C220.173 77.1477 221.151 77.8248 222.554 78.2067V78.1633ZM228.27 85.5673C228.226 84.465 227.291 83.9008 225.914 83.4754L226.079 87.8154C227.646 87.4682 228.313 86.6263 228.313 85.6107L228.27 85.5673Z" fill="black"/>
</g>
<path d="M244.299 79.1109C244.299 79.1109 244.299 78.998 244.299 78.7724C244.299 78.5467 244.247 78.2082 244.204 77.7915L244.135 77.0711C244.135 76.8107 244.039 76.5242 243.979 76.2031C243.87 75.4861 243.707 74.7782 243.494 74.0852C242.96 72.1698 242.139 70.3466 241.06 68.6775C239.498 66.2259 237.437 64.1323 235.012 62.5334C232.587 60.9345 229.853 59.8663 226.988 59.3986C223.378 58.8254 219.681 59.2238 216.275 60.553C215.353 60.9073 214.456 61.3249 213.591 61.803C212.732 62.299 211.911 62.856 211.131 63.4695C210.328 64.0919 209.567 64.7676 208.854 65.492C208.155 66.2584 207.505 67.0672 206.905 67.9137C205.676 69.6521 204.735 71.5777 204.117 73.6164C202.809 77.8371 202.919 82.3713 204.429 86.5236C205.145 88.5299 206.177 90.4083 207.486 92.0875C208.122 92.904 208.81 93.6782 209.547 94.405C210.294 95.0928 211.084 95.7335 211.911 96.3233C213.511 97.4735 215.278 98.3694 217.15 98.9794C220.616 100.142 224.327 100.364 227.906 99.6217C231.021 98.969 233.94 97.5924 236.427 95.6029C238.486 93.9697 240.214 91.9575 241.519 89.6744C242.514 87.9683 243.247 86.122 243.693 84.1974C243.873 83.4932 244 82.7766 244.074 82.0534C244.117 81.7409 244.169 81.4545 244.195 81.1854C244.221 80.9163 244.195 80.6733 244.195 80.4563C244.195 80.0483 244.195 79.7185 244.247 79.4754C244.242 79.3656 244.242 79.2555 244.247 79.1456C244.26 79.2552 244.26 79.3659 244.247 79.4754V80.465C244.247 80.682 244.247 80.925 244.247 81.1941C244.247 81.4632 244.187 81.7496 244.152 82.0621C244.122 82.7791 244.038 83.4929 243.901 84.1974C243.484 86.1642 242.768 88.0554 241.779 89.8046C239.41 94.0308 235.645 97.2966 231.132 99.0395C226.619 100.782 221.641 100.893 217.055 99.3526C216.113 99.0402 215.193 98.6662 214.301 98.2329C213.397 97.7713 212.529 97.2433 211.703 96.6532C210.852 96.0598 210.042 95.4102 209.278 94.7088C208.525 93.9666 207.822 93.1749 207.174 92.3392C205.827 90.6275 204.768 88.7072 204.039 86.6538C202.495 82.4091 202.385 77.7734 203.727 73.4602C204.357 71.3759 205.323 69.4086 206.585 67.6359C207.193 66.7707 207.859 65.9472 208.577 65.1708C209.306 64.4369 210.082 63.7498 210.898 63.1136C211.697 62.4784 212.539 61.8984 213.418 61.3776C214.286 60.8994 215.186 60.4817 216.111 60.1277C219.578 58.8015 223.335 58.4211 226.997 59.0254C229.91 59.5115 232.687 60.6145 235.142 62.2609C237.597 63.9073 239.674 66.0592 241.234 68.5734C242.306 70.2718 243.112 72.1247 243.624 74.0678C243.824 74.771 243.974 75.4874 244.074 76.2118C244.117 76.5242 244.178 76.8107 244.204 77.0798C244.23 77.3488 244.204 77.5832 244.204 77.8002C244.204 78.2168 244.221 78.5467 244.256 78.7897C244.28 78.8952 244.295 79.0027 244.299 79.1109Z" fill="#263238"/>
<path d="M276.477 40.8112C281.516 35.7604 281.516 27.5716 276.477 22.5209C271.438 17.4701 263.268 17.4701 258.229 22.5209C253.189 27.5716 253.189 35.7604 258.229 40.8112C263.268 45.8619 271.438 45.8619 276.477 40.8112Z" fill="#FF725E"/>
<path d="M272.38 28.4683L270.543 26.627L262.319 34.8699L264.156 36.7112L272.38 28.4683Z" fill="white"/>
<path d="M264.153 26.6177L262.316 28.459L270.54 36.7019L272.377 34.8606L264.153 26.6177Z" fill="white"/>
<path d="M148.251 239.803H148.164V135.131H17.8311V240.089H131.277L148.251 257.111V239.803Z" fill="white"/>
<path d="M148.251 239.803C148.251 239.803 148.251 240.176 148.251 240.922C148.251 241.669 148.251 242.78 148.251 244.238C148.251 247.172 148.251 251.503 148.251 257.111V257.267L148.138 257.154L131.139 240.159H131.208L17.7622 240.228H17.5977V240.063C17.5977 211.558 17.5977 180.241 17.5977 147.439V134.957H17.7709H148.113H148.26V135.096C148.26 166.743 148.208 192.844 148.199 211.072C148.199 220.186 148.199 227.33 148.156 232.208C148.156 234.647 148.156 236.548 148.156 237.798C148.156 238.431 148.156 238.917 148.156 239.247C148.156 239.577 148.156 239.759 148.156 239.768C148.147 239.595 148.147 239.421 148.156 239.247C148.156 238.917 148.156 238.431 148.156 237.798C148.156 236.522 148.156 234.647 148.156 232.208C148.156 227.33 148.156 220.186 148.113 211.072C148.113 192.844 148.113 166.743 148.052 135.096L148.199 135.243H17.8575L18.0393 135.061V147.395C18.0393 180.197 18.0393 211.515 18.0393 240.02L17.8661 239.855L131.312 239.924L148.268 256.963L148.156 257.015C148.234 245.966 148.251 240.271 148.251 239.803Z" fill="#263238"/>
<path d="M148.165 146.805C148.165 146.909 118.989 146.988 82.9984 146.988C47.0074 146.988 17.8232 146.909 17.8232 146.805C17.8232 146.701 46.9988 146.623 82.9984 146.623C118.998 146.623 148.165 146.692 148.165 146.805Z" fill="#263238"/>
<path d="M25.3914 141.137C25.3931 141.464 25.2978 141.784 25.1177 142.056C24.9375 142.329 24.6807 142.541 24.3796 142.667C24.0786 142.793 23.7471 142.827 23.4271 142.763C23.1071 142.7 22.8131 142.543 22.5825 142.311C22.3519 142.08 22.195 141.786 22.1318 141.465C22.0686 141.144 22.1019 140.812 22.2275 140.51C22.3531 140.208 22.5653 139.951 22.8372 139.77C23.1092 139.59 23.4285 139.494 23.7546 139.496C24.188 139.498 24.603 139.672 24.9095 139.979C25.2159 140.286 25.3891 140.702 25.3914 141.137Z" fill="#E0E0E0"/>
<path d="M30.2498 141.137C30.2515 141.463 30.1564 141.783 29.9767 142.055C29.7969 142.328 29.5406 142.54 29.2401 142.666C28.9396 142.793 28.6084 142.826 28.2887 142.764C27.969 142.701 27.675 142.545 27.444 142.315C27.213 142.084 27.0554 141.79 26.9912 141.47C26.927 141.15 26.9591 140.818 27.0834 140.516C27.2077 140.214 27.4186 139.956 27.6893 139.775C27.9601 139.593 28.2786 139.496 28.6044 139.496C29.0393 139.496 29.4565 139.669 29.7648 139.976C30.0731 140.283 30.2475 140.701 30.2498 141.137Z" fill="#E0E0E0"/>
<path d="M33.4628 142.787C34.3715 142.787 35.1082 142.048 35.1082 141.137C35.1082 140.227 34.3715 139.488 33.4628 139.488C32.5541 139.488 31.8174 140.227 31.8174 141.137C31.8174 142.048 32.5541 142.787 33.4628 142.787Z" fill="#E0E0E0"/>
<path d="M148.251 150.789C155.061 150.789 160.583 145.255 160.583 138.429C160.583 131.602 155.061 126.068 148.251 126.068C141.44 126.068 135.919 131.602 135.919 138.429C135.919 145.255 141.44 150.789 148.251 150.789Z" fill="#FF725E"/>
<path d="M153.065 135.363L151.313 133.607L143.451 141.488L145.202 143.244L153.065 135.363Z" fill="white"/>
<path d="M145.193 133.612L143.441 135.367L151.304 143.248L153.055 141.493L145.193 133.612Z" fill="white"/>
<path d="M78.1571 149.262L87.7957 159.226L101.279 156.067L104.016 169.668L117.058 174.321L112.026 187.254L120.487 198.234L109.281 206.376L110.476 220.203L96.6549 220.985L90.2032 233.267L78.1571 226.427L66.1024 233.267L59.6507 220.985L45.8293 220.203L47.0244 206.376L35.8184 198.234L44.2878 187.254L39.2477 174.321L52.2897 169.668L55.0262 156.067L68.5099 159.226L78.1571 149.262Z" fill="#FF725E"/>
<g opacity="0.3">
<path d="M72.8569 180.302C72.8569 177.481 71.8783 176.717 70.3108 176.717C68.7434 176.717 67.7648 177.585 67.7648 179.807V181.821H63.123V180.085C63.123 175.068 65.6258 172.203 70.4494 172.203C75.273 172.203 77.7671 175.068 77.7671 180.085V180.892C77.7671 184.251 76.7019 186.352 74.3031 187.341C76.7626 188.409 77.7671 190.735 77.7671 193.92V196.377C77.7671 201.394 75.273 204.258 70.4494 204.258C65.6258 204.258 63.123 201.394 63.123 196.377V193.773H67.7648V196.681C67.7648 198.92 68.752 199.771 70.3108 199.771C71.8696 199.771 72.8569 199.016 72.8569 196.238V193.773C72.8569 190.865 71.8783 189.789 69.644 189.789H67.99V185.31H69.9125C71.7397 185.31 72.8569 184.511 72.8569 182.003V180.302Z" fill="black"/>
<path d="M80.6768 180.12C80.6768 175.103 83.2748 172.238 88.133 172.238C92.9913 172.238 95.5893 175.103 95.5893 180.12V196.412C95.5893 201.429 92.9913 204.294 88.133 204.294C83.2748 204.294 80.6768 201.429 80.6768 196.412V180.12ZM85.587 196.725C85.587 198.964 86.5742 199.815 88.133 199.815C89.6918 199.815 90.6791 198.947 90.6791 196.725V179.807C90.6791 177.568 89.7005 176.717 88.133 176.717C86.5656 176.717 85.587 177.585 85.587 179.807V196.725Z" fill="black"/>
</g>
<g opacity="0.3">
<path d="M96.8972 172.351C96.8663 172.162 96.8768 171.969 96.9279 171.785C96.979 171.6 97.0694 171.429 97.193 171.284C97.3166 171.138 97.4703 171.021 97.6435 170.94C97.8168 170.86 98.0053 170.818 98.1962 170.818C98.3871 170.818 98.5757 170.86 98.7489 170.94C98.9221 171.021 99.0758 171.138 99.1994 171.284C99.323 171.429 99.4134 171.6 99.4645 171.785C99.5156 171.969 99.5261 172.162 99.4952 172.351V175.198C99.5261 175.387 99.5156 175.58 99.4645 175.764C99.4134 175.949 99.323 176.12 99.1994 176.266C99.0758 176.411 98.9221 176.529 98.7489 176.609C98.5757 176.689 98.3871 176.731 98.1962 176.731C98.0053 176.731 97.8168 176.689 97.6435 176.609C97.4703 176.529 97.3166 176.411 97.193 176.266C97.0694 176.12 96.979 175.949 96.9279 175.764C96.8768 175.58 96.8663 175.387 96.8972 175.198V172.351ZM97.7632 175.268C97.7632 175.649 97.9191 175.806 98.2049 175.806C98.4906 175.806 98.6552 175.649 98.6552 175.268V172.282C98.6552 171.9 98.482 171.735 98.2049 171.735C97.9277 171.735 97.7632 171.9 97.7632 172.282V175.268ZM101.626 171.023H102.431L98.9669 179.703H98.1616L101.626 171.023ZM101.193 175.528C101.162 175.339 101.172 175.146 101.223 174.962C101.274 174.777 101.365 174.606 101.488 174.46C101.612 174.315 101.766 174.197 101.939 174.117C102.112 174.037 102.301 173.995 102.492 173.995C102.682 173.995 102.871 174.037 103.044 174.117C103.217 174.197 103.371 174.315 103.495 174.46C103.618 174.606 103.709 174.777 103.76 174.962C103.811 175.146 103.821 175.339 103.791 175.528V178.375C103.821 178.564 103.811 178.757 103.76 178.941C103.709 179.126 103.618 179.297 103.495 179.442C103.371 179.588 103.217 179.705 103.044 179.786C102.871 179.866 102.682 179.908 102.492 179.908C102.301 179.908 102.112 179.866 101.939 179.786C101.766 179.705 101.612 179.588 101.488 179.442C101.365 179.297 101.274 179.126 101.223 178.941C101.172 178.757 101.162 178.564 101.193 178.375V175.528ZM102.059 178.444C102.059 178.826 102.214 178.983 102.5 178.983C102.786 178.983 102.951 178.826 102.951 178.444V175.458C102.951 175.077 102.777 174.92 102.5 174.92C102.223 174.92 102.059 175.077 102.059 175.458V178.444Z" fill="black"/>
</g>
<g opacity="0.3">
<path d="M69.2715 205.863C71.22 205.863 72.2246 207.035 72.2246 209.084V209.492H70.328V208.953C70.328 208.085 69.9643 207.695 69.3235 207.695C68.6826 207.695 68.3189 208.042 68.3189 208.953C68.3189 211.557 72.2419 212.087 72.2419 215.741C72.2419 217.79 71.22 218.961 69.2542 218.961C67.2884 218.961 66.2578 217.79 66.2578 215.741V214.96H68.1543V215.828C68.1543 216.739 68.5614 217.069 69.1936 217.069C69.8257 217.069 70.2414 216.739 70.2414 215.828C70.2414 213.224 66.3098 212.703 66.3098 209.04C66.3098 207.035 67.3143 205.863 69.2715 205.863Z" fill="black"/>
<path d="M79.8972 218.815H77.8707L77.5243 216.497H75.0302L74.6838 218.815H72.8652L74.909 206.012H77.8534L79.8972 218.815ZM75.316 214.752H77.2472L76.2773 208.321L75.316 214.752Z" fill="black"/>
<path d="M80.8242 206.012H82.8247V217.001H86.1328V218.832H80.8242V206.012Z" fill="black"/>
<path d="M89.0248 211.411H91.7786V213.233H89.0248V217.001H92.4888V218.832H87.0156V206.012H92.4888V207.843H89.0248V211.411Z" fill="black"/>
</g>
<path d="M71.0296 181.203C71.0296 178.382 70.0424 177.618 68.4836 177.618C66.9248 177.618 65.9375 178.486 65.9375 180.708V182.722H61.2871V180.986C61.2871 175.978 63.7898 173.113 68.6135 173.113C73.4371 173.113 75.9398 175.978 75.9398 180.986V181.793C75.9398 185.152 74.866 187.253 72.4758 188.243C74.9353 189.319 75.9398 191.645 75.9398 194.822V197.287C75.9398 202.295 73.4371 205.16 68.6135 205.16C63.7898 205.16 61.2871 202.295 61.2871 197.287V194.683H65.9375V197.591C65.9375 199.83 66.9161 200.681 68.4836 200.681C70.051 200.681 71.0296 199.917 71.0296 197.14V194.683C71.0296 191.767 70.0424 190.699 67.8081 190.699H66.1627V186.22H68.1025C69.9385 186.22 71.0556 185.413 71.0556 182.904L71.0296 181.203Z" fill="white"/>
<path d="M78.8408 181.021C78.8408 176.013 81.4388 173.148 86.3057 173.148C91.1727 173.148 93.762 176.013 93.762 181.021V197.322C93.762 202.331 91.164 205.195 86.3057 205.195C81.4475 205.195 78.8408 202.331 78.8408 197.322V181.021ZM83.7597 197.635C83.7597 199.874 84.7383 200.725 86.3057 200.725C87.8732 200.725 88.8518 199.857 88.8518 197.635V180.709C88.8518 178.469 87.8645 177.619 86.3057 177.619C84.7469 177.619 83.7597 178.487 83.7597 180.709V197.635Z" fill="white"/>
<path d="M95.0613 172.351C95.0304 172.162 95.0409 171.969 95.092 171.785C95.143 171.6 95.2335 171.429 95.3571 171.284C95.4806 171.138 95.6344 171.021 95.8076 170.94C95.9808 170.86 96.1694 170.818 96.3603 170.818C96.5511 170.818 96.7397 170.86 96.9129 170.94C97.0862 171.021 97.2399 171.138 97.3635 171.284C97.487 171.429 97.5775 171.6 97.6286 171.785C97.6797 171.969 97.6901 172.162 97.6593 172.351V175.198C97.6901 175.387 97.6797 175.58 97.6286 175.764C97.5775 175.949 97.487 176.12 97.3635 176.266C97.2399 176.411 97.0862 176.529 96.9129 176.609C96.7397 176.689 96.5511 176.731 96.3603 176.731C96.1694 176.731 95.9808 176.689 95.8076 176.609C95.6344 176.529 95.4806 176.411 95.3571 176.266C95.2335 176.12 95.143 175.949 95.092 175.764C95.0409 175.58 95.0304 175.387 95.0613 175.198V172.351ZM95.9273 175.268C95.9273 175.649 96.0831 175.806 96.3689 175.806C96.6547 175.806 96.8192 175.649 96.8192 175.268V172.282C96.8192 171.9 96.646 171.735 96.3689 171.735C96.0918 171.735 95.9273 171.9 95.9273 172.282V175.268ZM99.7896 171.023H100.595L97.131 179.703H96.3256L99.7896 171.023ZM99.3566 175.528C99.3258 175.339 99.3362 175.146 99.3873 174.962C99.4384 174.777 99.5288 174.606 99.6524 174.46C99.776 174.315 99.9297 174.197 100.103 174.117C100.276 174.037 100.465 173.995 100.656 173.995C100.846 173.995 101.035 174.037 101.208 174.117C101.382 174.197 101.535 174.315 101.659 174.46C101.782 174.606 101.873 174.777 101.924 174.962C101.975 175.146 101.985 175.339 101.955 175.528V178.375C101.985 178.564 101.975 178.757 101.924 178.941C101.873 179.126 101.782 179.297 101.659 179.442C101.535 179.588 101.382 179.705 101.208 179.786C101.035 179.866 100.846 179.908 100.656 179.908C100.465 179.908 100.276 179.866 100.103 179.786C99.9297 179.705 99.776 179.588 99.6524 179.442C99.5288 179.297 99.4384 179.126 99.3873 178.941C99.3362 178.757 99.3258 178.564 99.3566 178.375V175.528ZM100.223 178.444C100.223 178.826 100.379 178.983 100.664 178.983C100.95 178.983 101.115 178.826 101.115 178.444V175.458C101.115 175.077 100.941 174.92 100.664 174.92C100.387 174.92 100.223 175.077 100.223 175.458V178.444Z" fill="white"/>
<path d="M67.4356 205.863C69.3841 205.863 70.3886 207.035 70.3886 209.084V209.492H68.4921V208.953C68.4921 208.085 68.1284 207.695 67.4875 207.695C66.8467 207.695 66.483 208.042 66.483 208.953C66.483 211.557 70.4059 212.087 70.4059 215.741C70.4059 217.79 69.3841 218.961 67.4182 218.961C65.4524 218.961 64.4219 217.79 64.4219 215.741V214.96H66.3184V215.828C66.3184 216.739 66.7254 217.069 67.3663 217.069C68.0071 217.069 68.4055 216.739 68.4055 215.828C68.4055 213.224 64.4825 212.703 64.4825 209.04C64.4825 207.035 65.5044 205.863 67.4356 205.863Z" fill="white"/>
<path d="M78.0622 218.815H76.0358L75.6894 216.497H73.2213L72.8749 218.815H71.0303L73.074 206.012H76.0184L78.0622 218.815ZM73.4811 214.752H75.4122L74.4423 208.321L73.4811 214.752Z" fill="white"/>
<path d="M78.9883 206.012H80.9974V217.001H84.3055V218.832H78.9883V206.012Z" fill="white"/>
<path d="M87.1551 211.411H89.909V213.233H87.1551V217.001H90.6191V218.832H85.1807V206.012H90.6191V207.843H87.1551V211.411Z" fill="white"/>
<path d="M104.085 156.726L104.648 155.441C105.25 155.83 105.949 156.041 106.666 156.049C107.384 156.049 107.662 155.849 107.662 155.554C107.662 154.582 104.198 155.285 104.198 153.011C104.198 151.926 105.064 151.032 106.899 151.032C107.671 151.018 108.434 151.201 109.116 151.561L108.588 152.846C108.059 152.548 107.463 152.387 106.856 152.377C106.137 152.377 105.869 152.62 105.869 152.924C105.869 153.862 109.333 153.167 109.333 155.415C109.333 156.483 108.467 157.394 106.631 157.394C105.737 157.413 104.855 157.181 104.085 156.726Z" fill="#E0E0E0"/>
<path d="M112.269 155.615L111.775 156.11V157.273H110.121V150.789H111.775V154.183L113.507 152.534H115.464L113.507 154.565L115.629 157.273H113.628L112.269 155.615Z" fill="#E0E0E0"/>
<path d="M115.862 151.127C115.869 151.002 115.9 150.88 115.955 150.768C116.011 150.656 116.088 150.556 116.183 150.475C116.277 150.394 116.388 150.333 116.507 150.296C116.626 150.258 116.751 150.246 116.876 150.259C117 150.239 117.128 150.246 117.25 150.281C117.371 150.315 117.484 150.376 117.58 150.459C117.675 150.541 117.752 150.644 117.804 150.76C117.856 150.875 117.882 151.001 117.88 151.127C117.857 151.379 117.74 151.613 117.554 151.784C117.367 151.955 117.124 152.049 116.871 152.049C116.619 152.049 116.375 151.955 116.189 151.784C116.002 151.613 115.886 151.379 115.862 151.127ZM116.044 152.533H117.698V157.273H116.044V152.533Z" fill="#E0E0E0"/>
<path d="M124.064 154.902C124.085 155.218 124.041 155.535 123.934 155.834C123.828 156.132 123.66 156.404 123.443 156.634C123.226 156.864 122.963 157.047 122.672 157.17C122.381 157.293 122.067 157.354 121.752 157.35C121.509 157.362 121.266 157.324 121.038 157.239C120.811 157.154 120.602 157.024 120.427 156.855V158.965H118.772V152.533H120.349V153.001C120.526 152.81 120.745 152.662 120.988 152.567C121.231 152.473 121.492 152.434 121.752 152.455C122.067 152.45 122.381 152.512 122.672 152.635C122.963 152.758 123.226 152.94 123.443 153.17C123.66 153.4 123.828 153.673 123.934 153.971C124.041 154.269 124.085 154.586 124.064 154.902ZM122.392 154.902C122.369 154.71 122.291 154.528 122.167 154.379C122.043 154.23 121.878 154.12 121.694 154.062C121.509 154.005 121.311 154.002 121.125 154.054C120.938 154.106 120.771 154.211 120.643 154.357C120.514 154.502 120.431 154.681 120.402 154.873C120.373 155.065 120.4 155.261 120.479 155.438C120.559 155.615 120.688 155.765 120.851 155.87C121.013 155.975 121.203 156.031 121.396 156.031C121.538 156.031 121.679 156 121.808 155.942C121.938 155.883 122.053 155.798 122.148 155.691C122.242 155.584 122.312 155.459 122.354 155.323C122.397 155.187 122.409 155.044 122.392 154.902Z" fill="#E0E0E0"/>
<path d="M131.546 156.085H128.948L128.463 157.274H126.731L129.425 151.154H131.157L133.867 157.274H132.066L131.546 156.085ZM131.035 154.809L130.256 152.847L129.468 154.809H131.035Z" fill="#E0E0E0"/>
<path d="M139.21 150.789V157.273H137.634V156.804C137.459 156.993 137.243 157.14 137.003 157.235C136.763 157.329 136.506 157.369 136.249 157.351C135.601 157.351 134.98 157.093 134.522 156.634C134.064 156.175 133.807 155.553 133.807 154.903C133.807 154.254 134.064 153.632 134.522 153.173C134.98 152.714 135.601 152.456 136.249 152.456C136.488 152.441 136.728 152.477 136.954 152.561C137.179 152.645 137.384 152.774 137.556 152.942V150.789H139.21ZM137.582 154.895C137.557 154.702 137.477 154.521 137.352 154.373C137.227 154.226 137.062 154.117 136.877 154.061C136.691 154.005 136.494 154.004 136.308 154.057C136.122 154.111 135.956 154.218 135.828 154.364C135.701 154.51 135.619 154.69 135.592 154.882C135.564 155.074 135.593 155.27 135.674 155.446C135.755 155.622 135.885 155.771 136.048 155.875C136.212 155.979 136.402 156.033 136.595 156.032C136.737 156.031 136.878 155.999 137.007 155.939C137.136 155.88 137.251 155.793 137.344 155.686C137.437 155.578 137.507 155.452 137.548 155.316C137.589 155.18 137.601 155.036 137.582 154.895Z" fill="#E0E0E0"/>
<path d="M139.903 156.865L140.397 155.728C140.899 156.014 141.466 156.163 142.042 156.162C142.605 156.162 142.787 156.041 142.787 155.841C142.787 155.199 139.999 155.928 139.999 154.027C139.999 153.159 140.813 152.456 142.302 152.456C142.945 152.443 143.583 152.58 144.164 152.855L143.67 153.984C143.254 153.754 142.786 153.635 142.311 153.636C141.748 153.636 141.549 153.793 141.549 153.966C141.549 154.626 144.329 153.914 144.329 155.798C144.329 156.666 143.532 157.351 141.99 157.351C141.265 157.367 140.547 157.2 139.903 156.865Z" fill="#E0E0E0"/>
</svg>
