<svg width="181" height="100" viewBox="0 0 181 100" fill="none" xmlns="http://www.w3.org/2000/svg">
<g clip-path="url(#clip0_1189_5558)">
<path fill-rule="evenodd" clip-rule="evenodd" d="M29.9971 86.1373L32.9042 94.224C38.3854 95.0009 43.6012 95.1456 49.0293 94.224L51.9364 86.1373L54.5419 78.8926C50.2766 79.0301 45.7121 79.1073 40.9667 79.1073C36.2214 79.1073 31.6569 79.0325 27.3916 78.8926L29.9971 86.1373Z" fill="url(#paint0_linear_1189_5558)"/>
<path fill-rule="evenodd" clip-rule="evenodd" d="M40.9667 79.398C48.4431 79.398 54.5419 79.1712 54.5419 78.8914C54.5419 78.6115 48.4431 78.3848 40.9667 78.3848C33.4904 78.3848 27.3916 78.6115 27.3916 78.8914C27.3916 79.1712 33.4904 79.398 40.9667 79.398Z" fill="#231F20"/>
<path fill-rule="evenodd" clip-rule="evenodd" d="M24.5974 69.1047L27.3911 76.8729C36.4187 77.2034 45.5018 77.2034 54.539 76.8729L57.3327 69.1047L60.0829 61.457C54.3315 61.7369 47.8395 61.8937 40.9663 61.8937C34.0955 61.8937 27.601 61.7369 21.8496 61.457L24.5974 69.1047Z" fill="url(#paint1_linear_1189_5558)"/>
<path fill-rule="evenodd" clip-rule="evenodd" d="M40.9663 62.2849C51.4944 62.2849 60.0829 61.9134 60.0829 61.4598C60.0829 61.0063 51.4944 60.6348 40.9663 60.6348C30.4381 60.6348 21.8496 61.0063 21.8496 61.4598C21.8496 61.9134 30.4357 62.2849 40.9663 62.2849Z" fill="#778C52"/>
<path fill-rule="evenodd" clip-rule="evenodd" d="M19.2302 52.396L21.8477 59.6793C27.5991 59.9592 34.0912 60.116 40.9644 60.116C47.8352 60.116 54.3296 59.9592 60.081 59.6793L62.701 52.396L65.6612 44.1621C58.689 44.6422 50.1681 44.9245 40.9668 44.9245C31.7655 44.9245 23.2446 44.6422 16.2725 44.1621L19.2302 52.396Z" fill="url(#paint2_linear_1189_5558)"/>
<path fill-rule="evenodd" clip-rule="evenodd" d="M40.9668 45.442C54.5685 45.442 65.6612 44.8678 65.6612 44.1634C65.6612 43.4589 54.5685 42.8848 40.9668 42.8848C27.3651 42.8848 16.2725 43.4589 16.2725 44.1634C16.27 44.8678 27.3651 45.442 40.9668 45.442Z" fill="#979746"/>
<path fill-rule="evenodd" clip-rule="evenodd" d="M13.8985 34.8597L16.27 41.4555C23.2421 41.9356 31.7655 42.2178 40.9643 42.2178C50.1656 42.2178 58.6865 41.9356 65.6587 41.4555L68.0302 34.8597L71.287 25.8008C63.5477 26.5583 52.8193 27.0263 40.9643 27.0263C29.1093 27.0263 18.3809 26.5583 10.6416 25.8008L13.8985 34.8597Z" fill="url(#paint3_linear_1189_5558)"/>
<path d="M40.9663 27.4068C57.713 27.4068 71.289 26.6875 71.289 25.8001C71.289 24.9127 57.713 24.1934 40.9663 24.1934C24.2195 24.1934 10.6436 24.9127 10.6436 25.8001C10.6436 26.6875 24.2195 27.4068 40.9663 27.4068Z" fill="#B5A13E"/>
<path fill-rule="evenodd" clip-rule="evenodd" d="M8.61788 16.0734L10.642 21.7066C18.3813 22.4642 29.1097 22.9322 40.9647 22.9322C52.8197 22.9322 63.5481 22.4642 71.2874 21.7066L73.3115 16.0734L76.9978 5.82031C69.4105 6.97349 56.1079 7.74066 40.9623 7.74066C25.819 7.74066 12.5141 6.9759 4.92676 5.82031L8.61788 16.0734Z" fill="url(#paint4_linear_1189_5558)"/>
<path fill-rule="evenodd" clip-rule="evenodd" d="M40.9662 8.08444C60.8138 8.08444 77.0017 7.06878 77.0017 5.82152C77.0017 4.57426 60.8138 3.55859 40.9662 3.55859C21.1185 3.55859 4.93066 4.57426 4.93066 5.82152C4.93066 7.06637 21.1185 8.08444 40.9662 8.08444Z" fill="#BE1E2D"/>
<path fill-rule="evenodd" clip-rule="evenodd" d="M168.815 19.9201H100.259C97.2481 19.9201 94.8066 17.4787 94.8066 14.4679C94.8066 11.4571 97.2481 9.01562 100.259 9.01562H168.815C171.826 9.01562 174.267 11.4571 174.267 14.4679C174.265 17.4787 171.826 19.9201 168.815 19.9201Z" fill="#BE1E2D" stroke="white" stroke-width="0.72375" stroke-miterlimit="10"/>
<path d="M121.593 15.7188L123.011 11.8496H123.642L125.059 15.7188H124.587L124.237 14.7634H122.416L122.071 15.7188H121.593ZM122.533 14.4025H124.12L123.642 13.1075L123.345 12.2742H123.318L123.016 13.1075L122.533 14.4025ZM126.605 15.7665C125.798 15.7665 125.267 15.1933 125.267 14.3282C125.267 13.4684 125.798 12.8899 126.621 12.8899C127.279 12.8899 127.762 13.2826 127.81 13.8664H127.396C127.321 13.4684 127.008 13.2561 126.61 13.2561C126.037 13.2561 125.703 13.6913 125.703 14.3335C125.703 15.0075 126.058 15.4003 126.605 15.4003C127.051 15.4003 127.359 15.1349 127.406 14.7422H127.826C127.773 15.3631 127.279 15.7665 126.605 15.7665ZM130.382 16.6051V15.1349H130.355C130.217 15.5118 129.857 15.7665 129.368 15.7665C128.684 15.7665 128.222 15.2411 128.222 14.3229C128.222 13.4047 128.684 12.8845 129.368 12.8845C129.857 12.8845 130.217 13.134 130.355 13.5108H130.382L130.398 12.9323H130.812V16.6051H130.382ZM129.512 15.4056C130.069 15.4056 130.377 14.9598 130.377 14.4927V14.153C130.377 13.686 130.069 13.2401 129.512 13.2401C129.002 13.2401 128.662 13.617 128.662 14.3229C128.662 15.0235 129.002 15.4056 129.512 15.4056ZM132.598 15.7665C131.972 15.7665 131.59 15.3897 131.59 14.6413V12.9323H132.02V14.5352C132.02 15.0872 132.232 15.4003 132.747 15.4003C133.246 15.4003 133.591 15.0022 133.591 14.4184V12.9323H134.021V15.7188H133.612L133.591 15.1243H133.564C133.421 15.5224 133.044 15.7665 132.598 15.7665ZM134.799 12.4706V11.8496H135.229V12.4706H134.799ZM134.799 15.7188V12.9323H135.229V15.7188H134.799ZM136.966 15.7718C136.25 15.7718 135.825 15.4003 135.825 14.8483H136.255C136.255 15.257 136.547 15.4481 136.977 15.4481C137.412 15.4481 137.646 15.2782 137.646 14.981C137.646 14.6519 137.444 14.5564 136.94 14.4821C136.25 14.3866 135.905 14.2114 135.905 13.6966C135.905 13.2083 136.329 12.8792 136.966 12.8792C137.624 12.8792 138.023 13.2189 138.028 13.7497H137.609C137.598 13.3622 137.348 13.2083 136.961 13.2083C136.563 13.2083 136.335 13.3834 136.335 13.6541C136.335 13.962 136.563 14.0575 137.083 14.1318C137.709 14.222 138.081 14.3919 138.081 14.9439C138.081 15.4746 137.635 15.7718 136.966 15.7718ZM138.691 12.4706V11.8496H139.121V12.4706H138.691ZM138.691 15.7188V12.9323H139.121V15.7188H138.691ZM140.668 15.7188C140.259 15.7188 140.121 15.5383 140.121 15.188V13.2879H139.58V12.9323H140.121V12.099L140.551 12.0407V12.9323H141.198V13.2879H140.551V15.1137C140.551 15.3101 140.609 15.3578 140.8 15.3578H141.198V15.7188H140.668ZM141.765 12.4706V11.8496H142.195V12.4706H141.765ZM141.765 15.7188V12.9323H142.195V15.7188H141.765ZM144.155 15.7665C143.348 15.7665 142.807 15.1986 142.807 14.3335C142.807 13.479 143.333 12.8899 144.155 12.8899C144.957 12.8899 145.493 13.4524 145.493 14.3282C145.493 15.1774 144.973 15.7665 144.155 15.7665ZM144.155 15.395C144.697 15.395 145.057 15.0022 145.057 14.3282C145.057 13.6594 144.713 13.2508 144.155 13.2508C143.614 13.2508 143.248 13.6488 143.248 14.3335C143.248 14.9916 143.598 15.395 144.155 15.395ZM146.103 15.7188V12.9323H146.512L146.528 13.5108H146.559C146.729 13.1022 147.111 12.8899 147.531 12.8899C148.109 12.8899 148.534 13.2189 148.534 14.0787V15.7188H148.104V14.1637C148.104 13.5374 147.876 13.2508 147.393 13.2508C146.867 13.2508 146.528 13.6647 146.528 14.2114V15.7188H146.103Z" fill="white"/>
<path fill-rule="evenodd" clip-rule="evenodd" d="M168.815 39.4592H100.259C97.2481 39.4592 94.8066 37.0177 94.8066 34.0069C94.8066 30.9961 97.2481 28.5547 100.259 28.5547H168.815C171.826 28.5547 174.267 30.9961 174.267 34.0069C174.265 37.0177 171.826 39.4592 168.815 39.4592Z" fill="#B5A13E" stroke="white" stroke-width="0.72375" stroke-miterlimit="10"/>
<path d="M122.771 35.2578L124.188 31.3886H124.82L126.237 35.2578H125.765L125.414 34.3025H123.594L123.249 35.2578H122.771ZM123.711 33.9416H125.298L124.82 32.6465L124.523 31.8132H124.496L124.194 32.6465L123.711 33.9416ZM127.783 35.3056C126.976 35.3056 126.445 34.7324 126.445 33.8672C126.445 33.0074 126.976 32.4289 127.799 32.4289C128.457 32.4289 128.94 32.8217 128.988 33.4055H128.574C128.499 33.0074 128.186 32.7951 127.788 32.7951C127.215 32.7951 126.88 33.2303 126.88 33.8726C126.88 34.5466 127.236 34.9394 127.783 34.9394C128.229 34.9394 128.536 34.674 128.584 34.2812H129.003C128.95 34.9022 128.457 35.3056 127.783 35.3056ZM130.334 35.2578C129.925 35.2578 129.787 35.0774 129.787 34.7271V32.827H129.246V32.4714H129.787V31.6381L130.217 31.5797V32.4714H130.864V32.827H130.217V34.6528C130.217 34.8491 130.275 34.8969 130.466 34.8969H130.864V35.2578H130.334ZM131.431 32.0096V31.3886H131.861V32.0096H131.431ZM131.431 35.2578V32.4714H131.861V35.2578H131.431ZM133.269 35.2578L132.245 32.4714H132.712L133.338 34.3025L133.524 34.8757H133.54L133.715 34.3025L134.341 32.4714H134.803L133.789 35.2578H133.269ZM136.097 35.3056C135.412 35.3056 134.951 34.7801 134.951 33.8619C134.951 32.9437 135.412 32.4236 136.097 32.4236C136.585 32.4236 136.946 32.6731 137.084 33.0499H137.111L137.127 32.4714H137.541V35.2578H137.111V34.674H137.084C136.946 35.0508 136.585 35.3056 136.097 35.3056ZM136.24 34.9447C136.798 34.9447 137.106 34.4988 137.106 34.0318V33.6921C137.106 33.225 136.798 32.7792 136.24 32.7792C135.731 32.7792 135.391 33.156 135.391 33.8619C135.391 34.5625 135.731 34.9447 136.24 34.9447ZM139.083 35.2578C138.674 35.2578 138.536 35.0774 138.536 34.7271V32.827H137.995V32.4714H138.536V31.6381L138.966 31.5797V32.4714H139.614V32.827H138.966V34.6528C138.966 34.8491 139.024 34.8969 139.215 34.8969H139.614V35.2578H139.083ZM140.18 32.0096V31.3886H140.61V32.0096H140.18ZM140.18 35.2578V32.4714H140.61V35.2578H140.18ZM142.57 35.3056C141.764 35.3056 141.222 34.7377 141.222 33.8726C141.222 33.018 141.748 32.4289 142.57 32.4289C143.372 32.4289 143.908 32.9915 143.908 33.8672C143.908 34.7164 143.388 35.3056 142.57 35.3056ZM142.57 34.9341C143.112 34.9341 143.473 34.5413 143.473 33.8672C143.473 33.1985 143.128 32.7898 142.57 32.7898C142.029 32.7898 141.663 33.1879 141.663 33.8726C141.663 34.5307 142.013 34.9341 142.57 34.9341ZM144.518 35.2578V32.4714H144.927L144.943 33.0499H144.975C145.144 32.6412 145.527 32.4289 145.946 32.4289C146.524 32.4289 146.949 32.758 146.949 33.6178V35.2578H146.519V33.7027C146.519 33.0764 146.291 32.7898 145.808 32.7898C145.282 32.7898 144.943 33.2038 144.943 33.7505V35.2578H144.518Z" fill="white"/>
<path fill-rule="evenodd" clip-rule="evenodd" d="M168.815 57.592H100.259C97.2481 57.592 94.8066 55.1506 94.8066 52.1398C94.8066 49.129 97.2481 46.6875 100.259 46.6875H168.815C171.826 46.6875 174.267 49.129 174.267 52.1398C174.265 55.1506 171.826 57.592 168.815 57.592Z" fill="#979746" stroke="white" stroke-width="0.72375" stroke-miterlimit="10"/>
<path d="M123.727 53.3906V49.5215H125.478C126.296 49.5215 126.726 49.8983 126.726 50.567C126.726 51.0394 126.487 51.3844 126.036 51.5065V51.5436C126.471 51.6179 126.641 51.8727 126.641 52.3132V52.9819C126.641 53.1093 126.641 53.2473 126.699 53.3906H126.243C126.195 53.2845 126.184 53.1465 126.184 52.966V52.3928C126.184 51.9682 126.036 51.7506 125.447 51.7506H124.178V53.3906H123.727ZM124.178 51.3791H125.42C126.02 51.3791 126.259 51.0659 126.259 50.6254C126.259 50.1212 125.924 49.9089 125.42 49.9089H124.178V51.3791ZM128.435 53.4384C127.634 53.4384 127.172 52.8758 127.172 52.0107C127.172 51.1296 127.629 50.5617 128.419 50.5617C129.263 50.5617 129.677 51.1827 129.614 52.0691H127.592C127.602 52.759 127.931 53.104 128.435 53.104C128.844 53.104 129.115 52.8811 129.189 52.5467H129.603C129.523 53.1093 129.046 53.4384 128.435 53.4384ZM128.419 50.8961C127.952 50.8961 127.645 51.1933 127.602 51.7612H129.194C129.178 51.1562 128.865 50.8961 128.419 50.8961ZM130.962 53.3906C130.554 53.3906 130.416 53.2102 130.416 52.8599V50.9598H129.874V50.6042H130.416V49.7709L130.845 49.7125V50.6042H131.493V50.9598H130.845V52.7856C130.845 52.9819 130.904 53.0297 131.095 53.0297H131.493V53.3906H130.962ZM133.043 53.4384C132.242 53.4384 131.78 52.8758 131.78 52.0107C131.78 51.1296 132.236 50.5617 133.027 50.5617C133.871 50.5617 134.285 51.1827 134.221 52.0691H132.199C132.21 52.759 132.539 53.104 133.043 53.104C133.452 53.104 133.723 52.8811 133.797 52.5467H134.211C134.131 53.1093 133.654 53.4384 133.043 53.4384ZM133.027 50.8961C132.56 50.8961 132.252 51.1933 132.21 51.7612H133.802C133.786 51.1562 133.473 50.8961 133.027 50.8961ZM134.832 53.3906V50.6042H135.241L135.257 51.1827H135.289C135.459 50.774 135.841 50.5617 136.26 50.5617C136.839 50.5617 137.263 50.8908 137.263 51.7506V53.3906H136.833V51.8355C136.833 51.2092 136.605 50.9226 136.122 50.9226C135.597 50.9226 135.257 51.3366 135.257 51.8833V53.3906H134.832ZM138.716 53.3906C138.307 53.3906 138.169 53.2102 138.169 52.8599V50.9598H137.628V50.6042H138.169V49.7709L138.599 49.7125V50.6042H139.247V50.9598H138.599V52.7856C138.599 52.9819 138.658 53.0297 138.849 53.0297H139.247V53.3906H138.716ZM139.813 50.1424V49.5215H140.243V50.1424H139.813ZM139.813 53.3906V50.6042H140.243V53.3906H139.813ZM142.204 53.4384C141.397 53.4384 140.856 52.8705 140.856 52.0054C140.856 51.1509 141.381 50.5617 142.204 50.5617C143.005 50.5617 143.541 51.1243 143.541 52.0001C143.541 52.8493 143.021 53.4384 142.204 53.4384ZM142.204 53.0669C142.745 53.0669 143.106 52.6741 143.106 52.0001C143.106 51.3313 142.761 50.9226 142.204 50.9226C141.662 50.9226 141.296 51.3207 141.296 52.0054C141.296 52.6635 141.646 53.0669 142.204 53.0669ZM144.151 53.3906V50.6042H144.56L144.576 51.1827H144.608C144.778 50.774 145.16 50.5617 145.579 50.5617C146.158 50.5617 146.582 50.8908 146.582 51.7506V53.3906H146.152V51.8355C146.152 51.2092 145.924 50.9226 145.441 50.9226C144.916 50.9226 144.576 51.3366 144.576 51.8833V53.3906H144.151Z" fill="white"/>
<path fill-rule="evenodd" clip-rule="evenodd" d="M168.815 74.7404H100.259C97.2481 74.7404 94.8066 72.299 94.8066 69.2882C94.8066 66.2774 97.2481 63.8359 100.259 63.8359H168.815C171.826 63.8359 174.267 66.2774 174.267 69.2882C174.265 72.3014 171.826 74.7404 168.815 74.7404Z" fill="#778C52" stroke="white" stroke-width="0.72375" stroke-miterlimit="10"/>
<path d="M125.07 70.5391V66.6699H126.821C127.639 66.6699 128.069 67.0467 128.069 67.7155C128.069 68.1878 127.83 68.5328 127.379 68.6549V68.6921C127.814 68.7664 127.984 69.0211 127.984 69.4616V70.1304C127.984 70.2578 127.984 70.3958 128.042 70.5391H127.586C127.538 70.4329 127.527 70.2949 127.527 70.1145V69.5413C127.527 69.1167 127.379 68.899 126.789 68.899H125.521V70.5391H125.07ZM125.521 68.5275H126.763C127.363 68.5275 127.601 68.2144 127.601 67.7739C127.601 67.2696 127.267 67.0573 126.763 67.0573H125.521V68.5275ZM129.778 70.5868C128.977 70.5868 128.515 70.0242 128.515 69.1591C128.515 68.2781 128.971 67.7102 129.762 67.7102C130.606 67.7102 131.02 68.3311 130.956 69.2175H128.934C128.945 69.9075 129.274 70.2525 129.778 70.2525C130.187 70.2525 130.458 70.0295 130.532 69.6952H130.946C130.866 70.2578 130.389 70.5868 129.778 70.5868ZM129.762 68.0445C129.295 68.0445 128.987 68.3418 128.945 68.9097H130.537C130.521 68.3046 130.208 68.0445 129.762 68.0445ZM132.12 70.5391L131.096 67.7526H131.563L132.189 69.5837L132.375 70.1569H132.391L132.566 69.5837L133.192 67.7526H133.654L132.641 70.5391H132.12ZM135.065 70.5868C134.264 70.5868 133.802 70.0242 133.802 69.1591C133.802 68.2781 134.258 67.7102 135.049 67.7102C135.893 67.7102 136.307 68.3311 136.243 69.2175H134.221C134.232 69.9075 134.561 70.2525 135.065 70.2525C135.474 70.2525 135.744 70.0295 135.819 69.6952H136.233C136.153 70.2578 135.675 70.5868 135.065 70.5868ZM135.049 68.0445C134.582 68.0445 134.274 68.3418 134.232 68.9097H135.824C135.808 68.3046 135.495 68.0445 135.049 68.0445ZM136.854 70.5391V67.7526H137.263L137.279 68.3311H137.31C137.48 67.9225 137.862 67.7102 138.282 67.7102C138.86 67.7102 139.285 68.0392 139.285 68.899V70.5391H138.855V68.984C138.855 68.3577 138.627 68.0711 138.144 68.0711C137.618 68.0711 137.279 68.4851 137.279 69.0317V70.5391H136.854ZM140.998 70.5868C140.371 70.5868 139.989 70.21 139.989 69.4616V67.7526H140.419V69.3555C140.419 69.9075 140.631 70.2206 141.146 70.2206C141.645 70.2206 141.99 69.8225 141.99 69.2387V67.7526H142.42V70.5391H142.011L141.99 69.9446H141.964C141.82 70.3427 141.443 70.5868 140.998 70.5868ZM144.249 70.5868C143.448 70.5868 142.986 70.0242 142.986 69.1591C142.986 68.2781 143.443 67.7102 144.233 67.7102C145.077 67.7102 145.491 68.3311 145.428 69.2175H143.406C143.416 69.9075 143.745 70.2525 144.249 70.2525C144.658 70.2525 144.929 70.0295 145.003 69.6952H145.417C145.337 70.2578 144.86 70.5868 144.249 70.5868ZM144.233 68.0445C143.766 68.0445 143.459 68.3418 143.416 68.9097H145.008C144.992 68.3046 144.679 68.0445 144.233 68.0445Z" fill="white"/>
<path fill-rule="evenodd" clip-rule="evenodd" d="M168.815 92.3303H100.259C97.2481 92.3303 94.8066 89.8888 94.8066 86.878C94.8066 83.8672 97.2481 81.4258 100.259 81.4258H168.815C171.826 81.4258 174.267 83.8672 174.267 86.878C174.265 89.8888 171.826 92.3303 168.815 92.3303Z" fill="url(#paint5_linear_1189_5558)" stroke="white" stroke-width="0.72375" stroke-miterlimit="10"/>
<path d="M126.06 88.127V84.2578H127.811C128.629 84.2578 129.059 84.6346 129.059 85.3034C129.059 85.7757 128.82 86.1207 128.369 86.2428V86.2799C128.804 86.3542 128.974 86.609 128.974 87.0495V87.7183C128.974 87.8457 128.974 87.9837 129.032 88.127H128.576C128.528 88.0208 128.517 87.8828 128.517 87.7024V87.1291C128.517 86.7045 128.369 86.4869 127.78 86.4869H126.511V88.127H126.06ZM126.511 86.1154H127.753C128.353 86.1154 128.592 85.8023 128.592 85.3617C128.592 84.8575 128.257 84.6452 127.753 84.6452H126.511V86.1154ZM130.768 88.1747C129.967 88.1747 129.505 87.6121 129.505 86.747C129.505 85.866 129.962 85.2981 130.752 85.2981C131.596 85.2981 132.01 85.919 131.947 86.8054H129.925C129.935 87.4954 130.264 87.8403 130.768 87.8403C131.177 87.8403 131.448 87.6174 131.522 87.2831H131.936C131.856 87.8457 131.379 88.1747 130.768 88.1747ZM130.752 85.6324C130.285 85.6324 129.978 85.9296 129.935 86.4976H131.527C131.511 85.8925 131.198 85.6324 130.752 85.6324ZM132.69 88.127V85.6908H132.223V85.3458H132.69V84.8788C132.69 84.4595 132.934 84.2578 133.354 84.2578H133.736V84.6028H133.444C133.189 84.6028 133.115 84.7248 133.115 84.9318V85.3458H133.688V85.6908H133.115V88.127H132.69ZM135.153 88.1747C134.352 88.1747 133.89 87.6121 133.89 86.747C133.89 85.866 134.347 85.2981 135.137 85.2981C135.981 85.2981 136.395 85.919 136.332 86.8054H134.309C134.32 87.4954 134.649 87.8403 135.153 87.8403C135.562 87.8403 135.833 87.6174 135.907 87.2831H136.321C136.241 87.8457 135.764 88.1747 135.153 88.1747ZM135.137 85.6324C134.67 85.6324 134.363 85.9296 134.32 86.4976H135.912C135.896 85.8925 135.583 85.6324 135.137 85.6324ZM136.942 88.127V85.3405H137.325L137.351 85.8553H137.372C137.494 85.4997 137.823 85.3034 138.2 85.3034C138.264 85.3034 138.322 85.3087 138.37 85.314V85.7227C138.322 85.7173 138.264 85.712 138.2 85.712C137.712 85.712 137.404 85.988 137.367 86.4657V88.127H136.942ZM138.876 88.127V85.3405H139.258L139.284 85.8553H139.306C139.428 85.4997 139.757 85.3034 140.134 85.3034C140.197 85.3034 140.256 85.3087 140.303 85.314V85.7227C140.256 85.7173 140.197 85.712 140.134 85.712C139.645 85.712 139.337 85.988 139.3 86.4657V88.127H138.876ZM141.661 88.1747C140.976 88.1747 140.514 87.6493 140.514 86.7311C140.514 85.8129 140.976 85.2927 141.661 85.2927C142.149 85.2927 142.51 85.5422 142.648 85.919H142.674L142.69 85.3405H143.104V88.127H142.674V87.5431H142.648C142.51 87.92 142.149 88.1747 141.661 88.1747ZM141.804 87.8138C142.361 87.8138 142.669 87.368 142.669 86.9009V86.5612C142.669 86.0942 142.361 85.6484 141.804 85.6484C141.294 85.6484 140.955 86.0252 140.955 86.7311C140.955 87.4317 141.294 87.8138 141.804 87.8138ZM143.909 88.127V84.2578H144.338V88.127H143.909Z" fill="white"/>
</g>
<defs>
<linearGradient id="paint0_linear_1189_5558" x1="26.5754" y1="86.8781" x2="60.8458" y2="86.8781" gradientUnits="userSpaceOnUse">
<stop stop-color="#223237"/>
<stop offset="0.4894" stop-color="#33464C"/>
<stop offset="1" stop-color="#1B2730"/>
</linearGradient>
<linearGradient id="paint1_linear_1189_5558" x1="21.8491" y1="69.2897" x2="60.0819" y2="69.2897" gradientUnits="userSpaceOnUse">
<stop stop-color="#98B267"/>
<stop offset="0.5" stop-color="#B4CE80"/>
<stop offset="1" stop-color="#9FBA6B"/>
</linearGradient>
<linearGradient id="paint2_linear_1189_5558" x1="16.2708" y1="52.1408" x2="71.0379" y2="52.1408" gradientUnits="userSpaceOnUse">
<stop offset="2.07784e-07" stop-color="#D7DF23"/>
<stop offset="0.5028" stop-color="#D8E373"/>
<stop offset="0.9955" stop-color="#D7DF23"/>
</linearGradient>
<linearGradient id="paint3_linear_1189_5558" x1="10.6424" y1="34.0091" x2="79.2373" y2="34.0091" gradientUnits="userSpaceOnUse">
<stop stop-color="#ECC543"/>
<stop offset="0.4" stop-color="#F9DA57"/>
<stop offset="1" stop-color="#EBCB45"/>
</linearGradient>
<linearGradient id="paint4_linear_1189_5558" x1="4.93197" y1="14.3772" x2="84.7856" y2="14.3772" gradientUnits="userSpaceOnUse">
<stop stop-color="#750503"/>
<stop offset="0.5" stop-color="#9F2214"/>
<stop offset="1" stop-color="#700101"/>
</linearGradient>
<linearGradient id="paint5_linear_1189_5558" x1="94.8066" y1="86.8781" x2="174.265" y2="86.8781" gradientUnits="userSpaceOnUse">
<stop stop-color="#223237"/>
<stop offset="0.4894" stop-color="#33464C"/>
<stop offset="1" stop-color="#1B2730"/>
</linearGradient>
<clipPath id="clip0_1189_5558">
<rect width="180" height="100" fill="white" transform="translate(0.97168)"/>
</clipPath>
</defs>
</svg>
